{"accessors":[{"bufferView":0,"byteOffset":0,"componentType":5123,"count":4290,"type":"SCALAR"},{"bufferView":1,"byteOffset":0,"componentType":5126,"count":1301,"max":[0.0803793147206306,0.243296906352043,0.0764452666044235],"min":[-0.06502824276686,-0.00370372994803,-0.07644526660442],"type":"VEC3"},{"bufferView":2,"byteOffset":0,"componentType":5126,"count":1301,"type":"VEC3"},{"bufferView":3,"byteOffset":0,"componentType":5126,"count":1301,"type":"VEC4"},{"bufferView":4,"byteOffset":0,"componentType":5126,"count":1301,"type":"VEC2"},{"bufferView":5,"byteOffset":0,"componentType":5123,"count":216,"type":"SCALAR"},{"bufferView":6,"byteOffset":0,"componentType":5126,"count":49,"max":[0.0372390896081924,0.336087495088577,0.00692821014672518],"min":[-0.03723908960819,0.25008749961853,-0.00692821014673],"type":"VEC3"},{"bufferView":7,"byteOffset":0,"componentType":5126,"count":49,"type":"VEC3"},{"bufferView":8,"byteOffset":0,"componentType":5126,"count":49,"type":"VEC4"},{"bufferView":9,"byteOffset":0,"componentType":5126,"count":49,"type":"VEC2"},{"bufferView":10,"byteOffset":0,"componentType":5123,"count":168,"type":"SCALAR"},{"bufferView":11,"byteOffset":0,"componentType":5126,"count":58,"max":[0.0133215291425586,0.260526686906815,0.011536780744791],"min":[-0.01332152914256,0.242594197392464,-0.01153678074479],"type":"VEC3"},{"bufferView":12,"byteOffset":0,"componentType":5126,"count":58,"type":"VEC3"},{"bufferView":13,"byteOffset":0,"componentType":5126,"count":58,"type":"VEC4"},{"bufferView":14,"byteOffset":0,"componentType":5126,"count":58,"type":"VEC2"}],"asset":{"generator":"FBX2glTF v0.13.1","version":"2.0"},"bufferViews":[{"buffer":0,"byteLength":8580,"byteOffset":0,"target":34963},{"buffer":0,"byteLength":15612,"byteOffset":8580,"target":34962},{"buffer":0,"byteLength":15612,"byteOffset":24192,"target":34962},{"buffer":0,"byteLength":20816,"byteOffset":39804,"target":34962},{"buffer":0,"byteLength":10408,"byteOffset":60620,"target":34962},{"buffer":0,"byteLength":432,"byteOffset":71028,"target":34963},{"buffer":0,"byteLength":588,"byteOffset":71460,"target":34962},{"buffer":0,"byteLength":588,"byteOffset":72048,"target":34962},{"buffer":0,"byteLength":784,"byteOffset":72636,"target":34962},{"buffer":0,"byteLength":392,"byteOffset":73420,"target":34962},{"buffer":0,"byteLength":336,"byteOffset":73812,"target":34963},{"buffer":0,"byteLength":696,"byteOffset":74148,"target":34962},{"buffer":0,"byteLength":696,"byteOffset":74844,"target":34962},{"buffer":0,"byteLength":928,"byteOffset":75540,"target":34962},{"buffer":0,"byteLength":464,"byteOffset":76468,"target":34962}],"buffers":[{"byteLength":76932,"uri":"lantern_a.bin"}],"materials":[{"alphaMode":"OPAQUE","doubleSided":false,"extras":{"fromFBX":{"isTruePBR":false,"shadingModel":"Phong"}},"name":"Default","pbrMetallicRoughness":{"baseColorFactor":[1,1,1,1],"metallicFactor":0.400000005960464,"roughnessFactor":0.816496610641479}}],"meshes":[{"name":"1_low","primitives":[{"attributes":{"NORMAL":2,"POSITION":1,"TANGENT":3,"TEXCOORD_0":4},"indices":0,"material":0,"mode":4}]},{"name":"2_low","primitives":[{"attributes":{"NORMAL":7,"POSITION":6,"TANGENT":8,"TEXCOORD_0":9},"indices":5,"material":0,"mode":4}]},{"name":"3_low","primitives":[{"attributes":{"NORMAL":12,"POSITION":11,"TANGENT":13,"TEXCOORD_0":14},"indices":10,"material":0,"mode":4}]}],"nodes":[{"name":"Render","rotation":[0,0,0,1],"scale":[1,1,1],"translation":[0,0,0]},{"name":"Main Camera","rotation":[-0.1416058242321,0.5742506980896,0.101658515632153,0.799905896186829],"scale":[1,1,1],"translation":[0.651887059211731,0.414710521697998,0.21744005382061]},{"name":"Sky","rotation":[0,0.0654030814766884,0,0.997858941555023],"scale":[1,1,1],"translation":[0,0,0]},{"children":[4,6,8],"name":"lantern_a_low_SG","rotation":[0,0,0,1],"scale":[1,1,1],"translation":[0,0,0]},{"children":[5],"mesh":0,"name":"1_low","rotation":[0,0,0,1],"scale":[1,1,1],"translation":[0,0,0]},{"name":"Default","rotation":[0,0,0,1],"scale":[1,1,1],"translation":[0,0,0]},{"children":[7],"mesh":1,"name":"2_low","rotation":[0,0,0,1],"scale":[1,1,1],"translation":[0,0,0]},{"name":"Default 1","rotation":[0,0,0,1],"scale":[1,1,1],"translation":[0,0,0]},{"children":[9],"mesh":2,"name":"3_low","rotation":[0,0,0,1],"scale":[1,1,1],"translation":[0,0,0]},{"name":"Default 2","rotation":[0,0,0,1],"scale":[1,1,1],"translation":[0,0,0]}],"samplers":[{}],"scene":0,"scenes":[{"name":"Root Scene","nodes":[0,1,2,3]}]}