{"accessors":[{"bufferView":0,"byteOffset":0,"componentType":5126,"count":1,"max":[0],"min":[0],"type":"SCALAR"},{"bufferView":1,"byteOffset":0,"componentType":5123,"count":324,"type":"SCALAR"},{"bufferView":2,"byteOffset":0,"componentType":5126,"count":324,"max":[2.40871095657349,0.569462239742279,2.66240239143372],"min":[-2.40872073173523,0,-2.66240477561951],"type":"VEC3"},{"bufferView":3,"byteOffset":0,"componentType":5126,"count":324,"type":"VEC3"},{"bufferView":4,"byteOffset":0,"componentType":5126,"count":324,"type":"VEC2"}],"animations":[{"channels":[],"name":"Take 001","samplers":[]}],"asset":{"generator":"FBX2glTF v0.13.1","version":"2.0"},"bufferViews":[{"buffer":0,"byteLength":4,"byteOffset":0},{"buffer":0,"byteLength":648,"byteOffset":4,"target":34963},{"buffer":0,"byteLength":3888,"byteOffset":652,"target":34962},{"buffer":0,"byteLength":3888,"byteOffset":4540,"target":34962},{"buffer":0,"byteLength":2592,"byteOffset":8428,"target":34962}],"buffers":[{"byteLength":11020,"uri":"SM_Env_GroundMounds_01.bin"}],"images":[{"name":"Texture_01","uri":"Texture_01.psd"}],"materials":[{"alphaMode":"OPAQUE","doubleSided":false,"extras":{"fromFBX":{"isTruePBR":false,"shadingModel":"Phong"}},"name":"blinn1","pbrMetallicRoughness":{"baseColorFactor":[0.800000011920929,0.800000011920929,0.800000011920929,1],"baseColorTexture":{"index":0,"texCoord":0},"metallicFactor":0.400000005960464,"roughnessFactor":0.471501290798187}}],"meshes":[{"name":"SM_Env_GroundMounds_01","primitives":[{"attributes":{"NORMAL":3,"POSITION":2,"TEXCOORD_0":4},"indices":1,"material":0,"mode":4}]}],"nodes":[{"mesh":0,"name":"SM_Env_GroundMounds_01","rotation":[0,0,0,1],"scale":[1,1,1],"translation":[0,0,0]}],"samplers":[{}],"scene":0,"scenes":[{"name":"Root Scene","nodes":[0]}],"textures":[{"name":"file3","sampler":0,"source":0}]}