{"accessors":[{"bufferView":0,"byteOffset":0,"componentType":5126,"count":1,"max":[0],"min":[0],"type":"SCALAR"},{"bufferView":1,"byteOffset":0,"componentType":5123,"count":858,"type":"SCALAR"},{"bufferView":2,"byteOffset":0,"componentType":5126,"count":464,"max":[0.814934968948364,0.140844851732254,0.709724724292755],"min":[-0.81493496894836,0,-0.70972472429276],"type":"VEC3"},{"bufferView":3,"byteOffset":0,"componentType":5126,"count":464,"type":"VEC3"},{"bufferView":4,"byteOffset":0,"componentType":5126,"count":464,"type":"VEC2"}],"animations":[{"channels":[],"name":"Take 001","samplers":[]}],"asset":{"generator":"FBX2glTF v0.13.1","version":"2.0"},"bufferViews":[{"buffer":0,"byteLength":4,"byteOffset":0},{"buffer":0,"byteLength":1716,"byteOffset":4,"target":34963},{"buffer":0,"byteLength":5568,"byteOffset":1720,"target":34962},{"buffer":0,"byteLength":5568,"byteOffset":7288,"target":34962},{"buffer":0,"byteLength":3712,"byteOffset":12856,"target":34962}],"buffers":[{"byteLength":16568,"uri":"SM_Env_Lillypads_02.bin"}],"images":[{"name":"Texture_01","uri":"Texture_01.png"}],"materials":[{"alphaMode":"OPAQUE","doubleSided":false,"extras":{"fromFBX":{"isTruePBR":false,"shadingModel":"Phong"}},"name":"blinn1","pbrMetallicRoughness":{"baseColorFactor":[0.800000011920929,0.800000011920929,0.800000011920929,1],"baseColorTexture":{"index":0,"texCoord":0},"metallicFactor":0.400000005960464,"roughnessFactor":0.471501290798187}}],"meshes":[{"name":"SM_Env_Lillypads_02","primitives":[{"attributes":{"NORMAL":3,"POSITION":2,"TEXCOORD_0":4},"indices":1,"material":0,"mode":4}]}],"nodes":[{"mesh":0,"name":"SM_Env_Lillypads_02","rotation":[0,0,0,1],"scale":[1,1,1],"translation":[0,0,0]}],"samplers":[{}],"scene":0,"scenes":[{"name":"Root Scene","nodes":[0]}],"textures":[{"name":"file3","sampler":0,"source":0}]}