{"accessors":[{"bufferView":0,"byteOffset":0,"componentType":5126,"count":1,"max":[0],"min":[0],"type":"SCALAR"},{"bufferView":1,"byteOffset":0,"componentType":5123,"count":3570,"type":"SCALAR"},{"bufferView":2,"byteOffset":0,"componentType":5126,"count":3300,"max":[6,0.332355350255966,5],"min":[-3,-0.08549731969833,-0.00000006935754],"type":"VEC3"},{"bufferView":3,"byteOffset":0,"componentType":5126,"count":3300,"type":"VEC3"},{"bufferView":4,"byteOffset":0,"componentType":5126,"count":3300,"type":"VEC2"}],"animations":[{"channels":[],"name":"Take 001","samplers":[]}],"asset":{"generator":"FBX2glTF v0.13.1","version":"2.0"},"bufferViews":[{"buffer":0,"byteLength":4,"byteOffset":0},{"buffer":0,"byteLength":7140,"byteOffset":4,"target":34963},{"buffer":0,"byteLength":39600,"byteOffset":7144,"target":34962},{"buffer":0,"byteLength":39600,"byteOffset":46744,"target":34962},{"buffer":0,"byteLength":26400,"byteOffset":86344,"target":34962}],"buffers":[{"byteLength":112744,"uri":"SM_Env_Road_Cross_01.bin"}],"images":[{"name":"Texture_01","uri":"Texture_01.psd"}],"materials":[{"alphaMode":"OPAQUE","doubleSided":false,"extras":{"fromFBX":{"isTruePBR":false,"shadingModel":"Phong"}},"name":"blinn1","pbrMetallicRoughness":{"baseColorFactor":[0.800000011920929,0.800000011920929,0.800000011920929,1],"baseColorTexture":{"index":0,"texCoord":0},"metallicFactor":0.400000005960464,"roughnessFactor":0.471501290798187}}],"meshes":[{"name":"SM_Env_Road_Cross_01","primitives":[{"attributes":{"NORMAL":3,"POSITION":2,"TEXCOORD_0":4},"indices":1,"material":0,"mode":4}]}],"nodes":[{"mesh":0,"name":"SM_Env_Road_Cross_01","rotation":[0,0,0,1],"scale":[1,1,1],"translation":[0,0,0]}],"samplers":[{}],"scene":0,"scenes":[{"name":"Root Scene","nodes":[0]}],"textures":[{"name":"file3","sampler":0,"source":0}]}