{"accessors":[{"bufferView":0,"byteOffset":0,"componentType":5126,"count":1,"max":[0],"min":[0],"type":"SCALAR"},{"bufferView":1,"byteOffset":0,"componentType":5123,"count":1452,"type":"SCALAR"},{"bufferView":2,"byteOffset":0,"componentType":5126,"count":1446,"max":[3.46076154708862,0.399714916944504,3.66435050964355],"min":[-3.46077132225037,0.0000000190734859017994,-3.66435050964355],"type":"VEC3"},{"bufferView":3,"byteOffset":0,"componentType":5126,"count":1446,"type":"VEC3"},{"bufferView":4,"byteOffset":0,"componentType":5126,"count":1446,"type":"VEC2"}],"animations":[{"channels":[],"name":"Take 001","samplers":[]}],"asset":{"generator":"FBX2glTF v0.13.1","version":"2.0"},"bufferViews":[{"buffer":0,"byteLength":4,"byteOffset":0},{"buffer":0,"byteLength":2904,"byteOffset":4,"target":34963},{"buffer":0,"byteLength":17352,"byteOffset":2908,"target":34962},{"buffer":0,"byteLength":17352,"byteOffset":20260,"target":34962},{"buffer":0,"byteLength":11568,"byteOffset":37612,"target":34962}],"buffers":[{"byteLength":49180,"uri":"SM_Env_GroundMounds_09.bin"}],"images":[{"name":"Texture_01","uri":"Texture_01.psd"}],"materials":[{"alphaMode":"OPAQUE","doubleSided":false,"extras":{"fromFBX":{"isTruePBR":false,"shadingModel":"Phong"}},"name":"blinn1","pbrMetallicRoughness":{"baseColorFactor":[0.800000011920929,0.800000011920929,0.800000011920929,1],"baseColorTexture":{"index":0,"texCoord":0},"metallicFactor":0.400000005960464,"roughnessFactor":0.471501290798187}}],"meshes":[{"name":"SM_Env_GroundMounds_09","primitives":[{"attributes":{"NORMAL":3,"POSITION":2,"TEXCOORD_0":4},"indices":1,"material":0,"mode":4}]}],"nodes":[{"mesh":0,"name":"SM_Env_GroundMounds_09","rotation":[0,0,0,1],"scale":[1,1,1],"translation":[0,0,0]}],"samplers":[{}],"scene":0,"scenes":[{"name":"Root Scene","nodes":[0]}],"textures":[{"name":"file3","sampler":0,"source":0}]}