{"accessors":[{"bufferView":0,"byteOffset":0,"componentType":5126,"count":1,"max":[0],"min":[0],"type":"SCALAR"},{"bufferView":1,"byteOffset":0,"componentType":5123,"count":1542,"type":"SCALAR"},{"bufferView":2,"byteOffset":0,"componentType":5126,"count":1510,"max":[3.75705456733704,2.16077566146851,3.70122671127319],"min":[-4.15082502365112,-0.63760006427765,-3.66179919242859],"type":"VEC3"},{"bufferView":3,"byteOffset":0,"componentType":5126,"count":1510,"type":"VEC3"},{"bufferView":4,"byteOffset":0,"componentType":5126,"count":1510,"type":"VEC2"}],"animations":[{"channels":[],"name":"Take 001","samplers":[]}],"asset":{"generator":"FBX2glTF v0.13.1","version":"2.0"},"bufferViews":[{"buffer":0,"byteLength":4,"byteOffset":0},{"buffer":0,"byteLength":3084,"byteOffset":4,"target":34963},{"buffer":0,"byteLength":18120,"byteOffset":3088,"target":34962},{"buffer":0,"byteLength":18120,"byteOffset":21208,"target":34962},{"buffer":0,"byteLength":12080,"byteOffset":39328,"target":34962}],"buffers":[{"byteLength":51408,"uri":"SM_Env_DirtMound_01.bin"}],"images":[{"name":"Texture_04","uri":"Texture_04.png"}],"materials":[{"alphaMode":"OPAQUE","doubleSided":false,"extras":{"fromFBX":{"isTruePBR":false,"shadingModel":"Phong"}},"name":"blinn1","pbrMetallicRoughness":{"baseColorFactor":[0.800000011920929,0.800000011920929,0.800000011920929,1],"baseColorTexture":{"index":0,"texCoord":0},"metallicFactor":0.400000005960464,"roughnessFactor":0.471501290798187}}],"meshes":[{"name":"SM_Env_DirtMound_01","primitives":[{"attributes":{"NORMAL":3,"POSITION":2,"TEXCOORD_0":4},"indices":1,"material":0,"mode":4}]}],"nodes":[{"mesh":0,"name":"SM_Env_DirtMound_01","rotation":[0,0,0,1],"scale":[1,1,1],"translation":[0,0,0]}],"samplers":[{}],"scene":0,"scenes":[{"name":"Root Scene","nodes":[0]}],"textures":[{"name":"file3","sampler":0,"source":0}]}