{"accessors":[{"bufferView":0,"byteOffset":0,"componentType":5126,"count":1,"max":[0],"min":[0],"type":"SCALAR"},{"bufferView":1,"byteOffset":0,"componentType":5123,"count":1128,"type":"SCALAR"},{"bufferView":2,"byteOffset":0,"componentType":5126,"count":1128,"max":[0.239615708589554,0.377065181732178,0.267314612865448],"min":[-0.23961493372917,-0.00000000238419,-0.26731443405151],"type":"VEC3"},{"bufferView":3,"byteOffset":0,"componentType":5126,"count":1128,"type":"VEC3"},{"bufferView":4,"byteOffset":0,"componentType":5126,"count":1128,"type":"VEC2"}],"animations":[{"channels":[],"name":"Take 001","samplers":[]}],"asset":{"generator":"FBX2glTF v0.13.1","version":"2.0"},"bufferViews":[{"buffer":0,"byteLength":4,"byteOffset":0},{"buffer":0,"byteLength":2256,"byteOffset":4,"target":34963},{"buffer":0,"byteLength":13536,"byteOffset":2260,"target":34962},{"buffer":0,"byteLength":13536,"byteOffset":15796,"target":34962},{"buffer":0,"byteLength":9024,"byteOffset":29332,"target":34962}],"buffers":[{"byteLength":38356,"uri":"SM_Env_Flower_07.bin"}],"images":[{"name":"Texture_01","uri":"Texture_01.png"}],"materials":[{"alphaMode":"OPAQUE","doubleSided":false,"extras":{"fromFBX":{"isTruePBR":false,"shadingModel":"Phong"}},"name":"blinn6","pbrMetallicRoughness":{"baseColorFactor":[0.800000011920929,0.800000011920929,0.800000011920929,1],"baseColorTexture":{"index":0,"texCoord":0},"metallicFactor":0.400000005960464,"roughnessFactor":0.490532398223877}}],"meshes":[{"name":"SM_Env_Flower_07","primitives":[{"attributes":{"NORMAL":3,"POSITION":2,"TEXCOORD_0":4},"indices":1,"material":0,"mode":4}]}],"nodes":[{"mesh":0,"name":"SM_Env_Flower_07","rotation":[0,0,0,1],"scale":[1,1,1],"translation":[0,0,0]}],"samplers":[{}],"scene":0,"scenes":[{"name":"Root Scene","nodes":[0]}],"textures":[{"name":"file98","sampler":0,"source":0}]}