{"accessors":[{"bufferView":0,"byteOffset":0,"componentType":5126,"count":1,"max":[0],"min":[0],"type":"SCALAR"},{"bufferView":1,"byteOffset":0,"componentType":5123,"count":1296,"type":"SCALAR"},{"bufferView":2,"byteOffset":0,"componentType":5126,"count":1288,"max":[0.17349761724472,0.347072601318359,0.179435566067696],"min":[-0.17349761724472,0,-0.17943511903286],"type":"VEC3"},{"bufferView":3,"byteOffset":0,"componentType":5126,"count":1288,"type":"VEC3"},{"bufferView":4,"byteOffset":0,"componentType":5126,"count":1288,"type":"VEC2"}],"animations":[{"channels":[],"name":"Take 001","samplers":[]}],"asset":{"generator":"FBX2glTF v0.13.1","version":"2.0"},"bufferViews":[{"buffer":0,"byteLength":4,"byteOffset":0},{"buffer":0,"byteLength":2592,"byteOffset":4,"target":34963},{"buffer":0,"byteLength":15456,"byteOffset":2596,"target":34962},{"buffer":0,"byteLength":15456,"byteOffset":18052,"target":34962},{"buffer":0,"byteLength":10304,"byteOffset":33508,"target":34962}],"buffers":[{"byteLength":43812,"uri":"SM_Prop_Basket_03.bin"}],"images":[{"name":"Texture_01","uri":"Texture_01.psd"}],"materials":[{"alphaMode":"OPAQUE","doubleSided":false,"extras":{"fromFBX":{"isTruePBR":false,"shadingModel":"Phong"}},"name":"blinn1","pbrMetallicRoughness":{"baseColorFactor":[0.800000011920929,0.800000011920929,0.800000011920929,1],"baseColorTexture":{"index":0,"texCoord":0},"metallicFactor":0.400000005960464,"roughnessFactor":0.471501290798187}}],"meshes":[{"name":"SM_Prop_Basket_03","primitives":[{"attributes":{"NORMAL":3,"POSITION":2,"TEXCOORD_0":4},"indices":1,"material":0,"mode":4}]}],"nodes":[{"mesh":0,"name":"SM_Prop_Basket_03","rotation":[0,0,0,1],"scale":[1,1,1],"translation":[0,0,0]}],"samplers":[{}],"scene":0,"scenes":[{"name":"Root Scene","nodes":[0]}],"textures":[{"name":"file3","sampler":0,"source":0}]}