{"accessors":[{"bufferView":0,"byteOffset":0,"componentType":5126,"count":1,"max":[0],"min":[0],"type":"SCALAR"},{"bufferView":1,"byteOffset":0,"componentType":5123,"count":864,"type":"SCALAR"},{"bufferView":2,"byteOffset":0,"componentType":5126,"count":504,"max":[0.617006361484528,0.399927407503128,0.327460944652557],"min":[-0.61700636148453,0,-0.34555724263191],"type":"VEC3"},{"bufferView":3,"byteOffset":0,"componentType":5126,"count":504,"type":"VEC3"},{"bufferView":4,"byteOffset":0,"componentType":5126,"count":504,"type":"VEC2"},{"bufferView":5,"byteOffset":0,"componentType":5123,"count":1170,"type":"SCALAR"},{"bufferView":6,"byteOffset":0,"componentType":5126,"count":1007,"max":[0.605007767677307,0.689697265625,0.385828226804733],"min":[-0.60500776767731,0.283418715000153,-0.33189451694488],"type":"VEC3"},{"bufferView":7,"byteOffset":0,"componentType":5126,"count":1007,"type":"VEC3"},{"bufferView":8,"byteOffset":0,"componentType":5126,"count":1007,"type":"VEC2"}],"animations":[{"channels":[],"name":"Take 001","samplers":[]}],"asset":{"generator":"FBX2glTF v0.13.1","version":"2.0"},"bufferViews":[{"buffer":0,"byteLength":4,"byteOffset":0},{"buffer":0,"byteLength":1728,"byteOffset":4,"target":34963},{"buffer":0,"byteLength":6048,"byteOffset":1732,"target":34962},{"buffer":0,"byteLength":6048,"byteOffset":7780,"target":34962},{"buffer":0,"byteLength":4032,"byteOffset":13828,"target":34962},{"buffer":0,"byteLength":2340,"byteOffset":17860,"target":34963},{"buffer":0,"byteLength":12084,"byteOffset":20200,"target":34962},{"buffer":0,"byteLength":12084,"byteOffset":32284,"target":34962},{"buffer":0,"byteLength":8056,"byteOffset":44368,"target":34962}],"buffers":[{"byteLength":52424,"uri":"SM_Prop_Chest_01.bin"}],"images":[{"name":"Texture_01","uri":"Texture_01.psd"}],"materials":[{"alphaMode":"OPAQUE","doubleSided":false,"extras":{"fromFBX":{"isTruePBR":false,"shadingModel":"Phong"}},"name":"blinn1","pbrMetallicRoughness":{"baseColorFactor":[0.800000011920929,0.800000011920929,0.800000011920929,1],"baseColorTexture":{"index":0,"texCoord":0},"metallicFactor":0.400000005960464,"roughnessFactor":0.471501290798187}}],"meshes":[{"name":"SM_Prop_Chest_01","primitives":[{"attributes":{"NORMAL":3,"POSITION":2,"TEXCOORD_0":4},"indices":1,"material":0,"mode":4}]},{"name":"SM_Prop_Chest_Lid_01","primitives":[{"attributes":{"NORMAL":7,"POSITION":6,"TEXCOORD_0":8},"indices":5,"material":0,"mode":4}]}],"nodes":[{"children":[1],"mesh":0,"name":"SM_Prop_Chest_01","rotation":[0,0,0,1],"scale":[1,1,1],"translation":[0,0,0]},{"mesh":1,"name":"SM_Prop_Chest_Lid_01","rotation":[0,0,0,1],"scale":[1,1,1],"translation":[0,0,0]}],"samplers":[{}],"scene":0,"scenes":[{"name":"Root Scene","nodes":[0]}],"textures":[{"name":"file3","sampler":0,"source":0}]}