{"accessors":[{"bufferView":0,"byteOffset":0,"componentType":5123,"count":3780,"type":"SCALAR"},{"bufferView":1,"byteOffset":0,"componentType":5126,"count":3407,"max":[0.246775507926941,0.844987630844116,0.119812563061714],"min":[-0.24677519500256,0.0000000190734859017994,-0.11981283128262],"type":"VEC3"},{"bufferView":2,"byteOffset":0,"componentType":5126,"count":3407,"type":"VEC3"},{"bufferView":3,"byteOffset":0,"componentType":5126,"count":3407,"type":"VEC2"}],"asset":{"generator":"FBX2glTF v0.13.1","version":"2.0"},"bufferViews":[{"buffer":0,"byteLength":7560,"byteOffset":0,"target":34963},{"buffer":0,"byteLength":40884,"byteOffset":7560,"target":34962},{"buffer":0,"byteLength":40884,"byteOffset":48444,"target":34962},{"buffer":0,"byteLength":27256,"byteOffset":89328,"target":34962}],"buffers":[{"byteLength":116584,"uri":"SM_Wep_Shield_01.bin"}],"images":[{"name":"Texture_01","uri":"Texture_01.psd"}],"materials":[{"alphaMode":"OPAQUE","doubleSided":false,"extras":{"fromFBX":{"isTruePBR":false,"shadingModel":"Phong"}},"name":"blinn2","pbrMetallicRoughness":{"baseColorFactor":[0.800000011920929,0.800000011920929,0.800000011920929,1],"baseColorTexture":{"index":0,"texCoord":0},"metallicFactor":0.400000005960464,"roughnessFactor":0.471501290798187}}],"meshes":[{"name":"SM_Wep_Shield_01","primitives":[{"attributes":{"NORMAL":2,"POSITION":1,"TEXCOORD_0":3},"indices":0,"material":0,"mode":4}]}],"nodes":[{"mesh":0,"name":"SM_Wep_Shield_01","rotation":[0,0,0,1],"scale":[1,1,1],"translation":[0,0,0]}],"samplers":[{}],"scene":0,"scenes":[{"name":"Root Scene","nodes":[0]}],"textures":[{"name":"file3","sampler":0,"source":0}]}