{"accessors":[{"bufferView":0,"byteOffset":0,"componentType":5126,"count":1,"max":[0],"min":[0],"type":"SCALAR"},{"bufferView":1,"byteOffset":0,"componentType":5123,"count":1116,"type":"SCALAR"},{"bufferView":2,"byteOffset":0,"componentType":5126,"count":1080,"max":[0.0664697214961052,0.634689331054688,0.428526908159256],"min":[-0.06646484136581,-0.28258514404297,-0.44818586111069],"type":"VEC3"},{"bufferView":3,"byteOffset":0,"componentType":5126,"count":1080,"type":"VEC3"},{"bufferView":4,"byteOffset":0,"componentType":5126,"count":1080,"type":"VEC2"}],"animations":[{"channels":[],"name":"Take 001","samplers":[]}],"asset":{"generator":"FBX2glTF v0.13.1","version":"2.0"},"bufferViews":[{"buffer":0,"byteLength":4,"byteOffset":0},{"buffer":0,"byteLength":2232,"byteOffset":4,"target":34963},{"buffer":0,"byteLength":12960,"byteOffset":2236,"target":34962},{"buffer":0,"byteLength":12960,"byteOffset":15196,"target":34962},{"buffer":0,"byteLength":8640,"byteOffset":28156,"target":34962}],"buffers":[{"byteLength":36796,"uri":"SM_Wep_Pickaxe_01.bin"}],"images":[{"name":"Texture_01","uri":"Texture_01.psd"}],"materials":[{"alphaMode":"OPAQUE","doubleSided":false,"extras":{"fromFBX":{"isTruePBR":false,"shadingModel":"Lambert"}},"name":"lambert1","pbrMetallicRoughness":{"baseColorFactor":[0.800000011920929,0.800000011920929,0.800000011920929,1],"baseColorTexture":{"index":0,"texCoord":0},"metallicFactor":0.200000002980232,"roughnessFactor":0.800000011920929}}],"meshes":[{"name":"SM_Wep_Pickaxe_01","primitives":[{"attributes":{"NORMAL":3,"POSITION":2,"TEXCOORD_0":4},"indices":1,"material":0,"mode":4}]}],"nodes":[{"mesh":0,"name":"SM_Wep_Pickaxe_01","rotation":[0,0,0,1],"scale":[1,1,1],"translation":[0,0,0]}],"samplers":[{}],"scene":0,"scenes":[{"name":"Root Scene","nodes":[0]}],"textures":[{"name":"file1","sampler":0,"source":0}]}