{"accessors":[{"bufferView":0,"byteOffset":0,"componentType":5123,"count":60,"type":"SCALAR"},{"bufferView":1,"byteOffset":0,"componentType":5126,"count":34,"max":[0.0112724872305989,0.134679943323135,0.00327119464054704],"min":[-0.0112724872306,-0.00653941836208,0],"type":"VEC3"},{"bufferView":2,"byteOffset":0,"componentType":5126,"count":34,"type":"VEC3"},{"bufferView":3,"byteOffset":0,"componentType":5126,"count":34,"type":"VEC2"},{"bufferView":4,"byteOffset":0,"componentType":5123,"count":54,"type":"SCALAR"},{"bufferView":5,"byteOffset":0,"componentType":5126,"count":38,"max":[0.0120954606682062,0.0489841438829899,0.00327119464054704],"min":[-0.01043954864144,-0.0207927506417,0],"type":"VEC3"},{"bufferView":6,"byteOffset":0,"componentType":5126,"count":38,"type":"VEC3"},{"bufferView":7,"byteOffset":0,"componentType":5126,"count":38,"type":"VEC2"},{"bufferView":8,"byteOffset":0,"componentType":5123,"count":24,"type":"SCALAR"},{"bufferView":9,"byteOffset":0,"componentType":5126,"count":16,"max":[0.0112724872305989,0.134679943323135,0.00327119464054704],"min":[-0.0112724872306,-0.01951560005546,0],"type":"VEC3"},{"bufferView":10,"byteOffset":0,"componentType":5126,"count":16,"type":"VEC3"},{"bufferView":11,"byteOffset":0,"componentType":5126,"count":16,"type":"VEC2"},{"bufferView":12,"byteOffset":0,"componentType":5123,"count":69,"type":"SCALAR"},{"bufferView":13,"byteOffset":0,"componentType":5126,"count":31,"max":[0.0112724872305989,0.134679943323135,0.00327119464054704],"min":[-0.0112724872306,-0.16859191656113,0],"type":"VEC3"},{"bufferView":14,"byteOffset":0,"componentType":5126,"count":31,"type":"VEC3"},{"bufferView":15,"byteOffset":0,"componentType":5126,"count":31,"type":"VEC2"},{"bufferView":16,"byteOffset":0,"componentType":5123,"count":24,"type":"SCALAR"},{"bufferView":17,"byteOffset":0,"componentType":5126,"count":16,"max":[0.0112724872305989,0.134679943323135,0.00327119464054704],"min":[-0.0112724872306,-0.13396123051643,0],"type":"VEC3"},{"bufferView":18,"byteOffset":0,"componentType":5126,"count":16,"type":"VEC3"},{"bufferView":19,"byteOffset":0,"componentType":5126,"count":16,"type":"VEC2"},{"bufferView":20,"byteOffset":0,"componentType":5123,"count":48,"type":"SCALAR"},{"bufferView":21,"byteOffset":0,"componentType":5126,"count":34,"max":[0.0112724872305989,0.134679943323135,0.00327119464054704],"min":[-0.0112724872306,-0.00653941836208,-0.00065593270119],"type":"VEC3"},{"bufferView":22,"byteOffset":0,"componentType":5126,"count":34,"type":"VEC3"},{"bufferView":23,"byteOffset":0,"componentType":5126,"count":34,"type":"VEC2"},{"bufferView":24,"byteOffset":0,"componentType":5123,"count":42,"type":"SCALAR"},{"bufferView":25,"byteOffset":0,"componentType":5126,"count":28,"max":[0.0120954606682062,0.0489841438829899,0.00327119464054704],"min":[-0.01043954864144,-0.0207927506417,0],"type":"VEC3"},{"bufferView":26,"byteOffset":0,"componentType":5126,"count":28,"type":"VEC3"},{"bufferView":27,"byteOffset":0,"componentType":5126,"count":28,"type":"VEC2"},{"bufferView":28,"byteOffset":0,"componentType":5123,"count":12,"type":"SCALAR"},{"bufferView":29,"byteOffset":0,"componentType":5126,"count":8,"max":[0.0112724872305989,0.134679943323135,0.00327119464054704],"min":[-0.0112724872306,-0.01951560005546,0],"type":"VEC3"},{"bufferView":30,"byteOffset":0,"componentType":5126,"count":8,"type":"VEC3"},{"bufferView":31,"byteOffset":0,"componentType":5126,"count":8,"type":"VEC2"},{"bufferView":32,"byteOffset":0,"componentType":5123,"count":63,"type":"SCALAR"},{"bufferView":33,"byteOffset":0,"componentType":5126,"count":27,"max":[0.0112724872305989,0.134679943323135,0.00327119464054704],"min":[-0.0112724872306,-0.16859191656113,0],"type":"VEC3"},{"bufferView":34,"byteOffset":0,"componentType":5126,"count":27,"type":"VEC3"},{"bufferView":35,"byteOffset":0,"componentType":5126,"count":27,"type":"VEC2"},{"bufferView":36,"byteOffset":0,"componentType":5123,"count":12,"type":"SCALAR"},{"bufferView":37,"byteOffset":0,"componentType":5126,"count":8,"max":[0.0112724872305989,0.134679943323135,0.00327119464054704],"min":[-0.0112724872306,-0.13396123051643,0],"type":"VEC3"},{"bufferView":38,"byteOffset":0,"componentType":5126,"count":8,"type":"VEC3"},{"bufferView":39,"byteOffset":0,"componentType":5126,"count":8,"type":"VEC2"}],"asset":{"generator":"FBX2glTF v0.13.1","version":"2.0"},"bufferViews":[{"buffer":0,"byteLength":120,"byteOffset":0,"target":34963},{"buffer":0,"byteLength":408,"byteOffset":120,"target":34962},{"buffer":0,"byteLength":408,"byteOffset":528,"target":34962},{"buffer":0,"byteLength":272,"byteOffset":936,"target":34962},{"buffer":0,"byteLength":108,"byteOffset":1208,"target":34963},{"buffer":0,"byteLength":456,"byteOffset":1316,"target":34962},{"buffer":0,"byteLength":456,"byteOffset":1772,"target":34962},{"buffer":0,"byteLength":304,"byteOffset":2228,"target":34962},{"buffer":0,"byteLength":48,"byteOffset":2532,"target":34963},{"buffer":0,"byteLength":192,"byteOffset":2580,"target":34962},{"buffer":0,"byteLength":192,"byteOffset":2772,"target":34962},{"buffer":0,"byteLength":128,"byteOffset":2964,"target":34962},{"buffer":0,"byteLength":138,"byteOffset":3092,"target":34963},{"buffer":0,"byteLength":372,"byteOffset":3232,"target":34962},{"buffer":0,"byteLength":372,"byteOffset":3604,"target":34962},{"buffer":0,"byteLength":248,"byteOffset":3976,"target":34962},{"buffer":0,"byteLength":48,"byteOffset":4224,"target":34963},{"buffer":0,"byteLength":192,"byteOffset":4272,"target":34962},{"buffer":0,"byteLength":192,"byteOffset":4464,"target":34962},{"buffer":0,"byteLength":128,"byteOffset":4656,"target":34962},{"buffer":0,"byteLength":96,"byteOffset":4784,"target":34963},{"buffer":0,"byteLength":408,"byteOffset":4880,"target":34962},{"buffer":0,"byteLength":408,"byteOffset":5288,"target":34962},{"buffer":0,"byteLength":272,"byteOffset":5696,"target":34962},{"buffer":0,"byteLength":84,"byteOffset":5968,"target":34963},{"buffer":0,"byteLength":336,"byteOffset":6052,"target":34962},{"buffer":0,"byteLength":336,"byteOffset":6388,"target":34962},{"buffer":0,"byteLength":224,"byteOffset":6724,"target":34962},{"buffer":0,"byteLength":24,"byteOffset":6948,"target":34963},{"buffer":0,"byteLength":96,"byteOffset":6972,"target":34962},{"buffer":0,"byteLength":96,"byteOffset":7068,"target":34962},{"buffer":0,"byteLength":64,"byteOffset":7164,"target":34962},{"buffer":0,"byteLength":126,"byteOffset":7228,"target":34963},{"buffer":0,"byteLength":324,"byteOffset":7356,"target":34962},{"buffer":0,"byteLength":324,"byteOffset":7680,"target":34962},{"buffer":0,"byteLength":216,"byteOffset":8004,"target":34962},{"buffer":0,"byteLength":24,"byteOffset":8220,"target":34963},{"buffer":0,"byteLength":96,"byteOffset":8244,"target":34962},{"buffer":0,"byteLength":96,"byteOffset":8340,"target":34962},{"buffer":0,"byteLength":64,"byteOffset":8436,"target":34962}],"buffers":[{"byteLength":8500,"uri":"boards.bin"}],"images":[{"name":"WoodPlanks_Base_Color","uri":"WoodPlanks_Base_Color.tga"},{"name":"Wood_Base_Color","uri":"Wood_Base_Color.tga"}],"materials":[{"alphaMode":"OPAQUE","doubleSided":false,"extras":{"fromFBX":{"isTruePBR":false,"shadingModel":"Phong"}},"name":"19 - Default","pbrMetallicRoughness":{"baseColorFactor":[1,1,1,1],"baseColorTexture":{"index":0,"texCoord":0},"metallicFactor":0.400000005960464,"roughnessFactor":0.70710676908493}},{"alphaMode":"OPAQUE","doubleSided":false,"extras":{"fromFBX":{"isTruePBR":false,"shadingModel":"Phong"}},"name":"16 - Default","pbrMetallicRoughness":{"baseColorFactor":[1,1,1,1],"baseColorTexture":{"index":1,"texCoord":0},"metallicFactor":0.400000005960464,"roughnessFactor":0.70710676908493}}],"meshes":[{"name":"board03","primitives":[{"attributes":{"NORMAL":2,"POSITION":1,"TEXCOORD_0":3},"indices":0,"material":0,"mode":4},{"attributes":{"NORMAL":22,"POSITION":21,"TEXCOORD_0":23},"indices":20,"material":1,"mode":4}]},{"name":"board05","primitives":[{"attributes":{"NORMAL":6,"POSITION":5,"TEXCOORD_0":7},"indices":4,"material":0,"mode":4},{"attributes":{"NORMAL":26,"POSITION":25,"TEXCOORD_0":27},"indices":24,"material":1,"mode":4}]},{"name":"board04","primitives":[{"attributes":{"NORMAL":10,"POSITION":9,"TEXCOORD_0":11},"indices":8,"material":0,"mode":4},{"attributes":{"NORMAL":30,"POSITION":29,"TEXCOORD_0":31},"indices":28,"material":1,"mode":4}]},{"name":"board01","primitives":[{"attributes":{"NORMAL":14,"POSITION":13,"TEXCOORD_0":15},"indices":12,"material":0,"mode":4},{"attributes":{"NORMAL":34,"POSITION":33,"TEXCOORD_0":35},"indices":32,"material":1,"mode":4}]},{"name":"board02","primitives":[{"attributes":{"NORMAL":18,"POSITION":17,"TEXCOORD_0":19},"indices":16,"material":0,"mode":4},{"attributes":{"NORMAL":38,"POSITION":37,"TEXCOORD_0":39},"indices":36,"material":1,"mode":4}]}],"nodes":[{"children":[1,2,3,4,5],"name":"boards","rotation":[-0.70710676908493,-0,0,0.70710676908493],"scale":[10,10,10],"translation":[-2.82559967041016,-0.04115771502256,5.22582006454468]},{"mesh":0,"name":"board03","rotation":[0,0,0,1],"scale":[1,0.837556958198547,1],"translation":[0.0428761653602123,0.0215308368206024,-0.0013076311443]},{"mesh":1,"name":"board05","rotation":[0,0,1,0.0000000754979012640433],"scale":[1,0.837556958198547,1],"translation":[0.0437235236167908,0.0215308368206024,-0.0013076311443]},{"mesh":2,"name":"board04","rotation":[0,0,0,1],"scale":[1,1,1],"translation":[0.0156154250726104,-0.00070747372229,-0.0013076311443]},{"mesh":3,"name":"board01","rotation":[0,0,0,1],"scale":[1,0.766155660152435,1],"translation":[-0.0152730178088,0.0314829237759113,-0.0013076311443]},{"mesh":4,"name":"board02","rotation":[0,0,0,1],"scale":[1,1,1],"translation":[-0.04289054870605,-0.00070747372229,-0.0013076311443]}],"samplers":[{}],"scene":0,"scenes":[{"name":"Root Scene","nodes":[0]}],"textures":[{"name":"Map #15","sampler":0,"source":0},{"name":"Map #38","sampler":0,"source":1}]}