{"accessors":[{"bufferView":0,"byteOffset":0,"componentType":5123,"count":30,"type":"SCALAR"},{"bufferView":1,"byteOffset":0,"componentType":5126,"count":14,"max":[0.0171623844653368,0.0105281258001924,0.0577476099133492],"min":[-0.01068771351129,-0.01861275546253,0],"type":"VEC3"},{"bufferView":2,"byteOffset":0,"componentType":5126,"count":14,"type":"VEC3"},{"bufferView":3,"byteOffset":0,"componentType":5126,"count":14,"type":"VEC2"},{"bufferView":4,"byteOffset":0,"componentType":5123,"count":30,"type":"SCALAR"},{"bufferView":5,"byteOffset":0,"componentType":5126,"count":14,"max":[0.0106877135112882,0.0105281258001924,0.0577476099133492],"min":[-0.01068771351129,-0.01052812580019,0],"type":"VEC3"},{"bufferView":6,"byteOffset":0,"componentType":5126,"count":14,"type":"VEC3"},{"bufferView":7,"byteOffset":0,"componentType":5126,"count":14,"type":"VEC2"},{"bufferView":8,"byteOffset":0,"componentType":5123,"count":30,"type":"SCALAR"},{"bufferView":9,"byteOffset":0,"componentType":5126,"count":14,"max":[0.0106877135112882,0.0105281258001924,0.0577476099133492],"min":[-0.01068771351129,-0.01052812580019,0],"type":"VEC3"},{"bufferView":10,"byteOffset":0,"componentType":5126,"count":14,"type":"VEC3"},{"bufferView":11,"byteOffset":0,"componentType":5126,"count":14,"type":"VEC2"},{"bufferView":12,"byteOffset":0,"componentType":5123,"count":30,"type":"SCALAR"},{"bufferView":13,"byteOffset":0,"componentType":5126,"count":14,"max":[0.0106877135112882,0.0105281258001924,0.0577476099133492],"min":[-0.01068771351129,-0.01052812580019,0],"type":"VEC3"},{"bufferView":14,"byteOffset":0,"componentType":5126,"count":14,"type":"VEC3"},{"bufferView":15,"byteOffset":0,"componentType":5126,"count":14,"type":"VEC2"},{"bufferView":16,"byteOffset":0,"componentType":5123,"count":30,"type":"SCALAR"},{"bufferView":17,"byteOffset":0,"componentType":5126,"count":14,"max":[0.0106877135112882,0.0105281258001924,0.0577476099133492],"min":[-0.01068771351129,-0.01052812580019,0],"type":"VEC3"},{"bufferView":18,"byteOffset":0,"componentType":5126,"count":14,"type":"VEC3"},{"bufferView":19,"byteOffset":0,"componentType":5126,"count":14,"type":"VEC2"},{"bufferView":20,"byteOffset":0,"componentType":5123,"count":12,"type":"SCALAR"},{"bufferView":21,"byteOffset":0,"componentType":5126,"count":8,"max":[0.0171623844653368,0.0105281258001924,0.0577476099133492],"min":[-0.01068771351129,-0.01861275546253,0],"type":"VEC3"},{"bufferView":22,"byteOffset":0,"componentType":5126,"count":8,"type":"VEC3"},{"bufferView":23,"byteOffset":0,"componentType":5126,"count":8,"type":"VEC2"},{"bufferView":24,"byteOffset":0,"componentType":5123,"count":12,"type":"SCALAR"},{"bufferView":25,"byteOffset":0,"componentType":5126,"count":8,"max":[0.0106877135112882,0.0105281258001924,0.0577476099133492],"min":[-0.01068771351129,-0.01052812580019,0],"type":"VEC3"},{"bufferView":26,"byteOffset":0,"componentType":5126,"count":8,"type":"VEC3"},{"bufferView":27,"byteOffset":0,"componentType":5126,"count":8,"type":"VEC2"},{"bufferView":28,"byteOffset":0,"componentType":5123,"count":12,"type":"SCALAR"},{"bufferView":29,"byteOffset":0,"componentType":5126,"count":8,"max":[0.0106877135112882,0.0105281258001924,0.0577476099133492],"min":[-0.01068771351129,-0.01052812580019,0],"type":"VEC3"},{"bufferView":30,"byteOffset":0,"componentType":5126,"count":8,"type":"VEC3"},{"bufferView":31,"byteOffset":0,"componentType":5126,"count":8,"type":"VEC2"},{"bufferView":32,"byteOffset":0,"componentType":5123,"count":12,"type":"SCALAR"},{"bufferView":33,"byteOffset":0,"componentType":5126,"count":8,"max":[0.0106877135112882,0.0105281258001924,0.0577476099133492],"min":[-0.01068771351129,-0.01052812580019,0],"type":"VEC3"},{"bufferView":34,"byteOffset":0,"componentType":5126,"count":8,"type":"VEC3"},{"bufferView":35,"byteOffset":0,"componentType":5126,"count":8,"type":"VEC2"},{"bufferView":36,"byteOffset":0,"componentType":5123,"count":12,"type":"SCALAR"},{"bufferView":37,"byteOffset":0,"componentType":5126,"count":8,"max":[0.0106877135112882,0.0105281258001924,0.0577476099133492],"min":[-0.01068771351129,-0.01052812580019,0],"type":"VEC3"},{"bufferView":38,"byteOffset":0,"componentType":5126,"count":8,"type":"VEC3"},{"bufferView":39,"byteOffset":0,"componentType":5126,"count":8,"type":"VEC2"},{"bufferView":40,"byteOffset":0,"componentType":5123,"count":30,"type":"SCALAR"},{"bufferView":41,"byteOffset":0,"componentType":5126,"count":12,"max":[0.0106877135112882,0.0105281258001924,0.0577476099133492],"min":[-0.01068771351129,-0.01052812580019,0],"type":"VEC3"},{"bufferView":42,"byteOffset":0,"componentType":5126,"count":12,"type":"VEC3"},{"bufferView":43,"byteOffset":0,"componentType":5126,"count":12,"type":"VEC2"},{"bufferView":44,"byteOffset":0,"componentType":5123,"count":30,"type":"SCALAR"},{"bufferView":45,"byteOffset":0,"componentType":5126,"count":12,"max":[0.0106877135112882,0.0105281258001924,0.0577476099133492],"min":[-0.01068771351129,-0.01052812580019,0],"type":"VEC3"},{"bufferView":46,"byteOffset":0,"componentType":5126,"count":12,"type":"VEC3"},{"bufferView":47,"byteOffset":0,"componentType":5126,"count":12,"type":"VEC2"},{"bufferView":48,"byteOffset":0,"componentType":5123,"count":30,"type":"SCALAR"},{"bufferView":49,"byteOffset":0,"componentType":5126,"count":12,"max":[0.0106877135112882,0.0105281258001924,0.0577476099133492],"min":[-0.01068771351129,-0.01052812580019,0],"type":"VEC3"},{"bufferView":50,"byteOffset":0,"componentType":5126,"count":12,"type":"VEC3"},{"bufferView":51,"byteOffset":0,"componentType":5126,"count":12,"type":"VEC2"},{"bufferView":52,"byteOffset":0,"componentType":5123,"count":30,"type":"SCALAR"},{"bufferView":53,"byteOffset":0,"componentType":5126,"count":12,"max":[0.0106877135112882,0.0105281258001924,0.0577476099133492],"min":[-0.01068771351129,-0.01052812580019,0],"type":"VEC3"},{"bufferView":54,"byteOffset":0,"componentType":5126,"count":12,"type":"VEC3"},{"bufferView":55,"byteOffset":0,"componentType":5126,"count":12,"type":"VEC2"},{"bufferView":56,"byteOffset":0,"componentType":5123,"count":30,"type":"SCALAR"},{"bufferView":57,"byteOffset":0,"componentType":5126,"count":12,"max":[0.0106877135112882,0.0105281258001924,0.0577476099133492],"min":[-0.01068771351129,-0.01052812580019,0],"type":"VEC3"},{"bufferView":58,"byteOffset":0,"componentType":5126,"count":12,"type":"VEC3"},{"bufferView":59,"byteOffset":0,"componentType":5126,"count":12,"type":"VEC2"}],"asset":{"generator":"FBX2glTF v0.13.1","version":"2.0"},"bufferViews":[{"buffer":0,"byteLength":60,"byteOffset":0,"target":34963},{"buffer":0,"byteLength":168,"byteOffset":60,"target":34962},{"buffer":0,"byteLength":168,"byteOffset":228,"target":34962},{"buffer":0,"byteLength":112,"byteOffset":396,"target":34962},{"buffer":0,"byteLength":60,"byteOffset":508,"target":34963},{"buffer":0,"byteLength":168,"byteOffset":568,"target":34962},{"buffer":0,"byteLength":168,"byteOffset":736,"target":34962},{"buffer":0,"byteLength":112,"byteOffset":904,"target":34962},{"buffer":0,"byteLength":60,"byteOffset":1016,"target":34963},{"buffer":0,"byteLength":168,"byteOffset":1076,"target":34962},{"buffer":0,"byteLength":168,"byteOffset":1244,"target":34962},{"buffer":0,"byteLength":112,"byteOffset":1412,"target":34962},{"buffer":0,"byteLength":60,"byteOffset":1524,"target":34963},{"buffer":0,"byteLength":168,"byteOffset":1584,"target":34962},{"buffer":0,"byteLength":168,"byteOffset":1752,"target":34962},{"buffer":0,"byteLength":112,"byteOffset":1920,"target":34962},{"buffer":0,"byteLength":60,"byteOffset":2032,"target":34963},{"buffer":0,"byteLength":168,"byteOffset":2092,"target":34962},{"buffer":0,"byteLength":168,"byteOffset":2260,"target":34962},{"buffer":0,"byteLength":112,"byteOffset":2428,"target":34962},{"buffer":0,"byteLength":24,"byteOffset":2540,"target":34963},{"buffer":0,"byteLength":96,"byteOffset":2564,"target":34962},{"buffer":0,"byteLength":96,"byteOffset":2660,"target":34962},{"buffer":0,"byteLength":64,"byteOffset":2756,"target":34962},{"buffer":0,"byteLength":24,"byteOffset":2820,"target":34963},{"buffer":0,"byteLength":96,"byteOffset":2844,"target":34962},{"buffer":0,"byteLength":96,"byteOffset":2940,"target":34962},{"buffer":0,"byteLength":64,"byteOffset":3036,"target":34962},{"buffer":0,"byteLength":24,"byteOffset":3100,"target":34963},{"buffer":0,"byteLength":96,"byteOffset":3124,"target":34962},{"buffer":0,"byteLength":96,"byteOffset":3220,"target":34962},{"buffer":0,"byteLength":64,"byteOffset":3316,"target":34962},{"buffer":0,"byteLength":24,"byteOffset":3380,"target":34963},{"buffer":0,"byteLength":96,"byteOffset":3404,"target":34962},{"buffer":0,"byteLength":96,"byteOffset":3500,"target":34962},{"buffer":0,"byteLength":64,"byteOffset":3596,"target":34962},{"buffer":0,"byteLength":24,"byteOffset":3660,"target":34963},{"buffer":0,"byteLength":96,"byteOffset":3684,"target":34962},{"buffer":0,"byteLength":96,"byteOffset":3780,"target":34962},{"buffer":0,"byteLength":64,"byteOffset":3876,"target":34962},{"buffer":0,"byteLength":60,"byteOffset":3940,"target":34963},{"buffer":0,"byteLength":144,"byteOffset":4000,"target":34962},{"buffer":0,"byteLength":144,"byteOffset":4144,"target":34962},{"buffer":0,"byteLength":96,"byteOffset":4288,"target":34962},{"buffer":0,"byteLength":60,"byteOffset":4384,"target":34963},{"buffer":0,"byteLength":144,"byteOffset":4444,"target":34962},{"buffer":0,"byteLength":144,"byteOffset":4588,"target":34962},{"buffer":0,"byteLength":96,"byteOffset":4732,"target":34962},{"buffer":0,"byteLength":60,"byteOffset":4828,"target":34963},{"buffer":0,"byteLength":144,"byteOffset":4888,"target":34962},{"buffer":0,"byteLength":144,"byteOffset":5032,"target":34962},{"buffer":0,"byteLength":96,"byteOffset":5176,"target":34962},{"buffer":0,"byteLength":60,"byteOffset":5272,"target":34963},{"buffer":0,"byteLength":144,"byteOffset":5332,"target":34962},{"buffer":0,"byteLength":144,"byteOffset":5476,"target":34962},{"buffer":0,"byteLength":96,"byteOffset":5620,"target":34962},{"buffer":0,"byteLength":60,"byteOffset":5716,"target":34963},{"buffer":0,"byteLength":144,"byteOffset":5776,"target":34962},{"buffer":0,"byteLength":144,"byteOffset":5920,"target":34962},{"buffer":0,"byteLength":96,"byteOffset":6064,"target":34962}],"buffers":[{"byteLength":6160,"uri":"Drova.bin"}],"images":[{"name":"WoodBark_Base_Color","uri":"WoodBark_Base_Color.tga"},{"name":"Wood_Base_Color","uri":"Wood_Base_Color.tga"},{"name":"WoodMix_Base_Color","uri":"WoodMix_Base_Color.tga"}],"materials":[{"alphaMode":"OPAQUE","doubleSided":false,"extras":{"fromFBX":{"isTruePBR":false,"shadingModel":"Phong"}},"name":"21 - Default","pbrMetallicRoughness":{"baseColorFactor":[1,1,1,1],"baseColorTexture":{"index":0,"texCoord":0},"metallicFactor":0.400000005960464,"roughnessFactor":0.70710676908493}},{"alphaMode":"OPAQUE","doubleSided":false,"extras":{"fromFBX":{"isTruePBR":false,"shadingModel":"Phong"}},"name":"16 - Default","pbrMetallicRoughness":{"baseColorFactor":[1,1,1,1],"baseColorTexture":{"index":1,"texCoord":0},"metallicFactor":0.400000005960464,"roughnessFactor":0.70710676908493}},{"alphaMode":"OPAQUE","doubleSided":false,"extras":{"fromFBX":{"isTruePBR":false,"shadingModel":"Phong"}},"name":"22 - Default","pbrMetallicRoughness":{"baseColorFactor":[1,1,1,1],"baseColorTexture":{"index":2,"texCoord":0},"metallicFactor":0.400000005960464,"roughnessFactor":0.70710676908493}}],"meshes":[{"name":"Drova02","primitives":[{"attributes":{"NORMAL":2,"POSITION":1,"TEXCOORD_0":3},"indices":0,"material":0,"mode":4},{"attributes":{"NORMAL":22,"POSITION":21,"TEXCOORD_0":23},"indices":20,"material":1,"mode":4},{"attributes":{"NORMAL":42,"POSITION":41,"TEXCOORD_0":43},"indices":40,"material":2,"mode":4}]},{"name":"Drova03","primitives":[{"attributes":{"NORMAL":6,"POSITION":5,"TEXCOORD_0":7},"indices":4,"material":0,"mode":4},{"attributes":{"NORMAL":26,"POSITION":25,"TEXCOORD_0":27},"indices":24,"material":1,"mode":4},{"attributes":{"NORMAL":46,"POSITION":45,"TEXCOORD_0":47},"indices":44,"material":2,"mode":4}]},{"name":"Drova04","primitives":[{"attributes":{"NORMAL":10,"POSITION":9,"TEXCOORD_0":11},"indices":8,"material":0,"mode":4},{"attributes":{"NORMAL":30,"POSITION":29,"TEXCOORD_0":31},"indices":28,"material":1,"mode":4},{"attributes":{"NORMAL":50,"POSITION":49,"TEXCOORD_0":51},"indices":48,"material":2,"mode":4}]},{"name":"Drova01","primitives":[{"attributes":{"NORMAL":14,"POSITION":13,"TEXCOORD_0":15},"indices":12,"material":0,"mode":4},{"attributes":{"NORMAL":34,"POSITION":33,"TEXCOORD_0":35},"indices":32,"material":1,"mode":4},{"attributes":{"NORMAL":54,"POSITION":53,"TEXCOORD_0":55},"indices":52,"material":2,"mode":4}]},{"name":"Drova05","primitives":[{"attributes":{"NORMAL":18,"POSITION":17,"TEXCOORD_0":19},"indices":16,"material":0,"mode":4},{"attributes":{"NORMAL":38,"POSITION":37,"TEXCOORD_0":39},"indices":36,"material":1,"mode":4},{"attributes":{"NORMAL":58,"POSITION":57,"TEXCOORD_0":59},"indices":56,"material":2,"mode":4}]}],"nodes":[{"children":[1,2,3,4,5],"name":"Drova","rotation":[-0.70710676908493,-0,0,0.70710676908493],"scale":[10,10,10],"translation":[-6.79801321029663,0.288738042116165,1.75354611873627]},{"mesh":0,"name":"Drova02","rotation":[0,0,0,1],"scale":[1,1,1],"translation":[0.00781890843063593,0.00702075939625502,-0.02887380495667]},{"mesh":1,"name":"Drova03","rotation":[0,0,0,1],"scale":[1,1,1],"translation":[0.0320320129394531,-0.02718044258654,-0.02887380495667]},{"mesh":2,"name":"Drova04","rotation":[0,0,0,1],"scale":[1,1,1],"translation":[-0.00054550170898,-0.0382018648088,-0.02887380495667]},{"mesh":3,"name":"Drova01","rotation":[0,0,0,1],"scale":[1,1,1],"translation":[0.00781890843063593,0.0382018834352493,-0.02887380495667]},{"mesh":4,"name":"Drova05","rotation":[0,0,0,1],"scale":[1,1,1],"translation":[-0.03203201293945,-0.01706325449049,-0.02887380495667]}],"samplers":[{}],"scene":0,"scenes":[{"name":"Root Scene","nodes":[0]}],"textures":[{"name":"Map #19","sampler":0,"source":0},{"name":"Map #38","sampler":0,"source":1},{"name":"Map #20","sampler":0,"source":2}]}