{"accessors":[{"bufferView":0,"byteOffset":0,"componentType":5123,"count":78,"type":"SCALAR"},{"bufferView":1,"byteOffset":0,"componentType":5126,"count":52,"max":[0.00999999977648258,0.00999999977648258,0.202446267008781],"min":[-0.01748740114272,-0.25722166895866,0.182910740375519],"type":"VEC3"},{"bufferView":2,"byteOffset":0,"componentType":5126,"count":52,"type":"VEC3"},{"bufferView":3,"byteOffset":0,"componentType":5126,"count":52,"type":"VEC2"},{"bufferView":4,"byteOffset":0,"componentType":5123,"count":168,"type":"SCALAR"},{"bufferView":5,"byteOffset":0,"componentType":5126,"count":112,"max":[0.00999999977648258,0.00999999977648258,0.202446267008781],"min":[-0.01748740486801,-0.25722166895866,0.0297905392944813],"type":"VEC3"},{"bufferView":6,"byteOffset":0,"componentType":5126,"count":112,"type":"VEC3"},{"bufferView":7,"byteOffset":0,"componentType":5126,"count":112,"type":"VEC2"},{"bufferView":8,"byteOffset":0,"componentType":5123,"count":354,"type":"SCALAR"},{"bufferView":9,"byteOffset":0,"componentType":5126,"count":236,"max":[0.00999999977648258,0.00999999977648258,0.202446267008781],"min":[-0.01748740486801,-0.25722166895866,0],"type":"VEC3"},{"bufferView":10,"byteOffset":0,"componentType":5126,"count":236,"type":"VEC3"},{"bufferView":11,"byteOffset":0,"componentType":5126,"count":236,"type":"VEC2"},{"bufferView":12,"byteOffset":0,"componentType":5123,"count":180,"type":"SCALAR"},{"bufferView":13,"byteOffset":0,"componentType":5126,"count":120,"max":[0.00999999977648258,0.00999999977648258,0.202446267008781],"min":[-0.01748740486801,-0.25722166895866,0],"type":"VEC3"},{"bufferView":14,"byteOffset":0,"componentType":5126,"count":120,"type":"VEC3"},{"bufferView":15,"byteOffset":0,"componentType":5126,"count":120,"type":"VEC2"},{"bufferView":16,"byteOffset":0,"componentType":5123,"count":360,"type":"SCALAR"},{"bufferView":17,"byteOffset":0,"componentType":5126,"count":240,"max":[0.00999999977648258,0.00999999977648258,0.202446267008781],"min":[-0.01748740486801,-0.25722166895866,0],"type":"VEC3"},{"bufferView":18,"byteOffset":0,"componentType":5126,"count":240,"type":"VEC3"},{"bufferView":19,"byteOffset":0,"componentType":5126,"count":240,"type":"VEC2"}],"asset":{"generator":"FBX2glTF v0.13.1","version":"2.0"},"bufferViews":[{"buffer":0,"byteLength":156,"byteOffset":0,"target":34963},{"buffer":0,"byteLength":624,"byteOffset":156,"target":34962},{"buffer":0,"byteLength":624,"byteOffset":780,"target":34962},{"buffer":0,"byteLength":416,"byteOffset":1404,"target":34962},{"buffer":0,"byteLength":336,"byteOffset":1820,"target":34963},{"buffer":0,"byteLength":1344,"byteOffset":2156,"target":34962},{"buffer":0,"byteLength":1344,"byteOffset":3500,"target":34962},{"buffer":0,"byteLength":896,"byteOffset":4844,"target":34962},{"buffer":0,"byteLength":708,"byteOffset":5740,"target":34963},{"buffer":0,"byteLength":2832,"byteOffset":6448,"target":34962},{"buffer":0,"byteLength":2832,"byteOffset":9280,"target":34962},{"buffer":0,"byteLength":1888,"byteOffset":12112,"target":34962},{"buffer":0,"byteLength":360,"byteOffset":14000,"target":34963},{"buffer":0,"byteLength":1440,"byteOffset":14360,"target":34962},{"buffer":0,"byteLength":1440,"byteOffset":15800,"target":34962},{"buffer":0,"byteLength":960,"byteOffset":17240,"target":34962},{"buffer":0,"byteLength":720,"byteOffset":18200,"target":34963},{"buffer":0,"byteLength":2880,"byteOffset":18920,"target":34962},{"buffer":0,"byteLength":2880,"byteOffset":21800,"target":34962},{"buffer":0,"byteLength":1920,"byteOffset":24680,"target":34962}],"buffers":[{"byteLength":26600,"uri":"Fense01.bin"}],"images":[{"name":"WoodBark","uri":"WoodBark.tga"},{"name":"WoodPlanks","uri":"WoodPlanks.tga"}],"materials":[{"alphaMode":"OPAQUE","doubleSided":false,"extras":{"fromFBX":{"isTruePBR":false,"shadingModel":"Phong"}},"name":"21 - Default","pbrMetallicRoughness":{"baseColorFactor":[1,1,1,1],"baseColorTexture":{"index":0,"texCoord":0},"metallicFactor":0.400000005960464,"roughnessFactor":0.70710676908493}},{"alphaMode":"OPAQUE","doubleSided":false,"extras":{"fromFBX":{"isTruePBR":false,"shadingModel":"Phong"}},"name":"19 - Default","pbrMetallicRoughness":{"baseColorFactor":[1,1,1,1],"baseColorTexture":{"index":1,"texCoord":0},"metallicFactor":0.400000005960464,"roughnessFactor":0.70710676908493}}],"meshes":[{"name":"Z_01_LOD1","primitives":[{"attributes":{"NORMAL":2,"POSITION":1,"TEXCOORD_0":3},"indices":0,"material":0,"mode":4},{"attributes":{"NORMAL":10,"POSITION":9,"TEXCOORD_0":11},"indices":8,"material":1,"mode":4}]},{"name":"Z_01_Detail","primitives":[{"attributes":{"NORMAL":6,"POSITION":5,"TEXCOORD_0":7},"indices":4,"material":0,"mode":4},{"attributes":{"NORMAL":18,"POSITION":17,"TEXCOORD_0":19},"indices":16,"material":1,"mode":4}]},{"name":"Z_01_LOD02","primitives":[{"attributes":{"NORMAL":14,"POSITION":13,"TEXCOORD_0":15},"indices":12,"material":1,"mode":4}]}],"nodes":[{"children":[1,2,3],"name":"Fense01","rotation":[-0.70710676908493,-0,0,0.70710676908493],"scale":[10,10,10],"translation":[0,0,0]},{"mesh":0,"name":"Z_01_LOD1","rotation":[0,0,0,1],"scale":[1,1,1],"translation":[0.00374374375678599,0.123610824346542,-0.10122314095497]},{"mesh":2,"name":"Z_01_LOD02","rotation":[0,0,0,1],"scale":[1,1,1],"translation":[0.00374374375678599,0.123610824346542,-0.10122314095497]},{"mesh":1,"name":"Z_01_Detail","rotation":[0,0,0,1],"scale":[1,1,1],"translation":[0.00374374375678599,0.123610824346542,-0.10122314095497]}],"samplers":[{}],"scene":0,"scenes":[{"name":"Root Scene","nodes":[0]}],"textures":[{"name":"Map #19","sampler":0,"source":0},{"name":"Map #15","sampler":0,"source":1}]}