{"accessors":[{"bufferView":0,"byteOffset":0,"componentType":5123,"count":156,"type":"SCALAR"},{"bufferView":1,"byteOffset":0,"componentType":5126,"count":58,"max":[-0.03355378657579,0.00859367940574884,0.00399999972432852],"min":[-0.04845658689737,-0.01260641776025,0.0000000000452670262385269],"type":"VEC3"},{"bufferView":2,"byteOffset":0,"componentType":5126,"count":58,"type":"VEC3"},{"bufferView":3,"byteOffset":0,"componentType":5126,"count":58,"type":"VEC2"},{"bufferView":4,"byteOffset":0,"componentType":5123,"count":96,"type":"SCALAR"},{"bufferView":5,"byteOffset":0,"componentType":5126,"count":36,"max":[-0.03355378657579,0.00859367940574884,0.00399999972432852],"min":[-0.04845658689737,-0.01260641776025,0.0000000000452670262385269],"type":"VEC3"},{"bufferView":6,"byteOffset":0,"componentType":5126,"count":36,"type":"VEC3"},{"bufferView":7,"byteOffset":0,"componentType":5126,"count":36,"type":"VEC2"},{"bufferView":8,"byteOffset":0,"componentType":5123,"count":372,"type":"SCALAR"},{"bufferView":9,"byteOffset":0,"componentType":5126,"count":96,"max":[0.00364073272794485,0.00801223609596491,0.00367156323045492],"min":[-0.04447300359607,-0.00356969167478,0.00032843428198248],"type":"VEC3"},{"bufferView":10,"byteOffset":0,"componentType":5126,"count":96,"type":"VEC3"},{"bufferView":11,"byteOffset":0,"componentType":5126,"count":96,"type":"VEC2"},{"bufferView":12,"byteOffset":0,"componentType":5123,"count":84,"type":"SCALAR"},{"bufferView":13,"byteOffset":0,"componentType":5126,"count":26,"max":[0.00316000450402498,0.00801223609596491,0.00348086352460086],"min":[-0.04417296126485,-0.00356969167478,0.00051913590868935],"type":"VEC3"},{"bufferView":14,"byteOffset":0,"componentType":5126,"count":26,"type":"VEC3"},{"bufferView":15,"byteOffset":0,"componentType":5126,"count":26,"type":"VEC2"}],"asset":{"generator":"FBX2glTF v0.13.1","version":"2.0"},"bufferViews":[{"buffer":0,"byteLength":312,"byteOffset":0,"target":34963},{"buffer":0,"byteLength":696,"byteOffset":312,"target":34962},{"buffer":0,"byteLength":696,"byteOffset":1008,"target":34962},{"buffer":0,"byteLength":464,"byteOffset":1704,"target":34962},{"buffer":0,"byteLength":192,"byteOffset":2168,"target":34963},{"buffer":0,"byteLength":432,"byteOffset":2360,"target":34962},{"buffer":0,"byteLength":432,"byteOffset":2792,"target":34962},{"buffer":0,"byteLength":288,"byteOffset":3224,"target":34962},{"buffer":0,"byteLength":744,"byteOffset":3512,"target":34963},{"buffer":0,"byteLength":1152,"byteOffset":4256,"target":34962},{"buffer":0,"byteLength":1152,"byteOffset":5408,"target":34962},{"buffer":0,"byteLength":768,"byteOffset":6560,"target":34962},{"buffer":0,"byteLength":168,"byteOffset":7328,"target":34963},{"buffer":0,"byteLength":312,"byteOffset":7496,"target":34962},{"buffer":0,"byteLength":312,"byteOffset":7808,"target":34962},{"buffer":0,"byteLength":208,"byteOffset":8120,"target":34962}],"buffers":[{"byteLength":8328,"uri":"Topor_props.bin"}],"images":[{"name":"METALL02_mainColor","uri":"METALL02_mainColor.png"},{"name":"Wood","uri":"Wood.tga"}],"materials":[{"alphaMode":"OPAQUE","doubleSided":false,"extras":{"fromFBX":{"isTruePBR":false,"shadingModel":"Phong"}},"name":"20 - Default","pbrMetallicRoughness":{"baseColorFactor":[1,1,1,1],"baseColorTexture":{"index":0,"texCoord":0},"metallicFactor":0.400000005960464,"roughnessFactor":0.70710676908493}},{"alphaMode":"OPAQUE","doubleSided":false,"extras":{"fromFBX":{"isTruePBR":false,"shadingModel":"Phong"}},"name":"24 - Default","pbrMetallicRoughness":{"baseColorFactor":[1,1,1,1],"baseColorTexture":{"index":1,"texCoord":0},"metallicFactor":0.400000005960464,"roughnessFactor":0.70710676908493}}],"meshes":[{"name":"Topor_lod0","primitives":[{"attributes":{"NORMAL":2,"POSITION":1,"TEXCOORD_0":3},"indices":0,"material":0,"mode":4},{"attributes":{"NORMAL":10,"POSITION":9,"TEXCOORD_0":11},"indices":8,"material":1,"mode":4}]},{"name":"Topor_lod01","primitives":[{"attributes":{"NORMAL":6,"POSITION":5,"TEXCOORD_0":7},"indices":4,"material":0,"mode":4},{"attributes":{"NORMAL":14,"POSITION":13,"TEXCOORD_0":15},"indices":12,"material":1,"mode":4}]}],"nodes":[{"children":[1,2],"name":"Topor_props","rotation":[-0.70710676908493,-0,0,0.70710676908493],"scale":[10,10,10],"translation":[-0.00000034570692,-0.00000002980232,-0.00000036880374]},{"mesh":0,"name":"Topor_lod0","rotation":[0.704038858413696,-0.06579756736755,0.0657975673675537,0.704038798809052],"scale":[1.20317530632019,1.20317530632019,1.20317494869232],"translation":[0.0252399016171694,0.0024063503369689,0.0107867931947112]},{"mesh":1,"name":"Topor_lod01","rotation":[0.704038858413696,-0.06579756736755,0.0657975673675537,0.704038798809052],"scale":[1.20317530632019,1.20317530632019,1.20317494869232],"translation":[0.0252399016171694,0.0024063503369689,0.0107867931947112]}],"samplers":[{}],"scene":0,"scenes":[{"name":"Root Scene","nodes":[0]}],"textures":[{"name":"Map #18","sampler":0,"source":0},{"name":"Map #26","sampler":0,"source":1}]}