{"accessors":[{"bufferView":0,"byteOffset":0,"componentType":5123,"count":132,"type":"SCALAR"},{"bufferView":1,"byteOffset":0,"componentType":5126,"count":88,"max":[0.0108211422339082,-0.00163029669784,0.101654678583145],"min":[0.00106018059886992,-0.10643984377384,-0.10165470093489],"type":"VEC3"},{"bufferView":2,"byteOffset":0,"componentType":5126,"count":88,"type":"VEC3"},{"bufferView":3,"byteOffset":0,"componentType":5126,"count":88,"type":"VEC2"},{"bufferView":4,"byteOffset":0,"componentType":5123,"count":96,"type":"SCALAR"},{"bufferView":5,"byteOffset":0,"componentType":5126,"count":64,"max":[0.0108211422339082,-0.00163029669784,0.101654678583145],"min":[0.00106018059886992,-0.10643984377384,-0.10165470093489],"type":"VEC3"},{"bufferView":6,"byteOffset":0,"componentType":5126,"count":64,"type":"VEC3"},{"bufferView":7,"byteOffset":0,"componentType":5126,"count":64,"type":"VEC2"},{"bufferView":8,"byteOffset":0,"componentType":5123,"count":72,"type":"SCALAR"},{"bufferView":9,"byteOffset":0,"componentType":5126,"count":48,"max":[0.0115342661738396,-0.00163029669784,0.101654678583145],"min":[0.00019361019076313,-0.10643984377384,-0.10165470093489],"type":"VEC3"},{"bufferView":10,"byteOffset":0,"componentType":5126,"count":48,"type":"VEC3"},{"bufferView":11,"byteOffset":0,"componentType":5126,"count":48,"type":"VEC2"},{"bufferView":12,"byteOffset":0,"componentType":5123,"count":486,"type":"SCALAR"},{"bufferView":13,"byteOffset":0,"componentType":5126,"count":320,"max":[0.05832514539361,0.229295089840889,0.210836172103882],"min":[-0.05158377066255,-0.22700688242912,-0.1499999910593],"type":"VEC3"},{"bufferView":14,"byteOffset":0,"componentType":5126,"count":320,"type":"VEC3"},{"bufferView":15,"byteOffset":0,"componentType":5126,"count":320,"type":"VEC2"},{"bufferView":16,"byteOffset":0,"componentType":5123,"count":312,"type":"SCALAR"},{"bufferView":17,"byteOffset":0,"componentType":5126,"count":203,"max":[0.05832514539361,0.229295089840889,0.210836172103882],"min":[-0.05158377066255,-0.22700688242912,-0.1499999910593],"type":"VEC3"},{"bufferView":18,"byteOffset":0,"componentType":5126,"count":203,"type":"VEC3"},{"bufferView":19,"byteOffset":0,"componentType":5126,"count":203,"type":"VEC2"},{"bufferView":20,"byteOffset":0,"componentType":5123,"count":756,"type":"SCALAR"},{"bufferView":21,"byteOffset":0,"componentType":5126,"count":498,"max":[0.05832514539361,0.229295089840889,0.210836172103882],"min":[-0.05158377066255,-0.22700688242912,-0.1499999910593],"type":"VEC3"},{"bufferView":22,"byteOffset":0,"componentType":5126,"count":498,"type":"VEC3"},{"bufferView":23,"byteOffset":0,"componentType":5126,"count":498,"type":"VEC2"},{"bufferView":24,"byteOffset":0,"componentType":5123,"count":144,"type":"SCALAR"},{"bufferView":25,"byteOffset":0,"componentType":5126,"count":60,"max":[-0.00642550224438,0.201676517724991,0.0966667905449867],"min":[-0.01445648632944,-0.19663156569004,-0.06253954023123],"type":"VEC3"},{"bufferView":26,"byteOffset":0,"componentType":5126,"count":60,"type":"VEC3"},{"bufferView":27,"byteOffset":0,"componentType":5126,"count":60,"type":"VEC2"},{"bufferView":28,"byteOffset":0,"componentType":5123,"count":360,"type":"SCALAR"},{"bufferView":29,"byteOffset":0,"componentType":5126,"count":156,"max":[-0.00537097454071,0.201676517724991,0.0966667905449867],"min":[-0.01551101449877,-0.19663156569004,-0.06253954023123],"type":"VEC3"},{"bufferView":30,"byteOffset":0,"componentType":5126,"count":156,"type":"VEC3"},{"bufferView":31,"byteOffset":0,"componentType":5126,"count":156,"type":"VEC2"},{"bufferView":32,"byteOffset":0,"componentType":5123,"count":18,"type":"SCALAR"},{"bufferView":33,"byteOffset":0,"componentType":5126,"count":12,"max":[0.020720137283206,0.22631810605526,0.154187694191933],"min":[-0.01249999925494,-0.22061856091023,0.142660692334175],"type":"VEC3"},{"bufferView":34,"byteOffset":0,"componentType":5126,"count":12,"type":"VEC3"},{"bufferView":35,"byteOffset":0,"componentType":5126,"count":12,"type":"VEC2"}],"asset":{"generator":"FBX2glTF v0.13.1","version":"2.0"},"bufferViews":[{"buffer":0,"byteLength":264,"byteOffset":0,"target":34963},{"buffer":0,"byteLength":1056,"byteOffset":264,"target":34962},{"buffer":0,"byteLength":1056,"byteOffset":1320,"target":34962},{"buffer":0,"byteLength":704,"byteOffset":2376,"target":34962},{"buffer":0,"byteLength":192,"byteOffset":3080,"target":34963},{"buffer":0,"byteLength":768,"byteOffset":3272,"target":34962},{"buffer":0,"byteLength":768,"byteOffset":4040,"target":34962},{"buffer":0,"byteLength":512,"byteOffset":4808,"target":34962},{"buffer":0,"byteLength":144,"byteOffset":5320,"target":34963},{"buffer":0,"byteLength":576,"byteOffset":5464,"target":34962},{"buffer":0,"byteLength":576,"byteOffset":6040,"target":34962},{"buffer":0,"byteLength":384,"byteOffset":6616,"target":34962},{"buffer":0,"byteLength":972,"byteOffset":7000,"target":34963},{"buffer":0,"byteLength":3840,"byteOffset":7972,"target":34962},{"buffer":0,"byteLength":3840,"byteOffset":11812,"target":34962},{"buffer":0,"byteLength":2560,"byteOffset":15652,"target":34962},{"buffer":0,"byteLength":624,"byteOffset":18212,"target":34963},{"buffer":0,"byteLength":2436,"byteOffset":18836,"target":34962},{"buffer":0,"byteLength":2436,"byteOffset":21272,"target":34962},{"buffer":0,"byteLength":1624,"byteOffset":23708,"target":34962},{"buffer":0,"byteLength":1512,"byteOffset":25332,"target":34963},{"buffer":0,"byteLength":5976,"byteOffset":26844,"target":34962},{"buffer":0,"byteLength":5976,"byteOffset":32820,"target":34962},{"buffer":0,"byteLength":3984,"byteOffset":38796,"target":34962},{"buffer":0,"byteLength":288,"byteOffset":42780,"target":34963},{"buffer":0,"byteLength":720,"byteOffset":43068,"target":34962},{"buffer":0,"byteLength":720,"byteOffset":43788,"target":34962},{"buffer":0,"byteLength":480,"byteOffset":44508,"target":34962},{"buffer":0,"byteLength":720,"byteOffset":44988,"target":34963},{"buffer":0,"byteLength":1872,"byteOffset":45708,"target":34962},{"buffer":0,"byteLength":1872,"byteOffset":47580,"target":34962},{"buffer":0,"byteLength":1248,"byteOffset":49452,"target":34962},{"buffer":0,"byteLength":36,"byteOffset":50700,"target":34963},{"buffer":0,"byteLength":144,"byteOffset":50736,"target":34962},{"buffer":0,"byteLength":144,"byteOffset":50880,"target":34962},{"buffer":0,"byteLength":96,"byteOffset":51024,"target":34962}],"buffers":[{"byteLength":51120,"uri":"Wrata01Wood.bin"}],"images":[{"name":"WoodPlanks","uri":"WoodPlanks.tga"},{"name":"METALL02_mainColor","uri":"METALL02_mainColor.png"},{"name":"WoodBark","uri":"WoodBark.tga"}],"materials":[{"alphaMode":"OPAQUE","doubleSided":false,"extras":{"fromFBX":{"isTruePBR":false,"shadingModel":"Phong"}},"name":"19 - Default","pbrMetallicRoughness":{"baseColorFactor":[1,1,1,1],"baseColorTexture":{"index":0,"texCoord":0},"metallicFactor":0.400000005960464,"roughnessFactor":0.70710676908493}},{"alphaMode":"OPAQUE","doubleSided":false,"extras":{"fromFBX":{"isTruePBR":false,"shadingModel":"Phong"}},"name":"20 - Default","pbrMetallicRoughness":{"baseColorFactor":[1,1,1,1],"baseColorTexture":{"index":1,"texCoord":0},"metallicFactor":0.400000005960464,"roughnessFactor":0.70710676908493}},{"alphaMode":"OPAQUE","doubleSided":false,"extras":{"fromFBX":{"isTruePBR":false,"shadingModel":"Phong"}},"name":"21 - Default","pbrMetallicRoughness":{"baseColorFactor":[1,1,1,1],"baseColorTexture":{"index":2,"texCoord":0},"metallicFactor":0.400000005960464,"roughnessFactor":0.70710676908493}}],"meshes":[{"name":"Wrata01Door01LOD0","primitives":[{"attributes":{"NORMAL":2,"POSITION":1,"TEXCOORD_0":3},"indices":0,"material":0,"mode":4}]},{"name":"Wrata01Door01_LOD1","primitives":[{"attributes":{"NORMAL":6,"POSITION":5,"TEXCOORD_0":7},"indices":4,"material":0,"mode":4}]},{"name":"Wrata01Door01_LOD02","primitives":[{"attributes":{"NORMAL":10,"POSITION":9,"TEXCOORD_0":11},"indices":8,"material":0,"mode":4}]},{"name":"Wrata01LOD1","primitives":[{"attributes":{"NORMAL":14,"POSITION":13,"TEXCOORD_0":15},"indices":12,"material":0,"mode":4},{"attributes":{"NORMAL":26,"POSITION":25,"TEXCOORD_0":27},"indices":24,"material":1,"mode":4}]},{"name":"Wrata01LOD02","primitives":[{"attributes":{"NORMAL":18,"POSITION":17,"TEXCOORD_0":19},"indices":16,"material":0,"mode":4}]},{"name":"Wrata01Detail","primitives":[{"attributes":{"NORMAL":22,"POSITION":21,"TEXCOORD_0":23},"indices":20,"material":0,"mode":4},{"attributes":{"NORMAL":30,"POSITION":29,"TEXCOORD_0":31},"indices":28,"material":1,"mode":4},{"attributes":{"NORMAL":34,"POSITION":33,"TEXCOORD_0":35},"indices":32,"material":2,"mode":4}]}],"nodes":[{"children":[1,2,3,4,5,6],"name":"Wrata01Wood","rotation":[-0.70710676908493,-0,0,0.70710676908493],"scale":[10,10,10],"translation":[0,0,0]},{"mesh":0,"name":"Wrata01Door01LOD0","rotation":[0,0,0,1],"scale":[1,1,1],"translation":[-0.01693084649742,0.198645085096359,-0.01695655845106]},{"mesh":1,"name":"Wrata01Door01_LOD1","rotation":[0,0,0,1],"scale":[1,1,1],"translation":[-0.01693084649742,0.198645085096359,-0.01695655845106]},{"mesh":2,"name":"Wrata01Door01_LOD02","rotation":[0,0,0,1],"scale":[1,1,1],"translation":[-0.01693084649742,0.198645085096359,-0.01695655845106]},{"mesh":3,"name":"Wrata01LOD1","rotation":[0,0,0,1],"scale":[1,1,1],"translation":[-0.00337066641077,-0.00114410393871,-0.03041809052229]},{"mesh":4,"name":"Wrata01LOD02","rotation":[0,0,0,1],"scale":[1,1,1],"translation":[-0.00337066641077,-0.00114410393871,-0.03041809052229]},{"mesh":5,"name":"Wrata01Detail","rotation":[0,0,0,1],"scale":[1,1,1],"translation":[-0.00337066641077,-0.00114410393871,-0.03041809052229]}],"samplers":[{}],"scene":0,"scenes":[{"name":"Root Scene","nodes":[0]}],"textures":[{"name":"Map #15","sampler":0,"source":0},{"name":"Map #18","sampler":0,"source":1},{"name":"Map #19","sampler":0,"source":2}]}