{"accessors":[{"bufferView":0,"byteOffset":0,"componentType":5123,"count":324,"type":"SCALAR"},{"bufferView":1,"byteOffset":0,"componentType":5126,"count":98,"max":[0.0166015625,0.013641357421875,0.00372314453125],"min":[0.0053558349609375,-0.00164747238159,-0.01148915290833],"type":"VEC3"},{"bufferView":2,"byteOffset":0,"componentType":5126,"count":98,"type":"VEC3"},{"bufferView":3,"byteOffset":0,"componentType":5126,"count":98,"type":"VEC2"},{"bufferView":4,"byteOffset":0,"componentType":5123,"count":324,"type":"SCALAR"},{"bufferView":5,"byteOffset":0,"componentType":5126,"count":98,"max":[-0.00535583496094,0.013641357421875,0.00372314453125],"min":[-0.0166015625,-0.00164794921875,-0.01148986816406],"type":"VEC3"},{"bufferView":6,"byteOffset":0,"componentType":5126,"count":98,"type":"VEC3"},{"bufferView":7,"byteOffset":0,"componentType":5126,"count":98,"type":"VEC2"},{"bufferView":8,"byteOffset":0,"componentType":5123,"count":1662,"type":"SCALAR"},{"bufferView":9,"byteOffset":0,"componentType":5126,"count":595,"max":[0.0119664762169123,0.0219387803226709,0.0223422236740589],"min":[-0.01196647621691,0.0000387930849683471,-0.01703994721174],"type":"VEC3"},{"bufferView":10,"byteOffset":0,"componentType":5126,"count":595,"type":"VEC3"},{"bufferView":11,"byteOffset":0,"componentType":5126,"count":595,"type":"VEC2"}],"asset":{"generator":"FBX2glTF v0.13.1","version":"2.0"},"bufferViews":[{"buffer":0,"byteLength":648,"byteOffset":0,"target":34963},{"buffer":0,"byteLength":1176,"byteOffset":648,"target":34962},{"buffer":0,"byteLength":1176,"byteOffset":1824,"target":34962},{"buffer":0,"byteLength":784,"byteOffset":3000,"target":34962},{"buffer":0,"byteLength":648,"byteOffset":3784,"target":34963},{"buffer":0,"byteLength":1176,"byteOffset":4432,"target":34962},{"buffer":0,"byteLength":1176,"byteOffset":5608,"target":34962},{"buffer":0,"byteLength":784,"byteOffset":6784,"target":34962},{"buffer":0,"byteLength":3324,"byteOffset":7568,"target":34963},{"buffer":0,"byteLength":7140,"byteOffset":10892,"target":34962},{"buffer":0,"byteLength":7140,"byteOffset":18032,"target":34962},{"buffer":0,"byteLength":4760,"byteOffset":25172,"target":34962}],"buffers":[{"byteLength":29932,"uri":"PA_ArchfireTank.bin"}],"images":[{"name":"swarmArchfireTankNorm","uri":"swarmArchfireTankNorm.png"},{"name":"swarmArchfireTankLightMap","uri":"swarmArchfireTankLightMap.png"},{"name":"swarmArchfireTankDiff","uri":"swarmArchfireTankDiff.png"}],"materials":[{"alphaMode":"OPAQUE","doubleSided":false,"emissiveFactor":[1,1,1],"emissiveTexture":{"index":1,"texCoord":0},"extras":{"fromFBX":{"isTruePBR":false,"shadingModel":"Phong"}},"name":"PA_ArchfireTankMat","normalTexture":{"index":0,"texCoord":0},"pbrMetallicRoughness":{"baseColorFactor":[0.800000011920929,0.800000011920929,0.800000011920929,1],"baseColorTexture":{"index":2,"texCoord":0},"metallicFactor":0.400000005960464,"roughnessFactor":0.301511347293854}}],"meshes":[{"name":"PA_ArchfireRightRing","primitives":[{"attributes":{"NORMAL":2,"POSITION":1,"TEXCOORD_0":3},"indices":0,"material":0,"mode":4}]},{"name":"PA_ArchfireLeftRing","primitives":[{"attributes":{"NORMAL":6,"POSITION":5,"TEXCOORD_0":7},"indices":4,"material":0,"mode":4}]},{"name":"PA_ArchfireBody","primitives":[{"attributes":{"NORMAL":10,"POSITION":9,"TEXCOORD_0":11},"indices":8,"material":0,"mode":4}]}],"nodes":[{"children":[1,2,3],"name":"PA_ArchfireTank","rotation":[0,0,0,1],"scale":[1,1,1],"translation":[0,0,0]},{"mesh":0,"name":"PA_ArchfireRightRing","rotation":[0,0,0,1],"scale":[1,1,1],"translation":[0,0,0]},{"mesh":1,"name":"PA_ArchfireLeftRing","rotation":[0,0,0,1],"scale":[1,1,1],"translation":[0,0,0]},{"mesh":2,"name":"PA_ArchfireBody","rotation":[0,0,0,1],"scale":[1,1,1],"translation":[0,0,0]}],"samplers":[{}],"scene":0,"scenes":[{"name":"Root Scene","nodes":[0]}],"textures":[{"name":"file3","sampler":0,"source":0},{"name":"file4","sampler":0,"source":1},{"name":"file1","sampler":0,"source":2}]}