{"accessors":[{"bufferView":0,"byteOffset":0,"componentType":5123,"count":222,"type":"SCALAR"},{"bufferView":1,"byteOffset":0,"componentType":5126,"count":98,"max":[0.0214732363820076,0.00659610750153661,0.00616386393085122],"min":[0.0155040733516216,0.00062685011653229,-0.00781791657209],"type":"VEC3"},{"bufferView":2,"byteOffset":0,"componentType":5126,"count":98,"type":"VEC3"},{"bufferView":3,"byteOffset":0,"componentType":5126,"count":98,"type":"VEC2"},{"bufferView":4,"byteOffset":0,"componentType":5123,"count":222,"type":"SCALAR"},{"bufferView":5,"byteOffset":0,"componentType":5126,"count":98,"max":[-0.01550399791449,0.00659606931731105,0.00616382574662566],"min":[-0.02147323638201,0.00062685011653229,-0.00781791657209],"type":"VEC3"},{"bufferView":6,"byteOffset":0,"componentType":5126,"count":98,"type":"VEC3"},{"bufferView":7,"byteOffset":0,"componentType":5126,"count":98,"type":"VEC2"},{"bufferView":8,"byteOffset":0,"componentType":5123,"count":1098,"type":"SCALAR"},{"bufferView":9,"byteOffset":0,"componentType":5126,"count":393,"max":[0.0388573259115219,0.0157290548086166,0.0330702662467957],"min":[-0.0388573333621,-0.00402312725782,-0.04302532225847],"type":"VEC3"},{"bufferView":10,"byteOffset":0,"componentType":5126,"count":393,"type":"VEC3"},{"bufferView":11,"byteOffset":0,"componentType":5126,"count":393,"type":"VEC2"}],"asset":{"generator":"FBX2glTF v0.13.1","version":"2.0"},"bufferViews":[{"buffer":0,"byteLength":444,"byteOffset":0,"target":34963},{"buffer":0,"byteLength":1176,"byteOffset":444,"target":34962},{"buffer":0,"byteLength":1176,"byteOffset":1620,"target":34962},{"buffer":0,"byteLength":784,"byteOffset":2796,"target":34962},{"buffer":0,"byteLength":444,"byteOffset":3580,"target":34963},{"buffer":0,"byteLength":1176,"byteOffset":4024,"target":34962},{"buffer":0,"byteLength":1176,"byteOffset":5200,"target":34962},{"buffer":0,"byteLength":784,"byteOffset":6376,"target":34962},{"buffer":0,"byteLength":2196,"byteOffset":7160,"target":34963},{"buffer":0,"byteLength":4716,"byteOffset":9356,"target":34962},{"buffer":0,"byteLength":4716,"byteOffset":14072,"target":34962},{"buffer":0,"byteLength":3144,"byteOffset":18788,"target":34962}],"buffers":[{"byteLength":21932,"uri":"PA_ArchlightBomber.bin"}],"images":[{"name":"swarmSmallShipNorm","uri":"swarmSmallShipNorm.png"},{"name":"swarmSmallShipLightMap","uri":"swarmSmallShipLightMap.png"},{"name":"swarmSmallShipDecalsDiff","uri":"swarmSmallShipDecalsDiff.png"}],"materials":[{"alphaMode":"OPAQUE","doubleSided":false,"emissiveFactor":[1,1,1],"emissiveTexture":{"index":1,"texCoord":0},"extras":{"fromFBX":{"isTruePBR":false,"shadingModel":"Phong"}},"name":"PA_ArchlightBomberMat","normalTexture":{"index":0,"texCoord":0},"pbrMetallicRoughness":{"baseColorFactor":[0.800000011920929,0.800000011920929,0.800000011920929,1],"baseColorTexture":{"index":2,"texCoord":0},"metallicFactor":0.400000005960464,"roughnessFactor":0.301511347293854}}],"meshes":[{"name":"PA_ArchLightLeftBomb","primitives":[{"attributes":{"NORMAL":2,"POSITION":1,"TEXCOORD_0":3},"indices":0,"material":0,"mode":4}]},{"name":"PA_ArchLightRightBomb","primitives":[{"attributes":{"NORMAL":6,"POSITION":5,"TEXCOORD_0":7},"indices":4,"material":0,"mode":4}]},{"name":"PA_ArchLightBomber","primitives":[{"attributes":{"NORMAL":10,"POSITION":9,"TEXCOORD_0":11},"indices":8,"material":0,"mode":4}]}],"nodes":[{"children":[1,2,3],"name":"PA_ArchLightBomber","rotation":[0,0,0,1],"scale":[1,1,1],"translation":[0,0,0]},{"mesh":0,"name":"PA_ArchLightLeftBomb","rotation":[0,0,0,1],"scale":[1,1,1],"translation":[0,0,0]},{"mesh":1,"name":"PA_ArchLightRightBomb","rotation":[0,0,0,1],"scale":[1,1,1],"translation":[0,0,0]},{"mesh":2,"name":"PA_ArchLightBomber 1","rotation":[0,0,0,1],"scale":[1,1,1],"translation":[0,0,0]}],"samplers":[{}],"scene":0,"scenes":[{"name":"Root Scene","nodes":[0]}],"textures":[{"name":"file6","sampler":0,"source":0},{"name":"file7","sampler":0,"source":1},{"name":"swarmSmallShip_file5","sampler":0,"source":2}]}