{"accessors":[{"bufferView":0,"byteOffset":0,"componentType":5126,"count":200,"max":[8.29166698455811],"min":[0],"type":"SCALAR"},{"bufferView":1,"byteOffset":0,"componentType":5126,"count":200,"type":"VEC3"},{"bufferView":2,"byteOffset":0,"componentType":5126,"count":200,"type":"VEC4"},{"bufferView":3,"byteOffset":0,"componentType":5126,"count":200,"type":"VEC3"},{"bufferView":4,"byteOffset":0,"componentType":5126,"count":200,"type":"VEC4"},{"bufferView":5,"byteOffset":0,"componentType":5126,"count":200,"type":"VEC3"},{"bufferView":6,"byteOffset":0,"componentType":5126,"count":200,"type":"VEC4"},{"bufferView":7,"byteOffset":0,"componentType":5123,"count":2010,"type":"SCALAR"},{"bufferView":8,"byteOffset":0,"componentType":5126,"count":595,"max":[0.00066618050914257,0.00114068144466728,0.00386638636700809],"min":[-0.00066618050914,-0.00115008710418,-0.00389375910163],"type":"VEC3"},{"bufferView":9,"byteOffset":0,"componentType":5126,"count":595,"type":"VEC3"},{"bufferView":10,"byteOffset":0,"componentType":5126,"count":595,"type":"VEC2"},{"bufferView":11,"byteOffset":0,"componentType":5123,"count":486,"type":"SCALAR"},{"bufferView":12,"byteOffset":0,"componentType":5126,"count":158,"max":[-0.00014741062478,0.00087623653234913,0.00174811005126685],"min":[-0.00386833655648,-0.00034155664616,-0.00141048908699],"type":"VEC3"},{"bufferView":13,"byteOffset":0,"componentType":5126,"count":158,"type":"VEC3"},{"bufferView":14,"byteOffset":0,"componentType":5126,"count":158,"type":"VEC2"},{"bufferView":15,"byteOffset":0,"componentType":5123,"count":276,"type":"SCALAR"},{"bufferView":16,"byteOffset":0,"componentType":5126,"count":76,"max":[-0.00105520244688,0.00048158405115827,0.00139615056104958],"min":[-0.00350989820436,0.00039086339529603,-0.00105854030699],"type":"VEC3"},{"bufferView":17,"byteOffset":0,"componentType":5126,"count":76,"type":"VEC3"},{"bufferView":18,"byteOffset":0,"componentType":5126,"count":76,"type":"VEC2"},{"bufferView":19,"byteOffset":0,"componentType":5123,"count":486,"type":"SCALAR"},{"bufferView":20,"byteOffset":0,"componentType":5126,"count":158,"max":[0.00386833655647933,0.00087623653234913,0.00174811005126685],"min":[0.00014741062477696,-0.00034155664616,-0.00141048908699],"type":"VEC3"},{"bufferView":21,"byteOffset":0,"componentType":5126,"count":158,"type":"VEC3"},{"bufferView":22,"byteOffset":0,"componentType":5126,"count":158,"type":"VEC2"},{"bufferView":23,"byteOffset":0,"componentType":5123,"count":276,"type":"SCALAR"},{"bufferView":24,"byteOffset":0,"componentType":5126,"count":76,"max":[0.00350989820435643,0.00048158405115827,0.00139615056104958],"min":[0.00105520244687796,0.00039086339529603,-0.00105854030699],"type":"VEC3"},{"bufferView":25,"byteOffset":0,"componentType":5126,"count":76,"type":"VEC3"},{"bufferView":26,"byteOffset":0,"componentType":5126,"count":76,"type":"VEC2"}],"animations":[{"channels":[{"sampler":0,"target":{"node":1,"path":"translation"}},{"sampler":1,"target":{"node":1,"path":"rotation"}},{"sampler":2,"target":{"node":2,"path":"translation"}},{"sampler":3,"target":{"node":2,"path":"rotation"}},{"sampler":4,"target":{"node":4,"path":"translation"}},{"sampler":5,"target":{"node":4,"path":"rotation"}}],"name":"Take 001","samplers":[{"input":0,"interpolation":"LINEAR","output":1},{"input":0,"interpolation":"LINEAR","output":2},{"input":0,"interpolation":"LINEAR","output":3},{"input":0,"interpolation":"LINEAR","output":4},{"input":0,"interpolation":"LINEAR","output":5},{"input":0,"interpolation":"LINEAR","output":6}]}],"asset":{"generator":"FBX2glTF v0.13.1","version":"2.0"},"bufferViews":[{"buffer":0,"byteLength":800,"byteOffset":0},{"buffer":0,"byteLength":2400,"byteOffset":800},{"buffer":0,"byteLength":3200,"byteOffset":3200},{"buffer":0,"byteLength":2400,"byteOffset":6400},{"buffer":0,"byteLength":3200,"byteOffset":8800},{"buffer":0,"byteLength":2400,"byteOffset":12000},{"buffer":0,"byteLength":3200,"byteOffset":14400},{"buffer":0,"byteLength":4020,"byteOffset":17600,"target":34963},{"buffer":0,"byteLength":7140,"byteOffset":21620,"target":34962},{"buffer":0,"byteLength":7140,"byteOffset":28760,"target":34962},{"buffer":0,"byteLength":4760,"byteOffset":35900,"target":34962},{"buffer":0,"byteLength":972,"byteOffset":40660,"target":34963},{"buffer":0,"byteLength":1896,"byteOffset":41632,"target":34962},{"buffer":0,"byteLength":1896,"byteOffset":43528,"target":34962},{"buffer":0,"byteLength":1264,"byteOffset":45424,"target":34962},{"buffer":0,"byteLength":552,"byteOffset":46688,"target":34963},{"buffer":0,"byteLength":912,"byteOffset":47240,"target":34962},{"buffer":0,"byteLength":912,"byteOffset":48152,"target":34962},{"buffer":0,"byteLength":608,"byteOffset":49064,"target":34962},{"buffer":0,"byteLength":972,"byteOffset":49672,"target":34963},{"buffer":0,"byteLength":1896,"byteOffset":50644,"target":34962},{"buffer":0,"byteLength":1896,"byteOffset":52540,"target":34962},{"buffer":0,"byteLength":1264,"byteOffset":54436,"target":34962},{"buffer":0,"byteLength":552,"byteOffset":55700,"target":34963},{"buffer":0,"byteLength":912,"byteOffset":56252,"target":34962},{"buffer":0,"byteLength":912,"byteOffset":57164,"target":34962},{"buffer":0,"byteLength":608,"byteOffset":58076,"target":34962}],"buffers":[{"byteLength":58684,"uri":"PA_Drone.bin"}],"materials":[{"alphaMode":"OPAQUE","doubleSided":false,"extras":{"fromFBX":{"isTruePBR":false,"shadingModel":"Phong"}},"name":"PA_DroneMat","pbrMetallicRoughness":{"baseColorFactor":[0.400000005960464,0.400000005960464,0.400000005960464,1],"metallicFactor":0.400000005960464,"roughnessFactor":0.301511347293854}}],"meshes":[{"name":"PA_Drone","primitives":[{"attributes":{"NORMAL":9,"POSITION":8,"TEXCOORD_0":10},"indices":7,"material":0,"mode":4}]},{"name":"PA_DroneWingLeft","primitives":[{"attributes":{"NORMAL":13,"POSITION":12,"TEXCOORD_0":14},"indices":11,"material":0,"mode":4}]},{"name":"PA_DroneBladeLeft","primitives":[{"attributes":{"NORMAL":17,"POSITION":16,"TEXCOORD_0":18},"indices":15,"material":0,"mode":4}]},{"name":"PA_DroneWingRight","primitives":[{"attributes":{"NORMAL":21,"POSITION":20,"TEXCOORD_0":22},"indices":19,"material":0,"mode":4}]},{"name":"PA_DroneBladeRight","primitives":[{"attributes":{"NORMAL":25,"POSITION":24,"TEXCOORD_0":26},"indices":23,"material":0,"mode":4}]}],"nodes":[{"children":[1],"name":"PA_DroneCtrl","rotation":[0,0,0,1],"scale":[1,1,1],"translation":[0,0,0]},{"children":[2,4],"mesh":0,"name":"PA_Drone","rotation":[0,0,0,1],"scale":[1,1,1],"translation":[0,0,0]},{"children":[3],"mesh":1,"name":"PA_DroneWingLeft","rotation":[0,0,0,1],"scale":[1,1,1],"translation":[0,0,0]},{"mesh":2,"name":"PA_DroneBladeLeft","rotation":[0,0,0,1],"scale":[1,1,1],"translation":[0,0,0]},{"children":[5],"mesh":3,"name":"PA_DroneWingRight","rotation":[0,0,0,1],"scale":[1,1,1],"translation":[0,0,0]},{"mesh":4,"name":"PA_DroneBladeRight","rotation":[0,0,0,1],"scale":[1,1,1],"translation":[0,0,0]}],"samplers":[{}],"scene":0,"scenes":[{"name":"Root Scene","nodes":[0]}]}