{"accessors":[{"bufferView":0,"byteOffset":0,"componentType":5126,"count":270,"max":[11.2083330154419],"min":[0],"type":"SCALAR"},{"bufferView":1,"byteOffset":0,"componentType":5126,"count":270,"type":"VEC3"},{"bufferView":2,"byteOffset":0,"componentType":5126,"count":270,"type":"VEC4"},{"bufferView":3,"byteOffset":0,"componentType":5126,"count":270,"type":"VEC4"},{"bufferView":4,"byteOffset":0,"componentType":5126,"count":270,"type":"VEC4"},{"bufferView":5,"byteOffset":0,"componentType":5126,"count":270,"type":"VEC4"},{"bufferView":6,"byteOffset":0,"componentType":5126,"count":270,"type":"VEC4"},{"bufferView":7,"byteOffset":0,"componentType":5126,"count":270,"type":"VEC4"},{"bufferView":8,"byteOffset":0,"componentType":5126,"count":270,"type":"VEC4"},{"bufferView":9,"byteOffset":0,"componentType":5126,"count":270,"type":"VEC4"},{"bufferView":10,"byteOffset":0,"componentType":5126,"count":270,"type":"VEC4"},{"bufferView":11,"byteOffset":0,"componentType":5126,"count":270,"type":"VEC4"},{"bufferView":12,"byteOffset":0,"componentType":5126,"count":270,"type":"VEC4"},{"bufferView":13,"byteOffset":0,"componentType":5126,"count":270,"type":"VEC4"},{"bufferView":14,"byteOffset":0,"componentType":5126,"count":270,"type":"VEC4"},{"bufferView":15,"byteOffset":0,"componentType":5126,"count":270,"type":"VEC4"},{"bufferView":16,"byteOffset":0,"componentType":5126,"count":270,"type":"VEC4"},{"bufferView":17,"byteOffset":0,"componentType":5126,"count":270,"type":"VEC4"},{"bufferView":18,"byteOffset":0,"componentType":5126,"count":270,"type":"VEC4"},{"bufferView":19,"byteOffset":0,"componentType":5126,"count":270,"type":"VEC4"},{"bufferView":20,"byteOffset":0,"componentType":5123,"count":5232,"type":"SCALAR"},{"bufferView":21,"byteOffset":0,"componentType":5126,"count":2053,"max":[0.305806696414948,0.401341021060944,0.255135267972946],"min":[-0.30580669641495,-0,-0.74113953113556],"type":"VEC3"},{"bufferView":22,"byteOffset":0,"componentType":5126,"count":2053,"type":"VEC3"},{"bufferView":23,"byteOffset":0,"componentType":5126,"count":2053,"type":"VEC2"},{"bufferView":24,"byteOffset":0,"componentType":5123,"count":2053,"type":"VEC4"},{"bufferView":25,"byteOffset":0,"componentType":5123,"count":2053,"type":"VEC4"},{"bufferView":26,"byteOffset":0,"componentType":5126,"count":2053,"type":"VEC4"},{"bufferView":27,"byteOffset":0,"componentType":5126,"count":2053,"type":"VEC4"},{"bufferView":28,"byteOffset":0,"componentType":5126,"count":29,"type":"MAT4"}],"animations":[{"channels":[{"sampler":0,"target":{"node":1,"path":"translation"}},{"sampler":1,"target":{"node":1,"path":"rotation"}},{"sampler":2,"target":{"node":2,"path":"rotation"}},{"sampler":3,"target":{"node":3,"path":"rotation"}},{"sampler":4,"target":{"node":4,"path":"rotation"}},{"sampler":5,"target":{"node":5,"path":"rotation"}},{"sampler":6,"target":{"node":6,"path":"rotation"}},{"sampler":7,"target":{"node":11,"path":"rotation"}},{"sampler":8,"target":{"node":12,"path":"rotation"}},{"sampler":9,"target":{"node":13,"path":"rotation"}},{"sampler":10,"target":{"node":16,"path":"rotation"}},{"sampler":11,"target":{"node":17,"path":"rotation"}},{"sampler":12,"target":{"node":18,"path":"rotation"}},{"sampler":13,"target":{"node":21,"path":"rotation"}},{"sampler":14,"target":{"node":22,"path":"rotation"}},{"sampler":15,"target":{"node":23,"path":"rotation"}},{"sampler":16,"target":{"node":26,"path":"rotation"}},{"sampler":17,"target":{"node":27,"path":"rotation"}},{"sampler":18,"target":{"node":28,"path":"rotation"}}],"name":"Take 001","samplers":[{"input":0,"interpolation":"LINEAR","output":1},{"input":0,"interpolation":"LINEAR","output":2},{"input":0,"interpolation":"LINEAR","output":3},{"input":0,"interpolation":"LINEAR","output":4},{"input":0,"interpolation":"LINEAR","output":5},{"input":0,"interpolation":"LINEAR","output":6},{"input":0,"interpolation":"LINEAR","output":7},{"input":0,"interpolation":"LINEAR","output":8},{"input":0,"interpolation":"LINEAR","output":9},{"input":0,"interpolation":"LINEAR","output":10},{"input":0,"interpolation":"LINEAR","output":11},{"input":0,"interpolation":"LINEAR","output":12},{"input":0,"interpolation":"LINEAR","output":13},{"input":0,"interpolation":"LINEAR","output":14},{"input":0,"interpolation":"LINEAR","output":15},{"input":0,"interpolation":"LINEAR","output":16},{"input":0,"interpolation":"LINEAR","output":17},{"input":0,"interpolation":"LINEAR","output":18},{"input":0,"interpolation":"LINEAR","output":19}]}],"asset":{"generator":"FBX2glTF v0.13.1","version":"2.0"},"bufferViews":[{"buffer":0,"byteLength":1080,"byteOffset":0},{"buffer":0,"byteLength":3240,"byteOffset":1080},{"buffer":0,"byteLength":4320,"byteOffset":4320},{"buffer":0,"byteLength":4320,"byteOffset":8640},{"buffer":0,"byteLength":4320,"byteOffset":12960},{"buffer":0,"byteLength":4320,"byteOffset":17280},{"buffer":0,"byteLength":4320,"byteOffset":21600},{"buffer":0,"byteLength":4320,"byteOffset":25920},{"buffer":0,"byteLength":4320,"byteOffset":30240},{"buffer":0,"byteLength":4320,"byteOffset":34560},{"buffer":0,"byteLength":4320,"byteOffset":38880},{"buffer":0,"byteLength":4320,"byteOffset":43200},{"buffer":0,"byteLength":4320,"byteOffset":47520},{"buffer":0,"byteLength":4320,"byteOffset":51840},{"buffer":0,"byteLength":4320,"byteOffset":56160},{"buffer":0,"byteLength":4320,"byteOffset":60480},{"buffer":0,"byteLength":4320,"byteOffset":64800},{"buffer":0,"byteLength":4320,"byteOffset":69120},{"buffer":0,"byteLength":4320,"byteOffset":73440},{"buffer":0,"byteLength":4320,"byteOffset":77760},{"buffer":0,"byteLength":10464,"byteOffset":82080,"target":34963},{"buffer":0,"byteLength":24636,"byteOffset":92544,"target":34962},{"buffer":0,"byteLength":24636,"byteOffset":117180,"target":34962},{"buffer":0,"byteLength":16424,"byteOffset":141816,"target":34962},{"buffer":0,"byteLength":16424,"byteOffset":158240,"target":34962},{"buffer":0,"byteLength":16424,"byteOffset":174664,"target":34962},{"buffer":0,"byteLength":32848,"byteOffset":191088,"target":34962},{"buffer":0,"byteLength":32848,"byteOffset":223936,"target":34962},{"buffer":0,"byteLength":1856,"byteOffset":256784}],"buffers":[{"byteLength":258640,"uri":"PA_Warrior.bin"}],"images":[{"name":"swarmWarriorNorm","uri":"swarmWarriorNorm.png"},{"name":"swarmWarriorLightMap","uri":"swarmWarriorLightMap.png"},{"name":"swarmWarriorDiff","uri":"swarmWarriorDiff.png"}],"materials":[{"alphaMode":"OPAQUE","doubleSided":false,"emissiveFactor":[1,1,1],"emissiveTexture":{"index":1,"texCoord":0},"extras":{"fromFBX":{"isTruePBR":false,"shadingModel":"Phong"}},"name":"PA_WarriorMat","normalTexture":{"index":0,"texCoord":0},"pbrMetallicRoughness":{"baseColorFactor":[0.800000011920929,0.800000011920929,0.800000011920929,1],"baseColorTexture":{"index":2,"texCoord":0},"metallicFactor":0.400000005960464,"roughnessFactor":0.301511347293854}}],"meshes":[{"name":"PA_Warrior","primitives":[{"attributes":{"JOINTS_0":24,"JOINTS_1":25,"NORMAL":22,"POSITION":21,"TEXCOORD_0":23,"WEIGHTS_0":26,"WEIGHTS_1":27},"indices":20,"material":0,"mode":4}]}],"nodes":[{"children":[1],"name":"PA_WarriorControl","rotation":[0,0,0,1],"scale":[0.00999999977648258,0.00999999977648258,0.00999999977648258],"translation":[0,0,0]},{"children":[2],"name":"PA_WarriorRoot","rotation":[0,0,0.70710676908493,0.70710676908493],"scale":[1,1,1],"translation":[0.00000000000000000000000000000006,0,0]},{"children":[3,8,10,15,20,25],"name":"PA_WarriorBody","rotation":[0.641304433345795,0.303553581237793,-0.30687767267227,0.634357869625092],"scale":[1,1,1],"translation":[0.209999993443489,0.0000000000000000466293655784187,0]},{"children":[4],"name":"PA_WarriorTail1","rotation":[-0,0.00000000000000000078048859341988,-0.35475960373879,0.934957563877106],"scale":[1,1,1],"translation":[0.192093729972839,0.0000000000000000355271359939116,-0]},{"children":[5],"name":"PA_WarriorTail2","rotation":[0.0000000000000000001246682029035,0.00000000000000000085835555057529,-0.14373265206814,0.989616572856903],"scale":[1,1,1],"translation":[0.140356674790382,-0,0.0000000000000000716093829707402]},{"children":[6],"name":"PA_WarriorTail3","rotation":[0.00000000000000000087469572809445,0.00000000000000000085996514064974,-0.00849161855876,0.999963939189911],"scale":[1,1,1],"translation":[0.107703290879726,0,0.0000000000000000738298269024082]},{"children":[7],"name":"PA_WarriorTail4","rotation":[-0,-0,-0.11326163262129,0.993565201759338],"scale":[1,1,1],"translation":[0.0984885767102242,-0,0.0000000000000000704991610049063]},{"name":"PA_WarriorTail5","rotation":[0.231128573417664,-0.66826611757278,0.231128573417664,0.668266117572784],"scale":[1,1,1],"translation":[0.178044930100441,-0,0.000000000000000142108543975646]},{"children":[9],"name":"PA_WarriorWeapon1","rotation":[0.213231310248375,0.97700172662735,-0,-0],"scale":[1,1,1],"translation":[-0.02811127528548,0.124939009547234,-0]},{"name":"PA_WarriorWeapon2","rotation":[-0.08639661222696,0.70180881023407,0.086396612226963,0.70180881023407],"scale":[1,1,1],"translation":[0.1236931681633,0,0.0000000000000000688338280561553]},{"children":[11],"name":"PA_WarriorLtFrontLeg1","rotation":[-0.3464629650116,0.720859408378601,0.541026055812836,-0.26003056764603],"scale":[1,1,1],"translation":[-0.02916352264583,0.0233308169990778,0.0199999995529652]},{"children":[12],"name":"PA_WarriorLtFrontLeg2","rotation":[0.00939814932644367,0.106025643646717,0.917287766933441,0.38373601436615],"scale":[1,1,1],"translation":[0.0599999986588955,-0,-0]},{"children":[13],"name":"PA_WarriorLtFrontLeg3","rotation":[0.00000000000000000601703461203169,0.00000000000000000683653237105532,-0.6606827378273,0.750665247440338],"scale":[1,1,1],"translation":[0.198494330048561,0.0000000000000000532907039908674,0.00000000000000000666133799885843]},{"children":[14],"name":"swarmWarriorLtFrontLeg4","rotation":[0.00000000000000000866375242389873,0.00000000000000000460824139050639,-0.29223039746285,0.956347942352295],"scale":[1,1,1],"translation":[0.155563488602638,0.000000000000000142108543975646,0]},{"name":"swarmWarriorLtFrontLeg5","rotation":[0.00000000000000000054266698117931,0.00000000000000000979806188917024,0.666921436786652,0.745128035545349],"scale":[1,1,1],"translation":[0.181107714772224,0,0]},{"children":[16],"name":"PA_WarriorLtRearLeg1","rotation":[-0.26933413743973,0.560383319854736,0.705916464328766,-0.33928099274635],"scale":[1,1,1],"translation":[0.0144986975938082,-0.01159895770252,0.0199999995529652]},{"children":[17],"name":"PA_WarriorLtRearLeg2","rotation":[-0.0016601390671,-0.02747463062406,0.910211443901062,0.413228154182434],"scale":[1,1,1],"translation":[0.0599999986588955,-0,0]},{"children":[18],"name":"swarmWarriorLtRearLeg3","rotation":[0.0000000000000000106587300816419,-0,-0.64039897918701,0.7680424451828],"scale":[1,1,1],"translation":[0.198494330048561,0.0000000000000000355271359939116,-0]},{"children":[19],"name":"swarmWarriorLtRearLeg4","rotation":[-0,-0,-0.2817168533802,0.959497570991516],"scale":[1,1,1],"translation":[0.155563488602638,0.000000000000000142108543975646,-0]},{"name":"swarmWarriorLtRearLeg5","rotation":[0,0,0.666921436786652,0.745128035545349],"scale":[1,1,1],"translation":[0.181107714772224,0.0000000000000000710542719878232,0.00000000000000000888178399847791]},{"children":[21],"name":"PA_WarriorRtRearLeg1","rotation":[0.541910827159882,0.260455787181854,0.346143394708633,0.720194578170776],"scale":[1,1,1],"translation":[0.0144987031817436,-0.01159896235913,-0.01999999955297]},{"children":[22],"name":"PA_WarriorRtRearLeg2","rotation":[0.00397763168439269,0.152084305882454,0.877905905246735,0.454021722078323],"scale":[1,1,1],"translation":[-0.0599999986589,0.0000000000000000310862448218533,-0]},{"children":[23],"name":"swarmWarriorRtRearLeg3","rotation":[0.0000000799946064944379,0.0000000852523029948316,-0.55775982141495,0.830002427101135],"scale":[1,1,1],"translation":[-0.1984940469265,-0.00000031609235,0.000000102062237772316]},{"children":[24],"name":"swarmWarriorRtRearLeg4","rotation":[-0.00000003588196,0.00000012503744528658,-0.24073567986488,0.970590710639954],"scale":[1,1,1],"translation":[-0.1555635035038,-0.00000001406821,-0.00000000539196]},{"name":"swarmWarriorRtRearLeg5","rotation":[0.00000000555163648385815,0.0000000221819078660701,0.666921436786652,0.745128035545349],"scale":[1,1,1],"translation":[-0.18110775947571,-0.0000005194965,-0.0000001695367]},{"children":[26],"name":"PA_WarriorRtFrontLeg1","rotation":[0.706604063510895,0.33961147069931,0.268917322158813,0.559516072273254],"scale":[1,1,1],"translation":[-0.02916349843144,0.0233307983726263,-0.01999999955297]},{"children":[27],"name":"PA_WarriorRtFrontLeg2","rotation":[-0.06478855013847,-0.17613723874092,0.840577900409698,0.508140623569489],"scale":[1,1,1],"translation":[-0.0599999986589,0.0000000000000000355271359939116,-0]},{"children":[28],"name":"swarmWarriorRtFrontLeg3","rotation":[-0.00000005112525,0.0000000643478870188119,-0.5325773358345,0.846381366252899],"scale":[1,1,1],"translation":[-0.19849449396133,0.000000175583494410603,0.0000000109064588471597]},{"children":[29],"name":"swarmWarriorRtFrontLeg4","rotation":[0.0000000311628589599877,-0.00000019108425,-0.2287369966507,0.97348827123642],"scale":[1,1,1],"translation":[-0.15556319057941,0.000000298250967034619,-0.00000004948679]},{"name":"swarmWarriorRtFrontLeg5","rotation":[-0,-0,0.666921436786652,0.745128035545349],"scale":[1,1,1],"translation":[-0.18110775947571,-0.0000006273537,0.000000157729985517108]},{"mesh":0,"name":"PA_Warrior","rotation":[0,0,0,1],"scale":[1,1,1],"skin":0,"translation":[0,0,0]}],"samplers":[{}],"scene":0,"scenes":[{"name":"Root Scene","nodes":[0,30]}],"skins":[{"inverseBindMatrices":28,"joints":[1,2,3,4,5,6,7,8,9,10,11,12,13,14,15,16,17,18,19,20,21,22,23,24,25,26,27,28,29],"skeleton":1},{"joints":[1,2,3,4,5,6,7,8,9,10,11,12,13,14,15,16,17,18,19,20,21,22,23,24,25,26,27,28,29]}],"textures":[{"name":"file2","sampler":0,"source":0},{"name":"file5","sampler":0,"source":1},{"name":"file4","sampler":0,"source":2}]}