{"accessors":[{"bufferView":0,"byteOffset":0,"componentType":5126,"count":1,"max":[0],"min":[0],"type":"SCALAR"},{"bufferView":1,"byteOffset":0,"componentType":5123,"count":2142,"type":"SCALAR"},{"bufferView":2,"byteOffset":0,"componentType":5126,"count":652,"max":[0.0439516454935074,0.123849175870419,0.0430454276502132],"min":[-0.04315650835633,-0.00500549282879,-0.04796458035707],"type":"VEC3"},{"bufferView":3,"byteOffset":0,"componentType":5126,"count":652,"type":"VEC3"},{"bufferView":4,"byteOffset":0,"componentType":5126,"count":652,"type":"VEC4"},{"bufferView":5,"byteOffset":0,"componentType":5126,"count":652,"type":"VEC2"},{"bufferView":6,"byteOffset":0,"componentType":5123,"count":1434,"type":"SCALAR"},{"bufferView":7,"byteOffset":0,"componentType":5126,"count":470,"max":[0.0647332370281219,0.130533754825592,0.0596267059445381],"min":[-0.06047736853361,0.0213128663599491,-0.06678260862827],"type":"VEC3"},{"bufferView":8,"byteOffset":0,"componentType":5126,"count":470,"type":"VEC3"},{"bufferView":9,"byteOffset":0,"componentType":5126,"count":470,"type":"VEC4"},{"bufferView":10,"byteOffset":0,"componentType":5126,"count":470,"type":"VEC2"}],"animations":[{"channels":[],"name":"Take 001","samplers":[]}],"asset":{"generator":"FBX2glTF v0.13.1","version":"2.0"},"bufferViews":[{"buffer":0,"byteLength":4,"byteOffset":0},{"buffer":0,"byteLength":4284,"byteOffset":4,"target":34963},{"buffer":0,"byteLength":7824,"byteOffset":4288,"target":34962},{"buffer":0,"byteLength":7824,"byteOffset":12112,"target":34962},{"buffer":0,"byteLength":10432,"byteOffset":19936,"target":34962},{"buffer":0,"byteLength":5216,"byteOffset":30368,"target":34962},{"buffer":0,"byteLength":2868,"byteOffset":35584,"target":34963},{"buffer":0,"byteLength":5640,"byteOffset":38452,"target":34962},{"buffer":0,"byteLength":5640,"byteOffset":44092,"target":34962},{"buffer":0,"byteLength":7520,"byteOffset":49732,"target":34962},{"buffer":0,"byteLength":3760,"byteOffset":57252,"target":34962}],"buffers":[{"byteLength":61012,"uri":"Birch_tree1.bin"}],"images":[{"name":"Birch_bark","uri":"Birch_bark.psd"},{"name":"Birch_leaves","uri":"Birch_leaves.psd"}],"materials":[{"alphaMode":"OPAQUE","doubleSided":false,"extras":{"fromFBX":{"isTruePBR":false,"shadingModel":"Phong"}},"name":"23 - Default","pbrMetallicRoughness":{"baseColorFactor":[1,1,1,1],"baseColorTexture":{"index":0,"texCoord":0},"metallicFactor":0.400000005960464,"roughnessFactor":0.70710676908493}},{"alphaMode":"OPAQUE","doubleSided":false,"extras":{"fromFBX":{"isTruePBR":false,"shadingModel":"Phong"}},"name":"Birch_leaves","pbrMetallicRoughness":{"baseColorFactor":[1,1,1,1],"baseColorTexture":{"index":1,"texCoord":0},"metallicFactor":0.400000005960464,"roughnessFactor":0.70710676908493}}],"meshes":[{"name":"Birch_tree1","primitives":[{"attributes":{"COLOR_0":4,"NORMAL":3,"POSITION":2,"TEXCOORD_0":5},"indices":1,"material":0,"mode":4},{"attributes":{"COLOR_0":9,"NORMAL":8,"POSITION":7,"TEXCOORD_0":10},"indices":6,"material":1,"mode":4}]}],"nodes":[{"mesh":0,"name":"Birch_tree1","rotation":[-0.70710676908493,-0,0,0.70710676908493],"scale":[1,1,1],"translation":[0,0,0]}],"samplers":[{}],"scene":0,"scenes":[{"name":"Root Scene","nodes":[0]}],"textures":[{"name":"Map #29","sampler":0,"source":0},{"name":"Map #30","sampler":0,"source":1}]}