{"accessors":[{"bufferView":0,"byteOffset":0,"componentType":5126,"count":1,"max":[0],"min":[0],"type":"SCALAR"},{"bufferView":1,"byteOffset":0,"componentType":5123,"count":3351,"type":"SCALAR"},{"bufferView":2,"byteOffset":0,"componentType":5126,"count":1049,"max":[0.0592409893870354,0.114501953125,0.0750942826271057],"min":[-0.06950786709785,-0.00769226066768,-0.06939149647951],"type":"VEC3"},{"bufferView":3,"byteOffset":0,"componentType":5126,"count":1049,"type":"VEC3"},{"bufferView":4,"byteOffset":0,"componentType":5126,"count":1049,"type":"VEC4"},{"bufferView":5,"byteOffset":0,"componentType":5126,"count":1049,"type":"VEC2"},{"bufferView":6,"byteOffset":0,"componentType":5123,"count":1620,"type":"SCALAR"},{"bufferView":7,"byteOffset":0,"componentType":5126,"count":540,"max":[0.101956635713577,0.133196249604225,0.101098172366619],"min":[-0.10760043561459,0.0471382141113281,-0.10068195313215],"type":"VEC3"},{"bufferView":8,"byteOffset":0,"componentType":5126,"count":540,"type":"VEC3"},{"bufferView":9,"byteOffset":0,"componentType":5126,"count":540,"type":"VEC4"},{"bufferView":10,"byteOffset":0,"componentType":5126,"count":540,"type":"VEC2"}],"animations":[{"channels":[],"name":"Take 001","samplers":[]}],"asset":{"generator":"FBX2glTF v0.13.1","version":"2.0"},"bufferViews":[{"buffer":0,"byteLength":4,"byteOffset":0},{"buffer":0,"byteLength":6702,"byteOffset":4,"target":34963},{"buffer":0,"byteLength":12588,"byteOffset":6708,"target":34962},{"buffer":0,"byteLength":12588,"byteOffset":19296,"target":34962},{"buffer":0,"byteLength":16784,"byteOffset":31884,"target":34962},{"buffer":0,"byteLength":8392,"byteOffset":48668,"target":34962},{"buffer":0,"byteLength":3240,"byteOffset":57060,"target":34963},{"buffer":0,"byteLength":6480,"byteOffset":60300,"target":34962},{"buffer":0,"byteLength":6480,"byteOffset":66780,"target":34962},{"buffer":0,"byteLength":8640,"byteOffset":73260,"target":34962},{"buffer":0,"byteLength":4320,"byteOffset":81900,"target":34962}],"buffers":[{"byteLength":86220,"uri":"Oak_tree1.bin"}],"images":[{"name":"Oak_bark","uri":"../Textures/Oak_bark.png"},{"name":"Oak_leaves","uri":"Oak_leaves.psd"}],"materials":[{"alphaMode":"OPAQUE","doubleSided":false,"extras":{"fromFBX":{"isTruePBR":false,"shadingModel":"Phong"}},"name":"11 - Default","pbrMetallicRoughness":{"baseColorFactor":[1,1,1,1],"baseColorTexture":{"index":0,"texCoord":0},"metallicFactor":0.400000005960464,"roughnessFactor":0.70710676908493}},{"alphaMode":"OPAQUE","doubleSided":false,"extras":{"fromFBX":{"isTruePBR":false,"shadingModel":"Phong"}},"name":"Oak","pbrMetallicRoughness":{"baseColorFactor":[1,1,1,1],"baseColorTexture":{"index":1,"texCoord":0},"metallicFactor":0.400000005960464,"roughnessFactor":0.70710676908493}}],"meshes":[{"name":"Oak_tree1","primitives":[{"attributes":{"COLOR_0":4,"NORMAL":3,"POSITION":2,"TEXCOORD_0":5},"indices":1,"material":0,"mode":4},{"attributes":{"COLOR_0":9,"NORMAL":8,"POSITION":7,"TEXCOORD_0":10},"indices":6,"material":1,"mode":4}]}],"nodes":[{"mesh":0,"name":"Oak_tree1","rotation":[-0.70710676908493,-0,0,0.70710676908493],"scale":[1,1,1],"translation":[0,0,0]}],"samplers":[{}],"scene":0,"scenes":[{"name":"Root Scene","nodes":[0]}],"textures":[{"name":"Map #23","sampler":0,"source":0},{"name":"Map #24","sampler":0,"source":1}]}