{"accessors":[{"bufferView":0,"byteOffset":0,"componentType":5123,"count":912,"type":"SCALAR"},{"bufferView":1,"byteOffset":0,"componentType":5126,"count":190,"max":[-0.00233554001898,0.00232109986245632,0.00804654974490404],"min":[-0.0064706299454,-0.00659151002765,-0.00779161974788],"type":"VEC3"},{"bufferView":2,"byteOffset":0,"componentType":5126,"count":190,"type":"VEC3"},{"bufferView":3,"byteOffset":0,"componentType":5126,"count":190,"type":"VEC4"},{"bufferView":4,"byteOffset":0,"componentType":5126,"count":190,"type":"VEC2"},{"bufferView":5,"byteOffset":0,"componentType":5123,"count":1440,"type":"SCALAR"},{"bufferView":6,"byteOffset":0,"componentType":5126,"count":287,"max":[0.00565464003011584,0.00090300996089354,0.00488777970895171],"min":[-0.00537425978109,-0.00535567989573,-0.0049437796697],"type":"VEC3"},{"bufferView":7,"byteOffset":0,"componentType":5126,"count":287,"type":"VEC3"},{"bufferView":8,"byteOffset":0,"componentType":5126,"count":287,"type":"VEC4"},{"bufferView":9,"byteOffset":0,"componentType":5126,"count":287,"type":"VEC2"},{"bufferView":10,"byteOffset":0,"componentType":5123,"count":1584,"type":"SCALAR"},{"bufferView":11,"byteOffset":0,"componentType":5126,"count":315,"max":[0.00571403000503778,0.00094012997578829,0.0050527099519968],"min":[-0.00574434967712,-0.00609369995072,-0.00477994978428],"type":"VEC3"},{"bufferView":12,"byteOffset":0,"componentType":5126,"count":315,"type":"VEC3"},{"bufferView":13,"byteOffset":0,"componentType":5126,"count":315,"type":"VEC4"},{"bufferView":14,"byteOffset":0,"componentType":5126,"count":315,"type":"VEC2"},{"bufferView":15,"byteOffset":0,"componentType":5123,"count":5088,"type":"SCALAR"},{"bufferView":16,"byteOffset":0,"componentType":5126,"count":952,"max":[0.00518643949180841,0.00997192040085793,0.0051883296109736],"min":[-0.00521841971204,-0.00998749956489,-0.0051981001161],"type":"VEC3"},{"bufferView":17,"byteOffset":0,"componentType":5126,"count":952,"type":"VEC3"},{"bufferView":18,"byteOffset":0,"componentType":5126,"count":952,"type":"VEC4"},{"bufferView":19,"byteOffset":0,"componentType":5126,"count":952,"type":"VEC2"},{"bufferView":20,"byteOffset":0,"componentType":5123,"count":1344,"type":"SCALAR"},{"bufferView":21,"byteOffset":0,"componentType":5126,"count":237,"max":[-0.00417158007622,0.00361945969052613,0.00322737009264529],"min":[-0.00974246952683,-0.00357336015441,-0.00325013976544],"type":"VEC3"},{"bufferView":22,"byteOffset":0,"componentType":5126,"count":237,"type":"VEC3"},{"bufferView":23,"byteOffset":0,"componentType":5126,"count":237,"type":"VEC4"},{"bufferView":24,"byteOffset":0,"componentType":5126,"count":237,"type":"VEC2"},{"bufferView":25,"byteOffset":0,"componentType":5123,"count":912,"type":"SCALAR"},{"bufferView":26,"byteOffset":0,"componentType":5126,"count":190,"max":[-0.00189650000539,0.00340187014080584,0.00726030999794602],"min":[-0.00653363997117,-0.00825802050531,-0.00686286948621],"type":"VEC3"},{"bufferView":27,"byteOffset":0,"componentType":5126,"count":190,"type":"VEC3"},{"bufferView":28,"byteOffset":0,"componentType":5126,"count":190,"type":"VEC4"},{"bufferView":29,"byteOffset":0,"componentType":5126,"count":190,"type":"VEC2"}],"asset":{"generator":"FBX2glTF v0.13.1","version":"2.0"},"bufferViews":[{"buffer":0,"byteLength":1824,"byteOffset":0,"target":34963},{"buffer":0,"byteLength":2280,"byteOffset":1824,"target":34962},{"buffer":0,"byteLength":2280,"byteOffset":4104,"target":34962},{"buffer":0,"byteLength":3040,"byteOffset":6384,"target":34962},{"buffer":0,"byteLength":1520,"byteOffset":9424,"target":34962},{"buffer":0,"byteLength":2880,"byteOffset":10944,"target":34963},{"buffer":0,"byteLength":3444,"byteOffset":13824,"target":34962},{"buffer":0,"byteLength":3444,"byteOffset":17268,"target":34962},{"buffer":0,"byteLength":4592,"byteOffset":20712,"target":34962},{"buffer":0,"byteLength":2296,"byteOffset":25304,"target":34962},{"buffer":0,"byteLength":3168,"byteOffset":27600,"target":34963},{"buffer":0,"byteLength":3780,"byteOffset":30768,"target":34962},{"buffer":0,"byteLength":3780,"byteOffset":34548,"target":34962},{"buffer":0,"byteLength":5040,"byteOffset":38328,"target":34962},{"buffer":0,"byteLength":2520,"byteOffset":43368,"target":34962},{"buffer":0,"byteLength":10176,"byteOffset":45888,"target":34963},{"buffer":0,"byteLength":11424,"byteOffset":56064,"target":34962},{"buffer":0,"byteLength":11424,"byteOffset":67488,"target":34962},{"buffer":0,"byteLength":15232,"byteOffset":78912,"target":34962},{"buffer":0,"byteLength":7616,"byteOffset":94144,"target":34962},{"buffer":0,"byteLength":2688,"byteOffset":101760,"target":34963},{"buffer":0,"byteLength":2844,"byteOffset":104448,"target":34962},{"buffer":0,"byteLength":2844,"byteOffset":107292,"target":34962},{"buffer":0,"byteLength":3792,"byteOffset":110136,"target":34962},{"buffer":0,"byteLength":1896,"byteOffset":113928,"target":34962},{"buffer":0,"byteLength":1824,"byteOffset":115824,"target":34963},{"buffer":0,"byteLength":2280,"byteOffset":117648,"target":34962},{"buffer":0,"byteLength":2280,"byteOffset":119928,"target":34962},{"buffer":0,"byteLength":3040,"byteOffset":122208,"target":34962},{"buffer":0,"byteLength":1520,"byteOffset":125248,"target":34962}],"buffers":[{"byteLength":126768,"uri":"flask_a.bin"}],"materials":[{"alphaMode":"OPAQUE","doubleSided":false,"extras":{"fromFBX":{"isTruePBR":false,"shadingModel":"Phong"}},"name":"Default","pbrMetallicRoughness":{"baseColorFactor":[1,1,1,1],"metallicFactor":0.400000005960464,"roughnessFactor":0.816496610641479}}],"meshes":[{"name":"Group21531_low","primitives":[{"attributes":{"NORMAL":2,"POSITION":1,"TANGENT":3,"TEXCOORD_0":4},"indices":0,"material":0,"mode":4}]},{"name":"Group21546_low","primitives":[{"attributes":{"NORMAL":7,"POSITION":6,"TANGENT":8,"TEXCOORD_0":9},"indices":5,"material":0,"mode":4}]},{"name":"Group21561_low","primitives":[{"attributes":{"NORMAL":12,"POSITION":11,"TANGENT":13,"TEXCOORD_0":14},"indices":10,"material":0,"mode":4}]},{"name":"Group21576_low","primitives":[{"attributes":{"NORMAL":17,"POSITION":16,"TANGENT":18,"TEXCOORD_0":19},"indices":15,"material":0,"mode":4}]},{"name":"Group21591_low","primitives":[{"attributes":{"NORMAL":22,"POSITION":21,"TANGENT":23,"TEXCOORD_0":24},"indices":20,"material":0,"mode":4}]},{"name":"Group21606_low","primitives":[{"attributes":{"NORMAL":27,"POSITION":26,"TANGENT":28,"TEXCOORD_0":29},"indices":25,"material":0,"mode":4}]}],"nodes":[{"name":"Render","rotation":[0,0,0,1],"scale":[1,1,1],"translation":[0,0,0]},{"name":"Main Camera","rotation":[0.0536670014262199,0.895803093910217,0.112703777849674,-0.42656126618385],"scale":[1,0.999999940395355,1],"translation":[-0.0313004180789,0.00963723845779896,-0.02365116775036]},{"name":"Sky","rotation":[0,0,0,1],"scale":[1,1,1],"translation":[0,0,0]},{"children":[4,6,8,10,12,14,16,17,18],"name":"flask_a","rotation":[0,0,0,1],"scale":[1,1,1],"translation":[0,0,0]},{"children":[5],"mesh":0,"name":"Group21531_low","rotation":[0,0,0,1],"scale":[1,1,1],"translation":[0,0,0]},{"name":"Default","rotation":[0,0,0,1],"scale":[1,1,1],"translation":[0,0,0]},{"children":[7],"mesh":1,"name":"Group21546_low","rotation":[0,0,0,1],"scale":[1,1,1],"translation":[0,0,0]},{"name":"Default 1","rotation":[0,0,0,1],"scale":[1,1,1],"translation":[0,0,0]},{"children":[9],"mesh":2,"name":"Group21561_low","rotation":[0,0,0,1],"scale":[1,1,1],"translation":[0,0,0]},{"name":"Default 2","rotation":[0,0,0,1],"scale":[1,1,1],"translation":[0,0,0]},{"children":[11],"mesh":3,"name":"Group21576_low","rotation":[0,0,0,1],"scale":[1,1,1],"translation":[0,0,0]},{"name":"Default 3","rotation":[0,0,0,1],"scale":[1,1,1],"translation":[0,0,0]},{"children":[13],"mesh":4,"name":"Group21591_low","rotation":[0,0,0,1],"scale":[1,1,1],"translation":[0,0,0]},{"name":"Default 4","rotation":[0,0,0,1],"scale":[1,1,1],"translation":[0,0,0]},{"children":[15],"mesh":5,"name":"Group21606_low","rotation":[0,0,0,1],"scale":[1,1,1],"translation":[0,0,0]},{"name":"Default 5","rotation":[0,0,0,1],"scale":[1,1,1],"translation":[0,0,0]},{"name":"Light 1","rotation":[0.0801539793610573,-0.43023043870926,-0.01988348923624,0.898933708667755],"scale":[0.999998509883881,1.00000107288361,1.00000011920929],"translation":[-0.020677536726,-0.00333732157014,0.0174888856709003]},{"name":"Light 2","rotation":[0.162948459386826,0.839442431926727,0.212249398231506,-0.47300568223],"scale":[1.00000023841858,0.999999582767487,0.999999940395355],"translation":[-0.04251895844936,0.0165989063680172,-0.0089915515855]},{"name":"Light 3","rotation":[0.0166319664567709,0.982710123062134,0.147259533405304,-0.11099044233561],"scale":[1,0.999999940395355,1],"translation":[-0.01673254556954,0.0334453471004963,-0.07358156144619]}],"samplers":[{}],"scene":0,"scenes":[{"name":"Root Scene","nodes":[0,1,2,3]}]}