{"accessors":[{"bufferView":0,"byteOffset":0,"componentType":5123,"count":1632,"type":"SCALAR"},{"bufferView":1,"byteOffset":0,"componentType":5126,"count":394,"max":[0.0133735090494156,0.193769887089729,0.0431477762758732],"min":[-0.01337350904942,-0.45542499423027,-0.11277179419994],"type":"VEC3"},{"bufferView":2,"byteOffset":0,"componentType":5126,"count":394,"type":"VEC3"},{"bufferView":3,"byteOffset":0,"componentType":5126,"count":394,"type":"VEC4"},{"bufferView":4,"byteOffset":0,"componentType":5126,"count":394,"type":"VEC2"},{"bufferView":5,"byteOffset":0,"componentType":5123,"count":3774,"type":"SCALAR"},{"bufferView":6,"byteOffset":0,"componentType":5126,"count":922,"max":[0.103465497493744,0.454140990972519,0.0574045069515705],"min":[-0.10346549749374,0.124890498816967,-0.08084207028151],"type":"VEC3"},{"bufferView":7,"byteOffset":0,"componentType":5126,"count":922,"type":"VEC3"},{"bufferView":8,"byteOffset":0,"componentType":5126,"count":922,"type":"VEC4"},{"bufferView":9,"byteOffset":0,"componentType":5126,"count":922,"type":"VEC2"}],"asset":{"generator":"FBX2glTF v0.13.1","version":"2.0"},"bufferViews":[{"buffer":0,"byteLength":3264,"byteOffset":0,"target":34963},{"buffer":0,"byteLength":4728,"byteOffset":3264,"target":34962},{"buffer":0,"byteLength":4728,"byteOffset":7992,"target":34962},{"buffer":0,"byteLength":6304,"byteOffset":12720,"target":34962},{"buffer":0,"byteLength":3152,"byteOffset":19024,"target":34962},{"buffer":0,"byteLength":7548,"byteOffset":22176,"target":34963},{"buffer":0,"byteLength":11064,"byteOffset":29724,"target":34962},{"buffer":0,"byteLength":11064,"byteOffset":40788,"target":34962},{"buffer":0,"byteLength":14752,"byteOffset":51852,"target":34962},{"buffer":0,"byteLength":7376,"byteOffset":66604,"target":34962}],"buffers":[{"byteLength":73980,"uri":"sword_a.bin"}],"materials":[{"alphaMode":"OPAQUE","doubleSided":false,"extras":{"fromFBX":{"isTruePBR":false,"shadingModel":"Phong"}},"name":"Default","pbrMetallicRoughness":{"baseColorFactor":[1,1,1,1],"metallicFactor":0.400000005960464,"roughnessFactor":0.816496610641479}}],"meshes":[{"name":"blade_low","primitives":[{"attributes":{"NORMAL":2,"POSITION":1,"TANGENT":3,"TEXCOORD_0":4},"indices":0,"material":0,"mode":4}]},{"name":"handle_low","primitives":[{"attributes":{"NORMAL":7,"POSITION":6,"TANGENT":8,"TEXCOORD_0":9},"indices":5,"material":0,"mode":4}]}],"nodes":[{"name":"Render","rotation":[0,0,0,1],"scale":[1,1,1],"translation":[0,0,0]},{"name":"Main Camera","rotation":[-0.10511436313391,-0.29672533273697,-0.03288046270609,0.948590517044067],"scale":[1,0.999999940395355,1],"translation":[-0.68885773420334,0.270592480897903,0.965669631958008]},{"name":"Sky","rotation":[0,0,0,1],"scale":[1,1,1],"translation":[0,0,0]},{"children":[4,6],"name":"sword_a","rotation":[0,0,0,1],"scale":[1,1,1],"translation":[0,0,0]},{"children":[5],"mesh":0,"name":"blade_low","rotation":[0,0,0,1],"scale":[1,1,1],"translation":[0,0,0]},{"name":"Default","rotation":[0,0,0,1],"scale":[1,1,1],"translation":[0,0,0]},{"children":[7],"mesh":1,"name":"handle_low","rotation":[0,0,0,1],"scale":[1,1,1],"translation":[0,0,0]},{"name":"Default 1","rotation":[0,0,0,1],"scale":[1,1,1],"translation":[0,0,0]}],"samplers":[{}],"scene":0,"scenes":[{"name":"Root Scene","nodes":[0,1,2,3]}]}