{"accessors":[{"bufferView":0,"byteOffset":0,"componentType":5126,"count":3,"max":[0.0666666701436043],"min":[0],"type":"SCALAR"},{"bufferView":1,"byteOffset":0,"componentType":5123,"count":10350,"type":"SCALAR"},{"bufferView":2,"byteOffset":0,"componentType":5126,"count":2266,"max":[0.0510667748749256,0.180800184607506,0.169082224369049],"min":[-0.05106677487493,-0.09766451269388,0.000000000745058015283462],"type":"VEC3"},{"bufferView":3,"byteOffset":0,"componentType":5126,"count":2266,"type":"VEC3"},{"bufferView":4,"byteOffset":0,"componentType":5126,"count":2266,"type":"VEC4"},{"bufferView":5,"byteOffset":0,"componentType":5126,"count":2266,"type":"VEC2"},{"bufferView":6,"byteOffset":0,"componentType":5123,"count":2266,"type":"VEC4"},{"bufferView":7,"byteOffset":0,"componentType":5126,"count":2266,"type":"VEC4"},{"bufferView":8,"byteOffset":0,"componentType":5126,"count":39,"type":"MAT4"}],"animations":[{"channels":[],"name":"Take 001","samplers":[]}],"asset":{"generator":"FBX2glTF v0.13.1","version":"2.0"},"bufferViews":[{"buffer":0,"byteLength":12,"byteOffset":0},{"buffer":0,"byteLength":20700,"byteOffset":12,"target":34963},{"buffer":0,"byteLength":27192,"byteOffset":20712,"target":34962},{"buffer":0,"byteLength":27192,"byteOffset":47904,"target":34962},{"buffer":0,"byteLength":36256,"byteOffset":75096,"target":34962},{"buffer":0,"byteLength":18128,"byteOffset":111352,"target":34962},{"buffer":0,"byteLength":18128,"byteOffset":129480,"target":34962},{"buffer":0,"byteLength":36256,"byteOffset":147608,"target":34962},{"buffer":0,"byteLength":2496,"byteOffset":183864}],"buffers":[{"byteLength":186360,"uri":"Fox.bin"}],"images":[{"name":"toonfoxNM","uri":"toonfoxNM.png"},{"name":"1","uri":"1.psd"}],"materials":[{"alphaMode":"OPAQUE","doubleSided":false,"extras":{"fromFBX":{"isTruePBR":false,"shadingModel":"Phong"}},"name":"08 - Default","normalTexture":{"index":0,"texCoord":0},"pbrMetallicRoughness":{"baseColorFactor":[1,1,1,1],"baseColorTexture":{"index":1,"texCoord":0},"metallicFactor":0.400000005960464,"roughnessFactor":0.422773718833923}}],"meshes":[{"name":"fox","primitives":[{"attributes":{"JOINTS_0":6,"NORMAL":3,"POSITION":2,"TANGENT":4,"TEXCOORD_0":5,"WEIGHTS_0":7},"indices":1,"material":0,"mode":4}]}],"nodes":[{"mesh":0,"name":"fox","rotation":[-0.70710676908493,-0,0,0.70710676908493],"scale":[1,1,1],"skin":0,"translation":[0,0,0]},{"children":[2],"name":"FoxTransform","rotation":[-0.70710676908493,-0,0,0.70710676908493],"scale":[1,1,1],"translation":[0,0,0]},{"children":[3,9,33,37],"name":"Fox_Pelvis","rotation":[0.5,-0.49999991059303,0.500000059604645,-0.5],"scale":[1,1,1],"translation":[-0.00000000152061,0.0347874164581299,0.0737924724817276]},{"children":[4],"name":"Fox_Tail1","rotation":[0.00000000508426101220039,0.000000106852091619203,0.998488783836365,0.0549554377794266],"scale":[1,1,1],"translation":[-0.01636433787644,-0.00745288375765,0.000000000799576016508041]},{"children":[5],"name":"Fox_Tail2","rotation":[0.000000000106812621247787,0.0000000162612678877849,0.00788808241486549,0.999968886375427],"scale":[1,1,1],"translation":[0.0267343185842037,0.00000000953674295089968,-0]},{"children":[6],"name":"Fox_Tail3","rotation":[-0.00000000012032,-0.00000000664779,0.0395952165126801,0.99921578168869],"scale":[1,1,1],"translation":[0.0208616927266121,-0,-0.00000000000001]},{"children":[7],"name":"Fox_Tail4","rotation":[-0.00000000039102,-0.00000000415248,0.0200172811746597,0.999799609184265],"scale":[1,1,1],"translation":[0.022082157433033,0.00000000000000000888178399847791,0.000000000000126192391497297]},{"children":[8],"name":"Fox_Tail5","rotation":[-0.00000000012719,-0.00000000478392,0.038975790143013,0.999240159988403],"scale":[1,1,1],"translation":[0.0203105062246323,0.00000000476837147544984,-0.0000000000012]},{"name":"Fox_Tail6","rotation":[-0.00000000018867,-0.00000000310279,0.0254029836505651,0.999677300453186],"scale":[1,1,1],"translation":[0.018201932311058,0,0.00000000000330260254907677]},{"children":[10],"name":"Fox_Spine1","rotation":[0.000000196709123656547,0.00000243467115979001,0.0271443966776133,0.999631524085999],"scale":[1,1,1],"translation":[0,0,0]},{"children":[11],"name":"Fox_Spine2","rotation":[-0.00000001844714,-0.0000000675364,-0.05994134023786,0.998201906681061],"scale":[1,1,1],"translation":[0.0335060395300388,0,-0]},{"children":[12,16,29],"name":"Fox_Ribcage","rotation":[0.000000172218165062077,-0.00000238658754,-0.05441000312567,0.998518705368042],"scale":[1,1,1],"translation":[0.0335060358047485,0,0.0000000000000272848404433241]},{"children":[13],"name":"Fox_F_LLeg1","rotation":[0.497888803482056,0.867092192173004,0.0122769391164184,0.0103523917496204],"scale":[1,1,1],"translation":[0.00239977356977761,0.00042314050369896,0.02510816603899]},{"children":[14],"name":"Fox_F_LLeg2","rotation":[0.0754824355244637,-0.02722269482911,0.287082672119141,0.954539060592651],"scale":[1.00000095367432,0.999998986721039,1],"translation":[0.0340102761983871,0.000000420808788703653,0.0000000548362706354055]},{"children":[15],"name":"Fox_F_LLegAnkle","rotation":[-0.04368735477328,0.0478168576955795,0.133989796042442,0.988863825798035],"scale":[1,1,1],"translation":[0.0326986238360405,0,-0]},{"name":"Fox_F_LLegDigit11","rotation":[-0.00000380953088,-0.00000623503729,0.509983837604523,0.860183954238892],"scale":[1,1,1],"translation":[0.0102812070399523,0.00093354220734909,-0.00000029563904]},{"children":[17],"name":"Fox_Spine","rotation":[-0.00000009165608,-0.00000009725699,-0.40316888689995,0.915125608444214],"scale":[1,1,1],"translation":[0,0,0]},{"children":[18,19,21,23,24,25,26,27,28],"name":"Fox_Head","rotation":[0.0000000613979622698935,0.0000000513363360710173,0.23813396692276,0.971232295036316],"scale":[1,1,1],"translation":[0.0369065515697002,0.00000000238418573772492,0]},{"name":"Fox_Jaw","rotation":[0.00000000000000175504284346937,0.00000000000000564237911154417,0.422618210315704,0.906307816505432],"scale":[1,1,1],"translation":[0.0127218533307314,0.0189216379076242,-0.00000000256314]},{"children":[20],"name":"Fox_LEar1","rotation":[0.243951857089996,-0.28880652785301,-0.36316099762917,0.851582288742065],"scale":[1,1,1],"translation":[0.0109870051965117,-0.03008018434048,0.0253106225281954]},{"name":"Fox_LEar2","rotation":[-0.00000015934387,0.000000709710832325072,0.0380166545510292,0.999277114868164],"scale":[1,1,1],"translation":[0.0164626874029636,0.0000000238418564890708,-0.00000000953674]},{"children":[22],"name":"Fox_REar1","rotation":[-0.24395158886909,0.288806438446045,-0.36316174268723,0.851582050323486],"scale":[1,1,1],"translation":[0.010986995883286,-0.03008018434048,-0.0253106225282]},{"name":"Fox_REar2","rotation":[0.0000000252487808438673,-0.00000022271864,0.0380153506994247,0.999277174472809],"scale":[1,1,1],"translation":[0.0164626780897379,-0.00000001430511,-0.00000000715256]},{"name":"Fox_LEye","rotation":[0.690345466136932,0.153045833110809,0.21263100206852,0.674379825592041],"scale":[1,1,1],"translation":[0.0160656068474054,-0.00207386002876,0.0185948740690947]},{"name":"Fox_REye","rotation":[-0.69034546613693,-0.15304586291313,0.212631016969681,0.674379825592041],"scale":[1,1,1],"translation":[0.0160655975341797,-0.0020738649182,-0.01859487220645]},{"name":"Fox_UpperLEyelid","rotation":[0.733772754669189,-0.03472806885839,0.0320372246205807,0.677750051021576],"scale":[1,1,1],"translation":[0.0160655975341797,-0.0020738649182,0.0185948740690947]},{"name":"Fox_LowerLEyelid","rotation":[0.601644039154053,0.334865480661392,0.421275734901428,0.590268015861511],"scale":[1,1,1],"translation":[0.0160655975341797,-0.0020738649182,0.0185948740690947]},{"name":"Fox_UpperREyelid","rotation":[-0.73377275466919,0.0347281135618687,0.0320372059941292,0.677750051021576],"scale":[1,1,1],"translation":[0.0160655882209539,-0.00207386957482,-0.01859487220645]},{"name":"Fox_LowerREyelid","rotation":[-0.60164403915405,-0.33486548066139,0.421275705099106,0.590268015861511],"scale":[1,1,1],"translation":[0.0160655882209539,-0.00207386957482,-0.01859487220645]},{"children":[30],"name":"Fox_F_RLeg1","rotation":[0.497869849205017,0.867103338241577,-0.0121808256954,-0.01044333633035],"scale":[1,1,1],"translation":[0.00239976868033409,0.00042313575977459,-0.02510816603899]},{"children":[31],"name":"Fox_F_RLeg2","rotation":[-0.07536379992962,0.0269183851778507,0.287078201770782,0.954558432102203],"scale":[1.00000405311584,0.999997019767761,1],"translation":[0.0340102761983871,0.000000419616696945013,-0.00000005483627]},{"children":[32],"name":"Fox_F_RLegAnkle","rotation":[0.0436492189764977,-0.04761216789484,0.134019002318382,0.988871455192566],"scale":[0.999997019767761,1.00000298023224,1],"translation":[0.0326986163854599,0.00000000238418573772492,0]},{"name":"Fox_F_RLegDigit11","rotation":[0.00000380954202228168,0.00000623500091023743,0.509983897209167,0.860183954238892],"scale":[1,1,1],"translation":[0.0102812070399523,0.00093354220734909,0.000000288486461386128]},{"children":[34],"name":"Fox_LLeg1","rotation":[0.773289918899536,0.633548438549042,0.00100912875495851,-0.02525996789336],"scale":[1,1,1],"translation":[-0,-0,0.0192754846066236]},{"children":[35],"name":"Fox_LLeg2","rotation":[-0.08061041682959,0.0360021479427814,-0.67626816034317,0.731346130371094],"scale":[1.00000095367432,0.999998986721039,1.00000095367432],"translation":[0.0358892828226089,-0.0000000834465,0.0000000643730118099484]},{"children":[36],"name":"Fox_LLegAnkle","rotation":[0.0714903473854065,-0.06939318031073,0.748556673526764,0.655543029308319],"scale":[1,1,1],"translation":[0.0258319769054651,0.00000000000000000888178399847791,0.00000000238418573772492]},{"name":"Fox_LLegDigit11","rotation":[0.0002686335647013,0.00041083552059717,0.54719752073288,0.837003350257874],"scale":[1,1,1],"translation":[0.0325394868850708,0.00077513215364888,0]},{"children":[38],"name":"Fox_RLeg1","rotation":[0.773283541202545,0.63355016708374,-0.00105258566327,0.0254084970802069],"scale":[1,1,1],"translation":[0,-0.00000000476837,-0.01927548460662]},{"children":[39],"name":"Fox_RLeg2","rotation":[0.080814816057682,-0.03579095751047,-0.67631196975708,0.731293439865112],"scale":[1.00000202655792,0.9999960064888,1.00000095367432],"translation":[0.0358892679214478,-0.0000000834465,-0.00000005960464]},{"children":[40],"name":"Fox_RLegAnkle","rotation":[-0.07148470729589,0.0691418051719666,0.748567342758179,0.655557990074158],"scale":[1.00000500679016,0.999997019767761,0.999998986721039],"translation":[0.0258319769054651,0.00000000238418573772492,0.00000000238418573772492]},{"name":"Fox_RLegDigit11","rotation":[-0.00009100791794,-0.00013921993377,0.547246634960175,0.836971402168274],"scale":[1,1,1],"translation":[0.0325394831597805,0.00077513215364888,0.00000000000000000444089199923895]}],"samplers":[{}],"scene":0,"scenes":[{"name":"Root Scene","nodes":[0,1]}],"skins":[{"inverseBindMatrices":8,"joints":[17,23,2,9,10,25,26,18,19,16,11,12,20,13,33,14,15,34,35,36,3,4,5,6,7,8,24,27,28,21,29,22,30,37,31,32,38,39,40],"skeleton":2},{"joints":[2,3,4,5,6,7,8,9,10,11,12,13,14,15,16,17,18,19,20,21,22,23,24,25,26,27,28,29,30,31,32,33,34,35,36,37,38,39,40]}],"textures":[{"name":"Map #2","sampler":0,"source":0},{"name":"Map #4","sampler":0,"source":1}]}