{"accessors":[{"bufferView":0,"byteOffset":0,"componentType":5123,"count":984,"type":"SCALAR"},{"bufferView":1,"byteOffset":0,"componentType":5126,"count":396,"max":[0.131049856543541,0.1382095515728,0.295239150524139],"min":[-0.15596194565296,-0.13783693313599,0.00049933459376916],"type":"VEC3"},{"bufferView":2,"byteOffset":0,"componentType":5126,"count":396,"type":"VEC3"},{"bufferView":3,"byteOffset":0,"componentType":5126,"count":396,"type":"VEC4"},{"bufferView":4,"byteOffset":0,"componentType":5126,"count":396,"type":"VEC2"},{"bufferView":5,"byteOffset":0,"componentType":5123,"count":984,"type":"SCALAR"},{"bufferView":6,"byteOffset":0,"componentType":5126,"count":396,"max":[0.1210742816329,0.1382095515728,0.295239150524139],"min":[-0.15596194565296,-0.13783693313599,0.00049933459376916],"type":"VEC3"},{"bufferView":7,"byteOffset":0,"componentType":5126,"count":396,"type":"VEC3"},{"bufferView":8,"byteOffset":0,"componentType":5126,"count":396,"type":"VEC4"},{"bufferView":9,"byteOffset":0,"componentType":5126,"count":396,"type":"VEC2"},{"bufferView":10,"byteOffset":0,"componentType":5123,"count":1380,"type":"SCALAR"},{"bufferView":11,"byteOffset":0,"componentType":5126,"count":464,"max":[0.1210742816329,0.13820968568325,0.295239150524139],"min":[-0.15596194565296,-0.13783678412437,0.00049933459376916],"type":"VEC3"},{"bufferView":12,"byteOffset":0,"componentType":5126,"count":464,"type":"VEC3"},{"bufferView":13,"byteOffset":0,"componentType":5126,"count":464,"type":"VEC4"},{"bufferView":14,"byteOffset":0,"componentType":5126,"count":464,"type":"VEC2"}],"asset":{"generator":"FBX2glTF v0.13.1","version":"2.0"},"bufferViews":[{"buffer":0,"byteLength":1968,"byteOffset":0,"target":34963},{"buffer":0,"byteLength":4752,"byteOffset":1968,"target":34962},{"buffer":0,"byteLength":4752,"byteOffset":6720,"target":34962},{"buffer":0,"byteLength":6336,"byteOffset":11472,"target":34962},{"buffer":0,"byteLength":3168,"byteOffset":17808,"target":34962},{"buffer":0,"byteLength":1968,"byteOffset":20976,"target":34963},{"buffer":0,"byteLength":4752,"byteOffset":22944,"target":34962},{"buffer":0,"byteLength":4752,"byteOffset":27696,"target":34962},{"buffer":0,"byteLength":6336,"byteOffset":32448,"target":34962},{"buffer":0,"byteLength":3168,"byteOffset":38784,"target":34962},{"buffer":0,"byteLength":2760,"byteOffset":41952,"target":34963},{"buffer":0,"byteLength":5568,"byteOffset":44712,"target":34962},{"buffer":0,"byteLength":5568,"byteOffset":50280,"target":34962},{"buffer":0,"byteLength":7424,"byteOffset":55848,"target":34962},{"buffer":0,"byteLength":3712,"byteOffset":63272,"target":34962}],"buffers":[{"byteLength":66984,"uri":"Buckets_Rust.bin"}],"images":[{"name":"plane_3_3_DefaultMaterial_AlbedoTransparency","uri":"plane_3_3_DefaultMaterial_AlbedoTransparency.tga"}],"materials":[{"alphaMode":"OPAQUE","doubleSided":false,"extras":{"fromFBX":{"isTruePBR":false,"shadingModel":"Phong"}},"name":"04 - Default","pbrMetallicRoughness":{"baseColorFactor":[1,1,1,1],"baseColorTexture":{"index":0,"texCoord":0},"metallicFactor":0.400000005960464,"roughnessFactor":0.70710676908493}}],"meshes":[{"name":"bucket","primitives":[{"attributes":{"COLOR_0":3,"NORMAL":2,"POSITION":1,"TEXCOORD_0":4},"indices":0,"material":0,"mode":4}]},{"name":"bucket02","primitives":[{"attributes":{"COLOR_0":8,"NORMAL":7,"POSITION":6,"TEXCOORD_0":9},"indices":5,"material":0,"mode":4}]},{"name":"bucket03","primitives":[{"attributes":{"COLOR_0":13,"NORMAL":12,"POSITION":11,"TEXCOORD_0":14},"indices":10,"material":0,"mode":4}]}],"nodes":[{"mesh":0,"name":"bucket","rotation":[-0.70710676908493,-0,0,0.70710676908493],"scale":[10,10,10],"translation":[0,0,0]},{"mesh":1,"name":"bucket02","rotation":[-0.70710676908493,-0,0,0.70710676908493],"scale":[10,10,10],"translation":[0,0,0]},{"mesh":2,"name":"bucket03","rotation":[-0.70710676908493,-0,0,0.70710676908493],"scale":[10,10,10],"translation":[0,0,0]}],"samplers":[{}],"scene":0,"scenes":[{"name":"Root Scene","nodes":[0,1,2]}],"textures":[{"name":"Map #4","sampler":0,"source":0}]}