{"accessors":[{"bufferView":0,"byteOffset":0,"componentType":5123,"count":312,"type":"SCALAR"},{"bufferView":1,"byteOffset":0,"componentType":5126,"count":208,"max":[-0.00959937088192,-0.00004867553434,0.202446267008781],"min":[-0.01748740486801,-0.24766527116299,0.0297905392944813],"type":"VEC3"},{"bufferView":2,"byteOffset":0,"componentType":5126,"count":208,"type":"VEC3"},{"bufferView":3,"byteOffset":0,"componentType":5126,"count":208,"type":"VEC2"},{"bufferView":4,"byteOffset":0,"componentType":5123,"count":156,"type":"SCALAR"},{"bufferView":5,"byteOffset":0,"componentType":5126,"count":104,"max":[-0.00959937088192,-0.00004867553434,0.202446267008781],"min":[-0.01748740486801,-0.24766527116299,0.0297905392944813],"type":"VEC3"},{"bufferView":6,"byteOffset":0,"componentType":5126,"count":104,"type":"VEC3"},{"bufferView":7,"byteOffset":0,"componentType":5126,"count":104,"type":"VEC2"},{"bufferView":8,"byteOffset":0,"componentType":5123,"count":312,"type":"SCALAR"},{"bufferView":9,"byteOffset":0,"componentType":5126,"count":208,"max":[-0.00959937088192,-0.00004867553434,0.202446267008781],"min":[-0.01748740486801,-0.24766527116299,0.0297905392944813],"type":"VEC3"},{"bufferView":10,"byteOffset":0,"componentType":5126,"count":208,"type":"VEC3"},{"bufferView":11,"byteOffset":0,"componentType":5126,"count":208,"type":"VEC2"},{"bufferView":12,"byteOffset":0,"componentType":5123,"count":66,"type":"SCALAR"},{"bufferView":13,"byteOffset":0,"componentType":5126,"count":44,"max":[-0.01535715069622,-0.00383029924706,0.202446267008781],"min":[-0.01748740114272,-0.24529355764389,0.181565955281258],"type":"VEC3"},{"bufferView":14,"byteOffset":0,"componentType":5126,"count":44,"type":"VEC3"},{"bufferView":15,"byteOffset":0,"componentType":5126,"count":44,"type":"VEC2"},{"bufferView":16,"byteOffset":0,"componentType":5123,"count":156,"type":"SCALAR"},{"bufferView":17,"byteOffset":0,"componentType":5126,"count":104,"max":[-0.00959937088192,-0.00004867553434,0.202446267008781],"min":[-0.01748740486801,-0.24766527116299,0.0297905392944813],"type":"VEC3"},{"bufferView":18,"byteOffset":0,"componentType":5126,"count":104,"type":"VEC3"},{"bufferView":19,"byteOffset":0,"componentType":5126,"count":104,"type":"VEC2"}],"asset":{"generator":"FBX2glTF v0.13.1","version":"2.0"},"bufferViews":[{"buffer":0,"byteLength":624,"byteOffset":0,"target":34963},{"buffer":0,"byteLength":2496,"byteOffset":624,"target":34962},{"buffer":0,"byteLength":2496,"byteOffset":3120,"target":34962},{"buffer":0,"byteLength":1664,"byteOffset":5616,"target":34962},{"buffer":0,"byteLength":312,"byteOffset":7280,"target":34963},{"buffer":0,"byteLength":1248,"byteOffset":7592,"target":34962},{"buffer":0,"byteLength":1248,"byteOffset":8840,"target":34962},{"buffer":0,"byteLength":832,"byteOffset":10088,"target":34962},{"buffer":0,"byteLength":624,"byteOffset":10920,"target":34963},{"buffer":0,"byteLength":2496,"byteOffset":11544,"target":34962},{"buffer":0,"byteLength":2496,"byteOffset":14040,"target":34962},{"buffer":0,"byteLength":1664,"byteOffset":16536,"target":34962},{"buffer":0,"byteLength":132,"byteOffset":18200,"target":34963},{"buffer":0,"byteLength":528,"byteOffset":18332,"target":34962},{"buffer":0,"byteLength":528,"byteOffset":18860,"target":34962},{"buffer":0,"byteLength":352,"byteOffset":19388,"target":34962},{"buffer":0,"byteLength":312,"byteOffset":19740,"target":34963},{"buffer":0,"byteLength":1248,"byteOffset":20052,"target":34962},{"buffer":0,"byteLength":1248,"byteOffset":21300,"target":34962},{"buffer":0,"byteLength":832,"byteOffset":22548,"target":34962}],"buffers":[{"byteLength":23380,"uri":"Fense02.bin"}],"images":[{"name":"WoodPlanks","uri":"WoodPlanks.tga"},{"name":"WoodBark","uri":"WoodBark.tga"}],"materials":[{"alphaMode":"OPAQUE","doubleSided":false,"extras":{"fromFBX":{"isTruePBR":false,"shadingModel":"Phong"}},"name":"19 - Default","pbrMetallicRoughness":{"baseColorFactor":[1,1,1,1],"baseColorTexture":{"index":0,"texCoord":0},"metallicFactor":0.400000005960464,"roughnessFactor":0.70710676908493}},{"alphaMode":"OPAQUE","doubleSided":false,"extras":{"fromFBX":{"isTruePBR":false,"shadingModel":"Phong"}},"name":"21 - Default","pbrMetallicRoughness":{"baseColorFactor":[1,1,1,1],"baseColorTexture":{"index":1,"texCoord":0},"metallicFactor":0.400000005960464,"roughnessFactor":0.70710676908493}}],"meshes":[{"name":"Z_02_LOD1","primitives":[{"attributes":{"NORMAL":2,"POSITION":1,"TEXCOORD_0":3},"indices":0,"material":0,"mode":4},{"attributes":{"NORMAL":14,"POSITION":13,"TEXCOORD_0":15},"indices":12,"material":1,"mode":4}]},{"name":"Z_02_LOD02","primitives":[{"attributes":{"NORMAL":6,"POSITION":5,"TEXCOORD_0":7},"indices":4,"material":0,"mode":4}]},{"name":"Z_02Detail","primitives":[{"attributes":{"NORMAL":10,"POSITION":9,"TEXCOORD_0":11},"indices":8,"material":0,"mode":4},{"attributes":{"NORMAL":18,"POSITION":17,"TEXCOORD_0":19},"indices":16,"material":1,"mode":4}]}],"nodes":[{"children":[1,2,3],"name":"Fense02","rotation":[-0.70710676908493,-0,0,0.70710676908493],"scale":[10,10,10],"translation":[0,0,0]},{"mesh":0,"name":"Z_02_LOD1","rotation":[0,0,0,1],"scale":[1,1,1],"translation":[0.0135433953255415,0.123856998980045,-0.11611840873957]},{"mesh":1,"name":"Z_02_LOD02","rotation":[0,0,0,1],"scale":[1,1,1],"translation":[0.0135433953255415,0.123856998980045,-0.11611840873957]},{"mesh":2,"name":"Z_02Detail","rotation":[0,0,0,1],"scale":[1,1,1],"translation":[0.0135433953255415,0.123856998980045,-0.11611840873957]}],"samplers":[{}],"scene":0,"scenes":[{"name":"Root Scene","nodes":[0]}],"textures":[{"name":"Map #15","sampler":0,"source":0},{"name":"Map #19","sampler":0,"source":1}]}