{"accessors":[{"bufferView":0,"byteOffset":0,"componentType":5123,"count":105,"type":"SCALAR"},{"bufferView":1,"byteOffset":0,"componentType":5126,"count":69,"max":[0.0575110726058483,0.238238513469696,2.00030612945557],"min":[-0.03999999165535,-0.23596800863743,-0.00030609927489],"type":"VEC3"},{"bufferView":2,"byteOffset":0,"componentType":5126,"count":69,"type":"VEC3"},{"bufferView":3,"byteOffset":0,"componentType":5126,"count":69,"type":"VEC4"},{"bufferView":4,"byteOffset":0,"componentType":5126,"count":69,"type":"VEC2"},{"bufferView":5,"byteOffset":0,"componentType":5123,"count":183,"type":"SCALAR"},{"bufferView":6,"byteOffset":0,"componentType":5126,"count":121,"max":[0.0575110763311386,0.231209710240364,3.99958205223083],"min":[-0.03999999165535,-0.24299682676792,-0.00030609959504],"type":"VEC3"},{"bufferView":7,"byteOffset":0,"componentType":5126,"count":121,"type":"VEC3"},{"bufferView":8,"byteOffset":0,"componentType":5126,"count":121,"type":"VEC4"},{"bufferView":9,"byteOffset":0,"componentType":5126,"count":121,"type":"VEC2"},{"bufferView":10,"byteOffset":0,"componentType":5123,"count":444,"type":"SCALAR"},{"bufferView":11,"byteOffset":0,"componentType":5126,"count":222,"max":[0.0575110726058483,0.238238513469696,2.00030612945557],"min":[-0.03999999165535,-0.23596800863743,-0.00030609927489],"type":"VEC3"},{"bufferView":12,"byteOffset":0,"componentType":5126,"count":222,"type":"VEC3"},{"bufferView":13,"byteOffset":0,"componentType":5126,"count":222,"type":"VEC4"},{"bufferView":14,"byteOffset":0,"componentType":5126,"count":222,"type":"VEC2"},{"bufferView":15,"byteOffset":0,"componentType":5123,"count":888,"type":"SCALAR"},{"bufferView":16,"byteOffset":0,"componentType":5126,"count":444,"max":[0.0575110763311386,0.231209710240364,3.99958205223083],"min":[-0.03999999165535,-0.24299682676792,-0.00030609959504],"type":"VEC3"},{"bufferView":17,"byteOffset":0,"componentType":5126,"count":444,"type":"VEC3"},{"bufferView":18,"byteOffset":0,"componentType":5126,"count":444,"type":"VEC4"},{"bufferView":19,"byteOffset":0,"componentType":5126,"count":444,"type":"VEC2"},{"bufferView":20,"byteOffset":0,"componentType":5123,"count":33,"type":"SCALAR"},{"bufferView":21,"byteOffset":0,"componentType":5126,"count":27,"max":[0.0400000102818012,0.205389633774757,2.00028562545776],"min":[0.020843168720603,-0.2034056186676,0.77377051115036],"type":"VEC3"},{"bufferView":22,"byteOffset":0,"componentType":5126,"count":27,"type":"VEC3"},{"bufferView":23,"byteOffset":0,"componentType":5126,"count":27,"type":"VEC4"},{"bufferView":24,"byteOffset":0,"componentType":5126,"count":27,"type":"VEC2"},{"bufferView":25,"byteOffset":0,"componentType":5123,"count":66,"type":"SCALAR"},{"bufferView":26,"byteOffset":0,"componentType":5126,"count":54,"max":[0.0400000140070915,0.198360815644264,3.99956178665161],"min":[0.020843168720603,-0.2104344367981,0.77377051115036],"type":"VEC3"},{"bufferView":27,"byteOffset":0,"componentType":5126,"count":54,"type":"VEC3"},{"bufferView":28,"byteOffset":0,"componentType":5126,"count":54,"type":"VEC4"},{"bufferView":29,"byteOffset":0,"componentType":5126,"count":54,"type":"VEC2"}],"asset":{"generator":"FBX2glTF v0.13.1","version":"2.0"},"bufferViews":[{"buffer":0,"byteLength":210,"byteOffset":0,"target":34963},{"buffer":0,"byteLength":828,"byteOffset":212,"target":34962},{"buffer":0,"byteLength":828,"byteOffset":1040,"target":34962},{"buffer":0,"byteLength":1104,"byteOffset":1868,"target":34962},{"buffer":0,"byteLength":552,"byteOffset":2972,"target":34962},{"buffer":0,"byteLength":366,"byteOffset":3524,"target":34963},{"buffer":0,"byteLength":1452,"byteOffset":3892,"target":34962},{"buffer":0,"byteLength":1452,"byteOffset":5344,"target":34962},{"buffer":0,"byteLength":1936,"byteOffset":6796,"target":34962},{"buffer":0,"byteLength":968,"byteOffset":8732,"target":34962},{"buffer":0,"byteLength":888,"byteOffset":9700,"target":34963},{"buffer":0,"byteLength":2664,"byteOffset":10588,"target":34962},{"buffer":0,"byteLength":2664,"byteOffset":13252,"target":34962},{"buffer":0,"byteLength":3552,"byteOffset":15916,"target":34962},{"buffer":0,"byteLength":1776,"byteOffset":19468,"target":34962},{"buffer":0,"byteLength":1776,"byteOffset":21244,"target":34963},{"buffer":0,"byteLength":5328,"byteOffset":23020,"target":34962},{"buffer":0,"byteLength":5328,"byteOffset":28348,"target":34962},{"buffer":0,"byteLength":7104,"byteOffset":33676,"target":34962},{"buffer":0,"byteLength":3552,"byteOffset":40780,"target":34962},{"buffer":0,"byteLength":66,"byteOffset":44332,"target":34963},{"buffer":0,"byteLength":324,"byteOffset":44400,"target":34962},{"buffer":0,"byteLength":324,"byteOffset":44724,"target":34962},{"buffer":0,"byteLength":432,"byteOffset":45048,"target":34962},{"buffer":0,"byteLength":216,"byteOffset":45480,"target":34962},{"buffer":0,"byteLength":132,"byteOffset":45696,"target":34963},{"buffer":0,"byteLength":648,"byteOffset":45828,"target":34962},{"buffer":0,"byteLength":648,"byteOffset":46476,"target":34962},{"buffer":0,"byteLength":864,"byteOffset":47124,"target":34962},{"buffer":0,"byteLength":432,"byteOffset":47988,"target":34962}],"buffers":[{"byteLength":48420,"uri":"ladder.bin"}],"images":[{"name":"plane_3_3_DefaultMaterial_AlbedoTransparency","uri":"plane_3_3_DefaultMaterial_AlbedoTransparency.tga"},{"name":"plane_3_3_DefaultMaterial_AlbedoTransparency 1","uri":"plane_3_3_DefaultMaterial_AlbedoTransparency.tga"},{"name":"plane_3_3_DefaultMaterial_AlbedoTransparency 2","uri":"plane_3_3_DefaultMaterial_AlbedoTransparency.tga"}],"materials":[{"alphaMode":"OPAQUE","doubleSided":false,"extras":{"fromFBX":{"isTruePBR":false,"shadingModel":"Phong"}},"name":"07 - Default","pbrMetallicRoughness":{"baseColorFactor":[1,1,1,1],"baseColorTexture":{"index":0,"texCoord":0},"metallicFactor":0.400000005960464,"roughnessFactor":0.70710676908493}},{"alphaMode":"OPAQUE","doubleSided":false,"extras":{"fromFBX":{"isTruePBR":false,"shadingModel":"Phong"}},"name":"02 - Default","pbrMetallicRoughness":{"baseColorFactor":[1,1,1,1],"baseColorTexture":{"index":1,"texCoord":0},"metallicFactor":0.400000005960464,"roughnessFactor":0.70710676908493}},{"alphaMode":"OPAQUE","doubleSided":false,"extras":{"fromFBX":{"isTruePBR":false,"shadingModel":"Phong"}},"name":"08 - Default","pbrMetallicRoughness":{"baseColorFactor":[1,1,1,1],"baseColorTexture":{"index":2,"texCoord":0},"metallicFactor":0.400000005960464,"roughnessFactor":0.70710676908493}}],"meshes":[{"name":"ladder_01","primitives":[{"attributes":{"COLOR_0":3,"NORMAL":2,"POSITION":1,"TEXCOORD_0":4},"indices":0,"material":0,"mode":4},{"attributes":{"COLOR_0":13,"NORMAL":12,"POSITION":11,"TEXCOORD_0":14},"indices":10,"material":1,"mode":4},{"attributes":{"COLOR_0":23,"NORMAL":22,"POSITION":21,"TEXCOORD_0":24},"indices":20,"material":2,"mode":4}]},{"name":"ladder_02","primitives":[{"attributes":{"COLOR_0":8,"NORMAL":7,"POSITION":6,"TEXCOORD_0":9},"indices":5,"material":0,"mode":4},{"attributes":{"COLOR_0":18,"NORMAL":17,"POSITION":16,"TEXCOORD_0":19},"indices":15,"material":1,"mode":4},{"attributes":{"COLOR_0":28,"NORMAL":27,"POSITION":26,"TEXCOORD_0":29},"indices":25,"material":2,"mode":4}]}],"nodes":[{"mesh":0,"name":"ladder_01","rotation":[-0.70710676908493,-0,0,0.70710676908493],"scale":[10,10,10],"translation":[0,0,0]},{"mesh":1,"name":"ladder_02","rotation":[-0.70710676908493,-0,0,0.70710676908493],"scale":[10,10,10],"translation":[0,0,0]}],"samplers":[{}],"scene":0,"scenes":[{"name":"Root Scene","nodes":[0,1]}],"textures":[{"name":"Map #8","sampler":0,"source":0},{"name":"Map #2","sampler":0,"source":1},{"name":"Map #9","sampler":0,"source":2}]}