{"accessors":[{"bufferView":0,"byteOffset":0,"componentType":5123,"count":78,"type":"SCALAR"},{"bufferView":1,"byteOffset":0,"componentType":5126,"count":28,"max":[0.0311396978795528,0.0311396215111017,0.576610386371613],"min":[-0.03113967739046,-0.03113964013755,0.0228492394089699],"type":"VEC3"},{"bufferView":2,"byteOffset":0,"componentType":5126,"count":28,"type":"VEC3"},{"bufferView":3,"byteOffset":0,"componentType":5126,"count":28,"type":"VEC2"},{"bufferView":4,"byteOffset":0,"componentType":5123,"count":78,"type":"SCALAR"},{"bufferView":5,"byteOffset":0,"componentType":5126,"count":28,"max":[0.0311396978795528,0.0311396215111017,0.576610386371613],"min":[-0.03113967739046,-0.03113964013755,0.0228492394089699],"type":"VEC3"},{"bufferView":6,"byteOffset":0,"componentType":5126,"count":28,"type":"VEC3"},{"bufferView":7,"byteOffset":0,"componentType":5126,"count":28,"type":"VEC2"},{"bufferView":8,"byteOffset":0,"componentType":5123,"count":222,"type":"SCALAR"},{"bufferView":9,"byteOffset":0,"componentType":5126,"count":56,"max":[0.0311396978795528,0.0311396215111017,0.577720761299133],"min":[-0.03113967739046,-0.03113964013755,0.0207470320165157],"type":"VEC3"},{"bufferView":10,"byteOffset":0,"componentType":5126,"count":56,"type":"VEC3"},{"bufferView":11,"byteOffset":0,"componentType":5126,"count":56,"type":"VEC2"},{"bufferView":12,"byteOffset":0,"componentType":5123,"count":222,"type":"SCALAR"},{"bufferView":13,"byteOffset":0,"componentType":5126,"count":56,"max":[0.0311396978795528,0.0311396215111017,0.577720761299133],"min":[-0.03113967739046,-0.03113964013755,0.0207470320165157],"type":"VEC3"},{"bufferView":14,"byteOffset":0,"componentType":5126,"count":56,"type":"VEC3"},{"bufferView":15,"byteOffset":0,"componentType":5126,"count":56,"type":"VEC2"},{"bufferView":16,"byteOffset":0,"componentType":5123,"count":204,"type":"SCALAR"},{"bufferView":17,"byteOffset":0,"componentType":5126,"count":48,"max":[0.0311396773904562,0.0311396401375532,0.505776107311249],"min":[-0.03113969787955,-0.03113964013755,-0.03420976549387],"type":"VEC3"},{"bufferView":18,"byteOffset":0,"componentType":5126,"count":48,"type":"VEC3"},{"bufferView":19,"byteOffset":0,"componentType":5126,"count":48,"type":"VEC2"},{"bufferView":20,"byteOffset":0,"componentType":5123,"count":222,"type":"SCALAR"},{"bufferView":21,"byteOffset":0,"componentType":5126,"count":56,"max":[0.0311396773904562,0.0311396401375532,0.577720761299133],"min":[-0.03113969787955,-0.03113964013755,-0.03420976549387],"type":"VEC3"},{"bufferView":22,"byteOffset":0,"componentType":5126,"count":56,"type":"VEC3"},{"bufferView":23,"byteOffset":0,"componentType":5126,"count":56,"type":"VEC2"},{"bufferView":24,"byteOffset":0,"componentType":5123,"count":72,"type":"SCALAR"},{"bufferView":25,"byteOffset":0,"componentType":5126,"count":26,"max":[0.0311396773904562,0.0311396401375532,0.503876090049744],"min":[-0.03113969787955,-0.03113964013755,-0.03210755437613],"type":"VEC3"},{"bufferView":26,"byteOffset":0,"componentType":5126,"count":26,"type":"VEC3"},{"bufferView":27,"byteOffset":0,"componentType":5126,"count":26,"type":"VEC2"},{"bufferView":28,"byteOffset":0,"componentType":5123,"count":78,"type":"SCALAR"},{"bufferView":29,"byteOffset":0,"componentType":5126,"count":28,"max":[0.0311396773904562,0.0311396401375532,0.576610386371613],"min":[-0.03113969787955,-0.03113964013755,-0.03210755437613],"type":"VEC3"},{"bufferView":30,"byteOffset":0,"componentType":5126,"count":28,"type":"VEC3"},{"bufferView":31,"byteOffset":0,"componentType":5126,"count":28,"type":"VEC2"}],"asset":{"generator":"FBX2glTF v0.13.1","version":"2.0"},"bufferViews":[{"buffer":0,"byteLength":156,"byteOffset":0,"target":34963},{"buffer":0,"byteLength":336,"byteOffset":156,"target":34962},{"buffer":0,"byteLength":336,"byteOffset":492,"target":34962},{"buffer":0,"byteLength":224,"byteOffset":828,"target":34962},{"buffer":0,"byteLength":156,"byteOffset":1052,"target":34963},{"buffer":0,"byteLength":336,"byteOffset":1208,"target":34962},{"buffer":0,"byteLength":336,"byteOffset":1544,"target":34962},{"buffer":0,"byteLength":224,"byteOffset":1880,"target":34962},{"buffer":0,"byteLength":444,"byteOffset":2104,"target":34963},{"buffer":0,"byteLength":672,"byteOffset":2548,"target":34962},{"buffer":0,"byteLength":672,"byteOffset":3220,"target":34962},{"buffer":0,"byteLength":448,"byteOffset":3892,"target":34962},{"buffer":0,"byteLength":444,"byteOffset":4340,"target":34963},{"buffer":0,"byteLength":672,"byteOffset":4784,"target":34962},{"buffer":0,"byteLength":672,"byteOffset":5456,"target":34962},{"buffer":0,"byteLength":448,"byteOffset":6128,"target":34962},{"buffer":0,"byteLength":408,"byteOffset":6576,"target":34963},{"buffer":0,"byteLength":576,"byteOffset":6984,"target":34962},{"buffer":0,"byteLength":576,"byteOffset":7560,"target":34962},{"buffer":0,"byteLength":384,"byteOffset":8136,"target":34962},{"buffer":0,"byteLength":444,"byteOffset":8520,"target":34963},{"buffer":0,"byteLength":672,"byteOffset":8964,"target":34962},{"buffer":0,"byteLength":672,"byteOffset":9636,"target":34962},{"buffer":0,"byteLength":448,"byteOffset":10308,"target":34962},{"buffer":0,"byteLength":144,"byteOffset":10756,"target":34963},{"buffer":0,"byteLength":312,"byteOffset":10900,"target":34962},{"buffer":0,"byteLength":312,"byteOffset":11212,"target":34962},{"buffer":0,"byteLength":208,"byteOffset":11524,"target":34962},{"buffer":0,"byteLength":156,"byteOffset":11732,"target":34963},{"buffer":0,"byteLength":336,"byteOffset":11888,"target":34962},{"buffer":0,"byteLength":336,"byteOffset":12224,"target":34962},{"buffer":0,"byteLength":224,"byteOffset":12560,"target":34962}],"buffers":[{"byteLength":12784,"uri":"Logs.bin"}],"images":[{"name":"WoodCora_Base_Color","uri":"WoodCora_Base_Color.tga"},{"name":"WoodBark_Base_Color","uri":"WoodBark_Base_Color.tga"},{"name":"WoodMix_Base_Color","uri":"WoodMix_Base_Color.tga"}],"materials":[{"alphaMode":"OPAQUE","doubleSided":false,"extras":{"fromFBX":{"isTruePBR":false,"shadingModel":"Phong"}},"name":"23 - Default","pbrMetallicRoughness":{"baseColorFactor":[1,1,1,1],"baseColorTexture":{"index":0,"texCoord":0},"metallicFactor":0.400000005960464,"roughnessFactor":0.70710676908493}},{"alphaMode":"OPAQUE","doubleSided":false,"extras":{"fromFBX":{"isTruePBR":false,"shadingModel":"Phong"}},"name":"21 - Default","pbrMetallicRoughness":{"baseColorFactor":[1,1,1,1],"baseColorTexture":{"index":1,"texCoord":0},"metallicFactor":0.400000005960464,"roughnessFactor":0.70710676908493}},{"alphaMode":"OPAQUE","doubleSided":false,"extras":{"fromFBX":{"isTruePBR":false,"shadingModel":"Phong"}},"name":"22 - Default","pbrMetallicRoughness":{"baseColorFactor":[1,1,1,1],"baseColorTexture":{"index":2,"texCoord":0},"metallicFactor":0.400000005960464,"roughnessFactor":0.70710676908493}}],"meshes":[{"name":"log03","primitives":[{"attributes":{"NORMAL":2,"POSITION":1,"TEXCOORD_0":3},"indices":0,"material":0,"mode":4},{"attributes":{"NORMAL":10,"POSITION":9,"TEXCOORD_0":11},"indices":8,"material":1,"mode":4}]},{"name":"log04","primitives":[{"attributes":{"NORMAL":6,"POSITION":5,"TEXCOORD_0":7},"indices":4,"material":0,"mode":4},{"attributes":{"NORMAL":14,"POSITION":13,"TEXCOORD_0":15},"indices":12,"material":1,"mode":4}]},{"name":"log01","primitives":[{"attributes":{"NORMAL":18,"POSITION":17,"TEXCOORD_0":19},"indices":16,"material":1,"mode":4},{"attributes":{"NORMAL":26,"POSITION":25,"TEXCOORD_0":27},"indices":24,"material":2,"mode":4}]},{"name":"log02","primitives":[{"attributes":{"NORMAL":22,"POSITION":21,"TEXCOORD_0":23},"indices":20,"material":1,"mode":4},{"attributes":{"NORMAL":30,"POSITION":29,"TEXCOORD_0":31},"indices":28,"material":2,"mode":4}]}],"nodes":[{"children":[1,2,3,4],"name":"Logs","rotation":[-0.70710676908493,-0,0,0.70710676908493],"scale":[10,10,10],"translation":[-6.81707763671875,0.179376125335693,5.26963424682617]},{"mesh":0,"name":"log03","rotation":[0.579227983951569,0.405579775571823,-0.40557980537415,0.579227924346924],"scale":[1.00859415531158,1.00859415531158,1.00859415531158],"translation":[-0.02658279426396,0.299940168857574,-0.00000001907349]},{"mesh":1,"name":"log04","rotation":[-0.15304590761661,0.690345525741577,-0.69034552574158,-0.153045758605],"scale":[0.732284784317017,0.732284784317017,0.805782914161682],"translation":[-0.09673964977264,0.237700030207634,-0.00000001907349]},{"mesh":2,"name":"log01","rotation":[0.70710676908493,0,0,0.70710676908493],"scale":[0.888276994228363,0.888276994228363,0.888276994228363],"translation":[0.0917954966425896,0.252357870340347,-0.00000001907349]},{"mesh":3,"name":"log02","rotation":[0.70710676908493,0,0,0.70710676908493],"scale":[0.888276994228363,0.888276994228363,0.888276994228363],"translation":[0.0326679982244968,0.252357870340347,-0.00000001907349]}],"samplers":[{}],"scene":0,"scenes":[{"name":"Root Scene","nodes":[0]}],"textures":[{"name":"Map #21","sampler":0,"source":0},{"name":"Map #19","sampler":0,"source":1},{"name":"Map #20","sampler":0,"source":2}]}