{"accessors":[{"bufferView":0,"byteOffset":0,"componentType":5123,"count":192,"type":"SCALAR"},{"bufferView":1,"byteOffset":0,"componentType":5126,"count":128,"max":[0.37098440527916,0.25377494096756,0.0987606793642044],"min":[-0.35767710208893,-0.25620192289352,0],"type":"VEC3"},{"bufferView":2,"byteOffset":0,"componentType":5126,"count":128,"type":"VEC3"},{"bufferView":3,"byteOffset":0,"componentType":5126,"count":128,"type":"VEC4"},{"bufferView":4,"byteOffset":0,"componentType":5126,"count":128,"type":"VEC2"},{"bufferView":5,"byteOffset":0,"componentType":5123,"count":378,"type":"SCALAR"},{"bufferView":6,"byteOffset":0,"componentType":5126,"count":252,"max":[0.37098440527916,0.255359679460526,0.0969844534993172],"min":[-0.35767713189125,-0.26225498318672,0.00033770501613616],"type":"VEC3"},{"bufferView":7,"byteOffset":0,"componentType":5126,"count":252,"type":"VEC3"},{"bufferView":8,"byteOffset":0,"componentType":5126,"count":252,"type":"VEC4"},{"bufferView":9,"byteOffset":0,"componentType":5126,"count":252,"type":"VEC2"},{"bufferView":10,"byteOffset":0,"componentType":5123,"count":354,"type":"SCALAR"},{"bufferView":11,"byteOffset":0,"componentType":5126,"count":174,"max":[0.169357374310493,0.283989161252975,0.098760686814785],"min":[-0.35974353551865,-0.25620192289352,0],"type":"VEC3"},{"bufferView":12,"byteOffset":0,"componentType":5126,"count":174,"type":"VEC3"},{"bufferView":13,"byteOffset":0,"componentType":5126,"count":174,"type":"VEC4"},{"bufferView":14,"byteOffset":0,"componentType":5126,"count":174,"type":"VEC2"},{"bufferView":15,"byteOffset":0,"componentType":5123,"count":336,"type":"SCALAR"},{"bufferView":16,"byteOffset":0,"componentType":5126,"count":160,"max":[0.0483984351158142,0.25377494096756,0.119679540395737],"min":[-0.2467787861824,-0.25620192289352,0],"type":"VEC3"},{"bufferView":17,"byteOffset":0,"componentType":5126,"count":160,"type":"VEC3"},{"bufferView":18,"byteOffset":0,"componentType":5126,"count":160,"type":"VEC4"},{"bufferView":19,"byteOffset":0,"componentType":5126,"count":160,"type":"VEC2"},{"bufferView":20,"byteOffset":0,"componentType":5123,"count":1902,"type":"SCALAR"},{"bufferView":21,"byteOffset":0,"componentType":5126,"count":1268,"max":[0.550846457481384,0.286739349365234,0.706069111824036],"min":[-0.40399599075317,-0.30204313993454,-0.00159881589934],"type":"VEC3"},{"bufferView":22,"byteOffset":0,"componentType":5126,"count":1268,"type":"VEC3"},{"bufferView":23,"byteOffset":0,"componentType":5126,"count":1268,"type":"VEC4"},{"bufferView":24,"byteOffset":0,"componentType":5126,"count":1268,"type":"VEC2"},{"bufferView":25,"byteOffset":0,"componentType":5123,"count":96,"type":"SCALAR"},{"bufferView":26,"byteOffset":0,"componentType":5126,"count":64,"max":[0.37098440527916,0.25377494096756,0.0987606793642044],"min":[-0.35767710208893,-0.25620192289352,0],"type":"VEC3"},{"bufferView":27,"byteOffset":0,"componentType":5126,"count":64,"type":"VEC3"},{"bufferView":28,"byteOffset":0,"componentType":5126,"count":64,"type":"VEC4"},{"bufferView":29,"byteOffset":0,"componentType":5126,"count":64,"type":"VEC2"},{"bufferView":30,"byteOffset":0,"componentType":5123,"count":162,"type":"SCALAR"},{"bufferView":31,"byteOffset":0,"componentType":5126,"count":108,"max":[0.37098440527916,0.255359679460526,0.0969844534993172],"min":[-0.35767713189125,-0.26225498318672,0.00033770501613616],"type":"VEC3"},{"bufferView":32,"byteOffset":0,"componentType":5126,"count":108,"type":"VEC3"},{"bufferView":33,"byteOffset":0,"componentType":5126,"count":108,"type":"VEC4"},{"bufferView":34,"byteOffset":0,"componentType":5126,"count":108,"type":"VEC2"},{"bufferView":35,"byteOffset":0,"componentType":5123,"count":270,"type":"SCALAR"},{"bufferView":36,"byteOffset":0,"componentType":5126,"count":180,"max":[0.169357374310493,0.283989161252975,0.098760686814785],"min":[-0.35974353551865,-0.25620192289352,0],"type":"VEC3"},{"bufferView":37,"byteOffset":0,"componentType":5126,"count":180,"type":"VEC3"},{"bufferView":38,"byteOffset":0,"componentType":5126,"count":180,"type":"VEC4"},{"bufferView":39,"byteOffset":0,"componentType":5126,"count":180,"type":"VEC2"},{"bufferView":40,"byteOffset":0,"componentType":5123,"count":264,"type":"SCALAR"},{"bufferView":41,"byteOffset":0,"componentType":5126,"count":176,"max":[0.0483984351158142,0.25377494096756,0.119679540395737],"min":[-0.2467787861824,-0.25620192289352,0],"type":"VEC3"},{"bufferView":42,"byteOffset":0,"componentType":5126,"count":176,"type":"VEC3"},{"bufferView":43,"byteOffset":0,"componentType":5126,"count":176,"type":"VEC4"},{"bufferView":44,"byteOffset":0,"componentType":5126,"count":176,"type":"VEC2"},{"bufferView":45,"byteOffset":0,"componentType":5123,"count":870,"type":"SCALAR"},{"bufferView":46,"byteOffset":0,"componentType":5126,"count":580,"max":[0.550846457481384,0.286739349365234,0.706069111824036],"min":[-0.40399599075317,-0.30204313993454,-0.00159881589934],"type":"VEC3"},{"bufferView":47,"byteOffset":0,"componentType":5126,"count":580,"type":"VEC3"},{"bufferView":48,"byteOffset":0,"componentType":5126,"count":580,"type":"VEC4"},{"bufferView":49,"byteOffset":0,"componentType":5126,"count":580,"type":"VEC2"}],"asset":{"generator":"FBX2glTF v0.13.1","version":"2.0"},"bufferViews":[{"buffer":0,"byteLength":384,"byteOffset":0,"target":34963},{"buffer":0,"byteLength":1536,"byteOffset":384,"target":34962},{"buffer":0,"byteLength":1536,"byteOffset":1920,"target":34962},{"buffer":0,"byteLength":2048,"byteOffset":3456,"target":34962},{"buffer":0,"byteLength":1024,"byteOffset":5504,"target":34962},{"buffer":0,"byteLength":756,"byteOffset":6528,"target":34963},{"buffer":0,"byteLength":3024,"byteOffset":7284,"target":34962},{"buffer":0,"byteLength":3024,"byteOffset":10308,"target":34962},{"buffer":0,"byteLength":4032,"byteOffset":13332,"target":34962},{"buffer":0,"byteLength":2016,"byteOffset":17364,"target":34962},{"buffer":0,"byteLength":708,"byteOffset":19380,"target":34963},{"buffer":0,"byteLength":2088,"byteOffset":20088,"target":34962},{"buffer":0,"byteLength":2088,"byteOffset":22176,"target":34962},{"buffer":0,"byteLength":2784,"byteOffset":24264,"target":34962},{"buffer":0,"byteLength":1392,"byteOffset":27048,"target":34962},{"buffer":0,"byteLength":672,"byteOffset":28440,"target":34963},{"buffer":0,"byteLength":1920,"byteOffset":29112,"target":34962},{"buffer":0,"byteLength":1920,"byteOffset":31032,"target":34962},{"buffer":0,"byteLength":2560,"byteOffset":32952,"target":34962},{"buffer":0,"byteLength":1280,"byteOffset":35512,"target":34962},{"buffer":0,"byteLength":3804,"byteOffset":36792,"target":34963},{"buffer":0,"byteLength":15216,"byteOffset":40596,"target":34962},{"buffer":0,"byteLength":15216,"byteOffset":55812,"target":34962},{"buffer":0,"byteLength":20288,"byteOffset":71028,"target":34962},{"buffer":0,"byteLength":10144,"byteOffset":91316,"target":34962},{"buffer":0,"byteLength":192,"byteOffset":101460,"target":34963},{"buffer":0,"byteLength":768,"byteOffset":101652,"target":34962},{"buffer":0,"byteLength":768,"byteOffset":102420,"target":34962},{"buffer":0,"byteLength":1024,"byteOffset":103188,"target":34962},{"buffer":0,"byteLength":512,"byteOffset":104212,"target":34962},{"buffer":0,"byteLength":324,"byteOffset":104724,"target":34963},{"buffer":0,"byteLength":1296,"byteOffset":105048,"target":34962},{"buffer":0,"byteLength":1296,"byteOffset":106344,"target":34962},{"buffer":0,"byteLength":1728,"byteOffset":107640,"target":34962},{"buffer":0,"byteLength":864,"byteOffset":109368,"target":34962},{"buffer":0,"byteLength":540,"byteOffset":110232,"target":34963},{"buffer":0,"byteLength":2160,"byteOffset":110772,"target":34962},{"buffer":0,"byteLength":2160,"byteOffset":112932,"target":34962},{"buffer":0,"byteLength":2880,"byteOffset":115092,"target":34962},{"buffer":0,"byteLength":1440,"byteOffset":117972,"target":34962},{"buffer":0,"byteLength":528,"byteOffset":119412,"target":34963},{"buffer":0,"byteLength":2112,"byteOffset":119940,"target":34962},{"buffer":0,"byteLength":2112,"byteOffset":122052,"target":34962},{"buffer":0,"byteLength":2816,"byteOffset":124164,"target":34962},{"buffer":0,"byteLength":1408,"byteOffset":126980,"target":34962},{"buffer":0,"byteLength":1740,"byteOffset":128388,"target":34963},{"buffer":0,"byteLength":6960,"byteOffset":130128,"target":34962},{"buffer":0,"byteLength":6960,"byteOffset":137088,"target":34962},{"buffer":0,"byteLength":9280,"byteOffset":144048,"target":34962},{"buffer":0,"byteLength":4640,"byteOffset":153328,"target":34962}],"buffers":[{"byteLength":157968,"uri":"Pallets.bin"}],"images":[{"name":"plane_3_3_DefaultMaterial_AlbedoTransparency","uri":"plane_3_3_DefaultMaterial_AlbedoTransparency.tga"},{"name":"plane_3_3_DefaultMaterial_AlbedoTransparency 1","uri":"plane_3_3_DefaultMaterial_AlbedoTransparency.tga"}],"materials":[{"alphaMode":"OPAQUE","doubleSided":false,"extras":{"fromFBX":{"isTruePBR":false,"shadingModel":"Phong"}},"name":"06 - Default","pbrMetallicRoughness":{"baseColorFactor":[1,1,1,1],"baseColorTexture":{"index":0,"texCoord":0},"metallicFactor":0.400000005960464,"roughnessFactor":0.70710676908493}},{"alphaMode":"OPAQUE","doubleSided":false,"extras":{"fromFBX":{"isTruePBR":false,"shadingModel":"Phong"}},"name":"07 - Default","pbrMetallicRoughness":{"baseColorFactor":[1,1,1,1],"baseColorTexture":{"index":1,"texCoord":0},"metallicFactor":0.400000005960464,"roughnessFactor":0.70710676908493}}],"meshes":[{"name":"Pallet_01","primitives":[{"attributes":{"COLOR_0":3,"NORMAL":2,"POSITION":1,"TEXCOORD_0":4},"indices":0,"material":0,"mode":4},{"attributes":{"COLOR_0":28,"NORMAL":27,"POSITION":26,"TEXCOORD_0":29},"indices":25,"material":1,"mode":4}]},{"name":"Pallet_02","primitives":[{"attributes":{"COLOR_0":8,"NORMAL":7,"POSITION":6,"TEXCOORD_0":9},"indices":5,"material":0,"mode":4},{"attributes":{"COLOR_0":33,"NORMAL":32,"POSITION":31,"TEXCOORD_0":34},"indices":30,"material":1,"mode":4}]},{"name":"Pallet_03","primitives":[{"attributes":{"COLOR_0":13,"NORMAL":12,"POSITION":11,"TEXCOORD_0":14},"indices":10,"material":0,"mode":4},{"attributes":{"COLOR_0":38,"NORMAL":37,"POSITION":36,"TEXCOORD_0":39},"indices":35,"material":1,"mode":4}]},{"name":"Pallet_04","primitives":[{"attributes":{"COLOR_0":18,"NORMAL":17,"POSITION":16,"TEXCOORD_0":19},"indices":15,"material":0,"mode":4},{"attributes":{"COLOR_0":43,"NORMAL":42,"POSITION":41,"TEXCOORD_0":44},"indices":40,"material":1,"mode":4}]},{"name":"Pallet_05","primitives":[{"attributes":{"COLOR_0":23,"NORMAL":22,"POSITION":21,"TEXCOORD_0":24},"indices":20,"material":0,"mode":4},{"attributes":{"COLOR_0":48,"NORMAL":47,"POSITION":46,"TEXCOORD_0":49},"indices":45,"material":1,"mode":4}]}],"nodes":[{"mesh":0,"name":"Pallet_01","rotation":[-0.70710676908493,-0,0,0.70710676908493],"scale":[13.1927499771118,13.1927499771118,13.1927499771118],"translation":[0,0,0]},{"mesh":1,"name":"Pallet_02","rotation":[-0.70710676908493,-0,0,0.70710676908493],"scale":[13.1927499771118,13.1927499771118,13.1927499771118],"translation":[0,0,0]},{"mesh":2,"name":"Pallet_03","rotation":[-0.70710676908493,-0,0,0.70710676908493],"scale":[13.1927499771118,13.1927499771118,13.1927499771118],"translation":[0,0,0]},{"mesh":3,"name":"Pallet_04","rotation":[-0.70501309633255,-0.05437410995364,0.0543741099536419,0.70501309633255],"scale":[13.1927499771118,13.1927499771118,13.1927499771118],"translation":[0,0,0]},{"mesh":4,"name":"Pallet_05","rotation":[-0.70710676908493,-0,0,0.70710676908493],"scale":[13.1927499771118,13.1927499771118,13.1927499771118],"translation":[0,0,0]}],"samplers":[{}],"scene":0,"scenes":[{"name":"Root Scene","nodes":[0,1,2,3,4]}],"textures":[{"name":"Map #7","sampler":0,"source":0},{"name":"Map #8","sampler":0,"source":1}]}