{"accessors":[{"bufferView":0,"byteOffset":0,"componentType":5123,"count":72,"type":"SCALAR"},{"bufferView":1,"byteOffset":0,"componentType":5126,"count":26,"max":[0.0249999985098839,0.0249999985098839,0.0649999976158142],"min":[-0.02499999850988,-0.02499999850988,0],"type":"VEC3"},{"bufferView":2,"byteOffset":0,"componentType":5126,"count":26,"type":"VEC3"},{"bufferView":3,"byteOffset":0,"componentType":5126,"count":26,"type":"VEC2"},{"bufferView":4,"byteOffset":0,"componentType":5123,"count":36,"type":"SCALAR"},{"bufferView":5,"byteOffset":0,"componentType":5126,"count":14,"max":[0.0249999985098839,0.0216506365686655,0.0649999976158142],"min":[-0.02499999850988,-0.0216506421566,0],"type":"VEC3"},{"bufferView":6,"byteOffset":0,"componentType":5126,"count":14,"type":"VEC3"},{"bufferView":7,"byteOffset":0,"componentType":5126,"count":14,"type":"VEC2"},{"bufferView":8,"byteOffset":0,"componentType":5123,"count":72,"type":"SCALAR"},{"bufferView":9,"byteOffset":0,"componentType":5126,"count":26,"max":[0.0249999985098839,0.0249999985098839,0.0649999976158142],"min":[-0.02499999850988,-0.02499999850988,0],"type":"VEC3"},{"bufferView":10,"byteOffset":0,"componentType":5126,"count":26,"type":"VEC3"},{"bufferView":11,"byteOffset":0,"componentType":5126,"count":26,"type":"VEC2"},{"bufferView":12,"byteOffset":0,"componentType":5123,"count":60,"type":"SCALAR"},{"bufferView":13,"byteOffset":0,"componentType":5126,"count":24,"max":[0.0249999985098839,0.0249999985098839,0.0649999976158142],"min":[-0.02499999850988,-0.02499999850988,0],"type":"VEC3"},{"bufferView":14,"byteOffset":0,"componentType":5126,"count":24,"type":"VEC3"},{"bufferView":15,"byteOffset":0,"componentType":5126,"count":24,"type":"VEC2"},{"bufferView":16,"byteOffset":0,"componentType":5123,"count":24,"type":"SCALAR"},{"bufferView":17,"byteOffset":0,"componentType":5126,"count":12,"max":[0.0249999985098839,0.0216506365686655,0.0649999976158142],"min":[-0.02499999850988,-0.0216506421566,0],"type":"VEC3"},{"bufferView":18,"byteOffset":0,"componentType":5126,"count":12,"type":"VEC3"},{"bufferView":19,"byteOffset":0,"componentType":5126,"count":12,"type":"VEC2"},{"bufferView":20,"byteOffset":0,"componentType":5123,"count":60,"type":"SCALAR"},{"bufferView":21,"byteOffset":0,"componentType":5126,"count":24,"max":[0.0249999985098839,0.0249999985098839,0.0649999976158142],"min":[-0.02499999850988,-0.02499999850988,0],"type":"VEC3"},{"bufferView":22,"byteOffset":0,"componentType":5126,"count":24,"type":"VEC3"},{"bufferView":23,"byteOffset":0,"componentType":5126,"count":24,"type":"VEC2"},{"bufferView":24,"byteOffset":0,"componentType":5123,"count":72,"type":"SCALAR"},{"bufferView":25,"byteOffset":0,"componentType":5126,"count":26,"max":[0.0259999986737967,0.0259999986737967,0.063841849565506],"min":[-0.0259999986738,-0.0259999986738,0.00096515176119282],"type":"VEC3"},{"bufferView":26,"byteOffset":0,"componentType":5126,"count":26,"type":"VEC3"},{"bufferView":27,"byteOffset":0,"componentType":5126,"count":26,"type":"VEC2"},{"bufferView":28,"byteOffset":0,"componentType":5123,"count":36,"type":"SCALAR"},{"bufferView":29,"byteOffset":0,"componentType":5126,"count":14,"max":[0.0259999986737967,0.0225166603922844,0.063841849565506],"min":[-0.0259999986738,-0.02251666784287,0.00096515176119282],"type":"VEC3"},{"bufferView":30,"byteOffset":0,"componentType":5126,"count":14,"type":"VEC3"},{"bufferView":31,"byteOffset":0,"componentType":5126,"count":14,"type":"VEC2"},{"bufferView":32,"byteOffset":0,"componentType":5123,"count":216,"type":"SCALAR"},{"bufferView":33,"byteOffset":0,"componentType":5126,"count":122,"max":[0.0259999986737967,0.0259999986737967,0.063841849565506],"min":[-0.0259999986738,-0.0259999986738,0.00096515176119282],"type":"VEC3"},{"bufferView":34,"byteOffset":0,"componentType":5126,"count":122,"type":"VEC3"},{"bufferView":35,"byteOffset":0,"componentType":5126,"count":122,"type":"VEC2"}],"asset":{"generator":"FBX2glTF v0.13.1","version":"2.0"},"bufferViews":[{"buffer":0,"byteLength":144,"byteOffset":0,"target":34963},{"buffer":0,"byteLength":312,"byteOffset":144,"target":34962},{"buffer":0,"byteLength":312,"byteOffset":456,"target":34962},{"buffer":0,"byteLength":208,"byteOffset":768,"target":34962},{"buffer":0,"byteLength":72,"byteOffset":976,"target":34963},{"buffer":0,"byteLength":168,"byteOffset":1048,"target":34962},{"buffer":0,"byteLength":168,"byteOffset":1216,"target":34962},{"buffer":0,"byteLength":112,"byteOffset":1384,"target":34962},{"buffer":0,"byteLength":144,"byteOffset":1496,"target":34963},{"buffer":0,"byteLength":312,"byteOffset":1640,"target":34962},{"buffer":0,"byteLength":312,"byteOffset":1952,"target":34962},{"buffer":0,"byteLength":208,"byteOffset":2264,"target":34962},{"buffer":0,"byteLength":120,"byteOffset":2472,"target":34963},{"buffer":0,"byteLength":288,"byteOffset":2592,"target":34962},{"buffer":0,"byteLength":288,"byteOffset":2880,"target":34962},{"buffer":0,"byteLength":192,"byteOffset":3168,"target":34962},{"buffer":0,"byteLength":48,"byteOffset":3360,"target":34963},{"buffer":0,"byteLength":144,"byteOffset":3408,"target":34962},{"buffer":0,"byteLength":144,"byteOffset":3552,"target":34962},{"buffer":0,"byteLength":96,"byteOffset":3696,"target":34962},{"buffer":0,"byteLength":120,"byteOffset":3792,"target":34963},{"buffer":0,"byteLength":288,"byteOffset":3912,"target":34962},{"buffer":0,"byteLength":288,"byteOffset":4200,"target":34962},{"buffer":0,"byteLength":192,"byteOffset":4488,"target":34962},{"buffer":0,"byteLength":144,"byteOffset":4680,"target":34963},{"buffer":0,"byteLength":312,"byteOffset":4824,"target":34962},{"buffer":0,"byteLength":312,"byteOffset":5136,"target":34962},{"buffer":0,"byteLength":208,"byteOffset":5448,"target":34962},{"buffer":0,"byteLength":72,"byteOffset":5656,"target":34963},{"buffer":0,"byteLength":168,"byteOffset":5728,"target":34962},{"buffer":0,"byteLength":168,"byteOffset":5896,"target":34962},{"buffer":0,"byteLength":112,"byteOffset":6064,"target":34962},{"buffer":0,"byteLength":432,"byteOffset":6176,"target":34963},{"buffer":0,"byteLength":1464,"byteOffset":6608,"target":34962},{"buffer":0,"byteLength":1464,"byteOffset":8072,"target":34962},{"buffer":0,"byteLength":976,"byteOffset":9536,"target":34962}],"buffers":[{"byteLength":10512,"uri":"Trunk01.bin"}],"images":[{"name":"Wood04","uri":"Wood04.tga"},{"name":"WoodBark","uri":"WoodBark.tga"},{"name":"WoodCora","uri":"WoodCora.tga"}],"materials":[{"alphaMode":"OPAQUE","doubleSided":false,"extras":{"fromFBX":{"isTruePBR":false,"shadingModel":"Phong"}},"name":"22 - Default","pbrMetallicRoughness":{"baseColorFactor":[1,1,1,1],"baseColorTexture":{"index":0,"texCoord":0},"metallicFactor":0.400000005960464,"roughnessFactor":0.70710676908493}},{"alphaMode":"OPAQUE","doubleSided":false,"extras":{"fromFBX":{"isTruePBR":false,"shadingModel":"Phong"}},"name":"21 - Default","pbrMetallicRoughness":{"baseColorFactor":[1,1,1,1],"baseColorTexture":{"index":1,"texCoord":0},"metallicFactor":0.400000005960464,"roughnessFactor":0.70710676908493}},{"alphaMode":"OPAQUE","doubleSided":false,"extras":{"fromFBX":{"isTruePBR":false,"shadingModel":"Phong"}},"name":"23 - Default","pbrMetallicRoughness":{"baseColorFactor":[1,1,1,1],"baseColorTexture":{"index":2,"texCoord":0},"metallicFactor":0.400000005960464,"roughnessFactor":0.70710676908493}}],"meshes":[{"name":"Trunk01_Lod01","primitives":[{"attributes":{"NORMAL":2,"POSITION":1,"TEXCOORD_0":3},"indices":0,"material":0,"mode":4},{"attributes":{"NORMAL":14,"POSITION":13,"TEXCOORD_0":15},"indices":12,"material":1,"mode":4},{"attributes":{"NORMAL":26,"POSITION":25,"TEXCOORD_0":27},"indices":24,"material":2,"mode":4}]},{"name":"Trunk01_Lod02","primitives":[{"attributes":{"NORMAL":6,"POSITION":5,"TEXCOORD_0":7},"indices":4,"material":0,"mode":4},{"attributes":{"NORMAL":18,"POSITION":17,"TEXCOORD_0":19},"indices":16,"material":1,"mode":4},{"attributes":{"NORMAL":30,"POSITION":29,"TEXCOORD_0":31},"indices":28,"material":2,"mode":4}]},{"name":"Trunk_Lod0","primitives":[{"attributes":{"NORMAL":10,"POSITION":9,"TEXCOORD_0":11},"indices":8,"material":0,"mode":4},{"attributes":{"NORMAL":22,"POSITION":21,"TEXCOORD_0":23},"indices":20,"material":1,"mode":4},{"attributes":{"NORMAL":34,"POSITION":33,"TEXCOORD_0":35},"indices":32,"material":2,"mode":4}]}],"nodes":[{"children":[1,2,3],"name":"Trunk01","rotation":[-0.70710676908493,-0,0,0.70710676908493],"scale":[10,10,10],"translation":[0,0,0]},{"mesh":0,"name":"Trunk01_Lod01","rotation":[0,0,0,1],"scale":[1,1,1],"translation":[0,0,-0.03249999880791]},{"mesh":1,"name":"Trunk01_Lod02","rotation":[0,0,0,1],"scale":[1,1,1],"translation":[0,0,-0.03249999880791]},{"mesh":2,"name":"Trunk_Lod0","rotation":[0,0,0,1],"scale":[1,1,1],"translation":[0,0,-0.03249999880791]}],"samplers":[{}],"scene":0,"scenes":[{"name":"Root Scene","nodes":[0]}],"textures":[{"name":"Map #20","sampler":0,"source":0},{"name":"Map #19","sampler":0,"source":1},{"name":"Map #21","sampler":0,"source":2}]}