{"accessors":[{"bufferView":0,"byteOffset":0,"componentType":5123,"count":864,"type":"SCALAR"},{"bufferView":1,"byteOffset":0,"componentType":5126,"count":243,"max":[0.00827148463577032,0.0338452123105526,0.00266063679009676],"min":[-0.00827148463577,-0.00706840492785,-0.01491714455187],"type":"VEC3"},{"bufferView":2,"byteOffset":0,"componentType":5126,"count":243,"type":"VEC3"},{"bufferView":3,"byteOffset":0,"componentType":5126,"count":243,"type":"VEC2"}],"asset":{"generator":"FBX2glTF v0.13.1","version":"2.0"},"bufferViews":[{"buffer":0,"byteLength":1728,"byteOffset":0,"target":34963},{"buffer":0,"byteLength":2916,"byteOffset":1728,"target":34962},{"buffer":0,"byteLength":2916,"byteOffset":4644,"target":34962},{"buffer":0,"byteLength":1944,"byteOffset":7560,"target":34962}],"buffers":[{"byteLength":9504,"uri":"PA_DropPod.bin"}],"images":[{"name":"swarmDroppodNorm","uri":"swarmDroppodNorm.png"},{"name":"swarmDroppodLightmap","uri":"swarmDroppodLightmap.png"},{"name":"swarmDroppodDiff","uri":"swarmDroppodDiff.png"}],"materials":[{"alphaMode":"OPAQUE","doubleSided":false,"emissiveFactor":[1,1,1],"emissiveTexture":{"index":1,"texCoord":0},"extras":{"fromFBX":{"isTruePBR":false,"shadingModel":"Phong"}},"name":"PA_DropPodMat","normalTexture":{"index":0,"texCoord":0},"pbrMetallicRoughness":{"baseColorFactor":[0.800000011920929,0.800000011920929,0.800000011920929,1],"baseColorTexture":{"index":2,"texCoord":0},"metallicFactor":0.400000005960464,"roughnessFactor":0.301511347293854}}],"meshes":[{"name":"PA_DropPod","primitives":[{"attributes":{"NORMAL":2,"POSITION":1,"TEXCOORD_0":3},"indices":0,"material":0,"mode":4}]}],"nodes":[{"children":[1],"name":"PA_DropPod","rotation":[0,0,0,1],"scale":[1,1,1],"translation":[0,0,0]},{"mesh":0,"name":"PA_DropPod 1","rotation":[0,0,0,1],"scale":[1,1,1],"translation":[0,0,0]}],"samplers":[{}],"scene":0,"scenes":[{"name":"Root Scene","nodes":[0]}],"textures":[{"name":"swarmArchStrikeDropPod_file2","sampler":0,"source":0},{"name":"swarmArchStrikeDropPod_file3","sampler":0,"source":1},{"name":"swarmArchStrikeDropPod_file1","sampler":0,"source":2}]}