{"accessors":[{"bufferView":0,"byteOffset":0,"componentType":5126,"count":37,"max":[1.20000004768372],"min":[0],"type":"SCALAR"},{"bufferView":1,"byteOffset":0,"componentType":5126,"count":37,"type":"VEC3"},{"bufferView":2,"byteOffset":0,"componentType":5126,"count":37,"type":"VEC3"},{"bufferView":3,"byteOffset":0,"componentType":5126,"count":37,"type":"VEC4"},{"bufferView":4,"byteOffset":0,"componentType":5126,"count":37,"type":"VEC3"},{"bufferView":5,"byteOffset":0,"componentType":5126,"count":37,"type":"VEC4"},{"bufferView":6,"byteOffset":0,"componentType":5126,"count":37,"type":"VEC3"},{"bufferView":7,"byteOffset":0,"componentType":5126,"count":37,"type":"VEC4"},{"bufferView":8,"byteOffset":0,"componentType":5126,"count":37,"type":"VEC3"},{"bufferView":9,"byteOffset":0,"componentType":5126,"count":37,"type":"VEC4"},{"bufferView":10,"byteOffset":0,"componentType":5126,"count":37,"type":"VEC3"},{"bufferView":11,"byteOffset":0,"componentType":5126,"count":37,"type":"VEC4"},{"bufferView":12,"byteOffset":0,"componentType":5126,"count":37,"type":"VEC3"},{"bufferView":13,"byteOffset":0,"componentType":5126,"count":37,"type":"VEC4"},{"bufferView":14,"byteOffset":0,"componentType":5126,"count":37,"type":"VEC3"},{"bufferView":15,"byteOffset":0,"componentType":5126,"count":37,"type":"VEC4"},{"bufferView":16,"byteOffset":0,"componentType":5126,"count":37,"type":"VEC4"},{"bufferView":17,"byteOffset":0,"componentType":5126,"count":37,"type":"VEC4"},{"bufferView":18,"byteOffset":0,"componentType":5126,"count":37,"type":"VEC4"},{"bufferView":19,"byteOffset":0,"componentType":5126,"count":37,"type":"VEC4"},{"bufferView":20,"byteOffset":0,"componentType":5126,"count":37,"type":"VEC4"},{"bufferView":21,"byteOffset":0,"componentType":5126,"count":37,"type":"VEC4"},{"bufferView":22,"byteOffset":0,"componentType":5126,"count":37,"type":"VEC4"},{"bufferView":23,"byteOffset":0,"componentType":5126,"count":37,"type":"VEC4"},{"bufferView":24,"byteOffset":0,"componentType":5126,"count":37,"type":"VEC4"},{"bufferView":25,"byteOffset":0,"componentType":5126,"count":37,"type":"VEC3"},{"bufferView":26,"byteOffset":0,"componentType":5126,"count":37,"type":"VEC4"},{"bufferView":27,"byteOffset":0,"componentType":5126,"count":37,"type":"VEC3"},{"bufferView":28,"byteOffset":0,"componentType":5126,"count":37,"type":"VEC4"},{"bufferView":29,"byteOffset":0,"componentType":5126,"count":37,"type":"VEC3"},{"bufferView":30,"byteOffset":0,"componentType":5126,"count":37,"type":"VEC4"},{"bufferView":31,"byteOffset":0,"componentType":5126,"count":37,"type":"VEC3"},{"bufferView":32,"byteOffset":0,"componentType":5126,"count":37,"type":"VEC4"},{"bufferView":33,"byteOffset":0,"componentType":5126,"count":37,"type":"VEC4"},{"bufferView":34,"byteOffset":0,"componentType":5126,"count":37,"type":"VEC4"},{"bufferView":35,"byteOffset":0,"componentType":5126,"count":37,"type":"VEC4"},{"bufferView":36,"byteOffset":0,"componentType":5126,"count":37,"type":"VEC4"},{"bufferView":37,"byteOffset":0,"componentType":5126,"count":37,"type":"VEC4"},{"bufferView":38,"byteOffset":0,"componentType":5126,"count":37,"type":"VEC4"},{"bufferView":39,"byteOffset":0,"componentType":5126,"count":37,"type":"VEC4"},{"bufferView":40,"byteOffset":0,"componentType":5126,"count":37,"type":"VEC4"},{"bufferView":41,"byteOffset":0,"componentType":5126,"count":37,"type":"VEC4"},{"bufferView":42,"byteOffset":0,"componentType":5126,"count":37,"type":"VEC4"},{"bufferView":43,"byteOffset":0,"componentType":5126,"count":37,"type":"VEC4"},{"bufferView":44,"byteOffset":0,"componentType":5126,"count":37,"type":"VEC4"},{"bufferView":45,"byteOffset":0,"componentType":5126,"count":37,"type":"VEC4"},{"bufferView":46,"byteOffset":0,"componentType":5126,"count":37,"type":"VEC4"},{"bufferView":47,"byteOffset":0,"componentType":5123,"count":10350,"type":"SCALAR"},{"bufferView":48,"byteOffset":0,"componentType":5126,"count":2266,"max":[0.0510667748749256,0.181155368685722,0.169082224369049],"min":[-0.05106677487493,-0.09766451269388,0.000000000745058015283462],"type":"VEC3"},{"bufferView":49,"byteOffset":0,"componentType":5126,"count":2266,"type":"VEC3"},{"bufferView":50,"byteOffset":0,"componentType":5126,"count":2266,"type":"VEC4"},{"bufferView":51,"byteOffset":0,"componentType":5126,"count":2266,"type":"VEC2"},{"bufferView":52,"byteOffset":0,"componentType":5123,"count":2266,"type":"VEC4"},{"bufferView":53,"byteOffset":0,"componentType":5126,"count":2266,"type":"VEC4"},{"bufferView":54,"byteOffset":0,"componentType":5126,"count":39,"type":"MAT4"}],"animations":[{"channels":[{"sampler":0,"target":{"node":1,"path":"translation"}},{"sampler":1,"target":{"node":2,"path":"translation"}},{"sampler":2,"target":{"node":2,"path":"rotation"}},{"sampler":3,"target":{"node":3,"path":"translation"}},{"sampler":4,"target":{"node":3,"path":"rotation"}},{"sampler":5,"target":{"node":4,"path":"translation"}},{"sampler":6,"target":{"node":4,"path":"rotation"}},{"sampler":7,"target":{"node":5,"path":"translation"}},{"sampler":8,"target":{"node":5,"path":"rotation"}},{"sampler":9,"target":{"node":6,"path":"translation"}},{"sampler":10,"target":{"node":6,"path":"rotation"}},{"sampler":11,"target":{"node":7,"path":"translation"}},{"sampler":12,"target":{"node":7,"path":"rotation"}},{"sampler":13,"target":{"node":8,"path":"translation"}},{"sampler":14,"target":{"node":8,"path":"rotation"}},{"sampler":15,"target":{"node":9,"path":"rotation"}},{"sampler":16,"target":{"node":11,"path":"rotation"}},{"sampler":17,"target":{"node":12,"path":"rotation"}},{"sampler":18,"target":{"node":13,"path":"rotation"}},{"sampler":19,"target":{"node":14,"path":"rotation"}},{"sampler":20,"target":{"node":15,"path":"rotation"}},{"sampler":21,"target":{"node":16,"path":"rotation"}},{"sampler":22,"target":{"node":17,"path":"rotation"}},{"sampler":23,"target":{"node":18,"path":"rotation"}},{"sampler":24,"target":{"node":19,"path":"translation"}},{"sampler":25,"target":{"node":19,"path":"rotation"}},{"sampler":26,"target":{"node":20,"path":"translation"}},{"sampler":27,"target":{"node":20,"path":"rotation"}},{"sampler":28,"target":{"node":21,"path":"translation"}},{"sampler":29,"target":{"node":21,"path":"rotation"}},{"sampler":30,"target":{"node":22,"path":"translation"}},{"sampler":31,"target":{"node":22,"path":"rotation"}},{"sampler":32,"target":{"node":25,"path":"rotation"}},{"sampler":33,"target":{"node":27,"path":"rotation"}},{"sampler":34,"target":{"node":29,"path":"rotation"}},{"sampler":35,"target":{"node":30,"path":"rotation"}},{"sampler":36,"target":{"node":31,"path":"rotation"}},{"sampler":37,"target":{"node":32,"path":"rotation"}},{"sampler":38,"target":{"node":33,"path":"rotation"}},{"sampler":39,"target":{"node":34,"path":"rotation"}},{"sampler":40,"target":{"node":35,"path":"rotation"}},{"sampler":41,"target":{"node":36,"path":"rotation"}},{"sampler":42,"target":{"node":37,"path":"rotation"}},{"sampler":43,"target":{"node":38,"path":"rotation"}},{"sampler":44,"target":{"node":39,"path":"rotation"}},{"sampler":45,"target":{"node":40,"path":"rotation"}}],"name":"Take 001","samplers":[{"input":0,"interpolation":"LINEAR","output":1},{"input":0,"interpolation":"LINEAR","output":2},{"input":0,"interpolation":"LINEAR","output":3},{"input":0,"interpolation":"LINEAR","output":4},{"input":0,"interpolation":"LINEAR","output":5},{"input":0,"interpolation":"LINEAR","output":6},{"input":0,"interpolation":"LINEAR","output":7},{"input":0,"interpolation":"LINEAR","output":8},{"input":0,"interpolation":"LINEAR","output":9},{"input":0,"interpolation":"LINEAR","output":10},{"input":0,"interpolation":"LINEAR","output":11},{"input":0,"interpolation":"LINEAR","output":12},{"input":0,"interpolation":"LINEAR","output":13},{"input":0,"interpolation":"LINEAR","output":14},{"input":0,"interpolation":"LINEAR","output":15},{"input":0,"interpolation":"LINEAR","output":16},{"input":0,"interpolation":"LINEAR","output":17},{"input":0,"interpolation":"LINEAR","output":18},{"input":0,"interpolation":"LINEAR","output":19},{"input":0,"interpolation":"LINEAR","output":20},{"input":0,"interpolation":"LINEAR","output":21},{"input":0,"interpolation":"LINEAR","output":22},{"input":0,"interpolation":"LINEAR","output":23},{"input":0,"interpolation":"LINEAR","output":24},{"input":0,"interpolation":"LINEAR","output":25},{"input":0,"interpolation":"LINEAR","output":26},{"input":0,"interpolation":"LINEAR","output":27},{"input":0,"interpolation":"LINEAR","output":28},{"input":0,"interpolation":"LINEAR","output":29},{"input":0,"interpolation":"LINEAR","output":30},{"input":0,"interpolation":"LINEAR","output":31},{"input":0,"interpolation":"LINEAR","output":32},{"input":0,"interpolation":"LINEAR","output":33},{"input":0,"interpolation":"LINEAR","output":34},{"input":0,"interpolation":"LINEAR","output":35},{"input":0,"interpolation":"LINEAR","output":36},{"input":0,"interpolation":"LINEAR","output":37},{"input":0,"interpolation":"LINEAR","output":38},{"input":0,"interpolation":"LINEAR","output":39},{"input":0,"interpolation":"LINEAR","output":40},{"input":0,"interpolation":"LINEAR","output":41},{"input":0,"interpolation":"LINEAR","output":42},{"input":0,"interpolation":"LINEAR","output":43},{"input":0,"interpolation":"LINEAR","output":44},{"input":0,"interpolation":"LINEAR","output":45},{"input":0,"interpolation":"LINEAR","output":46}]}],"asset":{"generator":"FBX2glTF v0.13.1","version":"2.0"},"bufferViews":[{"buffer":0,"byteLength":148,"byteOffset":0},{"buffer":0,"byteLength":444,"byteOffset":148},{"buffer":0,"byteLength":444,"byteOffset":592},{"buffer":0,"byteLength":592,"byteOffset":1036},{"buffer":0,"byteLength":444,"byteOffset":1628},{"buffer":0,"byteLength":592,"byteOffset":2072},{"buffer":0,"byteLength":444,"byteOffset":2664},{"buffer":0,"byteLength":592,"byteOffset":3108},{"buffer":0,"byteLength":444,"byteOffset":3700},{"buffer":0,"byteLength":592,"byteOffset":4144},{"buffer":0,"byteLength":444,"byteOffset":4736},{"buffer":0,"byteLength":592,"byteOffset":5180},{"buffer":0,"byteLength":444,"byteOffset":5772},{"buffer":0,"byteLength":592,"byteOffset":6216},{"buffer":0,"byteLength":444,"byteOffset":6808},{"buffer":0,"byteLength":592,"byteOffset":7252},{"buffer":0,"byteLength":592,"byteOffset":7844},{"buffer":0,"byteLength":592,"byteOffset":8436},{"buffer":0,"byteLength":592,"byteOffset":9028},{"buffer":0,"byteLength":592,"byteOffset":9620},{"buffer":0,"byteLength":592,"byteOffset":10212},{"buffer":0,"byteLength":592,"byteOffset":10804},{"buffer":0,"byteLength":592,"byteOffset":11396},{"buffer":0,"byteLength":592,"byteOffset":11988},{"buffer":0,"byteLength":592,"byteOffset":12580},{"buffer":0,"byteLength":444,"byteOffset":13172},{"buffer":0,"byteLength":592,"byteOffset":13616},{"buffer":0,"byteLength":444,"byteOffset":14208},{"buffer":0,"byteLength":592,"byteOffset":14652},{"buffer":0,"byteLength":444,"byteOffset":15244},{"buffer":0,"byteLength":592,"byteOffset":15688},{"buffer":0,"byteLength":444,"byteOffset":16280},{"buffer":0,"byteLength":592,"byteOffset":16724},{"buffer":0,"byteLength":592,"byteOffset":17316},{"buffer":0,"byteLength":592,"byteOffset":17908},{"buffer":0,"byteLength":592,"byteOffset":18500},{"buffer":0,"byteLength":592,"byteOffset":19092},{"buffer":0,"byteLength":592,"byteOffset":19684},{"buffer":0,"byteLength":592,"byteOffset":20276},{"buffer":0,"byteLength":592,"byteOffset":20868},{"buffer":0,"byteLength":592,"byteOffset":21460},{"buffer":0,"byteLength":592,"byteOffset":22052},{"buffer":0,"byteLength":592,"byteOffset":22644},{"buffer":0,"byteLength":592,"byteOffset":23236},{"buffer":0,"byteLength":592,"byteOffset":23828},{"buffer":0,"byteLength":592,"byteOffset":24420},{"buffer":0,"byteLength":592,"byteOffset":25012},{"buffer":0,"byteLength":20700,"byteOffset":25604,"target":34963},{"buffer":0,"byteLength":27192,"byteOffset":46304,"target":34962},{"buffer":0,"byteLength":27192,"byteOffset":73496,"target":34962},{"buffer":0,"byteLength":36256,"byteOffset":100688,"target":34962},{"buffer":0,"byteLength":18128,"byteOffset":136944,"target":34962},{"buffer":0,"byteLength":18128,"byteOffset":155072,"target":34962},{"buffer":0,"byteLength":36256,"byteOffset":173200,"target":34962},{"buffer":0,"byteLength":2496,"byteOffset":209456}],"buffers":[{"byteLength":211952,"uri":"Fox_Jump.bin"}],"images":[{"name":"toonfoxNM","uri":"toonfoxNM.png"},{"name":"1","uri":"1.psd"}],"materials":[{"alphaMode":"OPAQUE","doubleSided":false,"extras":{"fromFBX":{"isTruePBR":false,"shadingModel":"Phong"}},"name":"08 - Default","normalTexture":{"index":0,"texCoord":0},"pbrMetallicRoughness":{"baseColorFactor":[1,1,1,1],"baseColorTexture":{"index":1,"texCoord":0},"metallicFactor":0.400000005960464,"roughnessFactor":0.422773718833923}}],"meshes":[{"name":"fox","primitives":[{"attributes":{"JOINTS_0":52,"NORMAL":49,"POSITION":48,"TANGENT":50,"TEXCOORD_0":51,"WEIGHTS_0":53},"indices":47,"material":0,"mode":4}]}],"nodes":[{"mesh":0,"name":"fox","rotation":[-0.70710676908493,-0,0,0.70710676908493],"scale":[1,1,1],"skin":0,"translation":[0,0,0]},{"children":[2],"name":"FoxTransform","rotation":[-0.70710647106171,0.000000337174952846908,0.000000337174640208104,0.707107126712799],"scale":[1,1,1],"translation":[0,0,0]},{"children":[3,9,33,37],"name":"Fox_Pelvis","rotation":[0.5,-0.50000005960465,0.500000476837158,-0.49999943375588],"scale":[1,1,1],"translation":[0.0000000316553325774294,0.0347875691950321,0.0729598850011826]},{"children":[4],"name":"Fox_Tail1","rotation":[-0.00577905867249,0.0006518819136545,0.992440223693848,0.12259092181921],"scale":[1.00000095367432,1,0.999998986721039],"translation":[-0.01636435464025,-0.00745289772749,0.000000000566482194486184]},{"children":[5],"name":"Fox_Tail2","rotation":[0.0000655651820125058,-0.00116366171278,-0.12134154140949,0.992610156536102],"scale":[0.999998986721039,0.999998986721039,0.999998986721039],"translation":[0.0267343372106552,0.0000000190734859017994,0.0000000000745058043039037]},{"children":[6],"name":"Fox_Tail3","rotation":[0.00643740920349956,0.00772614125162363,-0.13572126626968,0.990696012973785],"scale":[1.00000202655792,1.00000095367432,0.999998986721039],"translation":[0.020861653611064,-0.00000000953674,-0.00000000247732]},{"children":[7],"name":"Fox_Tail4","rotation":[0.0025556234177202,-0.01614068634808,-0.06213599443436,0.997933924198151],"scale":[1,1.00000095367432,1],"translation":[0.0220821239054203,-0.00000002861023,-0.00000000342727]},{"children":[8],"name":"Fox_Tail5","rotation":[-0.00893811136484,-0.00288292346522,0.0571780167520046,0.998319804668427],"scale":[0.999998986721039,1.00000095367432,0.999998986721039],"translation":[0.0203104708343744,-0.00000001907349,-0.00000000968575]},{"name":"Fox_Tail6","rotation":[0.00485027441754937,-0.0032463723328,0.148889511823654,0.988836586475372],"scale":[1,1.00000202655792,0.999997973442078],"translation":[0.0182018559426069,-0.00000005722046,-0.00000002153218]},{"children":[10],"name":"Fox_Spine1","rotation":[0.000000187007103136239,0.00000240187887357024,0.0344132669270039,0.999407708644867],"scale":[1,1,1],"translation":[0,0,0]},{"children":[11],"name":"Fox_Spine2","rotation":[0.0000000220199929401588,0.00000000803899791179674,-0.05994131788611,0.998201906681061],"scale":[1,1,1],"translation":[0.0335060320794582,-0,0]},{"children":[12,16,29],"name":"Fox_Ribcage","rotation":[0.000000170697688872679,-0.00000243323439,-0.0616700835526,0.998096585273743],"scale":[1,1,1],"translation":[0.0335060358047485,0.00000000000000000888178399847791,0.0000000000000181898936288828]},{"children":[13],"name":"Fox_F_LLeg1","rotation":[0.517693638801575,0.855384588241577,0.00822766404598951,0.0155819524079561],"scale":[1.00000095367432,0.999998986721039,1],"translation":[0.00239977356977761,0.00042315004975535,0.0251081697642803]},{"children":[14],"name":"Fox_F_LLeg2","rotation":[0.073338158428669,-0.03453749790788,0.364118874073029,0.927817940711975],"scale":[1.00000095367432,1,1.00000095367432],"translation":[0.0340102799236774,0.000000410079934454188,0.0000000619888282926695]},{"children":[15],"name":"Fox_F_LLegAnkle","rotation":[-0.0368007235229,0.056499607861042,0.0287663396447897,0.997309386730194],"scale":[1,1,1],"translation":[0.0326986275613308,0,0]},{"name":"Fox_F_LLegDigit11","rotation":[-0.00003273388938,-0.00005501061605,0.510400950908661,0.859936535358429],"scale":[1,1,1],"translation":[0.01028120983392,0.00093354459386318,-0.00000029563904]},{"children":[17],"name":"Fox_Spine","rotation":[0.00024350236344616,-0.0110564911738,-0.4031246304512,0.915078282356262],"scale":[1,1,1],"translation":[0,0,0]},{"children":[18,19,21,23,24,25,26,27,28],"name":"Fox_Head","rotation":[0.0129320425912738,-0.00490706972778,0.237964764237404,0.971175312995911],"scale":[1,1,1],"translation":[0.0369065552949905,-0.00000000476837,0.000000000149011608607807]},{"name":"Fox_Jaw","rotation":[-0.00188640935812,-0.00024831091287,0.342058509588242,0.939676702022552],"scale":[1.00000095367432,1,1],"translation":[0.0127219390124083,0.0189216509461403,0.00000000000000000055511149990487]},{"children":[20],"name":"Fox_LEar1","rotation":[0.235490426421165,-0.29575949907303,-0.33745646476746,0.862086832523346],"scale":[1.00000202655792,1,0.999998986721039],"translation":[0.0109870145097375,-0.03008013218641,0.0253105778247118]},{"name":"Fox_LEar2","rotation":[0.00117650581523776,0.00606966018676758,0.0951125770807266,0.995447337627411],"scale":[0.999985992908478,1.00001299381256,1.00000095367432],"translation":[0.0164625644683838,0.0000000238418564890708,0.00000042676924749685]},{"children":[22],"name":"Fox_REar1","rotation":[-0.26050102710724,0.28480127453804,-0.38539892435074,0.838149845600128],"scale":[0.999997973442078,1.00000095367432,1.00000202655792],"translation":[0.0109869288280606,-0.03008019924164,-0.02531066350639]},{"name":"Fox_REar2","rotation":[-0.01766806095839,0.00234525045379996,-0.01774990186095,0.999683618545532],"scale":[1.00001096725464,0.999997019767761,0.999993979930878],"translation":[0.0164626687765121,0.0000000596046447753906,0.000000274181360282455]},{"name":"Fox_LEye","rotation":[0.690345585346222,0.153045848011971,0.212630987167358,0.674379706382751],"scale":[1,1.00000095367432,1],"translation":[0.0160656552761793,-0.00207386957482,0.0185949541628361]},{"name":"Fox_REye","rotation":[-0.69034564495087,-0.15304587781429,0.212630927562714,0.674379706382751],"scale":[1,1.00000095367432,1],"translation":[0.0160656552761793,-0.0020738649182,-0.01859495788813]},{"name":"Fox_UpperLEyelid","rotation":[0.733772814273834,-0.03472805395722,0.0320371687412262,0.677749991416931],"scale":[1,1.00000095367432,1],"translation":[0.0160656552761793,-0.00207385537215,0.0185949541628361]},{"name":"Fox_LowerLEyelid","rotation":[0.619447231292725,0.308799505233765,0.39463147521019,0.604312837123871],"scale":[1.00000095367432,1.00000095367432,1],"translation":[0.0160656552761793,-0.00207385537215,0.0185949541628361]},{"name":"Fox_UpperREyelid","rotation":[-0.73377275466919,0.0347280763089657,0.0320372395217419,0.677750051021576],"scale":[1,1.00000095367432,1],"translation":[0.0160656552761793,-0.0020738649182,-0.01859495788813]},{"name":"Fox_LowerREyelid","rotation":[-0.61944717168808,-0.30879971385002,0.394631326198578,0.604312896728516],"scale":[1.00000095367432,1,1],"translation":[0.0160656552761793,-0.0020738649182,-0.01859495788813]},{"children":[30],"name":"Fox_F_RLeg1","rotation":[0.423270046710968,0.905908644199371,-0.01228008978069,-0.00460722576827],"scale":[1,1,1],"translation":[0.0023997591342777,0.00042314527672715,-0.02510815858841]},{"children":[31],"name":"Fox_F_RLeg2","rotation":[-0.07481067627668,0.0296875592321157,0.31298816204071,0.946340560913086],"scale":[1.00000095367432,1,1],"translation":[0.0340102724730968,0.000000427961339255489,-0.0000000500679]},{"children":[32],"name":"Fox_F_RLegAnkle","rotation":[0.0426704101264477,-0.05218976736069,0.190442562103271,0.979380965232849],"scale":[1,1,1],"translation":[0.0326986201107502,0.00000000119209286886246,0.00000000238418573772492]},{"name":"Fox_F_RLegDigit11","rotation":[0.00000254595079240971,0.00000433842023994657,0.509835541248322,0.86027193069458],"scale":[1.00000095367432,0.999998986721039,1],"translation":[0.0102812070399523,0.00093354220734909,0.000000293254856842395]},{"children":[34],"name":"Fox_LLeg1","rotation":[0.702393114566803,0.711647152900696,-0.01052685081959,0.00956075731664896],"scale":[1.00000095367432,0.999998986721039,1],"translation":[0.00000000238418573772492,0.00000000953674295089968,0.0192754846066236]},{"children":[35],"name":"Fox_LLeg2","rotation":[-0.0830057784915,0.0346696935594082,-0.65248590707779,0.752442836761475],"scale":[1,1,1],"translation":[0.0358892604708672,-0.00000008821488,0.0000000667572024326546]},{"children":[36],"name":"Fox_LLegAnkle","rotation":[0.0706618651747704,-0.03216068074107,0.727415978908539,0.681790769100189],"scale":[0.999997019767761,1.00000298023224,1],"translation":[0.0258319824934006,-0.00000000238419,-0]},{"name":"Fox_LLegDigit11","rotation":[0.00026233424432575,0.00043436838313937,0.635803520679474,0.771850764751434],"scale":[0.999997019767761,1.00000095367432,1],"translation":[0.0325394682586193,0.00077512738062068,0.00000000238418573772492]},{"children":[38],"name":"Fox_RLeg1","rotation":[0.892945528030396,0.449941545724869,0.00611220858991146,-0.01278751716018],"scale":[1.00000095367432,0.999998986721039,1],"translation":[-0.00000000238419,0,-0.01927549764514]},{"children":[39],"name":"Fox_RLeg2","rotation":[0.0685696601867676,-0.04146239906549,-0.77891349792481,0.621991038322449],"scale":[1.00000500679016,0.999994993209839,1.00000095367432],"translation":[0.0358892939984798,-0.00000008583068,-0.00000007033348]},{"children":[40],"name":"Fox_RLegAnkle","rotation":[-0.06999332457781,0.0128799928352237,0.623661577701569,0.778447985649109],"scale":[1.0000079870224,0.9999920129776,1],"translation":[0.0258319806307554,0,0.00000000000000000444089199923895]},{"name":"Fox_RLegDigit11","rotation":[-0.00015268292918,-0.00030121501186,0.635803163051605,0.771851181983948],"scale":[1.00000298023224,0.999993026256561,1],"translation":[0.0325394719839096,0.00077512738062068,0]}],"samplers":[{}],"scene":0,"scenes":[{"name":"Root Scene","nodes":[0,1]}],"skins":[{"inverseBindMatrices":54,"joints":[17,23,2,9,10,25,26,18,19,16,11,12,20,13,33,14,15,34,35,36,3,4,5,6,7,8,24,27,28,21,29,22,30,37,31,32,38,39,40],"skeleton":2},{"joints":[2,3,4,5,6,7,8,9,10,11,12,13,14,15,16,17,18,19,20,21,22,23,24,25,26,27,28,29,30,31,32,33,34,35,36,37,38,39,40]}],"textures":[{"name":"Map #2","sampler":0,"source":0},{"name":"Map #4","sampler":0,"source":1}]}