{"accessors":[{"bufferView":0,"byteOffset":0,"componentType":5126,"count":31,"max":[1],"min":[0],"type":"SCALAR"},{"bufferView":1,"byteOffset":0,"componentType":5126,"count":31,"type":"VEC3"},{"bufferView":2,"byteOffset":0,"componentType":5126,"count":31,"type":"VEC4"},{"bufferView":3,"byteOffset":0,"componentType":5126,"count":31,"type":"VEC4"},{"bufferView":4,"byteOffset":0,"componentType":5126,"count":31,"type":"VEC4"},{"bufferView":5,"byteOffset":0,"componentType":5126,"count":31,"type":"VEC4"},{"bufferView":6,"byteOffset":0,"componentType":5126,"count":31,"type":"VEC4"},{"bufferView":7,"byteOffset":0,"componentType":5126,"count":31,"type":"VEC4"},{"bufferView":8,"byteOffset":0,"componentType":5126,"count":31,"type":"VEC4"},{"bufferView":9,"byteOffset":0,"componentType":5126,"count":31,"type":"VEC4"},{"bufferView":10,"byteOffset":0,"componentType":5126,"count":31,"type":"VEC4"},{"bufferView":11,"byteOffset":0,"componentType":5126,"count":31,"type":"VEC4"},{"bufferView":12,"byteOffset":0,"componentType":5126,"count":31,"type":"VEC4"},{"bufferView":13,"byteOffset":0,"componentType":5126,"count":31,"type":"VEC4"},{"bufferView":14,"byteOffset":0,"componentType":5126,"count":31,"type":"VEC3"},{"bufferView":15,"byteOffset":0,"componentType":5126,"count":31,"type":"VEC4"},{"bufferView":16,"byteOffset":0,"componentType":5126,"count":31,"type":"VEC3"},{"bufferView":17,"byteOffset":0,"componentType":5126,"count":31,"type":"VEC4"},{"bufferView":18,"byteOffset":0,"componentType":5126,"count":31,"type":"VEC4"},{"bufferView":19,"byteOffset":0,"componentType":5126,"count":31,"type":"VEC4"},{"bufferView":20,"byteOffset":0,"componentType":5126,"count":31,"type":"VEC4"},{"bufferView":21,"byteOffset":0,"componentType":5126,"count":31,"type":"VEC4"},{"bufferView":22,"byteOffset":0,"componentType":5126,"count":31,"type":"VEC4"},{"bufferView":23,"byteOffset":0,"componentType":5126,"count":31,"type":"VEC4"},{"bufferView":24,"byteOffset":0,"componentType":5126,"count":31,"type":"VEC4"},{"bufferView":25,"byteOffset":0,"componentType":5126,"count":31,"type":"VEC4"},{"bufferView":26,"byteOffset":0,"componentType":5126,"count":31,"type":"VEC4"},{"bufferView":27,"byteOffset":0,"componentType":5126,"count":31,"type":"VEC4"},{"bufferView":28,"byteOffset":0,"componentType":5126,"count":31,"type":"VEC4"},{"bufferView":29,"byteOffset":0,"componentType":5126,"count":31,"type":"VEC4"},{"bufferView":30,"byteOffset":0,"componentType":5126,"count":31,"type":"VEC4"},{"bufferView":31,"byteOffset":0,"componentType":5126,"count":31,"type":"VEC4"},{"bufferView":32,"byteOffset":0,"componentType":5126,"count":31,"type":"VEC4"},{"bufferView":33,"byteOffset":0,"componentType":5126,"count":31,"type":"VEC4"},{"bufferView":34,"byteOffset":0,"componentType":5126,"count":31,"type":"VEC4"},{"bufferView":35,"byteOffset":0,"componentType":5126,"count":31,"type":"VEC4"},{"bufferView":36,"byteOffset":0,"componentType":5123,"count":10350,"type":"SCALAR"},{"bufferView":37,"byteOffset":0,"componentType":5126,"count":2266,"max":[0.0510667748749256,0.181155368685722,0.169082224369049],"min":[-0.05106677487493,-0.09766451269388,0.000000000745058015283462],"type":"VEC3"},{"bufferView":38,"byteOffset":0,"componentType":5126,"count":2266,"type":"VEC3"},{"bufferView":39,"byteOffset":0,"componentType":5126,"count":2266,"type":"VEC4"},{"bufferView":40,"byteOffset":0,"componentType":5126,"count":2266,"type":"VEC2"},{"bufferView":41,"byteOffset":0,"componentType":5123,"count":2266,"type":"VEC4"},{"bufferView":42,"byteOffset":0,"componentType":5126,"count":2266,"type":"VEC4"},{"bufferView":43,"byteOffset":0,"componentType":5126,"count":38,"type":"MAT4"}],"animations":[{"channels":[{"sampler":0,"target":{"node":2,"path":"translation"}},{"sampler":1,"target":{"node":2,"path":"rotation"}},{"sampler":2,"target":{"node":3,"path":"rotation"}},{"sampler":3,"target":{"node":4,"path":"rotation"}},{"sampler":4,"target":{"node":5,"path":"rotation"}},{"sampler":5,"target":{"node":6,"path":"rotation"}},{"sampler":6,"target":{"node":7,"path":"rotation"}},{"sampler":7,"target":{"node":8,"path":"rotation"}},{"sampler":8,"target":{"node":9,"path":"rotation"}},{"sampler":9,"target":{"node":10,"path":"rotation"}},{"sampler":10,"target":{"node":11,"path":"rotation"}},{"sampler":11,"target":{"node":12,"path":"rotation"}},{"sampler":12,"target":{"node":13,"path":"rotation"}},{"sampler":13,"target":{"node":14,"path":"translation"}},{"sampler":14,"target":{"node":14,"path":"rotation"}},{"sampler":15,"target":{"node":15,"path":"translation"}},{"sampler":16,"target":{"node":15,"path":"rotation"}},{"sampler":17,"target":{"node":16,"path":"rotation"}},{"sampler":18,"target":{"node":17,"path":"rotation"}},{"sampler":19,"target":{"node":19,"path":"rotation"}},{"sampler":20,"target":{"node":20,"path":"rotation"}},{"sampler":21,"target":{"node":21,"path":"rotation"}},{"sampler":22,"target":{"node":22,"path":"rotation"}},{"sampler":23,"target":{"node":29,"path":"rotation"}},{"sampler":24,"target":{"node":30,"path":"rotation"}},{"sampler":25,"target":{"node":31,"path":"rotation"}},{"sampler":26,"target":{"node":32,"path":"rotation"}},{"sampler":27,"target":{"node":33,"path":"rotation"}},{"sampler":28,"target":{"node":34,"path":"rotation"}},{"sampler":29,"target":{"node":35,"path":"rotation"}},{"sampler":30,"target":{"node":36,"path":"rotation"}},{"sampler":31,"target":{"node":37,"path":"rotation"}},{"sampler":32,"target":{"node":38,"path":"rotation"}},{"sampler":33,"target":{"node":39,"path":"rotation"}},{"sampler":34,"target":{"node":40,"path":"rotation"}}],"name":"Take 001","samplers":[{"input":0,"interpolation":"LINEAR","output":1},{"input":0,"interpolation":"LINEAR","output":2},{"input":0,"interpolation":"LINEAR","output":3},{"input":0,"interpolation":"LINEAR","output":4},{"input":0,"interpolation":"LINEAR","output":5},{"input":0,"interpolation":"LINEAR","output":6},{"input":0,"interpolation":"LINEAR","output":7},{"input":0,"interpolation":"LINEAR","output":8},{"input":0,"interpolation":"LINEAR","output":9},{"input":0,"interpolation":"LINEAR","output":10},{"input":0,"interpolation":"LINEAR","output":11},{"input":0,"interpolation":"LINEAR","output":12},{"input":0,"interpolation":"LINEAR","output":13},{"input":0,"interpolation":"LINEAR","output":14},{"input":0,"interpolation":"LINEAR","output":15},{"input":0,"interpolation":"LINEAR","output":16},{"input":0,"interpolation":"LINEAR","output":17},{"input":0,"interpolation":"LINEAR","output":18},{"input":0,"interpolation":"LINEAR","output":19},{"input":0,"interpolation":"LINEAR","output":20},{"input":0,"interpolation":"LINEAR","output":21},{"input":0,"interpolation":"LINEAR","output":22},{"input":0,"interpolation":"LINEAR","output":23},{"input":0,"interpolation":"LINEAR","output":24},{"input":0,"interpolation":"LINEAR","output":25},{"input":0,"interpolation":"LINEAR","output":26},{"input":0,"interpolation":"LINEAR","output":27},{"input":0,"interpolation":"LINEAR","output":28},{"input":0,"interpolation":"LINEAR","output":29},{"input":0,"interpolation":"LINEAR","output":30},{"input":0,"interpolation":"LINEAR","output":31},{"input":0,"interpolation":"LINEAR","output":32},{"input":0,"interpolation":"LINEAR","output":33},{"input":0,"interpolation":"LINEAR","output":34},{"input":0,"interpolation":"LINEAR","output":35}]}],"asset":{"generator":"FBX2glTF v0.13.1","version":"2.0"},"bufferViews":[{"buffer":0,"byteLength":124,"byteOffset":0},{"buffer":0,"byteLength":372,"byteOffset":124},{"buffer":0,"byteLength":496,"byteOffset":496},{"buffer":0,"byteLength":496,"byteOffset":992},{"buffer":0,"byteLength":496,"byteOffset":1488},{"buffer":0,"byteLength":496,"byteOffset":1984},{"buffer":0,"byteLength":496,"byteOffset":2480},{"buffer":0,"byteLength":496,"byteOffset":2976},{"buffer":0,"byteLength":496,"byteOffset":3472},{"buffer":0,"byteLength":496,"byteOffset":3968},{"buffer":0,"byteLength":496,"byteOffset":4464},{"buffer":0,"byteLength":496,"byteOffset":4960},{"buffer":0,"byteLength":496,"byteOffset":5456},{"buffer":0,"byteLength":496,"byteOffset":5952},{"buffer":0,"byteLength":372,"byteOffset":6448},{"buffer":0,"byteLength":496,"byteOffset":6820},{"buffer":0,"byteLength":372,"byteOffset":7316},{"buffer":0,"byteLength":496,"byteOffset":7688},{"buffer":0,"byteLength":496,"byteOffset":8184},{"buffer":0,"byteLength":496,"byteOffset":8680},{"buffer":0,"byteLength":496,"byteOffset":9176},{"buffer":0,"byteLength":496,"byteOffset":9672},{"buffer":0,"byteLength":496,"byteOffset":10168},{"buffer":0,"byteLength":496,"byteOffset":10664},{"buffer":0,"byteLength":496,"byteOffset":11160},{"buffer":0,"byteLength":496,"byteOffset":11656},{"buffer":0,"byteLength":496,"byteOffset":12152},{"buffer":0,"byteLength":496,"byteOffset":12648},{"buffer":0,"byteLength":496,"byteOffset":13144},{"buffer":0,"byteLength":496,"byteOffset":13640},{"buffer":0,"byteLength":496,"byteOffset":14136},{"buffer":0,"byteLength":496,"byteOffset":14632},{"buffer":0,"byteLength":496,"byteOffset":15128},{"buffer":0,"byteLength":496,"byteOffset":15624},{"buffer":0,"byteLength":496,"byteOffset":16120},{"buffer":0,"byteLength":496,"byteOffset":16616},{"buffer":0,"byteLength":20700,"byteOffset":17112,"target":34963},{"buffer":0,"byteLength":27192,"byteOffset":37812,"target":34962},{"buffer":0,"byteLength":27192,"byteOffset":65004,"target":34962},{"buffer":0,"byteLength":36256,"byteOffset":92196,"target":34962},{"buffer":0,"byteLength":18128,"byteOffset":128452,"target":34962},{"buffer":0,"byteLength":18128,"byteOffset":146580,"target":34962},{"buffer":0,"byteLength":36256,"byteOffset":164708,"target":34962},{"buffer":0,"byteLength":2432,"byteOffset":200964}],"buffers":[{"byteLength":203396,"uri":"Fox_Walk_Left_InPlace.bin"}],"images":[{"name":"1","uri":"1.psd"}],"materials":[{"alphaMode":"OPAQUE","doubleSided":false,"extras":{"fromFBX":{"isTruePBR":true,"shadingModel":"Metallic/Roughness"}},"name":"08 - Default","pbrMetallicRoughness":{"baseColorFactor":[0.443137288093567,0.443137288093567,0.443137288093567,1],"baseColorTexture":{"index":0,"texCoord":0},"metallicFactor":0,"roughnessFactor":0.680000066757202}}],"meshes":[{"name":"fox","primitives":[{"attributes":{"JOINTS_0":41,"NORMAL":38,"POSITION":37,"TANGENT":39,"TEXCOORD_0":40,"WEIGHTS_0":42},"indices":36,"material":0,"mode":4}]}],"nodes":[{"mesh":0,"name":"fox","rotation":[-0.70710676908493,-0,0,0.70710676908493],"scale":[1,1,1],"skin":0,"translation":[0,0,0]},{"children":[2],"name":"FoxTransform","rotation":[-0.70710647106171,0.000000279573839634395,0.00000024866477588148,0.707107126712799],"scale":[1,1,1],"translation":[0,0,0]},{"children":[3,9,33,37],"name":"Fox_Pelvis","rotation":[0.362783253192902,-0.60694980621338,0.606950461864471,-0.36278289556503],"scale":[1,1,1],"translation":[0.0083926934748888,0.0334157757461071,0.0704613849520683]},{"children":[4],"name":"Fox_Tail1","rotation":[0.0115441074594855,-0.00188695651013,0.992719411849976,0.11988028883934],"scale":[1,1,1],"translation":[-0.0163643527776,-0.00745288375765,0.00000000298023206113385]},{"children":[5],"name":"Fox_Tail2","rotation":[-0.00179767073132,0.0257946401834488,-0.10941802710295,0.993659436702728],"scale":[1,1,1],"translation":[0.0267343185842037,0,-0.00000000357628]},{"children":[6],"name":"Fox_Tail3","rotation":[0.00843469053506851,0.0644260421395302,-0.12111879140139,0.990509152412415],"scale":[1,1,1],"translation":[0.0208616890013218,-0.00000000953674,-0.00000000357628]},{"children":[7],"name":"Fox_Tail4","rotation":[0.0104012489318848,0.0194204710423946,-0.06403151899576,0.997704684734344],"scale":[1,1.00000095367432,1],"translation":[0.0220821592956781,0.00000000953674295089968,-0.00000000238419]},{"children":[8],"name":"Fox_Tail5","rotation":[0.00230810116045177,-0.06265105307102,-0.00119852996431,0.998032093048096],"scale":[1,1.00000095367432,1],"translation":[0.020310515537858,0.00000000953674295089968,0.00000000387430176829184]},{"name":"Fox_Tail6","rotation":[0.00430876202881336,-0.12307190150023,0.00934577267616987,0.992344379425049],"scale":[1,1.00000202655792,1],"translation":[0.0182019509375095,0.0000000000000000177635679969558,0.00000000476837147544984]},{"children":[10],"name":"Fox_Spine1","rotation":[-0.01165525987744,-0.09034418314695,0.0285168457776308,0.995433986186981],"scale":[1,1,1],"translation":[0,0,0]},{"children":[11],"name":"Fox_Spine2","rotation":[0.0254490431398153,-0.29088339209557,-0.05536634474993,0.954816102981567],"scale":[1,1,1],"translation":[0.0335060395300388,0,-0.00000000327826]},{"children":[12,16,29],"name":"Fox_Ribcage","rotation":[-0.01170510519296,-0.04655519500375,-0.05547896772623,0.99730521440506],"scale":[1,1,1],"translation":[0.0335060395300388,0.00000000953674295089968,0.00000000059604643443123]},{"children":[13],"name":"Fox_F_LLeg1","rotation":[0.537429332733154,0.840953528881073,0.0316168218851089,0.0544726215302944],"scale":[1,1,1],"translation":[0.00239976868033409,0.00042315004975535,0.0251081753522158]},{"children":[14],"name":"Fox_F_LLeg2","rotation":[0.0716476589441299,-0.0393197722733,0.414548397064209,0.906349897384644],"scale":[1.00000202655792,0.999998986721039,1],"translation":[0.034010287374258,0.000000411272026212828,0.0000000512599918067735]},{"children":[15],"name":"Fox_F_LLegAnkle","rotation":[-0.21165457367897,0.203211680054665,0.0390809811651707,0.955185890197754],"scale":[1.00000095367432,1,1],"translation":[0.0326986312866211,-0.00001595497088,0.000000119209289550781]},{"name":"Fox_F_LLegDigit11","rotation":[-0.00000376012395,-0.00000629994429,0.509984493255615,0.860183596611023],"scale":[1.00000596046448,0.999997973442078,1.00000095367432],"translation":[0.0102801751345396,0.00093199725961312,-0.00000111341478]},{"children":[17],"name":"Fox_Spine","rotation":[-0.00096758460859,-0.06308433413506,-0.38025790452957,0.922726035118103],"scale":[1,1,1],"translation":[0,0,0]},{"children":[18,19,21,23,24,25,26,27,28],"name":"Fox_Head","rotation":[0.189447894692421,-0.15845292806625,0.198018506169319,0.948573052883148],"scale":[1,1,1],"translation":[0.0369065478444099,0.00000000476837147544984,-0.00000000119209]},{"name":"Fox_Jaw","rotation":[0.00000002646363306269,-0.0000000406941,0.342020064592361,0.939692676067352],"scale":[1,1,1],"translation":[0.0127218626439571,0.0189216323196888,-0.00000000953674]},{"children":[20],"name":"Fox_LEar1","rotation":[0.224671691656113,-0.3007307946682,-0.31566700339317,0.871457397937775],"scale":[1.00000095367432,0.999998986721039,1],"translation":[0.0109870145097375,-0.03008017875254,0.0253106188029051]},{"name":"Fox_LEar2","rotation":[-0.00408256007358,0.00279840640723705,0.147549599409103,0.989042282104492],"scale":[0.9999960064888,1.00000298023224,1],"translation":[0.0164626874029636,0.00000000715255721317476,0.00000000000000000888178399847791]},{"children":[22],"name":"Fox_REar1","rotation":[-0.26381969451904,0.275904655456543,-0.40948122739792,0.828613817691803],"scale":[1.00000095367432,0.999998986721039,1],"translation":[0.0109870145097375,-0.03008017875254,-0.0253106225282]},{"name":"Fox_REar2","rotation":[-0.01399016100913,0.00125955033581704,-0.07398146390915,0.997160673141479],"scale":[1.00000202655792,0.999997019767761,1],"translation":[0.0164626874029636,-0.00000000238419,-0.00000000357628]},{"name":"Fox_LEye","rotation":[0.690345466136932,0.153045788407326,0.21263100206852,0.674379885196686],"scale":[1,1,1],"translation":[0.0160656161606312,-0.00207387446426,0.0185948759317398]},{"name":"Fox_REye","rotation":[-0.69034558534622,-0.15304580330849,0.212630927562714,0.674379706382751],"scale":[1,1,1],"translation":[0.0160656068474054,-0.00207387446426,-0.01859488151968]},{"name":"Fox_UpperLEyelid","rotation":[0.733772754669189,-0.03472799807787,0.0320371463894844,0.677750051021576],"scale":[1,1,1],"translation":[0.0160656161606312,-0.00207387912087,0.0185948740690947]},{"name":"Fox_LowerLEyelid","rotation":[0.619447112083435,0.308799654245377,0.394631415605545,0.604312896728516],"scale":[1,1,1],"translation":[0.0160656161606312,-0.00207387912087,0.0185948740690947]},{"name":"Fox_UpperREyelid","rotation":[-0.73377275466919,0.0347280837595463,0.0320372395217419,0.677750051021576],"scale":[1,1,1],"translation":[0.0160655975341797,-0.00207388401031,-0.01859488151968]},{"name":"Fox_LowerREyelid","rotation":[-0.61944717168808,-0.3087996840477,0.39463147521019,0.604312777519226],"scale":[1,1,1],"translation":[0.0160655975341797,-0.00207388401031,-0.01859488151968]},{"children":[30],"name":"Fox_F_RLeg1","rotation":[0.421305656433105,0.903176605701447,0.0695257633924484,-0.0440423451364],"scale":[1,1,1],"translation":[0.0023997591342777,0.00042314050369896,-0.02510817535222]},{"children":[31],"name":"Fox_F_RLeg2","rotation":[-0.07880873978138,0.0000971468034549616,0.0000210580637940438,0.996889770030975],"scale":[0.999998986721039,1.00000095367432,1],"translation":[0.0340102761983871,0.000000416040421669095,-0.00000005364418]},{"children":[32],"name":"Fox_F_RLegAnkle","rotation":[0.203559920191765,-0.0830062776804,0.323484361171722,0.920342981815338],"scale":[0.999998986721039,1.00000095367432,1],"translation":[0.0326986238360405,-0.00000000119209,0.00000000476837147544984]},{"name":"Fox_F_RLegDigit11","rotation":[-0.00028362497687,-0.00036510571954,0.627906978130341,0.778288245201111],"scale":[0.999998986721039,1.00000405311584,1.00000095367432],"translation":[0.01028120983392,0.0009335225331597,0.000000294446948601035]},{"children":[34],"name":"Fox_LLeg1","rotation":[0.705436408519745,0.706254839897156,0.00966666825115681,-0.05890834331512],"scale":[0.999998986721039,1.00000095367432,1],"translation":[0.00000000715255721317476,0.00000000953674295089968,0.0192754939198494]},{"children":[35],"name":"Fox_LLeg2","rotation":[-0.07700145989656,0.0378199554979801,-0.71047902107239,0.698469758033752],"scale":[1.00000095367432,1,1],"translation":[0.0358892753720284,-0.00000009059906,0.0000000631809200513089]},{"children":[36],"name":"Fox_LLegAnkle","rotation":[0.225827902555466,0.0667984038591385,0.66273158788681,0.710863292217255],"scale":[1.00000298023224,0.999997973442078,0.999998986721039],"translation":[0.0258319918066263,-0.0000000166893,-0.00000000715256]},{"name":"Fox_LLegDigit11","rotation":[0.0000936346405069344,0.0003244447580073,0.68240624666214,0.7309730052948],"scale":[1.00000703334808,0.999997973442078,1],"translation":[0.0325394608080387,0.00077512260759249,-0.00000000357628]},{"children":[38],"name":"Fox_RLeg1","rotation":[0.951589286327362,0.306974560022354,-0.0023113375064,0.0154641671106219],"scale":[0.999998986721039,1.00000095367432,1],"translation":[-0.00000000238419,-0.00000001430511,-0.01927548646927]},{"children":[39],"name":"Fox_RLeg2","rotation":[0.0701581984758377,-0.04083750024438,-0.76691281795502,0.636596322059631],"scale":[0.999994993209839,1.00000500679016,1.00000095367432],"translation":[0.0358892828226089,-0.00000007867813,-0.00000006198883]},{"children":[40],"name":"Fox_RLegAnkle","rotation":[-0.25753596425057,-0.0005360764917,0.558704674243927,0.788367927074432],"scale":[0.9999920129776,1.0000079870224,1],"translation":[0.02583197504282,-0.00000002145767,0]},{"name":"Fox_RLegDigit11","rotation":[-0.00018305798585,-0.00028375489637,0.552360057830811,0.833605587482452],"scale":[0.999989986419678,1.00001299381256,1.00000095367432],"translation":[0.0325394682586193,0.00077512621646747,-0.00000000476837]}],"samplers":[{}],"scene":0,"scenes":[{"name":"Root Scene","nodes":[0,1]}],"skins":[{"inverseBindMatrices":43,"joints":[17,25,26,18,11,12,19,20,13,10,9,33,14,2,34,35,36,3,4,5,6,7,8,15,27,28,29,21,22,30,37,31,38,39,40,32,23,24],"skeleton":17},{"joints":[2,3,4,5,6,7,8,9,10,11,12,13,14,15,16,17,18,19,20,21,22,23,24,25,26,27,28,29,30,31,32,33,34,35,36,37,38,39,40]}],"textures":[{"name":"Map #4","sampler":0,"source":0}]}