{"accessors":[{"bufferView":0,"byteOffset":0,"componentType":5126,"count":31,"max":[1],"min":[0],"type":"SCALAR"},{"bufferView":1,"byteOffset":0,"componentType":5126,"count":31,"type":"VEC3"},{"bufferView":2,"byteOffset":0,"componentType":5126,"count":31,"type":"VEC4"},{"bufferView":3,"byteOffset":0,"componentType":5126,"count":31,"type":"VEC3"},{"bufferView":4,"byteOffset":0,"componentType":5126,"count":31,"type":"VEC4"},{"bufferView":5,"byteOffset":0,"componentType":5126,"count":31,"type":"VEC3"},{"bufferView":6,"byteOffset":0,"componentType":5126,"count":31,"type":"VEC4"},{"bufferView":7,"byteOffset":0,"componentType":5126,"count":31,"type":"VEC3"},{"bufferView":8,"byteOffset":0,"componentType":5126,"count":31,"type":"VEC4"},{"bufferView":9,"byteOffset":0,"componentType":5126,"count":31,"type":"VEC3"},{"bufferView":10,"byteOffset":0,"componentType":5126,"count":31,"type":"VEC4"},{"bufferView":11,"byteOffset":0,"componentType":5126,"count":31,"type":"VEC3"},{"bufferView":12,"byteOffset":0,"componentType":5126,"count":31,"type":"VEC4"},{"bufferView":13,"byteOffset":0,"componentType":5126,"count":31,"type":"VEC3"},{"bufferView":14,"byteOffset":0,"componentType":5126,"count":31,"type":"VEC4"},{"bufferView":15,"byteOffset":0,"componentType":5126,"count":31,"type":"VEC4"},{"bufferView":16,"byteOffset":0,"componentType":5126,"count":31,"type":"VEC4"},{"bufferView":17,"byteOffset":0,"componentType":5126,"count":31,"type":"VEC4"},{"bufferView":18,"byteOffset":0,"componentType":5126,"count":31,"type":"VEC4"},{"bufferView":19,"byteOffset":0,"componentType":5126,"count":31,"type":"VEC4"},{"bufferView":20,"byteOffset":0,"componentType":5126,"count":31,"type":"VEC4"},{"bufferView":21,"byteOffset":0,"componentType":5126,"count":31,"type":"VEC4"},{"bufferView":22,"byteOffset":0,"componentType":5126,"count":31,"type":"VEC4"},{"bufferView":23,"byteOffset":0,"componentType":5126,"count":31,"type":"VEC4"},{"bufferView":24,"byteOffset":0,"componentType":5126,"count":31,"type":"VEC4"},{"bufferView":25,"byteOffset":0,"componentType":5126,"count":31,"type":"VEC3"},{"bufferView":26,"byteOffset":0,"componentType":5126,"count":31,"type":"VEC4"},{"bufferView":27,"byteOffset":0,"componentType":5126,"count":31,"type":"VEC3"},{"bufferView":28,"byteOffset":0,"componentType":5126,"count":31,"type":"VEC4"},{"bufferView":29,"byteOffset":0,"componentType":5126,"count":31,"type":"VEC3"},{"bufferView":30,"byteOffset":0,"componentType":5126,"count":31,"type":"VEC4"},{"bufferView":31,"byteOffset":0,"componentType":5126,"count":31,"type":"VEC3"},{"bufferView":32,"byteOffset":0,"componentType":5126,"count":31,"type":"VEC4"},{"bufferView":33,"byteOffset":0,"componentType":5126,"count":31,"type":"VEC4"},{"bufferView":34,"byteOffset":0,"componentType":5126,"count":31,"type":"VEC4"},{"bufferView":35,"byteOffset":0,"componentType":5126,"count":31,"type":"VEC4"},{"bufferView":36,"byteOffset":0,"componentType":5126,"count":31,"type":"VEC4"},{"bufferView":37,"byteOffset":0,"componentType":5126,"count":31,"type":"VEC4"},{"bufferView":38,"byteOffset":0,"componentType":5126,"count":31,"type":"VEC4"},{"bufferView":39,"byteOffset":0,"componentType":5126,"count":31,"type":"VEC4"},{"bufferView":40,"byteOffset":0,"componentType":5126,"count":31,"type":"VEC4"},{"bufferView":41,"byteOffset":0,"componentType":5126,"count":31,"type":"VEC4"},{"bufferView":42,"byteOffset":0,"componentType":5126,"count":31,"type":"VEC4"},{"bufferView":43,"byteOffset":0,"componentType":5126,"count":31,"type":"VEC4"},{"bufferView":44,"byteOffset":0,"componentType":5126,"count":31,"type":"VEC4"},{"bufferView":45,"byteOffset":0,"componentType":5126,"count":31,"type":"VEC4"},{"bufferView":46,"byteOffset":0,"componentType":5123,"count":10350,"type":"SCALAR"},{"bufferView":47,"byteOffset":0,"componentType":5126,"count":2266,"max":[0.0510667748749256,0.181155368685722,0.169082224369049],"min":[-0.05106677487493,-0.09766451269388,0.000000000745058015283462],"type":"VEC3"},{"bufferView":48,"byteOffset":0,"componentType":5126,"count":2266,"type":"VEC3"},{"bufferView":49,"byteOffset":0,"componentType":5126,"count":2266,"type":"VEC4"},{"bufferView":50,"byteOffset":0,"componentType":5126,"count":2266,"type":"VEC2"},{"bufferView":51,"byteOffset":0,"componentType":5123,"count":2266,"type":"VEC4"},{"bufferView":52,"byteOffset":0,"componentType":5126,"count":2266,"type":"VEC4"},{"bufferView":53,"byteOffset":0,"componentType":5126,"count":39,"type":"MAT4"}],"animations":[{"channels":[{"sampler":0,"target":{"node":2,"path":"translation"}},{"sampler":1,"target":{"node":2,"path":"rotation"}},{"sampler":2,"target":{"node":3,"path":"translation"}},{"sampler":3,"target":{"node":3,"path":"rotation"}},{"sampler":4,"target":{"node":4,"path":"translation"}},{"sampler":5,"target":{"node":4,"path":"rotation"}},{"sampler":6,"target":{"node":5,"path":"translation"}},{"sampler":7,"target":{"node":5,"path":"rotation"}},{"sampler":8,"target":{"node":6,"path":"translation"}},{"sampler":9,"target":{"node":6,"path":"rotation"}},{"sampler":10,"target":{"node":7,"path":"translation"}},{"sampler":11,"target":{"node":7,"path":"rotation"}},{"sampler":12,"target":{"node":8,"path":"translation"}},{"sampler":13,"target":{"node":8,"path":"rotation"}},{"sampler":14,"target":{"node":9,"path":"rotation"}},{"sampler":15,"target":{"node":10,"path":"rotation"}},{"sampler":16,"target":{"node":11,"path":"rotation"}},{"sampler":17,"target":{"node":12,"path":"rotation"}},{"sampler":18,"target":{"node":13,"path":"rotation"}},{"sampler":19,"target":{"node":14,"path":"rotation"}},{"sampler":20,"target":{"node":15,"path":"rotation"}},{"sampler":21,"target":{"node":16,"path":"rotation"}},{"sampler":22,"target":{"node":17,"path":"rotation"}},{"sampler":23,"target":{"node":18,"path":"rotation"}},{"sampler":24,"target":{"node":19,"path":"translation"}},{"sampler":25,"target":{"node":19,"path":"rotation"}},{"sampler":26,"target":{"node":20,"path":"translation"}},{"sampler":27,"target":{"node":20,"path":"rotation"}},{"sampler":28,"target":{"node":21,"path":"translation"}},{"sampler":29,"target":{"node":21,"path":"rotation"}},{"sampler":30,"target":{"node":22,"path":"translation"}},{"sampler":31,"target":{"node":22,"path":"rotation"}},{"sampler":32,"target":{"node":25,"path":"rotation"}},{"sampler":33,"target":{"node":27,"path":"rotation"}},{"sampler":34,"target":{"node":29,"path":"rotation"}},{"sampler":35,"target":{"node":30,"path":"rotation"}},{"sampler":36,"target":{"node":31,"path":"rotation"}},{"sampler":37,"target":{"node":32,"path":"rotation"}},{"sampler":38,"target":{"node":34,"path":"rotation"}},{"sampler":39,"target":{"node":35,"path":"rotation"}},{"sampler":40,"target":{"node":36,"path":"rotation"}},{"sampler":41,"target":{"node":37,"path":"rotation"}},{"sampler":42,"target":{"node":38,"path":"rotation"}},{"sampler":43,"target":{"node":39,"path":"rotation"}},{"sampler":44,"target":{"node":40,"path":"rotation"}}],"name":"Take 001","samplers":[{"input":0,"interpolation":"LINEAR","output":1},{"input":0,"interpolation":"LINEAR","output":2},{"input":0,"interpolation":"LINEAR","output":3},{"input":0,"interpolation":"LINEAR","output":4},{"input":0,"interpolation":"LINEAR","output":5},{"input":0,"interpolation":"LINEAR","output":6},{"input":0,"interpolation":"LINEAR","output":7},{"input":0,"interpolation":"LINEAR","output":8},{"input":0,"interpolation":"LINEAR","output":9},{"input":0,"interpolation":"LINEAR","output":10},{"input":0,"interpolation":"LINEAR","output":11},{"input":0,"interpolation":"LINEAR","output":12},{"input":0,"interpolation":"LINEAR","output":13},{"input":0,"interpolation":"LINEAR","output":14},{"input":0,"interpolation":"LINEAR","output":15},{"input":0,"interpolation":"LINEAR","output":16},{"input":0,"interpolation":"LINEAR","output":17},{"input":0,"interpolation":"LINEAR","output":18},{"input":0,"interpolation":"LINEAR","output":19},{"input":0,"interpolation":"LINEAR","output":20},{"input":0,"interpolation":"LINEAR","output":21},{"input":0,"interpolation":"LINEAR","output":22},{"input":0,"interpolation":"LINEAR","output":23},{"input":0,"interpolation":"LINEAR","output":24},{"input":0,"interpolation":"LINEAR","output":25},{"input":0,"interpolation":"LINEAR","output":26},{"input":0,"interpolation":"LINEAR","output":27},{"input":0,"interpolation":"LINEAR","output":28},{"input":0,"interpolation":"LINEAR","output":29},{"input":0,"interpolation":"LINEAR","output":30},{"input":0,"interpolation":"LINEAR","output":31},{"input":0,"interpolation":"LINEAR","output":32},{"input":0,"interpolation":"LINEAR","output":33},{"input":0,"interpolation":"LINEAR","output":34},{"input":0,"interpolation":"LINEAR","output":35},{"input":0,"interpolation":"LINEAR","output":36},{"input":0,"interpolation":"LINEAR","output":37},{"input":0,"interpolation":"LINEAR","output":38},{"input":0,"interpolation":"LINEAR","output":39},{"input":0,"interpolation":"LINEAR","output":40},{"input":0,"interpolation":"LINEAR","output":41},{"input":0,"interpolation":"LINEAR","output":42},{"input":0,"interpolation":"LINEAR","output":43},{"input":0,"interpolation":"LINEAR","output":44},{"input":0,"interpolation":"LINEAR","output":45}]}],"asset":{"generator":"FBX2glTF v0.13.1","version":"2.0"},"bufferViews":[{"buffer":0,"byteLength":124,"byteOffset":0},{"buffer":0,"byteLength":372,"byteOffset":124},{"buffer":0,"byteLength":496,"byteOffset":496},{"buffer":0,"byteLength":372,"byteOffset":992},{"buffer":0,"byteLength":496,"byteOffset":1364},{"buffer":0,"byteLength":372,"byteOffset":1860},{"buffer":0,"byteLength":496,"byteOffset":2232},{"buffer":0,"byteLength":372,"byteOffset":2728},{"buffer":0,"byteLength":496,"byteOffset":3100},{"buffer":0,"byteLength":372,"byteOffset":3596},{"buffer":0,"byteLength":496,"byteOffset":3968},{"buffer":0,"byteLength":372,"byteOffset":4464},{"buffer":0,"byteLength":496,"byteOffset":4836},{"buffer":0,"byteLength":372,"byteOffset":5332},{"buffer":0,"byteLength":496,"byteOffset":5704},{"buffer":0,"byteLength":496,"byteOffset":6200},{"buffer":0,"byteLength":496,"byteOffset":6696},{"buffer":0,"byteLength":496,"byteOffset":7192},{"buffer":0,"byteLength":496,"byteOffset":7688},{"buffer":0,"byteLength":496,"byteOffset":8184},{"buffer":0,"byteLength":496,"byteOffset":8680},{"buffer":0,"byteLength":496,"byteOffset":9176},{"buffer":0,"byteLength":496,"byteOffset":9672},{"buffer":0,"byteLength":496,"byteOffset":10168},{"buffer":0,"byteLength":496,"byteOffset":10664},{"buffer":0,"byteLength":372,"byteOffset":11160},{"buffer":0,"byteLength":496,"byteOffset":11532},{"buffer":0,"byteLength":372,"byteOffset":12028},{"buffer":0,"byteLength":496,"byteOffset":12400},{"buffer":0,"byteLength":372,"byteOffset":12896},{"buffer":0,"byteLength":496,"byteOffset":13268},{"buffer":0,"byteLength":372,"byteOffset":13764},{"buffer":0,"byteLength":496,"byteOffset":14136},{"buffer":0,"byteLength":496,"byteOffset":14632},{"buffer":0,"byteLength":496,"byteOffset":15128},{"buffer":0,"byteLength":496,"byteOffset":15624},{"buffer":0,"byteLength":496,"byteOffset":16120},{"buffer":0,"byteLength":496,"byteOffset":16616},{"buffer":0,"byteLength":496,"byteOffset":17112},{"buffer":0,"byteLength":496,"byteOffset":17608},{"buffer":0,"byteLength":496,"byteOffset":18104},{"buffer":0,"byteLength":496,"byteOffset":18600},{"buffer":0,"byteLength":496,"byteOffset":19096},{"buffer":0,"byteLength":496,"byteOffset":19592},{"buffer":0,"byteLength":496,"byteOffset":20088},{"buffer":0,"byteLength":496,"byteOffset":20584},{"buffer":0,"byteLength":20700,"byteOffset":21080,"target":34963},{"buffer":0,"byteLength":27192,"byteOffset":41780,"target":34962},{"buffer":0,"byteLength":27192,"byteOffset":68972,"target":34962},{"buffer":0,"byteLength":36256,"byteOffset":96164,"target":34962},{"buffer":0,"byteLength":18128,"byteOffset":132420,"target":34962},{"buffer":0,"byteLength":18128,"byteOffset":150548,"target":34962},{"buffer":0,"byteLength":36256,"byteOffset":168676,"target":34962},{"buffer":0,"byteLength":2496,"byteOffset":204932}],"buffers":[{"byteLength":207428,"uri":"Fox_Falling_Left.bin"}],"images":[{"name":"toonfoxNM","uri":"toonfoxNM.png"},{"name":"1","uri":"1.psd"}],"materials":[{"alphaMode":"OPAQUE","doubleSided":false,"extras":{"fromFBX":{"isTruePBR":false,"shadingModel":"Phong"}},"name":"08 - Default","normalTexture":{"index":0,"texCoord":0},"pbrMetallicRoughness":{"baseColorFactor":[1,1,1,1],"baseColorTexture":{"index":1,"texCoord":0},"metallicFactor":0.400000005960464,"roughnessFactor":0.422773718833923}}],"meshes":[{"name":"fox","primitives":[{"attributes":{"JOINTS_0":51,"NORMAL":48,"POSITION":47,"TANGENT":49,"TEXCOORD_0":50,"WEIGHTS_0":52},"indices":46,"material":0,"mode":4}]}],"nodes":[{"mesh":0,"name":"fox","rotation":[-0.70710676908493,-0,0,0.70710676908493],"scale":[1,1,1],"skin":0,"translation":[0,0,0]},{"children":[2],"name":"FoxTransform","rotation":[-0.70710647106171,0.000000337174952846908,0.000000337174640208104,0.707107126712799],"scale":[1,1,1],"translation":[0,0,0]},{"children":[3,9,33,37],"name":"Fox_Pelvis","rotation":[0.5,-0.50000005960465,0.500000476837158,-0.49999943375588],"scale":[1,1,1],"translation":[0.0000000316552544177284,0.0347874835133553,0.0729596763849258]},{"children":[4],"name":"Fox_Tail1","rotation":[-0.00577433360741,0.00074959167977795,0.992769658565521,0.1198935136199],"scale":[1,1,1],"translation":[-0.01636433973908,-0.00745288375765,-0.00000000043518]},{"children":[5],"name":"Fox_Tail2","rotation":[0.00540417106822133,0.0379878245294094,-0.10929062962532,0.993268966674805],"scale":[1,1,1],"translation":[0.0267343278974295,0.00000000953674295089968,-0.00000000022352]},{"children":[6],"name":"Fox_Tail3","rotation":[0.0191254001110792,0.0695368871092796,-0.11996019631624,0.990155756473541],"scale":[1,1,1],"translation":[0.0208616815507412,0,0.000000000298023217215615]},{"children":[7],"name":"Fox_Tail4","rotation":[0.0164503902196884,0.0280343666672707,-0.06259571760893,0.99750953912735],"scale":[1.00000095367432,1,1],"translation":[0.022082157433033,0.00000000953674295089968,0.00000000178813930329369]},{"children":[8],"name":"Fox_Tail5","rotation":[0.00036997199640609,-0.02908479236066,-0.00150274729822,0.999575734138489],"scale":[1,1,0.999998986721039],"translation":[0.0203105397522449,0.0000000381469718035987,-0.00000000059605]},{"name":"Fox_Tail6","rotation":[-0.00149357935879,-0.06978069990873,0.00946563389152288,0.997516334056854],"scale":[0.999998986721039,1.00000095367432,0.999998986721039],"translation":[0.0182019229978323,-0.00000000953674,-0.00000001102686]},{"children":[10],"name":"Fox_Spine1","rotation":[0.000000187006591545469,0.00000240187227973365,0.0344132669270039,0.999407708644867],"scale":[1,1,1],"translation":[0,0,0]},{"children":[11],"name":"Fox_Spine2","rotation":[0.0000000220199698475199,0.00000000803855915165741,-0.0599413216114,0.998201906681061],"scale":[1,1,1],"translation":[0.0335060358047485,0,0]},{"children":[12,16,29],"name":"Fox_Ribcage","rotation":[0.000000170697106227635,-0.00000243322688,-0.0616700835526,0.998096585273743],"scale":[1,1,1],"translation":[0.0335060358047485,0,0]},{"children":[13],"name":"Fox_F_LLeg1","rotation":[0.517709314823151,0.855375051498413,0.0082262521609664,0.0155845610424876],"scale":[1,1,1],"translation":[0.00239977356977761,0.00042313575977459,0.0251081679016352]},{"children":[14],"name":"Fox_F_LLeg2","rotation":[0.0733439698815346,-0.03447994217277,0.363785266876221,0.927950501441956],"scale":[1,1,1],"translation":[0.0340102761983871,0.000000408887842695549,0.0000000572204577053981]},{"children":[15],"name":"Fox_F_LLegAnkle","rotation":[-0.03676531836391,0.0563245937228203,0.0301009193062782,0.997281193733215],"scale":[1,1,1],"translation":[0.0326986275613308,-0.00000000238419,0]},{"name":"Fox_F_LLegDigit11","rotation":[0.0000531323566974606,0.0000898670114111155,0.509548842906952,0.860441744327545],"scale":[1,1,1],"translation":[0.0102812070399523,0.00093354459386318,-0.00000029325486]},{"children":[17],"name":"Fox_Spine","rotation":[0.0002199256705353,-0.01079125050455,-0.40315121412277,0.915069699287415],"scale":[1,1,1],"translation":[0,0,0]},{"children":[18,19,21,23,24,25,26,27,28],"name":"Fox_Head","rotation":[0.0130017790943384,-0.00516375107691,0.237993583083153,0.971165955066681],"scale":[1,1,1],"translation":[0.0369065552949905,-0.00000000476837,0.000000000149011608607807]},{"name":"Fox_Jaw","rotation":[0.0000000310942063208586,0.0000000191872331356535,0.342020034790039,0.939692676067352],"scale":[1,1,1],"translation":[0.0127218626439571,0.0189216323196888,-0.00000000059605]},{"children":[20],"name":"Fox_LEar1","rotation":[0.23086379468441,-0.29398375749588,-0.33921435475349,0.863254904747009],"scale":[1.00000095367432,0.999998986721039,1.00000095367432],"translation":[0.010987033136189,-0.03008018434048,0.0253106150776148]},{"name":"Fox_LEar2","rotation":[-0.01001362409443,0.00497080199420452,0.0944116339087486,0.995470464229584],"scale":[0.9999920129776,1.00000894069672,0.999998986721039],"translation":[0.0164626501500607,-0.00000003814697,0.000000209808348472507]},{"children":[22],"name":"Fox_REar1","rotation":[-0.25690519809723,0.283185034990311,-0.38670560717583,0.839204788208008],"scale":[1.00000202655792,0.999998986721039,1],"translation":[0.010987033136189,-0.03008022159338,-0.02531060576439]},{"name":"Fox_REar2","rotation":[-0.01091357879341,0.0025509363040328,-0.01845048181713,0.999766945838928],"scale":[1.00000405311584,0.999994993209839,1.00000202655792],"translation":[0.0164626780897379,0.0000000405311588735913,0.00000012159347306806]},{"name":"Fox_LEye","rotation":[0.690345585346222,0.153045833110809,0.212630987167358,0.674379706382751],"scale":[1,1,1],"translation":[0.0160656161606312,-0.00207386957482,0.0185948740690947]},{"name":"Fox_REye","rotation":[-0.69034558534622,-0.15304589271545,0.212630912661552,0.674379765987396],"scale":[1,1,1],"translation":[0.0160655975341797,-0.00207386957482,-0.01859487406909]},{"name":"Fox_UpperLEyelid","rotation":[0.733772814273834,-0.034727986902,0.0320371650159359,0.677749991416931],"scale":[1,1,1],"translation":[0.0160656161606312,-0.00207387446426,0.0185948740690947]},{"name":"Fox_LowerLEyelid","rotation":[0.619447290897369,0.30879944562912,0.39463147521019,0.604312777519226],"scale":[1,1,1],"translation":[0.0160656161606312,-0.00207387446426,0.0185948740690947]},{"name":"Fox_UpperREyelid","rotation":[-0.73377269506455,0.0347280465066433,0.032037265598774,0.677750051021576],"scale":[1,1,1],"translation":[0.0160655975341797,-0.00207386957482,-0.01859487406909]},{"name":"Fox_LowerREyelid","rotation":[-0.61944717168808,-0.30879965424538,0.3946313560009,0.604312896728516],"scale":[1,1,1],"translation":[0.0160655975341797,-0.00207386957482,-0.01859487406909]},{"children":[30],"name":"Fox_F_RLeg1","rotation":[0.423255294561386,0.905916452407837,-0.01216270960867,-0.00473253475502],"scale":[1,1,1],"translation":[0.00239976402372122,0.00042314050369896,-0.0251081623137]},{"children":[31],"name":"Fox_F_RLeg2","rotation":[-0.07476197183132,0.0295540057122707,0.313049077987671,0.946328401565552],"scale":[1,1,1],"translation":[0.0340102724730968,0.000000414848329910456,-0.0000000500679]},{"children":[32],"name":"Fox_F_RLegAnkle","rotation":[0.0427094772458076,-0.05267222970724,0.190220475196838,0.97939658164978],"scale":[1,1,1],"translation":[0.0326986201107502,-0.00000000119209,0]},{"name":"Fox_F_RLegDigit11","rotation":[0.00025243923300877,0.00042586665949784,0.50996321439743,0.860196053981781],"scale":[0.999998986721039,1.00000095367432,1],"translation":[0.0102812051773071,0.00093353982083499,0.000000293254856842395]},{"children":[34],"name":"Fox_LLeg1","rotation":[0.70239782333374,0.711641371250153,-0.01054104883224,0.00963049940764904],"scale":[0.999998986721039,1.00000095367432,1],"translation":[0.00000000238418573772492,0,0.0192754864692688]},{"children":[35],"name":"Fox_LLeg2","rotation":[-0.0829760953784,0.0347448624670506,-0.65242332220078,0.752496898174286],"scale":[1,0.999998986721039,1],"translation":[0.0358892716467381,-0.00000008583068,0.0000000619888282926695]},{"children":[36],"name":"Fox_LLegAnkle","rotation":[0.0704977214336395,-0.03204265609384,0.727372646331787,0.681859493255615],"scale":[1.00000298023224,0.999997019767761,1],"translation":[0.0258319769054651,0,-0.00000000238419]},{"name":"Fox_LLegDigit11","rotation":[0.00015257287304848,0.00030115724075585,0.635802745819092,0.771851539611816],"scale":[1.00000405311584,0.9999960064888,1],"translation":[0.0325394757091999,0.00077512738062068,0.00000000119209286886246]},{"children":[38],"name":"Fox_RLeg1","rotation":[0.892870783805847,0.450089633464813,0.00612268503755331,-0.01279078703374],"scale":[0.999998986721039,1.00000095367432,1],"translation":[-0.00000000238419,0,-0.01927548274398]},{"children":[39],"name":"Fox_RLeg2","rotation":[0.0685838758945465,-0.04145687073469,-0.77880984544754,0.622119605541229],"scale":[0.999993979930878,1.00000596046448,1],"translation":[0.0358892567455769,-0.00000007867813,-0.00000007152557]},{"children":[40],"name":"Fox_RLegAnkle","rotation":[-0.06999345123768,0.012880721129477,0.62365996837616,0.778449296951294],"scale":[0.999990999698639,1.00000894069672,1],"translation":[0.0258319824934006,-0.00000000476837,0.00000000238418573772492]},{"name":"Fox_RLegDigit11","rotation":[-0.00015268693096,-0.00030118311406,0.635801792144775,0.771852254867554],"scale":[0.999985992908478,1.00001299381256,1],"translation":[0.0325394868850708,0.00077512738062068,-0.00000000119209]}],"samplers":[{}],"scene":0,"scenes":[{"name":"Root Scene","nodes":[0,1]}],"skins":[{"inverseBindMatrices":53,"joints":[17,23,2,9,10,25,26,18,19,16,11,12,20,13,33,14,15,34,35,36,3,4,5,6,7,8,24,27,28,21,29,22,30,37,31,32,38,39,40],"skeleton":2},{"joints":[2,3,4,5,6,7,8,9,10,11,12,13,14,15,16,17,18,19,20,21,22,23,24,25,26,27,28,29,30,31,32,33,34,35,36,37,38,39,40]}],"textures":[{"name":"Map #2","sampler":0,"source":0},{"name":"Map #4","sampler":0,"source":1}]}