{"accessors":[{"bufferView":0,"byteOffset":0,"componentType":5126,"count":61,"max":[2],"min":[0],"type":"SCALAR"},{"bufferView":1,"byteOffset":0,"componentType":5126,"count":61,"type":"VEC3"},{"bufferView":2,"byteOffset":0,"componentType":5126,"count":61,"type":"VEC4"},{"bufferView":3,"byteOffset":0,"componentType":5126,"count":61,"type":"VEC3"},{"bufferView":4,"byteOffset":0,"componentType":5126,"count":61,"type":"VEC4"},{"bufferView":5,"byteOffset":0,"componentType":5126,"count":61,"type":"VEC3"},{"bufferView":6,"byteOffset":0,"componentType":5126,"count":61,"type":"VEC4"},{"bufferView":7,"byteOffset":0,"componentType":5126,"count":61,"type":"VEC3"},{"bufferView":8,"byteOffset":0,"componentType":5126,"count":61,"type":"VEC4"},{"bufferView":9,"byteOffset":0,"componentType":5126,"count":61,"type":"VEC3"},{"bufferView":10,"byteOffset":0,"componentType":5126,"count":61,"type":"VEC4"},{"bufferView":11,"byteOffset":0,"componentType":5126,"count":61,"type":"VEC3"},{"bufferView":12,"byteOffset":0,"componentType":5126,"count":61,"type":"VEC4"},{"bufferView":13,"byteOffset":0,"componentType":5126,"count":61,"type":"VEC4"},{"bufferView":14,"byteOffset":0,"componentType":5126,"count":61,"type":"VEC4"},{"bufferView":15,"byteOffset":0,"componentType":5126,"count":61,"type":"VEC4"},{"bufferView":16,"byteOffset":0,"componentType":5126,"count":61,"type":"VEC4"},{"bufferView":17,"byteOffset":0,"componentType":5126,"count":61,"type":"VEC4"},{"bufferView":18,"byteOffset":0,"componentType":5126,"count":61,"type":"VEC4"},{"bufferView":19,"byteOffset":0,"componentType":5126,"count":61,"type":"VEC4"},{"bufferView":20,"byteOffset":0,"componentType":5126,"count":61,"type":"VEC4"},{"bufferView":21,"byteOffset":0,"componentType":5126,"count":61,"type":"VEC4"},{"bufferView":22,"byteOffset":0,"componentType":5126,"count":61,"type":"VEC4"},{"bufferView":23,"byteOffset":0,"componentType":5126,"count":61,"type":"VEC3"},{"bufferView":24,"byteOffset":0,"componentType":5126,"count":61,"type":"VEC4"},{"bufferView":25,"byteOffset":0,"componentType":5126,"count":61,"type":"VEC3"},{"bufferView":26,"byteOffset":0,"componentType":5126,"count":61,"type":"VEC4"},{"bufferView":27,"byteOffset":0,"componentType":5126,"count":61,"type":"VEC3"},{"bufferView":28,"byteOffset":0,"componentType":5126,"count":61,"type":"VEC4"},{"bufferView":29,"byteOffset":0,"componentType":5126,"count":61,"type":"VEC3"},{"bufferView":30,"byteOffset":0,"componentType":5126,"count":61,"type":"VEC4"},{"bufferView":31,"byteOffset":0,"componentType":5126,"count":61,"type":"VEC4"},{"bufferView":32,"byteOffset":0,"componentType":5126,"count":61,"type":"VEC4"},{"bufferView":33,"byteOffset":0,"componentType":5126,"count":61,"type":"VEC4"},{"bufferView":34,"byteOffset":0,"componentType":5126,"count":61,"type":"VEC4"},{"bufferView":35,"byteOffset":0,"componentType":5126,"count":61,"type":"VEC4"},{"bufferView":36,"byteOffset":0,"componentType":5126,"count":61,"type":"VEC4"},{"bufferView":37,"byteOffset":0,"componentType":5126,"count":61,"type":"VEC4"},{"bufferView":38,"byteOffset":0,"componentType":5126,"count":61,"type":"VEC4"},{"bufferView":39,"byteOffset":0,"componentType":5123,"count":10350,"type":"SCALAR"},{"bufferView":40,"byteOffset":0,"componentType":5126,"count":2266,"max":[0.0510667748749256,0.181155368685722,0.169082224369049],"min":[-0.05106677487493,-0.09766451269388,0.000000000745058015283462],"type":"VEC3"},{"bufferView":41,"byteOffset":0,"componentType":5126,"count":2266,"type":"VEC3"},{"bufferView":42,"byteOffset":0,"componentType":5126,"count":2266,"type":"VEC4"},{"bufferView":43,"byteOffset":0,"componentType":5126,"count":2266,"type":"VEC2"},{"bufferView":44,"byteOffset":0,"componentType":5123,"count":2266,"type":"VEC4"},{"bufferView":45,"byteOffset":0,"componentType":5126,"count":2266,"type":"VEC4"},{"bufferView":46,"byteOffset":0,"componentType":5126,"count":39,"type":"MAT4"}],"animations":[{"channels":[{"sampler":0,"target":{"node":3,"path":"translation"}},{"sampler":1,"target":{"node":3,"path":"rotation"}},{"sampler":2,"target":{"node":4,"path":"translation"}},{"sampler":3,"target":{"node":4,"path":"rotation"}},{"sampler":4,"target":{"node":5,"path":"translation"}},{"sampler":5,"target":{"node":5,"path":"rotation"}},{"sampler":6,"target":{"node":6,"path":"translation"}},{"sampler":7,"target":{"node":6,"path":"rotation"}},{"sampler":8,"target":{"node":7,"path":"translation"}},{"sampler":9,"target":{"node":7,"path":"rotation"}},{"sampler":10,"target":{"node":8,"path":"translation"}},{"sampler":11,"target":{"node":8,"path":"rotation"}},{"sampler":12,"target":{"node":9,"path":"rotation"}},{"sampler":13,"target":{"node":10,"path":"rotation"}},{"sampler":14,"target":{"node":11,"path":"rotation"}},{"sampler":15,"target":{"node":12,"path":"rotation"}},{"sampler":16,"target":{"node":13,"path":"rotation"}},{"sampler":17,"target":{"node":14,"path":"rotation"}},{"sampler":18,"target":{"node":15,"path":"rotation"}},{"sampler":19,"target":{"node":16,"path":"rotation"}},{"sampler":20,"target":{"node":17,"path":"rotation"}},{"sampler":21,"target":{"node":18,"path":"rotation"}},{"sampler":22,"target":{"node":19,"path":"translation"}},{"sampler":23,"target":{"node":19,"path":"rotation"}},{"sampler":24,"target":{"node":20,"path":"translation"}},{"sampler":25,"target":{"node":20,"path":"rotation"}},{"sampler":26,"target":{"node":21,"path":"translation"}},{"sampler":27,"target":{"node":21,"path":"rotation"}},{"sampler":28,"target":{"node":22,"path":"translation"}},{"sampler":29,"target":{"node":22,"path":"rotation"}},{"sampler":30,"target":{"node":23,"path":"rotation"}},{"sampler":31,"target":{"node":24,"path":"rotation"}},{"sampler":32,"target":{"node":25,"path":"rotation"}},{"sampler":33,"target":{"node":27,"path":"rotation"}},{"sampler":34,"target":{"node":29,"path":"rotation"}},{"sampler":35,"target":{"node":30,"path":"rotation"}},{"sampler":36,"target":{"node":31,"path":"rotation"}},{"sampler":37,"target":{"node":32,"path":"rotation"}}],"name":"Take 001","samplers":[{"input":0,"interpolation":"LINEAR","output":1},{"input":0,"interpolation":"LINEAR","output":2},{"input":0,"interpolation":"LINEAR","output":3},{"input":0,"interpolation":"LINEAR","output":4},{"input":0,"interpolation":"LINEAR","output":5},{"input":0,"interpolation":"LINEAR","output":6},{"input":0,"interpolation":"LINEAR","output":7},{"input":0,"interpolation":"LINEAR","output":8},{"input":0,"interpolation":"LINEAR","output":9},{"input":0,"interpolation":"LINEAR","output":10},{"input":0,"interpolation":"LINEAR","output":11},{"input":0,"interpolation":"LINEAR","output":12},{"input":0,"interpolation":"LINEAR","output":13},{"input":0,"interpolation":"LINEAR","output":14},{"input":0,"interpolation":"LINEAR","output":15},{"input":0,"interpolation":"LINEAR","output":16},{"input":0,"interpolation":"LINEAR","output":17},{"input":0,"interpolation":"LINEAR","output":18},{"input":0,"interpolation":"LINEAR","output":19},{"input":0,"interpolation":"LINEAR","output":20},{"input":0,"interpolation":"LINEAR","output":21},{"input":0,"interpolation":"LINEAR","output":22},{"input":0,"interpolation":"LINEAR","output":23},{"input":0,"interpolation":"LINEAR","output":24},{"input":0,"interpolation":"LINEAR","output":25},{"input":0,"interpolation":"LINEAR","output":26},{"input":0,"interpolation":"LINEAR","output":27},{"input":0,"interpolation":"LINEAR","output":28},{"input":0,"interpolation":"LINEAR","output":29},{"input":0,"interpolation":"LINEAR","output":30},{"input":0,"interpolation":"LINEAR","output":31},{"input":0,"interpolation":"LINEAR","output":32},{"input":0,"interpolation":"LINEAR","output":33},{"input":0,"interpolation":"LINEAR","output":34},{"input":0,"interpolation":"LINEAR","output":35},{"input":0,"interpolation":"LINEAR","output":36},{"input":0,"interpolation":"LINEAR","output":37},{"input":0,"interpolation":"LINEAR","output":38}]}],"asset":{"generator":"FBX2glTF v0.13.1","version":"2.0"},"bufferViews":[{"buffer":0,"byteLength":244,"byteOffset":0},{"buffer":0,"byteLength":732,"byteOffset":244},{"buffer":0,"byteLength":976,"byteOffset":976},{"buffer":0,"byteLength":732,"byteOffset":1952},{"buffer":0,"byteLength":976,"byteOffset":2684},{"buffer":0,"byteLength":732,"byteOffset":3660},{"buffer":0,"byteLength":976,"byteOffset":4392},{"buffer":0,"byteLength":732,"byteOffset":5368},{"buffer":0,"byteLength":976,"byteOffset":6100},{"buffer":0,"byteLength":732,"byteOffset":7076},{"buffer":0,"byteLength":976,"byteOffset":7808},{"buffer":0,"byteLength":732,"byteOffset":8784},{"buffer":0,"byteLength":976,"byteOffset":9516},{"buffer":0,"byteLength":976,"byteOffset":10492},{"buffer":0,"byteLength":976,"byteOffset":11468},{"buffer":0,"byteLength":976,"byteOffset":12444},{"buffer":0,"byteLength":976,"byteOffset":13420},{"buffer":0,"byteLength":976,"byteOffset":14396},{"buffer":0,"byteLength":976,"byteOffset":15372},{"buffer":0,"byteLength":976,"byteOffset":16348},{"buffer":0,"byteLength":976,"byteOffset":17324},{"buffer":0,"byteLength":976,"byteOffset":18300},{"buffer":0,"byteLength":976,"byteOffset":19276},{"buffer":0,"byteLength":732,"byteOffset":20252},{"buffer":0,"byteLength":976,"byteOffset":20984},{"buffer":0,"byteLength":732,"byteOffset":21960},{"buffer":0,"byteLength":976,"byteOffset":22692},{"buffer":0,"byteLength":732,"byteOffset":23668},{"buffer":0,"byteLength":976,"byteOffset":24400},{"buffer":0,"byteLength":732,"byteOffset":25376},{"buffer":0,"byteLength":976,"byteOffset":26108},{"buffer":0,"byteLength":976,"byteOffset":27084},{"buffer":0,"byteLength":976,"byteOffset":28060},{"buffer":0,"byteLength":976,"byteOffset":29036},{"buffer":0,"byteLength":976,"byteOffset":30012},{"buffer":0,"byteLength":976,"byteOffset":30988},{"buffer":0,"byteLength":976,"byteOffset":31964},{"buffer":0,"byteLength":976,"byteOffset":32940},{"buffer":0,"byteLength":976,"byteOffset":33916},{"buffer":0,"byteLength":20700,"byteOffset":34892,"target":34963},{"buffer":0,"byteLength":27192,"byteOffset":55592,"target":34962},{"buffer":0,"byteLength":27192,"byteOffset":82784,"target":34962},{"buffer":0,"byteLength":36256,"byteOffset":109976,"target":34962},{"buffer":0,"byteLength":18128,"byteOffset":146232,"target":34962},{"buffer":0,"byteLength":18128,"byteOffset":164360,"target":34962},{"buffer":0,"byteLength":36256,"byteOffset":182488,"target":34962},{"buffer":0,"byteLength":2496,"byteOffset":218744}],"buffers":[{"byteLength":221240,"uri":"Fox_Sit_No.bin"}],"images":[{"name":"toonfoxNM","uri":"toonfoxNM.png"},{"name":"1","uri":"1.psd"}],"materials":[{"alphaMode":"OPAQUE","doubleSided":false,"extras":{"fromFBX":{"isTruePBR":false,"shadingModel":"Phong"}},"name":"08 - Default","normalTexture":{"index":0,"texCoord":0},"pbrMetallicRoughness":{"baseColorFactor":[1,1,1,1],"baseColorTexture":{"index":1,"texCoord":0},"metallicFactor":0.400000005960464,"roughnessFactor":0.422773718833923}}],"meshes":[{"name":"fox","primitives":[{"attributes":{"JOINTS_0":44,"NORMAL":41,"POSITION":40,"TANGENT":42,"TEXCOORD_0":43,"WEIGHTS_0":45},"indices":39,"material":0,"mode":4}]}],"nodes":[{"mesh":0,"name":"fox","rotation":[-0.70710676908493,-0,0,0.70710676908493],"scale":[1,1,1],"skin":0,"translation":[0,0,0]},{"children":[2],"name":"FoxTransform","rotation":[-0.70710676908493,-0,0,0.70710676908493],"scale":[1,1,1],"translation":[0,0,0]},{"children":[3,9,33,37],"name":"Fox_Pelvis","rotation":[0.627211272716522,-0.32650563120842,0.627211451530457,-0.32650563120842],"scale":[1,0.999998986721039,1],"translation":[-0.00000000152061,0.0347876027226448,0.0326020978391171]},{"children":[4],"name":"Fox_Tail1","rotation":[0.129082143306732,-0.09621897339821,0.976741313934326,-0.1416198015213],"scale":[1.00000095367432,1,1],"translation":[-0.01636433601379,-0.0074529168196,-0.00000000132884]},{"children":[5],"name":"Fox_Tail2","rotation":[-0.00007627431478,-0.27327540516853,-0.00650277547538,0.961913824081421],"scale":[0.999998986721039,1,1],"translation":[0.0267343278974295,0.0000000238418564890708,0.00000000536441779885877]},{"children":[6],"name":"Fox_Tail3","rotation":[0.031725101172924,-0.25772580504417,-0.00209519756027,0.965694844722748],"scale":[1.00000095367432,1,1],"translation":[0.020861653611064,-0.00000001907349,-0.00000002384186]},{"children":[7],"name":"Fox_Tail4","rotation":[-0.04134279116988,-0.29550537467003,-0.01692260242999,0.954296052455902],"scale":[1,1.00000095367432,1],"translation":[0.0220821369439363,-0.00000001430511,-0.00000000953674]},{"children":[8],"name":"Fox_Tail5","rotation":[-0.05228644609451,-0.26603904366493,0.0493255518376827,0.96127849817276],"scale":[1,1.00000095367432,0.999998986721039],"translation":[0.0203104857355356,-0.00000002384186,-0.00000003814697]},{"name":"Fox_Tail6","rotation":[-0.12738375365734,-0.23584517836571,0.0951518937945366,0.958695232868195],"scale":[1.00000095367432,1.00000202655792,0.999998986721039],"translation":[0.0182018708437681,-0.00000004768371,-0.00000005722046]},{"children":[10],"name":"Fox_Spine1","rotation":[0.00000015076211923315,0.00000240899885284307,0.0271432865411043,0.999631524085999],"scale":[1,1,1],"translation":[0,0,0]},{"children":[11],"name":"Fox_Spine2","rotation":[0.0000000589139581563813,-0.00000001339802,-0.05994140729308,0.998201906681061],"scale":[1.00000095367432,1,1],"translation":[0.0335060358047485,0.00000000000000000888178399847791,-0.00000000000002]},{"children":[12,16,29],"name":"Fox_Ribcage","rotation":[0.000000198691751052138,-0.00000236065853,-0.05440898984671,0.998518705368042],"scale":[1,1,1],"translation":[0.0335060358047485,0.00000000000000000888178399847791,-0.00000000000002]},{"children":[13],"name":"Fox_F_LLeg1","rotation":[0.288179486989975,0.957547008991241,0.00736260693520308,-0.00146011437755],"scale":[1,0.999998986721039,1],"translation":[0.00239976402372122,0.00042313814628869,0.0251081809401512]},{"children":[14],"name":"Fox_F_LLeg2","rotation":[0.0741639733314514,-0.03204204887152,0.336532235145569,0.938199937343597],"scale":[1.00000095367432,1,1.00000095367432],"translation":[0.034010261297226,0.00000041663645333756,0.0000000667572024326546]},{"children":[15],"name":"Fox_F_LLegAnkle","rotation":[-0.05581563711166,0.0488992594182491,0.00647307839244604,0.997221946716309],"scale":[1,1.00000095367432,1],"translation":[0.0326986238360405,-0,0.00000000238418573772492]},{"name":"Fox_F_LLegDigit11","rotation":[-0.00013249712356,-0.00022301373247,0.509931683540344,0.86021488904953],"scale":[1,1,1],"translation":[0.0102812023833394,0.00093354220734909,-0.00000029325486]},{"children":[17],"name":"Fox_Spine","rotation":[0.0000000174483147930005,-0.00000003110462,-0.23813669383526,0.971231639385223],"scale":[1.00000095367432,1,1],"translation":[0,0,0]},{"children":[18,19,21,23,24,25,26,27,28],"name":"Fox_Head","rotation":[-0.00000004351143,0.0000000871588383688504,0.403171390295029,0.915124475955963],"scale":[1.00000095367432,1,1],"translation":[0.0369065664708614,0.00000000119209286886246,0]},{"name":"Fox_Jaw","rotation":[-0.00188641203567,-0.00024832747295,0.342058449983597,0.939676761627197],"scale":[1.00000095367432,1,1],"translation":[0.0127218384295702,0.0189217757433653,0.00000000401700139818217]},{"children":[20],"name":"Fox_LEar1","rotation":[0.235738083720207,-0.30094635486603,-0.32391455769539,0.865412175655365],"scale":[1.00000405311584,1,0.999997973442078],"translation":[0.0109870005398989,-0.03008012659848,0.0253105387091637]},{"name":"Fox_LEar2","rotation":[0.0112576028332114,0.0000510352329001762,-0.00483020208776,0.999924957752228],"scale":[0.9999920129776,1.00000703334808,1],"translation":[0.0164625458419323,0.0000000333786012163273,0.000000424385063979571]},{"children":[22],"name":"Fox_REar1","rotation":[-0.25989574193955,0.279564082622528,-0.39867797493935,0.833878874778748],"scale":[1.00000095367432,1,1.00000095367432],"translation":[0.0109869427978992,-0.03008020296693,-0.02531063742936]},{"name":"Fox_REar2","rotation":[-0.0067079057917,-0.0011851338204,0.125633850693703,0.992053270339966],"scale":[1.00000500679016,1.00000202655792,0.999993979930878],"translation":[0.0164626594632864,0.0000000476837129781416,0.000000275373452041094]},{"name":"Fox_LEye","rotation":[0.69289630651474,0.141422495245934,0.19450531899929,0.679751515388489],"scale":[1.00000095367432,1,1],"translation":[0.0160656496882439,-0.0020738504827,0.0185949541628361]},{"name":"Fox_REye","rotation":[-0.69291430711746,-0.14132457971573,0.19460029900074,0.679726302623749],"scale":[1,1,1],"translation":[0.0160656683146954,-0.00207386002876,-0.01859495788813]},{"name":"Fox_UpperLEyelid","rotation":[0.733772873878479,-0.03472803533077,0.032037265598774,0.677749931812286],"scale":[1,1,1],"translation":[0.0160656403750181,-0.00207388866693,0.018595052883029]},{"name":"Fox_LowerLEyelid","rotation":[0.636071145534515,0.28214618563652,0.36723604798317,0.617207169532776],"scale":[1.00000095367432,1,0.999998986721039],"translation":[0.0160656403750181,-0.00207388866693,0.018595052883029]},{"name":"Fox_UpperREyelid","rotation":[-0.73377275466919,0.0347281023859978,0.0320372842252254,0.677750051021576],"scale":[1,1,1],"translation":[0.0160656590014696,-0.00207390775904,-0.01859505847096]},{"name":"Fox_LowerREyelid","rotation":[-0.63607096672058,-0.28214603662491,0.367236077785492,0.617207407951355],"scale":[1.00000095367432,1,1],"translation":[0.0160656590014696,-0.00207390775904,-0.01859505847096]},{"children":[30],"name":"Fox_F_RLeg1","rotation":[0.288179039955139,0.957547068595886,-0.00738203478977,0.00141874642577022],"scale":[1.00000095367432,1,1],"translation":[0.002399783115834,0.0004231309867464,-0.02510814927518]},{"children":[31],"name":"Fox_F_RLeg2","rotation":[-0.07415960729122,0.0318786129355431,0.336385786533356,0.938258349895477],"scale":[1.00000095367432,0.999998986721039,1.00000095367432],"translation":[0.0340102724730968,0.000000419020636854839,-0.00000005483627]},{"children":[32],"name":"Fox_F_RLegAnkle","rotation":[0.0557993873953819,-0.04839532077312,0.00705950893461704,0.997243463993073],"scale":[1,1,1],"translation":[0.0326986275613308,0.00000000238418573772492,0]},{"name":"Fox_F_RLegDigit11","rotation":[-0.00006173153088,-0.00010398085578,0.509579062461853,0.860423803329468],"scale":[1.00000202655792,0.999997973442078,1],"translation":[0.01028120983392,0.00093354220734909,0.000000293254856842395]},{"children":[34],"name":"Fox_LLeg1","rotation":[0.809284150600433,0.561888813972473,0.0319313742220402,-0.16828697919846],"scale":[1.00000095367432,0.999998986721039,1],"translation":[0,0.00000000953674295089968,0.0192754901945591]},{"children":[35],"name":"Fox_LLeg2","rotation":[0.028100460767746,-0.05149515718222,0.96509051322937,-0.25526252388954],"scale":[1,0.999998986721039,0.999998986721039],"translation":[0.0358892679214478,-0.00000009059906,0.0000000596046447753906]},{"children":[36],"name":"Fox_LLegAnkle","rotation":[0.100843079388142,-0.20551547408104,0.956525921821594,0.18069913983345],"scale":[1,0.999998986721039,1],"translation":[0.0258319824934006,-0,0]},{"name":"Fox_LLegDigit11","rotation":[0.0000627811969025061,0.00026872698799707,0.228000640869141,0.973660945892334],"scale":[1,1,1],"translation":[0.0325394831597805,0.00077513052383437,0.00000000476837147544984]},{"children":[38],"name":"Fox_RLeg1","rotation":[0.807975471019745,0.559579491615295,-0.03445940092206,0.181270584464073],"scale":[1.00000095367432,0.999998986721039,1],"translation":[0.00000000357627860658738,0,-0.01927549391985]},{"children":[39],"name":"Fox_RLeg2","rotation":[-0.02844200283289,0.0516463220119476,0.964163780212402,-0.25867348909378],"scale":[1,1,1],"translation":[0.0358892679214478,-0.00000008225441,-0.00000008106232]},{"children":[40],"name":"Fox_RLegAnkle","rotation":[-0.10701322555542,0.217715173959732,0.952451050281525,0.184350922703743],"scale":[1,1,1],"translation":[0.0258319806307554,0.00000000119209286886246,-0.00000000238419]},{"name":"Fox_RLegDigit11","rotation":[-0.00018247132539,-0.00077842205064,0.227820068597794,0.973702907562256],"scale":[1,1,1],"translation":[0.0325394868850708,0.00077512889401987,-0.00000000238419]}],"samplers":[{}],"scene":0,"scenes":[{"name":"Root Scene","nodes":[0,1]}],"skins":[{"inverseBindMatrices":46,"joints":[17,23,2,9,10,25,26,18,19,16,11,12,20,13,33,14,15,34,35,36,3,4,5,6,7,8,24,27,28,21,29,22,30,37,31,32,38,39,40],"skeleton":2},{"joints":[2,3,4,5,6,7,8,9,10,11,12,13,14,15,16,17,18,19,20,21,22,23,24,25,26,27,28,29,30,31,32,33,34,35,36,37,38,39,40]}],"textures":[{"name":"Map #2","sampler":0,"source":0},{"name":"Map #4","sampler":0,"source":1}]}