{"accessors":[{"bufferView":0,"byteOffset":0,"componentType":5126,"count":16,"max":[0.5],"min":[0],"type":"SCALAR"},{"bufferView":1,"byteOffset":0,"componentType":5126,"count":16,"type":"VEC3"},{"bufferView":2,"byteOffset":0,"componentType":5126,"count":16,"type":"VEC4"},{"bufferView":3,"byteOffset":0,"componentType":5126,"count":16,"type":"VEC4"},{"bufferView":4,"byteOffset":0,"componentType":5126,"count":16,"type":"VEC4"},{"bufferView":5,"byteOffset":0,"componentType":5126,"count":16,"type":"VEC4"},{"bufferView":6,"byteOffset":0,"componentType":5126,"count":16,"type":"VEC4"},{"bufferView":7,"byteOffset":0,"componentType":5126,"count":16,"type":"VEC4"},{"bufferView":8,"byteOffset":0,"componentType":5126,"count":16,"type":"VEC4"},{"bufferView":9,"byteOffset":0,"componentType":5126,"count":16,"type":"VEC4"},{"bufferView":10,"byteOffset":0,"componentType":5126,"count":16,"type":"VEC4"},{"bufferView":11,"byteOffset":0,"componentType":5126,"count":16,"type":"VEC4"},{"bufferView":12,"byteOffset":0,"componentType":5126,"count":16,"type":"VEC4"},{"bufferView":13,"byteOffset":0,"componentType":5126,"count":16,"type":"VEC4"},{"bufferView":14,"byteOffset":0,"componentType":5126,"count":16,"type":"VEC4"},{"bufferView":15,"byteOffset":0,"componentType":5126,"count":16,"type":"VEC4"},{"bufferView":16,"byteOffset":0,"componentType":5126,"count":16,"type":"VEC4"},{"bufferView":17,"byteOffset":0,"componentType":5126,"count":16,"type":"VEC4"},{"bufferView":18,"byteOffset":0,"componentType":5126,"count":16,"type":"VEC4"},{"bufferView":19,"byteOffset":0,"componentType":5126,"count":16,"type":"VEC4"},{"bufferView":20,"byteOffset":0,"componentType":5126,"count":16,"type":"VEC4"},{"bufferView":21,"byteOffset":0,"componentType":5126,"count":16,"type":"VEC4"},{"bufferView":22,"byteOffset":0,"componentType":5126,"count":16,"type":"VEC4"},{"bufferView":23,"byteOffset":0,"componentType":5126,"count":16,"type":"VEC4"},{"bufferView":24,"byteOffset":0,"componentType":5126,"count":16,"type":"VEC4"},{"bufferView":25,"byteOffset":0,"componentType":5126,"count":16,"type":"VEC4"},{"bufferView":26,"byteOffset":0,"componentType":5126,"count":16,"type":"VEC4"},{"bufferView":27,"byteOffset":0,"componentType":5126,"count":16,"type":"VEC4"},{"bufferView":28,"byteOffset":0,"componentType":5126,"count":16,"type":"VEC4"},{"bufferView":29,"byteOffset":0,"componentType":5126,"count":16,"type":"VEC4"},{"bufferView":30,"byteOffset":0,"componentType":5126,"count":16,"type":"VEC4"},{"bufferView":31,"byteOffset":0,"componentType":5126,"count":16,"type":"VEC4"},{"bufferView":32,"byteOffset":0,"componentType":5126,"count":16,"type":"VEC4"},{"bufferView":33,"byteOffset":0,"componentType":5126,"count":16,"type":"VEC4"},{"bufferView":34,"byteOffset":0,"componentType":5123,"count":10350,"type":"SCALAR"},{"bufferView":35,"byteOffset":0,"componentType":5126,"count":2266,"max":[0.0510667748749256,0.181155368685722,0.169082224369049],"min":[-0.05106677487493,-0.09766451269388,0.000000000745058015283462],"type":"VEC3"},{"bufferView":36,"byteOffset":0,"componentType":5126,"count":2266,"type":"VEC3"},{"bufferView":37,"byteOffset":0,"componentType":5126,"count":2266,"type":"VEC4"},{"bufferView":38,"byteOffset":0,"componentType":5126,"count":2266,"type":"VEC2"},{"bufferView":39,"byteOffset":0,"componentType":5123,"count":2266,"type":"VEC4"},{"bufferView":40,"byteOffset":0,"componentType":5126,"count":2266,"type":"VEC4"},{"bufferView":41,"byteOffset":0,"componentType":5126,"count":38,"type":"MAT4"}],"animations":[{"channels":[{"sampler":0,"target":{"node":2,"path":"translation"}},{"sampler":1,"target":{"node":2,"path":"rotation"}},{"sampler":2,"target":{"node":3,"path":"rotation"}},{"sampler":3,"target":{"node":4,"path":"rotation"}},{"sampler":4,"target":{"node":5,"path":"rotation"}},{"sampler":5,"target":{"node":6,"path":"rotation"}},{"sampler":6,"target":{"node":7,"path":"rotation"}},{"sampler":7,"target":{"node":8,"path":"rotation"}},{"sampler":8,"target":{"node":9,"path":"rotation"}},{"sampler":9,"target":{"node":10,"path":"rotation"}},{"sampler":10,"target":{"node":11,"path":"rotation"}},{"sampler":11,"target":{"node":12,"path":"rotation"}},{"sampler":12,"target":{"node":13,"path":"rotation"}},{"sampler":13,"target":{"node":14,"path":"rotation"}},{"sampler":14,"target":{"node":15,"path":"rotation"}},{"sampler":15,"target":{"node":16,"path":"rotation"}},{"sampler":16,"target":{"node":17,"path":"rotation"}},{"sampler":17,"target":{"node":19,"path":"rotation"}},{"sampler":18,"target":{"node":20,"path":"rotation"}},{"sampler":19,"target":{"node":21,"path":"rotation"}},{"sampler":20,"target":{"node":22,"path":"rotation"}},{"sampler":21,"target":{"node":29,"path":"rotation"}},{"sampler":22,"target":{"node":30,"path":"rotation"}},{"sampler":23,"target":{"node":31,"path":"rotation"}},{"sampler":24,"target":{"node":32,"path":"rotation"}},{"sampler":25,"target":{"node":33,"path":"rotation"}},{"sampler":26,"target":{"node":34,"path":"rotation"}},{"sampler":27,"target":{"node":35,"path":"rotation"}},{"sampler":28,"target":{"node":36,"path":"rotation"}},{"sampler":29,"target":{"node":37,"path":"rotation"}},{"sampler":30,"target":{"node":38,"path":"rotation"}},{"sampler":31,"target":{"node":39,"path":"rotation"}},{"sampler":32,"target":{"node":40,"path":"rotation"}}],"name":"Take 001","samplers":[{"input":0,"interpolation":"LINEAR","output":1},{"input":0,"interpolation":"LINEAR","output":2},{"input":0,"interpolation":"LINEAR","output":3},{"input":0,"interpolation":"LINEAR","output":4},{"input":0,"interpolation":"LINEAR","output":5},{"input":0,"interpolation":"LINEAR","output":6},{"input":0,"interpolation":"LINEAR","output":7},{"input":0,"interpolation":"LINEAR","output":8},{"input":0,"interpolation":"LINEAR","output":9},{"input":0,"interpolation":"LINEAR","output":10},{"input":0,"interpolation":"LINEAR","output":11},{"input":0,"interpolation":"LINEAR","output":12},{"input":0,"interpolation":"LINEAR","output":13},{"input":0,"interpolation":"LINEAR","output":14},{"input":0,"interpolation":"LINEAR","output":15},{"input":0,"interpolation":"LINEAR","output":16},{"input":0,"interpolation":"LINEAR","output":17},{"input":0,"interpolation":"LINEAR","output":18},{"input":0,"interpolation":"LINEAR","output":19},{"input":0,"interpolation":"LINEAR","output":20},{"input":0,"interpolation":"LINEAR","output":21},{"input":0,"interpolation":"LINEAR","output":22},{"input":0,"interpolation":"LINEAR","output":23},{"input":0,"interpolation":"LINEAR","output":24},{"input":0,"interpolation":"LINEAR","output":25},{"input":0,"interpolation":"LINEAR","output":26},{"input":0,"interpolation":"LINEAR","output":27},{"input":0,"interpolation":"LINEAR","output":28},{"input":0,"interpolation":"LINEAR","output":29},{"input":0,"interpolation":"LINEAR","output":30},{"input":0,"interpolation":"LINEAR","output":31},{"input":0,"interpolation":"LINEAR","output":32},{"input":0,"interpolation":"LINEAR","output":33}]}],"asset":{"generator":"FBX2glTF v0.13.1","version":"2.0"},"bufferViews":[{"buffer":0,"byteLength":64,"byteOffset":0},{"buffer":0,"byteLength":192,"byteOffset":64},{"buffer":0,"byteLength":256,"byteOffset":256},{"buffer":0,"byteLength":256,"byteOffset":512},{"buffer":0,"byteLength":256,"byteOffset":768},{"buffer":0,"byteLength":256,"byteOffset":1024},{"buffer":0,"byteLength":256,"byteOffset":1280},{"buffer":0,"byteLength":256,"byteOffset":1536},{"buffer":0,"byteLength":256,"byteOffset":1792},{"buffer":0,"byteLength":256,"byteOffset":2048},{"buffer":0,"byteLength":256,"byteOffset":2304},{"buffer":0,"byteLength":256,"byteOffset":2560},{"buffer":0,"byteLength":256,"byteOffset":2816},{"buffer":0,"byteLength":256,"byteOffset":3072},{"buffer":0,"byteLength":256,"byteOffset":3328},{"buffer":0,"byteLength":256,"byteOffset":3584},{"buffer":0,"byteLength":256,"byteOffset":3840},{"buffer":0,"byteLength":256,"byteOffset":4096},{"buffer":0,"byteLength":256,"byteOffset":4352},{"buffer":0,"byteLength":256,"byteOffset":4608},{"buffer":0,"byteLength":256,"byteOffset":4864},{"buffer":0,"byteLength":256,"byteOffset":5120},{"buffer":0,"byteLength":256,"byteOffset":5376},{"buffer":0,"byteLength":256,"byteOffset":5632},{"buffer":0,"byteLength":256,"byteOffset":5888},{"buffer":0,"byteLength":256,"byteOffset":6144},{"buffer":0,"byteLength":256,"byteOffset":6400},{"buffer":0,"byteLength":256,"byteOffset":6656},{"buffer":0,"byteLength":256,"byteOffset":6912},{"buffer":0,"byteLength":256,"byteOffset":7168},{"buffer":0,"byteLength":256,"byteOffset":7424},{"buffer":0,"byteLength":256,"byteOffset":7680},{"buffer":0,"byteLength":256,"byteOffset":7936},{"buffer":0,"byteLength":256,"byteOffset":8192},{"buffer":0,"byteLength":20700,"byteOffset":8448,"target":34963},{"buffer":0,"byteLength":27192,"byteOffset":29148,"target":34962},{"buffer":0,"byteLength":27192,"byteOffset":56340,"target":34962},{"buffer":0,"byteLength":36256,"byteOffset":83532,"target":34962},{"buffer":0,"byteLength":18128,"byteOffset":119788,"target":34962},{"buffer":0,"byteLength":18128,"byteOffset":137916,"target":34962},{"buffer":0,"byteLength":36256,"byteOffset":156044,"target":34962},{"buffer":0,"byteLength":2432,"byteOffset":192300}],"buffers":[{"byteLength":194732,"uri":"Fox_Run_Right_InPlace.bin"}],"images":[{"name":"1","uri":"1.psd"}],"materials":[{"alphaMode":"OPAQUE","doubleSided":false,"extras":{"fromFBX":{"isTruePBR":true,"shadingModel":"Metallic/Roughness"}},"name":"08 - Default","pbrMetallicRoughness":{"baseColorFactor":[0.443137288093567,0.443137288093567,0.443137288093567,1],"baseColorTexture":{"index":0,"texCoord":0},"metallicFactor":0,"roughnessFactor":0.680000066757202}}],"meshes":[{"name":"fox","primitives":[{"attributes":{"JOINTS_0":39,"NORMAL":36,"POSITION":35,"TANGENT":37,"TEXCOORD_0":38,"WEIGHTS_0":40},"indices":34,"material":0,"mode":4}]}],"nodes":[{"mesh":0,"name":"fox","rotation":[-0.70710676908493,-0,0,0.70710676908493],"scale":[1,1,1],"skin":0,"translation":[0,0,0]},{"children":[2],"name":"FoxTransform","rotation":[-0.70710682868957,-0.00000027957356,-0.00000031048233,0.70710676908493],"scale":[1,1,1],"translation":[0,0,0]},{"children":[3,9,33,37],"name":"Fox_Pelvis","rotation":[-0.54840910434723,0.446371287107468,-0.38660168647766,0.592063546180725],"scale":[1,1,1],"translation":[-0.00531644281,0.0343327522277832,0.0697896629571915]},{"children":[4],"name":"Fox_Tail1","rotation":[-0.04362926259637,0.00076393934432417,0.998825907707214,0.021041190251708],"scale":[1,1,1],"translation":[-0.01636432670057,-0.00745288841426,0.00000000238418573772492]},{"children":[5],"name":"Fox_Tail2","rotation":[-0.01031211949885,0.0820536985993385,0.0481575839221478,0.995410323143005],"scale":[1,1,1],"translation":[0.026734322309494,0.00000000476837147544984,-0.00000000238419]},{"children":[6],"name":"Fox_Tail3","rotation":[-0.01615624502301,0.121865391731262,0.0346180275082588,0.991811156272888],"scale":[1,1,1],"translation":[0.0208617020398378,0.00000000000000000888178399847791,0.00000000476837147544984]},{"children":[7],"name":"Fox_Tail4","rotation":[0.0330740287899971,0.0720415934920311,-0.0615725889802,0.994949698448181],"scale":[1,1,1],"translation":[0.0220821760594845,0.00000000476837147544984,0]},{"children":[8],"name":"Fox_Tail5","rotation":[0.0286956019699574,0.041588332504034,-0.04717371985316,0.997607946395874],"scale":[1,1,1],"translation":[0.0203105248510838,0.0000000000000000177635679969558,0.00000000953674295089968]},{"name":"Fox_Tail6","rotation":[0.0151576893404126,0.0228506978601217,-0.02693869173527,0.999260902404785],"scale":[0.999998986721039,1.00000095367432,1],"translation":[0.0182019509375095,0,-0.00000000476837]},{"children":[10],"name":"Fox_Spine1","rotation":[0.0124470824375749,0.048101432621479,0.035890880972147,0.998119831085205],"scale":[1,1,1],"translation":[0,0,0]},{"children":[11],"name":"Fox_Spine2","rotation":[-0.02554572746158,0.201540440320969,-0.15224026143551,0.967239260673523],"scale":[1,1,1],"translation":[0.0335060432553291,-0.00000000476837,-0.00000000029802]},{"children":[12,16,29],"name":"Fox_Ribcage","rotation":[0.0123149938881397,0.0489295087754726,-0.10570500791073,0.993116676807404],"scale":[1,1,1],"translation":[0.0335060320794582,-0.00000000476837,-0.00000000014901]},{"children":[13],"name":"Fox_F_LLeg1","rotation":[0.560374915599823,0.824580430984497,-0.00697062537074,0.0774500295519829],"scale":[1,1,1],"translation":[0.00239976868033409,0.00042314050369896,0.0251081697642803]},{"children":[14],"name":"Fox_F_LLeg2","rotation":[0.0696314051747322,-0.04439562931657,0.467742681503296,0.879998445510864],"scale":[1.00000095367432,0.999998986721039,1],"translation":[0.0340102724730968,0.000000417232513427734,0.0000000548362706354055]},{"children":[15],"name":"Fox_F_LLegAnkle","rotation":[0.107708692550659,-0.00635543465614,-0.12104739993811,0.986765384674072],"scale":[1,1,1],"translation":[0.0326986201107502,0,0.00000000238418573772492]},{"name":"Fox_F_LLegDigit11","rotation":[0.0016889339312911,-0.01425006426871,0.491482853889465,0.870769023895264],"scale":[1.00000500679016,0.9999960064888,1],"translation":[0.0102812023833394,0.00093354220734909,-0.00000029563904]},{"children":[17],"name":"Fox_Spine","rotation":[-0.01376816816628,0.027303721755743,-0.27954664826393,0.95964503288269],"scale":[1,1,1],"translation":[0,0,0]},{"children":[18,19,21,23,24,25,26,27,28],"name":"Fox_Head","rotation":[-0.09142678231001,0.0958717465400696,0.197447657585144,0.971320867538452],"scale":[1,1,1],"translation":[0.0369065627455711,-0.00000000238419,-0.00000000178814]},{"name":"Fox_Jaw","rotation":[0.0000000202537808746683,-0.00000003181717,0.342020153999329,0.939692616462708],"scale":[1,1,1],"translation":[0.0127218533307314,0.0189216509461403,-0.00000000476837]},{"children":[20],"name":"Fox_LEar1","rotation":[0.266564249992371,-0.27158752083778,-0.42254549264908,0.822580695152283],"scale":[1.00000095367432,0.999998986721039,1],"translation":[0.0109870238229632,-0.03008018434048,0.025310629978776]},{"name":"Fox_LEar2","rotation":[0.00270582968369126,-0.0022565277759,0.313237220048904,0.949668347835541],"scale":[0.999997019767761,1.00000202655792,1],"translation":[0.0164626874029636,0.00000000476837147544984,-0]},{"children":[22],"name":"Fox_REar1","rotation":[-0.26054602861404,0.270477950572968,-0.42218869924545,0.825053989887238],"scale":[1.00000095367432,0.999998986721039,1],"translation":[0.0109870051965117,-0.03008018434048,-0.02531061880291]},{"name":"Fox_REar2","rotation":[0.0032545062713325,-0.00152880733367,0.313756674528122,0.949496626853943],"scale":[1.00000298023224,0.9999960064888,1],"translation":[0.0164626874029636,0,0.00000000000000000888178399847791]},{"name":"Fox_LEye","rotation":[0.690345466136932,0.153045833110809,0.212631046772003,0.674379825592041],"scale":[1,0.999998986721039,1],"translation":[0.0160656161606312,-0.00207386957482,0.0185948815196753]},{"name":"Fox_REye","rotation":[-0.69034558534622,-0.15304584801197,0.212630972266197,0.674379706382751],"scale":[1,1,1],"translation":[0.0160656161606312,-0.00207387912087,-0.01859488151968]},{"name":"Fox_UpperLEyelid","rotation":[0.733772754669189,-0.03472799435258,0.0320371650159359,0.677750051021576],"scale":[1,0.999998986721039,1.00000095367432],"translation":[0.0160656161606312,-0.00207387912087,0.018594877794385]},{"name":"Fox_LowerLEyelid","rotation":[0.619447112083435,0.308799743652344,0.394631505012512,0.604312837123871],"scale":[1,0.999998986721039,1],"translation":[0.0160656161606312,-0.00207387912087,0.018594877794385]},{"name":"Fox_UpperREyelid","rotation":[-0.73377275466919,0.034728042781353,0.0320372618734837,0.677750051021576],"scale":[1,0.999998986721039,1.00000095367432],"translation":[0.0160656068474054,-0.00207388866693,-0.01859487406909]},{"name":"Fox_LowerREyelid","rotation":[-0.61944717168808,-0.3087996840477,0.394631385803223,0.604312837123871],"scale":[1,0.999998986721039,1],"translation":[0.0160656068474054,-0.00207388866693,-0.01859487406909]},{"children":[30],"name":"Fox_F_RLeg1","rotation":[0.529826581478119,0.847579538822174,0.0295460801571608,0.00444227084517479],"scale":[1,1,1],"translation":[0.00239977356977761,0.0004231309867464,-0.02510816790164]},{"children":[31],"name":"Fox_F_RLeg2","rotation":[-0.07265644520521,0.0365886352956295,0.385686755180359,0.919036448001862],"scale":[0.999998986721039,1.00000095367432,1],"translation":[0.0340102761983871,0.000000417232513427734,-0.00000005722046]},{"children":[32],"name":"Fox_F_RLegAnkle","rotation":[0.171263977885246,-0.14947763085365,-0.0867820084095,0.96994537115097],"scale":[1,1,1],"translation":[0.0326986275613308,0.00000000953674295089968,0.00000000476837147544984]},{"name":"Fox_F_RLegDigit11","rotation":[-0.00058938132133,-0.00396973686293,0.528664231300354,0.848821580410004],"scale":[0.999998986721039,1.00000202655792,1.00000095367432],"translation":[0.0102812051773071,0.00093354698037728,0.000000292062765083756]},{"children":[34],"name":"Fox_LLeg1","rotation":[0.593531012535095,0.804188668727875,-0.00574494106695,0.0311203170567751],"scale":[0.999998986721039,1.00000095367432,1],"translation":[0.00000000953674295089968,0.00000000476837147544984,0.0192754827439785]},{"children":[35],"name":"Fox_LLeg2","rotation":[-0.09175968170166,0.0290562957525253,-0.54584503173828,0.832339525222778],"scale":[1.00000095367432,1,1],"translation":[0.0358892716467381,-0.00000009536743,0.0000000643730118099484]},{"children":[36],"name":"Fox_LLegAnkle","rotation":[0.00137446424923837,-0.13672396540642,0.497380077838898,0.856689989566803],"scale":[1.00000298023224,0.999997019767761,1],"translation":[0.0258319843560457,0.00000000000000000444089199923895,0]},{"name":"Fox_LLegDigit11","rotation":[0.0000990570697467774,0.00032286762143485,0.757962644100189,0.652297914028168],"scale":[1.00000500679016,0.999997019767761,1],"translation":[0.0325394868850708,0.00077512738062068,0.00000000476837147544984]},{"children":[38],"name":"Fox_RLeg1","rotation":[0.754339098930359,0.652343034744263,0.0228978078812361,0.0699764788150787],"scale":[0.999998986721039,1.00000095367432,1],"translation":[0.00000000476837147544984,-0.00000000476837,-0.01927548274398]},{"children":[39],"name":"Fox_RLeg2","rotation":[0.0751695781946182,-0.03871729597449,-0.72592157125473,0.68256014585495],"scale":[0.999994993209839,1.00000500679016,1.00000095367432],"translation":[0.0358892753720284,-0.00000008583068,-0.00000007152557]},{"children":[40],"name":"Fox_RLegAnkle","rotation":[-0.14251187443733,-0.01181435398757,0.579998791217804,0.801967680454254],"scale":[0.999990999698639,1.0000079870224,1],"translation":[0.0258319824934006,-0.00000000476837,0.00000000238418573772492]},{"name":"Fox_RLegDigit11","rotation":[-0.00009381044947,-0.00032435241155,0.768568694591522,0.639767169952393],"scale":[0.999987006187439,1.00001204013824,1],"translation":[0.0325394757091999,0.00077512738062068,-0.00000000283122]}],"samplers":[{}],"scene":0,"scenes":[{"name":"Root Scene","nodes":[0,1]}],"skins":[{"inverseBindMatrices":41,"joints":[17,25,26,18,11,12,19,20,13,10,9,33,14,2,34,35,36,3,4,5,6,7,8,15,27,28,29,21,22,30,37,31,38,39,40,32,23,24],"skeleton":17},{"joints":[2,3,4,5,6,7,8,9,10,11,12,13,14,15,16,17,18,19,20,21,22,23,24,25,26,27,28,29,30,31,32,33,34,35,36,37,38,39,40]}],"textures":[{"name":"Map #4","sampler":0,"source":0}]}