{"accessors":[{"bufferView":0,"byteOffset":0,"componentType":5126,"count":31,"max":[1],"min":[0],"type":"SCALAR"},{"bufferView":1,"byteOffset":0,"componentType":5126,"count":31,"type":"VEC3"},{"bufferView":2,"byteOffset":0,"componentType":5126,"count":31,"type":"VEC4"},{"bufferView":3,"byteOffset":0,"componentType":5126,"count":31,"type":"VEC3"},{"bufferView":4,"byteOffset":0,"componentType":5126,"count":31,"type":"VEC4"},{"bufferView":5,"byteOffset":0,"componentType":5126,"count":31,"type":"VEC4"},{"bufferView":6,"byteOffset":0,"componentType":5126,"count":31,"type":"VEC4"},{"bufferView":7,"byteOffset":0,"componentType":5126,"count":31,"type":"VEC4"},{"bufferView":8,"byteOffset":0,"componentType":5126,"count":31,"type":"VEC4"},{"bufferView":9,"byteOffset":0,"componentType":5126,"count":31,"type":"VEC4"},{"bufferView":10,"byteOffset":0,"componentType":5126,"count":31,"type":"VEC4"},{"bufferView":11,"byteOffset":0,"componentType":5126,"count":31,"type":"VEC3"},{"bufferView":12,"byteOffset":0,"componentType":5126,"count":31,"type":"VEC4"},{"bufferView":13,"byteOffset":0,"componentType":5126,"count":31,"type":"VEC4"},{"bufferView":14,"byteOffset":0,"componentType":5126,"count":31,"type":"VEC4"},{"bufferView":15,"byteOffset":0,"componentType":5126,"count":31,"type":"VEC4"},{"bufferView":16,"byteOffset":0,"componentType":5126,"count":31,"type":"VEC4"},{"bufferView":17,"byteOffset":0,"componentType":5126,"count":31,"type":"VEC4"},{"bufferView":18,"byteOffset":0,"componentType":5126,"count":31,"type":"VEC4"},{"bufferView":19,"byteOffset":0,"componentType":5126,"count":31,"type":"VEC4"},{"bufferView":20,"byteOffset":0,"componentType":5126,"count":31,"type":"VEC4"},{"bufferView":21,"byteOffset":0,"componentType":5126,"count":31,"type":"VEC4"},{"bufferView":22,"byteOffset":0,"componentType":5126,"count":31,"type":"VEC4"},{"bufferView":23,"byteOffset":0,"componentType":5126,"count":31,"type":"VEC4"},{"bufferView":24,"byteOffset":0,"componentType":5126,"count":31,"type":"VEC4"},{"bufferView":25,"byteOffset":0,"componentType":5126,"count":31,"type":"VEC4"},{"bufferView":26,"byteOffset":0,"componentType":5126,"count":31,"type":"VEC4"},{"bufferView":27,"byteOffset":0,"componentType":5126,"count":31,"type":"VEC4"},{"bufferView":28,"byteOffset":0,"componentType":5126,"count":31,"type":"VEC4"},{"bufferView":29,"byteOffset":0,"componentType":5126,"count":31,"type":"VEC4"},{"bufferView":30,"byteOffset":0,"componentType":5126,"count":31,"type":"VEC4"},{"bufferView":31,"byteOffset":0,"componentType":5126,"count":31,"type":"VEC4"},{"bufferView":32,"byteOffset":0,"componentType":5126,"count":31,"type":"VEC4"},{"bufferView":33,"byteOffset":0,"componentType":5126,"count":31,"type":"VEC4"},{"bufferView":34,"byteOffset":0,"componentType":5126,"count":31,"type":"VEC4"},{"bufferView":35,"byteOffset":0,"componentType":5126,"count":31,"type":"VEC4"},{"bufferView":36,"byteOffset":0,"componentType":5126,"count":31,"type":"VEC4"},{"bufferView":37,"byteOffset":0,"componentType":5123,"count":10350,"type":"SCALAR"},{"bufferView":38,"byteOffset":0,"componentType":5126,"count":2266,"max":[0.0510667748749256,0.181155368685722,0.169082224369049],"min":[-0.05106677487493,-0.09766451269388,0.000000000745058015283462],"type":"VEC3"},{"bufferView":39,"byteOffset":0,"componentType":5126,"count":2266,"type":"VEC3"},{"bufferView":40,"byteOffset":0,"componentType":5126,"count":2266,"type":"VEC4"},{"bufferView":41,"byteOffset":0,"componentType":5126,"count":2266,"type":"VEC2"},{"bufferView":42,"byteOffset":0,"componentType":5123,"count":2266,"type":"VEC4"},{"bufferView":43,"byteOffset":0,"componentType":5126,"count":2266,"type":"VEC4"},{"bufferView":44,"byteOffset":0,"componentType":5126,"count":39,"type":"MAT4"}],"animations":[{"channels":[{"sampler":0,"target":{"node":1,"path":"translation"}},{"sampler":1,"target":{"node":1,"path":"rotation"}},{"sampler":2,"target":{"node":2,"path":"translation"}},{"sampler":3,"target":{"node":2,"path":"rotation"}},{"sampler":4,"target":{"node":3,"path":"rotation"}},{"sampler":5,"target":{"node":4,"path":"rotation"}},{"sampler":6,"target":{"node":5,"path":"rotation"}},{"sampler":7,"target":{"node":6,"path":"rotation"}},{"sampler":8,"target":{"node":7,"path":"rotation"}},{"sampler":9,"target":{"node":8,"path":"rotation"}},{"sampler":10,"target":{"node":8,"path":"scale"}},{"sampler":11,"target":{"node":9,"path":"rotation"}},{"sampler":12,"target":{"node":10,"path":"rotation"}},{"sampler":13,"target":{"node":11,"path":"rotation"}},{"sampler":14,"target":{"node":12,"path":"rotation"}},{"sampler":15,"target":{"node":13,"path":"rotation"}},{"sampler":16,"target":{"node":14,"path":"rotation"}},{"sampler":17,"target":{"node":15,"path":"rotation"}},{"sampler":18,"target":{"node":16,"path":"rotation"}},{"sampler":19,"target":{"node":17,"path":"rotation"}},{"sampler":20,"target":{"node":19,"path":"rotation"}},{"sampler":21,"target":{"node":20,"path":"rotation"}},{"sampler":22,"target":{"node":21,"path":"rotation"}},{"sampler":23,"target":{"node":22,"path":"rotation"}},{"sampler":24,"target":{"node":29,"path":"rotation"}},{"sampler":25,"target":{"node":30,"path":"rotation"}},{"sampler":26,"target":{"node":31,"path":"rotation"}},{"sampler":27,"target":{"node":32,"path":"rotation"}},{"sampler":28,"target":{"node":33,"path":"rotation"}},{"sampler":29,"target":{"node":34,"path":"rotation"}},{"sampler":30,"target":{"node":35,"path":"rotation"}},{"sampler":31,"target":{"node":36,"path":"rotation"}},{"sampler":32,"target":{"node":37,"path":"rotation"}},{"sampler":33,"target":{"node":38,"path":"rotation"}},{"sampler":34,"target":{"node":39,"path":"rotation"}},{"sampler":35,"target":{"node":40,"path":"rotation"}}],"name":"Take 001","samplers":[{"input":0,"interpolation":"LINEAR","output":1},{"input":0,"interpolation":"LINEAR","output":2},{"input":0,"interpolation":"LINEAR","output":3},{"input":0,"interpolation":"LINEAR","output":4},{"input":0,"interpolation":"LINEAR","output":5},{"input":0,"interpolation":"LINEAR","output":6},{"input":0,"interpolation":"LINEAR","output":7},{"input":0,"interpolation":"LINEAR","output":8},{"input":0,"interpolation":"LINEAR","output":9},{"input":0,"interpolation":"LINEAR","output":10},{"input":0,"interpolation":"LINEAR","output":11},{"input":0,"interpolation":"LINEAR","output":12},{"input":0,"interpolation":"LINEAR","output":13},{"input":0,"interpolation":"LINEAR","output":14},{"input":0,"interpolation":"LINEAR","output":15},{"input":0,"interpolation":"LINEAR","output":16},{"input":0,"interpolation":"LINEAR","output":17},{"input":0,"interpolation":"LINEAR","output":18},{"input":0,"interpolation":"LINEAR","output":19},{"input":0,"interpolation":"LINEAR","output":20},{"input":0,"interpolation":"LINEAR","output":21},{"input":0,"interpolation":"LINEAR","output":22},{"input":0,"interpolation":"LINEAR","output":23},{"input":0,"interpolation":"LINEAR","output":24},{"input":0,"interpolation":"LINEAR","output":25},{"input":0,"interpolation":"LINEAR","output":26},{"input":0,"interpolation":"LINEAR","output":27},{"input":0,"interpolation":"LINEAR","output":28},{"input":0,"interpolation":"LINEAR","output":29},{"input":0,"interpolation":"LINEAR","output":30},{"input":0,"interpolation":"LINEAR","output":31},{"input":0,"interpolation":"LINEAR","output":32},{"input":0,"interpolation":"LINEAR","output":33},{"input":0,"interpolation":"LINEAR","output":34},{"input":0,"interpolation":"LINEAR","output":35},{"input":0,"interpolation":"LINEAR","output":36}]}],"asset":{"generator":"FBX2glTF v0.13.1","version":"2.0"},"bufferViews":[{"buffer":0,"byteLength":124,"byteOffset":0},{"buffer":0,"byteLength":372,"byteOffset":124},{"buffer":0,"byteLength":496,"byteOffset":496},{"buffer":0,"byteLength":372,"byteOffset":992},{"buffer":0,"byteLength":496,"byteOffset":1364},{"buffer":0,"byteLength":496,"byteOffset":1860},{"buffer":0,"byteLength":496,"byteOffset":2356},{"buffer":0,"byteLength":496,"byteOffset":2852},{"buffer":0,"byteLength":496,"byteOffset":3348},{"buffer":0,"byteLength":496,"byteOffset":3844},{"buffer":0,"byteLength":496,"byteOffset":4340},{"buffer":0,"byteLength":372,"byteOffset":4836},{"buffer":0,"byteLength":496,"byteOffset":5208},{"buffer":0,"byteLength":496,"byteOffset":5704},{"buffer":0,"byteLength":496,"byteOffset":6200},{"buffer":0,"byteLength":496,"byteOffset":6696},{"buffer":0,"byteLength":496,"byteOffset":7192},{"buffer":0,"byteLength":496,"byteOffset":7688},{"buffer":0,"byteLength":496,"byteOffset":8184},{"buffer":0,"byteLength":496,"byteOffset":8680},{"buffer":0,"byteLength":496,"byteOffset":9176},{"buffer":0,"byteLength":496,"byteOffset":9672},{"buffer":0,"byteLength":496,"byteOffset":10168},{"buffer":0,"byteLength":496,"byteOffset":10664},{"buffer":0,"byteLength":496,"byteOffset":11160},{"buffer":0,"byteLength":496,"byteOffset":11656},{"buffer":0,"byteLength":496,"byteOffset":12152},{"buffer":0,"byteLength":496,"byteOffset":12648},{"buffer":0,"byteLength":496,"byteOffset":13144},{"buffer":0,"byteLength":496,"byteOffset":13640},{"buffer":0,"byteLength":496,"byteOffset":14136},{"buffer":0,"byteLength":496,"byteOffset":14632},{"buffer":0,"byteLength":496,"byteOffset":15128},{"buffer":0,"byteLength":496,"byteOffset":15624},{"buffer":0,"byteLength":496,"byteOffset":16120},{"buffer":0,"byteLength":496,"byteOffset":16616},{"buffer":0,"byteLength":496,"byteOffset":17112},{"buffer":0,"byteLength":20700,"byteOffset":17608,"target":34963},{"buffer":0,"byteLength":27192,"byteOffset":38308,"target":34962},{"buffer":0,"byteLength":27192,"byteOffset":65500,"target":34962},{"buffer":0,"byteLength":36256,"byteOffset":92692,"target":34962},{"buffer":0,"byteLength":18128,"byteOffset":128948,"target":34962},{"buffer":0,"byteLength":18128,"byteOffset":147076,"target":34962},{"buffer":0,"byteLength":36256,"byteOffset":165204,"target":34962},{"buffer":0,"byteLength":2496,"byteOffset":201460}],"buffers":[{"byteLength":203956,"uri":"Fox_Walk_Right.bin"}],"images":[{"name":"toonfoxNM","uri":"toonfoxNM.png"},{"name":"1","uri":"1.psd"}],"materials":[{"alphaMode":"OPAQUE","doubleSided":false,"extras":{"fromFBX":{"isTruePBR":false,"shadingModel":"Phong"}},"name":"08 - Default","normalTexture":{"index":0,"texCoord":0},"pbrMetallicRoughness":{"baseColorFactor":[1,1,1,1],"baseColorTexture":{"index":1,"texCoord":0},"metallicFactor":0.400000005960464,"roughnessFactor":0.422773718833923}}],"meshes":[{"name":"fox","primitives":[{"attributes":{"JOINTS_0":42,"NORMAL":39,"POSITION":38,"TANGENT":40,"TEXCOORD_0":41,"WEIGHTS_0":43},"indices":37,"material":0,"mode":4}]}],"nodes":[{"mesh":0,"name":"fox","rotation":[-0.70710676908493,-0,0,0.70710676908493],"scale":[1,1,1],"skin":0,"translation":[0,0,0]},{"children":[2],"name":"FoxTransform","rotation":[-0.70710682868957,-0.00000027957375,-0.00000031048214,0.70710676908493],"scale":[1,1,1],"translation":[0,0,0]},{"children":[3,9,33,37],"name":"Fox_Pelvis","rotation":[-0.60695004463196,0.362783074378967,-0.36278304457665,0.606950223445892],"scale":[1,1,1],"translation":[-0.00839268416166,0.0334157012403011,0.0704614222049713]},{"children":[4],"name":"Fox_Tail1","rotation":[-0.03080794401467,0.00421327585354447,0.992308437824249,0.119820982217789],"scale":[1,1,1],"translation":[-0.01636433787644,-0.00745288375765,-0]},{"children":[5],"name":"Fox_Tail2","rotation":[0.0198688562959433,0.10071375221014,-0.10761397331953,0.988878786563873],"scale":[1,1,1],"translation":[0.0267343185842037,-0.00000000953674,0.00000000000000000222044599961948]},{"children":[6],"name":"Fox_Tail3","rotation":[0.0535180605947971,0.166674569249153,-0.1089785322547,0.978508591651917],"scale":[1,1,1],"translation":[0.0208616871386766,0,-0.00000000357628]},{"children":[7],"name":"Fox_Tail4","rotation":[0.0416189581155777,0.0741598680615425,-0.04976157471538,0.995134115219116],"scale":[1,1,1],"translation":[0.0220821537077427,0,0.00000000357627860658738]},{"children":[8],"name":"Fox_Tail5","rotation":[-0.00009015595424,-0.0347051024437,-0.00205477210693,0.999395489692688],"scale":[0.999998986721039,0.999998986721039,0.999998986721039],"translation":[0.0203105136752129,0,0.00000000238418573772492]},{"name":"Fox_Tail6","rotation":[-0.0079759946093,-0.10943629592657,0.00622667325660586,0.993942320346832],"scale":[0.999998986721039,0.999997973442078,0.999997973442078],"translation":[0.0182019509375095,0,0.00000000119209286886246]},{"children":[10],"name":"Fox_Spine1","rotation":[0.0107459556311369,0.0607538446784019,0.0297450106590986,0.997651636600494],"scale":[1,1,1],"translation":[0,0,0]},{"children":[11],"name":"Fox_Spine2","rotation":[-0.03040282800794,0.347506403923035,-0.05333273857832,0.935665845870972],"scale":[1,1,1],"translation":[0.0335060358047485,0.00000000476837147544984,0]},{"children":[12,16,29],"name":"Fox_Ribcage","rotation":[0.0105992713943124,0.103817753493786,-0.05279607698321,0.99313747882843],"scale":[1,1,1],"translation":[0.0335060358047485,0,-0.00000000059605]},{"children":[13],"name":"Fox_F_LLeg1","rotation":[0.767827272415161,0.633233964443207,0.00806073099374771,0.0969075262546539],"scale":[1,1,1],"translation":[0.00239976868033409,0.00042313575977459,0.0251081697642803]},{"children":[14],"name":"Fox_F_LLeg2","rotation":[0.0785944908857346,-0.00685502169654,0.0722807943820953,0.994259238243103],"scale":[1.00000202655792,0.999997973442078,1],"translation":[0.0340102761983871,0.000000424385063979571,0.0000000631809200513089]},{"children":[15],"name":"Fox_F_LLegAnkle","rotation":[0.171706929802895,-0.05275447294116,0.0595787204802036,0.981928765773773],"scale":[1,1,1],"translation":[0.0326986275613308,-0.00000000476837,0.00000000238418573772492]},{"name":"Fox_F_LLegDigit11","rotation":[0.000080096629972104,0.00013158092042431,0.510037243366241,0.860152304172516],"scale":[1.00000500679016,0.999997019767761,1.00000095367432],"translation":[0.01028120983392,0.00093354698037728,-0.00000029563904]},{"children":[17],"name":"Fox_Spine","rotation":[0.00215481407940388,0.0412698909640312,-0.39119014143944,0.919381558895111],"scale":[1,1,1],"translation":[0,0,0]},{"children":[18,19,21,23,24,25,26,27,28],"name":"Fox_Head","rotation":[-0.1392185986042,0.114223420619965,0.217090919613838,0.959397077560425],"scale":[1,1,1],"translation":[0.0369065552949905,0.00000000238418573772492,0]},{"name":"Fox_Jaw","rotation":[0.00000000352787399293675,-0.00000003180774,0.342020124197006,0.939692616462708],"scale":[1,1,1],"translation":[0.0127218430861831,0.0189216323196888,0.00000000476837147544984]},{"children":[20],"name":"Fox_LEar1","rotation":[0.230904161930084,-0.30270072817802,-0.31637790799141,0.868884682655334],"scale":[1.00000095367432,0.999998986721039,1],"translation":[0.010986995883286,-0.03008018434048,0.0253106225281954]},{"name":"Fox_LEar2","rotation":[0.00408837897703052,-0.00279045617208,0.146368682384491,0.989217698574066],"scale":[0.9999960064888,1.00000298023224,1],"translation":[0.0164626874029636,0.00000000476837147544984,0.00000000119209286886246]},{"children":[22],"name":"Fox_REar1","rotation":[-0.2549537718296,0.274138301610947,-0.40889242291451,0.832258224487305],"scale":[1.00000095367432,0.999998986721039,1],"translation":[0.010986995883286,-0.0300801936537,-0.02531062625349]},{"name":"Fox_REar2","rotation":[0.013973468914628,-0.00132008979563,-0.06870500743389,0.997538268566132],"scale":[1.00000202655792,0.999997973442078,1],"translation":[0.0164626874029636,-0,0]},{"name":"Fox_LEye","rotation":[0.690345466136932,0.153045818209648,0.212630987167358,0.674379825592041],"scale":[1,1,1],"translation":[0.0160655975341797,-0.00207386002876,0.0185948722064495]},{"name":"Fox_REye","rotation":[-0.69034558534622,-0.15304584801197,0.212630912661552,0.674379706382751],"scale":[1,1,1],"translation":[0.0160655975341797,-0.0020738649182,-0.01859487220645]},{"name":"Fox_UpperLEyelid","rotation":[0.733772754669189,-0.03472803160548,0.032037228345871,0.677750051021576],"scale":[1,1,1],"translation":[0.0160655975341797,-0.00207386957482,0.018594877794385]},{"name":"Fox_LowerLEyelid","rotation":[0.61944717168808,0.308799624443054,0.394631415605545,0.604312896728516],"scale":[1,1,1],"translation":[0.0160655975341797,-0.00207386957482,0.018594877794385]},{"name":"Fox_UpperREyelid","rotation":[-0.73377269506455,0.0347280167043209,0.0320372544229031,0.677750051021576],"scale":[1,1,1],"translation":[0.0160655789077282,-0.00207387446426,-0.0185948703438]},{"name":"Fox_LowerREyelid","rotation":[-0.61944717168808,-0.3087996840477,0.394631415605545,0.604312837123871],"scale":[1,1,1],"translation":[0.0160655789077282,-0.00207387446426,-0.0185948703438]},{"children":[30],"name":"Fox_F_RLeg1","rotation":[0.327044397592545,0.94405859708786,0.00964737869799137,0.0412587895989418],"scale":[0.999998986721039,1,1],"translation":[0.00239976402372122,0.0004231309867464,-0.02510816603899]},{"children":[31],"name":"Fox_F_RLeg2","rotation":[-0.0723214969039,0.0376924872398376,0.396468669176102,0.914418637752533],"scale":[0.999998986721039,1.00000095367432,1],"translation":[0.0340102724730968,0.000000419616696945013,-0.00000005483627]},{"children":[32],"name":"Fox_F_RLegAnkle","rotation":[-0.10855136066675,-0.03252520784736,0.0389609858393669,0.992794394493103],"scale":[1,1,1],"translation":[0.0326986201107502,-0,0.00000000119209286886246]},{"name":"Fox_F_RLegDigit11","rotation":[0.00015179099864326,0.00019976000476162,0.610332071781158,0.792145609855652],"scale":[0.999997973442078,1.00000405311584,1.00000095367432],"translation":[0.0102812070399523,0.00093354162527248,0.000000293254856842395]},{"children":[34],"name":"Fox_LLeg1","rotation":[0.543747842311859,0.832985937595367,-0.04614687711,0.0913408994674683],"scale":[0.999998986721039,1.00000095367432,1],"translation":[0.00000000476837147544984,0,0.0192754846066236]},{"children":[35],"name":"Fox_LLeg2","rotation":[-0.09583609551191,0.0257743876427412,-0.48419114947319,0.86931586265564],"scale":[1.00000095367432,1,1],"translation":[0.0358892753720284,-0.00000009059906,0.0000000607967365340301]},{"children":[36],"name":"Fox_LLegAnkle","rotation":[-0.08126109093428,-0.08826944231987,0.604948282241821,0.787173867225647],"scale":[1.00000298023224,0.999997019767761,1],"translation":[0.0258319843560457,-0.00000000476837,-0]},{"name":"Fox_LLegDigit11","rotation":[0.00013597130600828,0.00036949015338905,0.682233572006226,0.731134176254272],"scale":[1.00000596046448,0.999997973442078,1],"translation":[0.0325394868850708,0.00077512738062068,-0.00000000476837]},{"children":[38],"name":"Fox_RLeg1","rotation":[0.893338859081268,0.44359028339386,0.0199424065649509,-0.06910626590252],"scale":[0.999998986721039,1.00000095367432,1],"translation":[-0.00000000715256,-0.00000000476837,-0.01927548274398]},{"children":[39],"name":"Fox_RLeg2","rotation":[0.0688991025090218,-0.04130735993385,-0.77710348367691,0.624224960803986],"scale":[0.999994993209839,1.00000500679016,1],"translation":[0.0358892716467381,-0.00000009298324,-0.00000006258487]},{"children":[40],"name":"Fox_RLegAnkle","rotation":[0.111882589757442,0.0295314341783524,0.69876766204834,0.705927729606628],"scale":[0.9999920129776,1.0000079870224,1],"translation":[0.0258319843560457,0,0.00000000059604643443123]},{"name":"Fox_RLegDigit11","rotation":[-0.00018304672267,-0.00028376444243,0.552359998226166,0.833605587482452],"scale":[0.999989986419678,1.00001204013824,1.00000095367432],"translation":[0.0325394868850708,0.00077512738062068,-0.00000000119209]}],"samplers":[{}],"scene":0,"scenes":[{"name":"Root Scene","nodes":[0,1]}],"skins":[{"inverseBindMatrices":44,"joints":[17,23,2,9,10,25,26,18,19,16,11,12,20,13,33,14,15,34,35,36,3,4,5,6,7,8,24,27,28,21,29,22,30,37,31,32,38,39,40],"skeleton":2},{"joints":[2,3,4,5,6,7,8,9,10,11,12,13,14,15,16,17,18,19,20,21,22,23,24,25,26,27,28,29,30,31,32,33,34,35,36,37,38,39,40]}],"textures":[{"name":"Map #2","sampler":0,"source":0},{"name":"Map #4","sampler":0,"source":1}]}