{"accessors":[{"bufferView":0,"byteOffset":0,"componentType":5126,"count":36,"max":[1.16666662693024],"min":[0],"type":"SCALAR"},{"bufferView":1,"byteOffset":0,"componentType":5126,"count":36,"type":"VEC3"},{"bufferView":2,"byteOffset":0,"componentType":5126,"count":36,"type":"VEC4"},{"bufferView":3,"byteOffset":0,"componentType":5126,"count":36,"type":"VEC4"},{"bufferView":4,"byteOffset":0,"componentType":5126,"count":36,"type":"VEC4"},{"bufferView":5,"byteOffset":0,"componentType":5126,"count":36,"type":"VEC4"},{"bufferView":6,"byteOffset":0,"componentType":5126,"count":36,"type":"VEC4"},{"bufferView":7,"byteOffset":0,"componentType":5126,"count":36,"type":"VEC4"},{"bufferView":8,"byteOffset":0,"componentType":5126,"count":36,"type":"VEC4"},{"bufferView":9,"byteOffset":0,"componentType":5126,"count":36,"type":"VEC4"},{"bufferView":10,"byteOffset":0,"componentType":5126,"count":36,"type":"VEC4"},{"bufferView":11,"byteOffset":0,"componentType":5126,"count":36,"type":"VEC4"},{"bufferView":12,"byteOffset":0,"componentType":5126,"count":36,"type":"VEC4"},{"bufferView":13,"byteOffset":0,"componentType":5126,"count":36,"type":"VEC4"},{"bufferView":14,"byteOffset":0,"componentType":5126,"count":36,"type":"VEC4"},{"bufferView":15,"byteOffset":0,"componentType":5126,"count":36,"type":"VEC4"},{"bufferView":16,"byteOffset":0,"componentType":5126,"count":36,"type":"VEC4"},{"bufferView":17,"byteOffset":0,"componentType":5126,"count":36,"type":"VEC4"},{"bufferView":18,"byteOffset":0,"componentType":5126,"count":36,"type":"VEC4"},{"bufferView":19,"byteOffset":0,"componentType":5126,"count":36,"type":"VEC4"},{"bufferView":20,"byteOffset":0,"componentType":5126,"count":36,"type":"VEC4"},{"bufferView":21,"byteOffset":0,"componentType":5126,"count":36,"type":"VEC4"},{"bufferView":22,"byteOffset":0,"componentType":5126,"count":36,"type":"VEC4"},{"bufferView":23,"byteOffset":0,"componentType":5126,"count":36,"type":"VEC4"},{"bufferView":24,"byteOffset":0,"componentType":5126,"count":36,"type":"VEC4"},{"bufferView":25,"byteOffset":0,"componentType":5126,"count":36,"type":"VEC4"},{"bufferView":26,"byteOffset":0,"componentType":5126,"count":36,"type":"VEC4"},{"bufferView":27,"byteOffset":0,"componentType":5126,"count":36,"type":"VEC4"},{"bufferView":28,"byteOffset":0,"componentType":5126,"count":36,"type":"VEC4"},{"bufferView":29,"byteOffset":0,"componentType":5126,"count":36,"type":"VEC4"},{"bufferView":30,"byteOffset":0,"componentType":5126,"count":36,"type":"VEC4"},{"bufferView":31,"byteOffset":0,"componentType":5126,"count":36,"type":"VEC4"},{"bufferView":32,"byteOffset":0,"componentType":5126,"count":36,"type":"VEC4"},{"bufferView":33,"byteOffset":0,"componentType":5123,"count":10350,"type":"SCALAR"},{"bufferView":34,"byteOffset":0,"componentType":5126,"count":2266,"max":[0.0510667748749256,0.181155368685722,0.169082224369049],"min":[-0.05106677487493,-0.09766451269388,0.000000000745058015283462],"type":"VEC3"},{"bufferView":35,"byteOffset":0,"componentType":5126,"count":2266,"type":"VEC3"},{"bufferView":36,"byteOffset":0,"componentType":5126,"count":2266,"type":"VEC4"},{"bufferView":37,"byteOffset":0,"componentType":5126,"count":2266,"type":"VEC2"},{"bufferView":38,"byteOffset":0,"componentType":5123,"count":2266,"type":"VEC4"},{"bufferView":39,"byteOffset":0,"componentType":5126,"count":2266,"type":"VEC4"},{"bufferView":40,"byteOffset":0,"componentType":5126,"count":39,"type":"MAT4"}],"animations":[{"channels":[{"sampler":0,"target":{"node":2,"path":"translation"}},{"sampler":1,"target":{"node":3,"path":"rotation"}},{"sampler":2,"target":{"node":4,"path":"rotation"}},{"sampler":3,"target":{"node":5,"path":"rotation"}},{"sampler":4,"target":{"node":6,"path":"rotation"}},{"sampler":5,"target":{"node":7,"path":"rotation"}},{"sampler":6,"target":{"node":8,"path":"rotation"}},{"sampler":7,"target":{"node":9,"path":"rotation"}},{"sampler":8,"target":{"node":10,"path":"rotation"}},{"sampler":9,"target":{"node":11,"path":"rotation"}},{"sampler":10,"target":{"node":12,"path":"rotation"}},{"sampler":11,"target":{"node":13,"path":"rotation"}},{"sampler":12,"target":{"node":14,"path":"rotation"}},{"sampler":13,"target":{"node":15,"path":"rotation"}},{"sampler":14,"target":{"node":16,"path":"rotation"}},{"sampler":15,"target":{"node":17,"path":"rotation"}},{"sampler":16,"target":{"node":19,"path":"rotation"}},{"sampler":17,"target":{"node":20,"path":"rotation"}},{"sampler":18,"target":{"node":21,"path":"rotation"}},{"sampler":19,"target":{"node":22,"path":"rotation"}},{"sampler":20,"target":{"node":29,"path":"rotation"}},{"sampler":21,"target":{"node":30,"path":"rotation"}},{"sampler":22,"target":{"node":31,"path":"rotation"}},{"sampler":23,"target":{"node":32,"path":"rotation"}},{"sampler":24,"target":{"node":33,"path":"rotation"}},{"sampler":25,"target":{"node":34,"path":"rotation"}},{"sampler":26,"target":{"node":35,"path":"rotation"}},{"sampler":27,"target":{"node":36,"path":"rotation"}},{"sampler":28,"target":{"node":37,"path":"rotation"}},{"sampler":29,"target":{"node":38,"path":"rotation"}},{"sampler":30,"target":{"node":39,"path":"rotation"}},{"sampler":31,"target":{"node":40,"path":"rotation"}}],"name":"Take 001","samplers":[{"input":0,"interpolation":"LINEAR","output":1},{"input":0,"interpolation":"LINEAR","output":2},{"input":0,"interpolation":"LINEAR","output":3},{"input":0,"interpolation":"LINEAR","output":4},{"input":0,"interpolation":"LINEAR","output":5},{"input":0,"interpolation":"LINEAR","output":6},{"input":0,"interpolation":"LINEAR","output":7},{"input":0,"interpolation":"LINEAR","output":8},{"input":0,"interpolation":"LINEAR","output":9},{"input":0,"interpolation":"LINEAR","output":10},{"input":0,"interpolation":"LINEAR","output":11},{"input":0,"interpolation":"LINEAR","output":12},{"input":0,"interpolation":"LINEAR","output":13},{"input":0,"interpolation":"LINEAR","output":14},{"input":0,"interpolation":"LINEAR","output":15},{"input":0,"interpolation":"LINEAR","output":16},{"input":0,"interpolation":"LINEAR","output":17},{"input":0,"interpolation":"LINEAR","output":18},{"input":0,"interpolation":"LINEAR","output":19},{"input":0,"interpolation":"LINEAR","output":20},{"input":0,"interpolation":"LINEAR","output":21},{"input":0,"interpolation":"LINEAR","output":22},{"input":0,"interpolation":"LINEAR","output":23},{"input":0,"interpolation":"LINEAR","output":24},{"input":0,"interpolation":"LINEAR","output":25},{"input":0,"interpolation":"LINEAR","output":26},{"input":0,"interpolation":"LINEAR","output":27},{"input":0,"interpolation":"LINEAR","output":28},{"input":0,"interpolation":"LINEAR","output":29},{"input":0,"interpolation":"LINEAR","output":30},{"input":0,"interpolation":"LINEAR","output":31},{"input":0,"interpolation":"LINEAR","output":32}]}],"asset":{"generator":"FBX2glTF v0.13.1","version":"2.0"},"bufferViews":[{"buffer":0,"byteLength":144,"byteOffset":0},{"buffer":0,"byteLength":432,"byteOffset":144},{"buffer":0,"byteLength":576,"byteOffset":576},{"buffer":0,"byteLength":576,"byteOffset":1152},{"buffer":0,"byteLength":576,"byteOffset":1728},{"buffer":0,"byteLength":576,"byteOffset":2304},{"buffer":0,"byteLength":576,"byteOffset":2880},{"buffer":0,"byteLength":576,"byteOffset":3456},{"buffer":0,"byteLength":576,"byteOffset":4032},{"buffer":0,"byteLength":576,"byteOffset":4608},{"buffer":0,"byteLength":576,"byteOffset":5184},{"buffer":0,"byteLength":576,"byteOffset":5760},{"buffer":0,"byteLength":576,"byteOffset":6336},{"buffer":0,"byteLength":576,"byteOffset":6912},{"buffer":0,"byteLength":576,"byteOffset":7488},{"buffer":0,"byteLength":576,"byteOffset":8064},{"buffer":0,"byteLength":576,"byteOffset":8640},{"buffer":0,"byteLength":576,"byteOffset":9216},{"buffer":0,"byteLength":576,"byteOffset":9792},{"buffer":0,"byteLength":576,"byteOffset":10368},{"buffer":0,"byteLength":576,"byteOffset":10944},{"buffer":0,"byteLength":576,"byteOffset":11520},{"buffer":0,"byteLength":576,"byteOffset":12096},{"buffer":0,"byteLength":576,"byteOffset":12672},{"buffer":0,"byteLength":576,"byteOffset":13248},{"buffer":0,"byteLength":576,"byteOffset":13824},{"buffer":0,"byteLength":576,"byteOffset":14400},{"buffer":0,"byteLength":576,"byteOffset":14976},{"buffer":0,"byteLength":576,"byteOffset":15552},{"buffer":0,"byteLength":576,"byteOffset":16128},{"buffer":0,"byteLength":576,"byteOffset":16704},{"buffer":0,"byteLength":576,"byteOffset":17280},{"buffer":0,"byteLength":576,"byteOffset":17856},{"buffer":0,"byteLength":20700,"byteOffset":18432,"target":34963},{"buffer":0,"byteLength":27192,"byteOffset":39132,"target":34962},{"buffer":0,"byteLength":27192,"byteOffset":66324,"target":34962},{"buffer":0,"byteLength":36256,"byteOffset":93516,"target":34962},{"buffer":0,"byteLength":18128,"byteOffset":129772,"target":34962},{"buffer":0,"byteLength":18128,"byteOffset":147900,"target":34962},{"buffer":0,"byteLength":36256,"byteOffset":166028,"target":34962},{"buffer":0,"byteLength":2496,"byteOffset":202284}],"buffers":[{"byteLength":204780,"uri":"Fox_Walk_Back_InPlace.bin"}],"images":[{"name":"toonfoxNM","uri":"toonfoxNM.png"},{"name":"1","uri":"1.psd"}],"materials":[{"alphaMode":"OPAQUE","doubleSided":false,"extras":{"fromFBX":{"isTruePBR":false,"shadingModel":"Phong"}},"name":"08 - Default","normalTexture":{"index":0,"texCoord":0},"pbrMetallicRoughness":{"baseColorFactor":[1,1,1,1],"baseColorTexture":{"index":1,"texCoord":0},"metallicFactor":0.400000005960464,"roughnessFactor":0.422773718833923}}],"meshes":[{"name":"fox","primitives":[{"attributes":{"JOINTS_0":38,"NORMAL":35,"POSITION":34,"TANGENT":36,"TEXCOORD_0":37,"WEIGHTS_0":39},"indices":33,"material":0,"mode":4}]}],"nodes":[{"mesh":0,"name":"fox","rotation":[-0.70710676908493,-0,0,0.70710676908493],"scale":[1,1,1],"skin":0,"translation":[0,0,0]},{"children":[2],"name":"FoxTransform","rotation":[-0.70710647106171,0.000000337174952846908,0.000000337174640208104,0.707107126712799],"scale":[1,1,1],"translation":[0,0,0]},{"children":[3,9,33,37],"name":"Fox_Pelvis","rotation":[0.5,-0.49999991059303,0.500000536441803,-0.49999955296516],"scale":[1,1,1],"translation":[0.0000000316552544177284,0.0347874835133553,0.0704613849520683]},{"children":[4],"name":"Fox_Tail1","rotation":[-0.00480549363419,0.00058048160281032,0.992774903774261,0.119893878698349],"scale":[1,1,1],"translation":[-0.01636433973908,-0.00745287863538,0.000000000533993904650032]},{"children":[5],"name":"Fox_Tail2","rotation":[0.00454557687044144,0.0316752158105373,-0.10933022946119,0.993490278720856],"scale":[1,1,1],"translation":[0.0267343148589134,0,0]},{"children":[6],"name":"Fox_Tail3","rotation":[0.0159532614052296,0.0579014532268047,-0.12034820765257,0.990913331508636],"scale":[1,1,1],"translation":[0.0208616945892572,0,-0.00000000059605]},{"children":[7],"name":"Fox_Tail4","rotation":[0.0137566085904837,0.023476492613554,-0.06339514255524,0.997617483139038],"scale":[1,1,1],"translation":[0.0220821537077427,0.00000000953674295089968,-0.00000000059605]},{"children":[8],"name":"Fox_Tail5","rotation":[0.00031121057691052,-0.02429179660976,-0.00143936707173,0.999703824520111],"scale":[1,1,1],"translation":[0.0203105118125677,0,-0.00000000119209]},{"name":"Fox_Tail6","rotation":[-0.00124751694966,-0.05803472176194,0.00950106047093868,0.99826854467392],"scale":[1,1,1],"translation":[0.0182019416242838,-0.00000000953674,0.00000000149011603056692]},{"children":[10],"name":"Fox_Spine1","rotation":[-0.00062320649158,-0.01485364604741,0.0292823053896427,0.999460637569427],"scale":[1,1,1],"translation":[0,0,0]},{"children":[11],"name":"Fox_Spine2","rotation":[-0.00261511071585,0.0298900511115789,-0.05989430472255,0.99775367975235],"scale":[1,1,1],"translation":[0.0335060358047485,0,0]},{"children":[12,16,29],"name":"Fox_Ribcage","rotation":[-0.00062701565912,0.0287228524684906,-0.05638141557574,0.997995853424072],"scale":[1,1,1],"translation":[0.0335060358047485,-0,-0]},{"children":[13],"name":"Fox_F_LLeg1","rotation":[0.390238434076309,0.918434262275696,0.0132895968854427,0.0633708313107491],"scale":[1,1,1],"translation":[0.00239976868033409,0.00042314050369896,0.0251081679016352]},{"children":[14],"name":"Fox_F_LLeg2","rotation":[0.0771391540765762,-0.0195731446147,0.20506477355957,0.975507497787476],"scale":[1,1.00000095367432,1],"translation":[0.0340102761983871,0.000000418424605186374,0.0000000596046447753906]},{"children":[15],"name":"Fox_F_LLegAnkle","rotation":[-0.03545961529016,0.0774178877472878,0.33070769906044,0.939883768558502],"scale":[0.999998986721039,1.00000095367432,1],"translation":[0.0326986275613308,0.00000000119209286886246,-0.00000000238419]},{"name":"Fox_F_LLegDigit11","rotation":[-0.00013720180141,-0.00023122304992,0.509789824485779,0.860298931598663],"scale":[0.999998986721039,1.00000095367432,1],"translation":[0.0102812051773071,0.00093353982083499,-0.00000029206277]},{"children":[17],"name":"Fox_Spine","rotation":[-0.00076233863365,-0.00770203815773,-0.40264540910721,0.915323317050934],"scale":[1,1,1],"translation":[0,0,0]},{"children":[18,19,21,23,24,25,26,27,28],"name":"Fox_Head","rotation":[0.0295733045786619,-0.02380105294287,0.237211897969246,0.970715939998627],"scale":[1,1,1],"translation":[0.0369065515697002,-0.00000000715256,0.000000000298023217215615]},{"name":"Fox_Jaw","rotation":[-0.00000000150924,-0.00000002593066,0.342020094394684,0.939692616462708],"scale":[1,1,1],"translation":[0.0127218626439571,0.0189216379076242,-0.00000000163913]},{"children":[20],"name":"Fox_LEar1","rotation":[0.251762986183167,-0.28202325105667,-0.38632741570473,0.841325998306274],"scale":[1.00000095367432,0.999998986721039,1],"translation":[0.0109870145097375,-0.03008017502725,0.0253106262534857]},{"name":"Fox_LEar2","rotation":[0.000000363147222515181,-0.00000045316341,-0.01670848019421,0.999860405921936],"scale":[1.00000500679016,0.999994993209839,1],"translation":[0.0164626780897379,0.00000000476837147544984,-0.00000000238419]},{"children":[22],"name":"Fox_REar1","rotation":[-0.25176298618317,0.282022953033447,-0.38632744550705,0.841326057910919],"scale":[1.00000095367432,0.999998986721039,1],"translation":[0.010986995883286,-0.03008018434048,-0.02531062066555]},{"name":"Fox_REar2","rotation":[-0.00000039431259,0.000000371719067970844,-0.01670852303505,0.999860405921936],"scale":[0.999998986721039,1.00000095367432,1],"translation":[0.0164626874029636,0.00000000238418573772492,-0.00000000238419]},{"name":"Fox_LEye","rotation":[0.690345525741577,0.153045758605003,0.212630987167358,0.674379765987396],"scale":[1,1,1],"translation":[0.0160656161606312,-0.0020738504827,0.0185948740690947]},{"name":"Fox_REye","rotation":[-0.69034558534622,-0.15304584801197,0.212630897760391,0.674379706382751],"scale":[1,1,1],"translation":[0.0160655975341797,-0.00207386002876,-0.01859487220645]},{"name":"Fox_UpperLEyelid","rotation":[0.733772754669189,-0.03472800180316,0.0320372171700001,0.677750051021576],"scale":[1,1,1],"translation":[0.0160656068474054,-0.00207386002876,0.0185948740690947]},{"name":"Fox_LowerLEyelid","rotation":[0.619447112083435,0.308799654245377,0.394631415605545,0.604312896728516],"scale":[1,1,1],"translation":[0.0160656068474054,-0.00207386002876,0.0185948740690947]},{"name":"Fox_UpperREyelid","rotation":[-0.73377275466919,0.0347280241549015,0.0320372432470322,0.677750051021576],"scale":[1,1,1],"translation":[0.0160655975341797,-0.0020738649182,-0.01859487220645]},{"name":"Fox_LowerREyelid","rotation":[-0.61944717168808,-0.3087996840477,0.394631385803223,0.604312837123871],"scale":[1,1,1],"translation":[0.0160655975341797,-0.0020738649182,-0.01859487220645]},{"children":[30],"name":"Fox_F_RLeg1","rotation":[0.581483840942383,0.812878012657166,0.0332471244037151,0.00073075661202892],"scale":[1,1,1],"translation":[0.00239977356977761,0.0004231309867464,-0.0251081623137]},{"children":[31],"name":"Fox_F_RLeg2","rotation":[-0.07131647318602,0.0401493087410927,0.423422992229462,0.902227759361267],"scale":[1.00000095367432,0.999998986721039,1],"translation":[0.0340102761983871,0.000000424385063979571,-0.00000005483627]},{"children":[32],"name":"Fox_F_RLegAnkle","rotation":[0.0363812744617462,-0.0633071064949,-0.26983073353767,0.960135400295258],"scale":[1.00000095367432,1,1],"translation":[0.0326986275613308,0,0]},{"name":"Fox_F_RLegDigit11","rotation":[-0.00003476821075,-0.00004241364513,0.609759926795959,0.792586147785187],"scale":[1.00000405311584,0.9999960064888,1],"translation":[0.0102812051773071,0.00093353743432089,0.000000292062765083756]},{"children":[34],"name":"Fox_LLeg1","rotation":[0.878059208393097,0.478309363126755,-0.00616770330817,0.0139346262440085],"scale":[0.999998986721039,1.00000095367432,1],"translation":[0,0,0.0192754864692688]},{"children":[35],"name":"Fox_LLeg2","rotation":[-0.06507556885481,0.0427661091089249,-0.8034200668335,0.590298593044281],"scale":[0.999994993209839,1.00000500679016,1.00000095367432],"translation":[0.0358892716467381,-0.00000007748604,0.0000000607967365340301]},{"children":[36],"name":"Fox_LLegAnkle","rotation":[0.0639612600207329,-0.02110246941447,0.730081737041473,0.680032551288605],"scale":[0.9999920129776,1.0000079870224,1],"translation":[0.0258319843560457,0,0]},{"name":"Fox_LLegDigit11","rotation":[0.00016722471627872,0.00029336317675188,0.491623908281326,0.870807588100433],"scale":[0.999988973140717,1.00001096725464,1.00000095367432],"translation":[0.0325394831597805,0.00077512738062068,0.00000000238418573772492]},{"children":[38],"name":"Fox_RLeg1","rotation":[0.672432482242584,0.740009784698486,0.0107775582000613,-0.01019578333944],"scale":[0.999998986721039,1.00000095367432,1],"translation":[0,0.00000000000000000888178399847791,-0.01927548274398]},{"children":[39],"name":"Fox_RLeg2","rotation":[0.0817704945802689,-0.03538608551025,-0.66475361585617,0.741730451583862],"scale":[1.00000095367432,1,1],"translation":[0.0358892641961575,-0.00000007629394,-0.00000007271767]},{"children":[40],"name":"Fox_RLegAnkle","rotation":[-0.06923928111792,0.0305592138320208,0.720265865325928,0.689557194709778],"scale":[1.00000298023224,0.999997019767761,1],"translation":[0.0258319824934006,0.00000000238418573772492,-0]},{"name":"Fox_RLegDigit11","rotation":[-0.00008028727461,-0.00025827778154,0.689245939254761,0.724527418613434],"scale":[1.00000500679016,0.9999960064888,1],"translation":[0.0325394831597805,0.00077512260759249,-0.00000000119209]}],"samplers":[{}],"scene":0,"scenes":[{"name":"Root Scene","nodes":[0,1]}],"skins":[{"inverseBindMatrices":40,"joints":[17,23,2,9,10,25,26,18,19,16,11,12,20,13,33,14,15,34,35,36,3,4,5,6,7,8,24,27,28,21,29,22,30,37,31,32,38,39,40],"skeleton":2},{"joints":[2,3,4,5,6,7,8,9,10,11,12,13,14,15,16,17,18,19,20,21,22,23,24,25,26,27,28,29,30,31,32,33,34,35,36,37,38,39,40]}],"textures":[{"name":"Map #2","sampler":0,"source":0},{"name":"Map #4","sampler":0,"source":1}]}