{"accessors":[{"bufferView":0,"byteOffset":0,"componentType":5126,"count":31,"max":[1],"min":[0],"type":"SCALAR"},{"bufferView":1,"byteOffset":0,"componentType":5126,"count":31,"type":"VEC3"},{"bufferView":2,"byteOffset":0,"componentType":5126,"count":31,"type":"VEC4"},{"bufferView":3,"byteOffset":0,"componentType":5126,"count":31,"type":"VEC4"},{"bufferView":4,"byteOffset":0,"componentType":5126,"count":31,"type":"VEC4"},{"bufferView":5,"byteOffset":0,"componentType":5126,"count":31,"type":"VEC4"},{"bufferView":6,"byteOffset":0,"componentType":5126,"count":31,"type":"VEC4"},{"bufferView":7,"byteOffset":0,"componentType":5126,"count":31,"type":"VEC4"},{"bufferView":8,"byteOffset":0,"componentType":5126,"count":31,"type":"VEC4"},{"bufferView":9,"byteOffset":0,"componentType":5126,"count":31,"type":"VEC3"},{"bufferView":10,"byteOffset":0,"componentType":5126,"count":31,"type":"VEC4"},{"bufferView":11,"byteOffset":0,"componentType":5126,"count":31,"type":"VEC4"},{"bufferView":12,"byteOffset":0,"componentType":5126,"count":31,"type":"VEC4"},{"bufferView":13,"byteOffset":0,"componentType":5126,"count":31,"type":"VEC4"},{"bufferView":14,"byteOffset":0,"componentType":5126,"count":31,"type":"VEC4"},{"bufferView":15,"byteOffset":0,"componentType":5126,"count":31,"type":"VEC4"},{"bufferView":16,"byteOffset":0,"componentType":5126,"count":31,"type":"VEC4"},{"bufferView":17,"byteOffset":0,"componentType":5126,"count":31,"type":"VEC4"},{"bufferView":18,"byteOffset":0,"componentType":5126,"count":31,"type":"VEC4"},{"bufferView":19,"byteOffset":0,"componentType":5126,"count":31,"type":"VEC4"},{"bufferView":20,"byteOffset":0,"componentType":5126,"count":31,"type":"VEC4"},{"bufferView":21,"byteOffset":0,"componentType":5126,"count":31,"type":"VEC4"},{"bufferView":22,"byteOffset":0,"componentType":5126,"count":31,"type":"VEC4"},{"bufferView":23,"byteOffset":0,"componentType":5126,"count":31,"type":"VEC4"},{"bufferView":24,"byteOffset":0,"componentType":5126,"count":31,"type":"VEC4"},{"bufferView":25,"byteOffset":0,"componentType":5126,"count":31,"type":"VEC4"},{"bufferView":26,"byteOffset":0,"componentType":5126,"count":31,"type":"VEC4"},{"bufferView":27,"byteOffset":0,"componentType":5126,"count":31,"type":"VEC4"},{"bufferView":28,"byteOffset":0,"componentType":5126,"count":31,"type":"VEC4"},{"bufferView":29,"byteOffset":0,"componentType":5126,"count":31,"type":"VEC4"},{"bufferView":30,"byteOffset":0,"componentType":5126,"count":31,"type":"VEC4"},{"bufferView":31,"byteOffset":0,"componentType":5126,"count":31,"type":"VEC4"},{"bufferView":32,"byteOffset":0,"componentType":5126,"count":31,"type":"VEC4"},{"bufferView":33,"byteOffset":0,"componentType":5126,"count":31,"type":"VEC4"},{"bufferView":34,"byteOffset":0,"componentType":5126,"count":31,"type":"VEC4"},{"bufferView":35,"byteOffset":0,"componentType":5123,"count":10350,"type":"SCALAR"},{"bufferView":36,"byteOffset":0,"componentType":5126,"count":2266,"max":[0.0510667748749256,0.181155368685722,0.169082224369049],"min":[-0.05106677487493,-0.09766451269388,0.000000000745058015283462],"type":"VEC3"},{"bufferView":37,"byteOffset":0,"componentType":5126,"count":2266,"type":"VEC3"},{"bufferView":38,"byteOffset":0,"componentType":5126,"count":2266,"type":"VEC4"},{"bufferView":39,"byteOffset":0,"componentType":5126,"count":2266,"type":"VEC2"},{"bufferView":40,"byteOffset":0,"componentType":5123,"count":2266,"type":"VEC4"},{"bufferView":41,"byteOffset":0,"componentType":5126,"count":2266,"type":"VEC4"},{"bufferView":42,"byteOffset":0,"componentType":5126,"count":38,"type":"MAT4"}],"animations":[{"channels":[{"sampler":0,"target":{"node":2,"path":"translation"}},{"sampler":1,"target":{"node":2,"path":"rotation"}},{"sampler":2,"target":{"node":3,"path":"rotation"}},{"sampler":3,"target":{"node":4,"path":"rotation"}},{"sampler":4,"target":{"node":5,"path":"rotation"}},{"sampler":5,"target":{"node":6,"path":"rotation"}},{"sampler":6,"target":{"node":7,"path":"rotation"}},{"sampler":7,"target":{"node":8,"path":"rotation"}},{"sampler":8,"target":{"node":8,"path":"scale"}},{"sampler":9,"target":{"node":9,"path":"rotation"}},{"sampler":10,"target":{"node":10,"path":"rotation"}},{"sampler":11,"target":{"node":11,"path":"rotation"}},{"sampler":12,"target":{"node":12,"path":"rotation"}},{"sampler":13,"target":{"node":13,"path":"rotation"}},{"sampler":14,"target":{"node":14,"path":"rotation"}},{"sampler":15,"target":{"node":15,"path":"rotation"}},{"sampler":16,"target":{"node":16,"path":"rotation"}},{"sampler":17,"target":{"node":17,"path":"rotation"}},{"sampler":18,"target":{"node":19,"path":"rotation"}},{"sampler":19,"target":{"node":20,"path":"rotation"}},{"sampler":20,"target":{"node":21,"path":"rotation"}},{"sampler":21,"target":{"node":22,"path":"rotation"}},{"sampler":22,"target":{"node":29,"path":"rotation"}},{"sampler":23,"target":{"node":30,"path":"rotation"}},{"sampler":24,"target":{"node":31,"path":"rotation"}},{"sampler":25,"target":{"node":32,"path":"rotation"}},{"sampler":26,"target":{"node":33,"path":"rotation"}},{"sampler":27,"target":{"node":34,"path":"rotation"}},{"sampler":28,"target":{"node":35,"path":"rotation"}},{"sampler":29,"target":{"node":36,"path":"rotation"}},{"sampler":30,"target":{"node":37,"path":"rotation"}},{"sampler":31,"target":{"node":38,"path":"rotation"}},{"sampler":32,"target":{"node":39,"path":"rotation"}},{"sampler":33,"target":{"node":40,"path":"rotation"}}],"name":"Take 001","samplers":[{"input":0,"interpolation":"LINEAR","output":1},{"input":0,"interpolation":"LINEAR","output":2},{"input":0,"interpolation":"LINEAR","output":3},{"input":0,"interpolation":"LINEAR","output":4},{"input":0,"interpolation":"LINEAR","output":5},{"input":0,"interpolation":"LINEAR","output":6},{"input":0,"interpolation":"LINEAR","output":7},{"input":0,"interpolation":"LINEAR","output":8},{"input":0,"interpolation":"LINEAR","output":9},{"input":0,"interpolation":"LINEAR","output":10},{"input":0,"interpolation":"LINEAR","output":11},{"input":0,"interpolation":"LINEAR","output":12},{"input":0,"interpolation":"LINEAR","output":13},{"input":0,"interpolation":"LINEAR","output":14},{"input":0,"interpolation":"LINEAR","output":15},{"input":0,"interpolation":"LINEAR","output":16},{"input":0,"interpolation":"LINEAR","output":17},{"input":0,"interpolation":"LINEAR","output":18},{"input":0,"interpolation":"LINEAR","output":19},{"input":0,"interpolation":"LINEAR","output":20},{"input":0,"interpolation":"LINEAR","output":21},{"input":0,"interpolation":"LINEAR","output":22},{"input":0,"interpolation":"LINEAR","output":23},{"input":0,"interpolation":"LINEAR","output":24},{"input":0,"interpolation":"LINEAR","output":25},{"input":0,"interpolation":"LINEAR","output":26},{"input":0,"interpolation":"LINEAR","output":27},{"input":0,"interpolation":"LINEAR","output":28},{"input":0,"interpolation":"LINEAR","output":29},{"input":0,"interpolation":"LINEAR","output":30},{"input":0,"interpolation":"LINEAR","output":31},{"input":0,"interpolation":"LINEAR","output":32},{"input":0,"interpolation":"LINEAR","output":33},{"input":0,"interpolation":"LINEAR","output":34}]}],"asset":{"generator":"FBX2glTF v0.13.1","version":"2.0"},"bufferViews":[{"buffer":0,"byteLength":124,"byteOffset":0},{"buffer":0,"byteLength":372,"byteOffset":124},{"buffer":0,"byteLength":496,"byteOffset":496},{"buffer":0,"byteLength":496,"byteOffset":992},{"buffer":0,"byteLength":496,"byteOffset":1488},{"buffer":0,"byteLength":496,"byteOffset":1984},{"buffer":0,"byteLength":496,"byteOffset":2480},{"buffer":0,"byteLength":496,"byteOffset":2976},{"buffer":0,"byteLength":496,"byteOffset":3472},{"buffer":0,"byteLength":372,"byteOffset":3968},{"buffer":0,"byteLength":496,"byteOffset":4340},{"buffer":0,"byteLength":496,"byteOffset":4836},{"buffer":0,"byteLength":496,"byteOffset":5332},{"buffer":0,"byteLength":496,"byteOffset":5828},{"buffer":0,"byteLength":496,"byteOffset":6324},{"buffer":0,"byteLength":496,"byteOffset":6820},{"buffer":0,"byteLength":496,"byteOffset":7316},{"buffer":0,"byteLength":496,"byteOffset":7812},{"buffer":0,"byteLength":496,"byteOffset":8308},{"buffer":0,"byteLength":496,"byteOffset":8804},{"buffer":0,"byteLength":496,"byteOffset":9300},{"buffer":0,"byteLength":496,"byteOffset":9796},{"buffer":0,"byteLength":496,"byteOffset":10292},{"buffer":0,"byteLength":496,"byteOffset":10788},{"buffer":0,"byteLength":496,"byteOffset":11284},{"buffer":0,"byteLength":496,"byteOffset":11780},{"buffer":0,"byteLength":496,"byteOffset":12276},{"buffer":0,"byteLength":496,"byteOffset":12772},{"buffer":0,"byteLength":496,"byteOffset":13268},{"buffer":0,"byteLength":496,"byteOffset":13764},{"buffer":0,"byteLength":496,"byteOffset":14260},{"buffer":0,"byteLength":496,"byteOffset":14756},{"buffer":0,"byteLength":496,"byteOffset":15252},{"buffer":0,"byteLength":496,"byteOffset":15748},{"buffer":0,"byteLength":496,"byteOffset":16244},{"buffer":0,"byteLength":20700,"byteOffset":16740,"target":34963},{"buffer":0,"byteLength":27192,"byteOffset":37440,"target":34962},{"buffer":0,"byteLength":27192,"byteOffset":64632,"target":34962},{"buffer":0,"byteLength":36256,"byteOffset":91824,"target":34962},{"buffer":0,"byteLength":18128,"byteOffset":128080,"target":34962},{"buffer":0,"byteLength":18128,"byteOffset":146208,"target":34962},{"buffer":0,"byteLength":36256,"byteOffset":164336,"target":34962},{"buffer":0,"byteLength":2432,"byteOffset":200592}],"buffers":[{"byteLength":203024,"uri":"Fox_Walk_Right_InPlace.bin"}],"images":[{"name":"1","uri":"1.psd"}],"materials":[{"alphaMode":"OPAQUE","doubleSided":false,"extras":{"fromFBX":{"isTruePBR":true,"shadingModel":"Metallic/Roughness"}},"name":"08 - Default","pbrMetallicRoughness":{"baseColorFactor":[0.443137288093567,0.443137288093567,0.443137288093567,1],"baseColorTexture":{"index":0,"texCoord":0},"metallicFactor":0,"roughnessFactor":0.680000066757202}}],"meshes":[{"name":"fox","primitives":[{"attributes":{"JOINTS_0":40,"NORMAL":37,"POSITION":36,"TANGENT":38,"TEXCOORD_0":39,"WEIGHTS_0":41},"indices":35,"material":0,"mode":4}]}],"nodes":[{"mesh":0,"name":"fox","rotation":[-0.70710676908493,-0,0,0.70710676908493],"scale":[1,1,1],"skin":0,"translation":[0,0,0]},{"children":[2],"name":"FoxTransform","rotation":[-0.70710682868957,-0.00000027957375,-0.00000031048214,0.70710676908493],"scale":[1,1,1],"translation":[0,0,0]},{"children":[3,9,33,37],"name":"Fox_Pelvis","rotation":[-0.60695004463196,0.362783074378967,-0.36278307437897,0.606950223445892],"scale":[1,1,1],"translation":[-0.00839268416166,0.0334157012403011,0.0704614222049713]},{"children":[4],"name":"Fox_Tail1","rotation":[-0.03080792725086,0.00421326793730259,0.992308437824249,0.119820944964886],"scale":[1,1,1],"translation":[-0.01636433973908,-0.00745288375765,-0]},{"children":[5],"name":"Fox_Tail2","rotation":[0.0198688507080078,0.10071374475956,-0.10761397331953,0.988878786563873],"scale":[1,1,1],"translation":[0.026734322309494,-0.00000000953674,0.00000000357627860658738]},{"children":[6],"name":"Fox_Tail3","rotation":[0.053518071770668,0.166674569249153,-0.10897855460644,0.978508591651917],"scale":[1,1,1],"translation":[0.0208616945892572,0,-0]},{"children":[7],"name":"Fox_Tail4","rotation":[0.0416189767420292,0.0741598680615425,-0.0497615672648,0.995134115219116],"scale":[1,0.999998986721039,0.999998986721039],"translation":[0.022082157433033,0,0.00000000357627860658738]},{"children":[8],"name":"Fox_Tail5","rotation":[-0.00009020021389,-0.0347050987184,-0.00205475860275,0.999395489692688],"scale":[0.999998986721039,0.999998986721039,0.999998986721039],"translation":[0.020310515537858,0,0.00000000238418573772492]},{"name":"Fox_Tail6","rotation":[-0.00797601044178,-0.10943628847599,0.00622667139396071,0.993942320346832],"scale":[0.999998986721039,0.999997973442078,0.999997973442078],"translation":[0.018201956525445,0,-0.00000000476837]},{"children":[10],"name":"Fox_Spine1","rotation":[0.010745957493782,0.0607538446784019,0.0297450106590986,0.997651636600494],"scale":[1,1,1],"translation":[0,0,0]},{"children":[11],"name":"Fox_Spine2","rotation":[-0.03040281869471,0.347506433725357,-0.05333273857832,0.935665845870972],"scale":[1,1,1],"translation":[0.0335060320794582,0.00000000476837147544984,0.00000000000000000444089199923895]},{"children":[12,16,29],"name":"Fox_Ribcage","rotation":[0.0105992639437318,0.103817775845528,-0.05279606580734,0.99313747882843],"scale":[1,1,1],"translation":[0.0335060320794582,0.00000000476837147544984,-0.00000000059605]},{"children":[13],"name":"Fox_F_LLeg1","rotation":[0.767827272415161,0.633233904838562,0.00806078314781189,0.0969075709581375],"scale":[1,1,1],"translation":[0.00239976868033409,0.00042314050369896,0.0251081716269255]},{"children":[14],"name":"Fox_F_LLeg2","rotation":[0.0785945132374763,-0.00685501983389,0.0722807943820953,0.994259238243103],"scale":[1.00000202655792,0.999997973442078,1],"translation":[0.0340102799236774,0.000000429153431014129,0.0000000619888282926695]},{"children":[15],"name":"Fox_F_LLegAnkle","rotation":[0.171706885099411,-0.05275446921587,0.0595787316560745,0.981928765773773],"scale":[1,1,1],"translation":[0.0326986275613308,-0.00000000476837,0.00000000238418573772492]},{"name":"Fox_F_LLegDigit11","rotation":[0.0000800952620920725,0.00013157799548935,0.510037243366241,0.860152304172516],"scale":[1.00000500679016,0.999997019767761,1.00000095367432],"translation":[0.01028120983392,0.00093354698037728,-0.00000029563904]},{"children":[17],"name":"Fox_Spine","rotation":[0.00215481966733932,0.0412698537111282,-0.39119011163711,0.919381558895111],"scale":[1,1,1],"translation":[0,0,0]},{"children":[18,19,21,23,24,25,26,27,28],"name":"Fox_Head","rotation":[-0.13921858370304,0.114223390817642,0.217090889811516,0.959397077560425],"scale":[1,1,1],"translation":[0.0369065552949905,-0.00000000476837,-0.00000000238419]},{"name":"Fox_Jaw","rotation":[0.00000000456352733380072,-0.00000006865302,0.342020094394684,0.939692616462708],"scale":[1,1,1],"translation":[0.0127218430861831,0.0189216323196888,0.00000000238418573772492]},{"children":[20],"name":"Fox_LEar1","rotation":[0.230904147028923,-0.30270075798035,-0.31637790799141,0.86888462305069],"scale":[1.00000095367432,0.999998986721039,1],"translation":[0.010986995883286,-0.03008017502725,0.0253106188029051]},{"name":"Fox_LEar2","rotation":[0.00408838363364339,-0.00279046269134,0.146368741989136,0.989217698574066],"scale":[0.9999960064888,1.00000298023224,1],"translation":[0.0164626874029636,0.00000000476837147544984,-0.00000000119209]},{"children":[22],"name":"Fox_REar1","rotation":[-0.25495374202728,0.274138301610947,-0.40889239311218,0.832258224487305],"scale":[1,0.999998986721039,1],"translation":[0.010986995883286,-0.0300801936537,-0.02531062811613]},{"name":"Fox_REar2","rotation":[0.0139734679833055,-0.00132008211222,-0.06870501488447,0.997538268566132],"scale":[1.00000202655792,0.999997973442078,1],"translation":[0.0164626874029636,0.00000000000000000305311330117557,0.00000000476837147544984]},{"name":"Fox_LEye","rotation":[0.690345466136932,0.153045818209648,0.212630987167358,0.674379885196686],"scale":[1,1,1],"translation":[0.0160655975341797,-0.0020738504827,0.0185948722064495]},{"name":"Fox_REye","rotation":[-0.69034558534622,-0.15304584801197,0.212630867958069,0.674379706382751],"scale":[1,1,1],"translation":[0.0160655975341797,-0.00207386002876,-0.01859487220645]},{"name":"Fox_UpperLEyelid","rotation":[0.733772754669189,-0.03472806513309,0.0320372432470322,0.677750051021576],"scale":[1,1,1],"translation":[0.0160655975341797,-0.00207386002876,0.018594877794385]},{"name":"Fox_LowerLEyelid","rotation":[0.61944717168808,0.308799624443054,0.394631445407867,0.604312837123871],"scale":[1,1,1],"translation":[0.0160655975341797,-0.00207386002876,0.018594877794385]},{"name":"Fox_UpperREyelid","rotation":[-0.73377269506455,0.0347279980778694,0.0320372097194195,0.677750110626221],"scale":[1,1,1],"translation":[0.0160655789077282,-0.00207386957482,-0.01859486848116]},{"name":"Fox_LowerREyelid","rotation":[-0.61944717168808,-0.3087996840477,0.394631385803223,0.604312837123871],"scale":[1,1,1],"translation":[0.0160655789077282,-0.00207386957482,-0.01859486848116]},{"children":[30],"name":"Fox_F_RLeg1","rotation":[0.327044397592545,0.94405859708786,0.00964745227247477,0.0412587709724903],"scale":[1,1,1],"translation":[0.00239976402372122,0.0004231309867464,-0.02510816603899]},{"children":[31],"name":"Fox_F_RLeg2","rotation":[-0.07232146710157,0.0376925021409988,0.396468639373779,0.914418697357178],"scale":[0.999998986721039,1.00000095367432,1],"translation":[0.0340102724730968,0.000000424385063979571,-0.00000005483627]},{"children":[32],"name":"Fox_F_RLegAnkle","rotation":[-0.10855135321617,-0.03252520412207,0.0389609858393669,0.992794394493103],"scale":[1,1,1],"translation":[0.0326986238360405,0.00000000000000000111022299980974,0]},{"name":"Fox_F_RLegDigit11","rotation":[0.00015179633919615,0.00019975659961346,0.610332071781158,0.792145609855652],"scale":[0.999997973442078,1.00000405311584,1.00000095367432],"translation":[0.0102812070399523,0.00093354220734909,0.000000292062765083756]},{"children":[34],"name":"Fox_LLeg1","rotation":[0.543747842311859,0.832985937595367,-0.04614685475826,0.0913408994674683],"scale":[0.999998986721039,1.00000095367432,1],"translation":[0.00000000238418573772492,-0.00000000476837,0.0192754864692688]},{"children":[35],"name":"Fox_LLeg2","rotation":[-0.09583607316017,0.0257743839174509,-0.48419111967087,0.86931586265564],"scale":[1.00000095367432,1,1],"translation":[0.0358892753720284,-0.00000009059906,0.0000000584125494640375]},{"children":[36],"name":"Fox_LLegAnkle","rotation":[-0.08126107603312,-0.08826942741871,0.604948222637177,0.787173926830292],"scale":[1.00000298023224,0.999997019767761,1],"translation":[0.0258319824934006,-0.00000000476837,0]},{"name":"Fox_LLegDigit11","rotation":[0.00013596646022051,0.00036949626519344,0.68223363161087,0.731134176254272],"scale":[1.00000596046448,0.999997973442078,1],"translation":[0.0325394831597805,0.00077513215364888,-0.00000000476837]},{"children":[38],"name":"Fox_RLeg1","rotation":[0.893338859081268,0.443590253591537,0.0199424065649509,-0.06910629570484],"scale":[0.999998986721039,1.00000095367432,1],"translation":[-0.00000000715256,-0.00000000476837,-0.01927548274398]},{"children":[39],"name":"Fox_RLeg2","rotation":[0.0688991099596024,-0.0413073413074,-0.77710348367691,0.624224960803986],"scale":[0.999994993209839,1.00000500679016,1],"translation":[0.0358892679214478,-0.00000009417533,-0.00000006258487]},{"children":[40],"name":"Fox_RLegAnkle","rotation":[0.111882597208023,0.0295314304530621,0.69876766204834,0.705927729606628],"scale":[0.9999920129776,1.0000079870224,1],"translation":[0.0258319843560457,0,0.00000000059604643443123]},{"name":"Fox_RLegDigit11","rotation":[-0.00018304745026,-0.00028376470436,0.552359938621521,0.833605647087097],"scale":[0.999989986419678,1.00001299381256,1.00000095367432],"translation":[0.0325394868850708,0.00077512860298156,-0.00000000357628]}],"samplers":[{}],"scene":0,"scenes":[{"name":"Root Scene","nodes":[0,1]}],"skins":[{"inverseBindMatrices":42,"joints":[17,25,26,18,11,12,19,20,13,10,9,33,14,2,34,35,36,3,4,5,6,7,8,15,27,28,29,21,22,30,37,31,38,39,40,32,23,24],"skeleton":17},{"joints":[2,3,4,5,6,7,8,9,10,11,12,13,14,15,16,17,18,19,20,21,22,23,24,25,26,27,28,29,30,31,32,33,34,35,36,37,38,39,40]}],"textures":[{"name":"Map #4","sampler":0,"source":0}]}