{"accessors":[{"bufferView":0,"byteOffset":0,"componentType":5126,"count":1,"max":[0],"min":[0],"type":"SCALAR"},{"bufferView":1,"byteOffset":0,"componentType":5123,"count":3615,"type":"SCALAR"},{"bufferView":2,"byteOffset":0,"componentType":5126,"count":783,"max":[0.0396651066839695,0.0878823101520538,0.0267903581261635],"min":[-0.04096671938896,-0.00255943299271,-0.02905922755599],"type":"VEC3"},{"bufferView":3,"byteOffset":0,"componentType":5126,"count":783,"type":"VEC3"},{"bufferView":4,"byteOffset":0,"componentType":5126,"count":783,"type":"VEC4"},{"bufferView":5,"byteOffset":0,"componentType":5126,"count":783,"type":"VEC2"},{"bufferView":6,"byteOffset":0,"componentType":5123,"count":1026,"type":"SCALAR"},{"bufferView":7,"byteOffset":0,"componentType":5126,"count":342,"max":[0.0797533765435219,0.11914649605751,0.0648341700434685],"min":[-0.08342903107405,0.0215986631810665,-0.06606142222881],"type":"VEC3"},{"bufferView":8,"byteOffset":0,"componentType":5126,"count":342,"type":"VEC3"},{"bufferView":9,"byteOffset":0,"componentType":5126,"count":342,"type":"VEC4"},{"bufferView":10,"byteOffset":0,"componentType":5126,"count":342,"type":"VEC2"}],"animations":[{"channels":[],"name":"Take 001","samplers":[]}],"asset":{"generator":"FBX2glTF v0.13.1","version":"2.0"},"bufferViews":[{"buffer":0,"byteLength":4,"byteOffset":0},{"buffer":0,"byteLength":7230,"byteOffset":4,"target":34963},{"buffer":0,"byteLength":9396,"byteOffset":7236,"target":34962},{"buffer":0,"byteLength":9396,"byteOffset":16632,"target":34962},{"buffer":0,"byteLength":12528,"byteOffset":26028,"target":34962},{"buffer":0,"byteLength":6264,"byteOffset":38556,"target":34962},{"buffer":0,"byteLength":2052,"byteOffset":44820,"target":34963},{"buffer":0,"byteLength":4104,"byteOffset":46872,"target":34962},{"buffer":0,"byteLength":4104,"byteOffset":50976,"target":34962},{"buffer":0,"byteLength":5472,"byteOffset":55080,"target":34962},{"buffer":0,"byteLength":2736,"byteOffset":60552,"target":34962}],"buffers":[{"byteLength":63288,"uri":"Deciduous_tree1.bin"}],"images":[{"name":"Tree_bark1","uri":"../Textures/Tree_bark1.png"},{"name":"Tree_leaves1","uri":"Tree_leaves1.psd"}],"materials":[{"alphaMode":"OPAQUE","doubleSided":false,"extras":{"fromFBX":{"isTruePBR":false,"shadingModel":"Phong"}},"name":"Material #3","pbrMetallicRoughness":{"baseColorFactor":[1,1,1,1],"baseColorTexture":{"index":0,"texCoord":0},"metallicFactor":0.400000005960464,"roughnessFactor":0.70710676908493}},{"alphaMode":"OPAQUE","doubleSided":false,"extras":{"fromFBX":{"isTruePBR":false,"shadingModel":"Phong"}},"name":"15 - Default","pbrMetallicRoughness":{"baseColorFactor":[1,1,1,1],"baseColorTexture":{"index":1,"texCoord":0},"metallicFactor":0.400000005960464,"roughnessFactor":0.70710676908493}}],"meshes":[{"name":"Deciduous_tree1","primitives":[{"attributes":{"COLOR_0":4,"NORMAL":3,"POSITION":2,"TEXCOORD_0":5},"indices":1,"material":0,"mode":4},{"attributes":{"COLOR_0":9,"NORMAL":8,"POSITION":7,"TEXCOORD_0":10},"indices":6,"material":1,"mode":4}]}],"nodes":[{"mesh":0,"name":"Deciduous_tree1","rotation":[-0.70710676908493,-0,0,0.70710676908493],"scale":[1,1,1],"translation":[0,0,0]}],"samplers":[{}],"scene":0,"scenes":[{"name":"Root Scene","nodes":[0]}],"textures":[{"name":"Map #14","sampler":0,"source":0},{"name":"Map #18","sampler":0,"source":1}]}