{"accessors":[{"bufferView":0,"byteOffset":0,"componentType":5126,"count":1,"max":[0],"min":[0],"type":"SCALAR"},{"bufferView":1,"byteOffset":0,"componentType":5123,"count":12,"type":"SCALAR"},{"bufferView":2,"byteOffset":0,"componentType":5126,"count":8,"max":[0.00505761988461018,0.00549261132255197,0.00503135658800602],"min":[-0.00486951926723,0.00000000059604643443123,-0.00511598121375],"type":"VEC3"},{"bufferView":3,"byteOffset":0,"componentType":5126,"count":8,"type":"VEC3"},{"bufferView":4,"byteOffset":0,"componentType":5126,"count":8,"type":"VEC4"},{"bufferView":5,"byteOffset":0,"componentType":5126,"count":8,"type":"VEC2"}],"animations":[{"channels":[],"name":"Take 001","samplers":[]}],"asset":{"generator":"FBX2glTF v0.13.1","version":"2.0"},"bufferViews":[{"buffer":0,"byteLength":4,"byteOffset":0},{"buffer":0,"byteLength":24,"byteOffset":4,"target":34963},{"buffer":0,"byteLength":96,"byteOffset":28,"target":34962},{"buffer":0,"byteLength":96,"byteOffset":124,"target":34962},{"buffer":0,"byteLength":128,"byteOffset":220,"target":34962},{"buffer":0,"byteLength":64,"byteOffset":348,"target":34962}],"buffers":[{"byteLength":412,"uri":"Grass1.bin"}],"images":[{"name":"Plant","uri":"Plant.psd"}],"materials":[{"alphaMode":"OPAQUE","doubleSided":false,"extras":{"fromFBX":{"isTruePBR":false,"shadingModel":"Phong"}},"name":"05 - Default","pbrMetallicRoughness":{"baseColorFactor":[1,1,1,1],"baseColorTexture":{"index":0,"texCoord":0},"metallicFactor":0.400000005960464,"roughnessFactor":0.70710676908493}}],"meshes":[{"name":"Grass1","primitives":[{"attributes":{"COLOR_0":4,"NORMAL":3,"POSITION":2,"TEXCOORD_0":5},"indices":1,"material":0,"mode":4}]}],"nodes":[{"mesh":0,"name":"Grass1","rotation":[-0.70710676908493,-0,0,0.70710676908493],"scale":[1,1,1],"translation":[0,0,0]}],"samplers":[{}],"scene":0,"scenes":[{"name":"Root Scene","nodes":[0]}],"textures":[{"name":"Map #3","sampler":0,"source":0}]}