{"accessors":[{"bufferView":0,"byteOffset":0,"componentType":5126,"count":1,"max":[0],"min":[0],"type":"SCALAR"},{"bufferView":1,"byteOffset":0,"componentType":5123,"count":792,"type":"SCALAR"},{"bufferView":2,"byteOffset":0,"componentType":5126,"count":269,"max":[0.00183461292181164,0.00394449569284916,0.00273786741308868],"min":[-0.00155996589456,-0.00019963837985,-0.00231755943969],"type":"VEC3"},{"bufferView":3,"byteOffset":0,"componentType":5126,"count":269,"type":"VEC3"},{"bufferView":4,"byteOffset":0,"componentType":5126,"count":269,"type":"VEC4"},{"bufferView":5,"byteOffset":0,"componentType":5126,"count":269,"type":"VEC2"}],"animations":[{"channels":[],"name":"Take 001","samplers":[]}],"asset":{"generator":"FBX2glTF v0.13.1","version":"2.0"},"bufferViews":[{"buffer":0,"byteLength":4,"byteOffset":0},{"buffer":0,"byteLength":1584,"byteOffset":4,"target":34963},{"buffer":0,"byteLength":3228,"byteOffset":1588,"target":34962},{"buffer":0,"byteLength":3228,"byteOffset":4816,"target":34962},{"buffer":0,"byteLength":4304,"byteOffset":8044,"target":34962},{"buffer":0,"byteLength":2152,"byteOffset":12348,"target":34962}],"buffers":[{"byteLength":14500,"uri":"Mushroom1.bin"}],"images":[{"name":"Plant","uri":"Plant.psd"}],"materials":[{"alphaMode":"OPAQUE","doubleSided":false,"extras":{"fromFBX":{"isTruePBR":false,"shadingModel":"Phong"}},"name":"05 - Default","pbrMetallicRoughness":{"baseColorFactor":[1,1,1,1],"baseColorTexture":{"index":0,"texCoord":0},"metallicFactor":0.400000005960464,"roughnessFactor":0.70710676908493}}],"meshes":[{"name":"Mushroom1","primitives":[{"attributes":{"COLOR_0":4,"NORMAL":3,"POSITION":2,"TEXCOORD_0":5},"indices":1,"material":0,"mode":4}]}],"nodes":[{"mesh":0,"name":"Mushroom1","rotation":[-0.70710682868957,0,0,0.707106709480286],"scale":[1,1,1],"translation":[0,0,0]}],"samplers":[{}],"scene":0,"scenes":[{"name":"Root Scene","nodes":[0]}],"textures":[{"name":"Map #3","sampler":0,"source":0}]}