{"accessors":[{"bufferView":0,"byteOffset":0,"componentType":5126,"count":1,"max":[0],"min":[0],"type":"SCALAR"},{"bufferView":1,"byteOffset":0,"componentType":5123,"count":1974,"type":"SCALAR"},{"bufferView":2,"byteOffset":0,"componentType":5126,"count":356,"max":[0.0464547723531723,0.0531922914087772,0.0419656187295914],"min":[-0.04645473510027,-0.00204368587583,-0.04196560755372],"type":"VEC3"},{"bufferView":3,"byteOffset":0,"componentType":5126,"count":356,"type":"VEC3"},{"bufferView":4,"byteOffset":0,"componentType":5126,"count":356,"type":"VEC2"},{"bufferView":5,"byteOffset":0,"componentType":5126,"count":356,"type":"VEC2"}],"animations":[{"channels":[],"name":"Take 001","samplers":[]}],"asset":{"generator":"FBX2glTF v0.13.1","version":"2.0"},"bufferViews":[{"buffer":0,"byteLength":4,"byteOffset":0},{"buffer":0,"byteLength":3948,"byteOffset":4,"target":34963},{"buffer":0,"byteLength":4272,"byteOffset":3952,"target":34962},{"buffer":0,"byteLength":4272,"byteOffset":8224,"target":34962},{"buffer":0,"byteLength":2848,"byteOffset":12496,"target":34962},{"buffer":0,"byteLength":2848,"byteOffset":15344,"target":34962}],"buffers":[{"byteLength":18192,"uri":"Rock1.bin"}],"images":[{"name":"Rock1","uri":"../Textures/Rock1.tga"}],"materials":[{"alphaMode":"OPAQUE","doubleSided":false,"extras":{"fromFBX":{"isTruePBR":false,"shadingModel":"Phong"}},"name":"03 - Default","pbrMetallicRoughness":{"baseColorFactor":[1,1,1,1],"baseColorTexture":{"index":0,"texCoord":0},"metallicFactor":0.400000005960464,"roughnessFactor":0.70710676908493}}],"meshes":[{"name":"Rock1","primitives":[{"attributes":{"NORMAL":3,"POSITION":2,"TEXCOORD_0":4,"TEXCOORD_1":5},"indices":1,"material":0,"mode":4}]}],"nodes":[{"mesh":0,"name":"Rock1","rotation":[-0.70710676908493,-0,0,0.70710676908493],"scale":[1,1,1],"translation":[0,0,0]}],"samplers":[{}],"scene":0,"scenes":[{"name":"Root Scene","nodes":[0]}],"textures":[{"name":"Map #1","sampler":0,"source":0}]}