{"accessors":[{"bufferView":0,"byteOffset":0,"componentType":5123,"count":858,"type":"SCALAR"},{"bufferView":1,"byteOffset":0,"componentType":5126,"count":279,"max":[0.0175028797239065,0.166074603796005,0.0370115488767624],"min":[-0.01750287972391,0.0210874695330858,-0.03392754122615],"type":"VEC3"},{"bufferView":2,"byteOffset":0,"componentType":5126,"count":279,"type":"VEC3"},{"bufferView":3,"byteOffset":0,"componentType":5126,"count":279,"type":"VEC4"},{"bufferView":4,"byteOffset":0,"componentType":5126,"count":279,"type":"VEC2"},{"bufferView":5,"byteOffset":0,"componentType":5123,"count":4854,"type":"SCALAR"},{"bufferView":6,"byteOffset":0,"componentType":5126,"count":1370,"max":[0.0192908197641373,0.173251092433929,0.0279789697378874],"min":[-0.01929081976414,-0.13539738953114,-0.03013771027327],"type":"VEC3"},{"bufferView":7,"byteOffset":0,"componentType":5126,"count":1370,"type":"VEC3"},{"bufferView":8,"byteOffset":0,"componentType":5126,"count":1370,"type":"VEC4"},{"bufferView":9,"byteOffset":0,"componentType":5126,"count":1370,"type":"VEC2"},{"bufferView":10,"byteOffset":0,"componentType":5123,"count":3492,"type":"SCALAR"},{"bufferView":11,"byteOffset":0,"componentType":5126,"count":1040,"max":[0.0185369495302439,0.148049294948578,0.0277034211903811],"min":[-0.01853694953024,-0.0991298481822,-0.02291749976575],"type":"VEC3"},{"bufferView":12,"byteOffset":0,"componentType":5126,"count":1040,"type":"VEC3"},{"bufferView":13,"byteOffset":0,"componentType":5126,"count":1040,"type":"VEC4"},{"bufferView":14,"byteOffset":0,"componentType":5126,"count":1040,"type":"VEC2"},{"bufferView":15,"byteOffset":0,"componentType":5123,"count":3990,"type":"SCALAR"},{"bufferView":16,"byteOffset":0,"componentType":5126,"count":1036,"max":[0.0241648089140654,0.217226102948189,0.0382536686956882],"min":[-0.02416480891407,-0.07521788775921,-0.09370712190866],"type":"VEC3"},{"bufferView":17,"byteOffset":0,"componentType":5126,"count":1036,"type":"VEC3"},{"bufferView":18,"byteOffset":0,"componentType":5126,"count":1036,"type":"VEC4"},{"bufferView":19,"byteOffset":0,"componentType":5126,"count":1036,"type":"VEC2"}],"asset":{"generator":"FBX2glTF v0.13.1","version":"2.0"},"bufferViews":[{"buffer":0,"byteLength":1716,"byteOffset":0,"target":34963},{"buffer":0,"byteLength":3348,"byteOffset":1716,"target":34962},{"buffer":0,"byteLength":3348,"byteOffset":5064,"target":34962},{"buffer":0,"byteLength":4464,"byteOffset":8412,"target":34962},{"buffer":0,"byteLength":2232,"byteOffset":12876,"target":34962},{"buffer":0,"byteLength":9708,"byteOffset":15108,"target":34963},{"buffer":0,"byteLength":16440,"byteOffset":24816,"target":34962},{"buffer":0,"byteLength":16440,"byteOffset":41256,"target":34962},{"buffer":0,"byteLength":21920,"byteOffset":57696,"target":34962},{"buffer":0,"byteLength":10960,"byteOffset":79616,"target":34962},{"buffer":0,"byteLength":6984,"byteOffset":90576,"target":34963},{"buffer":0,"byteLength":12480,"byteOffset":97560,"target":34962},{"buffer":0,"byteLength":12480,"byteOffset":110040,"target":34962},{"buffer":0,"byteLength":16640,"byteOffset":122520,"target":34962},{"buffer":0,"byteLength":8320,"byteOffset":139160,"target":34962},{"buffer":0,"byteLength":7980,"byteOffset":147480,"target":34963},{"buffer":0,"byteLength":12432,"byteOffset":155460,"target":34962},{"buffer":0,"byteLength":12432,"byteOffset":167892,"target":34962},{"buffer":0,"byteLength":16576,"byteOffset":180324,"target":34962},{"buffer":0,"byteLength":8288,"byteOffset":196900,"target":34962}],"buffers":[{"byteLength":205188,"uri":"axe_a.bin"}],"materials":[{"alphaMode":"OPAQUE","doubleSided":false,"extras":{"fromFBX":{"isTruePBR":false,"shadingModel":"Phong"}},"name":"Default","pbrMetallicRoughness":{"baseColorFactor":[1,1,1,1],"metallicFactor":0.400000005960464,"roughnessFactor":0.816496610641479}}],"meshes":[{"name":"axe02_low","primitives":[{"attributes":{"NORMAL":2,"POSITION":1,"TANGENT":3,"TEXCOORD_0":4},"indices":0,"material":0,"mode":4}]},{"name":"axe03_low","primitives":[{"attributes":{"NORMAL":7,"POSITION":6,"TANGENT":8,"TEXCOORD_0":9},"indices":5,"material":0,"mode":4}]},{"name":"axe01_low","primitives":[{"attributes":{"NORMAL":12,"POSITION":11,"TANGENT":13,"TEXCOORD_0":14},"indices":10,"material":0,"mode":4}]},{"name":"axe00_low","primitives":[{"attributes":{"NORMAL":17,"POSITION":16,"TANGENT":18,"TEXCOORD_0":19},"indices":15,"material":0,"mode":4}]}],"nodes":[{"name":"Render","rotation":[0,0,0,1],"scale":[1,1,1],"translation":[0,0,0]},{"name":"Main Camera","rotation":[-0.06847646832466,0.880383968353271,0.134045124053955,0.4497409760952],"scale":[1,0.999999940395355,1],"translation":[0.383644938468933,0.188521310687065,-0.3052342236042]},{"name":"Sky","rotation":[0,0,0,1],"scale":[1,1,1],"translation":[0,0,0]},{"children":[4,6,8,10],"name":"axe_a","rotation":[0,0,0,1],"scale":[1,1,1],"translation":[0,0,0]},{"children":[5],"mesh":0,"name":"axe02_low","rotation":[0,0,0,1],"scale":[1,1,1],"translation":[0,0,0]},{"name":"Default","rotation":[0,0,0,1],"scale":[1,1,1],"translation":[0,0,0]},{"children":[7],"mesh":1,"name":"axe03_low","rotation":[0,0,0,1],"scale":[1,1,1],"translation":[0,0,0]},{"name":"Default 1","rotation":[0,0,0,1],"scale":[1,1,1],"translation":[0,0,0]},{"children":[9],"mesh":2,"name":"axe01_low","rotation":[0,0,0,1],"scale":[1,1,1],"translation":[0,0,0]},{"name":"Default 2","rotation":[0,0,0,1],"scale":[1,1,1],"translation":[0,0,0]},{"children":[11],"mesh":3,"name":"axe00_low","rotation":[0,0,0,1],"scale":[1,1,1],"translation":[0,0,0]},{"name":"Default 3","rotation":[0,0,0,1],"scale":[1,1,1],"translation":[0,0,0]}],"samplers":[{}],"scene":0,"scenes":[{"name":"Root Scene","nodes":[0,1,2,3]}]}