{"accessors":[{"bufferView":0,"byteOffset":0,"componentType":5126,"count":1,"max":[0],"min":[0],"type":"SCALAR"},{"bufferView":1,"byteOffset":0,"componentType":5123,"count":2676,"type":"SCALAR"},{"bufferView":2,"byteOffset":0,"componentType":5126,"count":2449,"max":[4,0.416575759649277,6.29931116104126],"min":[-0.99999815225601,-0.07023178786039,-0.00000030517577],"type":"VEC3"},{"bufferView":3,"byteOffset":0,"componentType":5126,"count":2449,"type":"VEC3"},{"bufferView":4,"byteOffset":0,"componentType":5126,"count":2449,"type":"VEC2"}],"animations":[{"channels":[],"name":"Take 001","samplers":[]}],"asset":{"generator":"FBX2glTF v0.13.1","version":"2.0"},"bufferViews":[{"buffer":0,"byteLength":4,"byteOffset":0},{"buffer":0,"byteLength":5352,"byteOffset":4,"target":34963},{"buffer":0,"byteLength":29388,"byteOffset":5356,"target":34962},{"buffer":0,"byteLength":29388,"byteOffset":34744,"target":34962},{"buffer":0,"byteLength":19592,"byteOffset":64132,"target":34962}],"buffers":[{"byteLength":83724,"uri":"SM_Env_Road_T_01.bin"}],"images":[{"name":"Texture_01","uri":"Texture_01.psd"}],"materials":[{"alphaMode":"OPAQUE","doubleSided":false,"extras":{"fromFBX":{"isTruePBR":false,"shadingModel":"Phong"}},"name":"blinn1","pbrMetallicRoughness":{"baseColorFactor":[0.800000011920929,0.800000011920929,0.800000011920929,1],"baseColorTexture":{"index":0,"texCoord":0},"metallicFactor":0.400000005960464,"roughnessFactor":0.471501290798187}}],"meshes":[{"name":"SM_Env_Road_T_01","primitives":[{"attributes":{"NORMAL":3,"POSITION":2,"TEXCOORD_0":4},"indices":1,"material":0,"mode":4}]}],"nodes":[{"mesh":0,"name":"SM_Env_Road_T_01","rotation":[0,0,0,1],"scale":[1,1,1],"translation":[0,0,0]}],"samplers":[{}],"scene":0,"scenes":[{"name":"Root Scene","nodes":[0]}],"textures":[{"name":"file3","sampler":0,"source":0}]}