{"accessors":[{"bufferView":0,"byteOffset":0,"componentType":5126,"count":1,"max":[0],"min":[0],"type":"SCALAR"},{"bufferView":1,"byteOffset":0,"componentType":5123,"count":1476,"type":"SCALAR"},{"bufferView":2,"byteOffset":0,"componentType":5126,"count":1474,"max":[3.51484370231628,0.399544596672058,3.7216625213623],"min":[-3.51483392715454,0,-3.72166013717651],"type":"VEC3"},{"bufferView":3,"byteOffset":0,"componentType":5126,"count":1474,"type":"VEC3"},{"bufferView":4,"byteOffset":0,"componentType":5126,"count":1474,"type":"VEC2"}],"animations":[{"channels":[],"name":"Take 001","samplers":[]}],"asset":{"generator":"FBX2glTF v0.13.1","version":"2.0"},"bufferViews":[{"buffer":0,"byteLength":4,"byteOffset":0},{"buffer":0,"byteLength":2952,"byteOffset":4,"target":34963},{"buffer":0,"byteLength":17688,"byteOffset":2956,"target":34962},{"buffer":0,"byteLength":17688,"byteOffset":20644,"target":34962},{"buffer":0,"byteLength":11792,"byteOffset":38332,"target":34962}],"buffers":[{"byteLength":50124,"uri":"SM_Env_GroundMounds_05.bin"}],"images":[{"name":"Texture_01","uri":"Texture_01.psd"}],"materials":[{"alphaMode":"OPAQUE","doubleSided":false,"extras":{"fromFBX":{"isTruePBR":false,"shadingModel":"Phong"}},"name":"blinn1","pbrMetallicRoughness":{"baseColorFactor":[0.800000011920929,0.800000011920929,0.800000011920929,1],"baseColorTexture":{"index":0,"texCoord":0},"metallicFactor":0.400000005960464,"roughnessFactor":0.471501290798187}}],"meshes":[{"name":"SM_Env_GroundMounds_05","primitives":[{"attributes":{"NORMAL":3,"POSITION":2,"TEXCOORD_0":4},"indices":1,"material":0,"mode":4}]}],"nodes":[{"mesh":0,"name":"SM_Env_GroundMounds_05","rotation":[0,0,0,1],"scale":[1,1,1],"translation":[0,0,0]}],"samplers":[{}],"scene":0,"scenes":[{"name":"Root Scene","nodes":[0]}],"textures":[{"name":"file3","sampler":0,"source":0}]}