{"accessors":[{"bufferView":0,"byteOffset":0,"componentType":5126,"count":1,"max":[0],"min":[0],"type":"SCALAR"},{"bufferView":1,"byteOffset":0,"componentType":5123,"count":642,"type":"SCALAR"},{"bufferView":2,"byteOffset":0,"componentType":5126,"count":642,"max":[0.113235853612423,0.204325020313263,0.0284286066889763],"min":[-0.02409238740802,-0.01227898709476,-0.02842860668898],"type":"VEC3"},{"bufferView":3,"byteOffset":0,"componentType":5126,"count":642,"type":"VEC3"},{"bufferView":4,"byteOffset":0,"componentType":5126,"count":642,"type":"VEC2"}],"animations":[{"channels":[],"name":"Take 001","samplers":[]}],"asset":{"generator":"FBX2glTF v0.13.1","version":"2.0"},"bufferViews":[{"buffer":0,"byteLength":4,"byteOffset":0},{"buffer":0,"byteLength":1284,"byteOffset":4,"target":34963},{"buffer":0,"byteLength":7704,"byteOffset":1288,"target":34962},{"buffer":0,"byteLength":7704,"byteOffset":8992,"target":34962},{"buffer":0,"byteLength":5136,"byteOffset":16696,"target":34962}],"buffers":[{"byteLength":21832,"uri":"SM_Item_Waterskin_01.bin"}],"images":[{"name":"Texture_01","uri":"Texture_01.psd"}],"materials":[{"alphaMode":"OPAQUE","doubleSided":false,"extras":{"fromFBX":{"isTruePBR":false,"shadingModel":"Phong"}},"name":"blinn1","pbrMetallicRoughness":{"baseColorFactor":[0.800000011920929,0.800000011920929,0.800000011920929,1],"baseColorTexture":{"index":0,"texCoord":0},"metallicFactor":0.400000005960464,"roughnessFactor":0.471501290798187}}],"meshes":[{"name":"SM_Item_Waterskin_01","primitives":[{"attributes":{"NORMAL":3,"POSITION":2,"TEXCOORD_0":4},"indices":1,"material":0,"mode":4}]}],"nodes":[{"mesh":0,"name":"SM_Item_Waterskin_01","rotation":[0,0,0,1],"scale":[1,1,1],"translation":[0,0,0]}],"samplers":[{}],"scene":0,"scenes":[{"name":"Root Scene","nodes":[0]}],"textures":[{"name":"file3","sampler":0,"source":0}]}