{"accessors":[{"bufferView":0,"byteOffset":0,"componentType":5126,"count":1,"max":[0],"min":[0],"type":"SCALAR"},{"bufferView":1,"byteOffset":0,"componentType":5123,"count":2220,"type":"SCALAR"},{"bufferView":2,"byteOffset":0,"componentType":5126,"count":2116,"max":[2.77594709396362,2.28579306602478,0.114862971007824],"min":[-2.77594971656799,0.554602265357971,-0.11486327648163],"type":"VEC3"},{"bufferView":3,"byteOffset":0,"componentType":5126,"count":2116,"type":"VEC3"},{"bufferView":4,"byteOffset":0,"componentType":5126,"count":2116,"type":"VEC2"}],"animations":[{"channels":[],"name":"Take 001","samplers":[]}],"asset":{"generator":"FBX2glTF v0.13.1","version":"2.0"},"bufferViews":[{"buffer":0,"byteLength":4,"byteOffset":0},{"buffer":0,"byteLength":4440,"byteOffset":4,"target":34963},{"buffer":0,"byteLength":25392,"byteOffset":4444,"target":34962},{"buffer":0,"byteLength":25392,"byteOffset":29836,"target":34962},{"buffer":0,"byteLength":16928,"byteOffset":55228,"target":34962}],"buffers":[{"byteLength":72156,"uri":"SM_Prop_Washingline_02.bin"}],"images":[{"name":"Texture_01","uri":"Texture_01.psd"}],"materials":[{"alphaMode":"OPAQUE","doubleSided":false,"extras":{"fromFBX":{"isTruePBR":false,"shadingModel":"Phong"}},"name":"blinn1","pbrMetallicRoughness":{"baseColorFactor":[0.800000011920929,0.800000011920929,0.800000011920929,1],"baseColorTexture":{"index":0,"texCoord":0},"metallicFactor":0.400000005960464,"roughnessFactor":0.471501290798187}}],"meshes":[{"name":"SM_Prop_Washingline_02","primitives":[{"attributes":{"NORMAL":3,"POSITION":2,"TEXCOORD_0":4},"indices":1,"material":0,"mode":4}]}],"nodes":[{"mesh":0,"name":"SM_Prop_Washingline_02","rotation":[0,0,0,1],"scale":[1,1,1],"translation":[0,0,0]}],"samplers":[{}],"scene":0,"scenes":[{"name":"Root Scene","nodes":[0]}],"textures":[{"name":"file3","sampler":0,"source":0}]}