{"accessors":[{"bufferView":0,"byteOffset":0,"componentType":5126,"count":1,"max":[0],"min":[0],"type":"SCALAR"},{"bufferView":1,"byteOffset":0,"componentType":5123,"count":708,"type":"SCALAR"},{"bufferView":2,"byteOffset":0,"componentType":5126,"count":702,"max":[0.248325183987617,0.458389967679977,0.176403284072876],"min":[-0.248325496912,-0.00491611473262,-0.17640328407288],"type":"VEC3"},{"bufferView":3,"byteOffset":0,"componentType":5126,"count":702,"type":"VEC3"},{"bufferView":4,"byteOffset":0,"componentType":5126,"count":702,"type":"VEC2"}],"animations":[{"channels":[],"name":"Take 001","samplers":[]}],"asset":{"generator":"FBX2glTF v0.13.1","version":"2.0"},"bufferViews":[{"buffer":0,"byteLength":4,"byteOffset":0},{"buffer":0,"byteLength":1416,"byteOffset":4,"target":34963},{"buffer":0,"byteLength":8424,"byteOffset":1420,"target":34962},{"buffer":0,"byteLength":8424,"byteOffset":9844,"target":34962},{"buffer":0,"byteLength":5616,"byteOffset":18268,"target":34962}],"buffers":[{"byteLength":23884,"uri":"SM_Prop_Sack_01.bin"}],"images":[{"name":"Texture_01","uri":"Texture_01.psd"}],"materials":[{"alphaMode":"OPAQUE","doubleSided":false,"extras":{"fromFBX":{"isTruePBR":false,"shadingModel":"Phong"}},"name":"blinn1","pbrMetallicRoughness":{"baseColorFactor":[0.800000011920929,0.800000011920929,0.800000011920929,1],"baseColorTexture":{"index":0,"texCoord":0},"metallicFactor":0.400000005960464,"roughnessFactor":0.471501290798187}}],"meshes":[{"name":"SM_Prop_Sack_01","primitives":[{"attributes":{"NORMAL":3,"POSITION":2,"TEXCOORD_0":4},"indices":1,"material":0,"mode":4}]}],"nodes":[{"mesh":0,"name":"SM_Prop_Sack_01","rotation":[0,0,0,1],"scale":[1,1,1],"translation":[0,0,0]}],"samplers":[{}],"scene":0,"scenes":[{"name":"Root Scene","nodes":[0]}],"textures":[{"name":"file3","sampler":0,"source":0}]}