{"accessors":[{"bufferView":0,"byteOffset":0,"componentType":5126,"count":1,"max":[0],"min":[0],"type":"SCALAR"},{"bufferView":1,"byteOffset":0,"componentType":5123,"count":672,"type":"SCALAR"},{"bufferView":2,"byteOffset":0,"componentType":5126,"count":664,"max":[2.77594971656799,2.28579306602478,0.0510488897562027],"min":[-2.77594661712646,1.65979242324829,-0.05104827880859],"type":"VEC3"},{"bufferView":3,"byteOffset":0,"componentType":5126,"count":664,"type":"VEC3"},{"bufferView":4,"byteOffset":0,"componentType":5126,"count":664,"type":"VEC2"}],"animations":[{"channels":[],"name":"Take 001","samplers":[]}],"asset":{"generator":"FBX2glTF v0.13.1","version":"2.0"},"bufferViews":[{"buffer":0,"byteLength":4,"byteOffset":0},{"buffer":0,"byteLength":1344,"byteOffset":4,"target":34963},{"buffer":0,"byteLength":7968,"byteOffset":1348,"target":34962},{"buffer":0,"byteLength":7968,"byteOffset":9316,"target":34962},{"buffer":0,"byteLength":5312,"byteOffset":17284,"target":34962}],"buffers":[{"byteLength":22596,"uri":"SM_Prop_Washingline_01.bin"}],"images":[{"name":"Texture_01","uri":"Texture_01.psd"}],"materials":[{"alphaMode":"OPAQUE","doubleSided":false,"extras":{"fromFBX":{"isTruePBR":false,"shadingModel":"Phong"}},"name":"blinn1","pbrMetallicRoughness":{"baseColorFactor":[0.800000011920929,0.800000011920929,0.800000011920929,1],"baseColorTexture":{"index":0,"texCoord":0},"metallicFactor":0.400000005960464,"roughnessFactor":0.471501290798187}}],"meshes":[{"name":"SM_Prop_Washingline_01","primitives":[{"attributes":{"NORMAL":3,"POSITION":2,"TEXCOORD_0":4},"indices":1,"material":0,"mode":4}]}],"nodes":[{"mesh":0,"name":"SM_Prop_Washingline_01","rotation":[0,0,0,1],"scale":[1,1,1],"translation":[0,0,0]}],"samplers":[{}],"scene":0,"scenes":[{"name":"Root Scene","nodes":[0]}],"textures":[{"name":"file3","sampler":0,"source":0}]}