{"accessors":[{"bufferView":0,"byteOffset":0,"componentType":5123,"count":1272,"type":"SCALAR"},{"bufferView":1,"byteOffset":0,"componentType":5126,"count":469,"max":[1.23929703235626,3.63062286376953,1.3987410068512],"min":[-1.20599400997162,0.00192410999443382,-1.3533239364624],"type":"VEC3"},{"bufferView":2,"byteOffset":0,"componentType":5126,"count":469,"type":"VEC3"},{"bufferView":3,"byteOffset":0,"componentType":5126,"count":469,"type":"VEC4"},{"bufferView":4,"byteOffset":0,"componentType":5126,"count":469,"type":"VEC2"},{"bufferView":5,"byteOffset":0,"componentType":5123,"count":78,"type":"SCALAR"},{"bufferView":6,"byteOffset":0,"componentType":5126,"count":44,"max":[1.23651993274689,0.0187367703765631,1.36599099636078],"min":[-1.20321702957153,-0.5115864276886,-1.32057404518127],"type":"VEC3"},{"bufferView":7,"byteOffset":0,"componentType":5126,"count":44,"type":"VEC3"},{"bufferView":8,"byteOffset":0,"componentType":5126,"count":44,"type":"VEC4"},{"bufferView":9,"byteOffset":0,"componentType":5126,"count":44,"type":"VEC2"},{"bufferView":10,"byteOffset":0,"componentType":5123,"count":96,"type":"SCALAR"},{"bufferView":11,"byteOffset":0,"componentType":5126,"count":52,"max":[0.647697687149048,0.123732298612595,0.796462297439575],"min":[-0.61439496278763,0.0101411193609238,-0.75104552507401],"type":"VEC3"},{"bufferView":12,"byteOffset":0,"componentType":5126,"count":52,"type":"VEC3"},{"bufferView":13,"byteOffset":0,"componentType":5126,"count":52,"type":"VEC4"},{"bufferView":14,"byteOffset":0,"componentType":5126,"count":52,"type":"VEC2"},{"bufferView":15,"byteOffset":0,"componentType":5123,"count":36,"type":"SCALAR"},{"bufferView":16,"byteOffset":0,"componentType":5126,"count":24,"max":[0.419284403324127,0.00430390005931258,1.8137389421463],"min":[-0.38598147034645,-0.42761370539665,0.928509891033173],"type":"VEC3"},{"bufferView":17,"byteOffset":0,"componentType":5126,"count":24,"type":"VEC3"},{"bufferView":18,"byteOffset":0,"componentType":5126,"count":24,"type":"VEC4"},{"bufferView":19,"byteOffset":0,"componentType":5126,"count":24,"type":"VEC2"},{"bufferView":20,"byteOffset":0,"componentType":5123,"count":2814,"type":"SCALAR"},{"bufferView":21,"byteOffset":0,"componentType":5126,"count":1266,"max":[1.31544601917267,4.29756116867065,2.08436703681946],"min":[-1.28214287757874,-0.50625240802765,-1.32118105888367],"type":"VEC3"},{"bufferView":22,"byteOffset":0,"componentType":5126,"count":1266,"type":"VEC3"},{"bufferView":23,"byteOffset":0,"componentType":5126,"count":1266,"type":"VEC4"},{"bufferView":24,"byteOffset":0,"componentType":5126,"count":1266,"type":"VEC2"},{"bufferView":25,"byteOffset":0,"componentType":5123,"count":450,"type":"SCALAR"},{"bufferView":26,"byteOffset":0,"componentType":5126,"count":300,"max":[1.31318402290344,-0.13689470291138,1.42221999168396],"min":[-1.2798810005188,-0.50323307514191,-1.37680399417877],"type":"VEC3"},{"bufferView":27,"byteOffset":0,"componentType":5126,"count":300,"type":"VEC3"},{"bufferView":28,"byteOffset":0,"componentType":5126,"count":300,"type":"VEC4"},{"bufferView":29,"byteOffset":0,"componentType":5126,"count":300,"type":"VEC2"},{"bufferView":30,"byteOffset":0,"componentType":5123,"count":252,"type":"SCALAR"},{"bufferView":31,"byteOffset":0,"componentType":5126,"count":168,"max":[1.09293794631958,-0.1746121942997,1.26407301425934],"min":[-1.05963504314423,-0.36732798814774,-1.23358798027039],"type":"VEC3"},{"bufferView":32,"byteOffset":0,"componentType":5126,"count":168,"type":"VEC3"},{"bufferView":33,"byteOffset":0,"componentType":5126,"count":168,"type":"VEC4"},{"bufferView":34,"byteOffset":0,"componentType":5126,"count":168,"type":"VEC2"},{"bufferView":35,"byteOffset":0,"componentType":5123,"count":504,"type":"SCALAR"},{"bufferView":36,"byteOffset":0,"componentType":5126,"count":336,"max":[1.25573301315308,-0.13689470291138,1.37223792076111],"min":[-1.22242999076843,-0.50486791133881,-1.36187195777893],"type":"VEC3"},{"bufferView":37,"byteOffset":0,"componentType":5126,"count":336,"type":"VEC3"},{"bufferView":38,"byteOffset":0,"componentType":5126,"count":336,"type":"VEC4"},{"bufferView":39,"byteOffset":0,"componentType":5126,"count":336,"type":"VEC2"},{"bufferView":40,"byteOffset":0,"componentType":5123,"count":192,"type":"SCALAR"},{"bufferView":41,"byteOffset":0,"componentType":5126,"count":128,"max":[1.14541804790497,-0.23231829702854,0.931397080421448],"min":[-1.11211502552032,-0.36732798814774,-1.21865594387054],"type":"VEC3"},{"bufferView":42,"byteOffset":0,"componentType":5126,"count":128,"type":"VEC3"},{"bufferView":43,"byteOffset":0,"componentType":5126,"count":128,"type":"VEC4"},{"bufferView":44,"byteOffset":0,"componentType":5126,"count":128,"type":"VEC2"},{"bufferView":45,"byteOffset":0,"componentType":5123,"count":36,"type":"SCALAR"},{"bufferView":46,"byteOffset":0,"componentType":5126,"count":24,"max":[0.419284284114838,-0.08094593882561,1.98145484924316],"min":[-0.38598147034645,-0.50625258684158,1.09293496608734],"type":"VEC3"},{"bufferView":47,"byteOffset":0,"componentType":5126,"count":24,"type":"VEC3"},{"bufferView":48,"byteOffset":0,"componentType":5126,"count":24,"type":"VEC4"},{"bufferView":49,"byteOffset":0,"componentType":5126,"count":24,"type":"VEC2"},{"bufferView":50,"byteOffset":0,"componentType":5123,"count":96,"type":"SCALAR"},{"bufferView":51,"byteOffset":0,"componentType":5126,"count":64,"max":[0.884763836860657,1.72829186916351,0.945331454277039],"min":[-0.85146099328995,-0.01464750990272,-0.89991468191147],"type":"VEC3"},{"bufferView":52,"byteOffset":0,"componentType":5126,"count":64,"type":"VEC3"},{"bufferView":53,"byteOffset":0,"componentType":5126,"count":64,"type":"VEC4"},{"bufferView":54,"byteOffset":0,"componentType":5126,"count":64,"type":"VEC2"},{"bufferView":55,"byteOffset":0,"componentType":5123,"count":1440,"type":"SCALAR"},{"bufferView":56,"byteOffset":0,"componentType":5126,"count":662,"max":[1.19607996940613,3.57825708389282,0.566993296146393],"min":[-1.19581592082977,1.58076500892639,-0.85319203138351],"type":"VEC3"},{"bufferView":57,"byteOffset":0,"componentType":5126,"count":662,"type":"VEC3"},{"bufferView":58,"byteOffset":0,"componentType":5126,"count":662,"type":"VEC4"},{"bufferView":59,"byteOffset":0,"componentType":5126,"count":662,"type":"VEC2"},{"bufferView":60,"byteOffset":0,"componentType":5123,"count":1440,"type":"SCALAR"},{"bufferView":61,"byteOffset":0,"componentType":5126,"count":662,"max":[1.22911906242371,3.57825708389282,0.898608684539795],"min":[-1.16277801990509,1.58076500892639,-0.52157682180405],"type":"VEC3"},{"bufferView":62,"byteOffset":0,"componentType":5126,"count":662,"type":"VEC3"},{"bufferView":63,"byteOffset":0,"componentType":5126,"count":662,"type":"VEC4"},{"bufferView":64,"byteOffset":0,"componentType":5126,"count":662,"type":"VEC2"},{"bufferView":65,"byteOffset":0,"componentType":5123,"count":1008,"type":"SCALAR"},{"bufferView":66,"byteOffset":0,"componentType":5126,"count":473,"max":[1.04945802688599,3.30008697509766,0.555585086345673],"min":[-1.01198792457581,1.78979504108429,-0.84382110834122],"type":"VEC3"},{"bufferView":67,"byteOffset":0,"componentType":5126,"count":473,"type":"VEC3"},{"bufferView":68,"byteOffset":0,"componentType":5126,"count":473,"type":"VEC4"},{"bufferView":69,"byteOffset":0,"componentType":5126,"count":473,"type":"VEC2"},{"bufferView":70,"byteOffset":0,"componentType":5123,"count":1008,"type":"SCALAR"},{"bufferView":71,"byteOffset":0,"componentType":5126,"count":473,"max":[1.04529094696045,3.30008697509766,0.889237642288208],"min":[-1.01615500450134,1.78979504108429,-0.51016861200333],"type":"VEC3"},{"bufferView":72,"byteOffset":0,"componentType":5126,"count":473,"type":"VEC3"},{"bufferView":73,"byteOffset":0,"componentType":5126,"count":473,"type":"VEC4"},{"bufferView":74,"byteOffset":0,"componentType":5126,"count":473,"type":"VEC2"},{"bufferView":75,"byteOffset":0,"componentType":5123,"count":864,"type":"SCALAR"},{"bufferView":76,"byteOffset":0,"componentType":5126,"count":536,"max":[0.777775168418884,2.3167359828949,2.17563509941101],"min":[-0.74447220563889,-0.50625240802765,-0.82967537641525],"type":"VEC3"},{"bufferView":77,"byteOffset":0,"componentType":5126,"count":536,"type":"VEC3"},{"bufferView":78,"byteOffset":0,"componentType":5126,"count":536,"type":"VEC4"},{"bufferView":79,"byteOffset":0,"componentType":5126,"count":536,"type":"VEC2"},{"bufferView":80,"byteOffset":0,"componentType":5123,"count":180,"type":"SCALAR"},{"bufferView":81,"byteOffset":0,"componentType":5126,"count":120,"max":[0.783402323722839,2.46119499206543,0.929641485214233],"min":[-0.7500993013382,0.6635981798172,-0.82801741361618],"type":"VEC3"},{"bufferView":82,"byteOffset":0,"componentType":5126,"count":120,"type":"VEC3"},{"bufferView":83,"byteOffset":0,"componentType":5126,"count":120,"type":"VEC4"},{"bufferView":84,"byteOffset":0,"componentType":5126,"count":120,"type":"VEC2"},{"bufferView":85,"byteOffset":0,"componentType":5123,"count":408,"type":"SCALAR"},{"bufferView":86,"byteOffset":0,"componentType":5126,"count":170,"max":[2.5,1.91044092178345,2.88320803642273],"min":[-2.5,-0.70918983221054,-2.11679196357727],"type":"VEC3"},{"bufferView":87,"byteOffset":0,"componentType":5126,"count":170,"type":"VEC3"},{"bufferView":88,"byteOffset":0,"componentType":5126,"count":170,"type":"VEC4"},{"bufferView":89,"byteOffset":0,"componentType":5126,"count":170,"type":"VEC2"},{"bufferView":90,"byteOffset":0,"componentType":5123,"count":60,"type":"SCALAR"},{"bufferView":91,"byteOffset":0,"componentType":5126,"count":40,"max":[0.815031766891479,0.653005838394165,0.611292481422424],"min":[-0.78172880411148,0.581201493740082,0.0529174618422985],"type":"VEC3"},{"bufferView":92,"byteOffset":0,"componentType":5126,"count":40,"type":"VEC3"},{"bufferView":93,"byteOffset":0,"componentType":5126,"count":40,"type":"VEC4"},{"bufferView":94,"byteOffset":0,"componentType":5126,"count":40,"type":"VEC2"}],"asset":{"generator":"FBX2glTF v0.13.1","version":"2.0"},"bufferViews":[{"buffer":0,"byteLength":2544,"byteOffset":0,"target":34963},{"buffer":0,"byteLength":5628,"byteOffset":2544,"target":34962},{"buffer":0,"byteLength":5628,"byteOffset":8172,"target":34962},{"buffer":0,"byteLength":7504,"byteOffset":13800,"target":34962},{"buffer":0,"byteLength":3752,"byteOffset":21304,"target":34962},{"buffer":0,"byteLength":156,"byteOffset":25056,"target":34963},{"buffer":0,"byteLength":528,"byteOffset":25212,"target":34962},{"buffer":0,"byteLength":528,"byteOffset":25740,"target":34962},{"buffer":0,"byteLength":704,"byteOffset":26268,"target":34962},{"buffer":0,"byteLength":352,"byteOffset":26972,"target":34962},{"buffer":0,"byteLength":192,"byteOffset":27324,"target":34963},{"buffer":0,"byteLength":624,"byteOffset":27516,"target":34962},{"buffer":0,"byteLength":624,"byteOffset":28140,"target":34962},{"buffer":0,"byteLength":832,"byteOffset":28764,"target":34962},{"buffer":0,"byteLength":416,"byteOffset":29596,"target":34962},{"buffer":0,"byteLength":72,"byteOffset":30012,"target":34963},{"buffer":0,"byteLength":288,"byteOffset":30084,"target":34962},{"buffer":0,"byteLength":288,"byteOffset":30372,"target":34962},{"buffer":0,"byteLength":384,"byteOffset":30660,"target":34962},{"buffer":0,"byteLength":192,"byteOffset":31044,"target":34962},{"buffer":0,"byteLength":5628,"byteOffset":31236,"target":34963},{"buffer":0,"byteLength":15192,"byteOffset":36864,"target":34962},{"buffer":0,"byteLength":15192,"byteOffset":52056,"target":34962},{"buffer":0,"byteLength":20256,"byteOffset":67248,"target":34962},{"buffer":0,"byteLength":10128,"byteOffset":87504,"target":34962},{"buffer":0,"byteLength":900,"byteOffset":97632,"target":34963},{"buffer":0,"byteLength":3600,"byteOffset":98532,"target":34962},{"buffer":0,"byteLength":3600,"byteOffset":102132,"target":34962},{"buffer":0,"byteLength":4800,"byteOffset":105732,"target":34962},{"buffer":0,"byteLength":2400,"byteOffset":110532,"target":34962},{"buffer":0,"byteLength":504,"byteOffset":112932,"target":34963},{"buffer":0,"byteLength":2016,"byteOffset":113436,"target":34962},{"buffer":0,"byteLength":2016,"byteOffset":115452,"target":34962},{"buffer":0,"byteLength":2688,"byteOffset":117468,"target":34962},{"buffer":0,"byteLength":1344,"byteOffset":120156,"target":34962},{"buffer":0,"byteLength":1008,"byteOffset":121500,"target":34963},{"buffer":0,"byteLength":4032,"byteOffset":122508,"target":34962},{"buffer":0,"byteLength":4032,"byteOffset":126540,"target":34962},{"buffer":0,"byteLength":5376,"byteOffset":130572,"target":34962},{"buffer":0,"byteLength":2688,"byteOffset":135948,"target":34962},{"buffer":0,"byteLength":384,"byteOffset":138636,"target":34963},{"buffer":0,"byteLength":1536,"byteOffset":139020,"target":34962},{"buffer":0,"byteLength":1536,"byteOffset":140556,"target":34962},{"buffer":0,"byteLength":2048,"byteOffset":142092,"target":34962},{"buffer":0,"byteLength":1024,"byteOffset":144140,"target":34962},{"buffer":0,"byteLength":72,"byteOffset":145164,"target":34963},{"buffer":0,"byteLength":288,"byteOffset":145236,"target":34962},{"buffer":0,"byteLength":288,"byteOffset":145524,"target":34962},{"buffer":0,"byteLength":384,"byteOffset":145812,"target":34962},{"buffer":0,"byteLength":192,"byteOffset":146196,"target":34962},{"buffer":0,"byteLength":192,"byteOffset":146388,"target":34963},{"buffer":0,"byteLength":768,"byteOffset":146580,"target":34962},{"buffer":0,"byteLength":768,"byteOffset":147348,"target":34962},{"buffer":0,"byteLength":1024,"byteOffset":148116,"target":34962},{"buffer":0,"byteLength":512,"byteOffset":149140,"target":34962},{"buffer":0,"byteLength":2880,"byteOffset":149652,"target":34963},{"buffer":0,"byteLength":7944,"byteOffset":152532,"target":34962},{"buffer":0,"byteLength":7944,"byteOffset":160476,"target":34962},{"buffer":0,"byteLength":10592,"byteOffset":168420,"target":34962},{"buffer":0,"byteLength":5296,"byteOffset":179012,"target":34962},{"buffer":0,"byteLength":2880,"byteOffset":184308,"target":34963},{"buffer":0,"byteLength":7944,"byteOffset":187188,"target":34962},{"buffer":0,"byteLength":7944,"byteOffset":195132,"target":34962},{"buffer":0,"byteLength":10592,"byteOffset":203076,"target":34962},{"buffer":0,"byteLength":5296,"byteOffset":213668,"target":34962},{"buffer":0,"byteLength":2016,"byteOffset":218964,"target":34963},{"buffer":0,"byteLength":5676,"byteOffset":220980,"target":34962},{"buffer":0,"byteLength":5676,"byteOffset":226656,"target":34962},{"buffer":0,"byteLength":7568,"byteOffset":232332,"target":34962},{"buffer":0,"byteLength":3784,"byteOffset":239900,"target":34962},{"buffer":0,"byteLength":2016,"byteOffset":243684,"target":34963},{"buffer":0,"byteLength":5676,"byteOffset":245700,"target":34962},{"buffer":0,"byteLength":5676,"byteOffset":251376,"target":34962},{"buffer":0,"byteLength":7568,"byteOffset":257052,"target":34962},{"buffer":0,"byteLength":3784,"byteOffset":264620,"target":34962},{"buffer":0,"byteLength":1728,"byteOffset":268404,"target":34963},{"buffer":0,"byteLength":6432,"byteOffset":270132,"target":34962},{"buffer":0,"byteLength":6432,"byteOffset":276564,"target":34962},{"buffer":0,"byteLength":8576,"byteOffset":282996,"target":34962},{"buffer":0,"byteLength":4288,"byteOffset":291572,"target":34962},{"buffer":0,"byteLength":360,"byteOffset":295860,"target":34963},{"buffer":0,"byteLength":1440,"byteOffset":296220,"target":34962},{"buffer":0,"byteLength":1440,"byteOffset":297660,"target":34962},{"buffer":0,"byteLength":1920,"byteOffset":299100,"target":34962},{"buffer":0,"byteLength":960,"byteOffset":301020,"target":34962},{"buffer":0,"byteLength":816,"byteOffset":301980,"target":34963},{"buffer":0,"byteLength":2040,"byteOffset":302796,"target":34962},{"buffer":0,"byteLength":2040,"byteOffset":304836,"target":34962},{"buffer":0,"byteLength":2720,"byteOffset":306876,"target":34962},{"buffer":0,"byteLength":1360,"byteOffset":309596,"target":34962},{"buffer":0,"byteLength":120,"byteOffset":310956,"target":34963},{"buffer":0,"byteLength":480,"byteOffset":311076,"target":34962},{"buffer":0,"byteLength":480,"byteOffset":311556,"target":34962},{"buffer":0,"byteLength":640,"byteOffset":312036,"target":34962},{"buffer":0,"byteLength":320,"byteOffset":312676,"target":34962}],"buffers":[{"byteLength":312996,"uri":"house_a.bin"}],"materials":[{"alphaMode":"OPAQUE","doubleSided":false,"extras":{"fromFBX":{"isTruePBR":false,"shadingModel":"Phong"}},"name":"Default","pbrMetallicRoughness":{"baseColorFactor":[1,1,1,1],"metallicFactor":0.400000005960464,"roughnessFactor":0.816496610641479}}],"meshes":[{"name":"house00_low","primitives":[{"attributes":{"NORMAL":2,"POSITION":1,"TANGENT":3,"TEXCOORD_0":4},"indices":0,"material":0,"mode":4}]},{"name":"house01_low","primitives":[{"attributes":{"NORMAL":7,"POSITION":6,"TANGENT":8,"TEXCOORD_0":9},"indices":5,"material":0,"mode":4}]},{"name":"house02_low","primitives":[{"attributes":{"NORMAL":12,"POSITION":11,"TANGENT":13,"TEXCOORD_0":14},"indices":10,"material":0,"mode":4}]},{"name":"house03_low","primitives":[{"attributes":{"NORMAL":17,"POSITION":16,"TANGENT":18,"TEXCOORD_0":19},"indices":15,"material":0,"mode":4}]},{"name":"house04_low","primitives":[{"attributes":{"NORMAL":22,"POSITION":21,"TANGENT":23,"TEXCOORD_0":24},"indices":20,"material":0,"mode":4}]},{"name":"house05_low","primitives":[{"attributes":{"NORMAL":27,"POSITION":26,"TANGENT":28,"TEXCOORD_0":29},"indices":25,"material":0,"mode":4}]},{"name":"house06_low","primitives":[{"attributes":{"NORMAL":32,"POSITION":31,"TANGENT":33,"TEXCOORD_0":34},"indices":30,"material":0,"mode":4}]},{"name":"house07_low","primitives":[{"attributes":{"NORMAL":37,"POSITION":36,"TANGENT":38,"TEXCOORD_0":39},"indices":35,"material":0,"mode":4}]},{"name":"house08_low","primitives":[{"attributes":{"NORMAL":42,"POSITION":41,"TANGENT":43,"TEXCOORD_0":44},"indices":40,"material":0,"mode":4}]},{"name":"house09_low","primitives":[{"attributes":{"NORMAL":47,"POSITION":46,"TANGENT":48,"TEXCOORD_0":49},"indices":45,"material":0,"mode":4}]},{"name":"house10_low","primitives":[{"attributes":{"NORMAL":52,"POSITION":51,"TANGENT":53,"TEXCOORD_0":54},"indices":50,"material":0,"mode":4}]},{"name":"house11_low","primitives":[{"attributes":{"NORMAL":57,"POSITION":56,"TANGENT":58,"TEXCOORD_0":59},"indices":55,"material":0,"mode":4}]},{"name":"house12_low","primitives":[{"attributes":{"NORMAL":62,"POSITION":61,"TANGENT":63,"TEXCOORD_0":64},"indices":60,"material":0,"mode":4}]},{"name":"house13_low","primitives":[{"attributes":{"NORMAL":67,"POSITION":66,"TANGENT":68,"TEXCOORD_0":69},"indices":65,"material":0,"mode":4}]},{"name":"house14_low","primitives":[{"attributes":{"NORMAL":72,"POSITION":71,"TANGENT":73,"TEXCOORD_0":74},"indices":70,"material":0,"mode":4}]},{"name":"house15_low","primitives":[{"attributes":{"NORMAL":77,"POSITION":76,"TANGENT":78,"TEXCOORD_0":79},"indices":75,"material":0,"mode":4}]},{"name":"house16_low","primitives":[{"attributes":{"NORMAL":82,"POSITION":81,"TANGENT":83,"TEXCOORD_0":84},"indices":80,"material":0,"mode":4}]},{"name":"house17_low","primitives":[{"attributes":{"NORMAL":87,"POSITION":86,"TANGENT":88,"TEXCOORD_0":89},"indices":85,"material":0,"mode":4}]},{"name":"house18_low","primitives":[{"attributes":{"NORMAL":92,"POSITION":91,"TANGENT":93,"TEXCOORD_0":94},"indices":90,"material":0,"mode":4}]}],"nodes":[{"name":"Render","rotation":[0,0,0,1],"scale":[1,1,1],"translation":[0,0,0]},{"name":"Main Camera","rotation":[-0.15110194683075,-0.36912313103676,-0.06095742061734,0.914986610412598],"scale":[1,1,1],"translation":[-9.28234004974365,5.389564037323,9.9558687210083]},{"name":"Sky","rotation":[0,-0.45787414908409,0,0.889017045497894],"scale":[0.999999940395355,1,0.999999940395355],"translation":[0,0,0]},{"children":[4,6,8,10,12,14,16,18,20,22,24,26,28,30,32,34,36,38,40],"name":"house_a_low_01","rotation":[0,0,0,1],"scale":[1,1,1],"translation":[0,0,0]},{"children":[5],"mesh":0,"name":"house00_low","rotation":[0,0,0,1],"scale":[1,1,1],"translation":[0,0,0]},{"name":"Default","rotation":[0,0,0,1],"scale":[1,1,1],"translation":[0,0,0]},{"children":[7],"mesh":1,"name":"house01_low","rotation":[0,0,0,1],"scale":[1,1,1],"translation":[0,0,0]},{"name":"Default 1","rotation":[0,0,0,1],"scale":[1,1,1],"translation":[0,0,0]},{"children":[9],"mesh":2,"name":"house02_low","rotation":[0,0,0,1],"scale":[1,1,1],"translation":[0,0,0]},{"name":"Default 2","rotation":[0,0,0,1],"scale":[1,1,1],"translation":[0,0,0]},{"children":[11],"mesh":3,"name":"house03_low","rotation":[0,0,0,1],"scale":[1,1,1],"translation":[0,0,0]},{"name":"Default 3","rotation":[0,0,0,1],"scale":[1,1,1],"translation":[0,0,0]},{"children":[13],"mesh":4,"name":"house04_low","rotation":[0,0,0,1],"scale":[1,1,1],"translation":[0,0,0]},{"name":"Default 4","rotation":[0,0,0,1],"scale":[1,1,1],"translation":[0,0,0]},{"children":[15],"mesh":5,"name":"house05_low","rotation":[0,0,0,1],"scale":[1,1,1],"translation":[0,0,0]},{"name":"Default 5","rotation":[0,0,0,1],"scale":[1,1,1],"translation":[0,0,0]},{"children":[17],"mesh":6,"name":"house06_low","rotation":[0,0,0,1],"scale":[1,1,1],"translation":[0,0,0]},{"name":"Default 6","rotation":[0,0,0,1],"scale":[1,1,1],"translation":[0,0,0]},{"children":[19],"mesh":7,"name":"house07_low","rotation":[0,0,0,1],"scale":[1,1,1],"translation":[0,0,0]},{"name":"Default 7","rotation":[0,0,0,1],"scale":[1,1,1],"translation":[0,0,0]},{"children":[21],"mesh":8,"name":"house08_low","rotation":[0,0,0,1],"scale":[1,1,1],"translation":[0,0,0]},{"name":"Default 8","rotation":[0,0,0,1],"scale":[1,1,1],"translation":[0,0,0]},{"children":[23],"mesh":9,"name":"house09_low","rotation":[0,0,0,1],"scale":[1,1,1],"translation":[0,0,0]},{"name":"Default 9","rotation":[0,0,0,1],"scale":[1,1,1],"translation":[0,0,0]},{"children":[25],"mesh":10,"name":"house10_low","rotation":[0,0,0,1],"scale":[1,1,1],"translation":[0,0,0]},{"name":"Default 10","rotation":[0,0,0,1],"scale":[1,1,1],"translation":[0,0,0]},{"children":[27],"mesh":11,"name":"house11_low","rotation":[0,0,0,1],"scale":[1,1,1],"translation":[0,0,0]},{"name":"Default 11","rotation":[0,0,0,1],"scale":[1,1,1],"translation":[0,0,0]},{"children":[29],"mesh":12,"name":"house12_low","rotation":[0,0,0,1],"scale":[1,1,1],"translation":[0,0,0]},{"name":"Default 12","rotation":[0,0,0,1],"scale":[1,1,1],"translation":[0,0,0]},{"children":[31],"mesh":13,"name":"house13_low","rotation":[0,0,0,1],"scale":[1,1,1],"translation":[0,0,0]},{"name":"Default 13","rotation":[0,0,0,1],"scale":[1,1,1],"translation":[0,0,0]},{"children":[33],"mesh":14,"name":"house14_low","rotation":[0,0,0,1],"scale":[1,1,1],"translation":[0,0,0]},{"name":"Default 14","rotation":[0,0,0,1],"scale":[1,1,1],"translation":[0,0,0]},{"children":[35],"mesh":15,"name":"house15_low","rotation":[0,0,0,1],"scale":[1,1,1],"translation":[0,0,0]},{"name":"Default 15","rotation":[0,0,0,1],"scale":[1,1,1],"translation":[0,0,0]},{"children":[37],"mesh":16,"name":"house16_low","rotation":[0,0,0,1],"scale":[1,1,1],"translation":[0,0,0]},{"name":"Default 16","rotation":[0,0,0,1],"scale":[1,1,1],"translation":[0,0,0]},{"children":[39],"mesh":17,"name":"house17_low","rotation":[0,0,0,1],"scale":[1,1,1],"translation":[0,0,0]},{"name":"Default 17","rotation":[0,0,0,1],"scale":[1,1,1],"translation":[0,0,0]},{"children":[41],"mesh":18,"name":"house18_low","rotation":[0,0,0,1],"scale":[1,1,1],"translation":[0,0,0]},{"name":"Default 18","rotation":[0,0,0,1],"scale":[1,1,1],"translation":[0,0,0]}],"samplers":[{}],"scene":0,"scenes":[{"name":"Root Scene","nodes":[0,1,2,3]}]}