{"accessors":[{"bufferView":0,"byteOffset":0,"componentType":5126,"count":31,"max":[1],"min":[0],"type":"SCALAR"},{"bufferView":1,"byteOffset":0,"componentType":5126,"count":31,"type":"VEC3"},{"bufferView":2,"byteOffset":0,"componentType":5126,"count":31,"type":"VEC3"},{"bufferView":3,"byteOffset":0,"componentType":5126,"count":31,"type":"VEC4"},{"bufferView":4,"byteOffset":0,"componentType":5126,"count":31,"type":"VEC3"},{"bufferView":5,"byteOffset":0,"componentType":5126,"count":31,"type":"VEC4"},{"bufferView":6,"byteOffset":0,"componentType":5126,"count":31,"type":"VEC3"},{"bufferView":7,"byteOffset":0,"componentType":5126,"count":31,"type":"VEC4"},{"bufferView":8,"byteOffset":0,"componentType":5126,"count":31,"type":"VEC3"},{"bufferView":9,"byteOffset":0,"componentType":5126,"count":31,"type":"VEC4"},{"bufferView":10,"byteOffset":0,"componentType":5126,"count":31,"type":"VEC3"},{"bufferView":11,"byteOffset":0,"componentType":5126,"count":31,"type":"VEC4"},{"bufferView":12,"byteOffset":0,"componentType":5126,"count":31,"type":"VEC3"},{"bufferView":13,"byteOffset":0,"componentType":5126,"count":31,"type":"VEC4"},{"bufferView":14,"byteOffset":0,"componentType":5126,"count":31,"type":"VEC4"},{"bufferView":15,"byteOffset":0,"componentType":5126,"count":31,"type":"VEC4"},{"bufferView":16,"byteOffset":0,"componentType":5126,"count":31,"type":"VEC4"},{"bufferView":17,"byteOffset":0,"componentType":5126,"count":31,"type":"VEC4"},{"bufferView":18,"byteOffset":0,"componentType":5126,"count":31,"type":"VEC4"},{"bufferView":19,"byteOffset":0,"componentType":5126,"count":31,"type":"VEC3"},{"bufferView":20,"byteOffset":0,"componentType":5126,"count":31,"type":"VEC4"},{"bufferView":21,"byteOffset":0,"componentType":5126,"count":31,"type":"VEC3"},{"bufferView":22,"byteOffset":0,"componentType":5126,"count":31,"type":"VEC4"},{"bufferView":23,"byteOffset":0,"componentType":5126,"count":31,"type":"VEC3"},{"bufferView":24,"byteOffset":0,"componentType":5126,"count":31,"type":"VEC4"},{"bufferView":25,"byteOffset":0,"componentType":5126,"count":31,"type":"VEC3"},{"bufferView":26,"byteOffset":0,"componentType":5126,"count":31,"type":"VEC4"},{"bufferView":27,"byteOffset":0,"componentType":5126,"count":31,"type":"VEC4"},{"bufferView":28,"byteOffset":0,"componentType":5126,"count":31,"type":"VEC4"},{"bufferView":29,"byteOffset":0,"componentType":5126,"count":31,"type":"VEC4"},{"bufferView":30,"byteOffset":0,"componentType":5126,"count":31,"type":"VEC4"},{"bufferView":31,"byteOffset":0,"componentType":5126,"count":31,"type":"VEC4"},{"bufferView":32,"byteOffset":0,"componentType":5126,"count":31,"type":"VEC4"},{"bufferView":33,"byteOffset":0,"componentType":5126,"count":31,"type":"VEC4"},{"bufferView":34,"byteOffset":0,"componentType":5126,"count":31,"type":"VEC4"},{"bufferView":35,"byteOffset":0,"componentType":5126,"count":31,"type":"VEC4"},{"bufferView":36,"byteOffset":0,"componentType":5126,"count":31,"type":"VEC4"},{"bufferView":37,"byteOffset":0,"componentType":5126,"count":31,"type":"VEC4"},{"bufferView":38,"byteOffset":0,"componentType":5126,"count":31,"type":"VEC4"},{"bufferView":39,"byteOffset":0,"componentType":5123,"count":10350,"type":"SCALAR"},{"bufferView":40,"byteOffset":0,"componentType":5126,"count":2266,"max":[0.0510667748749256,0.181155368685722,0.169082224369049],"min":[-0.05106677487493,-0.09766451269388,0.000000000745058015283462],"type":"VEC3"},{"bufferView":41,"byteOffset":0,"componentType":5126,"count":2266,"type":"VEC3"},{"bufferView":42,"byteOffset":0,"componentType":5126,"count":2266,"type":"VEC4"},{"bufferView":43,"byteOffset":0,"componentType":5126,"count":2266,"type":"VEC2"},{"bufferView":44,"byteOffset":0,"componentType":5123,"count":2266,"type":"VEC4"},{"bufferView":45,"byteOffset":0,"componentType":5126,"count":2266,"type":"VEC4"},{"bufferView":46,"byteOffset":0,"componentType":5126,"count":39,"type":"MAT4"}],"animations":[{"channels":[{"sampler":0,"target":{"node":2,"path":"translation"}},{"sampler":1,"target":{"node":3,"path":"translation"}},{"sampler":2,"target":{"node":3,"path":"rotation"}},{"sampler":3,"target":{"node":4,"path":"translation"}},{"sampler":4,"target":{"node":4,"path":"rotation"}},{"sampler":5,"target":{"node":5,"path":"translation"}},{"sampler":6,"target":{"node":5,"path":"rotation"}},{"sampler":7,"target":{"node":6,"path":"translation"}},{"sampler":8,"target":{"node":6,"path":"rotation"}},{"sampler":9,"target":{"node":7,"path":"translation"}},{"sampler":10,"target":{"node":7,"path":"rotation"}},{"sampler":11,"target":{"node":8,"path":"translation"}},{"sampler":12,"target":{"node":8,"path":"rotation"}},{"sampler":13,"target":{"node":12,"path":"rotation"}},{"sampler":14,"target":{"node":13,"path":"rotation"}},{"sampler":15,"target":{"node":14,"path":"rotation"}},{"sampler":16,"target":{"node":15,"path":"rotation"}},{"sampler":17,"target":{"node":18,"path":"rotation"}},{"sampler":18,"target":{"node":19,"path":"translation"}},{"sampler":19,"target":{"node":19,"path":"rotation"}},{"sampler":20,"target":{"node":20,"path":"translation"}},{"sampler":21,"target":{"node":20,"path":"rotation"}},{"sampler":22,"target":{"node":21,"path":"translation"}},{"sampler":23,"target":{"node":21,"path":"rotation"}},{"sampler":24,"target":{"node":22,"path":"translation"}},{"sampler":25,"target":{"node":22,"path":"rotation"}},{"sampler":26,"target":{"node":29,"path":"rotation"}},{"sampler":27,"target":{"node":30,"path":"rotation"}},{"sampler":28,"target":{"node":31,"path":"rotation"}},{"sampler":29,"target":{"node":32,"path":"rotation"}},{"sampler":30,"target":{"node":33,"path":"rotation"}},{"sampler":31,"target":{"node":34,"path":"rotation"}},{"sampler":32,"target":{"node":35,"path":"rotation"}},{"sampler":33,"target":{"node":36,"path":"rotation"}},{"sampler":34,"target":{"node":37,"path":"rotation"}},{"sampler":35,"target":{"node":38,"path":"rotation"}},{"sampler":36,"target":{"node":39,"path":"rotation"}},{"sampler":37,"target":{"node":40,"path":"rotation"}}],"name":"Take 001","samplers":[{"input":0,"interpolation":"LINEAR","output":1},{"input":0,"interpolation":"LINEAR","output":2},{"input":0,"interpolation":"LINEAR","output":3},{"input":0,"interpolation":"LINEAR","output":4},{"input":0,"interpolation":"LINEAR","output":5},{"input":0,"interpolation":"LINEAR","output":6},{"input":0,"interpolation":"LINEAR","output":7},{"input":0,"interpolation":"LINEAR","output":8},{"input":0,"interpolation":"LINEAR","output":9},{"input":0,"interpolation":"LINEAR","output":10},{"input":0,"interpolation":"LINEAR","output":11},{"input":0,"interpolation":"LINEAR","output":12},{"input":0,"interpolation":"LINEAR","output":13},{"input":0,"interpolation":"LINEAR","output":14},{"input":0,"interpolation":"LINEAR","output":15},{"input":0,"interpolation":"LINEAR","output":16},{"input":0,"interpolation":"LINEAR","output":17},{"input":0,"interpolation":"LINEAR","output":18},{"input":0,"interpolation":"LINEAR","output":19},{"input":0,"interpolation":"LINEAR","output":20},{"input":0,"interpolation":"LINEAR","output":21},{"input":0,"interpolation":"LINEAR","output":22},{"input":0,"interpolation":"LINEAR","output":23},{"input":0,"interpolation":"LINEAR","output":24},{"input":0,"interpolation":"LINEAR","output":25},{"input":0,"interpolation":"LINEAR","output":26},{"input":0,"interpolation":"LINEAR","output":27},{"input":0,"interpolation":"LINEAR","output":28},{"input":0,"interpolation":"LINEAR","output":29},{"input":0,"interpolation":"LINEAR","output":30},{"input":0,"interpolation":"LINEAR","output":31},{"input":0,"interpolation":"LINEAR","output":32},{"input":0,"interpolation":"LINEAR","output":33},{"input":0,"interpolation":"LINEAR","output":34},{"input":0,"interpolation":"LINEAR","output":35},{"input":0,"interpolation":"LINEAR","output":36},{"input":0,"interpolation":"LINEAR","output":37},{"input":0,"interpolation":"LINEAR","output":38}]}],"asset":{"generator":"FBX2glTF v0.13.1","version":"2.0"},"bufferViews":[{"buffer":0,"byteLength":124,"byteOffset":0},{"buffer":0,"byteLength":372,"byteOffset":124},{"buffer":0,"byteLength":372,"byteOffset":496},{"buffer":0,"byteLength":496,"byteOffset":868},{"buffer":0,"byteLength":372,"byteOffset":1364},{"buffer":0,"byteLength":496,"byteOffset":1736},{"buffer":0,"byteLength":372,"byteOffset":2232},{"buffer":0,"byteLength":496,"byteOffset":2604},{"buffer":0,"byteLength":372,"byteOffset":3100},{"buffer":0,"byteLength":496,"byteOffset":3472},{"buffer":0,"byteLength":372,"byteOffset":3968},{"buffer":0,"byteLength":496,"byteOffset":4340},{"buffer":0,"byteLength":372,"byteOffset":4836},{"buffer":0,"byteLength":496,"byteOffset":5208},{"buffer":0,"byteLength":496,"byteOffset":5704},{"buffer":0,"byteLength":496,"byteOffset":6200},{"buffer":0,"byteLength":496,"byteOffset":6696},{"buffer":0,"byteLength":496,"byteOffset":7192},{"buffer":0,"byteLength":496,"byteOffset":7688},{"buffer":0,"byteLength":372,"byteOffset":8184},{"buffer":0,"byteLength":496,"byteOffset":8556},{"buffer":0,"byteLength":372,"byteOffset":9052},{"buffer":0,"byteLength":496,"byteOffset":9424},{"buffer":0,"byteLength":372,"byteOffset":9920},{"buffer":0,"byteLength":496,"byteOffset":10292},{"buffer":0,"byteLength":372,"byteOffset":10788},{"buffer":0,"byteLength":496,"byteOffset":11160},{"buffer":0,"byteLength":496,"byteOffset":11656},{"buffer":0,"byteLength":496,"byteOffset":12152},{"buffer":0,"byteLength":496,"byteOffset":12648},{"buffer":0,"byteLength":496,"byteOffset":13144},{"buffer":0,"byteLength":496,"byteOffset":13640},{"buffer":0,"byteLength":496,"byteOffset":14136},{"buffer":0,"byteLength":496,"byteOffset":14632},{"buffer":0,"byteLength":496,"byteOffset":15128},{"buffer":0,"byteLength":496,"byteOffset":15624},{"buffer":0,"byteLength":496,"byteOffset":16120},{"buffer":0,"byteLength":496,"byteOffset":16616},{"buffer":0,"byteLength":496,"byteOffset":17112},{"buffer":0,"byteLength":20700,"byteOffset":17608,"target":34963},{"buffer":0,"byteLength":27192,"byteOffset":38308,"target":34962},{"buffer":0,"byteLength":27192,"byteOffset":65500,"target":34962},{"buffer":0,"byteLength":36256,"byteOffset":92692,"target":34962},{"buffer":0,"byteLength":18128,"byteOffset":128948,"target":34962},{"buffer":0,"byteLength":18128,"byteOffset":147076,"target":34962},{"buffer":0,"byteLength":36256,"byteOffset":165204,"target":34962},{"buffer":0,"byteLength":2496,"byteOffset":201460}],"buffers":[{"byteLength":203956,"uri":"Fox_Jump_InAir.bin"}],"images":[{"name":"toonfoxNM","uri":"toonfoxNM.png"},{"name":"1","uri":"1.psd"}],"materials":[{"alphaMode":"OPAQUE","doubleSided":false,"extras":{"fromFBX":{"isTruePBR":false,"shadingModel":"Phong"}},"name":"08 - Default","normalTexture":{"index":0,"texCoord":0},"pbrMetallicRoughness":{"baseColorFactor":[1,1,1,1],"baseColorTexture":{"index":1,"texCoord":0},"metallicFactor":0.400000005960464,"roughnessFactor":0.422773718833923}}],"meshes":[{"name":"fox","primitives":[{"attributes":{"JOINTS_0":44,"NORMAL":41,"POSITION":40,"TANGENT":42,"TEXCOORD_0":43,"WEIGHTS_0":45},"indices":39,"material":0,"mode":4}]}],"nodes":[{"mesh":0,"name":"fox","rotation":[-0.70710676908493,-0,0,0.70710676908493],"scale":[1,1,1],"skin":0,"translation":[0,0,0]},{"children":[2],"name":"FoxTransform","rotation":[-0.70710647106171,0.000000337174952846908,0.000000337174640208104,0.707107126712799],"scale":[1,1,1],"translation":[0,0,0]},{"children":[3,9,33,37],"name":"Fox_Pelvis","rotation":[0.5,-0.50000005960465,0.500000476837158,-0.49999943375588],"scale":[1,1,1],"translation":[0.0000000316553325774294,0.0347875691950321,0.0729598850011826]},{"children":[4],"name":"Fox_Tail1","rotation":[-0.00583954434842,0.0000134765450638952,0.999850630760193,-0.01626644469798],"scale":[1.00001096725464,1.00001895427704,0.999972999095917],"translation":[-0.01635875180364,-0.00746078463271,-0.00000000053448]},{"children":[5],"name":"Fox_Tail2","rotation":[0.00208611320704222,-0.00031323338044,-0.03844128549099,0.999258637428284],"scale":[0.999997973442078,0.9999920129776,1.00001001358032],"translation":[0.0267465300858021,-0.00000205993638,0.00000105205924683105]},{"children":[6],"name":"Fox_Tail3","rotation":[0.0121208587661386,0.00131986849009991,0.0257322043180466,0.999594509601593],"scale":[1.00000703334808,1.00001299381256,0.999979972839355],"translation":[0.020840797573328,0.00000284194948108052,-0.00000388413673]},{"children":[7],"name":"Fox_Tail4","rotation":[-0.00243574171327,-0.004140464589,-0.0091925887391,0.999946236610413],"scale":[0.9999880194664,0.9999880194664,1.00002503395081],"translation":[0.0220948029309511,-0.00001008510571,0.00000156924124894431]},{"children":[8],"name":"Fox_Tail5","rotation":[-0.0086160954088,-0.00143554713577,-0.01951643638313,0.999771356582642],"scale":[0.999997973442078,1.00001204013824,0.999989986419678],"translation":[0.0202843192964792,-0.00001991271893,-0.00000643581143]},{"name":"Fox_Tail6","rotation":[-0.01803954690695,-0.02055565826595,0.0140224564820528,0.99952757358551],"scale":[0.999993979930878,1.00001001358032,0.9999960064888],"translation":[0.018164586275816,-0.00003657340858,-0.00000364929429]},{"children":[10],"name":"Fox_Spine1","rotation":[0.00000018704695037286,0.00000240241843130207,0.0344132669270039,0.999407708644867],"scale":[1,1,1],"translation":[0,0,0]},{"children":[11],"name":"Fox_Spine2","rotation":[0.0000000220199734002335,0.00000000803927946435579,-0.0599413216114,0.998201906681061],"scale":[1,1,1],"translation":[0.0335060320794582,0,0]},{"children":[12,16,29],"name":"Fox_Ribcage","rotation":[0.000000170737394000753,-0.00000243377349,-0.0616700835526,0.998096585273743],"scale":[1,1,1],"translation":[0.0335060358047485,0.00000000000000000888178399847791,-0.00000000000002]},{"children":[13],"name":"Fox_F_LLeg1","rotation":[0.637880921363831,0.769560575485229,0.01765794493258,0.0239306427538395],"scale":[1.00000095367432,0.999998986721039,1],"translation":[0.002399783115834,0.00042314527672715,0.02510816603899]},{"children":[14],"name":"Fox_F_LLeg2","rotation":[0.0635159760713577,-0.05586728826165,0.589150786399841,0.803583145141602],"scale":[1.00000095367432,1,1.00000095367432],"translation":[0.0340102650225163,0.000000398159016867794,0.0000000500679000481341]},{"children":[15],"name":"Fox_F_LLegAnkle","rotation":[-0.00179609982297,0.0573140941560268,0.0154705746099353,0.998234689235687],"scale":[1,1,1],"translation":[0.0326986201107502,0.00000000953674295089968,-0.00000000238419]},{"name":"Fox_F_LLegDigit11","rotation":[0.00000532472085978952,0.00000937182994675823,0.509986758232117,0.860182285308838],"scale":[1.00000095367432,1,1],"translation":[0.0102812051773071,0.00093355175340548,-0.00000029325486]},{"children":[17],"name":"Fox_Spine","rotation":[0.00024667897378094,-0.01109260972589,-0.40312087535858,0.915079474449158],"scale":[1,1,1],"translation":[0,0,0]},{"children":[18,19,21,23,24,25,26,27,28],"name":"Fox_Head","rotation":[0.0129225635901093,-0.00487211393192,0.237960606813431,0.971176624298096],"scale":[1,1,1],"translation":[0.0369065627455711,0.0000000000000000133226759977169,-0.00000000014901]},{"name":"Fox_Jaw","rotation":[-0.00188060116488,-0.00031936308369,0.377645403146744,0.925948321819305],"scale":[1.00000095367432,1,1],"translation":[0.0127219194546342,0.0189216695725918,0.00000000759959206675376]},{"children":[20],"name":"Fox_LEar1","rotation":[0.237967848777771,-0.28403133153915,-0.35107293725014,0.859910070896149],"scale":[1.00002694129944,0.9999960064888,0.999979019165039],"translation":[0.0109877111390233,-0.03008131869137,0.025310143828392]},{"name":"Fox_LEar2","rotation":[-0.01024807337672,0.0151534983888268,0.0709624439477921,0.997311234474182],"scale":[0.999852001667023,1.00015795230865,0.999990999698639],"translation":[0.0164635945111513,-0.00000167369842,0.00000649690628051758]},{"children":[22],"name":"Fox_REar1","rotation":[-0.26262822747231,0.27458268404007,-0.39400580525398,0.836893200874329],"scale":[0.999954998493195,1.0000079870224,1.00004005432129],"translation":[0.0109851360321045,-0.03007778152823,-0.02531121857464]},{"name":"Fox_REar2","rotation":[-0.01089726015925,-0.00699270982295,-0.03342325985432,0.999357402324677],"scale":[1.0002349615097,0.999954998493195,0.99981302022934],"translation":[0.0164734553545713,-0.00000386714919,0.00000494241703563603]},{"name":"Fox_LEye","rotation":[0.690345644950867,0.153045833110809,0.212630957365036,0.674379706382751],"scale":[1,1.00000095367432,1],"translation":[0.0160656645894051,-0.00207386957482,0.0185949541628361]},{"name":"Fox_REye","rotation":[-0.69034558534622,-0.15304590761661,0.212630838155746,0.674379706382751],"scale":[1,1.00000095367432,1],"translation":[0.0160656254738569,-0.00207385537215,-0.01859496161342]},{"name":"Fox_UpperLEyelid","rotation":[0.733772814273834,-0.03472803160548,0.0320371650159359,0.677749991416931],"scale":[1,1.00000095367432,1],"translation":[0.0160656552761793,-0.00207384093665,0.0185949541628361]},{"name":"Fox_LowerLEyelid","rotation":[0.619447231292725,0.308799505233765,0.39463147521019,0.604312777519226],"scale":[1,1.00000095367432,1],"translation":[0.0160656552761793,-0.00207384093665,0.0185949541628361]},{"name":"Fox_UpperREyelid","rotation":[-0.73377293348312,0.034728042781353,0.0320372134447098,0.677749872207642],"scale":[1,1.00000095367432,1],"translation":[0.0160656254738569,-0.00207385537215,-0.01859496161342]},{"name":"Fox_LowerREyelid","rotation":[-0.61944717168808,-0.30879971385002,0.394631296396255,0.604312896728516],"scale":[1.00000095367432,1,1],"translation":[0.0160656254738569,-0.00207385537215,-0.01859496161342]},{"children":[30],"name":"Fox_F_RLeg1","rotation":[0.671726524829865,0.740078568458557,-0.02779582887888,-0.01716347783804],"scale":[1,1,1],"translation":[0.0023997591342777,0.00042315482278354,-0.0251081623137]},{"children":[31],"name":"Fox_F_RLeg2","rotation":[-0.0654094517231,0.0525092072784901,0.554406225681305,0.828008532524109],"scale":[1.00000095367432,1,1],"translation":[0.0340102799236774,0.000000410079934454188,-0.00000002861023]},{"children":[32],"name":"Fox_F_RLegAnkle","rotation":[0.017775759100914,-0.04825394973159,0.0138810947537422,0.998580455780029],"scale":[1.00000095367432,1.00000095367432,1],"translation":[0.0326986312866211,0,0]},{"name":"Fox_F_RLegDigit11","rotation":[-0.00005901057739,-0.00009920971934,0.510331392288208,0.859977841377258],"scale":[1.00000095367432,0.999998986721039,1],"translation":[0.0102812144905329,0.00093354220734909,0.000000293254856842395]},{"children":[34],"name":"Fox_LLeg1","rotation":[0.633916556835175,0.773004412651062,-0.01579810865223,0.0190882105380297],"scale":[1.00000095367432,0.999998986721039,1],"translation":[0.00000000238418573772492,0.0000000143051144263495,0.0192754846066236]},{"children":[35],"name":"Fox_LLeg2","rotation":[-0.05806171894073,0.0449028387665749,-0.84743642807007,0.525798499584198],"scale":[0.999998986721039,1,1],"translation":[0.0358892753720284,-0.00000009536743,0.0000000631809200513089]},{"children":[36],"name":"Fox_LLegAnkle","rotation":[0.042962558567524,-0.02435259893537,0.728518009185791,0.683244228363037],"scale":[0.999997019767761,1.00000298023224,1],"translation":[0.0258319899439812,-0.00000000953674,-0.00000000238419]},{"name":"Fox_LLegDigit11","rotation":[0.00026223843451589,0.00043428660137578,0.635808169841766,0.771846950054169],"scale":[0.999997019767761,1.00000095367432,1],"translation":[0.032539464533329,0.00077512738062068,-0.00000000119209]},{"children":[38],"name":"Fox_RLeg1","rotation":[0.747069299221039,0.663986921310425,0.0236667282879353,-0.02118377387524],"scale":[1.00000095367432,0.999998986721039,1.00000095367432],"translation":[-0.00000000238419,0,-0.01927549764514]},{"children":[39],"name":"Fox_RLeg2","rotation":[-0.05071282014251,0.0471137501299381,0.885244429111481,-0.45994648337364],"scale":[1.00000500679016,0.9999960064888,1.00000095367432],"translation":[0.0358892902731895,-0.00000007867813,-0.00000007033348]},{"children":[40],"name":"Fox_RLegAnkle","rotation":[-0.02708498202264,0.0290720872581005,0.81502902507782,0.578056156635284],"scale":[1.00000703334808,0.999993026256561,1],"translation":[0.0258319843560457,0.00000000000000000222044599961948,0.00000000119209286886246]},{"name":"Fox_RLegDigit11","rotation":[-0.00010442652274,-0.00024241986102,0.635922849178314,0.771752595901489],"scale":[1.00000298023224,0.999993026256561,1],"translation":[0.0325394757091999,0.00077512738062068,-0.00000000119209]}],"samplers":[{}],"scene":0,"scenes":[{"name":"Root Scene","nodes":[0,1]}],"skins":[{"inverseBindMatrices":46,"joints":[17,23,2,9,10,25,26,18,19,16,11,12,20,13,33,14,15,34,35,36,3,4,5,6,7,8,24,27,28,21,29,22,30,37,31,32,38,39,40],"skeleton":2},{"joints":[2,3,4,5,6,7,8,9,10,11,12,13,14,15,16,17,18,19,20,21,22,23,24,25,26,27,28,29,30,31,32,33,34,35,36,37,38,39,40]}],"textures":[{"name":"Map #2","sampler":0,"source":0},{"name":"Map #4","sampler":0,"source":1}]}