{"accessors":[{"bufferView":0,"byteOffset":0,"componentType":5126,"count":16,"max":[0.5],"min":[0],"type":"SCALAR"},{"bufferView":1,"byteOffset":0,"componentType":5126,"count":16,"type":"VEC3"},{"bufferView":2,"byteOffset":0,"componentType":5126,"count":16,"type":"VEC4"},{"bufferView":3,"byteOffset":0,"componentType":5126,"count":16,"type":"VEC3"},{"bufferView":4,"byteOffset":0,"componentType":5126,"count":16,"type":"VEC4"},{"bufferView":5,"byteOffset":0,"componentType":5126,"count":16,"type":"VEC4"},{"bufferView":6,"byteOffset":0,"componentType":5126,"count":16,"type":"VEC4"},{"bufferView":7,"byteOffset":0,"componentType":5126,"count":16,"type":"VEC4"},{"bufferView":8,"byteOffset":0,"componentType":5126,"count":16,"type":"VEC4"},{"bufferView":9,"byteOffset":0,"componentType":5126,"count":16,"type":"VEC4"},{"bufferView":10,"byteOffset":0,"componentType":5126,"count":16,"type":"VEC4"},{"bufferView":11,"byteOffset":0,"componentType":5126,"count":16,"type":"VEC4"},{"bufferView":12,"byteOffset":0,"componentType":5126,"count":16,"type":"VEC4"},{"bufferView":13,"byteOffset":0,"componentType":5126,"count":16,"type":"VEC4"},{"bufferView":14,"byteOffset":0,"componentType":5126,"count":16,"type":"VEC4"},{"bufferView":15,"byteOffset":0,"componentType":5126,"count":16,"type":"VEC4"},{"bufferView":16,"byteOffset":0,"componentType":5126,"count":16,"type":"VEC4"},{"bufferView":17,"byteOffset":0,"componentType":5126,"count":16,"type":"VEC4"},{"bufferView":18,"byteOffset":0,"componentType":5126,"count":16,"type":"VEC4"},{"bufferView":19,"byteOffset":0,"componentType":5126,"count":16,"type":"VEC4"},{"bufferView":20,"byteOffset":0,"componentType":5126,"count":16,"type":"VEC4"},{"bufferView":21,"byteOffset":0,"componentType":5126,"count":16,"type":"VEC4"},{"bufferView":22,"byteOffset":0,"componentType":5126,"count":16,"type":"VEC4"},{"bufferView":23,"byteOffset":0,"componentType":5126,"count":16,"type":"VEC4"},{"bufferView":24,"byteOffset":0,"componentType":5126,"count":16,"type":"VEC4"},{"bufferView":25,"byteOffset":0,"componentType":5126,"count":16,"type":"VEC4"},{"bufferView":26,"byteOffset":0,"componentType":5126,"count":16,"type":"VEC4"},{"bufferView":27,"byteOffset":0,"componentType":5126,"count":16,"type":"VEC4"},{"bufferView":28,"byteOffset":0,"componentType":5126,"count":16,"type":"VEC4"},{"bufferView":29,"byteOffset":0,"componentType":5126,"count":16,"type":"VEC4"},{"bufferView":30,"byteOffset":0,"componentType":5126,"count":16,"type":"VEC4"},{"bufferView":31,"byteOffset":0,"componentType":5126,"count":16,"type":"VEC4"},{"bufferView":32,"byteOffset":0,"componentType":5126,"count":16,"type":"VEC4"},{"bufferView":33,"byteOffset":0,"componentType":5126,"count":16,"type":"VEC4"},{"bufferView":34,"byteOffset":0,"componentType":5126,"count":16,"type":"VEC4"},{"bufferView":35,"byteOffset":0,"componentType":5126,"count":16,"type":"VEC4"},{"bufferView":36,"byteOffset":0,"componentType":5123,"count":10350,"type":"SCALAR"},{"bufferView":37,"byteOffset":0,"componentType":5126,"count":2266,"max":[0.0510667748749256,0.181155368685722,0.169082224369049],"min":[-0.05106677487493,-0.09766451269388,0.000000000745058015283462],"type":"VEC3"},{"bufferView":38,"byteOffset":0,"componentType":5126,"count":2266,"type":"VEC3"},{"bufferView":39,"byteOffset":0,"componentType":5126,"count":2266,"type":"VEC4"},{"bufferView":40,"byteOffset":0,"componentType":5126,"count":2266,"type":"VEC2"},{"bufferView":41,"byteOffset":0,"componentType":5123,"count":2266,"type":"VEC4"},{"bufferView":42,"byteOffset":0,"componentType":5126,"count":2266,"type":"VEC4"},{"bufferView":43,"byteOffset":0,"componentType":5126,"count":39,"type":"MAT4"}],"animations":[{"channels":[{"sampler":0,"target":{"node":1,"path":"translation"}},{"sampler":1,"target":{"node":1,"path":"rotation"}},{"sampler":2,"target":{"node":2,"path":"translation"}},{"sampler":3,"target":{"node":2,"path":"rotation"}},{"sampler":4,"target":{"node":3,"path":"rotation"}},{"sampler":5,"target":{"node":4,"path":"rotation"}},{"sampler":6,"target":{"node":5,"path":"rotation"}},{"sampler":7,"target":{"node":6,"path":"rotation"}},{"sampler":8,"target":{"node":7,"path":"rotation"}},{"sampler":9,"target":{"node":8,"path":"rotation"}},{"sampler":10,"target":{"node":9,"path":"rotation"}},{"sampler":11,"target":{"node":10,"path":"rotation"}},{"sampler":12,"target":{"node":11,"path":"rotation"}},{"sampler":13,"target":{"node":12,"path":"rotation"}},{"sampler":14,"target":{"node":13,"path":"rotation"}},{"sampler":15,"target":{"node":14,"path":"rotation"}},{"sampler":16,"target":{"node":15,"path":"rotation"}},{"sampler":17,"target":{"node":16,"path":"rotation"}},{"sampler":18,"target":{"node":17,"path":"rotation"}},{"sampler":19,"target":{"node":19,"path":"rotation"}},{"sampler":20,"target":{"node":20,"path":"rotation"}},{"sampler":21,"target":{"node":21,"path":"rotation"}},{"sampler":22,"target":{"node":22,"path":"rotation"}},{"sampler":23,"target":{"node":29,"path":"rotation"}},{"sampler":24,"target":{"node":30,"path":"rotation"}},{"sampler":25,"target":{"node":31,"path":"rotation"}},{"sampler":26,"target":{"node":32,"path":"rotation"}},{"sampler":27,"target":{"node":33,"path":"rotation"}},{"sampler":28,"target":{"node":34,"path":"rotation"}},{"sampler":29,"target":{"node":35,"path":"rotation"}},{"sampler":30,"target":{"node":36,"path":"rotation"}},{"sampler":31,"target":{"node":37,"path":"rotation"}},{"sampler":32,"target":{"node":38,"path":"rotation"}},{"sampler":33,"target":{"node":39,"path":"rotation"}},{"sampler":34,"target":{"node":40,"path":"rotation"}}],"name":"Take 001","samplers":[{"input":0,"interpolation":"LINEAR","output":1},{"input":0,"interpolation":"LINEAR","output":2},{"input":0,"interpolation":"LINEAR","output":3},{"input":0,"interpolation":"LINEAR","output":4},{"input":0,"interpolation":"LINEAR","output":5},{"input":0,"interpolation":"LINEAR","output":6},{"input":0,"interpolation":"LINEAR","output":7},{"input":0,"interpolation":"LINEAR","output":8},{"input":0,"interpolation":"LINEAR","output":9},{"input":0,"interpolation":"LINEAR","output":10},{"input":0,"interpolation":"LINEAR","output":11},{"input":0,"interpolation":"LINEAR","output":12},{"input":0,"interpolation":"LINEAR","output":13},{"input":0,"interpolation":"LINEAR","output":14},{"input":0,"interpolation":"LINEAR","output":15},{"input":0,"interpolation":"LINEAR","output":16},{"input":0,"interpolation":"LINEAR","output":17},{"input":0,"interpolation":"LINEAR","output":18},{"input":0,"interpolation":"LINEAR","output":19},{"input":0,"interpolation":"LINEAR","output":20},{"input":0,"interpolation":"LINEAR","output":21},{"input":0,"interpolation":"LINEAR","output":22},{"input":0,"interpolation":"LINEAR","output":23},{"input":0,"interpolation":"LINEAR","output":24},{"input":0,"interpolation":"LINEAR","output":25},{"input":0,"interpolation":"LINEAR","output":26},{"input":0,"interpolation":"LINEAR","output":27},{"input":0,"interpolation":"LINEAR","output":28},{"input":0,"interpolation":"LINEAR","output":29},{"input":0,"interpolation":"LINEAR","output":30},{"input":0,"interpolation":"LINEAR","output":31},{"input":0,"interpolation":"LINEAR","output":32},{"input":0,"interpolation":"LINEAR","output":33},{"input":0,"interpolation":"LINEAR","output":34},{"input":0,"interpolation":"LINEAR","output":35}]}],"asset":{"generator":"FBX2glTF v0.13.1","version":"2.0"},"bufferViews":[{"buffer":0,"byteLength":64,"byteOffset":0},{"buffer":0,"byteLength":192,"byteOffset":64},{"buffer":0,"byteLength":256,"byteOffset":256},{"buffer":0,"byteLength":192,"byteOffset":512},{"buffer":0,"byteLength":256,"byteOffset":704},{"buffer":0,"byteLength":256,"byteOffset":960},{"buffer":0,"byteLength":256,"byteOffset":1216},{"buffer":0,"byteLength":256,"byteOffset":1472},{"buffer":0,"byteLength":256,"byteOffset":1728},{"buffer":0,"byteLength":256,"byteOffset":1984},{"buffer":0,"byteLength":256,"byteOffset":2240},{"buffer":0,"byteLength":256,"byteOffset":2496},{"buffer":0,"byteLength":256,"byteOffset":2752},{"buffer":0,"byteLength":256,"byteOffset":3008},{"buffer":0,"byteLength":256,"byteOffset":3264},{"buffer":0,"byteLength":256,"byteOffset":3520},{"buffer":0,"byteLength":256,"byteOffset":3776},{"buffer":0,"byteLength":256,"byteOffset":4032},{"buffer":0,"byteLength":256,"byteOffset":4288},{"buffer":0,"byteLength":256,"byteOffset":4544},{"buffer":0,"byteLength":256,"byteOffset":4800},{"buffer":0,"byteLength":256,"byteOffset":5056},{"buffer":0,"byteLength":256,"byteOffset":5312},{"buffer":0,"byteLength":256,"byteOffset":5568},{"buffer":0,"byteLength":256,"byteOffset":5824},{"buffer":0,"byteLength":256,"byteOffset":6080},{"buffer":0,"byteLength":256,"byteOffset":6336},{"buffer":0,"byteLength":256,"byteOffset":6592},{"buffer":0,"byteLength":256,"byteOffset":6848},{"buffer":0,"byteLength":256,"byteOffset":7104},{"buffer":0,"byteLength":256,"byteOffset":7360},{"buffer":0,"byteLength":256,"byteOffset":7616},{"buffer":0,"byteLength":256,"byteOffset":7872},{"buffer":0,"byteLength":256,"byteOffset":8128},{"buffer":0,"byteLength":256,"byteOffset":8384},{"buffer":0,"byteLength":256,"byteOffset":8640},{"buffer":0,"byteLength":20700,"byteOffset":8896,"target":34963},{"buffer":0,"byteLength":27192,"byteOffset":29596,"target":34962},{"buffer":0,"byteLength":27192,"byteOffset":56788,"target":34962},{"buffer":0,"byteLength":36256,"byteOffset":83980,"target":34962},{"buffer":0,"byteLength":18128,"byteOffset":120236,"target":34962},{"buffer":0,"byteLength":18128,"byteOffset":138364,"target":34962},{"buffer":0,"byteLength":36256,"byteOffset":156492,"target":34962},{"buffer":0,"byteLength":2496,"byteOffset":192748}],"buffers":[{"byteLength":195244,"uri":"Fox_Run_Right.bin"}],"images":[{"name":"toonfoxNM","uri":"toonfoxNM.png"},{"name":"1","uri":"1.psd"}],"materials":[{"alphaMode":"OPAQUE","doubleSided":false,"extras":{"fromFBX":{"isTruePBR":false,"shadingModel":"Phong"}},"name":"08 - Default","normalTexture":{"index":0,"texCoord":0},"pbrMetallicRoughness":{"baseColorFactor":[1,1,1,1],"baseColorTexture":{"index":1,"texCoord":0},"metallicFactor":0.400000005960464,"roughnessFactor":0.422773718833923}}],"meshes":[{"name":"fox","primitives":[{"attributes":{"JOINTS_0":41,"NORMAL":38,"POSITION":37,"TANGENT":39,"TEXCOORD_0":40,"WEIGHTS_0":42},"indices":36,"material":0,"mode":4}]}],"nodes":[{"mesh":0,"name":"fox","rotation":[-0.70710676908493,-0,0,0.70710676908493],"scale":[1,1,1],"skin":0,"translation":[0,0,0]},{"children":[2],"name":"FoxTransform","rotation":[-0.70710682868957,-0.00000027957356,-0.00000031048233,0.70710676908493],"scale":[1,1,1],"translation":[0,0,0]},{"children":[3,9,33,37],"name":"Fox_Pelvis","rotation":[-0.54840910434723,0.44637131690979,-0.38660168647766,0.59206348657608],"scale":[1,1,1],"translation":[-0.00531644281,0.0343327522277832,0.0697896629571915]},{"children":[4],"name":"Fox_Tail1","rotation":[-0.04362924769521,0.00076394208008423,0.998825907707214,0.0210412424057722],"scale":[1,1,1],"translation":[-0.01636433042586,-0.00745288841426,0.00000000178813930329369]},{"children":[5],"name":"Fox_Tail2","rotation":[-0.01031212043017,0.0820537060499191,0.0481575913727283,0.995410323143005],"scale":[1,1,1],"translation":[0.0267343185842037,0.00000000476837147544984,-0.00000000119209]},{"children":[6],"name":"Fox_Tail3","rotation":[-0.01615623570979,0.121865421533585,0.0346180237829685,0.991811156272888],"scale":[1,1,1],"translation":[0.0208616927266121,-0.00000000476837,0.00000000476837147544984]},{"children":[7],"name":"Fox_Tail4","rotation":[0.0330740362405777,0.0720416232943535,-0.06157257780433,0.994949698448181],"scale":[1,1,1],"translation":[0.0220821667462587,0.00000000476837147544984,-0.00000000476837]},{"children":[8],"name":"Fox_Tail5","rotation":[0.0286956019699574,0.0415882840752602,-0.04717372730374,0.997607946395874],"scale":[1,1,1],"translation":[0.020310515537858,0,0.00000000476837147544984]},{"name":"Fox_Tail6","rotation":[0.0151576874777675,0.0228506904095411,-0.02693869173527,0.999260902404785],"scale":[0.999998986721039,1.00000095367432,1],"translation":[0.0182019509375095,0,-0.00000000476837]},{"children":[10],"name":"Fox_Spine1","rotation":[0.0124470824375749,0.0481014475226402,0.0358908846974373,0.998119831085205],"scale":[1,1,1],"translation":[0,0,0]},{"children":[11],"name":"Fox_Spine2","rotation":[-0.02554571814835,0.20154045522213,-0.15224026143551,0.967239260673523],"scale":[1,1,1],"translation":[0.0335060395300388,-0.00000000476837,0.000000000298023217215615]},{"children":[12,16,29],"name":"Fox_Ribcage","rotation":[0.0123149920254946,0.0489294938743114,-0.10570500046015,0.993116676807404],"scale":[1,1,1],"translation":[0.0335060358047485,-0.00000000953674,0.000000000149011608607807]},{"children":[13],"name":"Fox_F_LLeg1","rotation":[0.560374915599823,0.824580430984497,-0.00697059603408,0.0774499922990799],"scale":[1,1,1],"translation":[0.00239976868033409,0.00042314050369896,0.0251081679016352]},{"children":[14],"name":"Fox_F_LLeg2","rotation":[0.0696314126253128,-0.04439562186599,0.467742711305618,0.879998445510864],"scale":[1.00000095367432,0.999998986721039,1],"translation":[0.0340102724730968,0.000000417232513427734,0.0000000572204577053981]},{"children":[15],"name":"Fox_F_LLegAnkle","rotation":[0.107708655297756,-0.00635543651879,-0.12104738503695,0.986765444278717],"scale":[1,1,1],"translation":[0.0326986275613308,-0,0]},{"name":"Fox_F_LLegDigit11","rotation":[0.00168894394300878,-0.01425009313971,0.491482883691788,0.870769023895264],"scale":[1.00000405311584,0.9999960064888,1],"translation":[0.0102812051773071,0.00093354220734909,-0.00000029325486]},{"children":[17],"name":"Fox_Spine","rotation":[-0.01376818213612,0.0273037124425173,-0.27954661846161,0.95964503288269],"scale":[1,1,1],"translation":[0,0,0]},{"children":[18,19,21,23,24,25,26,27,28],"name":"Fox_Head","rotation":[-0.09142682701349,0.095871739089489,0.197447687387466,0.971320807933807],"scale":[1,1,1],"translation":[0.0369065552949905,-0.00000000476837,-0.00000000178814]},{"name":"Fox_Jaw","rotation":[0.00000000723507742605989,-0.00000001273641,0.342020153999329,0.939692616462708],"scale":[1,1,1],"translation":[0.0127218626439571,0.0189216416329145,-0.00000000238419]},{"children":[20],"name":"Fox_LEar1","rotation":[0.266564220190048,-0.27158752083778,-0.4225455224514,0.822580695152283],"scale":[1.00000095367432,0.999998986721039,1],"translation":[0.0109870238229632,-0.03008018434048,0.0253106355667114]},{"name":"Fox_LEar2","rotation":[0.00270582758821547,-0.00225653266534,0.313237220048904,0.949668407440186],"scale":[0.999997019767761,1.00000202655792,1],"translation":[0.0164626874029636,0,0.00000000000000000444089199923895]},{"children":[22],"name":"Fox_REar1","rotation":[-0.26054605841637,0.27047798037529,-0.42218869924545,0.825053989887238],"scale":[1.00000095367432,0.999998986721039,1],"translation":[0.0109870051965117,-0.03008018434048,-0.02531061880291]},{"name":"Fox_REar2","rotation":[0.00325448857620358,-0.00152880162932,0.313756674528122,0.949496626853943],"scale":[1.00000298023224,0.999997019767761,1],"translation":[0.0164626874029636,0.00000000000000000444089199923895,0]},{"name":"Fox_LEye","rotation":[0.690345466136932,0.153045818209648,0.212631046772003,0.674379825592041],"scale":[1,0.999998986721039,1],"translation":[0.0160656161606312,-0.00207386957482,0.0185948815196753]},{"name":"Fox_REye","rotation":[-0.69034558534622,-0.15304584801197,0.21263100206852,0.674379706382751],"scale":[1,1,1],"translation":[0.0160656161606312,-0.00207387912087,-0.01859487779439]},{"name":"Fox_UpperLEyelid","rotation":[0.733772754669189,-0.03472800180316,0.0320371724665165,0.677750110626221],"scale":[1,0.999998986721039,1],"translation":[0.0160656161606312,-0.00207388866693,0.0185948815196753]},{"name":"Fox_LowerLEyelid","rotation":[0.619447112083435,0.308799713850021,0.394631445407867,0.604312837123871],"scale":[1,0.999998986721039,1],"translation":[0.0160656161606312,-0.00207388866693,0.0185948815196753]},{"name":"Fox_UpperREyelid","rotation":[-0.73377269506455,0.0347280465066433,0.032037265598774,0.677750051021576],"scale":[1,0.999998986721039,1],"translation":[0.0160655975341797,-0.00207388401031,-0.0185948703438]},{"name":"Fox_LowerREyelid","rotation":[-0.61944717168808,-0.3087996840477,0.394631385803223,0.604312837123871],"scale":[1,0.999998986721039,1],"translation":[0.0160655975341797,-0.00207388401031,-0.0185948703438]},{"children":[30],"name":"Fox_F_RLeg1","rotation":[0.529826641082764,0.847579538822174,0.0295460391789675,0.00444225920364261],"scale":[1,1,1],"translation":[0.00239977356977761,0.0004231309867464,-0.02510816790164]},{"children":[31],"name":"Fox_F_RLeg2","rotation":[-0.07265643030405,0.0365886278450489,0.385686725378036,0.919036507606506],"scale":[0.999998986721039,1.00000095367432,1],"translation":[0.0340102724730968,0.000000414848329910456,-0.00000005722046]},{"children":[32],"name":"Fox_F_RLegAnkle","rotation":[0.171263962984085,-0.14947761595249,-0.0867820084095,0.96994537115097],"scale":[1,1,1],"translation":[0.0326986238360405,0.00000000476837147544984,0.00000000238418573772492]},{"name":"Fox_F_RLegDigit11","rotation":[-0.00058939732844,-0.00396973872557,0.528664171695709,0.848821580410004],"scale":[0.999998986721039,1.00000202655792,1.00000095367432],"translation":[0.0102812051773071,0.00093354220734909,0.000000292360766707134]},{"children":[34],"name":"Fox_LLeg1","rotation":[0.593531012535095,0.804188668727875,-0.00574501603842,0.0311203151941299],"scale":[0.999998986721039,1.00000095367432,1],"translation":[0.00000000953674295089968,0,0.0192754827439785]},{"children":[35],"name":"Fox_LLeg2","rotation":[-0.09175968915224,0.029056292027235,-0.54584503173828,0.832339525222778],"scale":[1.00000095367432,1,1],"translation":[0.0358892716467381,-0.00000009059906,0.0000000643730118099484]},{"children":[36],"name":"Fox_LLegAnkle","rotation":[0.00137445528525859,-0.13672396540642,0.49738010764122,0.856689989566803],"scale":[1.00000298023224,0.999997019767761,1],"translation":[0.0258319806307554,0,0.00000000476837147544984]},{"name":"Fox_LLegDigit11","rotation":[0.0000990621338132769,0.0003228637506254,0.757962584495544,0.652297914028168],"scale":[1.00000500679016,0.999997973442078,1],"translation":[0.0325394868850708,0.00077512260759249,0]},{"children":[38],"name":"Fox_RLeg1","rotation":[0.754339098930359,0.652343034744263,0.0228977631777525,0.069976419210434],"scale":[0.999998986721039,1.00000095367432,1],"translation":[0.00000000476837147544984,-0.00000000953674,-0.01927548274398]},{"children":[39],"name":"Fox_RLeg2","rotation":[0.0751695781946182,-0.0387172922492,-0.72592157125473,0.68256014585495],"scale":[0.999994993209839,1.00000500679016,1.00000095367432],"translation":[0.0358892753720284,-0.00000008583068,-0.00000006914139]},{"children":[40],"name":"Fox_RLegAnkle","rotation":[-0.14251187443733,-0.01181435305625,0.579998850822449,0.801967680454254],"scale":[0.999990999698639,1.0000079870224,1],"translation":[0.0258319806307554,-0.00000000238419,0.00000000238418573772492]},{"name":"Fox_RLegDigit11","rotation":[-0.00009380774281,-0.00032436431502,0.768568694591522,0.639767169952393],"scale":[0.999987006187439,1.00001204013824,1],"translation":[0.0325394794344902,0.00077512738062068,-0.00000000298023]}],"samplers":[{}],"scene":0,"scenes":[{"name":"Root Scene","nodes":[0,1]}],"skins":[{"inverseBindMatrices":43,"joints":[17,23,2,9,10,25,26,18,19,16,11,12,20,13,33,14,15,34,35,36,3,4,5,6,7,8,24,27,28,21,29,22,30,37,31,32,38,39,40],"skeleton":2},{"joints":[2,3,4,5,6,7,8,9,10,11,12,13,14,15,16,17,18,19,20,21,22,23,24,25,26,27,28,29,30,31,32,33,34,35,36,37,38,39,40]}],"textures":[{"name":"Map #2","sampler":0,"source":0},{"name":"Map #4","sampler":0,"source":1}]}