{"accessors":[{"bufferView":0,"byteOffset":0,"componentType":5126,"count":31,"max":[1],"min":[0],"type":"SCALAR"},{"bufferView":1,"byteOffset":0,"componentType":5126,"count":31,"type":"VEC3"},{"bufferView":2,"byteOffset":0,"componentType":5126,"count":31,"type":"VEC3"},{"bufferView":3,"byteOffset":0,"componentType":5126,"count":31,"type":"VEC4"},{"bufferView":4,"byteOffset":0,"componentType":5126,"count":31,"type":"VEC4"},{"bufferView":5,"byteOffset":0,"componentType":5126,"count":31,"type":"VEC4"},{"bufferView":6,"byteOffset":0,"componentType":5126,"count":31,"type":"VEC4"},{"bufferView":7,"byteOffset":0,"componentType":5126,"count":31,"type":"VEC4"},{"bufferView":8,"byteOffset":0,"componentType":5126,"count":31,"type":"VEC4"},{"bufferView":9,"byteOffset":0,"componentType":5126,"count":31,"type":"VEC4"},{"bufferView":10,"byteOffset":0,"componentType":5126,"count":31,"type":"VEC4"},{"bufferView":11,"byteOffset":0,"componentType":5126,"count":31,"type":"VEC4"},{"bufferView":12,"byteOffset":0,"componentType":5126,"count":31,"type":"VEC4"},{"bufferView":13,"byteOffset":0,"componentType":5126,"count":31,"type":"VEC4"},{"bufferView":14,"byteOffset":0,"componentType":5126,"count":31,"type":"VEC4"},{"bufferView":15,"byteOffset":0,"componentType":5126,"count":31,"type":"VEC4"},{"bufferView":16,"byteOffset":0,"componentType":5126,"count":31,"type":"VEC4"},{"bufferView":17,"byteOffset":0,"componentType":5126,"count":31,"type":"VEC4"},{"bufferView":18,"byteOffset":0,"componentType":5126,"count":31,"type":"VEC4"},{"bufferView":19,"byteOffset":0,"componentType":5126,"count":31,"type":"VEC3"},{"bufferView":20,"byteOffset":0,"componentType":5126,"count":31,"type":"VEC4"},{"bufferView":21,"byteOffset":0,"componentType":5126,"count":31,"type":"VEC3"},{"bufferView":22,"byteOffset":0,"componentType":5126,"count":31,"type":"VEC4"},{"bufferView":23,"byteOffset":0,"componentType":5126,"count":31,"type":"VEC3"},{"bufferView":24,"byteOffset":0,"componentType":5126,"count":31,"type":"VEC4"},{"bufferView":25,"byteOffset":0,"componentType":5126,"count":31,"type":"VEC3"},{"bufferView":26,"byteOffset":0,"componentType":5126,"count":31,"type":"VEC4"},{"bufferView":27,"byteOffset":0,"componentType":5126,"count":31,"type":"VEC3"},{"bufferView":28,"byteOffset":0,"componentType":5126,"count":31,"type":"VEC4"},{"bufferView":29,"byteOffset":0,"componentType":5126,"count":31,"type":"VEC4"},{"bufferView":30,"byteOffset":0,"componentType":5126,"count":31,"type":"VEC4"},{"bufferView":31,"byteOffset":0,"componentType":5126,"count":31,"type":"VEC4"},{"bufferView":32,"byteOffset":0,"componentType":5126,"count":31,"type":"VEC4"},{"bufferView":33,"byteOffset":0,"componentType":5126,"count":31,"type":"VEC4"},{"bufferView":34,"byteOffset":0,"componentType":5126,"count":31,"type":"VEC4"},{"bufferView":35,"byteOffset":0,"componentType":5126,"count":31,"type":"VEC4"},{"bufferView":36,"byteOffset":0,"componentType":5126,"count":31,"type":"VEC4"},{"bufferView":37,"byteOffset":0,"componentType":5126,"count":31,"type":"VEC4"},{"bufferView":38,"byteOffset":0,"componentType":5126,"count":31,"type":"VEC3"},{"bufferView":39,"byteOffset":0,"componentType":5126,"count":31,"type":"VEC4"},{"bufferView":40,"byteOffset":0,"componentType":5126,"count":31,"type":"VEC3"},{"bufferView":41,"byteOffset":0,"componentType":5126,"count":31,"type":"VEC4"},{"bufferView":42,"byteOffset":0,"componentType":5126,"count":31,"type":"VEC3"},{"bufferView":43,"byteOffset":0,"componentType":5123,"count":10350,"type":"SCALAR"},{"bufferView":44,"byteOffset":0,"componentType":5126,"count":2266,"max":[0.0510667748749256,0.181155368685722,0.169082224369049],"min":[-0.05106677487493,-0.09766451269388,0.000000000745058015283462],"type":"VEC3"},{"bufferView":45,"byteOffset":0,"componentType":5126,"count":2266,"type":"VEC3"},{"bufferView":46,"byteOffset":0,"componentType":5126,"count":2266,"type":"VEC4"},{"bufferView":47,"byteOffset":0,"componentType":5126,"count":2266,"type":"VEC2"},{"bufferView":48,"byteOffset":0,"componentType":5123,"count":2266,"type":"VEC4"},{"bufferView":49,"byteOffset":0,"componentType":5126,"count":2266,"type":"VEC4"},{"bufferView":50,"byteOffset":0,"componentType":5126,"count":38,"type":"MAT4"}],"animations":[{"channels":[{"sampler":0,"target":{"node":1,"path":"translation"}},{"sampler":1,"target":{"node":2,"path":"translation"}},{"sampler":2,"target":{"node":2,"path":"rotation"}},{"sampler":3,"target":{"node":3,"path":"rotation"}},{"sampler":4,"target":{"node":4,"path":"rotation"}},{"sampler":5,"target":{"node":5,"path":"rotation"}},{"sampler":6,"target":{"node":6,"path":"rotation"}},{"sampler":7,"target":{"node":7,"path":"rotation"}},{"sampler":8,"target":{"node":8,"path":"rotation"}},{"sampler":9,"target":{"node":9,"path":"rotation"}},{"sampler":10,"target":{"node":10,"path":"rotation"}},{"sampler":11,"target":{"node":11,"path":"rotation"}},{"sampler":12,"target":{"node":12,"path":"rotation"}},{"sampler":13,"target":{"node":13,"path":"rotation"}},{"sampler":14,"target":{"node":14,"path":"rotation"}},{"sampler":15,"target":{"node":15,"path":"rotation"}},{"sampler":16,"target":{"node":16,"path":"rotation"}},{"sampler":17,"target":{"node":17,"path":"rotation"}},{"sampler":18,"target":{"node":19,"path":"translation"}},{"sampler":19,"target":{"node":19,"path":"rotation"}},{"sampler":20,"target":{"node":20,"path":"translation"}},{"sampler":21,"target":{"node":20,"path":"rotation"}},{"sampler":22,"target":{"node":21,"path":"translation"}},{"sampler":23,"target":{"node":21,"path":"rotation"}},{"sampler":24,"target":{"node":22,"path":"translation"}},{"sampler":25,"target":{"node":22,"path":"rotation"}},{"sampler":26,"target":{"node":22,"path":"scale"}},{"sampler":27,"target":{"node":29,"path":"rotation"}},{"sampler":28,"target":{"node":30,"path":"rotation"}},{"sampler":29,"target":{"node":31,"path":"rotation"}},{"sampler":30,"target":{"node":32,"path":"rotation"}},{"sampler":31,"target":{"node":33,"path":"rotation"}},{"sampler":32,"target":{"node":34,"path":"rotation"}},{"sampler":33,"target":{"node":35,"path":"rotation"}},{"sampler":34,"target":{"node":36,"path":"rotation"}},{"sampler":35,"target":{"node":37,"path":"rotation"}},{"sampler":36,"target":{"node":38,"path":"rotation"}},{"sampler":37,"target":{"node":38,"path":"scale"}},{"sampler":38,"target":{"node":39,"path":"rotation"}},{"sampler":39,"target":{"node":39,"path":"scale"}},{"sampler":40,"target":{"node":40,"path":"rotation"}},{"sampler":41,"target":{"node":40,"path":"scale"}}],"name":"Take 001","samplers":[{"input":0,"interpolation":"LINEAR","output":1},{"input":0,"interpolation":"LINEAR","output":2},{"input":0,"interpolation":"LINEAR","output":3},{"input":0,"interpolation":"LINEAR","output":4},{"input":0,"interpolation":"LINEAR","output":5},{"input":0,"interpolation":"LINEAR","output":6},{"input":0,"interpolation":"LINEAR","output":7},{"input":0,"interpolation":"LINEAR","output":8},{"input":0,"interpolation":"LINEAR","output":9},{"input":0,"interpolation":"LINEAR","output":10},{"input":0,"interpolation":"LINEAR","output":11},{"input":0,"interpolation":"LINEAR","output":12},{"input":0,"interpolation":"LINEAR","output":13},{"input":0,"interpolation":"LINEAR","output":14},{"input":0,"interpolation":"LINEAR","output":15},{"input":0,"interpolation":"LINEAR","output":16},{"input":0,"interpolation":"LINEAR","output":17},{"input":0,"interpolation":"LINEAR","output":18},{"input":0,"interpolation":"LINEAR","output":19},{"input":0,"interpolation":"LINEAR","output":20},{"input":0,"interpolation":"LINEAR","output":21},{"input":0,"interpolation":"LINEAR","output":22},{"input":0,"interpolation":"LINEAR","output":23},{"input":0,"interpolation":"LINEAR","output":24},{"input":0,"interpolation":"LINEAR","output":25},{"input":0,"interpolation":"LINEAR","output":26},{"input":0,"interpolation":"LINEAR","output":27},{"input":0,"interpolation":"LINEAR","output":28},{"input":0,"interpolation":"LINEAR","output":29},{"input":0,"interpolation":"LINEAR","output":30},{"input":0,"interpolation":"LINEAR","output":31},{"input":0,"interpolation":"LINEAR","output":32},{"input":0,"interpolation":"LINEAR","output":33},{"input":0,"interpolation":"LINEAR","output":34},{"input":0,"interpolation":"LINEAR","output":35},{"input":0,"interpolation":"LINEAR","output":36},{"input":0,"interpolation":"LINEAR","output":37},{"input":0,"interpolation":"LINEAR","output":38},{"input":0,"interpolation":"LINEAR","output":39},{"input":0,"interpolation":"LINEAR","output":40},{"input":0,"interpolation":"LINEAR","output":41},{"input":0,"interpolation":"LINEAR","output":42}]}],"asset":{"generator":"FBX2glTF v0.13.1","version":"2.0"},"bufferViews":[{"buffer":0,"byteLength":124,"byteOffset":0},{"buffer":0,"byteLength":372,"byteOffset":124},{"buffer":0,"byteLength":372,"byteOffset":496},{"buffer":0,"byteLength":496,"byteOffset":868},{"buffer":0,"byteLength":496,"byteOffset":1364},{"buffer":0,"byteLength":496,"byteOffset":1860},{"buffer":0,"byteLength":496,"byteOffset":2356},{"buffer":0,"byteLength":496,"byteOffset":2852},{"buffer":0,"byteLength":496,"byteOffset":3348},{"buffer":0,"byteLength":496,"byteOffset":3844},{"buffer":0,"byteLength":496,"byteOffset":4340},{"buffer":0,"byteLength":496,"byteOffset":4836},{"buffer":0,"byteLength":496,"byteOffset":5332},{"buffer":0,"byteLength":496,"byteOffset":5828},{"buffer":0,"byteLength":496,"byteOffset":6324},{"buffer":0,"byteLength":496,"byteOffset":6820},{"buffer":0,"byteLength":496,"byteOffset":7316},{"buffer":0,"byteLength":496,"byteOffset":7812},{"buffer":0,"byteLength":496,"byteOffset":8308},{"buffer":0,"byteLength":372,"byteOffset":8804},{"buffer":0,"byteLength":496,"byteOffset":9176},{"buffer":0,"byteLength":372,"byteOffset":9672},{"buffer":0,"byteLength":496,"byteOffset":10044},{"buffer":0,"byteLength":372,"byteOffset":10540},{"buffer":0,"byteLength":496,"byteOffset":10912},{"buffer":0,"byteLength":372,"byteOffset":11408},{"buffer":0,"byteLength":496,"byteOffset":11780},{"buffer":0,"byteLength":372,"byteOffset":12276},{"buffer":0,"byteLength":496,"byteOffset":12648},{"buffer":0,"byteLength":496,"byteOffset":13144},{"buffer":0,"byteLength":496,"byteOffset":13640},{"buffer":0,"byteLength":496,"byteOffset":14136},{"buffer":0,"byteLength":496,"byteOffset":14632},{"buffer":0,"byteLength":496,"byteOffset":15128},{"buffer":0,"byteLength":496,"byteOffset":15624},{"buffer":0,"byteLength":496,"byteOffset":16120},{"buffer":0,"byteLength":496,"byteOffset":16616},{"buffer":0,"byteLength":496,"byteOffset":17112},{"buffer":0,"byteLength":372,"byteOffset":17608},{"buffer":0,"byteLength":496,"byteOffset":17980},{"buffer":0,"byteLength":372,"byteOffset":18476},{"buffer":0,"byteLength":496,"byteOffset":18848},{"buffer":0,"byteLength":372,"byteOffset":19344},{"buffer":0,"byteLength":20700,"byteOffset":19716,"target":34963},{"buffer":0,"byteLength":27192,"byteOffset":40416,"target":34962},{"buffer":0,"byteLength":27192,"byteOffset":67608,"target":34962},{"buffer":0,"byteLength":36256,"byteOffset":94800,"target":34962},{"buffer":0,"byteLength":18128,"byteOffset":131056,"target":34962},{"buffer":0,"byteLength":18128,"byteOffset":149184,"target":34962},{"buffer":0,"byteLength":36256,"byteOffset":167312,"target":34962},{"buffer":0,"byteLength":2432,"byteOffset":203568}],"buffers":[{"byteLength":206000,"uri":"Fox_Somersault.bin"}],"images":[{"name":"1","uri":"1.psd"}],"materials":[{"alphaMode":"OPAQUE","doubleSided":false,"extras":{"fromFBX":{"isTruePBR":true,"shadingModel":"Metallic/Roughness"}},"name":"08 - Default","pbrMetallicRoughness":{"baseColorFactor":[0.443137288093567,0.443137288093567,0.443137288093567,1],"baseColorTexture":{"index":0,"texCoord":0},"metallicFactor":0,"roughnessFactor":0.680000066757202}}],"meshes":[{"name":"fox","primitives":[{"attributes":{"JOINTS_0":48,"NORMAL":45,"POSITION":44,"TANGENT":46,"TEXCOORD_0":47,"WEIGHTS_0":49},"indices":43,"material":0,"mode":4}]}],"nodes":[{"mesh":0,"name":"fox","rotation":[-0.70710676908493,-0,0,0.70710676908493],"scale":[1,1,1],"skin":0,"translation":[0,0,0]},{"children":[2],"name":"FoxTransform","rotation":[-0.70710647106171,0.000000337174952846908,0.000000337174640208104,0.707107126712799],"scale":[1,1,1],"translation":[0,0,0]},{"children":[3,9,33,37],"name":"Fox_Pelvis","rotation":[0.5,-0.50000005960465,0.500000417232513,-0.4999994635582],"scale":[1,1,1],"translation":[0.0000000316552508650148,0.0347874835133553,0.0729596763849258]},{"children":[4],"name":"Fox_Tail1","rotation":[-0.00577434618026,0.00074959127232432,0.992769658565521,0.11989352107048],"scale":[0.999998986721039,1,1],"translation":[-0.01636433973908,-0.00745288375765,0.0000000016469925423479]},{"children":[5],"name":"Fox_Tail2","rotation":[0.00540411751717329,0.0379877276718616,-0.10929057747126,0.993268966674805],"scale":[1,1,1],"translation":[0.0267343278974295,0.0000000476837129781416,-0.00000000044703]},{"children":[6],"name":"Fox_Tail3","rotation":[0.0191253703087568,0.0695369020104408,-0.1199602112174,0.990155756473541],"scale":[1,1,1],"translation":[0.0208616945892572,0,0]},{"children":[7],"name":"Fox_Tail4","rotation":[0.0164504051208496,0.0280345026403666,-0.06259563565254,0.99750953912735],"scale":[1.00000095367432,1,1],"translation":[0.0220821462571621,0.0000000190734859017994,0.00000000059604643443123]},{"children":[8],"name":"Fox_Tail5","rotation":[0.00036995051777921,-0.02908479608595,-0.00150271761231,0.999575734138489],"scale":[1,1,1],"translation":[0.0203105509281158,0.0000000667572024326546,-0.00000000417233]},{"name":"Fox_Tail6","rotation":[-0.00149356957991,-0.06978081166744,0.00946563389152288,0.997516334056854],"scale":[0.999998986721039,1.00000202655792,0.999998986721039],"translation":[0.0182019378989935,-0.00000003814697,-0.00000001132488]},{"children":[10],"name":"Fox_Spine1","rotation":[0.000000187048740940554,0.00000240244253291166,0.0344132706522942,0.999407708644867],"scale":[1,1,1],"translation":[0,0,0]},{"children":[11],"name":"Fox_Spine2","rotation":[0.0000000220199964928725,0.00000000803902455714933,-0.0599413216114,0.998201906681061],"scale":[1,1,1],"translation":[0.0335060320794582,0,-0.00000000000004]},{"children":[12,16,29],"name":"Fox_Ribcage","rotation":[0.000000170739085092464,-0.00000243379736,-0.0616700835526,0.998096585273743],"scale":[1,1,1],"translation":[0.0335060358047485,-0.00000000476837,-0.00000000000007]},{"children":[13],"name":"Fox_F_LLeg1","rotation":[0.517719209194183,0.855369091033936,0.00822529662400484,0.0155859095975757],"scale":[1,1,1],"translation":[0.00239977356977761,0.00042313575977459,0.0251081623136997]},{"children":[14],"name":"Fox_F_LLeg2","rotation":[0.0733453929424286,-0.03447919711471,0.363774836063385,0.927954494953156],"scale":[1,1.00000095367432,1.00000095367432],"translation":[0.0340102799236774,0.000000396966925109155,0.0000000381469718035987]},{"children":[15],"name":"Fox_F_LLegAnkle","rotation":[-0.03678158298135,0.0564807020127773,0.0299130659550428,0.997277438640594],"scale":[1,1,1],"translation":[0.0326986275613308,0.00000000476837147544984,0.00000000238418573772492]},{"name":"Fox_F_LLegDigit11","rotation":[-0.00002973165829,-0.00005004361446,0.509705543518066,0.86034893989563],"scale":[1,1,1],"translation":[0.0102812051773071,0.00093354220734909,-0.00000029325486]},{"children":[17],"name":"Fox_Spine","rotation":[0.00022414002160076,-0.01083876751363,-0.40314638614655,0.915071308612823],"scale":[1,1.00000095367432,1],"translation":[0,0,0]},{"children":[18,19,21,23,24,25,26,27,28],"name":"Fox_Head","rotation":[0.0129892714321613,-0.00511777261272,0.237988293170929,0.971167683601379],"scale":[1,1,1],"translation":[0.0369065664708614,-0.00000000715256,0]},{"name":"Fox_Jaw","rotation":[-0.00000005841487,-0.0000000157117,0.34201991558075,0.939692735671997],"scale":[1,1,1],"translation":[0.0127218430861831,0.0189216565340757,-0.00000000044703]},{"children":[20],"name":"Fox_LEar1","rotation":[0.230863690376282,-0.29398393630981,-0.33921420574188,0.863254964351654],"scale":[1.00000095367432,0.999997019767761,1.00000202655792],"translation":[0.0109870526939631,-0.03007997013628,0.0253105778247118]},{"name":"Fox_LEar2","rotation":[-0.01001363154501,0.0049707037396729,0.0944118499755859,0.995470464229584],"scale":[0.999980986118317,1.00002300739288,0.999997019767761],"translation":[0.0164627730846405,-0.00000017642975,0.000000684261294736643]},{"children":[22],"name":"Fox_REar1","rotation":[-0.25690519809723,0.283185005187988,-0.38670557737351,0.839204847812653],"scale":[1.00000405311584,0.9999960064888,1.00000095367432],"translation":[0.0109870526939631,-0.03008015081286,-0.02531056292355]},{"name":"Fox_REar2","rotation":[-0.01091361418366,0.00255086412653327,-0.01845058426261,0.999766945838928],"scale":[1.00000298023224,0.999990999698639,1.00000596046448],"translation":[0.0164624024182558,0.000000216960899024343,0.000000317096692015184]},{"name":"Fox_LEye","rotation":[0.690345585346222,0.15304571390152,0.212630942463875,0.674379765987396],"scale":[1,1.00000095367432,0.999998986721039],"translation":[0.0160656161606312,-0.00207388401031,0.018594877794385]},{"name":"Fox_REye","rotation":[-0.69034564495087,-0.15304581820965,0.212630853056908,0.674379706382751],"scale":[1,1.00000095367432,0.999998986721039],"translation":[0.0160655789077282,-0.00207388866693,-0.0185948908329]},{"name":"Fox_UpperLEyelid","rotation":[0.733772814273834,-0.03472807630897,0.0320372208952904,0.677749991416931],"scale":[1,1.00000095367432,1],"translation":[0.0160656161606312,-0.00207387446426,0.0185948796570301]},{"name":"Fox_LowerLEyelid","rotation":[0.619447290897369,0.308799475431442,0.394631505012512,0.604312777519226],"scale":[1,1.00000095367432,1],"translation":[0.0160656161606312,-0.00207387446426,0.0185948796570301]},{"name":"Fox_UpperREyelid","rotation":[-0.73377275466919,0.0347280614078045,0.0320372208952904,0.677750051021576],"scale":[1,1,1],"translation":[0.0160655789077282,-0.00207388866693,-0.0185948908329]},{"name":"Fox_LowerREyelid","rotation":[-0.61944729089737,-0.30879959464073,0.3946313560009,0.604312837123871],"scale":[1,1.00000095367432,1],"translation":[0.0160655789077282,-0.00207388866693,-0.0185948908329]},{"children":[30],"name":"Fox_F_RLeg1","rotation":[0.423266112804413,0.905911386013031,-0.01216162834316,-0.00473431032151],"scale":[1,1,1],"translation":[0.00239974493160844,0.0004231262137182,-0.02510816790164]},{"children":[31],"name":"Fox_F_RLeg2","rotation":[-0.07471530139446,0.0294343382120132,0.313170969486237,0.946295499801636],"scale":[1,1.00000095367432,1],"translation":[0.0340102724730968,0.000000416040421669095,-0.00000004768371]},{"children":[32],"name":"Fox_F_RLegAnkle","rotation":[0.0427045039832592,-0.05225772038102,0.18957294523716,0.979544579982758],"scale":[1,1,1],"translation":[0.0326986163854599,-0.00000000119209,0]},{"name":"Fox_F_RLegDigit11","rotation":[0.0001148095834651,0.00019362551392987,0.510425448417664,0.859921991825104],"scale":[0.999998986721039,1,1],"translation":[0.0102812070399523,0.00093354220734909,0.000000298023223876953]},{"children":[34],"name":"Fox_LLeg1","rotation":[0.702396273612976,0.711642444133759,-0.01054732687771,0.00965680740773678],"scale":[0.999998986721039,1.00000095367432,1],"translation":[0.00000000238418573772492,0.00000000953674295089968,0.0192754864692688]},{"children":[35],"name":"Fox_LLeg2","rotation":[-0.08298011124134,0.0346969068050385,-0.65248280763626,0.752447068691254],"scale":[1.00000095367432,0.999998986721039,1],"translation":[0.0358892716467381,-0.0000000834465,0.0000000619888282926695]},{"children":[36],"name":"Fox_LLegAnkle","rotation":[0.0704943165183067,-0.03197770938277,0.72754830121994,0.681675493717194],"scale":[1.00000298023224,0.999997019767761,1],"translation":[0.0258319806307554,0.00000000000000000444089199923895,0.00000000000000000444089199923895]},{"name":"Fox_LLegDigit11","rotation":[0.00014912396727595,0.00029685319168493,0.635669589042664,0.771961152553558],"scale":[1.00000405311584,0.999994993209839,1],"translation":[0.0325394719839096,0.00077513215364888,0]},{"children":[38],"name":"Fox_RLeg1","rotation":[0.892869651317596,0.450091898441315,0.00612285826355219,-0.01279082149267],"scale":[0.999998986721039,1.00000095367432,1.00000095367432],"translation":[-0.00000000238419,0,-0.01927548274398]},{"children":[39],"name":"Fox_RLeg2","rotation":[0.0685926154255867,-0.04145628958941,-0.77871996164322,0.622231245040894],"scale":[0.999993979930878,1.00000596046448,1],"translation":[0.0358892567455769,-0.00000007987022,-0.00000006794929]},{"children":[40],"name":"Fox_RLegAnkle","rotation":[-0.07007320970297,0.0129533102735877,0.623438239097595,0.778618454933167],"scale":[0.999990999698639,1.00000894069672,1],"translation":[0.0258319843560457,0.00000000953674295089968,0.00000000238418573772492]},{"name":"Fox_RLegDigit11","rotation":[-0.00022212948534,-0.00038558145752,0.635904908180237,0.771767258644104],"scale":[0.999985992908478,1.00001394748688,1],"translation":[0.0325394757091999,0.00077512738062068,-0]}],"samplers":[{}],"scene":0,"scenes":[{"name":"Root Scene","nodes":[0,1]}],"skins":[{"inverseBindMatrices":50,"joints":[17,25,26,18,11,12,19,20,13,10,9,33,14,2,34,35,36,3,4,5,6,7,8,15,27,28,29,21,22,30,37,31,38,39,40,32,23,24],"skeleton":17},{"joints":[2,3,4,5,6,7,8,9,10,11,12,13,14,15,16,17,18,19,20,21,22,23,24,25,26,27,28,29,30,31,32,33,34,35,36,37,38,39,40]}],"textures":[{"name":"Map #4","sampler":0,"source":0}]}