{"accessors":[{"bufferView":0,"byteOffset":0,"componentType":5126,"count":16,"max":[0.5],"min":[0],"type":"SCALAR"},{"bufferView":1,"byteOffset":0,"componentType":5126,"count":16,"type":"VEC3"},{"bufferView":2,"byteOffset":0,"componentType":5126,"count":16,"type":"VEC4"},{"bufferView":3,"byteOffset":0,"componentType":5126,"count":16,"type":"VEC3"},{"bufferView":4,"byteOffset":0,"componentType":5126,"count":16,"type":"VEC4"},{"bufferView":5,"byteOffset":0,"componentType":5126,"count":16,"type":"VEC4"},{"bufferView":6,"byteOffset":0,"componentType":5126,"count":16,"type":"VEC4"},{"bufferView":7,"byteOffset":0,"componentType":5126,"count":16,"type":"VEC4"},{"bufferView":8,"byteOffset":0,"componentType":5126,"count":16,"type":"VEC4"},{"bufferView":9,"byteOffset":0,"componentType":5126,"count":16,"type":"VEC4"},{"bufferView":10,"byteOffset":0,"componentType":5126,"count":16,"type":"VEC4"},{"bufferView":11,"byteOffset":0,"componentType":5126,"count":16,"type":"VEC4"},{"bufferView":12,"byteOffset":0,"componentType":5126,"count":16,"type":"VEC4"},{"bufferView":13,"byteOffset":0,"componentType":5126,"count":16,"type":"VEC4"},{"bufferView":14,"byteOffset":0,"componentType":5126,"count":16,"type":"VEC4"},{"bufferView":15,"byteOffset":0,"componentType":5126,"count":16,"type":"VEC4"},{"bufferView":16,"byteOffset":0,"componentType":5126,"count":16,"type":"VEC4"},{"bufferView":17,"byteOffset":0,"componentType":5126,"count":16,"type":"VEC4"},{"bufferView":18,"byteOffset":0,"componentType":5126,"count":16,"type":"VEC4"},{"bufferView":19,"byteOffset":0,"componentType":5126,"count":16,"type":"VEC4"},{"bufferView":20,"byteOffset":0,"componentType":5126,"count":16,"type":"VEC4"},{"bufferView":21,"byteOffset":0,"componentType":5126,"count":16,"type":"VEC4"},{"bufferView":22,"byteOffset":0,"componentType":5126,"count":16,"type":"VEC4"},{"bufferView":23,"byteOffset":0,"componentType":5126,"count":16,"type":"VEC4"},{"bufferView":24,"byteOffset":0,"componentType":5126,"count":16,"type":"VEC4"},{"bufferView":25,"byteOffset":0,"componentType":5126,"count":16,"type":"VEC4"},{"bufferView":26,"byteOffset":0,"componentType":5126,"count":16,"type":"VEC4"},{"bufferView":27,"byteOffset":0,"componentType":5126,"count":16,"type":"VEC4"},{"bufferView":28,"byteOffset":0,"componentType":5126,"count":16,"type":"VEC4"},{"bufferView":29,"byteOffset":0,"componentType":5126,"count":16,"type":"VEC4"},{"bufferView":30,"byteOffset":0,"componentType":5126,"count":16,"type":"VEC4"},{"bufferView":31,"byteOffset":0,"componentType":5126,"count":16,"type":"VEC4"},{"bufferView":32,"byteOffset":0,"componentType":5126,"count":16,"type":"VEC4"},{"bufferView":33,"byteOffset":0,"componentType":5126,"count":16,"type":"VEC4"},{"bufferView":34,"byteOffset":0,"componentType":5126,"count":16,"type":"VEC4"},{"bufferView":35,"byteOffset":0,"componentType":5126,"count":16,"type":"VEC4"},{"bufferView":36,"byteOffset":0,"componentType":5123,"count":10350,"type":"SCALAR"},{"bufferView":37,"byteOffset":0,"componentType":5126,"count":2266,"max":[0.0510667748749256,0.181155368685722,0.169082224369049],"min":[-0.05106677487493,-0.09766451269388,0.000000000745058015283462],"type":"VEC3"},{"bufferView":38,"byteOffset":0,"componentType":5126,"count":2266,"type":"VEC3"},{"bufferView":39,"byteOffset":0,"componentType":5126,"count":2266,"type":"VEC4"},{"bufferView":40,"byteOffset":0,"componentType":5126,"count":2266,"type":"VEC2"},{"bufferView":41,"byteOffset":0,"componentType":5123,"count":2266,"type":"VEC4"},{"bufferView":42,"byteOffset":0,"componentType":5126,"count":2266,"type":"VEC4"},{"bufferView":43,"byteOffset":0,"componentType":5126,"count":39,"type":"MAT4"}],"animations":[{"channels":[{"sampler":0,"target":{"node":1,"path":"translation"}},{"sampler":1,"target":{"node":1,"path":"rotation"}},{"sampler":2,"target":{"node":2,"path":"translation"}},{"sampler":3,"target":{"node":2,"path":"rotation"}},{"sampler":4,"target":{"node":3,"path":"rotation"}},{"sampler":5,"target":{"node":4,"path":"rotation"}},{"sampler":6,"target":{"node":5,"path":"rotation"}},{"sampler":7,"target":{"node":6,"path":"rotation"}},{"sampler":8,"target":{"node":7,"path":"rotation"}},{"sampler":9,"target":{"node":8,"path":"rotation"}},{"sampler":10,"target":{"node":9,"path":"rotation"}},{"sampler":11,"target":{"node":10,"path":"rotation"}},{"sampler":12,"target":{"node":11,"path":"rotation"}},{"sampler":13,"target":{"node":12,"path":"rotation"}},{"sampler":14,"target":{"node":13,"path":"rotation"}},{"sampler":15,"target":{"node":14,"path":"rotation"}},{"sampler":16,"target":{"node":15,"path":"rotation"}},{"sampler":17,"target":{"node":16,"path":"rotation"}},{"sampler":18,"target":{"node":17,"path":"rotation"}},{"sampler":19,"target":{"node":19,"path":"rotation"}},{"sampler":20,"target":{"node":20,"path":"rotation"}},{"sampler":21,"target":{"node":21,"path":"rotation"}},{"sampler":22,"target":{"node":22,"path":"rotation"}},{"sampler":23,"target":{"node":29,"path":"rotation"}},{"sampler":24,"target":{"node":30,"path":"rotation"}},{"sampler":25,"target":{"node":31,"path":"rotation"}},{"sampler":26,"target":{"node":32,"path":"rotation"}},{"sampler":27,"target":{"node":33,"path":"rotation"}},{"sampler":28,"target":{"node":34,"path":"rotation"}},{"sampler":29,"target":{"node":35,"path":"rotation"}},{"sampler":30,"target":{"node":36,"path":"rotation"}},{"sampler":31,"target":{"node":37,"path":"rotation"}},{"sampler":32,"target":{"node":38,"path":"rotation"}},{"sampler":33,"target":{"node":39,"path":"rotation"}},{"sampler":34,"target":{"node":40,"path":"rotation"}}],"name":"Take 001","samplers":[{"input":0,"interpolation":"LINEAR","output":1},{"input":0,"interpolation":"LINEAR","output":2},{"input":0,"interpolation":"LINEAR","output":3},{"input":0,"interpolation":"LINEAR","output":4},{"input":0,"interpolation":"LINEAR","output":5},{"input":0,"interpolation":"LINEAR","output":6},{"input":0,"interpolation":"LINEAR","output":7},{"input":0,"interpolation":"LINEAR","output":8},{"input":0,"interpolation":"LINEAR","output":9},{"input":0,"interpolation":"LINEAR","output":10},{"input":0,"interpolation":"LINEAR","output":11},{"input":0,"interpolation":"LINEAR","output":12},{"input":0,"interpolation":"LINEAR","output":13},{"input":0,"interpolation":"LINEAR","output":14},{"input":0,"interpolation":"LINEAR","output":15},{"input":0,"interpolation":"LINEAR","output":16},{"input":0,"interpolation":"LINEAR","output":17},{"input":0,"interpolation":"LINEAR","output":18},{"input":0,"interpolation":"LINEAR","output":19},{"input":0,"interpolation":"LINEAR","output":20},{"input":0,"interpolation":"LINEAR","output":21},{"input":0,"interpolation":"LINEAR","output":22},{"input":0,"interpolation":"LINEAR","output":23},{"input":0,"interpolation":"LINEAR","output":24},{"input":0,"interpolation":"LINEAR","output":25},{"input":0,"interpolation":"LINEAR","output":26},{"input":0,"interpolation":"LINEAR","output":27},{"input":0,"interpolation":"LINEAR","output":28},{"input":0,"interpolation":"LINEAR","output":29},{"input":0,"interpolation":"LINEAR","output":30},{"input":0,"interpolation":"LINEAR","output":31},{"input":0,"interpolation":"LINEAR","output":32},{"input":0,"interpolation":"LINEAR","output":33},{"input":0,"interpolation":"LINEAR","output":34},{"input":0,"interpolation":"LINEAR","output":35}]}],"asset":{"generator":"FBX2glTF v0.13.1","version":"2.0"},"bufferViews":[{"buffer":0,"byteLength":64,"byteOffset":0},{"buffer":0,"byteLength":192,"byteOffset":64},{"buffer":0,"byteLength":256,"byteOffset":256},{"buffer":0,"byteLength":192,"byteOffset":512},{"buffer":0,"byteLength":256,"byteOffset":704},{"buffer":0,"byteLength":256,"byteOffset":960},{"buffer":0,"byteLength":256,"byteOffset":1216},{"buffer":0,"byteLength":256,"byteOffset":1472},{"buffer":0,"byteLength":256,"byteOffset":1728},{"buffer":0,"byteLength":256,"byteOffset":1984},{"buffer":0,"byteLength":256,"byteOffset":2240},{"buffer":0,"byteLength":256,"byteOffset":2496},{"buffer":0,"byteLength":256,"byteOffset":2752},{"buffer":0,"byteLength":256,"byteOffset":3008},{"buffer":0,"byteLength":256,"byteOffset":3264},{"buffer":0,"byteLength":256,"byteOffset":3520},{"buffer":0,"byteLength":256,"byteOffset":3776},{"buffer":0,"byteLength":256,"byteOffset":4032},{"buffer":0,"byteLength":256,"byteOffset":4288},{"buffer":0,"byteLength":256,"byteOffset":4544},{"buffer":0,"byteLength":256,"byteOffset":4800},{"buffer":0,"byteLength":256,"byteOffset":5056},{"buffer":0,"byteLength":256,"byteOffset":5312},{"buffer":0,"byteLength":256,"byteOffset":5568},{"buffer":0,"byteLength":256,"byteOffset":5824},{"buffer":0,"byteLength":256,"byteOffset":6080},{"buffer":0,"byteLength":256,"byteOffset":6336},{"buffer":0,"byteLength":256,"byteOffset":6592},{"buffer":0,"byteLength":256,"byteOffset":6848},{"buffer":0,"byteLength":256,"byteOffset":7104},{"buffer":0,"byteLength":256,"byteOffset":7360},{"buffer":0,"byteLength":256,"byteOffset":7616},{"buffer":0,"byteLength":256,"byteOffset":7872},{"buffer":0,"byteLength":256,"byteOffset":8128},{"buffer":0,"byteLength":256,"byteOffset":8384},{"buffer":0,"byteLength":256,"byteOffset":8640},{"buffer":0,"byteLength":20700,"byteOffset":8896,"target":34963},{"buffer":0,"byteLength":27192,"byteOffset":29596,"target":34962},{"buffer":0,"byteLength":27192,"byteOffset":56788,"target":34962},{"buffer":0,"byteLength":36256,"byteOffset":83980,"target":34962},{"buffer":0,"byteLength":18128,"byteOffset":120236,"target":34962},{"buffer":0,"byteLength":18128,"byteOffset":138364,"target":34962},{"buffer":0,"byteLength":36256,"byteOffset":156492,"target":34962},{"buffer":0,"byteLength":2496,"byteOffset":192748}],"buffers":[{"byteLength":195244,"uri":"Fox_Run_Left.bin"}],"images":[{"name":"toonfoxNM","uri":"toonfoxNM.png"},{"name":"1","uri":"1.psd"}],"materials":[{"alphaMode":"OPAQUE","doubleSided":false,"extras":{"fromFBX":{"isTruePBR":false,"shadingModel":"Phong"}},"name":"08 - Default","normalTexture":{"index":0,"texCoord":0},"pbrMetallicRoughness":{"baseColorFactor":[1,1,1,1],"baseColorTexture":{"index":1,"texCoord":0},"metallicFactor":0.400000005960464,"roughnessFactor":0.422773718833923}}],"meshes":[{"name":"fox","primitives":[{"attributes":{"JOINTS_0":41,"NORMAL":38,"POSITION":37,"TANGENT":39,"TEXCOORD_0":40,"WEIGHTS_0":42},"indices":36,"material":0,"mode":4}]}],"nodes":[{"mesh":0,"name":"fox","rotation":[-0.70710676908493,-0,0,0.70710676908493],"scale":[1,1,1],"skin":0,"translation":[0,0,0]},{"children":[2],"name":"FoxTransform","rotation":[-0.70710682868957,0.000000110986213996966,0.0000000800776263076841,0.70710676908493],"scale":[1,1,1],"translation":[0,0,0]},{"children":[3,9,33,37],"name":"Fox_Pelvis","rotation":[-0.38660177588463,0.592063307762146,-0.54840916395187,0.446371406316757],"scale":[1,1,1],"translation":[0.00531643442809582,0.0343327634036541,0.0697896480560303]},{"children":[4],"name":"Fox_Tail1","rotation":[0.0436293482780457,-0.00076374300988,0.998825907707214,0.0210412666201591],"scale":[1,1,1],"translation":[-0.01636433973908,-0.00745288841426,-0.00000000178814]},{"children":[5],"name":"Fox_Tail2","rotation":[0.0103122228756547,-0.08205358684063,0.0481576509773731,0.995410323143005],"scale":[1,1,1],"translation":[0.0267343185842037,-0,0.00000000119209286886246]},{"children":[6],"name":"Fox_Tail3","rotation":[0.0161561127752066,-0.12186536937952,0.0346180498600006,0.991811156272888],"scale":[0.999998986721039,1,1],"translation":[0.0208616815507412,0.00000000476837147544984,0.00000000238418573772492]},{"children":[7],"name":"Fox_Tail4","rotation":[-0.03307389840484,-0.07204145938158,-0.06157269701362,0.994949698448181],"scale":[0.999998986721039,0.999998986721039,1.00000095367432],"translation":[0.0220821369439363,0.00000000476837147544984,0.00000000476837147544984]},{"children":[8],"name":"Fox_Tail5","rotation":[-0.02869554236531,-0.04158816859126,-0.04717365279794,0.997607946395874],"scale":[0.999997973442078,0.999997973442078,1.00000202655792],"translation":[0.0203105248510838,0,0.00000000953674295089968]},{"name":"Fox_Tail6","rotation":[-0.01515762042254,-0.02285051904619,-0.02693871594965,0.999260902404785],"scale":[0.999997019767761,0.999997019767761,1.00000405311584],"translation":[0.0182019416242838,-0.00000000953674,0.00000000476837147544984]},{"children":[10],"name":"Fox_Spine1","rotation":[-0.01244621165097,-0.04809677600861,0.0358910970389843,0.998120069503784],"scale":[1,1,1],"translation":[0,0,0]},{"children":[11],"name":"Fox_Spine2","rotation":[0.0255457237362862,-0.20154051482678,-0.1522401869297,0.967239260673523],"scale":[1,1,1],"translation":[0.0335060395300388,0,-0]},{"children":[12,16,29],"name":"Fox_Ribcage","rotation":[-0.01231401972473,-0.04893407598138,-0.10570475459099,0.993116497993469],"scale":[1,1,1],"translation":[0.0335060358047485,-0.00000000476837,-0.00000000029802]},{"children":[13],"name":"Fox_F_LLeg1","rotation":[0.446792334318161,0.893350124359131,0.0213884077966213,0.0429494343698025],"scale":[1,1,1],"translation":[0.00239976402372122,0.00042313575977459,0.0251081679016352]},{"children":[14],"name":"Fox_F_LLeg2","rotation":[0.0646979957818985,-0.05404465273023,0.569959938526154,0.817336559295654],"scale":[1.00000095367432,0.999998986721039,1],"translation":[0.0340102724730968,0.000000419616696945013,0.0000000536441788767661]},{"children":[15],"name":"Fox_F_LLegAnkle","rotation":[-0.07525049895048,0.138323545455933,-0.09059656411409,0.983359634876251],"scale":[1,1,1],"translation":[0.0326986275613308,-0,0.00000000119209286886246]},{"name":"Fox_F_LLegDigit11","rotation":[0.00593458162620664,0.0157315637916327,0.493163377046585,0.869774222373962],"scale":[1.00000500679016,0.999997019767761,1.00000202655792],"translation":[0.0102812144905329,0.00093354220734909,-0.00000029116867]},{"children":[17],"name":"Fox_Spine","rotation":[0.0137680973857641,-0.02730391919613,-0.27954658865929,0.95964503288269],"scale":[1,1,1],"translation":[0,0,0]},{"children":[18,19,21,23,24,25,26,27,28],"name":"Fox_Head","rotation":[0.0914267748594284,-0.09587164223194,0.197447687387466,0.971320867538452],"scale":[1,1,1],"translation":[0.0369065515697002,0.0000000000000000133226759977169,0]},{"name":"Fox_Jaw","rotation":[-0.0000000589639,-0.00000000001461,0.342020034790039,0.939692676067352],"scale":[1,1,1],"translation":[0.0127218533307314,0.0189216230064631,-0.00000000357628]},{"children":[20],"name":"Fox_LEar1","rotation":[0.260546177625656,-0.27047765254974,-0.42218866944313,0.825054109096527],"scale":[1.00000095367432,0.999998986721039,1],"translation":[0.0109870145097375,-0.03008017875254,0.0253106225281954]},{"name":"Fox_LEar2","rotation":[-0.00325444876216,0.00152869836892933,0.313756585121155,0.949496626853943],"scale":[0.999997019767761,1.00000298023224,1],"translation":[0.0164626874029636,-0,0]},{"children":[22],"name":"Fox_REar1","rotation":[-0.26656413078308,0.271587818861008,-0.42254540324211,0.822580695152283],"scale":[1.00000095367432,0.999998986721039,1],"translation":[0.010986995883286,-0.03008017875254,-0.02531061507761]},{"name":"Fox_REar2","rotation":[-0.00270588393323,0.00225639343261719,0.313236922025681,0.94966846704483],"scale":[1.00000298023224,0.999997973442078,1],"translation":[0.0164626967161894,0,0]},{"name":"Fox_LEye","rotation":[0.690345466136932,0.15304571390152,0.212630972266197,0.674379885196686],"scale":[1,1,1],"translation":[0.0160656161606312,-0.0020738649182,0.0185948740690947]},{"name":"Fox_REye","rotation":[-0.69034564495087,-0.15304581820965,0.212630823254585,0.674379706382751],"scale":[1,1,1],"translation":[0.0160655975341797,-0.00207387446426,-0.01859486475587]},{"name":"Fox_UpperLEyelid","rotation":[0.733772695064545,-0.03472808748484,0.0320371948182583,0.677750110626221],"scale":[1,1,1],"translation":[0.0160656068474054,-0.00207387446426,0.0185948740690947]},{"name":"Fox_LowerLEyelid","rotation":[0.619447112083435,0.308799624443054,0.394631385803223,0.604312896728516],"scale":[1,1,1],"translation":[0.0160656068474054,-0.00207387446426,0.0185948740690947]},{"name":"Fox_UpperREyelid","rotation":[-0.73377275466919,0.0347280316054821,0.0320372097194195,0.677750051021576],"scale":[1,1,1],"translation":[0.0160655882209539,-0.00207386957482,-0.01859486848116]},{"name":"Fox_LowerREyelid","rotation":[-0.61944723129273,-0.30879965424538,0.394631415605545,0.604312777519226],"scale":[1,1,1],"translation":[0.0160655882209539,-0.00207386957482,-0.01859486848116]},{"children":[30],"name":"Fox_F_RLeg1","rotation":[0.641779959201813,0.764511525630951,0.0496240444481373,-0.03432246297598],"scale":[1,1,1],"translation":[0.00239976402372122,0.0004231262137182,-0.02510816603899]},{"children":[31],"name":"Fox_F_RLeg2","rotation":[-0.07660844177008,0.0221648346632719,0.233485460281372,0.969084322452545],"scale":[0.999998986721039,1.00000095367432,1],"translation":[0.0340102724730968,0.000000419616696945013,-0.00000005722046]},{"children":[32],"name":"Fox_F_RLegAnkle","rotation":[-0.03898454457521,-0.02494052238762,-0.08020336180925,0.9957035779953],"scale":[1,1,1],"translation":[0.0326986201107502,-0,-0.00000000238419]},{"name":"Fox_F_RLegDigit11","rotation":[-0.00030958923162,0.00053512182785198,0.528051614761353,0.849212050437927],"scale":[0.999997019767761,1.00000405311584,1.00000095367432],"translation":[0.0102812061086297,0.00093353743432089,0.000000293254856842395]},{"children":[34],"name":"Fox_LLeg1","rotation":[0.73501443862915,0.673291385173798,0.0381127968430519,-0.07056860625744],"scale":[0.999998986721039,1.00000095367432,1],"translation":[-0.00000000476837,-0.00000000476837,0.0192754827439785]},{"children":[35],"name":"Fox_LLeg2","rotation":[-0.074397996068,0.0390268787741661,-0.73315262794495,0.674854815006256],"scale":[1.00000095367432,1,1],"translation":[0.0358892679214478,-0.00000008583068,0.0000000619888282926695]},{"children":[36],"name":"Fox_LLegAnkle","rotation":[0.210896790027618,0.0664152055978775,0.55960214138031,0.798722088336945],"scale":[1.00000298023224,0.999997973442078,0.999998986721039],"translation":[0.0258319843560457,0.00000000238418573772492,0.00000000238418573772492]},{"name":"Fox_LLegDigit11","rotation":[0.0000990738190012053,0.00032281945459544,0.757962465286255,0.652298092842102],"scale":[1.00000703334808,0.999997973442078,1.00000298023224],"translation":[0.0325394831597805,0.00077512738062068,0.00000000432133662187084]},{"children":[38],"name":"Fox_RLeg1","rotation":[0.655098140239716,0.753883421421051,0.0477294623851776,-0.01510579232126],"scale":[0.999998986721039,1.00000095367432,1],"translation":[-0.00000000476837,-0.00000000953674,-0.01927548274398]},{"children":[39],"name":"Fox_RLeg2","rotation":[0.0873319357633591,-0.03210927918553,-0.60306948423386,0.792243242263794],"scale":[0.999994993209839,1.00000500679016,1.00000095367432],"translation":[0.0358892716467381,-0.00000008583068,-0.00000006198883]},{"children":[40],"name":"Fox_RLegAnkle","rotation":[0.0341223515570164,0.117722690105438,0.551649451255798,0.825021147727966],"scale":[0.999990999698639,1.0000079870224,1],"translation":[0.0258319843560457,0.00000000238418573772492,-0.00000000238419]},{"name":"Fox_RLegDigit11","rotation":[-0.00009379514813,-0.00032437447226,0.768568694591522,0.639767169952393],"scale":[0.999987006187439,1.00001299381256,1.00000095367432],"translation":[0.0325394831597805,0.00077512738062068,-0.00000000238419]}],"samplers":[{}],"scene":0,"scenes":[{"name":"Root Scene","nodes":[0,1]}],"skins":[{"inverseBindMatrices":43,"joints":[17,23,2,9,10,25,26,18,19,16,11,12,20,13,33,14,15,34,35,36,3,4,5,6,7,8,24,27,28,21,29,22,30,37,31,32,38,39,40],"skeleton":2},{"joints":[2,3,4,5,6,7,8,9,10,11,12,13,14,15,16,17,18,19,20,21,22,23,24,25,26,27,28,29,30,31,32,33,34,35,36,37,38,39,40]}],"textures":[{"name":"Map #2","sampler":0,"source":0},{"name":"Map #4","sampler":0,"source":1}]}