{"accessors":[{"bufferView":0,"byteOffset":0,"componentType":5126,"count":31,"max":[1],"min":[0],"type":"SCALAR"},{"bufferView":1,"byteOffset":0,"componentType":5126,"count":31,"type":"VEC3"},{"bufferView":2,"byteOffset":0,"componentType":5126,"count":31,"type":"VEC3"},{"bufferView":3,"byteOffset":0,"componentType":5126,"count":31,"type":"VEC4"},{"bufferView":4,"byteOffset":0,"componentType":5126,"count":31,"type":"VEC4"},{"bufferView":5,"byteOffset":0,"componentType":5126,"count":31,"type":"VEC4"},{"bufferView":6,"byteOffset":0,"componentType":5126,"count":31,"type":"VEC4"},{"bufferView":7,"byteOffset":0,"componentType":5126,"count":31,"type":"VEC4"},{"bufferView":8,"byteOffset":0,"componentType":5126,"count":31,"type":"VEC4"},{"bufferView":9,"byteOffset":0,"componentType":5126,"count":31,"type":"VEC4"},{"bufferView":10,"byteOffset":0,"componentType":5126,"count":31,"type":"VEC4"},{"bufferView":11,"byteOffset":0,"componentType":5126,"count":31,"type":"VEC4"},{"bufferView":12,"byteOffset":0,"componentType":5126,"count":31,"type":"VEC4"},{"bufferView":13,"byteOffset":0,"componentType":5126,"count":31,"type":"VEC4"},{"bufferView":14,"byteOffset":0,"componentType":5126,"count":31,"type":"VEC4"},{"bufferView":15,"byteOffset":0,"componentType":5126,"count":31,"type":"VEC4"},{"bufferView":16,"byteOffset":0,"componentType":5126,"count":31,"type":"VEC4"},{"bufferView":17,"byteOffset":0,"componentType":5126,"count":31,"type":"VEC4"},{"bufferView":18,"byteOffset":0,"componentType":5126,"count":31,"type":"VEC4"},{"bufferView":19,"byteOffset":0,"componentType":5126,"count":31,"type":"VEC4"},{"bufferView":20,"byteOffset":0,"componentType":5126,"count":31,"type":"VEC4"},{"bufferView":21,"byteOffset":0,"componentType":5126,"count":31,"type":"VEC4"},{"bufferView":22,"byteOffset":0,"componentType":5126,"count":31,"type":"VEC4"},{"bufferView":23,"byteOffset":0,"componentType":5126,"count":31,"type":"VEC4"},{"bufferView":24,"byteOffset":0,"componentType":5126,"count":31,"type":"VEC4"},{"bufferView":25,"byteOffset":0,"componentType":5126,"count":31,"type":"VEC4"},{"bufferView":26,"byteOffset":0,"componentType":5126,"count":31,"type":"VEC4"},{"bufferView":27,"byteOffset":0,"componentType":5126,"count":31,"type":"VEC4"},{"bufferView":28,"byteOffset":0,"componentType":5126,"count":31,"type":"VEC4"},{"bufferView":29,"byteOffset":0,"componentType":5126,"count":31,"type":"VEC4"},{"bufferView":30,"byteOffset":0,"componentType":5126,"count":31,"type":"VEC4"},{"bufferView":31,"byteOffset":0,"componentType":5126,"count":31,"type":"VEC4"},{"bufferView":32,"byteOffset":0,"componentType":5126,"count":31,"type":"VEC4"},{"bufferView":33,"byteOffset":0,"componentType":5126,"count":31,"type":"VEC4"},{"bufferView":34,"byteOffset":0,"componentType":5123,"count":10350,"type":"SCALAR"},{"bufferView":35,"byteOffset":0,"componentType":5126,"count":2266,"max":[0.0510667748749256,0.181155368685722,0.169082224369049],"min":[-0.05106677487493,-0.09766451269388,0.000000000745058015283462],"type":"VEC3"},{"bufferView":36,"byteOffset":0,"componentType":5126,"count":2266,"type":"VEC3"},{"bufferView":37,"byteOffset":0,"componentType":5126,"count":2266,"type":"VEC4"},{"bufferView":38,"byteOffset":0,"componentType":5126,"count":2266,"type":"VEC2"},{"bufferView":39,"byteOffset":0,"componentType":5123,"count":2266,"type":"VEC4"},{"bufferView":40,"byteOffset":0,"componentType":5126,"count":2266,"type":"VEC4"},{"bufferView":41,"byteOffset":0,"componentType":5126,"count":39,"type":"MAT4"}],"animations":[{"channels":[{"sampler":0,"target":{"node":1,"path":"translation"}},{"sampler":1,"target":{"node":2,"path":"translation"}},{"sampler":2,"target":{"node":3,"path":"rotation"}},{"sampler":3,"target":{"node":4,"path":"rotation"}},{"sampler":4,"target":{"node":5,"path":"rotation"}},{"sampler":5,"target":{"node":6,"path":"rotation"}},{"sampler":6,"target":{"node":7,"path":"rotation"}},{"sampler":7,"target":{"node":8,"path":"rotation"}},{"sampler":8,"target":{"node":9,"path":"rotation"}},{"sampler":9,"target":{"node":10,"path":"rotation"}},{"sampler":10,"target":{"node":11,"path":"rotation"}},{"sampler":11,"target":{"node":12,"path":"rotation"}},{"sampler":12,"target":{"node":13,"path":"rotation"}},{"sampler":13,"target":{"node":14,"path":"rotation"}},{"sampler":14,"target":{"node":15,"path":"rotation"}},{"sampler":15,"target":{"node":16,"path":"rotation"}},{"sampler":16,"target":{"node":17,"path":"rotation"}},{"sampler":17,"target":{"node":19,"path":"rotation"}},{"sampler":18,"target":{"node":20,"path":"rotation"}},{"sampler":19,"target":{"node":21,"path":"rotation"}},{"sampler":20,"target":{"node":22,"path":"rotation"}},{"sampler":21,"target":{"node":29,"path":"rotation"}},{"sampler":22,"target":{"node":30,"path":"rotation"}},{"sampler":23,"target":{"node":31,"path":"rotation"}},{"sampler":24,"target":{"node":32,"path":"rotation"}},{"sampler":25,"target":{"node":33,"path":"rotation"}},{"sampler":26,"target":{"node":34,"path":"rotation"}},{"sampler":27,"target":{"node":35,"path":"rotation"}},{"sampler":28,"target":{"node":36,"path":"rotation"}},{"sampler":29,"target":{"node":37,"path":"rotation"}},{"sampler":30,"target":{"node":38,"path":"rotation"}},{"sampler":31,"target":{"node":39,"path":"rotation"}},{"sampler":32,"target":{"node":40,"path":"rotation"}}],"name":"Take 001","samplers":[{"input":0,"interpolation":"LINEAR","output":1},{"input":0,"interpolation":"LINEAR","output":2},{"input":0,"interpolation":"LINEAR","output":3},{"input":0,"interpolation":"LINEAR","output":4},{"input":0,"interpolation":"LINEAR","output":5},{"input":0,"interpolation":"LINEAR","output":6},{"input":0,"interpolation":"LINEAR","output":7},{"input":0,"interpolation":"LINEAR","output":8},{"input":0,"interpolation":"LINEAR","output":9},{"input":0,"interpolation":"LINEAR","output":10},{"input":0,"interpolation":"LINEAR","output":11},{"input":0,"interpolation":"LINEAR","output":12},{"input":0,"interpolation":"LINEAR","output":13},{"input":0,"interpolation":"LINEAR","output":14},{"input":0,"interpolation":"LINEAR","output":15},{"input":0,"interpolation":"LINEAR","output":16},{"input":0,"interpolation":"LINEAR","output":17},{"input":0,"interpolation":"LINEAR","output":18},{"input":0,"interpolation":"LINEAR","output":19},{"input":0,"interpolation":"LINEAR","output":20},{"input":0,"interpolation":"LINEAR","output":21},{"input":0,"interpolation":"LINEAR","output":22},{"input":0,"interpolation":"LINEAR","output":23},{"input":0,"interpolation":"LINEAR","output":24},{"input":0,"interpolation":"LINEAR","output":25},{"input":0,"interpolation":"LINEAR","output":26},{"input":0,"interpolation":"LINEAR","output":27},{"input":0,"interpolation":"LINEAR","output":28},{"input":0,"interpolation":"LINEAR","output":29},{"input":0,"interpolation":"LINEAR","output":30},{"input":0,"interpolation":"LINEAR","output":31},{"input":0,"interpolation":"LINEAR","output":32},{"input":0,"interpolation":"LINEAR","output":33}]}],"asset":{"generator":"FBX2glTF v0.13.1","version":"2.0"},"bufferViews":[{"buffer":0,"byteLength":124,"byteOffset":0},{"buffer":0,"byteLength":372,"byteOffset":124},{"buffer":0,"byteLength":372,"byteOffset":496},{"buffer":0,"byteLength":496,"byteOffset":868},{"buffer":0,"byteLength":496,"byteOffset":1364},{"buffer":0,"byteLength":496,"byteOffset":1860},{"buffer":0,"byteLength":496,"byteOffset":2356},{"buffer":0,"byteLength":496,"byteOffset":2852},{"buffer":0,"byteLength":496,"byteOffset":3348},{"buffer":0,"byteLength":496,"byteOffset":3844},{"buffer":0,"byteLength":496,"byteOffset":4340},{"buffer":0,"byteLength":496,"byteOffset":4836},{"buffer":0,"byteLength":496,"byteOffset":5332},{"buffer":0,"byteLength":496,"byteOffset":5828},{"buffer":0,"byteLength":496,"byteOffset":6324},{"buffer":0,"byteLength":496,"byteOffset":6820},{"buffer":0,"byteLength":496,"byteOffset":7316},{"buffer":0,"byteLength":496,"byteOffset":7812},{"buffer":0,"byteLength":496,"byteOffset":8308},{"buffer":0,"byteLength":496,"byteOffset":8804},{"buffer":0,"byteLength":496,"byteOffset":9300},{"buffer":0,"byteLength":496,"byteOffset":9796},{"buffer":0,"byteLength":496,"byteOffset":10292},{"buffer":0,"byteLength":496,"byteOffset":10788},{"buffer":0,"byteLength":496,"byteOffset":11284},{"buffer":0,"byteLength":496,"byteOffset":11780},{"buffer":0,"byteLength":496,"byteOffset":12276},{"buffer":0,"byteLength":496,"byteOffset":12772},{"buffer":0,"byteLength":496,"byteOffset":13268},{"buffer":0,"byteLength":496,"byteOffset":13764},{"buffer":0,"byteLength":496,"byteOffset":14260},{"buffer":0,"byteLength":496,"byteOffset":14756},{"buffer":0,"byteLength":496,"byteOffset":15252},{"buffer":0,"byteLength":496,"byteOffset":15748},{"buffer":0,"byteLength":20700,"byteOffset":16244,"target":34963},{"buffer":0,"byteLength":27192,"byteOffset":36944,"target":34962},{"buffer":0,"byteLength":27192,"byteOffset":64136,"target":34962},{"buffer":0,"byteLength":36256,"byteOffset":91328,"target":34962},{"buffer":0,"byteLength":18128,"byteOffset":127584,"target":34962},{"buffer":0,"byteLength":18128,"byteOffset":145712,"target":34962},{"buffer":0,"byteLength":36256,"byteOffset":163840,"target":34962},{"buffer":0,"byteLength":2496,"byteOffset":200096}],"buffers":[{"byteLength":202592,"uri":"Fox_Walk.bin"}],"images":[{"name":"toonfoxNM","uri":"toonfoxNM.png"},{"name":"1","uri":"1.psd"}],"materials":[{"alphaMode":"OPAQUE","doubleSided":false,"extras":{"fromFBX":{"isTruePBR":false,"shadingModel":"Phong"}},"name":"08 - Default","normalTexture":{"index":0,"texCoord":0},"pbrMetallicRoughness":{"baseColorFactor":[1,1,1,1],"baseColorTexture":{"index":1,"texCoord":0},"metallicFactor":0.400000005960464,"roughnessFactor":0.422773718833923}}],"meshes":[{"name":"fox","primitives":[{"attributes":{"JOINTS_0":39,"NORMAL":36,"POSITION":35,"TANGENT":37,"TEXCOORD_0":38,"WEIGHTS_0":40},"indices":34,"material":0,"mode":4}]}],"nodes":[{"mesh":0,"name":"fox","rotation":[-0.70710676908493,-0,0,0.70710676908493],"scale":[1,1,1],"skin":0,"translation":[0,0,0]},{"children":[2],"name":"FoxTransform","rotation":[-0.70710676908493,-0.00000033717478,-0.00000033717478,0.70710676908493],"scale":[1,1,1],"translation":[0,0,0]},{"children":[3,9,33,37],"name":"Fox_Pelvis","rotation":[-0.50000023841858,0.499999672174454,-0.49999982118607,0.500000238418579],"scale":[1,1,1],"translation":[-0.00000003469648,0.0347874164581299,0.0704614147543907]},{"children":[4],"name":"Fox_Tail1","rotation":[-0.0095643652603,0.00164103461429477,0.985553681850433,0.16908498108387],"scale":[1,1,1],"translation":[-0.01636433973908,-0.00745287863538,0.000000000533993904650032]},{"children":[5],"name":"Fox_Tail2","rotation":[0.00992786511778831,0.0632206201553345,-0.11915215104818,0.990811467170715],"scale":[1,1,1],"translation":[0.0267343148589134,0,0.000000000111758706455856]},{"children":[6],"name":"Fox_Tail3","rotation":[0.0286926925182343,0.11581201851368,-0.10630157589912,0.987149596214294],"scale":[1,1,1],"translation":[0.0208616983145475,0,0.00000000059604643443123]},{"children":[7],"name":"Fox_Tail4","rotation":[-0.0184749532491,0.0468943603336811,0.0405638925731182,0.997904896736145],"scale":[1,1,1],"translation":[0.0220821443945169,-0.00000000953674,-0.00000000238419]},{"children":[8],"name":"Fox_Tail5","rotation":[-0.05385069921613,-0.04811067134142,0.118734121322632,0.99029678106308],"scale":[1,1.00000095367432,1],"translation":[0.0203105118125677,-0.00000000953674,-0.00000000476837]},{"name":"Fox_Tail6","rotation":[-0.02602550014853,-0.11554552614689,0.097498744726181,0.988162875175476],"scale":[1,1.00000095367432,1],"translation":[0.0182019509375095,0,-0.00000000119209]},{"children":[10],"name":"Fox_Spine1","rotation":[-0.00062320515281,-0.0148536330089,0.0292823128402233,0.999460637569427],"scale":[1,1,1],"translation":[0,0,0]},{"children":[11],"name":"Fox_Spine2","rotation":[-0.00261511118151,0.0298900511115789,-0.05989430472255,0.99775367975235],"scale":[1,1,1],"translation":[0.0335060358047485,-0,0.00000000000000000013877787497622]},{"children":[12,16,29],"name":"Fox_Ribcage","rotation":[-0.00062701437855,0.0287228412926197,-0.05638141557574,0.997995853424072],"scale":[1,1,1],"translation":[0.0335060320794582,0,-0]},{"children":[13],"name":"Fox_F_LLeg1","rotation":[0.619096219539642,0.782280027866364,0.031556025147438,0.0613351762294769],"scale":[1,1,1],"translation":[0.00239977356977761,0.00042313575977459,0.0251081679016352]},{"children":[14],"name":"Fox_F_LLeg2","rotation":[0.0738496854901314,-0.03296227008104,0.347632974386215,0.934136509895325],"scale":[1.00000202655792,0.999997973442078,1],"translation":[0.034010261297226,0.000000424385063979571,0.0000000572204577053981]},{"children":[15],"name":"Fox_F_LLegAnkle","rotation":[-0.02586485631764,0.0637713372707367,0.00298804184421897,0.997624814510345],"scale":[1,1,1],"translation":[0.0326986275613308,-0.00000000476837,0.00000000238418573772492]},{"name":"Fox_F_LLegDigit11","rotation":[0.0000226262527576182,0.0000383634360332508,0.509411215782166,0.860523223876953],"scale":[1.00000596046448,0.999993979930878,1],"translation":[0.0102812051773071,0.00093354698037728,-0.00000029325486]},{"children":[17],"name":"Fox_Spine","rotation":[-0.00076234398875,-0.00770203163847,-0.40264540910721,0.915323317050934],"scale":[1,1,1],"translation":[0,0,0]},{"children":[18,19,21,23,24,25,26,27,28],"name":"Fox_Head","rotation":[0.0295733120292425,-0.02380105666816,0.237211897969246,0.970715939998627],"scale":[1,1,1],"translation":[0.0369065515697002,-0.00000000715256,-0.00000000029802]},{"name":"Fox_Jaw","rotation":[-0.00000000150924,-0.00000002593067,0.342020094394684,0.939692616462708],"scale":[1,1,1],"translation":[0.0127218719571829,0.0189216323196888,-0.00000000163913]},{"children":[20],"name":"Fox_LEar1","rotation":[0.212725177407265,-0.31252121925354,-0.35830077528954,0.853638708591461],"scale":[1.00000095367432,0.999998986721039,1],"translation":[0.0109870145097375,-0.03008017502725,0.0253106262534857]},{"name":"Fox_LEar2","rotation":[0.0453569404780865,0.0513774789869785,0.215412303805351,0.974115312099457],"scale":[0.999997019767761,1.00000298023224,1],"translation":[0.0164626874029636,0.00000000476837147544984,-0.00000000476837]},{"children":[22],"name":"Fox_REar1","rotation":[-0.24559418857098,0.287411212921143,-0.44941431283951,0.809385597705841],"scale":[1.00000095367432,0.999998986721039,1],"translation":[0.0109870051965117,-0.0300801936537,-0.02531062066555]},{"name":"Fox_REar2","rotation":[-0.0192934833467,-0.06576230376959,-0.00129628938157,0.997647941112518],"scale":[1.00000202655792,0.999997973442078,1],"translation":[0.0164626874029636,0.00000000238418573772492,0.00000000476837147544984]},{"name":"Fox_LEye","rotation":[0.690345466136932,0.153045877814293,0.212631106376648,0.674379825592041],"scale":[1,1,1],"translation":[0.0160656161606312,-0.0020738649182,0.0185948740690947]},{"name":"Fox_REye","rotation":[-0.69034540653229,-0.15304592251778,0.212631061673164,0.674379825592041],"scale":[1,1,1],"translation":[0.0160655975341797,-0.00207386957482,-0.01859487406909]},{"name":"Fox_UpperLEyelid","rotation":[0.733772754669189,-0.03472802042961,0.0320371985435486,0.677750051021576],"scale":[1,1,1],"translation":[0.0160656161606312,-0.00207386957482,0.0185948740690947]},{"name":"Fox_LowerLEyelid","rotation":[0.61944717168808,0.308799594640732,0.394631505012512,0.604312837123871],"scale":[1,1,1],"translation":[0.0160656161606312,-0.00207386957482,0.0185948740690947]},{"name":"Fox_UpperREyelid","rotation":[-0.73377275466919,0.0347280539572239,0.0320372320711613,0.677750051021576],"scale":[1,1,1],"translation":[0.0160655975341797,-0.00207386957482,-0.01859487406909]},{"name":"Fox_LowerREyelid","rotation":[-0.61944723129273,-0.30879965424538,0.394631385803223,0.604312837123871],"scale":[1,1,1],"translation":[0.0160655975341797,-0.00207386957482,-0.01859487406909]},{"children":[30],"name":"Fox_F_RLeg1","rotation":[0.339098751544952,0.940006375312805,0.0349436029791832,0.0133793139830232],"scale":[1,1,1],"translation":[0.00239977356977761,0.0004231309867464,-0.0251081623137]},{"children":[31],"name":"Fox_F_RLeg2","rotation":[-0.0761674195528,0.0241261348128319,0.254843413829803,0.963675916194916],"scale":[1,1,1],"translation":[0.034010261297226,0.000000414848329910456,-0.00000005483627]},{"children":[32],"name":"Fox_F_RLegAnkle","rotation":[0.0439780093729496,-0.07774688303471,0.179183959960938,0.979752242565155],"scale":[1,1,1],"translation":[0.0326986275613308,-0.00000000014901,0.00000000000000000444089199923895]},{"name":"Fox_F_RLegDigit11","rotation":[-0.00012121478358,-0.00015461204748,0.609835803508759,0.792527794837952],"scale":[1,1.00000095367432,1],"translation":[0.0102812061086297,0.00093354162527248,0.000000293254856842395]},{"children":[34],"name":"Fox_LLeg1","rotation":[0.624122858047485,0.78117573261261,-0.0117434039712,0.00986287277191877],"scale":[0.999998986721039,1.00000095367432,1],"translation":[0,0.00000000000000000888178399847791,0.0192754864692688]},{"children":[35],"name":"Fox_LLeg2","rotation":[-0.08623701334,0.0327961407601833,-0.61610221862793,0.782244026660919],"scale":[1,1.00000095367432,1],"translation":[0.0358892679214478,-0.00000009059906,0.0000000703334777085729]},{"children":[36],"name":"Fox_LLegAnkle","rotation":[0.0738299340009689,-0.02626725099981,0.651012718677521,0.755011022090912],"scale":[1.00000202655792,0.999998986721039,1],"translation":[0.0258319843560457,0.00000000000000000444089199923895,0.00000000000000000444089199923895]},{"name":"Fox_LLegDigit11","rotation":[0.0000875088735483587,0.00031778769334778,0.682280302047729,0.731090605258942],"scale":[1.00000202655792,0.999998986721039,1],"translation":[0.0325394831597805,0.00077513215364888,0.00000000119209286886246]},{"children":[38],"name":"Fox_RLeg1","rotation":[0.92428594827652,0.38143128156662,0.00535760214552283,-0.0133038116619],"scale":[0.999998986721039,1.00000095367432,1],"translation":[0,0,-0.01927548274398]},{"children":[39],"name":"Fox_RLeg2","rotation":[0.0680409148335457,-0.0416660644114,-0.78275221586227,0.617197930812836],"scale":[0.999994993209839,1.00000500679016,1.00000095367432],"translation":[0.0358892679214478,-0.0000000834465,-0.0000000667572]},{"children":[40],"name":"Fox_RLegAnkle","rotation":[-0.07073211669922,0.014602399431169,0.652720034122467,0.754148721694946],"scale":[0.9999920129776,1.0000079870224,1],"translation":[0.0258319843560457,0,0.00000000238418573772492]},{"name":"Fox_RLegDigit11","rotation":[-0.00018307149003,-0.0002837756474,0.552361965179443,0.833604276180267],"scale":[0.999989986419678,1.00001096725464,1.00000095367432],"translation":[0.0325394906103611,0.00077512499410659,-0.00000000119209]}],"samplers":[{}],"scene":0,"scenes":[{"name":"Root Scene","nodes":[0,1]}],"skins":[{"inverseBindMatrices":41,"joints":[17,23,2,9,10,25,26,18,19,16,11,12,20,13,33,14,15,34,35,36,3,4,5,6,7,8,24,27,28,21,29,22,30,37,31,32,38,39,40],"skeleton":2},{"joints":[2,3,4,5,6,7,8,9,10,11,12,13,14,15,16,17,18,19,20,21,22,23,24,25,26,27,28,29,30,31,32,33,34,35,36,37,38,39,40]}],"textures":[{"name":"Map #2","sampler":0,"source":0},{"name":"Map #4","sampler":0,"source":1}]}