{"accessors":[{"bufferView":0,"byteOffset":0,"componentType":5126,"count":61,"max":[2],"min":[0],"type":"SCALAR"},{"bufferView":1,"byteOffset":0,"componentType":5126,"count":61,"type":"VEC4"},{"bufferView":2,"byteOffset":0,"componentType":5126,"count":61,"type":"VEC4"},{"bufferView":3,"byteOffset":0,"componentType":5126,"count":61,"type":"VEC4"},{"bufferView":4,"byteOffset":0,"componentType":5126,"count":61,"type":"VEC4"},{"bufferView":5,"byteOffset":0,"componentType":5126,"count":61,"type":"VEC4"},{"bufferView":6,"byteOffset":0,"componentType":5126,"count":61,"type":"VEC4"},{"bufferView":7,"byteOffset":0,"componentType":5126,"count":61,"type":"VEC4"},{"bufferView":8,"byteOffset":0,"componentType":5126,"count":61,"type":"VEC4"},{"bufferView":9,"byteOffset":0,"componentType":5126,"count":61,"type":"VEC4"},{"bufferView":10,"byteOffset":0,"componentType":5126,"count":61,"type":"VEC4"},{"bufferView":11,"byteOffset":0,"componentType":5126,"count":61,"type":"VEC4"},{"bufferView":12,"byteOffset":0,"componentType":5126,"count":61,"type":"VEC4"},{"bufferView":13,"byteOffset":0,"componentType":5126,"count":61,"type":"VEC4"},{"bufferView":14,"byteOffset":0,"componentType":5126,"count":61,"type":"VEC4"},{"bufferView":15,"byteOffset":0,"componentType":5126,"count":61,"type":"VEC4"},{"bufferView":16,"byteOffset":0,"componentType":5126,"count":61,"type":"VEC4"},{"bufferView":17,"byteOffset":0,"componentType":5126,"count":61,"type":"VEC4"},{"bufferView":18,"byteOffset":0,"componentType":5126,"count":61,"type":"VEC4"},{"bufferView":19,"byteOffset":0,"componentType":5126,"count":61,"type":"VEC4"},{"bufferView":20,"byteOffset":0,"componentType":5126,"count":61,"type":"VEC4"},{"bufferView":21,"byteOffset":0,"componentType":5126,"count":61,"type":"VEC4"},{"bufferView":22,"byteOffset":0,"componentType":5126,"count":61,"type":"VEC4"},{"bufferView":23,"byteOffset":0,"componentType":5126,"count":61,"type":"VEC4"},{"bufferView":24,"byteOffset":0,"componentType":5123,"count":10350,"type":"SCALAR"},{"bufferView":25,"byteOffset":0,"componentType":5126,"count":2266,"max":[0.0510667748749256,0.180800184607506,0.169082224369049],"min":[-0.05106677487493,-0.09766451269388,0.000000000745058015283462],"type":"VEC3"},{"bufferView":26,"byteOffset":0,"componentType":5126,"count":2266,"type":"VEC3"},{"bufferView":27,"byteOffset":0,"componentType":5126,"count":2266,"type":"VEC4"},{"bufferView":28,"byteOffset":0,"componentType":5126,"count":2266,"type":"VEC2"},{"bufferView":29,"byteOffset":0,"componentType":5123,"count":2266,"type":"VEC4"},{"bufferView":30,"byteOffset":0,"componentType":5126,"count":2266,"type":"VEC4"},{"bufferView":31,"byteOffset":0,"componentType":5126,"count":39,"type":"MAT4"}],"animations":[{"channels":[{"sampler":0,"target":{"node":3,"path":"rotation"}},{"sampler":1,"target":{"node":4,"path":"rotation"}},{"sampler":2,"target":{"node":5,"path":"rotation"}},{"sampler":3,"target":{"node":6,"path":"rotation"}},{"sampler":4,"target":{"node":7,"path":"rotation"}},{"sampler":5,"target":{"node":8,"path":"rotation"}},{"sampler":6,"target":{"node":9,"path":"rotation"}},{"sampler":7,"target":{"node":10,"path":"rotation"}},{"sampler":8,"target":{"node":11,"path":"rotation"}},{"sampler":9,"target":{"node":12,"path":"rotation"}},{"sampler":10,"target":{"node":13,"path":"rotation"}},{"sampler":11,"target":{"node":14,"path":"rotation"}},{"sampler":12,"target":{"node":15,"path":"rotation"}},{"sampler":13,"target":{"node":16,"path":"rotation"}},{"sampler":14,"target":{"node":17,"path":"rotation"}},{"sampler":15,"target":{"node":19,"path":"rotation"}},{"sampler":16,"target":{"node":20,"path":"rotation"}},{"sampler":17,"target":{"node":21,"path":"rotation"}},{"sampler":18,"target":{"node":22,"path":"rotation"}},{"sampler":19,"target":{"node":29,"path":"rotation"}},{"sampler":20,"target":{"node":30,"path":"rotation"}},{"sampler":21,"target":{"node":31,"path":"rotation"}},{"sampler":22,"target":{"node":32,"path":"rotation"}}],"name":"Take 001","samplers":[{"input":0,"interpolation":"LINEAR","output":1},{"input":0,"interpolation":"LINEAR","output":2},{"input":0,"interpolation":"LINEAR","output":3},{"input":0,"interpolation":"LINEAR","output":4},{"input":0,"interpolation":"LINEAR","output":5},{"input":0,"interpolation":"LINEAR","output":6},{"input":0,"interpolation":"LINEAR","output":7},{"input":0,"interpolation":"LINEAR","output":8},{"input":0,"interpolation":"LINEAR","output":9},{"input":0,"interpolation":"LINEAR","output":10},{"input":0,"interpolation":"LINEAR","output":11},{"input":0,"interpolation":"LINEAR","output":12},{"input":0,"interpolation":"LINEAR","output":13},{"input":0,"interpolation":"LINEAR","output":14},{"input":0,"interpolation":"LINEAR","output":15},{"input":0,"interpolation":"LINEAR","output":16},{"input":0,"interpolation":"LINEAR","output":17},{"input":0,"interpolation":"LINEAR","output":18},{"input":0,"interpolation":"LINEAR","output":19},{"input":0,"interpolation":"LINEAR","output":20},{"input":0,"interpolation":"LINEAR","output":21},{"input":0,"interpolation":"LINEAR","output":22},{"input":0,"interpolation":"LINEAR","output":23}]}],"asset":{"generator":"FBX2glTF v0.13.1","version":"2.0"},"bufferViews":[{"buffer":0,"byteLength":244,"byteOffset":0},{"buffer":0,"byteLength":976,"byteOffset":244},{"buffer":0,"byteLength":976,"byteOffset":1220},{"buffer":0,"byteLength":976,"byteOffset":2196},{"buffer":0,"byteLength":976,"byteOffset":3172},{"buffer":0,"byteLength":976,"byteOffset":4148},{"buffer":0,"byteLength":976,"byteOffset":5124},{"buffer":0,"byteLength":976,"byteOffset":6100},{"buffer":0,"byteLength":976,"byteOffset":7076},{"buffer":0,"byteLength":976,"byteOffset":8052},{"buffer":0,"byteLength":976,"byteOffset":9028},{"buffer":0,"byteLength":976,"byteOffset":10004},{"buffer":0,"byteLength":976,"byteOffset":10980},{"buffer":0,"byteLength":976,"byteOffset":11956},{"buffer":0,"byteLength":976,"byteOffset":12932},{"buffer":0,"byteLength":976,"byteOffset":13908},{"buffer":0,"byteLength":976,"byteOffset":14884},{"buffer":0,"byteLength":976,"byteOffset":15860},{"buffer":0,"byteLength":976,"byteOffset":16836},{"buffer":0,"byteLength":976,"byteOffset":17812},{"buffer":0,"byteLength":976,"byteOffset":18788},{"buffer":0,"byteLength":976,"byteOffset":19764},{"buffer":0,"byteLength":976,"byteOffset":20740},{"buffer":0,"byteLength":976,"byteOffset":21716},{"buffer":0,"byteLength":20700,"byteOffset":22692,"target":34963},{"buffer":0,"byteLength":27192,"byteOffset":43392,"target":34962},{"buffer":0,"byteLength":27192,"byteOffset":70584,"target":34962},{"buffer":0,"byteLength":36256,"byteOffset":97776,"target":34962},{"buffer":0,"byteLength":18128,"byteOffset":134032,"target":34962},{"buffer":0,"byteLength":18128,"byteOffset":152160,"target":34962},{"buffer":0,"byteLength":36256,"byteOffset":170288,"target":34962},{"buffer":0,"byteLength":2496,"byteOffset":206544}],"buffers":[{"byteLength":209040,"uri":"Fox_Sit2_Idle.bin"}],"images":[{"name":"toonfoxNM","uri":"toonfoxNM.png"},{"name":"1","uri":"1.psd"}],"materials":[{"alphaMode":"OPAQUE","doubleSided":false,"extras":{"fromFBX":{"isTruePBR":false,"shadingModel":"Phong"}},"name":"08 - Default","normalTexture":{"index":0,"texCoord":0},"pbrMetallicRoughness":{"baseColorFactor":[1,1,1,1],"baseColorTexture":{"index":1,"texCoord":0},"metallicFactor":0.400000005960464,"roughnessFactor":0.422773718833923}}],"meshes":[{"name":"fox","primitives":[{"attributes":{"JOINTS_0":29,"NORMAL":26,"POSITION":25,"TANGENT":27,"TEXCOORD_0":28,"WEIGHTS_0":30},"indices":24,"material":0,"mode":4}]}],"nodes":[{"mesh":0,"name":"fox","rotation":[-0.70710676908493,-0,0,0.70710676908493],"scale":[1,1,1],"skin":0,"translation":[0,0,0]},{"children":[2],"name":"FoxTransform","rotation":[-0.70710676908493,-0,0,0.70710676908493],"scale":[1,1,1],"translation":[0,0,0]},{"children":[3,9,33,37],"name":"Fox_Pelvis","rotation":[0.627211272716522,-0.32650557160378,0.627211451530457,-0.32650566101074],"scale":[1,0.999998986721039,1],"translation":[-0.00000000152061,0.0347876027226448,0.0326020978391171]},{"children":[4],"name":"Fox_Tail1","rotation":[0.13657158613205,-0.09337373822927,0.975449740886688,-0.14535254240036],"scale":[1,1,1.00000095367432],"translation":[-0.01636432856321,-0.00745288841426,-0.000000002426]},{"children":[5],"name":"Fox_Tail2","rotation":[0.00215212674811482,-0.27283149957657,0.00758876465260983,0.96202951669693],"scale":[1,1.00000095367432,1.00000095367432],"translation":[0.0267343185842037,0.00000000000000000888178399847791,-0]},{"children":[6],"name":"Fox_Tail3","rotation":[-0.00280869402923,-0.27202573418617,0.0172353386878967,0.962131500244141],"scale":[0.999998986721039,1,1],"translation":[0.0208616927266121,0.00000000000000000888178399847791,0.00000000238418573772492]},{"children":[7],"name":"Fox_Tail4","rotation":[-0.01987282186747,-0.27026125788689,-0.01244203932583,0.962501466274261],"scale":[1,1.00000095367432,1],"translation":[0.0220821518450975,-0,-0.00000000476837]},{"children":[8],"name":"Fox_Tail5","rotation":[-0.04796502366662,-0.26416516304016,-0.01102209556848,0.963220953941345],"scale":[1.00000095367432,1,1],"translation":[0.0203105062246323,0,0.0000000000000000177635679969558]},{"name":"Fox_Tail6","rotation":[-0.07708843797445,-0.25620567798615,-0.02899825386703,0.963106989860535],"scale":[1.00000095367432,1,1],"translation":[0.0182019434869289,0,0.00000000953674295089968]},{"children":[10],"name":"Fox_Spine1","rotation":[0.000000172177692547848,0.00000240906751969305,0.0271433014422655,0.999631524085999],"scale":[1,1,1],"translation":[0,0,0]},{"children":[11],"name":"Fox_Spine2","rotation":[0.0000000440398508771978,-0.00000001429101,-0.05994142591953,0.998201906681061],"scale":[1,1,1],"translation":[0.0335060358047485,0.00000000000000000888178399847791,0.00000000000000000000002541098785]},{"children":[12,16,29],"name":"Fox_Ribcage","rotation":[0.000000200452106469129,-0.0000022902243,-0.05440900474787,0.998518705368042],"scale":[1,1,1],"translation":[0.0335060358047485,0.00000000000000000888178399847791,-0.00000000000004]},{"children":[13],"name":"Fox_F_LLeg1","rotation":[0.288179308176041,0.957547068595886,0.00736264605075121,-0.00146032474004],"scale":[1,0.999998986721039,1],"translation":[0.0023997591342777,0.00042314050369896,0.0251081772148609]},{"children":[14],"name":"Fox_F_LLeg2","rotation":[0.0741639956831932,-0.03204213455319,0.336532443761826,0.938199818134308],"scale":[1.00000095367432,1,1.00000095367432],"translation":[0.0340102724730968,0.000000420212728613478,0.0000000619888282926695]},{"children":[15],"name":"Fox_F_LLegAnkle","rotation":[-0.05581580474973,0.0488991662859917,0.00647303694859147,0.997221946716309],"scale":[1,1.00000095367432,1],"translation":[0.0326986238360405,0.00000000238418573772492,0.00000000238418573772492]},{"name":"Fox_F_LLegDigit11","rotation":[-0.00013246286835,-0.00022303943115,0.509931623935699,0.86021488904953],"scale":[1,1,1],"translation":[0.0102812070399523,0.00093353982083499,-0.00000029325486]},{"children":[17],"name":"Fox_Spine","rotation":[0.00000000446435954870594,-0.00000006186882,-0.2381367534399,0.971231639385223],"scale":[1,1,1],"translation":[0,0,0]},{"children":[18,19,21,23,24,25,26,27,28],"name":"Fox_Head","rotation":[0.00000000134853783695377,0.0000000467924792246777,0.403171539306641,0.915124416351318],"scale":[1.00000095367432,0.999998986721039,1],"translation":[0.0369065627455711,-0.00000000238419,-0.00000000000002]},{"name":"Fox_Jaw","rotation":[0.0000000315165316067123,0.00000000500229990763046,0.342020064592361,0.939692616462708],"scale":[1,0.999998986721039,1],"translation":[0.0127218337729573,0.0189217701554298,0.00000000540852829189475]},{"children":[20],"name":"Fox_LEar1","rotation":[0.231121495366096,-0.29917278885841,-0.32567104697228,0.866612315177917],"scale":[1.00000202655792,1,0.999998986721039],"translation":[0.0109870051965117,-0.0300801564008,0.0253106020390987]},{"name":"Fox_LEar2","rotation":[0.000000000208964928694044,0.0000000372522173108791,-0.00560937682167,0.999984264373779],"scale":[1.00000298023224,0.999997973442078,1],"translation":[0.0164626780897379,-0.00000000476837,0]},{"children":[22],"name":"Fox_REar1","rotation":[-0.2563169002533,0.277890682220459,-0.39996153116226,0.834930658340454],"scale":[1.00000202655792,1,0.999997973442078],"translation":[0.010987033136189,-0.03008020296693,-0.02531060390174]},{"name":"Fox_REar2","rotation":[0.0000000516607947531611,0.0000000966202549079753,0.124963000416756,0.992161393165588],"scale":[0.999997019767761,1.00000202655792,1],"translation":[0.0164626780897379,-0.00000000238419,0.00000000119209286886246]},{"name":"Fox_LEye","rotation":[0.690345525741577,0.153045952320099,0.212631195783615,0.674379646778107],"scale":[1,1,1],"translation":[0.0160656441003084,-0.00207384093665,0.0185949504375458]},{"name":"Fox_REye","rotation":[-0.69034552574158,-0.15304607152939,0.212631121277809,0.674379646778107],"scale":[1,1,1],"translation":[0.0160656739026308,-0.0020738504827,-0.01859496161342]},{"name":"Fox_UpperLEyelid","rotation":[0.733772873878479,-0.03472809493542,0.0320372022688389,0.677749872207642],"scale":[1,1,1],"translation":[0.0160656347870827,-0.00207386957482,0.0185950510203838]},{"name":"Fox_LowerLEyelid","rotation":[0.636071145534515,0.28214618563652,0.36723604798317,0.617207169532776],"scale":[1.00000095367432,1,0.999998986721039],"translation":[0.0160656347870827,-0.00207386957482,0.0185950510203838]},{"name":"Fox_UpperREyelid","rotation":[-0.73377275466919,0.0347281582653522,0.0320372954010963,0.677750051021576],"scale":[1,1,1],"translation":[0.0160656645894051,-0.00207389821298,-0.01859506033361]},{"name":"Fox_LowerREyelid","rotation":[-0.63607090711594,-0.28214609622955,0.367236077785492,0.617207407951355],"scale":[1.00000095367432,1,0.999998986721039],"translation":[0.0160656645894051,-0.00207389821298,-0.01859506033361]},{"children":[30],"name":"Fox_F_RLeg1","rotation":[0.288179308176041,0.957546949386597,-0.00738205760717,0.00141870544757694],"scale":[1.00000095367432,1.00000095367432,1],"translation":[0.00239978777244687,0.0004231309867464,-0.02510815300047]},{"children":[31],"name":"Fox_F_RLeg2","rotation":[-0.07416218519211,0.031913872808218,0.336540728807449,0.938201367855072],"scale":[1.00000095367432,0.999998986721039,1],"translation":[0.0340102724730968,0.000000417232513427734,-0.00000005483627]},{"children":[32],"name":"Fox_F_RLegAnkle","rotation":[0.0558205433189869,-0.04841880127788,0.00628551654517651,0.997246325016022],"scale":[1,1,1],"translation":[0.0326986275613308,0,-0]},{"name":"Fox_F_RLegDigit11","rotation":[-0.00004948930655,-0.00008337339386,0.51010262966156,0.860113561153412],"scale":[1.00000202655792,0.999997973442078,1],"translation":[0.01028120983392,0.00093354220734909,0.000000290870673325117]},{"children":[34],"name":"Fox_LLeg1","rotation":[0.809275686740875,0.561885058879852,0.0319428294897079,-0.16833797097206],"scale":[1.00000095367432,0.999998986721039,1.00000095367432],"translation":[0,0,0.0192754901945591]},{"children":[35],"name":"Fox_LLeg2","rotation":[0.0281502399593592,-0.05148329213262,0.965064287185669,-0.25535839796066],"scale":[1,0.999998986721039,1],"translation":[0.0358892753720284,-0.0000000911951,0.0000000619888282926695]},{"children":[36],"name":"Fox_LLegAnkle","rotation":[0.100916996598244,-0.2055626064539,0.956489324569702,0.180798187851906],"scale":[1,0.999998986721039,1],"translation":[0.0258319824934006,0.00000000119209286886246,-0]},{"name":"Fox_LLegDigit11","rotation":[0.0000661569793010131,0.00028318798285909,0.228003397583961,0.973660290241241],"scale":[1,1,1],"translation":[0.0325394757091999,0.00077512807911261,0.00000000238418573772492]},{"children":[38],"name":"Fox_RLeg1","rotation":[0.807975649833679,0.559579193592072,-0.03445933759212,0.181270614266396],"scale":[1.00000095367432,0.999998986721039,1],"translation":[-0.00000000119209,0,-0.01927549391985]},{"children":[39],"name":"Fox_RLeg2","rotation":[-0.02844193018973,0.0516463369131088,0.964163839817047,-0.25867319107056],"scale":[1,1,1],"translation":[0.0358892679214478,-0.0000000834465,-0.00000007390976]},{"children":[40],"name":"Fox_RLegAnkle","rotation":[-0.10700587183237,0.217689007520676,0.952425241470337,0.184519365429878],"scale":[1,1,1.00000095367432],"translation":[0.0258319843560457,-0,0]},{"name":"Fox_RLegDigit11","rotation":[-0.0001719234715,-0.00073398277164,0.227982237935066,0.973664999008179],"scale":[1,1,1],"translation":[0.0325394794344902,0.00077513052383437,-0.00000000238419]}],"samplers":[{}],"scene":0,"scenes":[{"name":"Root Scene","nodes":[0,1]}],"skins":[{"inverseBindMatrices":31,"joints":[17,23,2,9,10,25,26,18,19,16,11,12,20,13,33,14,15,34,35,36,3,4,5,6,7,8,24,27,28,21,29,22,30,37,31,32,38,39,40],"skeleton":2},{"joints":[2,3,4,5,6,7,8,9,10,11,12,13,14,15,16,17,18,19,20,21,22,23,24,25,26,27,28,29,30,31,32,33,34,35,36,37,38,39,40]}],"textures":[{"name":"Map #2","sampler":0,"source":0},{"name":"Map #4","sampler":0,"source":1}]}