{"accessors":[{"bufferView":0,"byteOffset":0,"componentType":5126,"count":16,"max":[0.5],"min":[0],"type":"SCALAR"},{"bufferView":1,"byteOffset":0,"componentType":5126,"count":16,"type":"VEC3"},{"bufferView":2,"byteOffset":0,"componentType":5126,"count":16,"type":"VEC4"},{"bufferView":3,"byteOffset":0,"componentType":5126,"count":16,"type":"VEC4"},{"bufferView":4,"byteOffset":0,"componentType":5126,"count":16,"type":"VEC4"},{"bufferView":5,"byteOffset":0,"componentType":5126,"count":16,"type":"VEC4"},{"bufferView":6,"byteOffset":0,"componentType":5126,"count":16,"type":"VEC4"},{"bufferView":7,"byteOffset":0,"componentType":5126,"count":16,"type":"VEC4"},{"bufferView":8,"byteOffset":0,"componentType":5126,"count":16,"type":"VEC4"},{"bufferView":9,"byteOffset":0,"componentType":5126,"count":16,"type":"VEC4"},{"bufferView":10,"byteOffset":0,"componentType":5126,"count":16,"type":"VEC4"},{"bufferView":11,"byteOffset":0,"componentType":5126,"count":16,"type":"VEC4"},{"bufferView":12,"byteOffset":0,"componentType":5126,"count":16,"type":"VEC4"},{"bufferView":13,"byteOffset":0,"componentType":5126,"count":16,"type":"VEC4"},{"bufferView":14,"byteOffset":0,"componentType":5126,"count":16,"type":"VEC4"},{"bufferView":15,"byteOffset":0,"componentType":5126,"count":16,"type":"VEC4"},{"bufferView":16,"byteOffset":0,"componentType":5126,"count":16,"type":"VEC4"},{"bufferView":17,"byteOffset":0,"componentType":5126,"count":16,"type":"VEC4"},{"bufferView":18,"byteOffset":0,"componentType":5126,"count":16,"type":"VEC4"},{"bufferView":19,"byteOffset":0,"componentType":5126,"count":16,"type":"VEC4"},{"bufferView":20,"byteOffset":0,"componentType":5126,"count":16,"type":"VEC4"},{"bufferView":21,"byteOffset":0,"componentType":5126,"count":16,"type":"VEC4"},{"bufferView":22,"byteOffset":0,"componentType":5126,"count":16,"type":"VEC4"},{"bufferView":23,"byteOffset":0,"componentType":5126,"count":16,"type":"VEC4"},{"bufferView":24,"byteOffset":0,"componentType":5126,"count":16,"type":"VEC4"},{"bufferView":25,"byteOffset":0,"componentType":5126,"count":16,"type":"VEC4"},{"bufferView":26,"byteOffset":0,"componentType":5126,"count":16,"type":"VEC4"},{"bufferView":27,"byteOffset":0,"componentType":5126,"count":16,"type":"VEC4"},{"bufferView":28,"byteOffset":0,"componentType":5126,"count":16,"type":"VEC4"},{"bufferView":29,"byteOffset":0,"componentType":5126,"count":16,"type":"VEC4"},{"bufferView":30,"byteOffset":0,"componentType":5126,"count":16,"type":"VEC4"},{"bufferView":31,"byteOffset":0,"componentType":5126,"count":16,"type":"VEC4"},{"bufferView":32,"byteOffset":0,"componentType":5126,"count":16,"type":"VEC4"},{"bufferView":33,"byteOffset":0,"componentType":5126,"count":16,"type":"VEC4"},{"bufferView":34,"byteOffset":0,"componentType":5123,"count":10350,"type":"SCALAR"},{"bufferView":35,"byteOffset":0,"componentType":5126,"count":2266,"max":[0.0510667748749256,0.181155368685722,0.169082224369049],"min":[-0.05106677487493,-0.09766451269388,0.000000000745058015283462],"type":"VEC3"},{"bufferView":36,"byteOffset":0,"componentType":5126,"count":2266,"type":"VEC3"},{"bufferView":37,"byteOffset":0,"componentType":5126,"count":2266,"type":"VEC4"},{"bufferView":38,"byteOffset":0,"componentType":5126,"count":2266,"type":"VEC2"},{"bufferView":39,"byteOffset":0,"componentType":5123,"count":2266,"type":"VEC4"},{"bufferView":40,"byteOffset":0,"componentType":5126,"count":2266,"type":"VEC4"},{"bufferView":41,"byteOffset":0,"componentType":5126,"count":38,"type":"MAT4"}],"animations":[{"channels":[{"sampler":0,"target":{"node":2,"path":"translation"}},{"sampler":1,"target":{"node":2,"path":"rotation"}},{"sampler":2,"target":{"node":3,"path":"rotation"}},{"sampler":3,"target":{"node":4,"path":"rotation"}},{"sampler":4,"target":{"node":5,"path":"rotation"}},{"sampler":5,"target":{"node":6,"path":"rotation"}},{"sampler":6,"target":{"node":7,"path":"rotation"}},{"sampler":7,"target":{"node":8,"path":"rotation"}},{"sampler":8,"target":{"node":9,"path":"rotation"}},{"sampler":9,"target":{"node":10,"path":"rotation"}},{"sampler":10,"target":{"node":11,"path":"rotation"}},{"sampler":11,"target":{"node":12,"path":"rotation"}},{"sampler":12,"target":{"node":13,"path":"rotation"}},{"sampler":13,"target":{"node":14,"path":"rotation"}},{"sampler":14,"target":{"node":15,"path":"rotation"}},{"sampler":15,"target":{"node":16,"path":"rotation"}},{"sampler":16,"target":{"node":17,"path":"rotation"}},{"sampler":17,"target":{"node":19,"path":"rotation"}},{"sampler":18,"target":{"node":20,"path":"rotation"}},{"sampler":19,"target":{"node":21,"path":"rotation"}},{"sampler":20,"target":{"node":22,"path":"rotation"}},{"sampler":21,"target":{"node":29,"path":"rotation"}},{"sampler":22,"target":{"node":30,"path":"rotation"}},{"sampler":23,"target":{"node":31,"path":"rotation"}},{"sampler":24,"target":{"node":32,"path":"rotation"}},{"sampler":25,"target":{"node":33,"path":"rotation"}},{"sampler":26,"target":{"node":34,"path":"rotation"}},{"sampler":27,"target":{"node":35,"path":"rotation"}},{"sampler":28,"target":{"node":36,"path":"rotation"}},{"sampler":29,"target":{"node":37,"path":"rotation"}},{"sampler":30,"target":{"node":38,"path":"rotation"}},{"sampler":31,"target":{"node":39,"path":"rotation"}},{"sampler":32,"target":{"node":40,"path":"rotation"}}],"name":"Take 001","samplers":[{"input":0,"interpolation":"LINEAR","output":1},{"input":0,"interpolation":"LINEAR","output":2},{"input":0,"interpolation":"LINEAR","output":3},{"input":0,"interpolation":"LINEAR","output":4},{"input":0,"interpolation":"LINEAR","output":5},{"input":0,"interpolation":"LINEAR","output":6},{"input":0,"interpolation":"LINEAR","output":7},{"input":0,"interpolation":"LINEAR","output":8},{"input":0,"interpolation":"LINEAR","output":9},{"input":0,"interpolation":"LINEAR","output":10},{"input":0,"interpolation":"LINEAR","output":11},{"input":0,"interpolation":"LINEAR","output":12},{"input":0,"interpolation":"LINEAR","output":13},{"input":0,"interpolation":"LINEAR","output":14},{"input":0,"interpolation":"LINEAR","output":15},{"input":0,"interpolation":"LINEAR","output":16},{"input":0,"interpolation":"LINEAR","output":17},{"input":0,"interpolation":"LINEAR","output":18},{"input":0,"interpolation":"LINEAR","output":19},{"input":0,"interpolation":"LINEAR","output":20},{"input":0,"interpolation":"LINEAR","output":21},{"input":0,"interpolation":"LINEAR","output":22},{"input":0,"interpolation":"LINEAR","output":23},{"input":0,"interpolation":"LINEAR","output":24},{"input":0,"interpolation":"LINEAR","output":25},{"input":0,"interpolation":"LINEAR","output":26},{"input":0,"interpolation":"LINEAR","output":27},{"input":0,"interpolation":"LINEAR","output":28},{"input":0,"interpolation":"LINEAR","output":29},{"input":0,"interpolation":"LINEAR","output":30},{"input":0,"interpolation":"LINEAR","output":31},{"input":0,"interpolation":"LINEAR","output":32},{"input":0,"interpolation":"LINEAR","output":33}]}],"asset":{"generator":"FBX2glTF v0.13.1","version":"2.0"},"bufferViews":[{"buffer":0,"byteLength":64,"byteOffset":0},{"buffer":0,"byteLength":192,"byteOffset":64},{"buffer":0,"byteLength":256,"byteOffset":256},{"buffer":0,"byteLength":256,"byteOffset":512},{"buffer":0,"byteLength":256,"byteOffset":768},{"buffer":0,"byteLength":256,"byteOffset":1024},{"buffer":0,"byteLength":256,"byteOffset":1280},{"buffer":0,"byteLength":256,"byteOffset":1536},{"buffer":0,"byteLength":256,"byteOffset":1792},{"buffer":0,"byteLength":256,"byteOffset":2048},{"buffer":0,"byteLength":256,"byteOffset":2304},{"buffer":0,"byteLength":256,"byteOffset":2560},{"buffer":0,"byteLength":256,"byteOffset":2816},{"buffer":0,"byteLength":256,"byteOffset":3072},{"buffer":0,"byteLength":256,"byteOffset":3328},{"buffer":0,"byteLength":256,"byteOffset":3584},{"buffer":0,"byteLength":256,"byteOffset":3840},{"buffer":0,"byteLength":256,"byteOffset":4096},{"buffer":0,"byteLength":256,"byteOffset":4352},{"buffer":0,"byteLength":256,"byteOffset":4608},{"buffer":0,"byteLength":256,"byteOffset":4864},{"buffer":0,"byteLength":256,"byteOffset":5120},{"buffer":0,"byteLength":256,"byteOffset":5376},{"buffer":0,"byteLength":256,"byteOffset":5632},{"buffer":0,"byteLength":256,"byteOffset":5888},{"buffer":0,"byteLength":256,"byteOffset":6144},{"buffer":0,"byteLength":256,"byteOffset":6400},{"buffer":0,"byteLength":256,"byteOffset":6656},{"buffer":0,"byteLength":256,"byteOffset":6912},{"buffer":0,"byteLength":256,"byteOffset":7168},{"buffer":0,"byteLength":256,"byteOffset":7424},{"buffer":0,"byteLength":256,"byteOffset":7680},{"buffer":0,"byteLength":256,"byteOffset":7936},{"buffer":0,"byteLength":256,"byteOffset":8192},{"buffer":0,"byteLength":20700,"byteOffset":8448,"target":34963},{"buffer":0,"byteLength":27192,"byteOffset":29148,"target":34962},{"buffer":0,"byteLength":27192,"byteOffset":56340,"target":34962},{"buffer":0,"byteLength":36256,"byteOffset":83532,"target":34962},{"buffer":0,"byteLength":18128,"byteOffset":119788,"target":34962},{"buffer":0,"byteLength":18128,"byteOffset":137916,"target":34962},{"buffer":0,"byteLength":36256,"byteOffset":156044,"target":34962},{"buffer":0,"byteLength":2432,"byteOffset":192300}],"buffers":[{"byteLength":194732,"uri":"Fox_Run_Left_InPlace.bin"}],"images":[{"name":"1","uri":"1.psd"}],"materials":[{"alphaMode":"OPAQUE","doubleSided":false,"extras":{"fromFBX":{"isTruePBR":true,"shadingModel":"Metallic/Roughness"}},"name":"08 - Default","pbrMetallicRoughness":{"baseColorFactor":[0.443137288093567,0.443137288093567,0.443137288093567,1],"baseColorTexture":{"index":0,"texCoord":0},"metallicFactor":0,"roughnessFactor":0.680000066757202}}],"meshes":[{"name":"fox","primitives":[{"attributes":{"JOINTS_0":39,"NORMAL":36,"POSITION":35,"TANGENT":37,"TEXCOORD_0":38,"WEIGHTS_0":40},"indices":34,"material":0,"mode":4}]}],"nodes":[{"mesh":0,"name":"fox","rotation":[-0.70710676908493,-0,0,0.70710676908493],"scale":[1,1,1],"skin":0,"translation":[0,0,0]},{"children":[2],"name":"FoxTransform","rotation":[-0.70710682868957,0.000000110986206891539,0.0000000800776192022568,0.70710676908493],"scale":[1,1,1],"translation":[0,0,0]},{"children":[3,9,33,37],"name":"Fox_Pelvis","rotation":[-0.38660180568695,0.592063307762146,-0.54840916395187,0.44637143611908],"scale":[1,1,1],"translation":[0.00531643442809582,0.0343327634036541,0.0697896480560303]},{"children":[4],"name":"Fox_Tail1","rotation":[0.0436293818056583,-0.00076374533819,0.998825907707214,0.021041302010417],"scale":[1,1,1],"translation":[-0.01636433973908,-0.00745289307088,-0]},{"children":[5],"name":"Fox_Tail2","rotation":[0.0103122219443321,-0.08205356448889,0.0481576584279537,0.995410323143005],"scale":[1,0.999998986721039,1],"translation":[0.0267343185842037,0.00000000476837147544984,0.00000000119209286886246]},{"children":[6],"name":"Fox_Tail3","rotation":[0.0161561165004969,-0.12186534702778,0.0346180498600006,0.991811156272888],"scale":[0.999998986721039,1,1.00000095367432],"translation":[0.0208616815507412,0.00000000000000000888178399847791,-0.00000000238419]},{"children":[7],"name":"Fox_Tail4","rotation":[-0.03307390213013,-0.07204147428274,-0.06157268956304,0.994949698448181],"scale":[0.999998986721039,0.999998986721039,1.00000095367432],"translation":[0.0220821369439363,-0.00000000953674,0.00000000953674295089968]},{"children":[8],"name":"Fox_Tail5","rotation":[-0.02869554236531,-0.04158812016249,-0.04717364534736,0.997607946395874],"scale":[0.999997973442078,0.999997973442078,1.00000202655792],"translation":[0.0203105248510838,-0.00000000476837,0.0000000143051144263495]},{"name":"Fox_Tail6","rotation":[-0.01515762601048,-0.02285050041974,-0.0269387178123,0.999260902404785],"scale":[0.9999960064888,0.9999960064888,1.00000405311584],"translation":[0.0182019509375095,-0.00000001907349,-0.00000000953674]},{"children":[10],"name":"Fox_Spine1","rotation":[-0.01244621258229,-0.04809674993157,0.0358911044895649,0.998120069503784],"scale":[1,1,1],"translation":[0,0,0]},{"children":[11],"name":"Fox_Spine2","rotation":[0.0255457311868668,-0.20154047012329,-0.15224017202854,0.967239260673523],"scale":[1,1,1],"translation":[0.0335060432553291,0.00000000000000000888178399847791,-0.00000000029802]},{"children":[12,16,29],"name":"Fox_Ribcage","rotation":[-0.01231401693076,-0.04893406108022,-0.10570476204157,0.993116497993469],"scale":[1,1,1],"translation":[0.0335060358047485,-0.00000000953674,-0.00000000059605]},{"children":[13],"name":"Fox_F_LLeg1","rotation":[0.446792334318161,0.893350124359131,0.0213883314281702,0.042949415743351],"scale":[1,1,1],"translation":[0.0023997591342777,0.0004231309867464,0.0251081697642803]},{"children":[14],"name":"Fox_F_LLeg2","rotation":[0.0646980106830597,-0.0540446639061,0.569959938526154,0.817336559295654],"scale":[1.00000095367432,0.999998986721039,1],"translation":[0.0340102650225163,0.000000420808788703653,0.0000000512599918067735]},{"children":[15],"name":"Fox_F_LLegAnkle","rotation":[-0.07525051385164,0.138323545455933,-0.09059654921293,0.983359634876251],"scale":[1,1,1],"translation":[0.0326986201107502,-0.00000000476837,0]},{"name":"Fox_F_LLegDigit11","rotation":[0.00593455974012613,0.0157315898686647,0.493163377046585,0.869774222373962],"scale":[1.00000500679016,0.999997019767761,1.00000202655792],"translation":[0.0102812172845006,0.00093354698037728,-0.00000029027461]},{"children":[17],"name":"Fox_Spine","rotation":[0.0137680666521192,-0.02730390243232,-0.27954658865929,0.95964503288269],"scale":[1,1,1],"translation":[0,0,0]},{"children":[18,19,21,23,24,25,26,27,28],"name":"Fox_Head","rotation":[0.0914267748594284,-0.09587164968252,0.197447672486305,0.971320867538452],"scale":[1,1,1],"translation":[0.0369065478444099,-0,0]},{"name":"Fox_Jaw","rotation":[-0.00000006280403,-0.00000000001506,0.342020004987717,0.939692676067352],"scale":[1,1,1],"translation":[0.0127218533307314,0.0189216136932373,-0.00000000238419]},{"children":[20],"name":"Fox_LEar1","rotation":[0.260546177625656,-0.27047768235207,-0.42218869924545,0.825054049491882],"scale":[1.00000095367432,0.999998986721039,1],"translation":[0.0109870145097375,-0.0300801936537,0.0253106262534857]},{"name":"Fox_LEar2","rotation":[-0.00325444759801,0.00152869510930032,0.313756585121155,0.949496626853943],"scale":[0.999997019767761,1.00000298023224,1],"translation":[0.0164626967161894,0.00000000000000000222044599961948,-0.00000000476837]},{"children":[22],"name":"Fox_REar1","rotation":[-0.26656413078308,0.271587818861008,-0.42254543304443,0.822580695152283],"scale":[1.00000095367432,0.999998986721039,1],"translation":[0.0109869856387377,-0.03008018434048,-0.02531061507761]},{"name":"Fox_REar2","rotation":[-0.00270588696003,0.00225639273412526,0.313236862421036,0.94966846704483],"scale":[1.00000298023224,0.999997973442078,1],"translation":[0.0164626967161894,-0.00000000953674,-0.00000000119209]},{"name":"Fox_LEye","rotation":[0.690345466136932,0.153045758605003,0.212630987167358,0.674379885196686],"scale":[1,1,1],"translation":[0.0160656161606312,-0.00207387446426,0.0185948740690947]},{"name":"Fox_REye","rotation":[-0.69034564495087,-0.15304581820965,0.212630838155746,0.674379706382751],"scale":[1,1,1],"translation":[0.0160655975341797,-0.00207388866693,-0.01859486661851]},{"name":"Fox_UpperLEyelid","rotation":[0.733772695064545,-0.03472810983658,0.0320371985435486,0.677750110626221],"scale":[1,1,1],"translation":[0.0160655975341797,-0.00207387912087,0.018594877794385]},{"name":"Fox_LowerLEyelid","rotation":[0.61944717168808,0.308799624443054,0.394631385803223,0.604312896728516],"scale":[1,1,1],"translation":[0.0160655975341797,-0.00207387912087,0.018594877794385]},{"name":"Fox_UpperREyelid","rotation":[-0.73377275466919,0.0347280278801918,0.0320371836423874,0.677749991416931],"scale":[1,1,1],"translation":[0.0160655789077282,-0.00207387912087,-0.01859487220645]},{"name":"Fox_LowerREyelid","rotation":[-0.61944723129273,-0.3087996840477,0.394631415605545,0.604312777519226],"scale":[1,1,1],"translation":[0.0160655789077282,-0.00207387912087,-0.01859487220645]},{"children":[30],"name":"Fox_F_RLeg1","rotation":[0.641779959201813,0.764511525630951,0.0496240220963955,-0.03432254120708],"scale":[1,1,1],"translation":[0.00239976402372122,0.00042312144069001,-0.02510816790164]},{"children":[31],"name":"Fox_F_RLeg2","rotation":[-0.07660844177008,0.0221648383885622,0.233485460281372,0.969084322452545],"scale":[0.999998986721039,1.00000095367432,1],"translation":[0.0340102650225163,0.000000414848329910456,-0.00000005722046]},{"children":[32],"name":"Fox_F_RLegAnkle","rotation":[-0.03898455575109,-0.02494051121175,-0.08020334690809,0.9957035779953],"scale":[1,1,1],"translation":[0.0326986275613308,-0,-0.00000000238419]},{"name":"Fox_F_RLegDigit11","rotation":[-0.00030957729905,0.00053512066369876,0.528051614761353,0.849212050437927],"scale":[0.999997019767761,1.00000405311584,1.00000095367432],"translation":[0.0102812023833394,0.00093353271950036,0.000000290870673325117]},{"children":[34],"name":"Fox_LLeg1","rotation":[0.73501443862915,0.673291385173798,0.0381127521395683,-0.07056853920221],"scale":[0.999998986721039,1.00000095367432,1],"translation":[0.00000000000000000888178399847791,-0.00000000953674,0.0192754846066236]},{"children":[35],"name":"Fox_LLeg2","rotation":[-0.07439798861742,0.0390268974006176,-0.73315268754959,0.674854815006256],"scale":[1.00000095367432,1,1],"translation":[0.0358892679214478,-0.00000008821488,0.0000000572204577053981]},{"children":[36],"name":"Fox_LLegAnkle","rotation":[0.210896775126457,0.0664151981472969,0.55960214138031,0.798722088336945],"scale":[1.00000298023224,0.999997973442078,0.999998986721039],"translation":[0.0258319806307554,0.00000000476837147544984,0.00000000000000000444089199923895]},{"name":"Fox_LLegDigit11","rotation":[0.0000991327906376682,0.00032278514117933,0.757962465286255,0.652298092842102],"scale":[1.00000703334808,0.999997973442078,1.00000298023224],"translation":[0.0325394831597805,0.00077512738062068,0.00000000134110444971469]},{"children":[38],"name":"Fox_RLeg1","rotation":[0.655098140239716,0.753883361816406,0.047729417681694,-0.01510582957417],"scale":[0.999998986721039,1.00000095367432,1],"translation":[-0.00000000476837,-0.00000000953674,-0.01927548646927]},{"children":[39],"name":"Fox_RLeg2","rotation":[0.0873319357633591,-0.03210928291082,-0.60306948423386,0.792243242263794],"scale":[0.999994993209839,1.00000500679016,1.00000095367432],"translation":[0.0358892716467381,-0.00000008583068,-0.00000006437301]},{"children":[40],"name":"Fox_RLegAnkle","rotation":[0.0341223701834679,0.11772271245718,0.551649451255798,0.825021147727966],"scale":[0.999990999698639,1.0000079870224,1],"translation":[0.0258319899439812,0.00000000476837147544984,-0.00000000238419]},{"name":"Fox_RLegDigit11","rotation":[-0.00009379411495,-0.00032438570634,0.768568694591522,0.639767169952393],"scale":[0.999987006187439,1.00001299381256,1.00000095367432],"translation":[0.0325394868850708,0.00077512260759249,0.00000000000000000888178399847791]}],"samplers":[{}],"scene":0,"scenes":[{"name":"Root Scene","nodes":[0,1]}],"skins":[{"inverseBindMatrices":41,"joints":[17,25,26,18,11,12,19,20,13,10,9,33,14,2,34,35,36,3,4,5,6,7,8,15,27,28,29,21,22,30,37,31,38,39,40,32,23,24],"skeleton":17},{"joints":[2,3,4,5,6,7,8,9,10,11,12,13,14,15,16,17,18,19,20,21,22,23,24,25,26,27,28,29,30,31,32,33,34,35,36,37,38,39,40]}],"textures":[{"name":"Map #4","sampler":0,"source":0}]}