{"accessors":[{"bufferView":0,"byteOffset":0,"componentType":5126,"count":61,"max":[2],"min":[0],"type":"SCALAR"},{"bufferView":1,"byteOffset":0,"componentType":5126,"count":61,"type":"VEC4"},{"bufferView":2,"byteOffset":0,"componentType":5126,"count":61,"type":"VEC4"},{"bufferView":3,"byteOffset":0,"componentType":5126,"count":61,"type":"VEC4"},{"bufferView":4,"byteOffset":0,"componentType":5126,"count":61,"type":"VEC4"},{"bufferView":5,"byteOffset":0,"componentType":5126,"count":61,"type":"VEC4"},{"bufferView":6,"byteOffset":0,"componentType":5126,"count":61,"type":"VEC4"},{"bufferView":7,"byteOffset":0,"componentType":5126,"count":61,"type":"VEC4"},{"bufferView":8,"byteOffset":0,"componentType":5126,"count":61,"type":"VEC4"},{"bufferView":9,"byteOffset":0,"componentType":5126,"count":61,"type":"VEC4"},{"bufferView":10,"byteOffset":0,"componentType":5126,"count":61,"type":"VEC4"},{"bufferView":11,"byteOffset":0,"componentType":5126,"count":61,"type":"VEC3"},{"bufferView":12,"byteOffset":0,"componentType":5126,"count":61,"type":"VEC4"},{"bufferView":13,"byteOffset":0,"componentType":5126,"count":61,"type":"VEC3"},{"bufferView":14,"byteOffset":0,"componentType":5126,"count":61,"type":"VEC4"},{"bufferView":15,"byteOffset":0,"componentType":5126,"count":61,"type":"VEC3"},{"bufferView":16,"byteOffset":0,"componentType":5126,"count":61,"type":"VEC4"},{"bufferView":17,"byteOffset":0,"componentType":5126,"count":61,"type":"VEC4"},{"bufferView":18,"byteOffset":0,"componentType":5126,"count":61,"type":"VEC4"},{"bufferView":19,"byteOffset":0,"componentType":5126,"count":61,"type":"VEC4"},{"bufferView":20,"byteOffset":0,"componentType":5126,"count":61,"type":"VEC3"},{"bufferView":21,"byteOffset":0,"componentType":5126,"count":61,"type":"VEC4"},{"bufferView":22,"byteOffset":0,"componentType":5126,"count":61,"type":"VEC3"},{"bufferView":23,"byteOffset":0,"componentType":5126,"count":61,"type":"VEC4"},{"bufferView":24,"byteOffset":0,"componentType":5126,"count":61,"type":"VEC3"},{"bufferView":25,"byteOffset":0,"componentType":5126,"count":61,"type":"VEC4"},{"bufferView":26,"byteOffset":0,"componentType":5126,"count":61,"type":"VEC3"},{"bufferView":27,"byteOffset":0,"componentType":5126,"count":61,"type":"VEC4"},{"bufferView":28,"byteOffset":0,"componentType":5126,"count":61,"type":"VEC4"},{"bufferView":29,"byteOffset":0,"componentType":5126,"count":61,"type":"VEC4"},{"bufferView":30,"byteOffset":0,"componentType":5126,"count":61,"type":"VEC4"},{"bufferView":31,"byteOffset":0,"componentType":5126,"count":61,"type":"VEC4"},{"bufferView":32,"byteOffset":0,"componentType":5126,"count":61,"type":"VEC4"},{"bufferView":33,"byteOffset":0,"componentType":5126,"count":61,"type":"VEC4"},{"bufferView":34,"byteOffset":0,"componentType":5126,"count":61,"type":"VEC4"},{"bufferView":35,"byteOffset":0,"componentType":5126,"count":61,"type":"VEC4"},{"bufferView":36,"byteOffset":0,"componentType":5123,"count":10350,"type":"SCALAR"},{"bufferView":37,"byteOffset":0,"componentType":5126,"count":2266,"max":[0.0510667748749256,0.181155368685722,0.169082224369049],"min":[-0.05106677487493,-0.09766451269388,0.000000000745058015283462],"type":"VEC3"},{"bufferView":38,"byteOffset":0,"componentType":5126,"count":2266,"type":"VEC3"},{"bufferView":39,"byteOffset":0,"componentType":5126,"count":2266,"type":"VEC4"},{"bufferView":40,"byteOffset":0,"componentType":5126,"count":2266,"type":"VEC2"},{"bufferView":41,"byteOffset":0,"componentType":5123,"count":2266,"type":"VEC4"},{"bufferView":42,"byteOffset":0,"componentType":5126,"count":2266,"type":"VEC4"},{"bufferView":43,"byteOffset":0,"componentType":5126,"count":39,"type":"MAT4"}],"animations":[{"channels":[{"sampler":0,"target":{"node":3,"path":"rotation"}},{"sampler":1,"target":{"node":4,"path":"rotation"}},{"sampler":2,"target":{"node":5,"path":"rotation"}},{"sampler":3,"target":{"node":6,"path":"rotation"}},{"sampler":4,"target":{"node":7,"path":"rotation"}},{"sampler":5,"target":{"node":8,"path":"rotation"}},{"sampler":6,"target":{"node":9,"path":"rotation"}},{"sampler":7,"target":{"node":10,"path":"rotation"}},{"sampler":8,"target":{"node":11,"path":"rotation"}},{"sampler":9,"target":{"node":12,"path":"rotation"}},{"sampler":10,"target":{"node":13,"path":"translation"}},{"sampler":11,"target":{"node":13,"path":"rotation"}},{"sampler":12,"target":{"node":14,"path":"translation"}},{"sampler":13,"target":{"node":14,"path":"rotation"}},{"sampler":14,"target":{"node":15,"path":"translation"}},{"sampler":15,"target":{"node":15,"path":"rotation"}},{"sampler":16,"target":{"node":16,"path":"rotation"}},{"sampler":17,"target":{"node":17,"path":"rotation"}},{"sampler":18,"target":{"node":18,"path":"rotation"}},{"sampler":19,"target":{"node":19,"path":"translation"}},{"sampler":20,"target":{"node":19,"path":"rotation"}},{"sampler":21,"target":{"node":20,"path":"translation"}},{"sampler":22,"target":{"node":20,"path":"rotation"}},{"sampler":23,"target":{"node":21,"path":"translation"}},{"sampler":24,"target":{"node":21,"path":"rotation"}},{"sampler":25,"target":{"node":22,"path":"translation"}},{"sampler":26,"target":{"node":22,"path":"rotation"}},{"sampler":27,"target":{"node":25,"path":"rotation"}},{"sampler":28,"target":{"node":26,"path":"rotation"}},{"sampler":29,"target":{"node":27,"path":"rotation"}},{"sampler":30,"target":{"node":28,"path":"rotation"}},{"sampler":31,"target":{"node":29,"path":"rotation"}},{"sampler":32,"target":{"node":30,"path":"rotation"}},{"sampler":33,"target":{"node":31,"path":"rotation"}},{"sampler":34,"target":{"node":32,"path":"rotation"}}],"name":"Take 001","samplers":[{"input":0,"interpolation":"LINEAR","output":1},{"input":0,"interpolation":"LINEAR","output":2},{"input":0,"interpolation":"LINEAR","output":3},{"input":0,"interpolation":"LINEAR","output":4},{"input":0,"interpolation":"LINEAR","output":5},{"input":0,"interpolation":"LINEAR","output":6},{"input":0,"interpolation":"LINEAR","output":7},{"input":0,"interpolation":"LINEAR","output":8},{"input":0,"interpolation":"LINEAR","output":9},{"input":0,"interpolation":"LINEAR","output":10},{"input":0,"interpolation":"LINEAR","output":11},{"input":0,"interpolation":"LINEAR","output":12},{"input":0,"interpolation":"LINEAR","output":13},{"input":0,"interpolation":"LINEAR","output":14},{"input":0,"interpolation":"LINEAR","output":15},{"input":0,"interpolation":"LINEAR","output":16},{"input":0,"interpolation":"LINEAR","output":17},{"input":0,"interpolation":"LINEAR","output":18},{"input":0,"interpolation":"LINEAR","output":19},{"input":0,"interpolation":"LINEAR","output":20},{"input":0,"interpolation":"LINEAR","output":21},{"input":0,"interpolation":"LINEAR","output":22},{"input":0,"interpolation":"LINEAR","output":23},{"input":0,"interpolation":"LINEAR","output":24},{"input":0,"interpolation":"LINEAR","output":25},{"input":0,"interpolation":"LINEAR","output":26},{"input":0,"interpolation":"LINEAR","output":27},{"input":0,"interpolation":"LINEAR","output":28},{"input":0,"interpolation":"LINEAR","output":29},{"input":0,"interpolation":"LINEAR","output":30},{"input":0,"interpolation":"LINEAR","output":31},{"input":0,"interpolation":"LINEAR","output":32},{"input":0,"interpolation":"LINEAR","output":33},{"input":0,"interpolation":"LINEAR","output":34},{"input":0,"interpolation":"LINEAR","output":35}]}],"asset":{"generator":"FBX2glTF v0.13.1","version":"2.0"},"bufferViews":[{"buffer":0,"byteLength":244,"byteOffset":0},{"buffer":0,"byteLength":976,"byteOffset":244},{"buffer":0,"byteLength":976,"byteOffset":1220},{"buffer":0,"byteLength":976,"byteOffset":2196},{"buffer":0,"byteLength":976,"byteOffset":3172},{"buffer":0,"byteLength":976,"byteOffset":4148},{"buffer":0,"byteLength":976,"byteOffset":5124},{"buffer":0,"byteLength":976,"byteOffset":6100},{"buffer":0,"byteLength":976,"byteOffset":7076},{"buffer":0,"byteLength":976,"byteOffset":8052},{"buffer":0,"byteLength":976,"byteOffset":9028},{"buffer":0,"byteLength":732,"byteOffset":10004},{"buffer":0,"byteLength":976,"byteOffset":10736},{"buffer":0,"byteLength":732,"byteOffset":11712},{"buffer":0,"byteLength":976,"byteOffset":12444},{"buffer":0,"byteLength":732,"byteOffset":13420},{"buffer":0,"byteLength":976,"byteOffset":14152},{"buffer":0,"byteLength":976,"byteOffset":15128},{"buffer":0,"byteLength":976,"byteOffset":16104},{"buffer":0,"byteLength":976,"byteOffset":17080},{"buffer":0,"byteLength":732,"byteOffset":18056},{"buffer":0,"byteLength":976,"byteOffset":18788},{"buffer":0,"byteLength":732,"byteOffset":19764},{"buffer":0,"byteLength":976,"byteOffset":20496},{"buffer":0,"byteLength":732,"byteOffset":21472},{"buffer":0,"byteLength":976,"byteOffset":22204},{"buffer":0,"byteLength":732,"byteOffset":23180},{"buffer":0,"byteLength":976,"byteOffset":23912},{"buffer":0,"byteLength":976,"byteOffset":24888},{"buffer":0,"byteLength":976,"byteOffset":25864},{"buffer":0,"byteLength":976,"byteOffset":26840},{"buffer":0,"byteLength":976,"byteOffset":27816},{"buffer":0,"byteLength":976,"byteOffset":28792},{"buffer":0,"byteLength":976,"byteOffset":29768},{"buffer":0,"byteLength":976,"byteOffset":30744},{"buffer":0,"byteLength":976,"byteOffset":31720},{"buffer":0,"byteLength":20700,"byteOffset":32696,"target":34963},{"buffer":0,"byteLength":27192,"byteOffset":53396,"target":34962},{"buffer":0,"byteLength":27192,"byteOffset":80588,"target":34962},{"buffer":0,"byteLength":36256,"byteOffset":107780,"target":34962},{"buffer":0,"byteLength":18128,"byteOffset":144036,"target":34962},{"buffer":0,"byteLength":18128,"byteOffset":162164,"target":34962},{"buffer":0,"byteLength":36256,"byteOffset":180292,"target":34962},{"buffer":0,"byteLength":2496,"byteOffset":216548}],"buffers":[{"byteLength":219044,"uri":"Fox_Sit_Idle_Break.bin"}],"images":[{"name":"toonfoxNM","uri":"toonfoxNM.png"},{"name":"1","uri":"1.psd"}],"materials":[{"alphaMode":"OPAQUE","doubleSided":false,"extras":{"fromFBX":{"isTruePBR":false,"shadingModel":"Phong"}},"name":"08 - Default","normalTexture":{"index":0,"texCoord":0},"pbrMetallicRoughness":{"baseColorFactor":[1,1,1,1],"baseColorTexture":{"index":1,"texCoord":0},"metallicFactor":0.400000005960464,"roughnessFactor":0.422773718833923}}],"meshes":[{"name":"fox","primitives":[{"attributes":{"JOINTS_0":41,"NORMAL":38,"POSITION":37,"TANGENT":39,"TEXCOORD_0":40,"WEIGHTS_0":42},"indices":36,"material":0,"mode":4}]}],"nodes":[{"mesh":0,"name":"fox","rotation":[-0.70710676908493,-0,0,0.70710676908493],"scale":[1,1,1],"skin":0,"translation":[0,0,0]},{"children":[2],"name":"FoxTransform","rotation":[-0.70710676908493,-0,0,0.70710676908493],"scale":[1,1,1],"translation":[0,0,0]},{"children":[3,9,33,37],"name":"Fox_Pelvis","rotation":[0.627211272716522,-0.32650557160378,0.627211451530457,-0.32650566101074],"scale":[1,0.999998986721039,1],"translation":[-0.00000000152061,0.0347876027226448,0.0326020978391171]},{"children":[4],"name":"Fox_Tail1","rotation":[0.13657158613205,-0.09337373822927,0.975449740886688,-0.14535254240036],"scale":[1,1,1.00000095367432],"translation":[-0.01636432856321,-0.00745288841426,-0.000000002426]},{"children":[5],"name":"Fox_Tail2","rotation":[0.00215212674811482,-0.27283149957657,0.00758876465260983,0.96202951669693],"scale":[1,1.00000095367432,1.00000095367432],"translation":[0.0267343185842037,0.00000000000000000888178399847791,-0]},{"children":[6],"name":"Fox_Tail3","rotation":[-0.00280869402923,-0.27202573418617,0.0172353386878967,0.962131500244141],"scale":[0.999998986721039,1,1],"translation":[0.0208616927266121,0.00000000000000000888178399847791,0.00000000238418573772492]},{"children":[7],"name":"Fox_Tail4","rotation":[-0.01987282186747,-0.27026125788689,-0.01244203932583,0.962501466274261],"scale":[1,1.00000095367432,1],"translation":[0.0220821518450975,-0,-0.00000000476837]},{"children":[8],"name":"Fox_Tail5","rotation":[-0.04796502366662,-0.26416516304016,-0.01102209556848,0.963220953941345],"scale":[1.00000095367432,1,1],"translation":[0.0203105062246323,0,0.0000000000000000177635679969558]},{"name":"Fox_Tail6","rotation":[-0.07708843797445,-0.25620567798615,-0.02899825386703,0.963106989860535],"scale":[1.00000095367432,1,1],"translation":[0.0182019434869289,0,0.00000000953674295089968]},{"children":[10],"name":"Fox_Spine1","rotation":[0.000000172177692547848,0.00000240906751969305,0.0271433014422655,0.999631524085999],"scale":[1,1,1],"translation":[0,0,0]},{"children":[11],"name":"Fox_Spine2","rotation":[0.0000000440398508771978,-0.00000001429101,-0.05994142591953,0.998201906681061],"scale":[1,1,1],"translation":[0.0335060358047485,0.00000000000000000888178399847791,0.00000000000000000000002541098785]},{"children":[12,16,29],"name":"Fox_Ribcage","rotation":[0.000000200452106469129,-0.0000022902243,-0.05440900474787,0.998518705368042],"scale":[1,1,1],"translation":[0.0335060358047485,0.00000000000000000888178399847791,-0.00000000000004]},{"children":[13],"name":"Fox_F_LLeg1","rotation":[0.28817230463028,0.957549393177032,0.00733528984710574,-0.00142319849692],"scale":[1,0.999998986721039,1],"translation":[0.00239974958822131,0.00042314050369896,0.0251081716269255]},{"children":[14],"name":"Fox_F_LLeg2","rotation":[0.0740955173969269,-0.03188160806894,0.336420744657516,0.938250780105591],"scale":[1.00000095367432,1,1.00000095367432],"translation":[0.0340102761983871,-0.00000009059906,0.0000030136106943246]},{"children":[15],"name":"Fox_F_LLegAnkle","rotation":[-0.05580179020762,0.0483914315700531,0.00693959509953856,0.997244358062744],"scale":[1,1.00000095367432,1],"translation":[0.0326986275613308,-0.00000099897386,0.000000374317153273296]},{"name":"Fox_F_LLegDigit11","rotation":[0.0000431795051554218,0.0000733802880859002,0.509720802307129,0.860339879989624],"scale":[1,1,1],"translation":[0.0102809937670827,0.00093436718452721,0.000000989437126008852]},{"children":[17],"name":"Fox_Spine","rotation":[0.00000000446435954870594,-0.00000006186882,-0.2381367534399,0.971231639385223],"scale":[1,1,1],"translation":[0,0,0]},{"children":[18,19,21,23,24,25,26,27,28],"name":"Fox_Head","rotation":[0.000000000959327839389346,0.0000000476759147716166,0.403171539306641,0.915124416351318],"scale":[1.00000095367432,0.999998986721039,1],"translation":[0.0369065627455711,-0.00000000238419,-0.00000000000002]},{"name":"Fox_Jaw","rotation":[0.0000000311863637136867,0.00000000409515044097475,0.342020064592361,0.939692616462708],"scale":[1,0.999998986721039,1],"translation":[0.0127218337729573,0.0189217701554298,0.00000000540861933018277]},{"children":[20],"name":"Fox_LEar1","rotation":[0.198566272854805,-0.32492080330849,-0.30859914422035,0.871644675731659],"scale":[1.00000202655792,1.00000095367432,0.999993979930878],"translation":[0.0109892748296261,-0.03008562885225,0.0253088753670454]},{"name":"Fox_LEar2","rotation":[-0.01800766214728,-0.02892982028425,0.139364242553711,0.989654660224915],"scale":[1.00001001358032,0.9999920129776,1.00000298023224],"translation":[0.0164621453732252,0.000000231266014338871,-0.00000651121127]},{"children":[22],"name":"Fox_REar1","rotation":[-0.28646844625473,0.254541337490082,-0.41811001300812,0.82360702753067],"scale":[1.00000703334808,1,0.9999960064888],"translation":[0.0109899425879121,-0.03008821420372,-0.02530849911273]},{"name":"Fox_REar2","rotation":[-0.01936063542962,-0.02093240618706,-0.07321481406689,0.99690854549408],"scale":[0.999988973140717,1.00001001358032,1.00000095367432],"translation":[0.0164627730846405,0.000000517368277996866,-0.0000068891045]},{"name":"Fox_LEye","rotation":[0.690345525741577,0.153045952320099,0.212631195783615,0.674379646778107],"scale":[1,1,1],"translation":[0.0160656441003084,-0.00207384093665,0.0185949504375458]},{"name":"Fox_REye","rotation":[-0.69034552574158,-0.15304607152939,0.212631121277809,0.674379646778107],"scale":[1,1,1],"translation":[0.0160656739026308,-0.0020738504827,-0.01859496161342]},{"name":"Fox_UpperLEyelid","rotation":[0.733772873878479,-0.03472809493542,0.0320372022688389,0.677749872207642],"scale":[1,1,1],"translation":[0.0160656347870827,-0.00207386957482,0.0185950510203838]},{"name":"Fox_LowerLEyelid","rotation":[0.636071145534515,0.28214618563652,0.36723604798317,0.617207169532776],"scale":[1.00000095367432,1,0.999998986721039],"translation":[0.0160656347870827,-0.00207386957482,0.0185950510203838]},{"name":"Fox_UpperREyelid","rotation":[-0.73377275466919,0.0347281582653522,0.0320372954010963,0.677750051021576],"scale":[1,1,1],"translation":[0.0160656645894051,-0.00207389821298,-0.01859506033361]},{"name":"Fox_LowerREyelid","rotation":[-0.63607090711594,-0.28214609622955,0.367236077785492,0.617207407951355],"scale":[1.00000095367432,1,0.999998986721039],"translation":[0.0160656645894051,-0.00207389821298,-0.01859506033361]},{"children":[30],"name":"Fox_F_RLeg1","rotation":[0.288179397583008,0.957546949386597,-0.00738202035427,0.00141871790401638],"scale":[1.00000095367432,1.00000095367432,1],"translation":[0.002399783115834,0.00042313814628869,-0.02510814927518]},{"children":[31],"name":"Fox_F_RLeg2","rotation":[-0.07416336983442,0.0319163985550404,0.336543351411819,0.938200235366821],"scale":[1.00000095367432,0.999998986721039,1],"translation":[0.0340102724730968,0.000000423789003889397,-0.00000005483627]},{"children":[32],"name":"Fox_F_RLegAnkle","rotation":[0.0558148249983788,-0.04853330925107,0.00641391519457102,0.997240245342255],"scale":[1,1,1],"translation":[0.0326986238360405,0,0]},{"name":"Fox_F_RLegDigit11","rotation":[0.00000371867031390138,0.0000063699276324769,0.509984254837036,0.860183715820312],"scale":[1.00000202655792,0.999997973442078,1],"translation":[0.0102812061086297,0.00093353982083499,0.000000293254856842395]},{"children":[34],"name":"Fox_LLeg1","rotation":[0.809275686740875,0.561885058879852,0.0319428294897079,-0.16833797097206],"scale":[1.00000095367432,0.999998986721039,1.00000095367432],"translation":[0,0,0.0192754901945591]},{"children":[35],"name":"Fox_LLeg2","rotation":[0.0281502399593592,-0.05148329213262,0.965064287185669,-0.25535839796066],"scale":[1,0.999998986721039,1],"translation":[0.0358892753720284,-0.0000000911951,0.0000000619888282926695]},{"children":[36],"name":"Fox_LLegAnkle","rotation":[0.100916996598244,-0.2055626064539,0.956489324569702,0.180798187851906],"scale":[1,0.999998986721039,1],"translation":[0.0258319824934006,0.00000000119209286886246,-0]},{"name":"Fox_LLegDigit11","rotation":[0.0000661569793010131,0.00028318798285909,0.228003397583961,0.973660290241241],"scale":[1,1,1],"translation":[0.0325394757091999,0.00077512807911261,0.00000000238418573772492]},{"children":[38],"name":"Fox_RLeg1","rotation":[0.807975649833679,0.559579193592072,-0.03445933759212,0.181270614266396],"scale":[1.00000095367432,0.999998986721039,1],"translation":[-0.00000000119209,0,-0.01927549391985]},{"children":[39],"name":"Fox_RLeg2","rotation":[-0.02844193018973,0.0516463369131088,0.964163839817047,-0.25867319107056],"scale":[1,1,1],"translation":[0.0358892679214478,-0.0000000834465,-0.00000007390976]},{"children":[40],"name":"Fox_RLegAnkle","rotation":[-0.10700587183237,0.217689007520676,0.952425241470337,0.184519365429878],"scale":[1,1,1.00000095367432],"translation":[0.0258319843560457,-0,0]},{"name":"Fox_RLegDigit11","rotation":[-0.0001719234715,-0.00073398277164,0.227982237935066,0.973664999008179],"scale":[1,1,1],"translation":[0.0325394794344902,0.00077513052383437,-0.00000000238419]}],"samplers":[{}],"scene":0,"scenes":[{"name":"Root Scene","nodes":[0,1]}],"skins":[{"inverseBindMatrices":43,"joints":[17,23,2,9,10,25,26,18,19,16,11,12,20,13,33,14,15,34,35,36,3,4,5,6,7,8,24,27,28,21,29,22,30,37,31,32,38,39,40],"skeleton":2},{"joints":[2,3,4,5,6,7,8,9,10,11,12,13,14,15,16,17,18,19,20,21,22,23,24,25,26,27,28,29,30,31,32,33,34,35,36,37,38,39,40]}],"textures":[{"name":"Map #2","sampler":0,"source":0},{"name":"Map #4","sampler":0,"source":1}]}