{"accessors":[{"bufferView":0,"byteOffset":0,"componentType":5126,"count":25,"max":[0.800000011920929],"min":[0],"type":"SCALAR"},{"bufferView":1,"byteOffset":0,"componentType":5126,"count":25,"type":"VEC3"},{"bufferView":2,"byteOffset":0,"componentType":5126,"count":25,"type":"VEC4"},{"bufferView":3,"byteOffset":0,"componentType":5126,"count":25,"type":"VEC3"},{"bufferView":4,"byteOffset":0,"componentType":5126,"count":25,"type":"VEC4"},{"bufferView":5,"byteOffset":0,"componentType":5126,"count":25,"type":"VEC3"},{"bufferView":6,"byteOffset":0,"componentType":5126,"count":25,"type":"VEC4"},{"bufferView":7,"byteOffset":0,"componentType":5126,"count":25,"type":"VEC3"},{"bufferView":8,"byteOffset":0,"componentType":5126,"count":25,"type":"VEC4"},{"bufferView":9,"byteOffset":0,"componentType":5126,"count":25,"type":"VEC3"},{"bufferView":10,"byteOffset":0,"componentType":5126,"count":25,"type":"VEC4"},{"bufferView":11,"byteOffset":0,"componentType":5126,"count":25,"type":"VEC3"},{"bufferView":12,"byteOffset":0,"componentType":5126,"count":25,"type":"VEC4"},{"bufferView":13,"byteOffset":0,"componentType":5126,"count":25,"type":"VEC3"},{"bufferView":14,"byteOffset":0,"componentType":5126,"count":25,"type":"VEC4"},{"bufferView":15,"byteOffset":0,"componentType":5126,"count":25,"type":"VEC4"},{"bufferView":16,"byteOffset":0,"componentType":5126,"count":25,"type":"VEC4"},{"bufferView":17,"byteOffset":0,"componentType":5126,"count":25,"type":"VEC4"},{"bufferView":18,"byteOffset":0,"componentType":5126,"count":25,"type":"VEC4"},{"bufferView":19,"byteOffset":0,"componentType":5126,"count":25,"type":"VEC4"},{"bufferView":20,"byteOffset":0,"componentType":5126,"count":25,"type":"VEC4"},{"bufferView":21,"byteOffset":0,"componentType":5126,"count":25,"type":"VEC4"},{"bufferView":22,"byteOffset":0,"componentType":5126,"count":25,"type":"VEC4"},{"bufferView":23,"byteOffset":0,"componentType":5126,"count":25,"type":"VEC4"},{"bufferView":24,"byteOffset":0,"componentType":5126,"count":25,"type":"VEC3"},{"bufferView":25,"byteOffset":0,"componentType":5126,"count":25,"type":"VEC4"},{"bufferView":26,"byteOffset":0,"componentType":5126,"count":25,"type":"VEC3"},{"bufferView":27,"byteOffset":0,"componentType":5126,"count":25,"type":"VEC4"},{"bufferView":28,"byteOffset":0,"componentType":5126,"count":25,"type":"VEC3"},{"bufferView":29,"byteOffset":0,"componentType":5126,"count":25,"type":"VEC4"},{"bufferView":30,"byteOffset":0,"componentType":5126,"count":25,"type":"VEC3"},{"bufferView":31,"byteOffset":0,"componentType":5126,"count":25,"type":"VEC3"},{"bufferView":32,"byteOffset":0,"componentType":5126,"count":25,"type":"VEC4"},{"bufferView":33,"byteOffset":0,"componentType":5126,"count":25,"type":"VEC3"},{"bufferView":34,"byteOffset":0,"componentType":5126,"count":25,"type":"VEC4"},{"bufferView":35,"byteOffset":0,"componentType":5126,"count":25,"type":"VEC3"},{"bufferView":36,"byteOffset":0,"componentType":5126,"count":25,"type":"VEC3"},{"bufferView":37,"byteOffset":0,"componentType":5126,"count":25,"type":"VEC3"},{"bufferView":38,"byteOffset":0,"componentType":5126,"count":25,"type":"VEC3"},{"bufferView":39,"byteOffset":0,"componentType":5126,"count":25,"type":"VEC3"},{"bufferView":40,"byteOffset":0,"componentType":5126,"count":25,"type":"VEC3"},{"bufferView":41,"byteOffset":0,"componentType":5126,"count":25,"type":"VEC3"},{"bufferView":42,"byteOffset":0,"componentType":5126,"count":25,"type":"VEC4"},{"bufferView":43,"byteOffset":0,"componentType":5126,"count":25,"type":"VEC4"},{"bufferView":44,"byteOffset":0,"componentType":5126,"count":25,"type":"VEC4"},{"bufferView":45,"byteOffset":0,"componentType":5126,"count":25,"type":"VEC4"},{"bufferView":46,"byteOffset":0,"componentType":5126,"count":25,"type":"VEC4"},{"bufferView":47,"byteOffset":0,"componentType":5126,"count":25,"type":"VEC4"},{"bufferView":48,"byteOffset":0,"componentType":5126,"count":25,"type":"VEC4"},{"bufferView":49,"byteOffset":0,"componentType":5126,"count":25,"type":"VEC4"},{"bufferView":50,"byteOffset":0,"componentType":5126,"count":25,"type":"VEC4"},{"bufferView":51,"byteOffset":0,"componentType":5126,"count":25,"type":"VEC4"},{"bufferView":52,"byteOffset":0,"componentType":5126,"count":25,"type":"VEC3"},{"bufferView":53,"byteOffset":0,"componentType":5126,"count":25,"type":"VEC4"},{"bufferView":54,"byteOffset":0,"componentType":5126,"count":25,"type":"VEC3"},{"bufferView":55,"byteOffset":0,"componentType":5126,"count":25,"type":"VEC4"},{"bufferView":56,"byteOffset":0,"componentType":5126,"count":25,"type":"VEC3"},{"bufferView":57,"byteOffset":0,"componentType":5123,"count":10350,"type":"SCALAR"},{"bufferView":58,"byteOffset":0,"componentType":5126,"count":2266,"max":[0.0510667748749256,0.180800184607506,0.169082224369049],"min":[-0.05106677487493,-0.09766451269388,0.000000000745058015283462],"type":"VEC3"},{"bufferView":59,"byteOffset":0,"componentType":5126,"count":2266,"type":"VEC3"},{"bufferView":60,"byteOffset":0,"componentType":5126,"count":2266,"type":"VEC4"},{"bufferView":61,"byteOffset":0,"componentType":5126,"count":2266,"type":"VEC2"},{"bufferView":62,"byteOffset":0,"componentType":5123,"count":2266,"type":"VEC4"},{"bufferView":63,"byteOffset":0,"componentType":5126,"count":2266,"type":"VEC4"},{"bufferView":64,"byteOffset":0,"componentType":5126,"count":39,"type":"MAT4"}],"animations":[{"channels":[{"sampler":0,"target":{"node":2,"path":"translation"}},{"sampler":1,"target":{"node":2,"path":"rotation"}},{"sampler":2,"target":{"node":3,"path":"translation"}},{"sampler":3,"target":{"node":3,"path":"rotation"}},{"sampler":4,"target":{"node":4,"path":"translation"}},{"sampler":5,"target":{"node":4,"path":"rotation"}},{"sampler":6,"target":{"node":5,"path":"translation"}},{"sampler":7,"target":{"node":5,"path":"rotation"}},{"sampler":8,"target":{"node":6,"path":"translation"}},{"sampler":9,"target":{"node":6,"path":"rotation"}},{"sampler":10,"target":{"node":7,"path":"translation"}},{"sampler":11,"target":{"node":7,"path":"rotation"}},{"sampler":12,"target":{"node":8,"path":"translation"}},{"sampler":13,"target":{"node":8,"path":"rotation"}},{"sampler":14,"target":{"node":9,"path":"rotation"}},{"sampler":15,"target":{"node":10,"path":"rotation"}},{"sampler":16,"target":{"node":11,"path":"rotation"}},{"sampler":17,"target":{"node":12,"path":"rotation"}},{"sampler":18,"target":{"node":13,"path":"rotation"}},{"sampler":19,"target":{"node":14,"path":"rotation"}},{"sampler":20,"target":{"node":15,"path":"rotation"}},{"sampler":21,"target":{"node":16,"path":"rotation"}},{"sampler":22,"target":{"node":17,"path":"rotation"}},{"sampler":23,"target":{"node":18,"path":"translation"}},{"sampler":24,"target":{"node":18,"path":"rotation"}},{"sampler":25,"target":{"node":19,"path":"translation"}},{"sampler":26,"target":{"node":19,"path":"rotation"}},{"sampler":27,"target":{"node":20,"path":"translation"}},{"sampler":28,"target":{"node":20,"path":"rotation"}},{"sampler":29,"target":{"node":20,"path":"scale"}},{"sampler":30,"target":{"node":21,"path":"translation"}},{"sampler":31,"target":{"node":21,"path":"rotation"}},{"sampler":32,"target":{"node":22,"path":"translation"}},{"sampler":33,"target":{"node":22,"path":"rotation"}},{"sampler":34,"target":{"node":22,"path":"scale"}},{"sampler":35,"target":{"node":23,"path":"translation"}},{"sampler":36,"target":{"node":24,"path":"translation"}},{"sampler":37,"target":{"node":25,"path":"translation"}},{"sampler":38,"target":{"node":26,"path":"translation"}},{"sampler":39,"target":{"node":27,"path":"translation"}},{"sampler":40,"target":{"node":28,"path":"translation"}},{"sampler":41,"target":{"node":29,"path":"rotation"}},{"sampler":42,"target":{"node":30,"path":"rotation"}},{"sampler":43,"target":{"node":31,"path":"rotation"}},{"sampler":44,"target":{"node":32,"path":"rotation"}},{"sampler":45,"target":{"node":33,"path":"rotation"}},{"sampler":46,"target":{"node":34,"path":"rotation"}},{"sampler":47,"target":{"node":35,"path":"rotation"}},{"sampler":48,"target":{"node":36,"path":"rotation"}},{"sampler":49,"target":{"node":37,"path":"rotation"}},{"sampler":50,"target":{"node":38,"path":"rotation"}},{"sampler":51,"target":{"node":38,"path":"scale"}},{"sampler":52,"target":{"node":39,"path":"rotation"}},{"sampler":53,"target":{"node":39,"path":"scale"}},{"sampler":54,"target":{"node":40,"path":"rotation"}},{"sampler":55,"target":{"node":40,"path":"scale"}}],"name":"Take 001","samplers":[{"input":0,"interpolation":"LINEAR","output":1},{"input":0,"interpolation":"LINEAR","output":2},{"input":0,"interpolation":"LINEAR","output":3},{"input":0,"interpolation":"LINEAR","output":4},{"input":0,"interpolation":"LINEAR","output":5},{"input":0,"interpolation":"LINEAR","output":6},{"input":0,"interpolation":"LINEAR","output":7},{"input":0,"interpolation":"LINEAR","output":8},{"input":0,"interpolation":"LINEAR","output":9},{"input":0,"interpolation":"LINEAR","output":10},{"input":0,"interpolation":"LINEAR","output":11},{"input":0,"interpolation":"LINEAR","output":12},{"input":0,"interpolation":"LINEAR","output":13},{"input":0,"interpolation":"LINEAR","output":14},{"input":0,"interpolation":"LINEAR","output":15},{"input":0,"interpolation":"LINEAR","output":16},{"input":0,"interpolation":"LINEAR","output":17},{"input":0,"interpolation":"LINEAR","output":18},{"input":0,"interpolation":"LINEAR","output":19},{"input":0,"interpolation":"LINEAR","output":20},{"input":0,"interpolation":"LINEAR","output":21},{"input":0,"interpolation":"LINEAR","output":22},{"input":0,"interpolation":"LINEAR","output":23},{"input":0,"interpolation":"LINEAR","output":24},{"input":0,"interpolation":"LINEAR","output":25},{"input":0,"interpolation":"LINEAR","output":26},{"input":0,"interpolation":"LINEAR","output":27},{"input":0,"interpolation":"LINEAR","output":28},{"input":0,"interpolation":"LINEAR","output":29},{"input":0,"interpolation":"LINEAR","output":30},{"input":0,"interpolation":"LINEAR","output":31},{"input":0,"interpolation":"LINEAR","output":32},{"input":0,"interpolation":"LINEAR","output":33},{"input":0,"interpolation":"LINEAR","output":34},{"input":0,"interpolation":"LINEAR","output":35},{"input":0,"interpolation":"LINEAR","output":36},{"input":0,"interpolation":"LINEAR","output":37},{"input":0,"interpolation":"LINEAR","output":38},{"input":0,"interpolation":"LINEAR","output":39},{"input":0,"interpolation":"LINEAR","output":40},{"input":0,"interpolation":"LINEAR","output":41},{"input":0,"interpolation":"LINEAR","output":42},{"input":0,"interpolation":"LINEAR","output":43},{"input":0,"interpolation":"LINEAR","output":44},{"input":0,"interpolation":"LINEAR","output":45},{"input":0,"interpolation":"LINEAR","output":46},{"input":0,"interpolation":"LINEAR","output":47},{"input":0,"interpolation":"LINEAR","output":48},{"input":0,"interpolation":"LINEAR","output":49},{"input":0,"interpolation":"LINEAR","output":50},{"input":0,"interpolation":"LINEAR","output":51},{"input":0,"interpolation":"LINEAR","output":52},{"input":0,"interpolation":"LINEAR","output":53},{"input":0,"interpolation":"LINEAR","output":54},{"input":0,"interpolation":"LINEAR","output":55},{"input":0,"interpolation":"LINEAR","output":56}]}],"asset":{"generator":"FBX2glTF v0.13.1","version":"2.0"},"bufferViews":[{"buffer":0,"byteLength":100,"byteOffset":0},{"buffer":0,"byteLength":300,"byteOffset":100},{"buffer":0,"byteLength":400,"byteOffset":400},{"buffer":0,"byteLength":300,"byteOffset":800},{"buffer":0,"byteLength":400,"byteOffset":1100},{"buffer":0,"byteLength":300,"byteOffset":1500},{"buffer":0,"byteLength":400,"byteOffset":1800},{"buffer":0,"byteLength":300,"byteOffset":2200},{"buffer":0,"byteLength":400,"byteOffset":2500},{"buffer":0,"byteLength":300,"byteOffset":2900},{"buffer":0,"byteLength":400,"byteOffset":3200},{"buffer":0,"byteLength":300,"byteOffset":3600},{"buffer":0,"byteLength":400,"byteOffset":3900},{"buffer":0,"byteLength":300,"byteOffset":4300},{"buffer":0,"byteLength":400,"byteOffset":4600},{"buffer":0,"byteLength":400,"byteOffset":5000},{"buffer":0,"byteLength":400,"byteOffset":5400},{"buffer":0,"byteLength":400,"byteOffset":5800},{"buffer":0,"byteLength":400,"byteOffset":6200},{"buffer":0,"byteLength":400,"byteOffset":6600},{"buffer":0,"byteLength":400,"byteOffset":7000},{"buffer":0,"byteLength":400,"byteOffset":7400},{"buffer":0,"byteLength":400,"byteOffset":7800},{"buffer":0,"byteLength":400,"byteOffset":8200},{"buffer":0,"byteLength":300,"byteOffset":8600},{"buffer":0,"byteLength":400,"byteOffset":8900},{"buffer":0,"byteLength":300,"byteOffset":9300},{"buffer":0,"byteLength":400,"byteOffset":9600},{"buffer":0,"byteLength":300,"byteOffset":10000},{"buffer":0,"byteLength":400,"byteOffset":10300},{"buffer":0,"byteLength":300,"byteOffset":10700},{"buffer":0,"byteLength":300,"byteOffset":11000},{"buffer":0,"byteLength":400,"byteOffset":11300},{"buffer":0,"byteLength":300,"byteOffset":11700},{"buffer":0,"byteLength":400,"byteOffset":12000},{"buffer":0,"byteLength":300,"byteOffset":12400},{"buffer":0,"byteLength":300,"byteOffset":12700},{"buffer":0,"byteLength":300,"byteOffset":13000},{"buffer":0,"byteLength":300,"byteOffset":13300},{"buffer":0,"byteLength":300,"byteOffset":13600},{"buffer":0,"byteLength":300,"byteOffset":13900},{"buffer":0,"byteLength":300,"byteOffset":14200},{"buffer":0,"byteLength":400,"byteOffset":14500},{"buffer":0,"byteLength":400,"byteOffset":14900},{"buffer":0,"byteLength":400,"byteOffset":15300},{"buffer":0,"byteLength":400,"byteOffset":15700},{"buffer":0,"byteLength":400,"byteOffset":16100},{"buffer":0,"byteLength":400,"byteOffset":16500},{"buffer":0,"byteLength":400,"byteOffset":16900},{"buffer":0,"byteLength":400,"byteOffset":17300},{"buffer":0,"byteLength":400,"byteOffset":17700},{"buffer":0,"byteLength":400,"byteOffset":18100},{"buffer":0,"byteLength":300,"byteOffset":18500},{"buffer":0,"byteLength":400,"byteOffset":18800},{"buffer":0,"byteLength":300,"byteOffset":19200},{"buffer":0,"byteLength":400,"byteOffset":19500},{"buffer":0,"byteLength":300,"byteOffset":19900},{"buffer":0,"byteLength":20700,"byteOffset":20200,"target":34963},{"buffer":0,"byteLength":27192,"byteOffset":40900,"target":34962},{"buffer":0,"byteLength":27192,"byteOffset":68092,"target":34962},{"buffer":0,"byteLength":36256,"byteOffset":95284,"target":34962},{"buffer":0,"byteLength":18128,"byteOffset":131540,"target":34962},{"buffer":0,"byteLength":18128,"byteOffset":149668,"target":34962},{"buffer":0,"byteLength":36256,"byteOffset":167796,"target":34962},{"buffer":0,"byteLength":2496,"byteOffset":204052}],"buffers":[{"byteLength":206548,"uri":"Fox_Attack_Tail.bin"}],"images":[{"name":"toonfoxNM","uri":"toonfoxNM.png"},{"name":"1","uri":"1.psd"}],"materials":[{"alphaMode":"OPAQUE","doubleSided":false,"extras":{"fromFBX":{"isTruePBR":false,"shadingModel":"Phong"}},"name":"08 - Default","normalTexture":{"index":0,"texCoord":0},"pbrMetallicRoughness":{"baseColorFactor":[1,1,1,1],"baseColorTexture":{"index":1,"texCoord":0},"metallicFactor":0.400000005960464,"roughnessFactor":0.422773718833923}}],"meshes":[{"name":"fox","primitives":[{"attributes":{"JOINTS_0":62,"NORMAL":59,"POSITION":58,"TANGENT":60,"TEXCOORD_0":61,"WEIGHTS_0":63},"indices":57,"material":0,"mode":4}]}],"nodes":[{"mesh":0,"name":"fox","rotation":[-0.70710676908493,-0,0,0.70710676908493],"scale":[1,1,1],"skin":0,"translation":[0,0,0]},{"children":[2],"name":"FoxTransform","rotation":[-0.70710676908493,-0,0,0.70710676908493],"scale":[1,1,1],"translation":[0,0,0]},{"children":[3,9,33,37],"name":"Fox_Pelvis","rotation":[-0.5,0.500000059604645,-0.5,0.499999910593033],"scale":[1,1,1],"translation":[-0.00000000152062,0.0347875021398067,0.0729599148035049]},{"children":[4],"name":"Fox_Tail1","rotation":[-0.00578312622383,0.00066510058240965,0.992704510688782,0.12043222784996],"scale":[1.00000202655792,1,0.999997973442078],"translation":[-0.01636436022818,-0.00745293591172,0.00000000162107649526178]},{"children":[5],"name":"Fox_Tail2","rotation":[0.00409768242388964,0.0301935859024525,-0.11267267167568,0.993164837360382],"scale":[0.999997973442078,0.999997973442078,1.00000202655792],"translation":[0.0267343688756227,0.0000000953674259562831,0.000000000111758706455856]},{"children":[6],"name":"Fox_Tail3","rotation":[0.0188822448253632,0.0447683557868004,-0.12783224880695,0.990604937076569],"scale":[1.00000500679016,1.00000095367432,0.9999960064888],"translation":[0.0208615902811289,0.0000000190734859017994,-0.00000000610948]},{"children":[7],"name":"Fox_Tail4","rotation":[0.0129475044086576,-0.01480458118021,-0.07196369767189,0.997213304042816],"scale":[0.999997019767761,1,1.00000405311584],"translation":[0.0220820810645819,-0.00000008583068,-0.00000001192093]},{"children":[8],"name":"Fox_Tail5","rotation":[-0.0079337246716,-0.07404890656471,0.00021367547742556,0.997223019599915],"scale":[0.999998986721039,1.00000298023224,0.999997973442078],"translation":[0.0203103348612785,-0.00000017166137,-0.00000003129244]},{"name":"Fox_Tail6","rotation":[0.00982683338224888,-0.09310104697943,0.0456993356347084,0.994558811187744],"scale":[1.00000298023224,1.00000095367432,0.999997019767761],"translation":[0.0182016659528017,-0.00000020980835,-0.00000001847744]},{"children":[10],"name":"Fox_Spine1","rotation":[0.000000187026785170019,0.00000240214581026521,0.0344132669270039,0.999407708644867],"scale":[1,1,1],"translation":[0,0,0]},{"children":[11],"name":"Fox_Spine2","rotation":[0.0000000220199520839515,0.00000000803869326659878,-0.0599413216114,0.998201906681061],"scale":[1,1,1],"translation":[0.0335060320794582,0,0.0000000000000181898936288828]},{"children":[12,16,29],"name":"Fox_Ribcage","rotation":[0.000000170717299852186,-0.00000243350041,-0.0616700835526,0.998096585273743],"scale":[1,1,1],"translation":[0.0335060358047485,0,0.00000000000000000000006776263427]},{"children":[13],"name":"Fox_F_LLeg1","rotation":[0.517699718475342,0.855380892753601,0.00822713878005743,0.0155829498544335],"scale":[1.00000095367432,0.999998986721039,1],"translation":[0.00239977822639048,0.00042315004975535,0.0251081679016352]},{"children":[14],"name":"Fox_F_LLeg2","rotation":[0.073341004550457,-0.03452714160085,0.364018499851227,0.927857458591461],"scale":[1.00000095367432,1.00000095367432,1.00000095367432],"translation":[0.0340102799236774,0.000000408887842695549,0.0000000596046447753906]},{"children":[15],"name":"Fox_F_LLegAnkle","rotation":[-0.03680278360844,0.0565098635852337,0.0289409570395947,0.997303664684296],"scale":[1,1,1],"translation":[0.0326986238360405,-0,0]},{"name":"Fox_F_LLegDigit11","rotation":[-0.00003973158891,-0.00006685052358,0.510336935520172,0.859974563121796],"scale":[1,1,1],"translation":[0.01028120983392,0.00093354459386318,-0.00000029325486]},{"children":[17],"name":"Fox_Spine","rotation":[0.00025346034090034,-0.01116860564798,-0.40311285853386,0.915082097053528],"scale":[1,1,1],"translation":[0,0,0]},{"children":[18,19,21,23,24,25,26,27,28],"name":"Fox_Head","rotation":[0.0129025662317872,-0.00479857670143,0.237951874732971,0.971179366111755],"scale":[1,1,1],"translation":[0.0369065552949905,-0.00000000953674,0]},{"name":"Fox_Jaw","rotation":[-0.00000005114248,0.0000000233606378685636,0.382683455944061,0.923879504203796],"scale":[1.00000095367432,1,1],"translation":[0.0127219390124083,0.018921660259366,0.00000000208616257602046]},{"children":[20],"name":"Fox_LEar1","rotation":[0.234097674489021,-0.29521343111992,-0.33793371915817,0.862466275691986],"scale":[1.00000500679016,1,0.999997019767761],"translation":[0.0109870713204145,-0.03008022159338,0.0253105256706476]},{"name":"Fox_LEar2","rotation":[-0.00106821081135,0.00569590646773577,0.0945053845643997,0.995507478713989],"scale":[0.999967992305756,1.00003302097321,0.999997973442078],"translation":[0.016462555155158,-0.00000007152557,0.000001180171921078]},{"children":[22],"name":"Fox_REar1","rotation":[-0.25942274928093,0.284304946660995,-0.38576516509056,0.838484227657318],"scale":[0.999993979930878,1.00000202655792,1.00000703334808],"translation":[0.0109867285937071,-0.03007995523512,-0.02531072497368]},{"name":"Fox_REar2","rotation":[-0.01652395538986,0.0025758019182831,-0.01829546131194,0.999692738056183],"scale":[1.0000319480896,0.999994993209839,0.999975979328156],"translation":[0.0164634883403778,-0.00000025749205,0.000000736713388960197]},{"name":"Fox_LEye","rotation":[0.690345585346222,0.153045907616615,0.212631031870842,0.674379706382751],"scale":[1,1.00000095367432,1],"translation":[0.0160656552761793,-0.0020738649182,0.0185949541628361]},{"name":"Fox_REye","rotation":[-0.69034564495087,-0.15304592251778,0.212630972266197,0.674379646778107],"scale":[1,1.00000095367432,1],"translation":[0.0160656347870827,-0.00207386002876,-0.01859496161342]},{"name":"Fox_UpperLEyelid","rotation":[0.733772754669189,-0.03472803533077,0.032037191092968,0.677749991416931],"scale":[1,1,1],"translation":[0.0160656552761793,-0.00207383162342,0.0185949578881264]},{"name":"Fox_LowerLEyelid","rotation":[0.619447231292725,0.308799535036087,0.394631505012512,0.604312777519226],"scale":[1.00000095367432,1.00000095367432,1],"translation":[0.0160656552761793,-0.00207383162342,0.0185949578881264]},{"name":"Fox_UpperREyelid","rotation":[-0.73377275466919,0.0347280688583851,0.0320372059941292,0.677750051021576],"scale":[1,1,1],"translation":[0.0160656347870827,-0.00207386002876,-0.01859496161342]},{"name":"Fox_LowerREyelid","rotation":[-0.61944717168808,-0.30879971385002,0.394631326198578,0.604312896728516],"scale":[1.00000095367432,1,1],"translation":[0.0160656347870827,-0.00207386002876,-0.01859496161342]},{"children":[30],"name":"Fox_F_RLeg1","rotation":[0.423275262117386,0.905906200408936,-0.01227965392172,-0.00460817851126],"scale":[1,1,1],"translation":[0.00239976402372122,0.00042315482278354,-0.02510816045105]},{"children":[31],"name":"Fox_F_RLeg2","rotation":[-0.07480998337269,0.0296653062105179,0.312872231006622,0.946379601955414],"scale":[1.00000095367432,1,1],"translation":[0.0340102650225163,0.000000412464146393177,-0.00000004053116]},{"children":[32],"name":"Fox_F_RLegAnkle","rotation":[0.0426535569131374,-0.05211649090052,0.190799653530121,0.979316115379333],"scale":[1.00000095367432,1,1],"translation":[0.0326986238360405,-0.00000000119209,0.00000000238418573772492]},{"name":"Fox_F_RLegDigit11","rotation":[-0.0000314789504,-0.00005305451123,0.509625136852264,0.860396564006805],"scale":[1,0.999998986721039,1],"translation":[0.0102812089025974,0.00093354220734909,0.000000293254856842395]},{"children":[34],"name":"Fox_LLeg1","rotation":[0.702389419078827,0.711652994155884,-0.01049888785928,0.00942619703710079],"scale":[1.00000095367432,0.999998986721039,1],"translation":[0.00000000238418573772492,0.00000000953674295089968,0.0192754827439785]},{"children":[35],"name":"Fox_LLeg2","rotation":[-0.08307840675116,0.0345790684223175,-0.65259581804276,0.752343654632568],"scale":[1,1,1],"translation":[0.0358892753720284,-0.00000008821488,0.0000000643730118099484]},{"children":[36],"name":"Fox_LLegAnkle","rotation":[0.0707468017935753,-0.03221606835723,0.727505922317505,0.681683361530304],"scale":[0.999997019767761,1.00000298023224,1],"translation":[0.0258319806307554,-0,0.00000000000000000888178399847791]},{"name":"Fox_LLegDigit11","rotation":[0.00026217897539027,0.00043417318374849,0.635808050632477,0.771847069263458],"scale":[0.999997019767761,1.00000095367432,1],"translation":[0.0325394719839096,0.00077512738062068,0.00000000238418573772492]},{"children":[38],"name":"Fox_RLeg1","rotation":[0.892944931983948,0.449942767620087,0.00611226633191109,-0.01278758235276],"scale":[1.00000095367432,0.999998986721039,1],"translation":[-0.00000000238419,-0,-0.01927549764514]},{"children":[39],"name":"Fox_RLeg2","rotation":[0.0685698315501213,-0.04146236926317,-0.77891260385513,0.621992111206055],"scale":[1.00000596046448,0.9999960064888,1.00000095367432],"translation":[0.0358892902731895,-0.00000007629394,-0.00000007152557]},{"children":[40],"name":"Fox_RLegAnkle","rotation":[-0.06999341398478,0.0128799751400948,0.623661518096924,0.778448045253754],"scale":[1.0000079870224,0.9999920129776,1],"translation":[0.0258319843560457,0.00000000000000000888178399847791,-0.00000000238419]},{"name":"Fox_RLegDigit11","rotation":[-0.00015268294374,-0.00030121498276,0.63580322265625,0.771851122379303],"scale":[1.00000298023224,0.9999920129776,1],"translation":[0.0325394682586193,0.00077512976713478,0]}],"samplers":[{}],"scene":0,"scenes":[{"name":"Root Scene","nodes":[0,1]}],"skins":[{"inverseBindMatrices":64,"joints":[17,23,2,9,10,25,26,18,19,16,11,12,20,13,33,14,15,34,35,36,3,4,5,6,7,8,24,27,28,21,29,22,30,37,31,32,38,39,40],"skeleton":2},{"joints":[2,3,4,5,6,7,8,9,10,11,12,13,14,15,16,17,18,19,20,21,22,23,24,25,26,27,28,29,30,31,32,33,34,35,36,37,38,39,40]}],"textures":[{"name":"Map #2","sampler":0,"source":0},{"name":"Map #4","sampler":0,"source":1}]}