{"accessors":[{"bufferView":0,"byteOffset":0,"componentType":5126,"count":39,"max":[1.26666665077209],"min":[0],"type":"SCALAR"},{"bufferView":1,"byteOffset":0,"componentType":5126,"count":39,"type":"VEC4"},{"bufferView":2,"byteOffset":0,"componentType":5126,"count":39,"type":"VEC4"},{"bufferView":3,"byteOffset":0,"componentType":5126,"count":39,"type":"VEC4"},{"bufferView":4,"byteOffset":0,"componentType":5126,"count":39,"type":"VEC4"},{"bufferView":5,"byteOffset":0,"componentType":5126,"count":39,"type":"VEC4"},{"bufferView":6,"byteOffset":0,"componentType":5126,"count":39,"type":"VEC4"},{"bufferView":7,"byteOffset":0,"componentType":5126,"count":39,"type":"VEC4"},{"bufferView":8,"byteOffset":0,"componentType":5126,"count":39,"type":"VEC4"},{"bufferView":9,"byteOffset":0,"componentType":5126,"count":39,"type":"VEC4"},{"bufferView":10,"byteOffset":0,"componentType":5126,"count":39,"type":"VEC4"},{"bufferView":11,"byteOffset":0,"componentType":5126,"count":39,"type":"VEC4"},{"bufferView":12,"byteOffset":0,"componentType":5126,"count":39,"type":"VEC4"},{"bufferView":13,"byteOffset":0,"componentType":5126,"count":39,"type":"VEC3"},{"bufferView":14,"byteOffset":0,"componentType":5126,"count":39,"type":"VEC4"},{"bufferView":15,"byteOffset":0,"componentType":5126,"count":39,"type":"VEC3"},{"bufferView":16,"byteOffset":0,"componentType":5126,"count":39,"type":"VEC4"},{"bufferView":17,"byteOffset":0,"componentType":5126,"count":39,"type":"VEC3"},{"bufferView":18,"byteOffset":0,"componentType":5126,"count":39,"type":"VEC4"},{"bufferView":19,"byteOffset":0,"componentType":5126,"count":39,"type":"VEC3"},{"bufferView":20,"byteOffset":0,"componentType":5126,"count":39,"type":"VEC4"},{"bufferView":21,"byteOffset":0,"componentType":5126,"count":39,"type":"VEC4"},{"bufferView":22,"byteOffset":0,"componentType":5126,"count":39,"type":"VEC4"},{"bufferView":23,"byteOffset":0,"componentType":5126,"count":39,"type":"VEC4"},{"bufferView":24,"byteOffset":0,"componentType":5126,"count":39,"type":"VEC4"},{"bufferView":25,"byteOffset":0,"componentType":5126,"count":39,"type":"VEC3"},{"bufferView":26,"byteOffset":0,"componentType":5126,"count":39,"type":"VEC4"},{"bufferView":27,"byteOffset":0,"componentType":5126,"count":39,"type":"VEC3"},{"bufferView":28,"byteOffset":0,"componentType":5126,"count":39,"type":"VEC4"},{"bufferView":29,"byteOffset":0,"componentType":5126,"count":39,"type":"VEC4"},{"bufferView":30,"byteOffset":0,"componentType":5126,"count":39,"type":"VEC4"},{"bufferView":31,"byteOffset":0,"componentType":5126,"count":39,"type":"VEC4"},{"bufferView":32,"byteOffset":0,"componentType":5126,"count":39,"type":"VEC4"},{"bufferView":33,"byteOffset":0,"componentType":5126,"count":39,"type":"VEC4"},{"bufferView":34,"byteOffset":0,"componentType":5126,"count":39,"type":"VEC4"},{"bufferView":35,"byteOffset":0,"componentType":5126,"count":39,"type":"VEC4"},{"bufferView":36,"byteOffset":0,"componentType":5126,"count":39,"type":"VEC4"},{"bufferView":37,"byteOffset":0,"componentType":5126,"count":39,"type":"VEC4"},{"bufferView":38,"byteOffset":0,"componentType":5126,"count":39,"type":"VEC4"},{"bufferView":39,"byteOffset":0,"componentType":5126,"count":39,"type":"VEC4"},{"bufferView":40,"byteOffset":0,"componentType":5126,"count":39,"type":"VEC4"},{"bufferView":41,"byteOffset":0,"componentType":5123,"count":10350,"type":"SCALAR"},{"bufferView":42,"byteOffset":0,"componentType":5126,"count":2266,"max":[0.0510667748749256,0.181155368685722,0.169082224369049],"min":[-0.05106677487493,-0.09766451269388,0.000000000745058015283462],"type":"VEC3"},{"bufferView":43,"byteOffset":0,"componentType":5126,"count":2266,"type":"VEC3"},{"bufferView":44,"byteOffset":0,"componentType":5126,"count":2266,"type":"VEC4"},{"bufferView":45,"byteOffset":0,"componentType":5126,"count":2266,"type":"VEC2"},{"bufferView":46,"byteOffset":0,"componentType":5123,"count":2266,"type":"VEC4"},{"bufferView":47,"byteOffset":0,"componentType":5126,"count":2266,"type":"VEC4"},{"bufferView":48,"byteOffset":0,"componentType":5126,"count":39,"type":"MAT4"}],"animations":[{"channels":[{"sampler":0,"target":{"node":3,"path":"rotation"}},{"sampler":1,"target":{"node":4,"path":"rotation"}},{"sampler":2,"target":{"node":5,"path":"rotation"}},{"sampler":3,"target":{"node":6,"path":"rotation"}},{"sampler":4,"target":{"node":7,"path":"rotation"}},{"sampler":5,"target":{"node":8,"path":"rotation"}},{"sampler":6,"target":{"node":12,"path":"rotation"}},{"sampler":7,"target":{"node":13,"path":"rotation"}},{"sampler":8,"target":{"node":14,"path":"rotation"}},{"sampler":9,"target":{"node":15,"path":"rotation"}},{"sampler":10,"target":{"node":16,"path":"rotation"}},{"sampler":11,"target":{"node":17,"path":"rotation"}},{"sampler":12,"target":{"node":19,"path":"translation"}},{"sampler":13,"target":{"node":19,"path":"rotation"}},{"sampler":14,"target":{"node":20,"path":"translation"}},{"sampler":15,"target":{"node":20,"path":"rotation"}},{"sampler":16,"target":{"node":21,"path":"translation"}},{"sampler":17,"target":{"node":21,"path":"rotation"}},{"sampler":18,"target":{"node":22,"path":"translation"}},{"sampler":19,"target":{"node":22,"path":"rotation"}},{"sampler":20,"target":{"node":23,"path":"rotation"}},{"sampler":21,"target":{"node":24,"path":"rotation"}},{"sampler":22,"target":{"node":25,"path":"rotation"}},{"sampler":23,"target":{"node":26,"path":"rotation"}},{"sampler":24,"target":{"node":27,"path":"translation"}},{"sampler":25,"target":{"node":27,"path":"rotation"}},{"sampler":26,"target":{"node":28,"path":"translation"}},{"sampler":27,"target":{"node":28,"path":"rotation"}},{"sampler":28,"target":{"node":29,"path":"rotation"}},{"sampler":29,"target":{"node":30,"path":"rotation"}},{"sampler":30,"target":{"node":31,"path":"rotation"}},{"sampler":31,"target":{"node":32,"path":"rotation"}},{"sampler":32,"target":{"node":33,"path":"rotation"}},{"sampler":33,"target":{"node":34,"path":"rotation"}},{"sampler":34,"target":{"node":35,"path":"rotation"}},{"sampler":35,"target":{"node":36,"path":"rotation"}},{"sampler":36,"target":{"node":37,"path":"rotation"}},{"sampler":37,"target":{"node":38,"path":"rotation"}},{"sampler":38,"target":{"node":39,"path":"rotation"}},{"sampler":39,"target":{"node":40,"path":"rotation"}}],"name":"Take 001","samplers":[{"input":0,"interpolation":"LINEAR","output":1},{"input":0,"interpolation":"LINEAR","output":2},{"input":0,"interpolation":"LINEAR","output":3},{"input":0,"interpolation":"LINEAR","output":4},{"input":0,"interpolation":"LINEAR","output":5},{"input":0,"interpolation":"LINEAR","output":6},{"input":0,"interpolation":"LINEAR","output":7},{"input":0,"interpolation":"LINEAR","output":8},{"input":0,"interpolation":"LINEAR","output":9},{"input":0,"interpolation":"LINEAR","output":10},{"input":0,"interpolation":"LINEAR","output":11},{"input":0,"interpolation":"LINEAR","output":12},{"input":0,"interpolation":"LINEAR","output":13},{"input":0,"interpolation":"LINEAR","output":14},{"input":0,"interpolation":"LINEAR","output":15},{"input":0,"interpolation":"LINEAR","output":16},{"input":0,"interpolation":"LINEAR","output":17},{"input":0,"interpolation":"LINEAR","output":18},{"input":0,"interpolation":"LINEAR","output":19},{"input":0,"interpolation":"LINEAR","output":20},{"input":0,"interpolation":"LINEAR","output":21},{"input":0,"interpolation":"LINEAR","output":22},{"input":0,"interpolation":"LINEAR","output":23},{"input":0,"interpolation":"LINEAR","output":24},{"input":0,"interpolation":"LINEAR","output":25},{"input":0,"interpolation":"LINEAR","output":26},{"input":0,"interpolation":"LINEAR","output":27},{"input":0,"interpolation":"LINEAR","output":28},{"input":0,"interpolation":"LINEAR","output":29},{"input":0,"interpolation":"LINEAR","output":30},{"input":0,"interpolation":"LINEAR","output":31},{"input":0,"interpolation":"LINEAR","output":32},{"input":0,"interpolation":"LINEAR","output":33},{"input":0,"interpolation":"LINEAR","output":34},{"input":0,"interpolation":"LINEAR","output":35},{"input":0,"interpolation":"LINEAR","output":36},{"input":0,"interpolation":"LINEAR","output":37},{"input":0,"interpolation":"LINEAR","output":38},{"input":0,"interpolation":"LINEAR","output":39},{"input":0,"interpolation":"LINEAR","output":40}]}],"asset":{"generator":"FBX2glTF v0.13.1","version":"2.0"},"bufferViews":[{"buffer":0,"byteLength":156,"byteOffset":0},{"buffer":0,"byteLength":624,"byteOffset":156},{"buffer":0,"byteLength":624,"byteOffset":780},{"buffer":0,"byteLength":624,"byteOffset":1404},{"buffer":0,"byteLength":624,"byteOffset":2028},{"buffer":0,"byteLength":624,"byteOffset":2652},{"buffer":0,"byteLength":624,"byteOffset":3276},{"buffer":0,"byteLength":624,"byteOffset":3900},{"buffer":0,"byteLength":624,"byteOffset":4524},{"buffer":0,"byteLength":624,"byteOffset":5148},{"buffer":0,"byteLength":624,"byteOffset":5772},{"buffer":0,"byteLength":624,"byteOffset":6396},{"buffer":0,"byteLength":624,"byteOffset":7020},{"buffer":0,"byteLength":468,"byteOffset":7644},{"buffer":0,"byteLength":624,"byteOffset":8112},{"buffer":0,"byteLength":468,"byteOffset":8736},{"buffer":0,"byteLength":624,"byteOffset":9204},{"buffer":0,"byteLength":468,"byteOffset":9828},{"buffer":0,"byteLength":624,"byteOffset":10296},{"buffer":0,"byteLength":468,"byteOffset":10920},{"buffer":0,"byteLength":624,"byteOffset":11388},{"buffer":0,"byteLength":624,"byteOffset":12012},{"buffer":0,"byteLength":624,"byteOffset":12636},{"buffer":0,"byteLength":624,"byteOffset":13260},{"buffer":0,"byteLength":624,"byteOffset":13884},{"buffer":0,"byteLength":468,"byteOffset":14508},{"buffer":0,"byteLength":624,"byteOffset":14976},{"buffer":0,"byteLength":468,"byteOffset":15600},{"buffer":0,"byteLength":624,"byteOffset":16068},{"buffer":0,"byteLength":624,"byteOffset":16692},{"buffer":0,"byteLength":624,"byteOffset":17316},{"buffer":0,"byteLength":624,"byteOffset":17940},{"buffer":0,"byteLength":624,"byteOffset":18564},{"buffer":0,"byteLength":624,"byteOffset":19188},{"buffer":0,"byteLength":624,"byteOffset":19812},{"buffer":0,"byteLength":624,"byteOffset":20436},{"buffer":0,"byteLength":624,"byteOffset":21060},{"buffer":0,"byteLength":624,"byteOffset":21684},{"buffer":0,"byteLength":624,"byteOffset":22308},{"buffer":0,"byteLength":624,"byteOffset":22932},{"buffer":0,"byteLength":624,"byteOffset":23556},{"buffer":0,"byteLength":20700,"byteOffset":24180,"target":34963},{"buffer":0,"byteLength":27192,"byteOffset":44880,"target":34962},{"buffer":0,"byteLength":27192,"byteOffset":72072,"target":34962},{"buffer":0,"byteLength":36256,"byteOffset":99264,"target":34962},{"buffer":0,"byteLength":18128,"byteOffset":135520,"target":34962},{"buffer":0,"byteLength":18128,"byteOffset":153648,"target":34962},{"buffer":0,"byteLength":36256,"byteOffset":171776,"target":34962},{"buffer":0,"byteLength":2496,"byteOffset":208032}],"buffers":[{"byteLength":210528,"uri":"Fox_Sit_Yes.bin"}],"images":[{"name":"toonfoxNM","uri":"toonfoxNM.png"},{"name":"1","uri":"1.psd"}],"materials":[{"alphaMode":"OPAQUE","doubleSided":false,"extras":{"fromFBX":{"isTruePBR":false,"shadingModel":"Phong"}},"name":"08 - Default","normalTexture":{"index":0,"texCoord":0},"pbrMetallicRoughness":{"baseColorFactor":[1,1,1,1],"baseColorTexture":{"index":1,"texCoord":0},"metallicFactor":0.400000005960464,"roughnessFactor":0.422773718833923}}],"meshes":[{"name":"fox","primitives":[{"attributes":{"JOINTS_0":46,"NORMAL":43,"POSITION":42,"TANGENT":44,"TEXCOORD_0":45,"WEIGHTS_0":47},"indices":41,"material":0,"mode":4}]}],"nodes":[{"mesh":0,"name":"fox","rotation":[-0.70710676908493,-0,0,0.70710676908493],"scale":[1,1,1],"skin":0,"translation":[0,0,0]},{"children":[2],"name":"FoxTransform","rotation":[-0.70710676908493,-0,0,0.70710676908493],"scale":[1,1,1],"translation":[0,0,0]},{"children":[3,9,33,37],"name":"Fox_Pelvis","rotation":[0.627211272716522,-0.32650563120842,0.627211451530457,-0.32650563120842],"scale":[1,0.999998986721039,1],"translation":[-0.00000000152061,0.0347876027226448,0.0326020978391171]},{"children":[4],"name":"Fox_Tail1","rotation":[0.136571481823921,-0.09337369352579,0.975449740886688,-0.14535245299339],"scale":[1,1,1.00000095367432],"translation":[-0.01636433042586,-0.00745289772749,-0.00000000108364]},{"children":[5],"name":"Fox_Tail2","rotation":[0.00215222593396902,-0.2728316783905,0.00758878234773874,0.962029457092285],"scale":[1,1.00000095367432,1.00000095367432],"translation":[0.0267343129962683,0,-0.00000000059605]},{"children":[6],"name":"Fox_Tail3","rotation":[-0.0028087371029,-0.27202582359314,0.0172352846711874,0.962131500244141],"scale":[0.999998986721039,1,1],"translation":[0.0208616927266121,0.00000000000000000888178399847791,0.00000000238418573772492]},{"children":[7],"name":"Fox_Tail4","rotation":[-0.0198729429394,-0.27026137709618,-0.01244208961725,0.962501466274261],"scale":[1,1.00000095367432,1],"translation":[0.022082157433033,-0,-0.00000000476837]},{"children":[8],"name":"Fox_Tail5","rotation":[-0.04796496406198,-0.26416528224945,-0.01102210115641,0.963220953941345],"scale":[1.00000095367432,1,1],"translation":[0.0203105118125677,0.00000000476837147544984,0.00000000953674295089968]},{"name":"Fox_Tail6","rotation":[-0.07708843797445,-0.25620597600937,-0.02899821475148,0.96310693025589],"scale":[1.00000095367432,1,1],"translation":[0.0182019397616386,0,0]},{"children":[10],"name":"Fox_Spine1","rotation":[0.00000015076211923315,0.00000240899885284307,0.0271432865411043,0.999631524085999],"scale":[1,1,1],"translation":[0,0,0]},{"children":[11],"name":"Fox_Spine2","rotation":[0.0000000589139581563813,-0.00000001339802,-0.05994140729308,0.998201906681061],"scale":[1.00000095367432,1,1],"translation":[0.0335060358047485,0.00000000000000000888178399847791,-0.00000000000002]},{"children":[12,16,29],"name":"Fox_Ribcage","rotation":[0.000000198691751052138,-0.00000236065853,-0.05440898984671,0.998518705368042],"scale":[1,1,1],"translation":[0.0335060358047485,0.00000000000000000888178399847791,-0.00000000000002]},{"children":[13],"name":"Fox_F_LLeg1","rotation":[0.288188010454178,0.957544088363647,0.00739589845761657,-0.00150555907749],"scale":[1,0.999998986721039,1],"translation":[0.00239976402372122,0.00042313814628869,0.0251081809401512]},{"children":[14],"name":"Fox_F_LLeg2","rotation":[0.0741683319211006,-0.03202743828297,0.336379677057266,0.938254773616791],"scale":[1.00000095367432,1,1.00000095367432],"translation":[0.034010261297226,0.000000420212728613478,0.0000000715255694672123]},{"children":[15],"name":"Fox_F_LLegAnkle","rotation":[-0.05582027882338,0.0484774447977543,0.00707744061946869,0.997238159179688],"scale":[1,1.00000095367432,1],"translation":[0.0326986275613308,0,0.00000000238418573772492]},{"name":"Fox_F_LLegDigit11","rotation":[0.0000620733844698407,0.00010542859672568,0.509564578533173,0.860432386398315],"scale":[1,1,1],"translation":[0.0102812051773071,0.00093354220734909,-0.00000029325486]},{"children":[17],"name":"Fox_Spine","rotation":[0.0000000174483147930005,-0.00000003110462,-0.23813669383526,0.971231639385223],"scale":[1.00000095367432,1,1],"translation":[0,0,0]},{"children":[18,19,21,23,24,25,26,27,28],"name":"Fox_Head","rotation":[-0.00000004351143,0.0000000871588383688504,0.403171390295029,0.915124475955963],"scale":[1.00000095367432,1,1],"translation":[0.0369065664708614,0.00000000119209286886246,0]},{"name":"Fox_Jaw","rotation":[-0.00000004591985,0.0000000968847402305073,0.342020064592361,0.939692676067352],"scale":[1.00000095367432,1,1],"translation":[0.0127218384295702,0.0189217757433653,0.00000000401700139818217]},{"children":[20],"name":"Fox_LEar1","rotation":[0.24034421145916,-0.24803654849529,-0.24168257415295,0.906808733940125],"scale":[1.00000405311584,1,0.999997019767761],"translation":[0.0109892701730132,-0.03008533455431,0.025308184325695]},{"name":"Fox_LEar2","rotation":[-0.00624120375142,0.0597075521945953,0.151944279670715,0.986564218997955],"scale":[1.00000596046448,0.999993026256561,0.999998986721039],"translation":[0.0164611618965864,-0.00000005245209,-0.00001278698437]},{"children":[22],"name":"Fox_REar1","rotation":[-0.26982682943344,0.237633347511292,-0.28734940290451,0.887780487537384],"scale":[1.00000500679016,1.00000095367432,0.9999960064888],"translation":[0.0109900897368789,-0.03008858673275,-0.02530859224498]},{"name":"Fox_REar2","rotation":[-0.01856241375208,-0.06091868132353,0.0485237389802933,0.996789753437042],"scale":[0.9999920129776,1.00000298023224,1.00000500679016],"translation":[0.0164619814604521,0.00000196933751794859,-0.00001255333427]},{"name":"Fox_LEye","rotation":[0.69289630651474,0.141422495245934,0.19450531899929,0.679751515388489],"scale":[1.00000095367432,1,1],"translation":[0.0160656496882439,-0.0020738504827,0.0185949541628361]},{"name":"Fox_REye","rotation":[-0.69291430711746,-0.14132457971573,0.19460029900074,0.679726302623749],"scale":[1,1,1],"translation":[0.0160656683146954,-0.00207386002876,-0.01859495788813]},{"name":"Fox_UpperLEyelid","rotation":[0.733772873878479,-0.03472803533077,0.032037265598774,0.677749931812286],"scale":[1,1,1],"translation":[0.0160656403750181,-0.00207388866693,0.018595052883029]},{"name":"Fox_LowerLEyelid","rotation":[0.636071145534515,0.28214618563652,0.36723604798317,0.617207169532776],"scale":[1.00000095367432,1,0.999998986721039],"translation":[0.0160656403750181,-0.00207388866693,0.018595052883029]},{"name":"Fox_UpperREyelid","rotation":[-0.73377275466919,0.0347281023859978,0.0320372842252254,0.677750051021576],"scale":[1,1,1],"translation":[0.0160656590014696,-0.00207390775904,-0.01859505847096]},{"name":"Fox_LowerREyelid","rotation":[-0.63607096672058,-0.28214603662491,0.367236077785492,0.617207407951355],"scale":[1.00000095367432,1,1],"translation":[0.0160656590014696,-0.00207390775904,-0.01859505847096]},{"children":[30],"name":"Fox_F_RLeg1","rotation":[0.288179099559784,0.957547008991241,-0.00738205015659,0.00141874805558473],"scale":[1.00000095367432,1,1],"translation":[0.00239977822639048,0.0004231309867464,-0.02510815300047]},{"children":[31],"name":"Fox_F_RLeg2","rotation":[-0.0741513967514,0.0319809466600418,0.336540818214417,0.938199877738953],"scale":[1.00000095367432,0.999998986721039,1],"translation":[0.0340102650225163,0.000000417828545096199,-0.00000005245209]},{"children":[32],"name":"Fox_F_RLegAnkle","rotation":[0.0557825267314911,-0.04876197874546,0.00640569487586617,0.99723094701767],"scale":[1,1,1],"translation":[0.0326986201107502,0.00000000000000000444089199923895,0]},{"name":"Fox_F_RLegDigit11","rotation":[0.0000917713914532214,0.00015493767568841,0.509985268115997,0.860183119773865],"scale":[1.00000202655792,0.999997973442078,1],"translation":[0.0102812070399523,0.00093353982083499,0.000000290870673325117]},{"children":[34],"name":"Fox_LLeg1","rotation":[0.809284150600433,0.561888813972473,0.0319313742220402,-0.16828697919846],"scale":[1.00000095367432,0.999998986721039,1],"translation":[0,0.00000000953674295089968,0.0192754901945591]},{"children":[35],"name":"Fox_LLeg2","rotation":[0.028100460767746,-0.05149515718222,0.96509051322937,-0.25526252388954],"scale":[1,0.999998986721039,0.999998986721039],"translation":[0.0358892679214478,-0.00000009059906,0.0000000596046447753906]},{"children":[36],"name":"Fox_LLegAnkle","rotation":[0.100843079388142,-0.20551547408104,0.956525921821594,0.18069913983345],"scale":[1,0.999998986721039,1],"translation":[0.0258319824934006,-0,0]},{"name":"Fox_LLegDigit11","rotation":[0.0000627811969025061,0.00026872698799707,0.228000640869141,0.973660945892334],"scale":[1,1,1],"translation":[0.0325394831597805,0.00077513052383437,0.00000000476837147544984]},{"children":[38],"name":"Fox_RLeg1","rotation":[0.807975471019745,0.559579491615295,-0.03445940092206,0.181270584464073],"scale":[1.00000095367432,0.999998986721039,1],"translation":[0.00000000357627860658738,0,-0.01927549391985]},{"children":[39],"name":"Fox_RLeg2","rotation":[-0.02844200283289,0.0516463220119476,0.964163780212402,-0.25867348909378],"scale":[1,1,1],"translation":[0.0358892679214478,-0.00000008225441,-0.00000008106232]},{"children":[40],"name":"Fox_RLegAnkle","rotation":[-0.10701322555542,0.217715173959732,0.952451050281525,0.184350922703743],"scale":[1,1,1],"translation":[0.0258319806307554,0.00000000119209286886246,-0.00000000238419]},{"name":"Fox_RLegDigit11","rotation":[-0.00018247132539,-0.00077842205064,0.227820068597794,0.973702907562256],"scale":[1,1,1],"translation":[0.0325394868850708,0.00077512889401987,-0.00000000238419]}],"samplers":[{}],"scene":0,"scenes":[{"name":"Root Scene","nodes":[0,1]}],"skins":[{"inverseBindMatrices":48,"joints":[17,23,2,9,10,25,26,18,19,16,11,12,20,13,33,14,15,34,35,36,3,4,5,6,7,8,24,27,28,21,29,22,30,37,31,32,38,39,40],"skeleton":2},{"joints":[2,3,4,5,6,7,8,9,10,11,12,13,14,15,16,17,18,19,20,21,22,23,24,25,26,27,28,29,30,31,32,33,34,35,36,37,38,39,40]}],"textures":[{"name":"Map #2","sampler":0,"source":0},{"name":"Map #4","sampler":0,"source":1}]}