{"accessors":[{"bufferView":0,"byteOffset":0,"componentType":5126,"count":61,"max":[2],"min":[0],"type":"SCALAR"},{"bufferView":1,"byteOffset":0,"componentType":5126,"count":61,"type":"VEC3"},{"bufferView":2,"byteOffset":0,"componentType":5126,"count":61,"type":"VEC4"},{"bufferView":3,"byteOffset":0,"componentType":5126,"count":61,"type":"VEC4"},{"bufferView":4,"byteOffset":0,"componentType":5126,"count":61,"type":"VEC4"},{"bufferView":5,"byteOffset":0,"componentType":5126,"count":61,"type":"VEC4"},{"bufferView":6,"byteOffset":0,"componentType":5126,"count":61,"type":"VEC4"},{"bufferView":7,"byteOffset":0,"componentType":5126,"count":61,"type":"VEC4"},{"bufferView":8,"byteOffset":0,"componentType":5126,"count":61,"type":"VEC4"},{"bufferView":9,"byteOffset":0,"componentType":5126,"count":61,"type":"VEC4"},{"bufferView":10,"byteOffset":0,"componentType":5126,"count":61,"type":"VEC4"},{"bufferView":11,"byteOffset":0,"componentType":5126,"count":61,"type":"VEC4"},{"bufferView":12,"byteOffset":0,"componentType":5126,"count":61,"type":"VEC4"},{"bufferView":13,"byteOffset":0,"componentType":5126,"count":61,"type":"VEC4"},{"bufferView":14,"byteOffset":0,"componentType":5126,"count":61,"type":"VEC4"},{"bufferView":15,"byteOffset":0,"componentType":5126,"count":61,"type":"VEC4"},{"bufferView":16,"byteOffset":0,"componentType":5126,"count":61,"type":"VEC4"},{"bufferView":17,"byteOffset":0,"componentType":5126,"count":61,"type":"VEC4"},{"bufferView":18,"byteOffset":0,"componentType":5126,"count":61,"type":"VEC4"},{"bufferView":19,"byteOffset":0,"componentType":5126,"count":61,"type":"VEC4"},{"bufferView":20,"byteOffset":0,"componentType":5126,"count":61,"type":"VEC4"},{"bufferView":21,"byteOffset":0,"componentType":5126,"count":61,"type":"VEC4"},{"bufferView":22,"byteOffset":0,"componentType":5126,"count":61,"type":"VEC4"},{"bufferView":23,"byteOffset":0,"componentType":5126,"count":61,"type":"VEC4"},{"bufferView":24,"byteOffset":0,"componentType":5126,"count":61,"type":"VEC4"},{"bufferView":25,"byteOffset":0,"componentType":5126,"count":61,"type":"VEC4"},{"bufferView":26,"byteOffset":0,"componentType":5126,"count":61,"type":"VEC4"},{"bufferView":27,"byteOffset":0,"componentType":5126,"count":61,"type":"VEC4"},{"bufferView":28,"byteOffset":0,"componentType":5126,"count":61,"type":"VEC4"},{"bufferView":29,"byteOffset":0,"componentType":5126,"count":61,"type":"VEC4"},{"bufferView":30,"byteOffset":0,"componentType":5126,"count":61,"type":"VEC4"},{"bufferView":31,"byteOffset":0,"componentType":5126,"count":61,"type":"VEC4"},{"bufferView":32,"byteOffset":0,"componentType":5126,"count":61,"type":"VEC4"},{"bufferView":33,"byteOffset":0,"componentType":5126,"count":61,"type":"VEC4"},{"bufferView":34,"byteOffset":0,"componentType":5123,"count":10350,"type":"SCALAR"},{"bufferView":35,"byteOffset":0,"componentType":5126,"count":2266,"max":[0.0510667748749256,0.180800184607506,0.169082224369049],"min":[-0.05106677487493,-0.09766451269388,0.000000000745058015283462],"type":"VEC3"},{"bufferView":36,"byteOffset":0,"componentType":5126,"count":2266,"type":"VEC3"},{"bufferView":37,"byteOffset":0,"componentType":5126,"count":2266,"type":"VEC4"},{"bufferView":38,"byteOffset":0,"componentType":5126,"count":2266,"type":"VEC2"},{"bufferView":39,"byteOffset":0,"componentType":5123,"count":2266,"type":"VEC4"},{"bufferView":40,"byteOffset":0,"componentType":5126,"count":2266,"type":"VEC4"},{"bufferView":41,"byteOffset":0,"componentType":5126,"count":39,"type":"MAT4"}],"animations":[{"channels":[{"sampler":0,"target":{"node":2,"path":"translation"}},{"sampler":1,"target":{"node":2,"path":"rotation"}},{"sampler":2,"target":{"node":3,"path":"rotation"}},{"sampler":3,"target":{"node":4,"path":"rotation"}},{"sampler":4,"target":{"node":5,"path":"rotation"}},{"sampler":5,"target":{"node":6,"path":"rotation"}},{"sampler":6,"target":{"node":7,"path":"rotation"}},{"sampler":7,"target":{"node":8,"path":"rotation"}},{"sampler":8,"target":{"node":9,"path":"rotation"}},{"sampler":9,"target":{"node":10,"path":"rotation"}},{"sampler":10,"target":{"node":11,"path":"rotation"}},{"sampler":11,"target":{"node":12,"path":"rotation"}},{"sampler":12,"target":{"node":13,"path":"rotation"}},{"sampler":13,"target":{"node":14,"path":"rotation"}},{"sampler":14,"target":{"node":15,"path":"rotation"}},{"sampler":15,"target":{"node":16,"path":"rotation"}},{"sampler":16,"target":{"node":17,"path":"rotation"}},{"sampler":17,"target":{"node":19,"path":"rotation"}},{"sampler":18,"target":{"node":20,"path":"rotation"}},{"sampler":19,"target":{"node":21,"path":"rotation"}},{"sampler":20,"target":{"node":22,"path":"rotation"}},{"sampler":21,"target":{"node":29,"path":"rotation"}},{"sampler":22,"target":{"node":30,"path":"rotation"}},{"sampler":23,"target":{"node":31,"path":"rotation"}},{"sampler":24,"target":{"node":32,"path":"rotation"}},{"sampler":25,"target":{"node":33,"path":"rotation"}},{"sampler":26,"target":{"node":34,"path":"rotation"}},{"sampler":27,"target":{"node":35,"path":"rotation"}},{"sampler":28,"target":{"node":36,"path":"rotation"}},{"sampler":29,"target":{"node":37,"path":"rotation"}},{"sampler":30,"target":{"node":38,"path":"rotation"}},{"sampler":31,"target":{"node":39,"path":"rotation"}},{"sampler":32,"target":{"node":40,"path":"rotation"}}],"name":"Take 001","samplers":[{"input":0,"interpolation":"LINEAR","output":1},{"input":0,"interpolation":"LINEAR","output":2},{"input":0,"interpolation":"LINEAR","output":3},{"input":0,"interpolation":"LINEAR","output":4},{"input":0,"interpolation":"LINEAR","output":5},{"input":0,"interpolation":"LINEAR","output":6},{"input":0,"interpolation":"LINEAR","output":7},{"input":0,"interpolation":"LINEAR","output":8},{"input":0,"interpolation":"LINEAR","output":9},{"input":0,"interpolation":"LINEAR","output":10},{"input":0,"interpolation":"LINEAR","output":11},{"input":0,"interpolation":"LINEAR","output":12},{"input":0,"interpolation":"LINEAR","output":13},{"input":0,"interpolation":"LINEAR","output":14},{"input":0,"interpolation":"LINEAR","output":15},{"input":0,"interpolation":"LINEAR","output":16},{"input":0,"interpolation":"LINEAR","output":17},{"input":0,"interpolation":"LINEAR","output":18},{"input":0,"interpolation":"LINEAR","output":19},{"input":0,"interpolation":"LINEAR","output":20},{"input":0,"interpolation":"LINEAR","output":21},{"input":0,"interpolation":"LINEAR","output":22},{"input":0,"interpolation":"LINEAR","output":23},{"input":0,"interpolation":"LINEAR","output":24},{"input":0,"interpolation":"LINEAR","output":25},{"input":0,"interpolation":"LINEAR","output":26},{"input":0,"interpolation":"LINEAR","output":27},{"input":0,"interpolation":"LINEAR","output":28},{"input":0,"interpolation":"LINEAR","output":29},{"input":0,"interpolation":"LINEAR","output":30},{"input":0,"interpolation":"LINEAR","output":31},{"input":0,"interpolation":"LINEAR","output":32},{"input":0,"interpolation":"LINEAR","output":33}]}],"asset":{"generator":"FBX2glTF v0.13.1","version":"2.0"},"bufferViews":[{"buffer":0,"byteLength":244,"byteOffset":0},{"buffer":0,"byteLength":732,"byteOffset":244},{"buffer":0,"byteLength":976,"byteOffset":976},{"buffer":0,"byteLength":976,"byteOffset":1952},{"buffer":0,"byteLength":976,"byteOffset":2928},{"buffer":0,"byteLength":976,"byteOffset":3904},{"buffer":0,"byteLength":976,"byteOffset":4880},{"buffer":0,"byteLength":976,"byteOffset":5856},{"buffer":0,"byteLength":976,"byteOffset":6832},{"buffer":0,"byteLength":976,"byteOffset":7808},{"buffer":0,"byteLength":976,"byteOffset":8784},{"buffer":0,"byteLength":976,"byteOffset":9760},{"buffer":0,"byteLength":976,"byteOffset":10736},{"buffer":0,"byteLength":976,"byteOffset":11712},{"buffer":0,"byteLength":976,"byteOffset":12688},{"buffer":0,"byteLength":976,"byteOffset":13664},{"buffer":0,"byteLength":976,"byteOffset":14640},{"buffer":0,"byteLength":976,"byteOffset":15616},{"buffer":0,"byteLength":976,"byteOffset":16592},{"buffer":0,"byteLength":976,"byteOffset":17568},{"buffer":0,"byteLength":976,"byteOffset":18544},{"buffer":0,"byteLength":976,"byteOffset":19520},{"buffer":0,"byteLength":976,"byteOffset":20496},{"buffer":0,"byteLength":976,"byteOffset":21472},{"buffer":0,"byteLength":976,"byteOffset":22448},{"buffer":0,"byteLength":976,"byteOffset":23424},{"buffer":0,"byteLength":976,"byteOffset":24400},{"buffer":0,"byteLength":976,"byteOffset":25376},{"buffer":0,"byteLength":976,"byteOffset":26352},{"buffer":0,"byteLength":976,"byteOffset":27328},{"buffer":0,"byteLength":976,"byteOffset":28304},{"buffer":0,"byteLength":976,"byteOffset":29280},{"buffer":0,"byteLength":976,"byteOffset":30256},{"buffer":0,"byteLength":976,"byteOffset":31232},{"buffer":0,"byteLength":20700,"byteOffset":32208,"target":34963},{"buffer":0,"byteLength":27192,"byteOffset":52908,"target":34962},{"buffer":0,"byteLength":27192,"byteOffset":80100,"target":34962},{"buffer":0,"byteLength":36256,"byteOffset":107292,"target":34962},{"buffer":0,"byteLength":18128,"byteOffset":143548,"target":34962},{"buffer":0,"byteLength":18128,"byteOffset":161676,"target":34962},{"buffer":0,"byteLength":36256,"byteOffset":179804,"target":34962},{"buffer":0,"byteLength":2496,"byteOffset":216060}],"buffers":[{"byteLength":218556,"uri":"Fox_Idle.bin"}],"images":[{"name":"toonfoxNM","uri":"toonfoxNM.png"},{"name":"1","uri":"1.psd"}],"materials":[{"alphaMode":"OPAQUE","doubleSided":false,"extras":{"fromFBX":{"isTruePBR":false,"shadingModel":"Phong"}},"name":"08 - Default","normalTexture":{"index":0,"texCoord":0},"pbrMetallicRoughness":{"baseColorFactor":[1,1,1,1],"baseColorTexture":{"index":1,"texCoord":0},"metallicFactor":0.400000005960464,"roughnessFactor":0.422773718833923}}],"meshes":[{"name":"fox","primitives":[{"attributes":{"JOINTS_0":39,"NORMAL":36,"POSITION":35,"TANGENT":37,"TEXCOORD_0":38,"WEIGHTS_0":40},"indices":34,"material":0,"mode":4}]}],"nodes":[{"mesh":0,"name":"fox","rotation":[-0.70710676908493,-0,0,0.70710676908493],"scale":[1,1,1],"skin":0,"translation":[0,0,0]},{"children":[2],"name":"FoxTransform","rotation":[-0.70710676908493,-0,0,0.70710676908493],"scale":[1,1,1],"translation":[0,0,0]},{"children":[3,9,33,37],"name":"Fox_Pelvis","rotation":[-0.5,0.499999910593033,-0.50000005960465,0.5],"scale":[1,1,1],"translation":[-0.00000000152061,0.0347874164581299,0.0729597136378288]},{"children":[4],"name":"Fox_Tail1","rotation":[-0.00578051665798,0.00069823174271732,0.992769718170166,0.119893252849579],"scale":[1,1,1],"translation":[-0.01636433787644,-0.00745288841426,0.000000000533993904650032]},{"children":[5],"name":"Fox_Tail2","rotation":[0.00545553956180811,0.0379934832453728,-0.10928858816624,0.993268728256226],"scale":[1,1,1],"translation":[0.0267343204468489,0.00000000953674295089968,0]},{"children":[6],"name":"Fox_Tail3","rotation":[0.0191233828663826,0.0694962665438652,-0.11988540738821,0.990167677402496],"scale":[1,1,1],"translation":[0.0208616964519024,-0.00000000953674,0.000000000298023217215615]},{"children":[7],"name":"Fox_Tail4","rotation":[0.016452906653285,0.0281119123101234,-0.06274945288897,0.997497618198395],"scale":[1,1,1],"translation":[0.0220821462571621,-0.00000000953674,0.00000000059604643443123]},{"children":[8],"name":"Fox_Tail5","rotation":[0.00037213371251709,-0.02912222407758,-0.00142483995296,0.999574780464172],"scale":[1,1,1],"translation":[0.0203105136752129,0,0.00000000059604643443123]},{"name":"Fox_Tail6","rotation":[-0.00149364059325,-0.06978076696396,0.00946551840752363,0.997516334056854],"scale":[1,1,0.999998986721039],"translation":[0.0182019509375095,-0.00000000953674,0.00000000059604643443123]},{"children":[10],"name":"Fox_Spine1","rotation":[0.000000191299719176641,0.00000236739970205235,0.034412294626236,0.999407708644867],"scale":[1,1,1],"translation":[0,0,0]},{"children":[11],"name":"Fox_Spine2","rotation":[-0.00000004105029,0.0000000496722947218586,-0.05994135141373,0.998201906681061],"scale":[1,1,1],"translation":[0.0335060358047485,0.00000000000000000888178399847791,0.00000000000000909494681444138]},{"children":[12,16,29],"name":"Fox_Ribcage","rotation":[0.000000157137463929757,-0.00000244193257,-0.06166912615299,0.998096644878387],"scale":[1,1,1],"translation":[0.0335060358047485,0.00000000476837147544984,-0.00000000000002]},{"children":[13],"name":"Fox_F_LLeg1","rotation":[0.517706453800201,0.855376839637756,0.00822643376886845,0.0155840031802654],"scale":[1,1,1],"translation":[0.00239976868033409,0.00042314050369896,0.0251081697642803]},{"children":[14],"name":"Fox_F_LLeg2","rotation":[0.0733547210693359,-0.03448658064008,0.36366868019104,0.927995085716248],"scale":[1,1,1],"translation":[0.0340102761983871,0.000000408887842695549,0.0000000572204577053981]},{"children":[15],"name":"Fox_F_LLegAnkle","rotation":[-0.03675531595945,0.0563765503466129,0.0305452309548855,0.997265100479126],"scale":[1,1,1],"translation":[0.0326986275613308,0.00000000238418573772492,0]},{"name":"Fox_F_LLegDigit11","rotation":[0.0000388320222555194,0.0000656997799524106,0.509275197982788,0.8606036901474],"scale":[1,0.999998986721039,1],"translation":[0.0102812005206943,0.00093354220734909,-0.00000029563904]},{"children":[17],"name":"Fox_Spine","rotation":[0.00023377382603939,-0.01094729546458,-0.40313512086868,0.915074944496155],"scale":[1,1,1],"translation":[0,0,0]},{"children":[18,19,21,23,24,25,26,27,28],"name":"Fox_Head","rotation":[0.0129607720300555,-0.00501279020682,0.237975940108299,0.971171617507935],"scale":[1,1,1],"translation":[0.0369065552949905,-0.00000000238419,0.00000000000000000027755574995243]},{"name":"Fox_Jaw","rotation":[0.0000000204496100053575,0.000000000392939375482015,0.342020124197006,0.939692616462708],"scale":[1,1,1],"translation":[0.0127218626439571,0.0189216267317533,-0.00000000193715]},{"children":[20],"name":"Fox_LEar1","rotation":[0.230890825390816,-0.29391306638718,-0.33918416500092,0.863283634185791],"scale":[1.00000095367432,0.999998986721039,1],"translation":[0.0109870051965117,-0.03008018434048,0.0253106225281954]},{"name":"Fox_LEar2","rotation":[-0.01002333965153,0.00488579273223877,0.0943992286920547,0.995471954345703],"scale":[0.9999960064888,1.00000405311584,1],"translation":[0.0164626874029636,0.00000000476837147544984,-0.00000000476837]},{"children":[22],"name":"Fox_REar1","rotation":[-0.25690537691116,0.283185005187988,-0.38670554757118,0.839204788208008],"scale":[1.00000095367432,1,1],"translation":[0.010986995883286,-0.0300801936537,-0.02531062625349]},{"name":"Fox_REar2","rotation":[-0.01086172740906,0.00255007157102227,-0.01845064759254,0.999767541885376],"scale":[1.00000202655792,0.999997973442078,1],"translation":[0.0164626780897379,0.00000000238418573772492,0.00000000000000000444089199923895]},{"name":"Fox_LEye","rotation":[0.690345525741577,0.153045877814293,0.212631076574326,0.674379765987396],"scale":[1,1,1],"translation":[0.0160656161606312,-0.0020738649182,0.0185948759317398]},{"name":"Fox_REye","rotation":[-0.69034558534622,-0.15304592251778,0.21263100206852,0.674379706382751],"scale":[1,1,1],"translation":[0.0160655975341797,-0.00207386957482,-0.01859487406909]},{"name":"Fox_UpperLEyelid","rotation":[0.733772754669189,-0.034727986902,0.0320371836423874,0.677750051021576],"scale":[1,1,1],"translation":[0.0160656161606312,-0.00207386957482,0.0185948759317398]},{"name":"Fox_LowerLEyelid","rotation":[0.61944717168808,0.308799594640732,0.39463147521019,0.604312837123871],"scale":[1,1,1],"translation":[0.0160656161606312,-0.00207386957482,0.0185948759317398]},{"name":"Fox_UpperREyelid","rotation":[-0.73377269506455,0.0347280837595463,0.0320372618734837,0.677750051021576],"scale":[1,1,1],"translation":[0.0160655975341797,-0.00207386957482,-0.01859487406909]},{"name":"Fox_LowerREyelid","rotation":[-0.61944717168808,-0.30879965424538,0.394631415605545,0.604312837123871],"scale":[1,1,1],"translation":[0.0160655975341797,-0.00207386957482,-0.01859487406909]},{"children":[30],"name":"Fox_F_RLeg1","rotation":[0.423276245594025,0.905905723571777,-0.01227970793843,-0.00460815988481],"scale":[1,1,1],"translation":[0.00239976402372122,0.00042314050369896,-0.02510816045105]},{"children":[31],"name":"Fox_F_RLeg2","rotation":[-0.07481891661882,0.029718479141593,0.312992185354233,0.946337580680847],"scale":[1,1,1],"translation":[0.034010261297226,0.000000414848329910456,-0.00000005245209]},{"children":[32],"name":"Fox_F_RLegAnkle","rotation":[0.0426714047789574,-0.05221592634916,0.190261229872704,0.979414761066437],"scale":[1,1,1],"translation":[0.0326986201107502,-0.00000000119209,0]},{"name":"Fox_F_RLegDigit11","rotation":[0.00000380954111278697,0.00000623499954599538,0.509983777999878,0.860184013843536],"scale":[1,1.00000095367432,1],"translation":[0.0102812070399523,0.00093353982083499,0.000000290870673325117]},{"children":[34],"name":"Fox_LLeg1","rotation":[0.702398478984833,0.71164071559906,-0.01054119225591,0.00963074527680874],"scale":[0.999998986721039,1.00000095367432,1],"translation":[0,0.00000000000000000888178399847791,0.0192754864692688]},{"children":[35],"name":"Fox_LLeg2","rotation":[-0.082957662642,0.0347296632826328,-0.65242540836334,0.752497792243958],"scale":[1,0.999998986721039,1],"translation":[0.0358892716467381,-0.00000008821488,0.0000000619888282926695]},{"children":[36],"name":"Fox_LLegAnkle","rotation":[0.0704809725284576,-0.0320255421102,0.727372884750366,0.681861817836761],"scale":[1.00000298023224,0.999997019767761,1],"translation":[0.0258319899439812,0.00000000238418573772492,0.00000000238418573772492]},{"name":"Fox_LLegDigit11","rotation":[0.00015264564717654,0.0003012069792021,0.635802686214447,0.771851599216461],"scale":[1.00000405311584,0.9999960064888,1],"translation":[0.0325394831597805,0.00077513215364888,0.00000000119209286886246]},{"children":[38],"name":"Fox_RLeg1","rotation":[0.892871201038361,0.450088769197464,0.00612246291711926,-0.0127906082198],"scale":[0.999998986721039,1.00000095367432,1],"translation":[0,0,-0.01927548274398]},{"children":[39],"name":"Fox_RLeg2","rotation":[0.0686066299676895,-0.04144590720534,-0.77865731716156,0.622308731079102],"scale":[0.999994993209839,1.00000405311584,1.00000095367432],"translation":[0.0358892679214478,-0.0000000834465,-0.00000007271767]},{"children":[40],"name":"Fox_RLegAnkle","rotation":[-0.06999422609806,0.0128211788833141,0.623342454433441,0.778704464435577],"scale":[0.9999920129776,1.0000079870224,1],"translation":[0.0258319824934006,0,0]},{"name":"Fox_RLegDigit11","rotation":[-0.00012769774185,-0.0002710087283,0.635931670665741,0.771745324134827],"scale":[0.9999880194664,1.00001096725464,1.00000095367432],"translation":[0.0325394831597805,0.00077513215364888,0]}],"samplers":[{}],"scene":0,"scenes":[{"name":"Root Scene","nodes":[0,1]}],"skins":[{"inverseBindMatrices":41,"joints":[17,23,2,9,10,25,26,18,19,16,11,12,20,13,33,14,15,34,35,36,3,4,5,6,7,8,24,27,28,21,29,22,30,37,31,32,38,39,40],"skeleton":2},{"joints":[2,3,4,5,6,7,8,9,10,11,12,13,14,15,16,17,18,19,20,21,22,23,24,25,26,27,28,29,30,31,32,33,34,35,36,37,38,39,40]}],"textures":[{"name":"Map #2","sampler":0,"source":0},{"name":"Map #4","sampler":0,"source":1}]}