{"accessors":[{"bufferView":0,"byteOffset":0,"componentType":5126,"count":16,"max":[0.5],"min":[0],"type":"SCALAR"},{"bufferView":1,"byteOffset":0,"componentType":5126,"count":16,"type":"VEC3"},{"bufferView":2,"byteOffset":0,"componentType":5126,"count":16,"type":"VEC4"},{"bufferView":3,"byteOffset":0,"componentType":5126,"count":16,"type":"VEC4"},{"bufferView":4,"byteOffset":0,"componentType":5126,"count":16,"type":"VEC4"},{"bufferView":5,"byteOffset":0,"componentType":5126,"count":16,"type":"VEC4"},{"bufferView":6,"byteOffset":0,"componentType":5126,"count":16,"type":"VEC4"},{"bufferView":7,"byteOffset":0,"componentType":5126,"count":16,"type":"VEC4"},{"bufferView":8,"byteOffset":0,"componentType":5126,"count":16,"type":"VEC4"},{"bufferView":9,"byteOffset":0,"componentType":5126,"count":16,"type":"VEC4"},{"bufferView":10,"byteOffset":0,"componentType":5126,"count":16,"type":"VEC4"},{"bufferView":11,"byteOffset":0,"componentType":5126,"count":16,"type":"VEC4"},{"bufferView":12,"byteOffset":0,"componentType":5126,"count":16,"type":"VEC4"},{"bufferView":13,"byteOffset":0,"componentType":5126,"count":16,"type":"VEC4"},{"bufferView":14,"byteOffset":0,"componentType":5126,"count":16,"type":"VEC4"},{"bufferView":15,"byteOffset":0,"componentType":5126,"count":16,"type":"VEC4"},{"bufferView":16,"byteOffset":0,"componentType":5126,"count":16,"type":"VEC4"},{"bufferView":17,"byteOffset":0,"componentType":5126,"count":16,"type":"VEC4"},{"bufferView":18,"byteOffset":0,"componentType":5126,"count":16,"type":"VEC4"},{"bufferView":19,"byteOffset":0,"componentType":5126,"count":16,"type":"VEC4"},{"bufferView":20,"byteOffset":0,"componentType":5126,"count":16,"type":"VEC4"},{"bufferView":21,"byteOffset":0,"componentType":5126,"count":16,"type":"VEC4"},{"bufferView":22,"byteOffset":0,"componentType":5126,"count":16,"type":"VEC4"},{"bufferView":23,"byteOffset":0,"componentType":5126,"count":16,"type":"VEC4"},{"bufferView":24,"byteOffset":0,"componentType":5126,"count":16,"type":"VEC4"},{"bufferView":25,"byteOffset":0,"componentType":5126,"count":16,"type":"VEC4"},{"bufferView":26,"byteOffset":0,"componentType":5126,"count":16,"type":"VEC4"},{"bufferView":27,"byteOffset":0,"componentType":5126,"count":16,"type":"VEC4"},{"bufferView":28,"byteOffset":0,"componentType":5126,"count":16,"type":"VEC4"},{"bufferView":29,"byteOffset":0,"componentType":5126,"count":16,"type":"VEC4"},{"bufferView":30,"byteOffset":0,"componentType":5126,"count":16,"type":"VEC4"},{"bufferView":31,"byteOffset":0,"componentType":5126,"count":16,"type":"VEC4"},{"bufferView":32,"byteOffset":0,"componentType":5126,"count":16,"type":"VEC4"},{"bufferView":33,"byteOffset":0,"componentType":5126,"count":16,"type":"VEC4"},{"bufferView":34,"byteOffset":0,"componentType":5123,"count":10350,"type":"SCALAR"},{"bufferView":35,"byteOffset":0,"componentType":5126,"count":2266,"max":[0.0510667748749256,0.181155368685722,0.169082224369049],"min":[-0.05106677487493,-0.09766451269388,0.000000000745058015283462],"type":"VEC3"},{"bufferView":36,"byteOffset":0,"componentType":5126,"count":2266,"type":"VEC3"},{"bufferView":37,"byteOffset":0,"componentType":5126,"count":2266,"type":"VEC4"},{"bufferView":38,"byteOffset":0,"componentType":5126,"count":2266,"type":"VEC2"},{"bufferView":39,"byteOffset":0,"componentType":5123,"count":2266,"type":"VEC4"},{"bufferView":40,"byteOffset":0,"componentType":5126,"count":2266,"type":"VEC4"},{"bufferView":41,"byteOffset":0,"componentType":5126,"count":39,"type":"MAT4"}],"animations":[{"channels":[{"sampler":0,"target":{"node":2,"path":"translation"}},{"sampler":1,"target":{"node":2,"path":"rotation"}},{"sampler":2,"target":{"node":3,"path":"rotation"}},{"sampler":3,"target":{"node":4,"path":"rotation"}},{"sampler":4,"target":{"node":5,"path":"rotation"}},{"sampler":5,"target":{"node":6,"path":"rotation"}},{"sampler":6,"target":{"node":7,"path":"rotation"}},{"sampler":7,"target":{"node":8,"path":"rotation"}},{"sampler":8,"target":{"node":9,"path":"rotation"}},{"sampler":9,"target":{"node":10,"path":"rotation"}},{"sampler":10,"target":{"node":11,"path":"rotation"}},{"sampler":11,"target":{"node":12,"path":"rotation"}},{"sampler":12,"target":{"node":13,"path":"rotation"}},{"sampler":13,"target":{"node":14,"path":"rotation"}},{"sampler":14,"target":{"node":15,"path":"rotation"}},{"sampler":15,"target":{"node":16,"path":"rotation"}},{"sampler":16,"target":{"node":17,"path":"rotation"}},{"sampler":17,"target":{"node":19,"path":"rotation"}},{"sampler":18,"target":{"node":20,"path":"rotation"}},{"sampler":19,"target":{"node":21,"path":"rotation"}},{"sampler":20,"target":{"node":22,"path":"rotation"}},{"sampler":21,"target":{"node":29,"path":"rotation"}},{"sampler":22,"target":{"node":30,"path":"rotation"}},{"sampler":23,"target":{"node":31,"path":"rotation"}},{"sampler":24,"target":{"node":32,"path":"rotation"}},{"sampler":25,"target":{"node":33,"path":"rotation"}},{"sampler":26,"target":{"node":34,"path":"rotation"}},{"sampler":27,"target":{"node":35,"path":"rotation"}},{"sampler":28,"target":{"node":36,"path":"rotation"}},{"sampler":29,"target":{"node":37,"path":"rotation"}},{"sampler":30,"target":{"node":38,"path":"rotation"}},{"sampler":31,"target":{"node":39,"path":"rotation"}},{"sampler":32,"target":{"node":40,"path":"rotation"}}],"name":"Take 001","samplers":[{"input":0,"interpolation":"LINEAR","output":1},{"input":0,"interpolation":"LINEAR","output":2},{"input":0,"interpolation":"LINEAR","output":3},{"input":0,"interpolation":"LINEAR","output":4},{"input":0,"interpolation":"LINEAR","output":5},{"input":0,"interpolation":"LINEAR","output":6},{"input":0,"interpolation":"LINEAR","output":7},{"input":0,"interpolation":"LINEAR","output":8},{"input":0,"interpolation":"LINEAR","output":9},{"input":0,"interpolation":"LINEAR","output":10},{"input":0,"interpolation":"LINEAR","output":11},{"input":0,"interpolation":"LINEAR","output":12},{"input":0,"interpolation":"LINEAR","output":13},{"input":0,"interpolation":"LINEAR","output":14},{"input":0,"interpolation":"LINEAR","output":15},{"input":0,"interpolation":"LINEAR","output":16},{"input":0,"interpolation":"LINEAR","output":17},{"input":0,"interpolation":"LINEAR","output":18},{"input":0,"interpolation":"LINEAR","output":19},{"input":0,"interpolation":"LINEAR","output":20},{"input":0,"interpolation":"LINEAR","output":21},{"input":0,"interpolation":"LINEAR","output":22},{"input":0,"interpolation":"LINEAR","output":23},{"input":0,"interpolation":"LINEAR","output":24},{"input":0,"interpolation":"LINEAR","output":25},{"input":0,"interpolation":"LINEAR","output":26},{"input":0,"interpolation":"LINEAR","output":27},{"input":0,"interpolation":"LINEAR","output":28},{"input":0,"interpolation":"LINEAR","output":29},{"input":0,"interpolation":"LINEAR","output":30},{"input":0,"interpolation":"LINEAR","output":31},{"input":0,"interpolation":"LINEAR","output":32},{"input":0,"interpolation":"LINEAR","output":33}]}],"asset":{"generator":"FBX2glTF v0.13.1","version":"2.0"},"bufferViews":[{"buffer":0,"byteLength":64,"byteOffset":0},{"buffer":0,"byteLength":192,"byteOffset":64},{"buffer":0,"byteLength":256,"byteOffset":256},{"buffer":0,"byteLength":256,"byteOffset":512},{"buffer":0,"byteLength":256,"byteOffset":768},{"buffer":0,"byteLength":256,"byteOffset":1024},{"buffer":0,"byteLength":256,"byteOffset":1280},{"buffer":0,"byteLength":256,"byteOffset":1536},{"buffer":0,"byteLength":256,"byteOffset":1792},{"buffer":0,"byteLength":256,"byteOffset":2048},{"buffer":0,"byteLength":256,"byteOffset":2304},{"buffer":0,"byteLength":256,"byteOffset":2560},{"buffer":0,"byteLength":256,"byteOffset":2816},{"buffer":0,"byteLength":256,"byteOffset":3072},{"buffer":0,"byteLength":256,"byteOffset":3328},{"buffer":0,"byteLength":256,"byteOffset":3584},{"buffer":0,"byteLength":256,"byteOffset":3840},{"buffer":0,"byteLength":256,"byteOffset":4096},{"buffer":0,"byteLength":256,"byteOffset":4352},{"buffer":0,"byteLength":256,"byteOffset":4608},{"buffer":0,"byteLength":256,"byteOffset":4864},{"buffer":0,"byteLength":256,"byteOffset":5120},{"buffer":0,"byteLength":256,"byteOffset":5376},{"buffer":0,"byteLength":256,"byteOffset":5632},{"buffer":0,"byteLength":256,"byteOffset":5888},{"buffer":0,"byteLength":256,"byteOffset":6144},{"buffer":0,"byteLength":256,"byteOffset":6400},{"buffer":0,"byteLength":256,"byteOffset":6656},{"buffer":0,"byteLength":256,"byteOffset":6912},{"buffer":0,"byteLength":256,"byteOffset":7168},{"buffer":0,"byteLength":256,"byteOffset":7424},{"buffer":0,"byteLength":256,"byteOffset":7680},{"buffer":0,"byteLength":256,"byteOffset":7936},{"buffer":0,"byteLength":256,"byteOffset":8192},{"buffer":0,"byteLength":20700,"byteOffset":8448,"target":34963},{"buffer":0,"byteLength":27192,"byteOffset":29148,"target":34962},{"buffer":0,"byteLength":27192,"byteOffset":56340,"target":34962},{"buffer":0,"byteLength":36256,"byteOffset":83532,"target":34962},{"buffer":0,"byteLength":18128,"byteOffset":119788,"target":34962},{"buffer":0,"byteLength":18128,"byteOffset":137916,"target":34962},{"buffer":0,"byteLength":36256,"byteOffset":156044,"target":34962},{"buffer":0,"byteLength":2496,"byteOffset":192300}],"buffers":[{"byteLength":194796,"uri":"Fox_Run_InPlace.bin"}],"images":[{"name":"toonfoxNM","uri":"toonfoxNM.png"},{"name":"1","uri":"1.psd"}],"materials":[{"alphaMode":"OPAQUE","doubleSided":false,"extras":{"fromFBX":{"isTruePBR":false,"shadingModel":"Phong"}},"name":"08 - Default","normalTexture":{"index":0,"texCoord":0},"pbrMetallicRoughness":{"baseColorFactor":[1,1,1,1],"baseColorTexture":{"index":1,"texCoord":0},"metallicFactor":0.400000005960464,"roughnessFactor":0.422773718833923}}],"meshes":[{"name":"fox","primitives":[{"attributes":{"JOINTS_0":39,"NORMAL":36,"POSITION":35,"TANGENT":37,"TEXCOORD_0":38,"WEIGHTS_0":40},"indices":34,"material":0,"mode":4}]}],"nodes":[{"mesh":0,"name":"fox","rotation":[-0.70710676908493,-0,0,0.70710676908493],"scale":[1,1,1],"skin":0,"translation":[0,0,0]},{"children":[2],"name":"FoxTransform","rotation":[-0.70710676908493,-0,0,0.70710676908493],"scale":[1,1,1],"translation":[0,0,0]},{"children":[3,9,33,37],"name":"Fox_Pelvis","rotation":[-0.47314682602882,0.525482654571533,-0.47314685583115,0.525482714176178],"scale":[1,1,1],"translation":[-0.00000000152061,0.0347874164581299,0.0697896480560303]},{"children":[4],"name":"Fox_Tail1","rotation":[-0.00000000017168,0.000000108640016094341,0.99977833032608,0.0210547540336847],"scale":[1,1,1],"translation":[-0.01636433973908,-0.00745288841426,0.000000000707150282774904]},{"children":[5],"name":"Fox_Tail2","rotation":[-0.00000001560393,-0.00000000700805,0.0491765029728413,0.998790085315704],"scale":[1,1,1],"translation":[0.0267343129962683,-0,-0]},{"children":[6],"name":"Fox_Tail3","rotation":[0.00000000291193313906035,-0.0000000020152,0.0378971174359322,0.999281644821167],"scale":[1,1,1],"translation":[0.0208616927266121,-0.00000000476837,-0]},{"children":[7],"name":"Fox_Tail4","rotation":[0.0000000103455715105838,-0.00000001464742,-0.07016659528017,0.997535288333893],"scale":[1,0.999998986721039,1],"translation":[0.022082157433033,0.00000000476837147544984,-0]},{"children":[8],"name":"Fox_Tail5","rotation":[0.000000000491873597407988,-0.0000000048019,-0.05549923330545,0.998458743095398],"scale":[0.999998986721039,0.999998986721039,1],"translation":[0.020310515537858,-0.00000000476837,-0]},{"name":"Fox_Tail6","rotation":[-0.00000001827031,0.0000000201147312139938,-0.03104757331312,0.999517917633057],"scale":[0.999997973442078,0.999997973442078,1],"translation":[0.0182019416242838,0,-0]},{"children":[10],"name":"Fox_Spine1","rotation":[0.000000452933988981385,0.00000233555920203798,0.0356660112738609,0.999363780021667],"scale":[1,1,1],"translation":[0,0,0]},{"children":[11],"name":"Fox_Spine2","rotation":[0.00000000529870325394199,0.0000000423792201331707,-0.15796165168285,0.98744523525238],"scale":[1,1,1],"translation":[0.0335060358047485,-0.00000000476837,0.00000000000000909494681444138]},{"children":[12,16,29],"name":"Fox_Ribcage","rotation":[0.000000501187514601042,-0.00000238480061,-0.10763829946518,0.994190096855164],"scale":[1,1,1],"translation":[0.0335060395300388,-0,-0.00000000000002]},{"children":[13],"name":"Fox_F_LLeg1","rotation":[0.498839348554611,0.864811301231384,0.0111767603084445,0.0559981279075146],"scale":[1.00000095367432,1,1],"translation":[0.00239976868033409,0.00042313575977459,0.02510816603899]},{"children":[14],"name":"Fox_F_LLeg2","rotation":[0.0667045414447784,-0.05043042078614,0.531671941280365,0.842812120914459],"scale":[1.00000202655792,0.999998986721039,1],"translation":[0.0340102761983871,0.000000424385063979571,0.0000000619888282926695]},{"children":[15],"name":"Fox_F_LLegAnkle","rotation":[0.0153852505609393,0.0629056841135025,-0.11056163161993,0.991757154464722],"scale":[1,1,1],"translation":[0.0326986238360405,0,-0.00000000238419]},{"name":"Fox_F_LLegDigit11","rotation":[0.00364911183714867,0.00074607285205274,0.490799605846405,0.871264517307281],"scale":[1.00000405311584,0.999997019767761,1],"translation":[0.0102812051773071,0.00093353743432089,-0.00000029444695]},{"children":[17],"name":"Fox_Spine","rotation":[-0.00000004510377,-0.00000011196458,-0.28602635860443,0.958221733570099],"scale":[1,1,1],"translation":[0,0,0]},{"children":[18,19,21,23,24,25,26,27,28],"name":"Fox_Head","rotation":[-0.00000000604208,0.0000000306117620141322,0.206529691815376,0.978440344333649],"scale":[1,1,1],"translation":[0.0369065552949905,0.00000000476837147544984,-0.00000000000004]},{"name":"Fox_Jaw","rotation":[-0,0.0000000000000147994121704699,0.382683366537094,0.923879563808441],"scale":[1,1,1],"translation":[0.0127218626439571,0.0189216267317533,-0.00000000296634]},{"children":[20],"name":"Fox_LEar1","rotation":[0.263554722070694,-0.27103587985039,-0.42237493395805,0.823819100856781],"scale":[1.00000095367432,0.999998986721039,1],"translation":[0.0109870051965117,-0.0300801936537,0.0253106281161308]},{"name":"Fox_LEar2","rotation":[-0.00027566976496,-0.00036569469376,0.313496530056,0.949589252471924],"scale":[0.999997019767761,1.00000298023224,1],"translation":[0.0164626874029636,-0.00000000238419,0.00000000238418573772492]},{"children":[22],"name":"Fox_REar1","rotation":[-0.26355478167534,0.271036177873611,-0.42237490415573,0.823818981647491],"scale":[1.00000095367432,1,1],"translation":[0.0109869856387377,-0.0300801936537,-0.02531061880291]},{"name":"Fox_REar2","rotation":[0.00027574386331252,0.0003656075859908,0.313496530056,0.949589252471924],"scale":[1.00000298023224,0.999997973442078,1],"translation":[0.0164626874029636,-0,0.00000000238418573772492]},{"name":"Fox_LEye","rotation":[0.690345525741577,0.153045833110809,0.212631031870842,0.674379765987396],"scale":[1,1,1],"translation":[0.0160656161606312,-0.00207387912087,0.0185948759317398]},{"name":"Fox_REye","rotation":[-0.69034558534622,-0.15304589271545,0.212630972266197,0.674379706382751],"scale":[1,1,1],"translation":[0.0160655975341797,-0.00207387446426,-0.01859487220645]},{"name":"Fox_UpperLEyelid","rotation":[0.733772754669189,-0.03472802042961,0.0320371761918068,0.677750051021576],"scale":[1,1,1],"translation":[0.0160655882209539,-0.00207387912087,0.0185948759317398]},{"name":"Fox_LowerLEyelid","rotation":[0.601644039154053,0.334865421056747,0.421275764703751,0.590268015861511],"scale":[1,1,1],"translation":[0.0160655882209539,-0.00207387912087,0.0185948759317398]},{"name":"Fox_UpperREyelid","rotation":[-0.73377275466919,0.0347280874848366,0.0320372469723225,0.677750051021576],"scale":[1,1,1],"translation":[0.0160655975341797,-0.00207387446426,-0.01859487220645]},{"name":"Fox_LowerREyelid","rotation":[-0.60164403915405,-0.33486548066139,0.421275705099106,0.590268015861511],"scale":[1,1,1],"translation":[0.0160655975341797,-0.00207387446426,-0.01859487220645]},{"children":[30],"name":"Fox_F_RLeg1","rotation":[0.577135443687439,0.815774321556091,0.0365406163036823,-0.00957686640322],"scale":[1,1,1],"translation":[0.00239976402372122,0.00042313575977459,-0.02510816603899]},{"children":[31],"name":"Fox_F_RLeg2","rotation":[-0.07426171004772,0.0316226556897163,0.333287060260773,0.93936413526535],"scale":[0.999998986721039,1.00000095367432,1],"translation":[0.0340102650225163,0.000000422000880462292,-0.00000005245209]},{"children":[32],"name":"Fox_F_RLegAnkle","rotation":[0.0678870305418968,-0.08453896641731,-0.09393433481455,0.989656925201416],"scale":[1,1,1],"translation":[0.0326986201107502,0,0.00000000238418573772492]},{"name":"Fox_F_RLegDigit11","rotation":[-0.00044700223953,-0.00176114763599,0.528162121772766,0.849141597747803],"scale":[0.999997019767761,1.00000405311584,1],"translation":[0.0102812089025974,0.00093353743432089,0.000000294446948601035]},{"children":[34],"name":"Fox_LLeg1","rotation":[0.66605532169342,0.745126485824585,0.0210071112960577,-0.0267504286021],"scale":[0.999998986721039,1.00000095367432,1],"translation":[0,-0,0.0192754864692688]},{"children":[35],"name":"Fox_LLeg2","rotation":[-0.08287088572979,0.0347783379256725,-0.65334135293961,0.751709997653961],"scale":[1,1.00000095367432,1],"translation":[0.0358892679214478,-0.00000008583068,0.0000000667572024326546]},{"children":[36],"name":"Fox_LLegAnkle","rotation":[0.111231341958046,-0.04688295349479,0.539661943912506,0.833183407783508],"scale":[1.00000202655792,0.999998986721039,1],"translation":[0.0258319843560457,0.00000000238418573772492,-0.00000000238419]},{"name":"Fox_LLegDigit11","rotation":[0.0000925723506952636,0.00031730846967548,0.758215367794037,0.65200412273407],"scale":[1.00000202655792,0.999998986721039,1],"translation":[0.0325394794344902,0.00077513215364888,0]},{"children":[38],"name":"Fox_RLeg1","rotation":[0.705506324768066,0.707249462604523,0.0329340174794197,0.0312145333737135],"scale":[0.999998986721039,1.00000095367432,1],"translation":[0,-0.00000000953674,-0.01927548274398]},{"children":[39],"name":"Fox_RLeg2","rotation":[0.0809945985674858,-0.03580269962549,-0.67257684469223,0.734709739685059],"scale":[0.999994993209839,1.00000500679016,1.00000095367432],"translation":[0.0358892679214478,-0.00000008583068,-0.00000006794929]},{"children":[40],"name":"Fox_RLegAnkle","rotation":[-0.0548385232687,0.0592764765024185,0.574215173721313,0.814712226390839],"scale":[0.9999920129776,1.0000079870224,1],"translation":[0.0258319824934006,0.00000000238418573772492,0]},{"name":"Fox_RLegDigit11","rotation":[-0.00010189565364,-0.00033089128556,0.768149256706238,0.640270709991455],"scale":[0.9999880194664,1.00001204013824,1.00000095367432],"translation":[0.0325394831597805,0.00077512738062068,-0.00000000238419]}],"samplers":[{}],"scene":0,"scenes":[{"name":"Root Scene","nodes":[0,1]}],"skins":[{"inverseBindMatrices":41,"joints":[17,23,2,9,10,25,26,18,19,16,11,12,20,13,33,14,15,34,35,36,3,4,5,6,7,8,24,27,28,21,29,22,30,37,31,32,38,39,40],"skeleton":2},{"joints":[2,3,4,5,6,7,8,9,10,11,12,13,14,15,16,17,18,19,20,21,22,23,24,25,26,27,28,29,30,31,32,33,34,35,36,37,38,39,40]}],"textures":[{"name":"Map #2","sampler":0,"source":0},{"name":"Map #4","sampler":0,"source":1}]}