{"accessors":[{"bufferView":0,"byteOffset":0,"componentType":5126,"count":17,"max":[0.533333361148834],"min":[0],"type":"SCALAR"},{"bufferView":1,"byteOffset":0,"componentType":5126,"count":17,"type":"VEC3"},{"bufferView":2,"byteOffset":0,"componentType":5126,"count":17,"type":"VEC4"},{"bufferView":3,"byteOffset":0,"componentType":5126,"count":17,"type":"VEC4"},{"bufferView":4,"byteOffset":0,"componentType":5126,"count":17,"type":"VEC4"},{"bufferView":5,"byteOffset":0,"componentType":5126,"count":17,"type":"VEC4"},{"bufferView":6,"byteOffset":0,"componentType":5126,"count":17,"type":"VEC4"},{"bufferView":7,"byteOffset":0,"componentType":5126,"count":17,"type":"VEC4"},{"bufferView":8,"byteOffset":0,"componentType":5126,"count":17,"type":"VEC4"},{"bufferView":9,"byteOffset":0,"componentType":5126,"count":17,"type":"VEC4"},{"bufferView":10,"byteOffset":0,"componentType":5126,"count":17,"type":"VEC4"},{"bufferView":11,"byteOffset":0,"componentType":5126,"count":17,"type":"VEC4"},{"bufferView":12,"byteOffset":0,"componentType":5126,"count":17,"type":"VEC4"},{"bufferView":13,"byteOffset":0,"componentType":5126,"count":17,"type":"VEC4"},{"bufferView":14,"byteOffset":0,"componentType":5126,"count":17,"type":"VEC4"},{"bufferView":15,"byteOffset":0,"componentType":5126,"count":17,"type":"VEC4"},{"bufferView":16,"byteOffset":0,"componentType":5126,"count":17,"type":"VEC4"},{"bufferView":17,"byteOffset":0,"componentType":5126,"count":17,"type":"VEC3"},{"bufferView":18,"byteOffset":0,"componentType":5126,"count":17,"type":"VEC4"},{"bufferView":19,"byteOffset":0,"componentType":5126,"count":17,"type":"VEC4"},{"bufferView":20,"byteOffset":0,"componentType":5126,"count":17,"type":"VEC4"},{"bufferView":21,"byteOffset":0,"componentType":5126,"count":17,"type":"VEC4"},{"bufferView":22,"byteOffset":0,"componentType":5126,"count":17,"type":"VEC3"},{"bufferView":23,"byteOffset":0,"componentType":5126,"count":17,"type":"VEC3"},{"bufferView":24,"byteOffset":0,"componentType":5126,"count":17,"type":"VEC4"},{"bufferView":25,"byteOffset":0,"componentType":5126,"count":17,"type":"VEC3"},{"bufferView":26,"byteOffset":0,"componentType":5126,"count":17,"type":"VEC3"},{"bufferView":27,"byteOffset":0,"componentType":5126,"count":17,"type":"VEC4"},{"bufferView":28,"byteOffset":0,"componentType":5126,"count":17,"type":"VEC4"},{"bufferView":29,"byteOffset":0,"componentType":5126,"count":17,"type":"VEC4"},{"bufferView":30,"byteOffset":0,"componentType":5126,"count":17,"type":"VEC4"},{"bufferView":31,"byteOffset":0,"componentType":5126,"count":17,"type":"VEC4"},{"bufferView":32,"byteOffset":0,"componentType":5126,"count":17,"type":"VEC4"},{"bufferView":33,"byteOffset":0,"componentType":5126,"count":17,"type":"VEC4"},{"bufferView":34,"byteOffset":0,"componentType":5126,"count":17,"type":"VEC4"},{"bufferView":35,"byteOffset":0,"componentType":5126,"count":17,"type":"VEC4"},{"bufferView":36,"byteOffset":0,"componentType":5126,"count":17,"type":"VEC4"},{"bufferView":37,"byteOffset":0,"componentType":5126,"count":17,"type":"VEC4"},{"bufferView":38,"byteOffset":0,"componentType":5126,"count":17,"type":"VEC4"},{"bufferView":39,"byteOffset":0,"componentType":5126,"count":17,"type":"VEC4"},{"bufferView":40,"byteOffset":0,"componentType":5126,"count":17,"type":"VEC3"},{"bufferView":41,"byteOffset":0,"componentType":5123,"count":10350,"type":"SCALAR"},{"bufferView":42,"byteOffset":0,"componentType":5126,"count":2266,"max":[0.0510667748749256,0.180800184607506,0.169082224369049],"min":[-0.05106677487493,-0.09766451269388,0.000000000745058015283462],"type":"VEC3"},{"bufferView":43,"byteOffset":0,"componentType":5126,"count":2266,"type":"VEC3"},{"bufferView":44,"byteOffset":0,"componentType":5126,"count":2266,"type":"VEC4"},{"bufferView":45,"byteOffset":0,"componentType":5126,"count":2266,"type":"VEC2"},{"bufferView":46,"byteOffset":0,"componentType":5123,"count":2266,"type":"VEC4"},{"bufferView":47,"byteOffset":0,"componentType":5126,"count":2266,"type":"VEC4"},{"bufferView":48,"byteOffset":0,"componentType":5126,"count":39,"type":"MAT4"}],"animations":[{"channels":[{"sampler":0,"target":{"node":2,"path":"translation"}},{"sampler":1,"target":{"node":2,"path":"rotation"}},{"sampler":2,"target":{"node":3,"path":"rotation"}},{"sampler":3,"target":{"node":4,"path":"rotation"}},{"sampler":4,"target":{"node":5,"path":"rotation"}},{"sampler":5,"target":{"node":6,"path":"rotation"}},{"sampler":6,"target":{"node":7,"path":"rotation"}},{"sampler":7,"target":{"node":8,"path":"rotation"}},{"sampler":8,"target":{"node":9,"path":"rotation"}},{"sampler":9,"target":{"node":11,"path":"rotation"}},{"sampler":10,"target":{"node":12,"path":"rotation"}},{"sampler":11,"target":{"node":13,"path":"rotation"}},{"sampler":12,"target":{"node":14,"path":"rotation"}},{"sampler":13,"target":{"node":15,"path":"rotation"}},{"sampler":14,"target":{"node":16,"path":"rotation"}},{"sampler":15,"target":{"node":17,"path":"rotation"}},{"sampler":16,"target":{"node":18,"path":"translation"}},{"sampler":17,"target":{"node":19,"path":"rotation"}},{"sampler":18,"target":{"node":20,"path":"rotation"}},{"sampler":19,"target":{"node":21,"path":"rotation"}},{"sampler":20,"target":{"node":22,"path":"rotation"}},{"sampler":21,"target":{"node":25,"path":"translation"}},{"sampler":22,"target":{"node":26,"path":"translation"}},{"sampler":23,"target":{"node":26,"path":"rotation"}},{"sampler":24,"target":{"node":27,"path":"translation"}},{"sampler":25,"target":{"node":28,"path":"translation"}},{"sampler":26,"target":{"node":28,"path":"rotation"}},{"sampler":27,"target":{"node":29,"path":"rotation"}},{"sampler":28,"target":{"node":30,"path":"rotation"}},{"sampler":29,"target":{"node":31,"path":"rotation"}},{"sampler":30,"target":{"node":32,"path":"rotation"}},{"sampler":31,"target":{"node":33,"path":"rotation"}},{"sampler":32,"target":{"node":34,"path":"rotation"}},{"sampler":33,"target":{"node":35,"path":"rotation"}},{"sampler":34,"target":{"node":36,"path":"rotation"}},{"sampler":35,"target":{"node":37,"path":"rotation"}},{"sampler":36,"target":{"node":38,"path":"rotation"}},{"sampler":37,"target":{"node":39,"path":"rotation"}},{"sampler":38,"target":{"node":40,"path":"rotation"}},{"sampler":39,"target":{"node":40,"path":"scale"}}],"name":"Take 001","samplers":[{"input":0,"interpolation":"LINEAR","output":1},{"input":0,"interpolation":"LINEAR","output":2},{"input":0,"interpolation":"LINEAR","output":3},{"input":0,"interpolation":"LINEAR","output":4},{"input":0,"interpolation":"LINEAR","output":5},{"input":0,"interpolation":"LINEAR","output":6},{"input":0,"interpolation":"LINEAR","output":7},{"input":0,"interpolation":"LINEAR","output":8},{"input":0,"interpolation":"LINEAR","output":9},{"input":0,"interpolation":"LINEAR","output":10},{"input":0,"interpolation":"LINEAR","output":11},{"input":0,"interpolation":"LINEAR","output":12},{"input":0,"interpolation":"LINEAR","output":13},{"input":0,"interpolation":"LINEAR","output":14},{"input":0,"interpolation":"LINEAR","output":15},{"input":0,"interpolation":"LINEAR","output":16},{"input":0,"interpolation":"LINEAR","output":17},{"input":0,"interpolation":"LINEAR","output":18},{"input":0,"interpolation":"LINEAR","output":19},{"input":0,"interpolation":"LINEAR","output":20},{"input":0,"interpolation":"LINEAR","output":21},{"input":0,"interpolation":"LINEAR","output":22},{"input":0,"interpolation":"LINEAR","output":23},{"input":0,"interpolation":"LINEAR","output":24},{"input":0,"interpolation":"LINEAR","output":25},{"input":0,"interpolation":"LINEAR","output":26},{"input":0,"interpolation":"LINEAR","output":27},{"input":0,"interpolation":"LINEAR","output":28},{"input":0,"interpolation":"LINEAR","output":29},{"input":0,"interpolation":"LINEAR","output":30},{"input":0,"interpolation":"LINEAR","output":31},{"input":0,"interpolation":"LINEAR","output":32},{"input":0,"interpolation":"LINEAR","output":33},{"input":0,"interpolation":"LINEAR","output":34},{"input":0,"interpolation":"LINEAR","output":35},{"input":0,"interpolation":"LINEAR","output":36},{"input":0,"interpolation":"LINEAR","output":37},{"input":0,"interpolation":"LINEAR","output":38},{"input":0,"interpolation":"LINEAR","output":39},{"input":0,"interpolation":"LINEAR","output":40}]}],"asset":{"generator":"FBX2glTF v0.13.1","version":"2.0"},"bufferViews":[{"buffer":0,"byteLength":68,"byteOffset":0},{"buffer":0,"byteLength":204,"byteOffset":68},{"buffer":0,"byteLength":272,"byteOffset":272},{"buffer":0,"byteLength":272,"byteOffset":544},{"buffer":0,"byteLength":272,"byteOffset":816},{"buffer":0,"byteLength":272,"byteOffset":1088},{"buffer":0,"byteLength":272,"byteOffset":1360},{"buffer":0,"byteLength":272,"byteOffset":1632},{"buffer":0,"byteLength":272,"byteOffset":1904},{"buffer":0,"byteLength":272,"byteOffset":2176},{"buffer":0,"byteLength":272,"byteOffset":2448},{"buffer":0,"byteLength":272,"byteOffset":2720},{"buffer":0,"byteLength":272,"byteOffset":2992},{"buffer":0,"byteLength":272,"byteOffset":3264},{"buffer":0,"byteLength":272,"byteOffset":3536},{"buffer":0,"byteLength":272,"byteOffset":3808},{"buffer":0,"byteLength":272,"byteOffset":4080},{"buffer":0,"byteLength":204,"byteOffset":4352},{"buffer":0,"byteLength":272,"byteOffset":4556},{"buffer":0,"byteLength":272,"byteOffset":4828},{"buffer":0,"byteLength":272,"byteOffset":5100},{"buffer":0,"byteLength":272,"byteOffset":5372},{"buffer":0,"byteLength":204,"byteOffset":5644},{"buffer":0,"byteLength":204,"byteOffset":5848},{"buffer":0,"byteLength":272,"byteOffset":6052},{"buffer":0,"byteLength":204,"byteOffset":6324},{"buffer":0,"byteLength":204,"byteOffset":6528},{"buffer":0,"byteLength":272,"byteOffset":6732},{"buffer":0,"byteLength":272,"byteOffset":7004},{"buffer":0,"byteLength":272,"byteOffset":7276},{"buffer":0,"byteLength":272,"byteOffset":7548},{"buffer":0,"byteLength":272,"byteOffset":7820},{"buffer":0,"byteLength":272,"byteOffset":8092},{"buffer":0,"byteLength":272,"byteOffset":8364},{"buffer":0,"byteLength":272,"byteOffset":8636},{"buffer":0,"byteLength":272,"byteOffset":8908},{"buffer":0,"byteLength":272,"byteOffset":9180},{"buffer":0,"byteLength":272,"byteOffset":9452},{"buffer":0,"byteLength":272,"byteOffset":9724},{"buffer":0,"byteLength":272,"byteOffset":9996},{"buffer":0,"byteLength":204,"byteOffset":10268},{"buffer":0,"byteLength":20700,"byteOffset":10472,"target":34963},{"buffer":0,"byteLength":27192,"byteOffset":31172,"target":34962},{"buffer":0,"byteLength":27192,"byteOffset":58364,"target":34962},{"buffer":0,"byteLength":36256,"byteOffset":85556,"target":34962},{"buffer":0,"byteLength":18128,"byteOffset":121812,"target":34962},{"buffer":0,"byteLength":18128,"byteOffset":139940,"target":34962},{"buffer":0,"byteLength":36256,"byteOffset":158068,"target":34962},{"buffer":0,"byteLength":2496,"byteOffset":194324}],"buffers":[{"byteLength":196820,"uri":"Fox_Sit3_StandUp.bin"}],"images":[{"name":"toonfoxNM","uri":"toonfoxNM.png"},{"name":"1","uri":"1.psd"}],"materials":[{"alphaMode":"OPAQUE","doubleSided":false,"extras":{"fromFBX":{"isTruePBR":false,"shadingModel":"Phong"}},"name":"08 - Default","normalTexture":{"index":0,"texCoord":0},"pbrMetallicRoughness":{"baseColorFactor":[1,1,1,1],"baseColorTexture":{"index":1,"texCoord":0},"metallicFactor":0.400000005960464,"roughnessFactor":0.422773718833923}}],"meshes":[{"name":"fox","primitives":[{"attributes":{"JOINTS_0":46,"NORMAL":43,"POSITION":42,"TANGENT":44,"TEXCOORD_0":45,"WEIGHTS_0":47},"indices":41,"material":0,"mode":4}]}],"nodes":[{"mesh":0,"name":"fox","rotation":[-0.70710676908493,-0,0,0.70710676908493],"scale":[1,1,1],"skin":0,"translation":[0,0,0]},{"children":[2],"name":"FoxTransform","rotation":[-0.70710676908493,-0,0,0.70710676908493],"scale":[1,1,1],"translation":[0,0,0]},{"children":[3,9,33,37],"name":"Fox_Pelvis","rotation":[0.627211272716522,-0.32650557160378,0.627211451530457,-0.32650566101074],"scale":[1,0.999998986721039,1],"translation":[-0.00000000152061,0.0347876027226448,0.0326020978391171]},{"children":[4],"name":"Fox_Tail1","rotation":[0.13657158613205,-0.09337374567986,0.975449740886688,-0.14535248279572],"scale":[1,1,1],"translation":[-0.01636433601379,-0.00745288841426,-0.00000000039793]},{"children":[5],"name":"Fox_Tail2","rotation":[0.00215218914672732,-0.27283161878586,0.00758876278996468,0.962029457092285],"scale":[1,1.00000095367432,1.00000095367432],"translation":[0.0267343129962683,0,-0.00000000059605]},{"children":[6],"name":"Fox_Tail3","rotation":[-0.00280868657865,-0.27202579379082,0.0172353014349937,0.962131500244141],"scale":[0.999998986721039,1,1],"translation":[0.0208616927266121,0,0.00000000238418573772492]},{"children":[7],"name":"Fox_Tail4","rotation":[-0.01987280510366,-0.27026134729385,-0.01244203560054,0.962501466274261],"scale":[1,1,1],"translation":[0.0220821518450975,0.00000000476837147544984,0.00000000476837147544984]},{"children":[8],"name":"Fox_Tail5","rotation":[-0.04796507582068,-0.26416522264481,-0.01102215889841,0.963220953941345],"scale":[1.00000095367432,1,1],"translation":[0.0203105118125677,-0,-0.00000000953674]},{"name":"Fox_Tail6","rotation":[-0.07708844542503,-0.25620576739311,-0.02899826690555,0.963106989860535],"scale":[1.00000095367432,1,1],"translation":[0.0182019472122192,-0,0.00000000953674295089968]},{"children":[10],"name":"Fox_Spine1","rotation":[0.00000015726531898963,0.00000240843792198575,0.0271432884037495,0.999631524085999],"scale":[1,1,1],"translation":[0,0,0]},{"children":[11],"name":"Fox_Spine2","rotation":[0.000000044039936142326,-0.00000001250462,-0.05994143337011,0.998201906681061],"scale":[1,1,1],"translation":[0.0335060358047485,0,-0.00000000000001]},{"children":[12,16,29],"name":"Fox_Ribcage","rotation":[0.000000155226345555093,-0.00000234487743,-0.0544089525938,0.998518764972687],"scale":[1,1,1],"translation":[0.0335060358047485,-0.00000000476837,-0]},{"children":[13],"name":"Fox_F_LLeg1","rotation":[0.288173854351044,0.957548677921295,0.00736294174566865,-0.00146114500239],"scale":[1,0.999998986721039,1],"translation":[0.0023997591342777,0.00042313814628869,0.0251081753522158]},{"children":[14],"name":"Fox_F_LLeg2","rotation":[0.0741644948720932,-0.03203706070781,0.336494952440262,0.938213407993317],"scale":[1.00000095367432,1,1.00000095367432],"translation":[0.0340102724730968,0.000000419020636854839,0.0000000619888282926695]},{"children":[15],"name":"Fox_F_LLegAnkle","rotation":[-0.05581437051296,0.0488867722451687,0.00658931955695152,0.997221827507019],"scale":[1,1.00000095367432,1],"translation":[0.0326986275613308,0.00000000238418573772492,-0.00000000238419]},{"name":"Fox_F_LLegDigit11","rotation":[-0.00012658440392,-0.00021302299865,0.509871006011963,0.86025083065033],"scale":[1,1,1],"translation":[0.010281203314662,0.00093354220734909,-0.00000029563904]},{"children":[17],"name":"Fox_Spine","rotation":[0.00000000241686870516844,-0.00000003699634,-0.23813655972481,0.971231698989868],"scale":[1.00000095367432,1,1],"translation":[0,0,0]},{"children":[18,19,21,23,24,25,26,27,28],"name":"Fox_Head","rotation":[0.0000000262019952401715,0.0000000230042598303726,0.403171300888062,0.915124535560608],"scale":[1.00000095367432,1,1],"translation":[0.0369065627455711,0,0]},{"name":"Fox_Jaw","rotation":[0.0000000798629429255016,0.0000000676200997418164,0.34201991558075,0.939692676067352],"scale":[1,1,1],"translation":[0.0127218337729573,0.0189217664301395,0.00000000322124815710367]},{"children":[20],"name":"Fox_LEar1","rotation":[0.231121554970741,-0.29917275905609,-0.32567098736763,0.866612315177917],"scale":[1.00000202655792,1,0.999998986721039],"translation":[0.0109870238229632,-0.03008017502725,0.0253105964511633]},{"name":"Fox_LEar2","rotation":[0.0000000109458637709281,-0.00000004104013,-0.00560930278152,0.999984264373779],"scale":[1.00000298023224,0.999997973442078,1],"translation":[0.0164626874029636,0.00000000000000000444089199923895,-0.00000000119209]},{"children":[22],"name":"Fox_REar1","rotation":[-0.25631698966026,0.277890712022781,-0.39996147155762,0.834930658340454],"scale":[1.00000202655792,1,0.999997973442078],"translation":[0.0109870238229632,-0.03008018434048,-0.02531060390174]},{"name":"Fox_REar2","rotation":[-0.00000002638027,0.0000000454889139689385,0.124962985515594,0.992161393165588],"scale":[0.999997019767761,1.00000202655792,1],"translation":[0.0164626874029636,-0.00000000238419,0.00000000000000000444089199923895]},{"name":"Fox_LEye","rotation":[0.690345585346222,0.153045952320099,0.212631076574326,0.674379646778107],"scale":[1,1,1],"translation":[0.0160656441003084,-0.00207386957482,0.0185949523001909]},{"name":"Fox_REye","rotation":[-0.69034558534622,-0.1530459523201,0.212631061673164,0.674379706382751],"scale":[1,1,1],"translation":[0.0160656441003084,-0.00207386002876,-0.01859495788813]},{"name":"Fox_UpperLEyelid","rotation":[0.733772873878479,-0.03472804650664,0.0320371501147747,0.677749931812286],"scale":[1,1,1],"translation":[0.0160656441003084,-0.00207389821298,0.018595052883029]},{"name":"Fox_LowerLEyelid","rotation":[0.636071264743805,0.282146126031876,0.367235869169235,0.617207169532776],"scale":[1,1,0.999998986721039],"translation":[0.0160656441003084,-0.00207389821298,0.018595052883029]},{"name":"Fox_UpperREyelid","rotation":[-0.73377275466919,0.0347282215952873,0.0320372991263866,0.677750051021576],"scale":[1,1,1],"translation":[0.0160656441003084,-0.00207390775904,-0.01859505660832]},{"name":"Fox_LowerREyelid","rotation":[-0.63607102632523,-0.2821458876133,0.36723592877388,0.617207527160645],"scale":[1,1,1],"translation":[0.0160656441003084,-0.00207390775904,-0.01859505660832]},{"children":[30],"name":"Fox_F_RLeg1","rotation":[0.288173854351044,0.95754861831665,-0.00738238124177,0.0014197527198121],"scale":[1.00000095367432,1,1],"translation":[0.00239976868033409,0.00042313575977459,-0.02510815486312]},{"children":[31],"name":"Fox_F_RLeg2","rotation":[-0.07416311651468,0.031916867941618,0.336547613143921,0.938198745250702],"scale":[1.00000095367432,0.999998986721039,1],"translation":[0.0340102650225163,0.00000041663645333756,-0.00000005245209]},{"children":[32],"name":"Fox_F_RLegAnkle","rotation":[0.0558148883283138,-0.04853306338191,0.00641484651714563,0.997240245342255],"scale":[1,1,1],"translation":[0.0326986163854599,-0,-0.00000000238419]},{"name":"Fox_F_RLegDigit11","rotation":[0.0000037120721572137,0.00000642488566882093,0.509984374046326,0.860183656215668],"scale":[1.00000202655792,0.999997973442078,1],"translation":[0.0102812070399523,0.00093354220734909,0.000000293254856842395]},{"children":[34],"name":"Fox_LLeg1","rotation":[0.809285223484039,0.561887204647064,0.0319311358034611,-0.16828712821007],"scale":[1.00000095367432,0.999998986721039,1],"translation":[0.00000000000000000444089199923895,0,0.0192754939198494]},{"children":[35],"name":"Fox_LLeg2","rotation":[0.0281308088451624,-0.05148965492845,0.965046942234039,-0.25542485713959],"scale":[1,1,1],"translation":[0.0358892679214478,-0.00000009417533,0.0000000619888282926695]},{"children":[36],"name":"Fox_LLegAnkle","rotation":[0.100907132029533,-0.20553614199161,0.95648467540741,0.180858269333839],"scale":[1,0.999998986721039,1],"translation":[0.0258319824934006,0.00000000119209286886246,-0.00000000238419]},{"name":"Fox_LLegDigit11","rotation":[0.0000769251491874456,0.00032879324862733,0.228003472089767,0.973660290241241],"scale":[1,1,1],"translation":[0.0325394831597805,0.00077512982534244,-0]},{"children":[38],"name":"Fox_RLeg1","rotation":[0.807976603507996,0.559577822685242,-0.03445900976658,0.181270778179169],"scale":[1.00000095367432,0.999998986721039,1],"translation":[-0.00000000119209,0,-0.01927549019456]},{"children":[39],"name":"Fox_RLeg2","rotation":[-0.02820770815015,0.0517105124890804,0.964161455631256,-0.25869479775429],"scale":[1,1,1],"translation":[0.0358892679214478,-0.00000008106232,-0.00000007390976]},{"children":[40],"name":"Fox_RLegAnkle","rotation":[-0.10676840692759,0.217738255858421,0.952443957328796,0.184502318501472],"scale":[1,1,1],"translation":[0.0258319806307554,-0,0.00000000238418573772492]},{"name":"Fox_RLegDigit11","rotation":[-0.00017191348888,-0.00073392834747,0.227982223033905,0.973664999008179],"scale":[1,1,1],"translation":[0.0325394794344902,0.00077512935968115,-0.00000000238419]}],"samplers":[{}],"scene":0,"scenes":[{"name":"Root Scene","nodes":[0,1]}],"skins":[{"inverseBindMatrices":48,"joints":[17,23,2,9,10,25,26,18,19,16,11,12,20,13,33,14,15,34,35,36,3,4,5,6,7,8,24,27,28,21,29,22,30,37,31,32,38,39,40],"skeleton":2},{"joints":[2,3,4,5,6,7,8,9,10,11,12,13,14,15,16,17,18,19,20,21,22,23,24,25,26,27,28,29,30,31,32,33,34,35,36,37,38,39,40]}],"textures":[{"name":"Map #2","sampler":0,"source":0},{"name":"Map #4","sampler":0,"source":1}]}