{"accessors":[{"bufferView":0,"byteOffset":0,"componentType":5126,"count":31,"max":[1],"min":[0],"type":"SCALAR"},{"bufferView":1,"byteOffset":0,"componentType":5126,"count":31,"type":"VEC3"},{"bufferView":2,"byteOffset":0,"componentType":5126,"count":31,"type":"VEC4"},{"bufferView":3,"byteOffset":0,"componentType":5126,"count":31,"type":"VEC3"},{"bufferView":4,"byteOffset":0,"componentType":5126,"count":31,"type":"VEC4"},{"bufferView":5,"byteOffset":0,"componentType":5126,"count":31,"type":"VEC4"},{"bufferView":6,"byteOffset":0,"componentType":5126,"count":31,"type":"VEC4"},{"bufferView":7,"byteOffset":0,"componentType":5126,"count":31,"type":"VEC4"},{"bufferView":8,"byteOffset":0,"componentType":5126,"count":31,"type":"VEC4"},{"bufferView":9,"byteOffset":0,"componentType":5126,"count":31,"type":"VEC4"},{"bufferView":10,"byteOffset":0,"componentType":5126,"count":31,"type":"VEC4"},{"bufferView":11,"byteOffset":0,"componentType":5126,"count":31,"type":"VEC4"},{"bufferView":12,"byteOffset":0,"componentType":5126,"count":31,"type":"VEC4"},{"bufferView":13,"byteOffset":0,"componentType":5126,"count":31,"type":"VEC4"},{"bufferView":14,"byteOffset":0,"componentType":5126,"count":31,"type":"VEC4"},{"bufferView":15,"byteOffset":0,"componentType":5126,"count":31,"type":"VEC4"},{"bufferView":16,"byteOffset":0,"componentType":5126,"count":31,"type":"VEC3"},{"bufferView":17,"byteOffset":0,"componentType":5126,"count":31,"type":"VEC4"},{"bufferView":18,"byteOffset":0,"componentType":5126,"count":31,"type":"VEC3"},{"bufferView":19,"byteOffset":0,"componentType":5126,"count":31,"type":"VEC4"},{"bufferView":20,"byteOffset":0,"componentType":5126,"count":31,"type":"VEC4"},{"bufferView":21,"byteOffset":0,"componentType":5126,"count":31,"type":"VEC4"},{"bufferView":22,"byteOffset":0,"componentType":5126,"count":31,"type":"VEC4"},{"bufferView":23,"byteOffset":0,"componentType":5126,"count":31,"type":"VEC4"},{"bufferView":24,"byteOffset":0,"componentType":5126,"count":31,"type":"VEC4"},{"bufferView":25,"byteOffset":0,"componentType":5126,"count":31,"type":"VEC4"},{"bufferView":26,"byteOffset":0,"componentType":5126,"count":31,"type":"VEC4"},{"bufferView":27,"byteOffset":0,"componentType":5126,"count":31,"type":"VEC4"},{"bufferView":28,"byteOffset":0,"componentType":5126,"count":31,"type":"VEC4"},{"bufferView":29,"byteOffset":0,"componentType":5126,"count":31,"type":"VEC4"},{"bufferView":30,"byteOffset":0,"componentType":5126,"count":31,"type":"VEC4"},{"bufferView":31,"byteOffset":0,"componentType":5126,"count":31,"type":"VEC4"},{"bufferView":32,"byteOffset":0,"componentType":5126,"count":31,"type":"VEC4"},{"bufferView":33,"byteOffset":0,"componentType":5126,"count":31,"type":"VEC4"},{"bufferView":34,"byteOffset":0,"componentType":5126,"count":31,"type":"VEC4"},{"bufferView":35,"byteOffset":0,"componentType":5126,"count":31,"type":"VEC4"},{"bufferView":36,"byteOffset":0,"componentType":5126,"count":31,"type":"VEC4"},{"bufferView":37,"byteOffset":0,"componentType":5126,"count":31,"type":"VEC4"},{"bufferView":38,"byteOffset":0,"componentType":5123,"count":10350,"type":"SCALAR"},{"bufferView":39,"byteOffset":0,"componentType":5126,"count":2266,"max":[0.0510667748749256,0.181155368685722,0.169082224369049],"min":[-0.05106677487493,-0.09766451269388,0.000000000745058015283462],"type":"VEC3"},{"bufferView":40,"byteOffset":0,"componentType":5126,"count":2266,"type":"VEC3"},{"bufferView":41,"byteOffset":0,"componentType":5126,"count":2266,"type":"VEC4"},{"bufferView":42,"byteOffset":0,"componentType":5126,"count":2266,"type":"VEC2"},{"bufferView":43,"byteOffset":0,"componentType":5123,"count":2266,"type":"VEC4"},{"bufferView":44,"byteOffset":0,"componentType":5126,"count":2266,"type":"VEC4"},{"bufferView":45,"byteOffset":0,"componentType":5126,"count":39,"type":"MAT4"}],"animations":[{"channels":[{"sampler":0,"target":{"node":1,"path":"translation"}},{"sampler":1,"target":{"node":1,"path":"rotation"}},{"sampler":2,"target":{"node":2,"path":"translation"}},{"sampler":3,"target":{"node":2,"path":"rotation"}},{"sampler":4,"target":{"node":3,"path":"rotation"}},{"sampler":5,"target":{"node":4,"path":"rotation"}},{"sampler":6,"target":{"node":5,"path":"rotation"}},{"sampler":7,"target":{"node":6,"path":"rotation"}},{"sampler":8,"target":{"node":7,"path":"rotation"}},{"sampler":9,"target":{"node":8,"path":"rotation"}},{"sampler":10,"target":{"node":9,"path":"rotation"}},{"sampler":11,"target":{"node":10,"path":"rotation"}},{"sampler":12,"target":{"node":11,"path":"rotation"}},{"sampler":13,"target":{"node":12,"path":"rotation"}},{"sampler":14,"target":{"node":13,"path":"rotation"}},{"sampler":15,"target":{"node":14,"path":"translation"}},{"sampler":16,"target":{"node":14,"path":"rotation"}},{"sampler":17,"target":{"node":15,"path":"translation"}},{"sampler":18,"target":{"node":15,"path":"rotation"}},{"sampler":19,"target":{"node":16,"path":"rotation"}},{"sampler":20,"target":{"node":17,"path":"rotation"}},{"sampler":21,"target":{"node":19,"path":"rotation"}},{"sampler":22,"target":{"node":20,"path":"rotation"}},{"sampler":23,"target":{"node":21,"path":"rotation"}},{"sampler":24,"target":{"node":22,"path":"rotation"}},{"sampler":25,"target":{"node":29,"path":"rotation"}},{"sampler":26,"target":{"node":30,"path":"rotation"}},{"sampler":27,"target":{"node":31,"path":"rotation"}},{"sampler":28,"target":{"node":32,"path":"rotation"}},{"sampler":29,"target":{"node":33,"path":"rotation"}},{"sampler":30,"target":{"node":34,"path":"rotation"}},{"sampler":31,"target":{"node":35,"path":"rotation"}},{"sampler":32,"target":{"node":36,"path":"rotation"}},{"sampler":33,"target":{"node":37,"path":"rotation"}},{"sampler":34,"target":{"node":38,"path":"rotation"}},{"sampler":35,"target":{"node":39,"path":"rotation"}},{"sampler":36,"target":{"node":40,"path":"rotation"}}],"name":"Take 001","samplers":[{"input":0,"interpolation":"LINEAR","output":1},{"input":0,"interpolation":"LINEAR","output":2},{"input":0,"interpolation":"LINEAR","output":3},{"input":0,"interpolation":"LINEAR","output":4},{"input":0,"interpolation":"LINEAR","output":5},{"input":0,"interpolation":"LINEAR","output":6},{"input":0,"interpolation":"LINEAR","output":7},{"input":0,"interpolation":"LINEAR","output":8},{"input":0,"interpolation":"LINEAR","output":9},{"input":0,"interpolation":"LINEAR","output":10},{"input":0,"interpolation":"LINEAR","output":11},{"input":0,"interpolation":"LINEAR","output":12},{"input":0,"interpolation":"LINEAR","output":13},{"input":0,"interpolation":"LINEAR","output":14},{"input":0,"interpolation":"LINEAR","output":15},{"input":0,"interpolation":"LINEAR","output":16},{"input":0,"interpolation":"LINEAR","output":17},{"input":0,"interpolation":"LINEAR","output":18},{"input":0,"interpolation":"LINEAR","output":19},{"input":0,"interpolation":"LINEAR","output":20},{"input":0,"interpolation":"LINEAR","output":21},{"input":0,"interpolation":"LINEAR","output":22},{"input":0,"interpolation":"LINEAR","output":23},{"input":0,"interpolation":"LINEAR","output":24},{"input":0,"interpolation":"LINEAR","output":25},{"input":0,"interpolation":"LINEAR","output":26},{"input":0,"interpolation":"LINEAR","output":27},{"input":0,"interpolation":"LINEAR","output":28},{"input":0,"interpolation":"LINEAR","output":29},{"input":0,"interpolation":"LINEAR","output":30},{"input":0,"interpolation":"LINEAR","output":31},{"input":0,"interpolation":"LINEAR","output":32},{"input":0,"interpolation":"LINEAR","output":33},{"input":0,"interpolation":"LINEAR","output":34},{"input":0,"interpolation":"LINEAR","output":35},{"input":0,"interpolation":"LINEAR","output":36},{"input":0,"interpolation":"LINEAR","output":37}]}],"asset":{"generator":"FBX2glTF v0.13.1","version":"2.0"},"bufferViews":[{"buffer":0,"byteLength":124,"byteOffset":0},{"buffer":0,"byteLength":372,"byteOffset":124},{"buffer":0,"byteLength":496,"byteOffset":496},{"buffer":0,"byteLength":372,"byteOffset":992},{"buffer":0,"byteLength":496,"byteOffset":1364},{"buffer":0,"byteLength":496,"byteOffset":1860},{"buffer":0,"byteLength":496,"byteOffset":2356},{"buffer":0,"byteLength":496,"byteOffset":2852},{"buffer":0,"byteLength":496,"byteOffset":3348},{"buffer":0,"byteLength":496,"byteOffset":3844},{"buffer":0,"byteLength":496,"byteOffset":4340},{"buffer":0,"byteLength":496,"byteOffset":4836},{"buffer":0,"byteLength":496,"byteOffset":5332},{"buffer":0,"byteLength":496,"byteOffset":5828},{"buffer":0,"byteLength":496,"byteOffset":6324},{"buffer":0,"byteLength":496,"byteOffset":6820},{"buffer":0,"byteLength":372,"byteOffset":7316},{"buffer":0,"byteLength":496,"byteOffset":7688},{"buffer":0,"byteLength":372,"byteOffset":8184},{"buffer":0,"byteLength":496,"byteOffset":8556},{"buffer":0,"byteLength":496,"byteOffset":9052},{"buffer":0,"byteLength":496,"byteOffset":9548},{"buffer":0,"byteLength":496,"byteOffset":10044},{"buffer":0,"byteLength":496,"byteOffset":10540},{"buffer":0,"byteLength":496,"byteOffset":11036},{"buffer":0,"byteLength":496,"byteOffset":11532},{"buffer":0,"byteLength":496,"byteOffset":12028},{"buffer":0,"byteLength":496,"byteOffset":12524},{"buffer":0,"byteLength":496,"byteOffset":13020},{"buffer":0,"byteLength":496,"byteOffset":13516},{"buffer":0,"byteLength":496,"byteOffset":14012},{"buffer":0,"byteLength":496,"byteOffset":14508},{"buffer":0,"byteLength":496,"byteOffset":15004},{"buffer":0,"byteLength":496,"byteOffset":15500},{"buffer":0,"byteLength":496,"byteOffset":15996},{"buffer":0,"byteLength":496,"byteOffset":16492},{"buffer":0,"byteLength":496,"byteOffset":16988},{"buffer":0,"byteLength":496,"byteOffset":17484},{"buffer":0,"byteLength":20700,"byteOffset":17980,"target":34963},{"buffer":0,"byteLength":27192,"byteOffset":38680,"target":34962},{"buffer":0,"byteLength":27192,"byteOffset":65872,"target":34962},{"buffer":0,"byteLength":36256,"byteOffset":93064,"target":34962},{"buffer":0,"byteLength":18128,"byteOffset":129320,"target":34962},{"buffer":0,"byteLength":18128,"byteOffset":147448,"target":34962},{"buffer":0,"byteLength":36256,"byteOffset":165576,"target":34962},{"buffer":0,"byteLength":2496,"byteOffset":201832}],"buffers":[{"byteLength":204328,"uri":"Fox_Walk_Left.bin"}],"images":[{"name":"toonfoxNM","uri":"toonfoxNM.png"},{"name":"1","uri":"1.psd"}],"materials":[{"alphaMode":"OPAQUE","doubleSided":false,"extras":{"fromFBX":{"isTruePBR":false,"shadingModel":"Phong"}},"name":"08 - Default","normalTexture":{"index":0,"texCoord":0},"pbrMetallicRoughness":{"baseColorFactor":[1,1,1,1],"baseColorTexture":{"index":1,"texCoord":0},"metallicFactor":0.400000005960464,"roughnessFactor":0.422773718833923}}],"meshes":[{"name":"fox","primitives":[{"attributes":{"JOINTS_0":43,"NORMAL":40,"POSITION":39,"TANGENT":41,"TEXCOORD_0":42,"WEIGHTS_0":44},"indices":38,"material":0,"mode":4}]}],"nodes":[{"mesh":0,"name":"fox","rotation":[-0.70710676908493,-0,0,0.70710676908493],"scale":[1,1,1],"skin":0,"translation":[0,0,0]},{"children":[2],"name":"FoxTransform","rotation":[-0.70710647106171,0.000000279573839634395,0.00000024866477588148,0.707107126712799],"scale":[1,1,1],"translation":[0,0,0]},{"children":[3,9,33,37],"name":"Fox_Pelvis","rotation":[0.362783223390579,-0.60694980621338,0.606950461864471,-0.36278286576271],"scale":[1,1,1],"translation":[0.0083926934748888,0.0334157757461071,0.0704613849520683]},{"children":[4],"name":"Fox_Tail1","rotation":[0.0115441055968404,-0.00188695872203,0.99271947145462,0.119880244135857],"scale":[1,1,1],"translation":[-0.0163643527776,-0.00745288375765,0.00000000178813930329369]},{"children":[5],"name":"Fox_Tail2","rotation":[-0.00179766665678,0.0257946141064167,-0.10941804200411,0.993659436702728],"scale":[1,1,1],"translation":[0.0267343185842037,0.0000000000000000177635679969558,-0.00000000059605]},{"children":[6],"name":"Fox_Tail3","rotation":[0.0084346691146493,0.0644260421395302,-0.12111876159906,0.990509152412415],"scale":[1,1,1],"translation":[0.0208616890013218,-0.00000000953674,0.00000000119209286886246]},{"children":[7],"name":"Fox_Tail4","rotation":[0.0104012610390782,0.0194204617291689,-0.06403157860041,0.997704684734344],"scale":[1,1,1],"translation":[0.0220821537077427,0.00000000953674295089968,0]},{"children":[8],"name":"Fox_Tail5","rotation":[0.00230811163783073,-0.06265106797218,-0.00119858875405,0.998032093048096],"scale":[1,1.00000095367432,1],"translation":[0.0203105211257935,0.00000000953674295089968,0.000000000894069651646845]},{"name":"Fox_Tail6","rotation":[0.00430878670886159,-0.12307189404964,0.0093457605689764,0.992344379425049],"scale":[1.00000095367432,1.00000202655792,1],"translation":[0.0182019509375095,0,0.00000000357627860658738]},{"children":[10],"name":"Fox_Spine1","rotation":[-0.01165525708348,-0.09034415334463,0.028516847640276,0.995433986186981],"scale":[1,1,1],"translation":[0,0,0]},{"children":[11],"name":"Fox_Spine2","rotation":[0.0254490319639444,-0.29088342189789,-0.05536634847522,0.954816102981567],"scale":[1,1,1],"translation":[0.0335060358047485,0.00000000000000000888178399847791,-0.00000000208616]},{"children":[12,16,29],"name":"Fox_Ribcage","rotation":[-0.01170510798693,-0.04655519127846,-0.05547897517681,0.99730521440506],"scale":[1,1,1],"translation":[0.0335060395300388,0.00000000476837147544984,0.000000000298023217215615]},{"children":[13],"name":"Fox_F_LLeg1","rotation":[0.537429332733154,0.840953528881073,0.0316168181598186,0.0544726252555847],"scale":[1,1,1],"translation":[0.00239976868033409,0.00042314527672715,0.0251081716269255]},{"children":[14],"name":"Fox_F_LLeg2","rotation":[0.071647621691227,-0.03931976109743,0.414548426866531,0.906349897384644],"scale":[1.00000095367432,0.999998986721039,1],"translation":[0.0340102799236774,0.000000413656238151816,0.0000000548362706354055]},{"children":[15],"name":"Fox_F_LLegAnkle","rotation":[-0.21165457367897,0.203211709856987,0.0390810072422028,0.955185830593109],"scale":[1,1,1],"translation":[0.0326986275613308,-0.00001595497088,0.000000120401381309421]},{"name":"Fox_F_LLegDigit11","rotation":[-0.00000374793058,-0.00000630444856,0.50998455286026,0.860183596611023],"scale":[1.00000596046448,0.999997973442078,1.00000095367432],"translation":[0.0102801769971848,0.00093199248658493,-0.00000111579891]},{"children":[17],"name":"Fox_Spine","rotation":[-0.00096757675055,-0.06308432668447,-0.38025793433189,0.922726035118103],"scale":[1,1,1],"translation":[0,0,0]},{"children":[18,19,21,23,24,25,26,27,28],"name":"Fox_Head","rotation":[0.18944787979126,-0.15845292806625,0.19801852107048,0.948573052883148],"scale":[1,1,1],"translation":[0.0369065478444099,-0.00000000238419,0.00000000000000000444089199923895]},{"name":"Fox_Jaw","rotation":[0.00000000935419475212029,-0.00000000623303,0.342020094394684,0.939692616462708],"scale":[1,1,1],"translation":[0.0127218626439571,0.0189216323196888,-0.00000000715256]},{"children":[20],"name":"Fox_LEar1","rotation":[0.224671706557274,-0.30073082447052,-0.3156670331955,0.87145733833313],"scale":[1.00000095367432,0.999998986721039,1],"translation":[0.0109870145097375,-0.03008018434048,0.0253106262534857]},{"name":"Fox_LEar2","rotation":[-0.00408255401999,0.00279839220456779,0.147549614310265,0.989042282104492],"scale":[0.9999960064888,1.00000298023224,1],"translation":[0.0164626874029636,0.00000000476837147544984,0]},{"children":[22],"name":"Fox_REar1","rotation":[-0.26381969451904,0.275904685258865,-0.40948125720024,0.828613817691803],"scale":[1.00000095367432,0.999998986721039,1],"translation":[0.0109870145097375,-0.03008018434048,-0.02531062625349]},{"name":"Fox_REar2","rotation":[-0.01399017963558,0.00125955196563154,-0.07398148626089,0.997160673141479],"scale":[1.00000202655792,0.999997973442078,1],"translation":[0.0164626874029636,0,-0.00000000238419]},{"name":"Fox_LEye","rotation":[0.690345466136932,0.153045803308487,0.212631016969681,0.674379825592041],"scale":[1,1,1],"translation":[0.0160656161606312,-0.00207387446426,0.0185948796570301]},{"name":"Fox_REye","rotation":[-0.69034564495087,-0.15304577350616,0.212630957365036,0.674379706382751],"scale":[1,1,1],"translation":[0.0160656068474054,-0.00207387446426,-0.01859487965703]},{"name":"Fox_UpperLEyelid","rotation":[0.733772695064545,-0.03472800180316,0.0320371501147747,0.677750110626221],"scale":[1,1,1],"translation":[0.0160656161606312,-0.00207387912087,0.018594877794385]},{"name":"Fox_LowerLEyelid","rotation":[0.619447112083435,0.308799684047699,0.394631415605545,0.604312896728516],"scale":[1,1,1],"translation":[0.0160656161606312,-0.00207387912087,0.018594877794385]},{"name":"Fox_UpperREyelid","rotation":[-0.73377275466919,0.0347280688583851,0.0320372246205807,0.677750051021576],"scale":[1,1,1],"translation":[0.0160655975341797,-0.00207387912087,-0.01859487965703]},{"name":"Fox_LowerREyelid","rotation":[-0.61944717168808,-0.3087996840477,0.394631445407867,0.604312837123871],"scale":[1,1,1],"translation":[0.0160655975341797,-0.00207387912087,-0.01859487965703]},{"children":[30],"name":"Fox_F_RLeg1","rotation":[0.421305596828461,0.903176665306091,0.0695256665349007,-0.04404233768582],"scale":[1,1,1],"translation":[0.00239976402372122,0.00042314050369896,-0.02510817721486]},{"children":[31],"name":"Fox_F_RLeg2","rotation":[-0.07880871742964,0.0000971456320257857,0.0000210729176615132,0.996889770030975],"scale":[0.999998986721039,1.00000095367432,1],"translation":[0.0340102761983871,0.000000417232513427734,-0.00000005125999]},{"children":[32],"name":"Fox_F_RLegAnkle","rotation":[0.203559905290604,-0.08300628513098,0.323484390974045,0.920342981815338],"scale":[0.999998986721039,1.00000095367432,1],"translation":[0.0326986238360405,-0.00000000238419,0.00000000357627860658738]},{"name":"Fox_F_RLegDigit11","rotation":[-0.00028362104786,-0.00036510967766,0.627906978130341,0.778288245201111],"scale":[0.999998986721039,1.00000405311584,1.00000095367432],"translation":[0.0102812107652426,0.00093352317344397,0.000000294446948601035]},{"children":[34],"name":"Fox_LLeg1","rotation":[0.705436408519745,0.706254839897156,0.00966668501496315,-0.05890834704041],"scale":[0.999998986721039,1.00000095367432,1],"translation":[0.00000000715255721317476,0.00000000953674295089968,0.0192754920572042]},{"children":[35],"name":"Fox_LLeg2","rotation":[-0.07700145244598,0.0378199517726898,-0.71047896146774,0.698469758033752],"scale":[1.00000095367432,1,1],"translation":[0.0358892753720284,-0.00000009298324,0.0000000619888282926695]},{"children":[36],"name":"Fox_LLegAnkle","rotation":[0.225827917456627,0.0667984336614609,0.66273158788681,0.71086323261261],"scale":[1.00000298023224,0.999997973442078,0.999998986721039],"translation":[0.025831988081336,-0.0000000166893,-0.00000000715256]},{"name":"Fox_LLegDigit11","rotation":[0.0000936425058171153,0.00032442843075841,0.682406306266785,0.7309730052948],"scale":[1.00000596046448,0.999997973442078,1],"translation":[0.0325394608080387,0.00077512260759249,-0.00000000119209]},{"children":[38],"name":"Fox_RLeg1","rotation":[0.951589226722717,0.306974589824677,-0.00231134635396,0.0154641633853316],"scale":[0.999998986721039,1.00000095367432,1],"translation":[-0.00000000238419,-0.00000000953674,-0.01927548646927]},{"children":[39],"name":"Fox_RLeg2","rotation":[0.0701582059264183,-0.04083752632141,-0.76691287755966,0.636596262454987],"scale":[0.999994993209839,1.00000500679016,1.00000095367432],"translation":[0.0358892753720284,-0.00000007629394,-0.00000006198883]},{"children":[40],"name":"Fox_RLegAnkle","rotation":[-0.25753596425057,-0.00053606572328,0.558704674243927,0.788367986679077],"scale":[0.9999920129776,1.0000079870224,1.00000095367432],"translation":[0.02583197504282,-0.00000002145767,0.00000000476837147544984]},{"name":"Fox_RLegDigit11","rotation":[-0.00018306331185,-0.00028374782414,0.552360057830811,0.833605587482452],"scale":[0.999989986419678,1.00001299381256,1.00000095367432],"translation":[0.0325394682586193,0.00077512738062068,-0.00000000476837]}],"samplers":[{}],"scene":0,"scenes":[{"name":"Root Scene","nodes":[0,1]}],"skins":[{"inverseBindMatrices":45,"joints":[17,23,2,9,10,25,26,18,19,16,11,12,20,13,33,14,15,34,35,36,3,4,5,6,7,8,24,27,28,21,29,22,30,37,31,32,38,39,40],"skeleton":2},{"joints":[2,3,4,5,6,7,8,9,10,11,12,13,14,15,16,17,18,19,20,21,22,23,24,25,26,27,28,29,30,31,32,33,34,35,36,37,38,39,40]}],"textures":[{"name":"Map #2","sampler":0,"source":0},{"name":"Map #4","sampler":0,"source":1}]}