{"accessors":[{"bufferView":0,"byteOffset":0,"componentType":5126,"count":17,"max":[0.533333361148834],"min":[0],"type":"SCALAR"},{"bufferView":1,"byteOffset":0,"componentType":5126,"count":17,"type":"VEC3"},{"bufferView":2,"byteOffset":0,"componentType":5126,"count":17,"type":"VEC4"},{"bufferView":3,"byteOffset":0,"componentType":5126,"count":17,"type":"VEC4"},{"bufferView":4,"byteOffset":0,"componentType":5126,"count":17,"type":"VEC4"},{"bufferView":5,"byteOffset":0,"componentType":5126,"count":17,"type":"VEC4"},{"bufferView":6,"byteOffset":0,"componentType":5126,"count":17,"type":"VEC4"},{"bufferView":7,"byteOffset":0,"componentType":5126,"count":17,"type":"VEC4"},{"bufferView":8,"byteOffset":0,"componentType":5126,"count":17,"type":"VEC4"},{"bufferView":9,"byteOffset":0,"componentType":5126,"count":17,"type":"VEC4"},{"bufferView":10,"byteOffset":0,"componentType":5126,"count":17,"type":"VEC4"},{"bufferView":11,"byteOffset":0,"componentType":5126,"count":17,"type":"VEC4"},{"bufferView":12,"byteOffset":0,"componentType":5126,"count":17,"type":"VEC4"},{"bufferView":13,"byteOffset":0,"componentType":5126,"count":17,"type":"VEC4"},{"bufferView":14,"byteOffset":0,"componentType":5126,"count":17,"type":"VEC4"},{"bufferView":15,"byteOffset":0,"componentType":5126,"count":17,"type":"VEC4"},{"bufferView":16,"byteOffset":0,"componentType":5126,"count":17,"type":"VEC4"},{"bufferView":17,"byteOffset":0,"componentType":5126,"count":17,"type":"VEC3"},{"bufferView":18,"byteOffset":0,"componentType":5126,"count":17,"type":"VEC4"},{"bufferView":19,"byteOffset":0,"componentType":5126,"count":17,"type":"VEC4"},{"bufferView":20,"byteOffset":0,"componentType":5126,"count":17,"type":"VEC4"},{"bufferView":21,"byteOffset":0,"componentType":5126,"count":17,"type":"VEC4"},{"bufferView":22,"byteOffset":0,"componentType":5126,"count":17,"type":"VEC3"},{"bufferView":23,"byteOffset":0,"componentType":5126,"count":17,"type":"VEC3"},{"bufferView":24,"byteOffset":0,"componentType":5126,"count":17,"type":"VEC4"},{"bufferView":25,"byteOffset":0,"componentType":5126,"count":17,"type":"VEC3"},{"bufferView":26,"byteOffset":0,"componentType":5126,"count":17,"type":"VEC3"},{"bufferView":27,"byteOffset":0,"componentType":5126,"count":17,"type":"VEC4"},{"bufferView":28,"byteOffset":0,"componentType":5126,"count":17,"type":"VEC4"},{"bufferView":29,"byteOffset":0,"componentType":5126,"count":17,"type":"VEC4"},{"bufferView":30,"byteOffset":0,"componentType":5126,"count":17,"type":"VEC4"},{"bufferView":31,"byteOffset":0,"componentType":5126,"count":17,"type":"VEC4"},{"bufferView":32,"byteOffset":0,"componentType":5126,"count":17,"type":"VEC4"},{"bufferView":33,"byteOffset":0,"componentType":5126,"count":17,"type":"VEC4"},{"bufferView":34,"byteOffset":0,"componentType":5126,"count":17,"type":"VEC4"},{"bufferView":35,"byteOffset":0,"componentType":5126,"count":17,"type":"VEC4"},{"bufferView":36,"byteOffset":0,"componentType":5126,"count":17,"type":"VEC4"},{"bufferView":37,"byteOffset":0,"componentType":5126,"count":17,"type":"VEC4"},{"bufferView":38,"byteOffset":0,"componentType":5126,"count":17,"type":"VEC4"},{"bufferView":39,"byteOffset":0,"componentType":5126,"count":17,"type":"VEC4"},{"bufferView":40,"byteOffset":0,"componentType":5126,"count":17,"type":"VEC3"},{"bufferView":41,"byteOffset":0,"componentType":5123,"count":10350,"type":"SCALAR"},{"bufferView":42,"byteOffset":0,"componentType":5126,"count":2266,"max":[0.0510667748749256,0.180800184607506,0.169082224369049],"min":[-0.05106677487493,-0.09766451269388,0.000000000745058015283462],"type":"VEC3"},{"bufferView":43,"byteOffset":0,"componentType":5126,"count":2266,"type":"VEC3"},{"bufferView":44,"byteOffset":0,"componentType":5126,"count":2266,"type":"VEC4"},{"bufferView":45,"byteOffset":0,"componentType":5126,"count":2266,"type":"VEC2"},{"bufferView":46,"byteOffset":0,"componentType":5123,"count":2266,"type":"VEC4"},{"bufferView":47,"byteOffset":0,"componentType":5126,"count":2266,"type":"VEC4"},{"bufferView":48,"byteOffset":0,"componentType":5126,"count":39,"type":"MAT4"}],"animations":[{"channels":[{"sampler":0,"target":{"node":2,"path":"translation"}},{"sampler":1,"target":{"node":2,"path":"rotation"}},{"sampler":2,"target":{"node":3,"path":"rotation"}},{"sampler":3,"target":{"node":4,"path":"rotation"}},{"sampler":4,"target":{"node":5,"path":"rotation"}},{"sampler":5,"target":{"node":6,"path":"rotation"}},{"sampler":6,"target":{"node":7,"path":"rotation"}},{"sampler":7,"target":{"node":8,"path":"rotation"}},{"sampler":8,"target":{"node":9,"path":"rotation"}},{"sampler":9,"target":{"node":11,"path":"rotation"}},{"sampler":10,"target":{"node":12,"path":"rotation"}},{"sampler":11,"target":{"node":13,"path":"rotation"}},{"sampler":12,"target":{"node":14,"path":"rotation"}},{"sampler":13,"target":{"node":15,"path":"rotation"}},{"sampler":14,"target":{"node":16,"path":"rotation"}},{"sampler":15,"target":{"node":17,"path":"rotation"}},{"sampler":16,"target":{"node":18,"path":"translation"}},{"sampler":17,"target":{"node":19,"path":"rotation"}},{"sampler":18,"target":{"node":20,"path":"rotation"}},{"sampler":19,"target":{"node":21,"path":"rotation"}},{"sampler":20,"target":{"node":22,"path":"rotation"}},{"sampler":21,"target":{"node":25,"path":"translation"}},{"sampler":22,"target":{"node":26,"path":"translation"}},{"sampler":23,"target":{"node":26,"path":"rotation"}},{"sampler":24,"target":{"node":27,"path":"translation"}},{"sampler":25,"target":{"node":28,"path":"translation"}},{"sampler":26,"target":{"node":28,"path":"rotation"}},{"sampler":27,"target":{"node":29,"path":"rotation"}},{"sampler":28,"target":{"node":30,"path":"rotation"}},{"sampler":29,"target":{"node":31,"path":"rotation"}},{"sampler":30,"target":{"node":32,"path":"rotation"}},{"sampler":31,"target":{"node":33,"path":"rotation"}},{"sampler":32,"target":{"node":34,"path":"rotation"}},{"sampler":33,"target":{"node":35,"path":"rotation"}},{"sampler":34,"target":{"node":36,"path":"rotation"}},{"sampler":35,"target":{"node":37,"path":"rotation"}},{"sampler":36,"target":{"node":38,"path":"rotation"}},{"sampler":37,"target":{"node":39,"path":"rotation"}},{"sampler":38,"target":{"node":40,"path":"rotation"}},{"sampler":39,"target":{"node":40,"path":"scale"}}],"name":"Take 001","samplers":[{"input":0,"interpolation":"LINEAR","output":1},{"input":0,"interpolation":"LINEAR","output":2},{"input":0,"interpolation":"LINEAR","output":3},{"input":0,"interpolation":"LINEAR","output":4},{"input":0,"interpolation":"LINEAR","output":5},{"input":0,"interpolation":"LINEAR","output":6},{"input":0,"interpolation":"LINEAR","output":7},{"input":0,"interpolation":"LINEAR","output":8},{"input":0,"interpolation":"LINEAR","output":9},{"input":0,"interpolation":"LINEAR","output":10},{"input":0,"interpolation":"LINEAR","output":11},{"input":0,"interpolation":"LINEAR","output":12},{"input":0,"interpolation":"LINEAR","output":13},{"input":0,"interpolation":"LINEAR","output":14},{"input":0,"interpolation":"LINEAR","output":15},{"input":0,"interpolation":"LINEAR","output":16},{"input":0,"interpolation":"LINEAR","output":17},{"input":0,"interpolation":"LINEAR","output":18},{"input":0,"interpolation":"LINEAR","output":19},{"input":0,"interpolation":"LINEAR","output":20},{"input":0,"interpolation":"LINEAR","output":21},{"input":0,"interpolation":"LINEAR","output":22},{"input":0,"interpolation":"LINEAR","output":23},{"input":0,"interpolation":"LINEAR","output":24},{"input":0,"interpolation":"LINEAR","output":25},{"input":0,"interpolation":"LINEAR","output":26},{"input":0,"interpolation":"LINEAR","output":27},{"input":0,"interpolation":"LINEAR","output":28},{"input":0,"interpolation":"LINEAR","output":29},{"input":0,"interpolation":"LINEAR","output":30},{"input":0,"interpolation":"LINEAR","output":31},{"input":0,"interpolation":"LINEAR","output":32},{"input":0,"interpolation":"LINEAR","output":33},{"input":0,"interpolation":"LINEAR","output":34},{"input":0,"interpolation":"LINEAR","output":35},{"input":0,"interpolation":"LINEAR","output":36},{"input":0,"interpolation":"LINEAR","output":37},{"input":0,"interpolation":"LINEAR","output":38},{"input":0,"interpolation":"LINEAR","output":39},{"input":0,"interpolation":"LINEAR","output":40}]}],"asset":{"generator":"FBX2glTF v0.13.1","version":"2.0"},"bufferViews":[{"buffer":0,"byteLength":68,"byteOffset":0},{"buffer":0,"byteLength":204,"byteOffset":68},{"buffer":0,"byteLength":272,"byteOffset":272},{"buffer":0,"byteLength":272,"byteOffset":544},{"buffer":0,"byteLength":272,"byteOffset":816},{"buffer":0,"byteLength":272,"byteOffset":1088},{"buffer":0,"byteLength":272,"byteOffset":1360},{"buffer":0,"byteLength":272,"byteOffset":1632},{"buffer":0,"byteLength":272,"byteOffset":1904},{"buffer":0,"byteLength":272,"byteOffset":2176},{"buffer":0,"byteLength":272,"byteOffset":2448},{"buffer":0,"byteLength":272,"byteOffset":2720},{"buffer":0,"byteLength":272,"byteOffset":2992},{"buffer":0,"byteLength":272,"byteOffset":3264},{"buffer":0,"byteLength":272,"byteOffset":3536},{"buffer":0,"byteLength":272,"byteOffset":3808},{"buffer":0,"byteLength":272,"byteOffset":4080},{"buffer":0,"byteLength":204,"byteOffset":4352},{"buffer":0,"byteLength":272,"byteOffset":4556},{"buffer":0,"byteLength":272,"byteOffset":4828},{"buffer":0,"byteLength":272,"byteOffset":5100},{"buffer":0,"byteLength":272,"byteOffset":5372},{"buffer":0,"byteLength":204,"byteOffset":5644},{"buffer":0,"byteLength":204,"byteOffset":5848},{"buffer":0,"byteLength":272,"byteOffset":6052},{"buffer":0,"byteLength":204,"byteOffset":6324},{"buffer":0,"byteLength":204,"byteOffset":6528},{"buffer":0,"byteLength":272,"byteOffset":6732},{"buffer":0,"byteLength":272,"byteOffset":7004},{"buffer":0,"byteLength":272,"byteOffset":7276},{"buffer":0,"byteLength":272,"byteOffset":7548},{"buffer":0,"byteLength":272,"byteOffset":7820},{"buffer":0,"byteLength":272,"byteOffset":8092},{"buffer":0,"byteLength":272,"byteOffset":8364},{"buffer":0,"byteLength":272,"byteOffset":8636},{"buffer":0,"byteLength":272,"byteOffset":8908},{"buffer":0,"byteLength":272,"byteOffset":9180},{"buffer":0,"byteLength":272,"byteOffset":9452},{"buffer":0,"byteLength":272,"byteOffset":9724},{"buffer":0,"byteLength":272,"byteOffset":9996},{"buffer":0,"byteLength":204,"byteOffset":10268},{"buffer":0,"byteLength":20700,"byteOffset":10472,"target":34963},{"buffer":0,"byteLength":27192,"byteOffset":31172,"target":34962},{"buffer":0,"byteLength":27192,"byteOffset":58364,"target":34962},{"buffer":0,"byteLength":36256,"byteOffset":85556,"target":34962},{"buffer":0,"byteLength":18128,"byteOffset":121812,"target":34962},{"buffer":0,"byteLength":18128,"byteOffset":139940,"target":34962},{"buffer":0,"byteLength":36256,"byteOffset":158068,"target":34962},{"buffer":0,"byteLength":2496,"byteOffset":194324}],"buffers":[{"byteLength":196820,"uri":"Fox_Sit1.bin"}],"images":[{"name":"toonfoxNM","uri":"toonfoxNM.png"},{"name":"1","uri":"1.psd"}],"materials":[{"alphaMode":"OPAQUE","doubleSided":false,"extras":{"fromFBX":{"isTruePBR":false,"shadingModel":"Phong"}},"name":"08 - Default","normalTexture":{"index":0,"texCoord":0},"pbrMetallicRoughness":{"baseColorFactor":[1,1,1,1],"baseColorTexture":{"index":1,"texCoord":0},"metallicFactor":0.400000005960464,"roughnessFactor":0.422773718833923}}],"meshes":[{"name":"fox","primitives":[{"attributes":{"JOINTS_0":46,"NORMAL":43,"POSITION":42,"TANGENT":44,"TEXCOORD_0":45,"WEIGHTS_0":47},"indices":41,"material":0,"mode":4}]}],"nodes":[{"mesh":0,"name":"fox","rotation":[-0.70710676908493,-0,0,0.70710676908493],"scale":[1,1,1],"skin":0,"translation":[0,0,0]},{"children":[2],"name":"FoxTransform","rotation":[-0.70710676908493,-0,0,0.70710676908493],"scale":[1,1,1],"translation":[0,0,0]},{"children":[3,9,33,37],"name":"Fox_Pelvis","rotation":[-0.5,0.500000059604645,-0.5,0.499999910593033],"scale":[1,1,1],"translation":[-0.00000000152061,0.0347874164581299,0.0729597136378288]},{"children":[4],"name":"Fox_Tail1","rotation":[-0.00578054226935,0.00069817586336284,0.992769718170166,0.119893223047256],"scale":[1,1,1],"translation":[-0.01636434346437,-0.00745288375765,-0.00000000039793]},{"children":[5],"name":"Fox_Tail2","rotation":[0.00545549858361483,0.0379934459924698,-0.10928867012262,0.993268728256226],"scale":[1,1,1],"translation":[0.0267343204468489,0,0]},{"children":[6],"name":"Fox_Tail3","rotation":[0.0191233996301889,0.0694962665438652,-0.11988523602486,0.990167737007141],"scale":[1,1,1],"translation":[0.0208616927266121,-0,-0.00000000059605]},{"children":[7],"name":"Fox_Tail4","rotation":[0.01645284332335,0.0281117111444473,-0.06274940818548,0.997497618198395],"scale":[1,1,1],"translation":[0.022082157433033,-0.00000000953674,-0.00000000059605]},{"children":[8],"name":"Fox_Tail5","rotation":[0.00037216072087176,-0.02912209928036,-0.00142494367901,0.999574780464172],"scale":[1,1,0.999998986721039],"translation":[0.0203105062246323,0.0000000000000000177635679969558,0.00000000059604643443123]},{"name":"Fox_Tail6","rotation":[-0.00149356736802,-0.06978069245815,0.00946555286645889,0.997516334056854],"scale":[1,1,0.999998986721039],"translation":[0.0182019472122192,0,0.00000000119209286886246]},{"children":[10],"name":"Fox_Spine1","rotation":[0.000000186794139267477,0.00000239899077314476,0.0344132669270039,0.999407708644867],"scale":[1,1,1],"translation":[0,0,0]},{"children":[11],"name":"Fox_Spine2","rotation":[0.0000000220199556366651,0.00000000803888688949428,-0.0599413216114,0.998201906681061],"scale":[1,1,1],"translation":[0.0335060358047485,0,0.00000000000000000000003388131713]},{"children":[12,16,29],"name":"Fox_Ribcage","rotation":[0.00000017048455447366,-0.00000243034515,-0.0616700835526,0.998096585273743],"scale":[1,1,1],"translation":[0.0335060358047485,0,-0.00000000000002]},{"children":[13],"name":"Fox_F_LLeg1","rotation":[0.52017205953598,0.853632152080536,-0.00402994873002,0.0267757568508387],"scale":[1,1,1],"translation":[0.00239977356977761,0.00042314527672715,0.0251081697642803]},{"children":[14],"name":"Fox_F_LLeg2","rotation":[0.0735809803009033,-0.03393274173141,0.357136845588684,0.930530846118927],"scale":[1,1,1],"translation":[0.0340102761983871,0.000000408887842695549,0.0000000572204577053981]},{"children":[15],"name":"Fox_F_LLegAnkle","rotation":[-0.02960882522166,0.0706430226564407,0.0333482064306736,0.996504306793213],"scale":[1,1,1],"translation":[0.0326986238360405,-0.00000000238419,-0]},{"name":"Fox_F_LLegDigit11","rotation":[-0.00001442551275,-0.00002414759911,0.509202361106873,0.860646784305573],"scale":[1,1,1],"translation":[0.0102812061086297,0.00093354459386318,-0.00000029444695]},{"children":[17],"name":"Fox_Spine","rotation":[0.0002434441121295,-0.01105648931116,-0.40312391519546,0.915078580379486],"scale":[1,1,1],"translation":[0,0,0]},{"children":[18,19,21,23,24,25,26,27,28],"name":"Fox_Head","rotation":[0.0129320798441768,-0.00490706879646,0.237963691353798,0.97117555141449],"scale":[1,1,1],"translation":[0.0369065478444099,0.00000000476837147544984,0.000000000149011608607807]},{"name":"Fox_Jaw","rotation":[0.0000000275935843063735,0.0000000179131003363864,0.342020064592361,0.939692676067352],"scale":[1,1,1],"translation":[0.0127218812704086,0.0189216230064631,-0.00000000014901]},{"children":[20],"name":"Fox_LEar1","rotation":[0.230890899896622,-0.2939130961895,-0.33918422460556,0.863283574581146],"scale":[1,0.999998986721039,1],"translation":[0.0109870238229632,-0.03008020296693,0.0253106206655502]},{"name":"Fox_LEar2","rotation":[-0.01002329401672,0.0048858281224966,0.0943992286920547,0.995471954345703],"scale":[0.9999960064888,1.00000298023224,1],"translation":[0.0164626780897379,-0,-0]},{"children":[22],"name":"Fox_REar1","rotation":[-0.25690519809723,0.283185005187988,-0.38670560717583,0.839204847812653],"scale":[1.00000095367432,0.999998986721039,1],"translation":[0.0109870051965117,-0.03008018434048,-0.02531062811613]},{"name":"Fox_REar2","rotation":[-0.01086184568703,0.00254997634328902,-0.0184505674988,0.999767541885376],"scale":[1.00000202655792,0.999997973442078,1],"translation":[0.0164626874029636,-0.00000000238419,0.00000000238418573772492]},{"name":"Fox_LEye","rotation":[0.690345585346222,0.153045833110809,0.212630987167358,0.674379706382751],"scale":[1,1,1],"translation":[0.0160656161606312,-0.00207386002876,0.0185948740690947]},{"name":"Fox_REye","rotation":[-0.69034558534622,-0.15304589271545,0.212630927562714,0.674379765987396],"scale":[1,1,1],"translation":[0.0160656254738569,-0.00207386957482,-0.01859487406909]},{"name":"Fox_UpperLEyelid","rotation":[0.733772814273834,-0.034727986902,0.0320371650159359,0.677749991416931],"scale":[1,1,1],"translation":[0.0160656161606312,-0.00207386002876,0.0185948740690947]},{"name":"Fox_LowerLEyelid","rotation":[0.619447290897369,0.30879944562912,0.39463147521019,0.604312777519226],"scale":[1,1,1],"translation":[0.0160656161606312,-0.00207386002876,0.0185948740690947]},{"name":"Fox_UpperREyelid","rotation":[-0.73377269506455,0.0347280465066433,0.032037265598774,0.677750051021576],"scale":[1,1,1],"translation":[0.0160656254738569,-0.00207386957482,-0.01859487406909]},{"name":"Fox_LowerREyelid","rotation":[-0.61944717168808,-0.30879965424538,0.3946313560009,0.604312896728516],"scale":[1,1,1],"translation":[0.0160656254738569,-0.00207386957482,-0.01859487406909]},{"children":[30],"name":"Fox_F_RLeg1","rotation":[0.428216487169266,0.903306245803833,0.00822493247687817,-0.02451224438846],"scale":[1,1,1],"translation":[0.00239976868033409,0.00042315004975535,-0.02510816045105]},{"children":[31],"name":"Fox_F_RLeg2","rotation":[-0.07498453557491,0.0282448120415211,0.301690191030502,0.950032949447632],"scale":[1,1.00000095367432,1],"translation":[0.0340102650225163,0.000000417232513427734,-0.0000000500679]},{"children":[32],"name":"Fox_F_RLegAnkle","rotation":[0.0312096830457449,-0.07638344168663,0.19420725107193,0.977484047412872],"scale":[1,1,1],"translation":[0.0326986201107502,0,0.00000000238418573772492]},{"name":"Fox_F_RLegDigit11","rotation":[0.00000371706869373156,0.00000635800461168401,0.509983777999878,0.860184013843536],"scale":[0.999998986721039,1.00000095367432,1],"translation":[0.0102812051773071,0.00093353982083499,0.000000293254856842395]},{"children":[34],"name":"Fox_LLeg1","rotation":[0.702398836612701,0.71163934469223,-0.01055394299328,0.00969131011515856],"scale":[0.999998986721039,1.00000095367432,1],"translation":[0.00000000238418573772492,-0,0.0192754864692688]},{"children":[35],"name":"Fox_LLeg2","rotation":[-0.08287573605776,0.034825649112463,-0.65239304304123,0.752530455589294],"scale":[1,0.999998986721039,1],"translation":[0.0358892790973186,-0.00000009298324,0.0000000643730118099484]},{"children":[36],"name":"Fox_LLegAnkle","rotation":[0.070505753159523,-0.03216617181897,0.727371454238892,0.681854128837585],"scale":[1.00000298023224,0.999997019767761,1],"translation":[0.0258319806307554,0.00000000238418573772492,0.00000000238418573772492]},{"name":"Fox_LLegDigit11","rotation":[0.00025737404939718,0.00042836423381231,0.635763049125671,0.771884083747864],"scale":[1.00000405311584,0.9999960064888,1],"translation":[0.0325394831597805,0.00077512738062068,0]},{"children":[38],"name":"Fox_RLeg1","rotation":[0.892870783805847,0.450089573860168,0.00612268503755331,-0.01279078610241],"scale":[0.999998986721039,1.00000095367432,1],"translation":[-0.00000000238419,0,-0.01927548274398]},{"children":[39],"name":"Fox_RLeg2","rotation":[0.0685838907957077,-0.04145688563585,-0.77880990505218,0.622119545936584],"scale":[0.999993979930878,1.00000596046448,1],"translation":[0.0358892753720284,-0.0000000834465,-0.00000007152557]},{"children":[40],"name":"Fox_RLegAnkle","rotation":[-0.06998700648546,0.012887516990304,0.623794674873352,0.778341770172119],"scale":[0.999990999698639,1.00000894069672,1],"translation":[0.0258319806307554,-0,0]},{"name":"Fox_RLegDigit11","rotation":[-0.00014842388919,-0.00029591130442,0.635668694972992,0.77196192741394],"scale":[0.999985992908478,1.00001299381256,1],"translation":[0.0325394831597805,0.00077512738062068,-0.00000000119209]}],"samplers":[{}],"scene":0,"scenes":[{"name":"Root Scene","nodes":[0,1]}],"skins":[{"inverseBindMatrices":48,"joints":[17,23,2,9,10,25,26,18,19,16,11,12,20,13,33,14,15,34,35,36,3,4,5,6,7,8,24,27,28,21,29,22,30,37,31,32,38,39,40],"skeleton":2},{"joints":[2,3,4,5,6,7,8,9,10,11,12,13,14,15,16,17,18,19,20,21,22,23,24,25,26,27,28,29,30,31,32,33,34,35,36,37,38,39,40]}],"textures":[{"name":"Map #2","sampler":0,"source":0},{"name":"Map #4","sampler":0,"source":1}]}