{"accessors":[{"bufferView":0,"byteOffset":0,"componentType":5126,"count":21,"max":[0.666666686534882],"min":[0],"type":"SCALAR"},{"bufferView":1,"byteOffset":0,"componentType":5126,"count":21,"type":"VEC3"},{"bufferView":2,"byteOffset":0,"componentType":5126,"count":21,"type":"VEC4"},{"bufferView":3,"byteOffset":0,"componentType":5126,"count":21,"type":"VEC4"},{"bufferView":4,"byteOffset":0,"componentType":5126,"count":21,"type":"VEC4"},{"bufferView":5,"byteOffset":0,"componentType":5126,"count":21,"type":"VEC4"},{"bufferView":6,"byteOffset":0,"componentType":5126,"count":21,"type":"VEC4"},{"bufferView":7,"byteOffset":0,"componentType":5126,"count":21,"type":"VEC4"},{"bufferView":8,"byteOffset":0,"componentType":5126,"count":21,"type":"VEC4"},{"bufferView":9,"byteOffset":0,"componentType":5126,"count":21,"type":"VEC4"},{"bufferView":10,"byteOffset":0,"componentType":5126,"count":21,"type":"VEC4"},{"bufferView":11,"byteOffset":0,"componentType":5126,"count":21,"type":"VEC4"},{"bufferView":12,"byteOffset":0,"componentType":5126,"count":21,"type":"VEC4"},{"bufferView":13,"byteOffset":0,"componentType":5126,"count":21,"type":"VEC4"},{"bufferView":14,"byteOffset":0,"componentType":5126,"count":21,"type":"VEC4"},{"bufferView":15,"byteOffset":0,"componentType":5126,"count":21,"type":"VEC4"},{"bufferView":16,"byteOffset":0,"componentType":5126,"count":21,"type":"VEC4"},{"bufferView":17,"byteOffset":0,"componentType":5126,"count":21,"type":"VEC4"},{"bufferView":18,"byteOffset":0,"componentType":5126,"count":21,"type":"VEC3"},{"bufferView":19,"byteOffset":0,"componentType":5126,"count":21,"type":"VEC4"},{"bufferView":20,"byteOffset":0,"componentType":5126,"count":21,"type":"VEC3"},{"bufferView":21,"byteOffset":0,"componentType":5126,"count":21,"type":"VEC4"},{"bufferView":22,"byteOffset":0,"componentType":5126,"count":21,"type":"VEC3"},{"bufferView":23,"byteOffset":0,"componentType":5126,"count":21,"type":"VEC4"},{"bufferView":24,"byteOffset":0,"componentType":5126,"count":21,"type":"VEC3"},{"bufferView":25,"byteOffset":0,"componentType":5126,"count":21,"type":"VEC4"},{"bufferView":26,"byteOffset":0,"componentType":5126,"count":21,"type":"VEC4"},{"bufferView":27,"byteOffset":0,"componentType":5126,"count":21,"type":"VEC4"},{"bufferView":28,"byteOffset":0,"componentType":5126,"count":21,"type":"VEC4"},{"bufferView":29,"byteOffset":0,"componentType":5126,"count":21,"type":"VEC4"},{"bufferView":30,"byteOffset":0,"componentType":5126,"count":21,"type":"VEC4"},{"bufferView":31,"byteOffset":0,"componentType":5126,"count":21,"type":"VEC4"},{"bufferView":32,"byteOffset":0,"componentType":5126,"count":21,"type":"VEC4"},{"bufferView":33,"byteOffset":0,"componentType":5126,"count":21,"type":"VEC4"},{"bufferView":34,"byteOffset":0,"componentType":5126,"count":21,"type":"VEC4"},{"bufferView":35,"byteOffset":0,"componentType":5126,"count":21,"type":"VEC4"},{"bufferView":36,"byteOffset":0,"componentType":5126,"count":21,"type":"VEC4"},{"bufferView":37,"byteOffset":0,"componentType":5126,"count":21,"type":"VEC4"},{"bufferView":38,"byteOffset":0,"componentType":5126,"count":21,"type":"VEC3"},{"bufferView":39,"byteOffset":0,"componentType":5126,"count":21,"type":"VEC4"},{"bufferView":40,"byteOffset":0,"componentType":5126,"count":21,"type":"VEC3"},{"bufferView":41,"byteOffset":0,"componentType":5126,"count":21,"type":"VEC4"},{"bufferView":42,"byteOffset":0,"componentType":5126,"count":21,"type":"VEC3"},{"bufferView":43,"byteOffset":0,"componentType":5123,"count":10350,"type":"SCALAR"},{"bufferView":44,"byteOffset":0,"componentType":5126,"count":2266,"max":[0.0510667748749256,0.181155368685722,0.169082224369049],"min":[-0.05106677487493,-0.09766451269388,0.000000000745058015283462],"type":"VEC3"},{"bufferView":45,"byteOffset":0,"componentType":5126,"count":2266,"type":"VEC3"},{"bufferView":46,"byteOffset":0,"componentType":5126,"count":2266,"type":"VEC4"},{"bufferView":47,"byteOffset":0,"componentType":5126,"count":2266,"type":"VEC2"},{"bufferView":48,"byteOffset":0,"componentType":5123,"count":2266,"type":"VEC4"},{"bufferView":49,"byteOffset":0,"componentType":5126,"count":2266,"type":"VEC4"},{"bufferView":50,"byteOffset":0,"componentType":5126,"count":39,"type":"MAT4"}],"animations":[{"channels":[{"sampler":0,"target":{"node":2,"path":"translation"}},{"sampler":1,"target":{"node":2,"path":"rotation"}},{"sampler":2,"target":{"node":3,"path":"rotation"}},{"sampler":3,"target":{"node":4,"path":"rotation"}},{"sampler":4,"target":{"node":5,"path":"rotation"}},{"sampler":5,"target":{"node":6,"path":"rotation"}},{"sampler":6,"target":{"node":7,"path":"rotation"}},{"sampler":7,"target":{"node":8,"path":"rotation"}},{"sampler":8,"target":{"node":9,"path":"rotation"}},{"sampler":9,"target":{"node":11,"path":"rotation"}},{"sampler":10,"target":{"node":12,"path":"rotation"}},{"sampler":11,"target":{"node":13,"path":"rotation"}},{"sampler":12,"target":{"node":14,"path":"rotation"}},{"sampler":13,"target":{"node":15,"path":"rotation"}},{"sampler":14,"target":{"node":16,"path":"rotation"}},{"sampler":15,"target":{"node":17,"path":"rotation"}},{"sampler":16,"target":{"node":18,"path":"rotation"}},{"sampler":17,"target":{"node":19,"path":"translation"}},{"sampler":18,"target":{"node":19,"path":"rotation"}},{"sampler":19,"target":{"node":20,"path":"translation"}},{"sampler":20,"target":{"node":20,"path":"rotation"}},{"sampler":21,"target":{"node":21,"path":"translation"}},{"sampler":22,"target":{"node":21,"path":"rotation"}},{"sampler":23,"target":{"node":22,"path":"translation"}},{"sampler":24,"target":{"node":22,"path":"rotation"}},{"sampler":25,"target":{"node":26,"path":"rotation"}},{"sampler":26,"target":{"node":28,"path":"rotation"}},{"sampler":27,"target":{"node":29,"path":"rotation"}},{"sampler":28,"target":{"node":30,"path":"rotation"}},{"sampler":29,"target":{"node":31,"path":"rotation"}},{"sampler":30,"target":{"node":32,"path":"rotation"}},{"sampler":31,"target":{"node":33,"path":"rotation"}},{"sampler":32,"target":{"node":34,"path":"rotation"}},{"sampler":33,"target":{"node":35,"path":"rotation"}},{"sampler":34,"target":{"node":36,"path":"rotation"}},{"sampler":35,"target":{"node":37,"path":"rotation"}},{"sampler":36,"target":{"node":38,"path":"rotation"}},{"sampler":37,"target":{"node":38,"path":"scale"}},{"sampler":38,"target":{"node":39,"path":"rotation"}},{"sampler":39,"target":{"node":39,"path":"scale"}},{"sampler":40,"target":{"node":40,"path":"rotation"}},{"sampler":41,"target":{"node":40,"path":"scale"}}],"name":"Take 001","samplers":[{"input":0,"interpolation":"LINEAR","output":1},{"input":0,"interpolation":"LINEAR","output":2},{"input":0,"interpolation":"LINEAR","output":3},{"input":0,"interpolation":"LINEAR","output":4},{"input":0,"interpolation":"LINEAR","output":5},{"input":0,"interpolation":"LINEAR","output":6},{"input":0,"interpolation":"LINEAR","output":7},{"input":0,"interpolation":"LINEAR","output":8},{"input":0,"interpolation":"LINEAR","output":9},{"input":0,"interpolation":"LINEAR","output":10},{"input":0,"interpolation":"LINEAR","output":11},{"input":0,"interpolation":"LINEAR","output":12},{"input":0,"interpolation":"LINEAR","output":13},{"input":0,"interpolation":"LINEAR","output":14},{"input":0,"interpolation":"LINEAR","output":15},{"input":0,"interpolation":"LINEAR","output":16},{"input":0,"interpolation":"LINEAR","output":17},{"input":0,"interpolation":"LINEAR","output":18},{"input":0,"interpolation":"LINEAR","output":19},{"input":0,"interpolation":"LINEAR","output":20},{"input":0,"interpolation":"LINEAR","output":21},{"input":0,"interpolation":"LINEAR","output":22},{"input":0,"interpolation":"LINEAR","output":23},{"input":0,"interpolation":"LINEAR","output":24},{"input":0,"interpolation":"LINEAR","output":25},{"input":0,"interpolation":"LINEAR","output":26},{"input":0,"interpolation":"LINEAR","output":27},{"input":0,"interpolation":"LINEAR","output":28},{"input":0,"interpolation":"LINEAR","output":29},{"input":0,"interpolation":"LINEAR","output":30},{"input":0,"interpolation":"LINEAR","output":31},{"input":0,"interpolation":"LINEAR","output":32},{"input":0,"interpolation":"LINEAR","output":33},{"input":0,"interpolation":"LINEAR","output":34},{"input":0,"interpolation":"LINEAR","output":35},{"input":0,"interpolation":"LINEAR","output":36},{"input":0,"interpolation":"LINEAR","output":37},{"input":0,"interpolation":"LINEAR","output":38},{"input":0,"interpolation":"LINEAR","output":39},{"input":0,"interpolation":"LINEAR","output":40},{"input":0,"interpolation":"LINEAR","output":41},{"input":0,"interpolation":"LINEAR","output":42}]}],"asset":{"generator":"FBX2glTF v0.13.1","version":"2.0"},"bufferViews":[{"buffer":0,"byteLength":84,"byteOffset":0},{"buffer":0,"byteLength":252,"byteOffset":84},{"buffer":0,"byteLength":336,"byteOffset":336},{"buffer":0,"byteLength":336,"byteOffset":672},{"buffer":0,"byteLength":336,"byteOffset":1008},{"buffer":0,"byteLength":336,"byteOffset":1344},{"buffer":0,"byteLength":336,"byteOffset":1680},{"buffer":0,"byteLength":336,"byteOffset":2016},{"buffer":0,"byteLength":336,"byteOffset":2352},{"buffer":0,"byteLength":336,"byteOffset":2688},{"buffer":0,"byteLength":336,"byteOffset":3024},{"buffer":0,"byteLength":336,"byteOffset":3360},{"buffer":0,"byteLength":336,"byteOffset":3696},{"buffer":0,"byteLength":336,"byteOffset":4032},{"buffer":0,"byteLength":336,"byteOffset":4368},{"buffer":0,"byteLength":336,"byteOffset":4704},{"buffer":0,"byteLength":336,"byteOffset":5040},{"buffer":0,"byteLength":336,"byteOffset":5376},{"buffer":0,"byteLength":252,"byteOffset":5712},{"buffer":0,"byteLength":336,"byteOffset":5964},{"buffer":0,"byteLength":252,"byteOffset":6300},{"buffer":0,"byteLength":336,"byteOffset":6552},{"buffer":0,"byteLength":252,"byteOffset":6888},{"buffer":0,"byteLength":336,"byteOffset":7140},{"buffer":0,"byteLength":252,"byteOffset":7476},{"buffer":0,"byteLength":336,"byteOffset":7728},{"buffer":0,"byteLength":336,"byteOffset":8064},{"buffer":0,"byteLength":336,"byteOffset":8400},{"buffer":0,"byteLength":336,"byteOffset":8736},{"buffer":0,"byteLength":336,"byteOffset":9072},{"buffer":0,"byteLength":336,"byteOffset":9408},{"buffer":0,"byteLength":336,"byteOffset":9744},{"buffer":0,"byteLength":336,"byteOffset":10080},{"buffer":0,"byteLength":336,"byteOffset":10416},{"buffer":0,"byteLength":336,"byteOffset":10752},{"buffer":0,"byteLength":336,"byteOffset":11088},{"buffer":0,"byteLength":336,"byteOffset":11424},{"buffer":0,"byteLength":336,"byteOffset":11760},{"buffer":0,"byteLength":252,"byteOffset":12096},{"buffer":0,"byteLength":336,"byteOffset":12348},{"buffer":0,"byteLength":252,"byteOffset":12684},{"buffer":0,"byteLength":336,"byteOffset":12936},{"buffer":0,"byteLength":252,"byteOffset":13272},{"buffer":0,"byteLength":20700,"byteOffset":13524,"target":34963},{"buffer":0,"byteLength":27192,"byteOffset":34224,"target":34962},{"buffer":0,"byteLength":27192,"byteOffset":61416,"target":34962},{"buffer":0,"byteLength":36256,"byteOffset":88608,"target":34962},{"buffer":0,"byteLength":18128,"byteOffset":124864,"target":34962},{"buffer":0,"byteLength":18128,"byteOffset":142992,"target":34962},{"buffer":0,"byteLength":36256,"byteOffset":161120,"target":34962},{"buffer":0,"byteLength":2496,"byteOffset":197376}],"buffers":[{"byteLength":199872,"uri":"Fox_Attack_Paws.bin"}],"images":[{"name":"toonfoxNM","uri":"toonfoxNM.png"},{"name":"1","uri":"1.psd"}],"materials":[{"alphaMode":"OPAQUE","doubleSided":false,"extras":{"fromFBX":{"isTruePBR":false,"shadingModel":"Phong"}},"name":"08 - Default","normalTexture":{"index":0,"texCoord":0},"pbrMetallicRoughness":{"baseColorFactor":[1,1,1,1],"baseColorTexture":{"index":1,"texCoord":0},"metallicFactor":0.400000005960464,"roughnessFactor":0.422773718833923}}],"meshes":[{"name":"fox","primitives":[{"attributes":{"JOINTS_0":48,"NORMAL":45,"POSITION":44,"TANGENT":46,"TEXCOORD_0":47,"WEIGHTS_0":49},"indices":43,"material":0,"mode":4}]}],"nodes":[{"mesh":0,"name":"fox","rotation":[-0.70710676908493,-0,0,0.70710676908493],"scale":[1,1,1],"skin":0,"translation":[0,0,0]},{"children":[2],"name":"FoxTransform","rotation":[-0.70710647106171,0.000000337174952846908,0.000000337174640208104,0.707107126712799],"scale":[1,1,1],"translation":[0,0,0]},{"children":[3,9,33,37],"name":"Fox_Pelvis","rotation":[0.5,-0.50000005960465,0.500000476837158,-0.49999943375588],"scale":[1,1,1],"translation":[0.0000000316552544177284,0.0347874835133553,0.0729596763849258]},{"children":[4],"name":"Fox_Tail1","rotation":[-0.00577433314174,0.00074959167977795,0.992769658565521,0.11989352107048],"scale":[0.999998986721039,1,1],"translation":[-0.01636433973908,-0.00745288375765,0.0000000016469925423479]},{"children":[5],"name":"Fox_Tail2","rotation":[0.00063584587769582,-0.00537462253124,-0.10931657999754,0.993992269039154],"scale":[1,1,1],"translation":[0.026734322309494,0.0000000476837129781416,-0.00000000037253]},{"children":[6],"name":"Fox_Tail3","rotation":[-0.02034376561642,0.00638833222910762,-0.11183153092861,0.993498384952545],"scale":[1,1,1],"translation":[0.020861679688096,-0,-0.00000000029802]},{"children":[7],"name":"Fox_Tail4","rotation":[0.0021941086743027,-0.00096024974482,-0.05494457855821,0.998486518859863],"scale":[1.00000095367432,1,1],"translation":[0.0220821462571621,0.00000000953674295089968,0.00000000059604643443123]},{"children":[8],"name":"Fox_Tail5","rotation":[0.0439705662429333,-0.02912266552448,-0.00023254929692,0.998608231544495],"scale":[1,1,0.999998986721039],"translation":[0.0203105676919222,0.0000000572204577053981,-0.00000000715256]},{"name":"Fox_Tail6","rotation":[-0.02121181413531,-0.01061380654573,-0.00009804374713,0.99971866607666],"scale":[0.999998986721039,1.00000202655792,0.999998986721039],"translation":[0.0182019416242838,-0.00000001907349,-0.00000001251698]},{"children":[10],"name":"Fox_Spine1","rotation":[0.000000187048684097135,0.00000240244230553799,0.0344132669270039,0.999407708644867],"scale":[1,1,1],"translation":[0,0,0]},{"children":[11],"name":"Fox_Spine2","rotation":[0.0000000220199698475199,0.0000000080390050172241,-0.0599413216114,0.998201906681061],"scale":[1,1,1],"translation":[0.0335060358047485,-0,0.00000000000000000000003388131713]},{"children":[12,16,29],"name":"Fox_Ribcage","rotation":[0.000000170739156146738,-0.00000243379714,-0.0616700835526,0.998096585273743],"scale":[1,1,1],"translation":[0.0335060358047485,0,0]},{"children":[13],"name":"Fox_F_LLeg1","rotation":[0.517719209194183,0.855369031429291,0.00822532828897238,0.0155859589576721],"scale":[1,1,1],"translation":[0.00239977356977761,0.00042313575977459,0.0251081623136997]},{"children":[14],"name":"Fox_F_LLeg2","rotation":[0.0733454003930092,-0.03447919711471,0.363774836063385,0.927954494953156],"scale":[1,1,1.00000095367432],"translation":[0.0340102799236774,0.000000396966925109155,0.0000000405311588735913]},{"children":[15],"name":"Fox_F_LLegAnkle","rotation":[-0.03678157553077,0.0564807057380676,0.0299130510538816,0.997277438640594],"scale":[1,1,1],"translation":[0.0326986275613308,0.00000000238418573772492,0.00000000238418573772492]},{"name":"Fox_F_LLegDigit11","rotation":[-0.00002973168012,-0.00005004363629,0.509705543518066,0.86034893989563],"scale":[1,1,1],"translation":[0.0102812051773071,0.00093354459386318,-0.00000029325486]},{"children":[17],"name":"Fox_Spine","rotation":[0.00022413916303776,-0.01083876844496,-0.40314641594887,0.915071308612823],"scale":[1,1,1],"translation":[0,0,0]},{"children":[18,19,21,23,24,25,26,27,28],"name":"Fox_Head","rotation":[0.0129892630502582,-0.0051177740097,0.23798830807209,0.971167683601379],"scale":[1,1,1],"translation":[0.0369065664708614,-0.00000000715256,-0]},{"name":"Fox_Jaw","rotation":[-0.00000005199122,-0.00000001871487,0.34201991558075,0.939692676067352],"scale":[1,1,1],"translation":[0.0127218430861831,0.0189216509461403,-0.00000000089407]},{"children":[20],"name":"Fox_LEar1","rotation":[0.230863690376282,-0.29398393630981,-0.33921420574188,0.863254964351654],"scale":[1.00000095367432,0.999997019767761,1.00000202655792],"translation":[0.0109870526939631,-0.03007999435067,0.0253105759620667]},{"name":"Fox_LEar2","rotation":[-0.01001360546798,0.00497071351855993,0.0944118499755859,0.995470464229584],"scale":[0.999980986118317,1.00002300739288,0.999997019767761],"translation":[0.0164628122001886,-0.00000019073485,0.000000681877111219364]},{"children":[22],"name":"Fox_REar1","rotation":[-0.25690519809723,0.283185005187988,-0.38670560717583,0.839204847812653],"scale":[1.00000405311584,0.9999960064888,1.00000095367432],"translation":[0.0109870526939631,-0.0300801564008,-0.02531056292355]},{"name":"Fox_REar2","rotation":[-0.01091359462589,0.002550930948928,-0.01845054328442,0.999766945838928],"scale":[1.00000298023224,0.999990999698639,1.00000596046448],"translation":[0.0164624117314816,0.000000207424164955228,0.000000317096692015184]},{"name":"Fox_LEye","rotation":[0.690345525741577,0.15304571390152,0.212630972266197,0.674379765987396],"scale":[1,1.00000095367432,0.999998986721039],"translation":[0.0160656161606312,-0.00207388866693,0.018594877794385]},{"name":"Fox_REye","rotation":[-0.69034564495087,-0.15304583311081,0.212630853056908,0.674379706382751],"scale":[1,1.00000095367432,0.999998986721039],"translation":[0.0160655882209539,-0.00207388866693,-0.01859488897026]},{"name":"Fox_UpperLEyelid","rotation":[0.733772814273834,-0.03472807630897,0.0320372208952904,0.677749991416931],"scale":[1,1.00000095367432,1],"translation":[0.0160656161606312,-0.00207386002876,0.0185948796570301]},{"name":"Fox_LowerLEyelid","rotation":[0.619447290897369,0.308799475431442,0.394631505012512,0.604312777519226],"scale":[1,1.00000095367432,1],"translation":[0.0160656161606312,-0.00207386002876,0.0185948796570301]},{"name":"Fox_UpperREyelid","rotation":[-0.73377275466919,0.0347280763089657,0.0320371948182583,0.677750051021576],"scale":[1,1,1],"translation":[0.0160655882209539,-0.00207388866693,-0.01859488897026]},{"name":"Fox_LowerREyelid","rotation":[-0.61944729089737,-0.30879959464073,0.3946313560009,0.604312837123871],"scale":[1,1.00000095367432,1],"translation":[0.0160655882209539,-0.00207388866693,-0.01859488897026]},{"children":[30],"name":"Fox_F_RLeg1","rotation":[0.42326608300209,0.905911445617676,-0.0121615761891,-0.00473433639854],"scale":[1,1,1],"translation":[0.00239974493160844,0.0004231262137182,-0.02510816790164]},{"children":[31],"name":"Fox_F_RLeg2","rotation":[-0.07471529394388,0.0294343307614326,0.313170969486237,0.946295499801636],"scale":[1,1.00000095367432,1],"translation":[0.0340102761983871,0.000000416040421669095,-0.00000004529953]},{"children":[32],"name":"Fox_F_RLegAnkle","rotation":[0.0426875613629818,-0.05222249031067,0.189738482236862,0.979515135288239],"scale":[1,1,1],"translation":[0.0326986275613308,0.00000000119209286886246,0.00000000238418573772492]},{"name":"Fox_F_RLegDigit11","rotation":[0.0000927697983570397,0.00015642099606338,0.51028174161911,0.860007286071777],"scale":[1,1.00000095367432,1],"translation":[0.0102812051773071,0.00093353982083499,0.000000295639040359674]},{"children":[34],"name":"Fox_LLeg1","rotation":[0.702396273612976,0.711642444133759,-0.01054735388607,0.00965675711631775],"scale":[0.999998986721039,1.00000095367432,1],"translation":[0.00000000238418573772492,0.00000000953674295089968,0.0192754864692688]},{"children":[35],"name":"Fox_LLeg2","rotation":[-0.08298011124134,0.0346969030797482,-0.65248280763626,0.752447068691254],"scale":[1.00000095367432,0.999998986721039,1],"translation":[0.0358892679214478,-0.00000008106232,0.0000000619888282926695]},{"children":[36],"name":"Fox_LLegAnkle","rotation":[0.0704943165183067,-0.03197770193219,0.72754830121994,0.681675434112549],"scale":[1.00000298023224,0.999997019767761,1],"translation":[0.0258319769054651,0,-0]},{"name":"Fox_LLegDigit11","rotation":[0.00014912398182787,0.00029685324989259,0.635669589042664,0.771961152553558],"scale":[1.00000405311584,0.999994993209839,1],"translation":[0.0325394719839096,0.00077513215364888,-0]},{"children":[38],"name":"Fox_RLeg1","rotation":[0.892869651317596,0.450091898441315,0.00612286664545536,-0.01279080472887],"scale":[0.999998986721039,1.00000095367432,1.00000095367432],"translation":[-0.00000000238419,0,-0.01927548274398]},{"children":[39],"name":"Fox_RLeg2","rotation":[0.0685915723443031,-0.04145693406463,-0.77872002124786,0.622231185436249],"scale":[0.999993979930878,1.00000596046448,1],"translation":[0.0358892641961575,-0.0000000834465,-0.00000006794929]},{"children":[40],"name":"Fox_RLegAnkle","rotation":[-0.07000247389078,0.0128784505650401,0.623550057411194,0.778536558151245],"scale":[0.999990999698639,1.00000894069672,1],"translation":[0.0258319824934006,0.00000000476837147544984,-0.00000000238419]},{"name":"Fox_RLegDigit11","rotation":[-0.0001526853448,-0.00030120820156,0.635801792144775,0.771852314472198],"scale":[0.999985992908478,1.00001394748688,1],"translation":[0.032539464533329,0.00077512738062068,-0.00000000119209]}],"samplers":[{}],"scene":0,"scenes":[{"name":"Root Scene","nodes":[0,1]}],"skins":[{"inverseBindMatrices":50,"joints":[17,23,2,9,10,25,26,18,19,16,11,12,20,13,33,14,15,34,35,36,3,4,5,6,7,8,24,27,28,21,29,22,30,37,31,32,38,39,40],"skeleton":2},{"joints":[2,3,4,5,6,7,8,9,10,11,12,13,14,15,16,17,18,19,20,21,22,23,24,25,26,27,28,29,30,31,32,33,34,35,36,37,38,39,40]}],"textures":[{"name":"Map #2","sampler":0,"source":0},{"name":"Map #4","sampler":0,"source":1}]}